<?xml version="1.0" encoding="UTF-8" standalone="no"?>
<!-- Created with Inkscape (http://www.inkscape.org/) -->

<svg
   xmlns:ns0="http://www.iki.fi/pav/software/textext/"
   xmlns:dc="http://purl.org/dc/elements/1.1/"
   xmlns:cc="http://creativecommons.org/ns#"
   xmlns:rdf="http://www.w3.org/1999/02/22-rdf-syntax-ns#"
   xmlns:svg="http://www.w3.org/2000/svg"
   xmlns="http://www.w3.org/2000/svg"
   xmlns:sodipodi="http://sodipodi.sourceforge.net/DTD/sodipodi-0.dtd"
   xmlns:inkscape="http://www.inkscape.org/namespaces/inkscape"
   width="212.59842"
   height="180.70866"
   id="svg3041"
   version="1.1"
   inkscape:version="0.48.2 r9819"
   sodipodi:docname="FFLUI_Differentieel_controlevolume_spanning.svg">
  <sodipodi:namedview
     id="base"
     pagecolor="#ffffff"
     bordercolor="#666666"
     borderopacity="1.0"
     inkscape:pageopacity="0.0"
     inkscape:pageshadow="2"
     inkscape:zoom="1.979899"
     inkscape:cx="112.05069"
     inkscape:cy="101.89349"
     inkscape:document-units="mm"
     inkscape:current-layer="layer1"
     showgrid="false"
     inkscape:window-width="1366"
     inkscape:window-height="706"
     inkscape:window-x="-8"
     inkscape:window-y="-8"
     inkscape:window-maximized="1"
     units="mm">
    <inkscape:grid
       type="xygrid"
       id="grid2992"
       empspacing="5"
       visible="true"
       enabled="true"
       snapvisiblegridlinesonly="true"
       units="mm"
       spacingx="1mm"
       spacingy="1mm" />
  </sodipodi:namedview>
  <defs
     id="defs3043">
    <marker
       style="overflow:visible"
       id="Arrow1Mstart"
       refX="0"
       refY="0"
       orient="auto"
       inkscape:stockid="Arrow1Mstart">
      <path
         transform="matrix(0.4,0,0,0.4,4,0)"
         style="fill-rule:evenodd;stroke:#000000;stroke-width:1pt;marker-start:none"
         d="M 0,0 5,-5 -12.5,0 5,5 0,0 z"
         id="path3764"
         inkscape:connector-curvature="0" />
    </marker>
    <marker
       inkscape:stockid="Arrow1Lend"
       orient="auto"
       refY="0"
       refX="0"
       id="Arrow1Lend"
       style="overflow:visible">
      <path
         id="path3761"
         d="M 0,0 5,-5 -12.5,0 5,5 0,0 z"
         style="fill-rule:evenodd;stroke:#000000;stroke-width:1pt;marker-start:none"
         transform="matrix(-0.8,0,0,-0.8,-10,0)"
         inkscape:connector-curvature="0" />
    </marker>
    <marker
       inkscape:stockid="Arrow1Lstart"
       orient="auto"
       refY="0"
       refX="0"
       id="Arrow1Lstart"
       style="overflow:visible">
      <path
         id="path3758"
         d="M 0,0 5,-5 -12.5,0 5,5 0,0 z"
         style="fill-rule:evenodd;stroke:#000000;stroke-width:1pt;marker-start:none"
         transform="matrix(0.8,0,0,0.8,10,0)"
         inkscape:connector-curvature="0" />
    </marker>
    <marker
       inkscape:stockid="Arrow1Mend"
       orient="auto"
       refY="0"
       refX="0"
       id="Arrow1Mend"
       style="overflow:visible">
      <path
         id="path3767"
         d="M 0,0 5,-5 -12.5,0 5,5 0,0 z"
         style="fill-rule:evenodd;stroke:#000000;stroke-width:1pt;marker-start:none"
         transform="matrix(-0.4,0,0,-0.4,-4,0)"
         inkscape:connector-curvature="0" />
    </marker>
  </defs>
  <metadata
     id="metadata3046">
    <rdf:RDF>
      <cc:Work
         rdf:about="">
        <dc:format>image/svg+xml</dc:format>
        <dc:type
           rdf:resource="http://purl.org/dc/dcmitype/StillImage" />
        <dc:title />
      </cc:Work>
    </rdf:RDF>
  </metadata>
  <g
     inkscape:label="Laag 1"
     inkscape:groupmode="layer"
     id="layer1"
     transform="translate(0,-871.65352)">
    <rect
       style="fill:#e6e6e6;stroke:#000000;stroke-width:0.70866144;stroke-linecap:square;stroke-linejoin:miter;stroke-miterlimit:4;stroke-dasharray:2.83464567, 2.83464567;stroke-dashoffset:0"
       id="rect2983"
       width="106.29919"
       height="106.29919"
       x="58.259563"
       y="897.96417" />
    <path
       style="fill:none;stroke:#000000;stroke-width:0.70866144;stroke-linecap:butt;stroke-linejoin:miter;stroke-miterlimit:4;stroke-opacity:1;stroke-dasharray:none;marker-start:url(#Arrow1Mstart);marker-end:url(#Arrow1Mend)"
       d="m 58.25954,1039.6964 106.29921,0"
       id="path4381"
       inkscape:connector-curvature="0" />
    <g
       id="g4798"
       transform="matrix(1.25,0,0,-1.25,-8.982548,1666.8456)"
       xml:space="preserve"
       stroke-miterlimit="10.433"
       font-style="normal"
       font-variant="normal"
       font-weight="normal"
       font-stretch="normal"
       font-size-adjust="none"
       letter-spacing="normal"
       word-spacing="normal"
       ns0:text="$\\Delta x$"
       ns0:preamble="D:\\Documenten\\Worksheets\\Inkscape\\incscape_preamble.tex"
       style="font-style:normal;font-variant:normal;font-weight:normal;font-stretch:normal;letter-spacing:normal;word-spacing:normal;text-anchor:start;fill:none;stroke:#000000;stroke-linecap:butt;stroke-linejoin:miter;stroke-miterlimit:10.43299961;stroke-opacity:1;stroke-dasharray:none;stroke-dashoffset:0">
<path
   style="fill:#000000;stroke-width:0"
   inkscape:connector-curvature="0"
   d="m 94.398,500.11 -0.007,0.01 -0.006,0.01 -0.006,0.01 -0.006,0.01 -0.005,0.01 -0.006,0.01 -0.005,0.01 -0.005,0.01 -0.006,0.01 -0.005,0.01 -0.006,0.01 -0.005,0 -0.006,0.01 -0.006,0.01 -0.006,0 -0.006,0.01 -0.007,0 -0.007,0.01 -0.008,0 -0.007,0.01 -0.009,0 -0.008,0 -0.009,0.01 -0.01,0 -0.01,0 -0.011,0 -0.012,0.01 -0.012,0 -0.013,0 -0.014,0 -0.015,0 -0.015,0 c -0.169,0 -0.189,-0.05 -0.259,-0.18 l -0.059,-0.81 2.676,-5.37 h -5.363 l 2.687,5.37 0.059,0.81 -3.363,-6.73 c -0.049,-0.09 -0.049,-0.11 -0.049,-0.12 0,-0.08 0.059,-0.08 0.219,-0.08 h 6.904 c 0.159,0 0.219,0 0.219,0.08 0,0.01 0,0.03 -0.05,0.12 z"
   id="path4800" />
<path
   style="fill:#000000;stroke-width:0"
   inkscape:connector-curvature="0"
   d="m 101.63,496.18 0,0.02 0.01,0.03 0.01,0.03 0.01,0.04 0.01,0.04 0.01,0.04 0.01,0.04 0.02,0.05 0.01,0.04 0.02,0.05 0.02,0.05 0.02,0.05 0.02,0.05 0.03,0.05 0.02,0.05 0.03,0.05 0.03,0.05 0.03,0.04 0.03,0.05 0.04,0.05 0.04,0.04 0.04,0.04 0.04,0.04 0.04,0.03 0.05,0.03 0.05,0.03 0.02,0.01 0.03,0.02 0.02,0.01 0.03,0.01 0.03,0.01 0.03,0.01 0.03,0 0.02,0.01 0.04,0 0.03,0.01 0.03,0 0.03,0 c 0.05,0 0.29,0 0.5,-0.13 -0.28,-0.05 -0.48,-0.3 -0.48,-0.54 0,-0.16 0.11,-0.35 0.38,-0.35 0.22,0 0.53,0.18 0.53,0.58 0,0.52 -0.58,0.66 -0.92,0.66 -0.58,0 -0.93,-0.53 -1.05,-0.76 -0.24,0.66 -0.78,0.76 -1.07,0.76 -1.034,0 -1.601,-1.28 -1.601,-1.53 0,-0.1 0.099,-0.1 0.119,-0.1 0.08,0 0.11,0.02 0.13,0.11 0.338,1.05 0.992,1.3 1.332,1.3 0.19,0 0.54,-0.09 0.54,-0.67 0,-0.3 -0.17,-0.97 -0.54,-2.36 -0.16,-0.62 -0.507,-1.03 -0.944,-1.03 -0.06,0 -0.289,0 -0.498,0.12 0.249,0.05 0.468,0.26 0.468,0.54 0,0.27 -0.219,0.35 -0.368,0.35 -0.299,0 -0.548,-0.26 -0.548,-0.58 0,-0.45 0.498,-0.65 0.936,-0.65 0.654,0 1.014,0.69 1.044,0.75 0.12,-0.37 0.48,-0.75 1.07,-0.75 1.03,0 1.6,1.28 1.6,1.53 0,0.1 -0.09,0.1 -0.12,0.1 -0.09,0 -0.11,-0.04 -0.13,-0.11 -0.33,-1.07 -1.01,-1.3 -1.32,-1.3 -0.39,0 -0.55,0.31 -0.55,0.65 0,0.22 0.06,0.44 0.17,0.88 z"
   id="path4802" />
</g>    <path
       inkscape:connector-curvature="0"
       id="path5214"
       d="m 22.826469,1004.2633 0,-106.29917"
       style="fill:none;stroke:#000000;stroke-width:0.70866144;stroke-linecap:butt;stroke-linejoin:miter;stroke-miterlimit:4;stroke-opacity:1;stroke-dasharray:none;marker-start:url(#Arrow1Mstart);marker-end:url(#Arrow1Mend)" />
    <g
       style="font-style:normal;font-variant:normal;font-weight:normal;font-stretch:normal;letter-spacing:normal;word-spacing:normal;text-anchor:start;fill:none;stroke:#000000;stroke-linecap:butt;stroke-linejoin:miter;stroke-miterlimit:10.43299961;stroke-opacity:1;stroke-dasharray:none;stroke-dashoffset:0"
       ns0:preamble="D:\\Documenten\\Worksheets\\Inkscape\\incscape_preamble.tex"
       ns0:text="$\\Delta y$"
       word-spacing="normal"
       letter-spacing="normal"
       font-size-adjust="none"
       font-stretch="normal"
       font-weight="normal"
       font-variant="normal"
       font-style="normal"
       stroke-miterlimit="10.433"
       xml:space="preserve"
       transform="matrix(1.25,0,0,-1.25,-112.02471,1568.9263)"
       id="g5259">
<path
   id="path5261"
   d="m 94.398,500.11 -0.007,0.01 -0.006,0.01 -0.006,0.01 -0.006,0.01 -0.005,0.01 -0.006,0.01 -0.005,0.01 -0.005,0.01 -0.006,0.01 -0.005,0.01 -0.006,0.01 -0.005,0 -0.006,0.01 -0.006,0.01 -0.006,0 -0.006,0.01 -0.007,0 -0.007,0.01 -0.008,0 -0.007,0.01 -0.009,0 -0.008,0 -0.009,0.01 -0.01,0 -0.01,0 -0.011,0 -0.012,0.01 -0.012,0 -0.013,0 -0.014,0 -0.015,0 -0.015,0 c -0.169,0 -0.189,-0.05 -0.259,-0.18 l -0.059,-0.81 2.676,-5.37 h -5.363 l 2.687,5.37 0.059,0.81 -3.363,-6.73 c -0.049,-0.09 -0.049,-0.11 -0.049,-0.12 0,-0.08 0.059,-0.08 0.219,-0.08 h 6.904 c 0.159,0 0.219,0 0.219,0.08 0,0.01 0,0.03 -0.05,0.12 z"
   inkscape:connector-curvature="0"
   style="fill:#000000;stroke-width:0" />
<path
   id="path5263"
   d="m 103.14,496.96 0,0.01 0,0 0,0.01 0,0.01 0.01,0.01 0,0.01 0,0.01 0.01,0.01 0,0.01 0,0.01 0,0 0,0.01 0.01,0.01 0,0.01 0,0 0,0.01 0,0.01 0,0 0,0.01 0,0 0,0.01 0,0 0.01,0.01 0,0.01 0,0.01 0,0.02 0,0 0,0.01 0,0 0,0.01 c 0,0.18 -0.14,0.27 -0.29,0.27 -0.1,0 -0.26,-0.06 -0.35,-0.21 -0.02,-0.05 -0.1,-0.36 -0.14,-0.54 -0.07,-0.26 -0.14,-0.52 -0.2,-0.79 l -0.45,-1.79 c -0.04,-0.15 -0.46,-0.84 -1.12,-0.84 -0.51,0 -0.62,0.43 -0.62,0.8 0,0.46 0.17,1.07 0.51,1.95 0.16,0.4 0.2,0.51 0.2,0.71 0,0.45 -0.32,0.82 -0.816,0.82 -0.945,0 -1.314,-1.44 -1.314,-1.53 0,-0.1 0.1,-0.1 0.12,-0.1 0.099,0 0.109,0.02 0.159,0.18 0.269,0.93 0.667,1.23 1.005,1.23 0.079,0 0.246,0 0.246,-0.32 0,-0.25 -0.1,-0.51 -0.167,-0.7 -0.397,-1.05 -0.576,-1.61 -0.576,-2.08 0,-0.89 0.623,-1.18 1.213,-1.18 0.39,0 0.73,0.17 1.01,0.44 -0.13,-0.51 -0.25,-1 -0.65,-1.53 -0.26,-0.33 -0.64,-0.62 -1.096,-0.62 -0.139,0 -0.587,0.03 -0.756,0.41 0.159,0 0.288,0 0.428,0.12 0.099,0.09 0.199,0.22 0.199,0.41 0,0.31 -0.269,0.35 -0.368,0.35 -0.229,0 -0.558,-0.16 -0.558,-0.65 0,-0.49 0.438,-0.86 1.055,-0.86 1.026,0 2.046,0.9 2.326,2.03 z"
   inkscape:connector-curvature="0"
   style="fill:#000000;stroke-width:0" />
</g>    <path
       inkscape:connector-curvature="0"
       id="path5605"
       d="m 28.399082,951.1138 29.860463,0"
       style="fill:none;stroke:#000000;stroke-width:0.70866144;stroke-linecap:butt;stroke-linejoin:miter;stroke-miterlimit:4;stroke-opacity:1;stroke-dasharray:none;marker-start:url(#Arrow1Mstart);marker-end:none" />
    <path
       inkscape:connector-curvature="0"
       id="path5615"
       d="m 132.41365,892.76866 -43.308252,0"
       style="fill:none;stroke:#000000;stroke-width:0.70866144;stroke-linecap:butt;stroke-linejoin:miter;stroke-miterlimit:4;stroke-opacity:1;stroke-dasharray:none;marker-start:url(#Arrow1Mstart);marker-end:none" />
    <path
       style="fill:none;stroke:#000000;stroke-width:0.70866144;stroke-linecap:butt;stroke-linejoin:miter;stroke-miterlimit:4;stroke-opacity:1;stroke-dasharray:none;marker-start:url(#Arrow1Mstart);marker-end:none"
       d="m 194.75794,951.11373 -30.19918,0"
       id="path5625"
       inkscape:connector-curvature="0" />
    <g
       id="g4441"
       transform="matrix(1.25,0,0,-1.25,-25.681084,1500.552)"
       xml:space="preserve"
       stroke-miterlimit="10.433"
       font-style="normal"
       font-variant="normal"
       font-weight="normal"
       font-stretch="normal"
       font-size-adjust="none"
       letter-spacing="normal"
       word-spacing="normal"
       ns0:text="$\\left. \\tau_{xy} \\right| _{y + \\Delta y}$"
       ns0:preamble="D:\\Documenten\\Worksheets\\Inkscape\\incscape_preamble.tex"
       style="font-style:normal;font-variant:normal;font-weight:normal;font-stretch:normal;letter-spacing:normal;word-spacing:normal;text-anchor:start;fill:none;stroke:#000000;stroke-linecap:butt;stroke-linejoin:miter;stroke-miterlimit:10.43299961;stroke-opacity:1;stroke-dasharray:none;stroke-dashoffset:0">
<path
   d="m 94.12,496.88 h 1.672 c 0.129,0 0.487,0 0.487,0.34 0,0.24 -0.209,0.24 -0.398,0.24 h -2.786 c -0.199,0 -0.587,0 -1.024,-0.47 -0.329,-0.36 -0.607,-0.83 -0.607,-0.89 0,-0.01 0,-0.1 0.119,-0.1 0.08,0 0.1,0.04 0.159,0.12 0.488,0.76 1.055,0.76 1.264,0.76 h 0.825 l -0.975,-3.19 c -0.039,-0.12 -0.099,-0.33 -0.099,-0.36 0,-0.11 0.07,-0.27 0.289,-0.27 0.328,0 0.378,0.27 0.407,0.42 z"
   id="path4443"
   inkscape:connector-curvature="0"
   style="fill:#000000;stroke-width:0" />
<path
   d="m 97.285,492.42 -0.007,-0.02 -0.008,-0.03 -0.009,-0.02 -0.009,-0.03 -0.011,-0.02 -0.012,-0.03 -0.012,-0.02 -0.014,-0.03 -0.014,-0.02 -0.015,-0.03 -0.016,-0.02 -0.017,-0.03 -0.018,-0.02 -0.018,-0.03 -0.02,-0.02 -0.02,-0.03 -0.021,-0.02 -0.022,-0.02 -0.023,-0.02 -0.024,-0.02 -0.024,-0.02 -0.025,-0.02 -0.026,-0.02 -0.027,-0.01 -0.028,-0.02 -0.028,-0.01 -0.029,-0.01 -0.03,-0.01 -0.031,0 -0.031,-0.01 -0.033,0 -0.032,0 c -0.021,0 -0.23,0 -0.377,0.09 0.286,0.09 0.307,0.34 0.307,0.39 0,0.15 -0.119,0.25 -0.279,0.25 -0.195,0 -0.397,-0.16 -0.397,-0.42 0,-0.35 0.39,-0.51 0.732,-0.51 0.32,0 0.605,0.2 0.78,0.5 0.167,-0.37 0.55,-0.5 0.828,-0.5 0.801,0 1.226,0.87 1.226,1.06 0,0.1 -0.091,0.1 -0.111,0.1 -0.098,0 -0.105,-0.04 -0.133,-0.12 -0.146,-0.48 -0.564,-0.84 -0.954,-0.84 -0.278,0 -0.425,0.18 -0.425,0.45 0,0.18 0.167,0.81 0.362,1.58 0.14,0.54 0.453,0.71 0.683,0.71 0.014,0 0.23,0 0.376,-0.09 -0.223,-0.07 -0.306,-0.26 -0.306,-0.39 0,-0.15 0.118,-0.25 0.278,-0.25 0.16,0 0.39,0.13 0.39,0.42 0,0.39 -0.446,0.51 -0.724,0.51 -0.348,0 -0.627,-0.23 -0.78,-0.5 -0.125,0.29 -0.446,0.5 -0.836,0.5 -0.78,0 -1.225,-0.86 -1.225,-1.07 0,-0.09 0.097,-0.09 0.118,-0.09 0.09,0 0.097,0.03 0.132,0.12 0.174,0.54 0.613,0.84 0.954,0.84 0.23,0 0.418,-0.12 0.418,-0.46 0,-0.14 -0.083,-0.48 -0.146,-0.72 z"
   id="path4445"
   inkscape:connector-curvature="0"
   style="fill:#000000;stroke-width:0" />
<path
   d="m 103.94,494.3 0,0.01 0,0 0,0.01 0.01,0 0,0 0,0.01 0,0.01 0,0 0,0.01 0.01,0.01 0,0 0,0.01 0,0 0,0.01 0,0 0,0.01 0,0 0,0.01 0.01,0 0,0 0,0.01 0,0 0,0 0,0.01 0,0.01 0,0 0,0.01 0,0 0,0.01 0,0 0,0.01 c 0,0.14 -0.11,0.22 -0.23,0.22 -0.08,0 -0.21,-0.04 -0.29,-0.17 -0.02,-0.04 -0.07,-0.26 -0.11,-0.4 l -0.14,-0.58 c -0.05,-0.17 -0.26,-1.04 -0.28,-1.12 -0.01,0 -0.32,-0.6 -0.86,-0.6 -0.47,0 -0.47,0.45 -0.47,0.57 0,0.38 0.16,0.82 0.37,1.35 0.08,0.22 0.11,0.31 0.11,0.43 0,0.33 -0.28,0.59 -0.66,0.59 -0.7,0 -1.01,-0.95 -1.01,-1.07 0,-0.09 0.09,-0.09 0.11,-0.09 0.1,0 0.11,0.04 0.13,0.11 0.17,0.58 0.47,0.85 0.75,0.85 0.12,0 0.18,-0.07 0.18,-0.24 0,-0.16 -0.07,-0.31 -0.1,-0.4 -0.34,-0.85 -0.41,-1.11 -0.41,-1.42 0,-0.11 0,-0.44 0.28,-0.66 0.21,-0.18 0.51,-0.22 0.69,-0.22 0.28,0 0.53,0.11 0.76,0.31 -0.09,-0.38 -0.16,-0.67 -0.46,-1.02 -0.19,-0.21 -0.47,-0.44 -0.83,-0.44 -0.05,0 -0.38,0 -0.53,0.23 0.38,0.04 0.38,0.37 0.38,0.38 0,0.22 -0.2,0.26 -0.27,0.26 -0.18,0 -0.41,-0.14 -0.41,-0.46 0,-0.35 0.34,-0.61 0.83,-0.61 0.71,0 1.56,0.54 1.78,1.41 z"
   id="path4447"
   inkscape:connector-curvature="0"
   style="fill:#000000;stroke-width:0" />
<path
   d="m 106.44,500.27 0,0.03 0,0.04 0,0.03 0,0.01 0,0.02 -0.01,0.02 0,0.01 0,0.02 0,0.01 0,0.01 -0.01,0.02 0,0.01 -0.01,0.01 0,0.02 -0.01,0.01 0,0.01 -0.01,0.01 -0.01,0.01 -0.01,0.01 0,0.01 -0.01,0.01 -0.02,0 0,0.01 -0.01,0 0,0 -0.01,0 -0.01,0.01 0,0 -0.01,0 -0.01,0 -0.01,0 0,0 -0.01,0 -0.01,0.01 -0.01,0 -0.01,0 c -0.2,0 -0.2,-0.18 -0.2,-0.36 v -9.22 c 0,-0.18 0,-0.36 0.2,-0.36 0.2,0 0.2,0.18 0.2,0.36 z"
   id="path4449"
   inkscape:connector-curvature="0"
   style="fill:#000000;stroke-width:0" />
<path
   d="m 111.5,492.45 0,0 0,0.01 0,0 0,0.01 0,0 0,0 0.01,0.01 0,0.01 0,0.01 0,0 0,0.01 0,0 0.01,0.01 0,0 0,0.01 0,0 0,0.01 0,0 0,0.01 0,0 0,0 0,0.01 0,0 0,0.01 0,0 0,0.01 0,0.01 0,0 0,0 0.01,0.01 0,0 c 0,0.14 -0.12,0.22 -0.24,0.22 -0.07,0 -0.2,-0.03 -0.28,-0.16 -0.02,-0.05 -0.08,-0.27 -0.11,-0.41 l -0.15,-0.57 c -0.04,-0.17 -0.26,-1.05 -0.28,-1.12 0,0 -0.31,-0.61 -0.85,-0.61 -0.48,0 -0.48,0.45 -0.48,0.58 0,0.37 0.16,0.81 0.37,1.35 0.09,0.22 0.12,0.3 0.12,0.42 0,0.34 -0.28,0.59 -0.66,0.59 -0.7,0 -1.02,-0.94 -1.02,-1.06 0,-0.09 0.1,-0.09 0.12,-0.09 0.1,0 0.11,0.03 0.13,0.11 0.17,0.58 0.47,0.85 0.75,0.85 0.12,0 0.17,-0.08 0.17,-0.24 0,-0.16 -0.06,-0.32 -0.09,-0.41 -0.34,-0.85 -0.41,-1.1 -0.41,-1.41 0,-0.12 0,-0.44 0.27,-0.67 0.22,-0.18 0.51,-0.21 0.7,-0.21 0.28,0 0.53,0.1 0.76,0.31 -0.09,-0.38 -0.17,-0.67 -0.46,-1.02 -0.19,-0.22 -0.47,-0.45 -0.84,-0.45 -0.05,0 -0.37,0 -0.52,0.23 0.38,0.04 0.38,0.38 0.38,0.38 0,0.23 -0.2,0.27 -0.27,0.27 -0.18,0 -0.41,-0.14 -0.41,-0.46 0,-0.35 0.34,-0.61 0.83,-0.61 0.7,0 1.56,0.54 1.78,1.41 z"
   id="path4451"
   inkscape:connector-curvature="0"
   style="fill:#000000;stroke-width:0" />
<path
   d="m 115.14,491.4 h 2.13 c 0.09,0 0.26,0 0.26,0.17 0,0.17 -0.16,0.17 -0.26,0.17 h -2.13 v 2.13 c 0,0.09 0,0.26 -0.17,0.26 -0.17,0 -0.17,-0.16 -0.17,-0.26 v -2.13 h -2.14 c -0.09,0 -0.26,0 -0.26,-0.17 0,-0.17 0.16,-0.17 0.26,-0.17 h 2.14 v -2.14 c 0,-0.09 0,-0.25 0.16,-0.25 0.18,0 0.18,0.16 0.18,0.25 z"
   id="path4453"
   inkscape:connector-curvature="0"
   style="fill:#000000;stroke-width:0" />
<path
   d="m 121.52,494.63 -0.01,0.01 0,0.01 -0.01,0.01 0,0.01 -0.01,0.01 0,0.01 -0.01,0 -0.01,0.01 0,0.01 -0.01,0.01 0,0 -0.01,0.01 0,0.01 -0.01,0 0,0.01 -0.01,0 0,0.01 -0.01,0 -0.01,0 0,0.01 -0.01,0 -0.01,0 -0.01,0.01 0,0 -0.01,0 -0.01,0 -0.01,0 -0.01,0 -0.01,0 -0.02,0 -0.01,0 -0.01,0.01 c -0.08,0 -0.15,-0.03 -0.22,-0.14 l -0.01,-0.55 2.05,-3.7 h -4.1 l 2.05,3.7 0.01,0.55 -2.57,-4.66 c -0.04,-0.07 -0.04,-0.09 -0.04,-0.09 0,-0.07 0.05,-0.07 0.16,-0.07 h 5.34 c 0.12,0 0.17,0 0.17,0.07 0,0 0,0.02 -0.05,0.09 z"
   id="path4455"
   inkscape:connector-curvature="0"
   style="fill:#000000;stroke-width:0" />
<path
   d="m 128.45,492.45 0,0 0,0.01 0,0 0,0.01 0,0 0.01,0 0,0.01 0,0.01 0,0.01 0,0 0,0.01 0.01,0 0,0.01 0,0 0,0.01 0,0 0,0.01 0,0 0,0.01 0,0 0,0 0,0.01 0,0 0.01,0.01 0,0 0,0.01 0,0.01 0,0 0,0 0,0.01 0,0 c 0,0.14 -0.11,0.22 -0.23,0.22 -0.08,0 -0.21,-0.03 -0.29,-0.16 -0.02,-0.05 -0.08,-0.27 -0.11,-0.41 l -0.15,-0.57 c -0.04,-0.17 -0.26,-1.05 -0.28,-1.12 0,0 -0.31,-0.61 -0.85,-0.61 -0.48,0 -0.48,0.45 -0.48,0.58 0,0.37 0.16,0.81 0.37,1.35 0.09,0.22 0.12,0.3 0.12,0.42 0,0.34 -0.28,0.59 -0.66,0.59 -0.7,0 -1.02,-0.94 -1.02,-1.06 0,-0.09 0.1,-0.09 0.12,-0.09 0.1,0 0.11,0.03 0.13,0.11 0.17,0.58 0.47,0.85 0.75,0.85 0.12,0 0.17,-0.08 0.17,-0.24 0,-0.16 -0.06,-0.32 -0.09,-0.41 -0.34,-0.85 -0.41,-1.1 -0.41,-1.41 0,-0.12 0,-0.44 0.27,-0.67 0.22,-0.18 0.51,-0.21 0.7,-0.21 0.28,0 0.53,0.1 0.76,0.31 -0.09,-0.38 -0.17,-0.67 -0.46,-1.02 -0.19,-0.22 -0.47,-0.45 -0.84,-0.45 -0.04,0 -0.37,0 -0.52,0.23 0.38,0.04 0.38,0.38 0.38,0.38 0,0.23 -0.2,0.27 -0.27,0.27 -0.18,0 -0.41,-0.14 -0.41,-0.46 0,-0.35 0.34,-0.61 0.83,-0.61 0.7,0 1.56,0.54 1.78,1.41 z"
   id="path4457"
   inkscape:connector-curvature="0"
   style="fill:#000000;stroke-width:0" />
</g>    <g
       style="font-style:normal;font-variant:normal;font-weight:normal;font-stretch:normal;letter-spacing:normal;word-spacing:normal;text-anchor:start;fill:none;stroke:#000000;stroke-linecap:butt;stroke-linejoin:miter;stroke-miterlimit:10.43299961;stroke-opacity:1;stroke-dasharray:none;stroke-dashoffset:0"
       ns0:preamble="D:\\Documenten\\Worksheets\\Inkscape\\incscape_preamble.tex"
       ns0:text="$\\left. \\tau_{xx} \\right| _{x}$"
       word-spacing="normal"
       letter-spacing="normal"
       font-size-adjust="none"
       font-stretch="normal"
       font-weight="normal"
       font-variant="normal"
       font-style="normal"
       stroke-miterlimit="10.433"
       xml:space="preserve"
       transform="matrix(1.25,0,0,-1.25,-84.797379,1580.6947)"
       id="g4555">
<path
   id="path4557"
   d="m 94.12,496.88 h 1.672 c 0.129,0 0.487,0 0.487,0.34 0,0.24 -0.209,0.24 -0.398,0.24 h -2.786 c -0.199,0 -0.587,0 -1.024,-0.47 -0.329,-0.36 -0.607,-0.83 -0.607,-0.89 0,-0.01 0,-0.1 0.119,-0.1 0.08,0 0.1,0.04 0.159,0.12 0.488,0.76 1.055,0.76 1.264,0.76 h 0.825 l -0.975,-3.19 c -0.039,-0.12 -0.099,-0.33 -0.099,-0.36 0,-0.11 0.07,-0.27 0.289,-0.27 0.328,0 0.378,0.27 0.407,0.42 z"
   inkscape:connector-curvature="0"
   style="fill:#000000;stroke-width:0" />
<path
   id="path4559"
   d="m 97.285,492.42 -0.007,-0.02 -0.008,-0.03 -0.009,-0.02 -0.009,-0.03 -0.011,-0.02 -0.012,-0.03 -0.012,-0.02 -0.014,-0.03 -0.014,-0.02 -0.015,-0.03 -0.016,-0.02 -0.017,-0.03 -0.018,-0.02 -0.018,-0.03 -0.02,-0.02 -0.02,-0.03 -0.021,-0.02 -0.022,-0.02 -0.023,-0.02 -0.024,-0.02 -0.024,-0.02 -0.025,-0.02 -0.026,-0.02 -0.027,-0.01 -0.028,-0.02 -0.028,-0.01 -0.029,-0.01 -0.03,-0.01 -0.031,0 -0.031,-0.01 -0.033,0 -0.032,0 c -0.021,0 -0.23,0 -0.377,0.09 0.286,0.09 0.307,0.34 0.307,0.39 0,0.15 -0.119,0.25 -0.279,0.25 -0.195,0 -0.397,-0.16 -0.397,-0.42 0,-0.35 0.39,-0.51 0.732,-0.51 0.32,0 0.605,0.2 0.78,0.5 0.167,-0.37 0.55,-0.5 0.828,-0.5 0.801,0 1.226,0.87 1.226,1.06 0,0.1 -0.091,0.1 -0.111,0.1 -0.098,0 -0.105,-0.04 -0.133,-0.12 -0.146,-0.48 -0.564,-0.84 -0.954,-0.84 -0.278,0 -0.425,0.18 -0.425,0.45 0,0.18 0.167,0.81 0.362,1.58 0.14,0.54 0.453,0.71 0.683,0.71 0.014,0 0.23,0 0.376,-0.09 -0.223,-0.07 -0.306,-0.26 -0.306,-0.39 0,-0.15 0.118,-0.25 0.278,-0.25 0.16,0 0.39,0.13 0.39,0.42 0,0.39 -0.446,0.51 -0.724,0.51 -0.348,0 -0.627,-0.23 -0.78,-0.5 -0.125,0.29 -0.446,0.5 -0.836,0.5 -0.78,0 -1.225,-0.86 -1.225,-1.07 0,-0.09 0.097,-0.09 0.118,-0.09 0.09,0 0.097,0.03 0.132,0.12 0.174,0.54 0.613,0.84 0.954,0.84 0.23,0 0.418,-0.12 0.418,-0.46 0,-0.14 -0.083,-0.48 -0.146,-0.72 z"
   inkscape:connector-curvature="0"
   style="fill:#000000;stroke-width:0" />
<path
   id="path4561"
   d="m 101.8,492.42 0,-0.02 -0.01,-0.03 -0.01,-0.02 -0.01,-0.03 -0.01,-0.02 -0.01,-0.03 -0.02,-0.02 -0.01,-0.03 -0.01,-0.02 -0.02,-0.03 -0.01,-0.02 -0.02,-0.03 -0.02,-0.02 -0.02,-0.03 -0.02,-0.02 -0.02,-0.03 -0.02,-0.02 -0.02,-0.02 -0.02,-0.02 -0.03,-0.02 -0.02,-0.02 -0.03,-0.02 -0.02,-0.02 -0.03,-0.01 -0.03,-0.02 -0.03,-0.01 -0.02,-0.01 -0.03,-0.01 -0.04,0 -0.03,-0.01 -0.03,0 -0.03,0 c -0.02,0 -0.23,0 -0.38,0.09 0.29,0.09 0.31,0.34 0.31,0.39 0,0.15 -0.12,0.25 -0.28,0.25 -0.19,0 -0.4,-0.16 -0.4,-0.42 0,-0.35 0.39,-0.51 0.73,-0.51 0.33,0 0.61,0.2 0.78,0.5 0.17,-0.37 0.55,-0.5 0.83,-0.5 0.8,0 1.23,0.87 1.23,1.06 0,0.1 -0.09,0.1 -0.11,0.1 -0.1,0 -0.11,-0.04 -0.14,-0.12 -0.14,-0.48 -0.56,-0.84 -0.95,-0.84 -0.28,0 -0.42,0.18 -0.42,0.45 0,0.18 0.16,0.81 0.36,1.58 0.14,0.54 0.45,0.71 0.68,0.71 0.01,0 0.23,0 0.38,-0.09 -0.23,-0.07 -0.31,-0.26 -0.31,-0.39 0,-0.15 0.12,-0.25 0.28,-0.25 0.16,0 0.39,0.13 0.39,0.42 0,0.39 -0.45,0.51 -0.73,0.51 -0.34,0 -0.62,-0.23 -0.77,-0.5 -0.13,0.29 -0.45,0.5 -0.84,0.5 -0.78,0 -1.23,-0.86 -1.23,-1.07 0,-0.09 0.1,-0.09 0.12,-0.09 0.09,0 0.1,0.03 0.13,0.12 0.18,0.54 0.62,0.84 0.96,0.84 0.23,0 0.42,-0.12 0.42,-0.46 0,-0.14 -0.09,-0.48 -0.15,-0.72 z"
   inkscape:connector-curvature="0"
   style="fill:#000000;stroke-width:0" />
<path
   id="path4563"
   d="m 106.67,500.27 0,0.03 0,0.04 -0.01,0.03 0,0.01 0,0.02 0,0.02 0,0.01 0,0.02 0,0.01 -0.01,0.01 0,0.02 0,0.01 -0.01,0.01 0,0.02 -0.01,0.01 -0.01,0.01 0,0.01 -0.01,0.01 -0.01,0.01 -0.01,0.01 -0.01,0.01 -0.01,0 0,0.01 -0.01,0 -0.01,0 0,0 -0.01,0.01 -0.01,0 0,0 -0.01,0 -0.01,0 -0.01,0 -0.01,0 0,0.01 -0.01,0 -0.01,0 c -0.2,0 -0.2,-0.18 -0.2,-0.36 v -9.22 c 0,-0.18 0,-0.36 0.2,-0.36 0.2,0 0.2,0.18 0.2,0.36 z"
   inkscape:connector-curvature="0"
   style="fill:#000000;stroke-width:0" />
<path
   id="path4565"
   d="m 109.59,490.92 -0.01,-0.02 -0.01,-0.02 -0.01,-0.03 -0.01,-0.02 -0.01,-0.02 -0.01,-0.03 -0.01,-0.03 -0.02,-0.02 -0.01,-0.03 -0.01,-0.02 -0.02,-0.03 -0.02,-0.02 -0.02,-0.03 -0.01,-0.02 -0.02,-0.03 -0.02,-0.02 -0.02,-0.02 -0.03,-0.03 -0.02,-0.02 -0.02,-0.02 -0.03,-0.02 -0.02,-0.01 -0.03,-0.02 -0.03,-0.02 -0.02,-0.01 -0.03,-0.01 -0.03,-0.01 -0.03,-0.01 -0.03,-0.01 -0.03,0 -0.04,-0.01 -0.03,0 c -0.02,0 -0.23,0 -0.37,0.1 0.28,0.09 0.3,0.34 0.3,0.38 0,0.16 -0.12,0.26 -0.28,0.26 -0.19,0 -0.39,-0.17 -0.39,-0.42 0,-0.35 0.39,-0.51 0.73,-0.51 0.32,0 0.6,0.2 0.78,0.49 0.16,-0.37 0.55,-0.49 0.83,-0.49 0.8,0 1.22,0.87 1.22,1.06 0,0.09 -0.09,0.09 -0.11,0.09 -0.1,0 -0.1,-0.03 -0.13,-0.12 -0.15,-0.48 -0.57,-0.84 -0.96,-0.84 -0.27,0 -0.42,0.19 -0.42,0.45 0,0.19 0.17,0.82 0.36,1.59 0.14,0.54 0.45,0.71 0.68,0.71 0.02,0 0.23,0 0.38,-0.1 -0.22,-0.06 -0.31,-0.26 -0.31,-0.38 0,-0.15 0.12,-0.26 0.28,-0.26 0.16,0 0.39,0.13 0.39,0.43 0,0.39 -0.44,0.5 -0.72,0.5 -0.35,0 -0.63,-0.23 -0.78,-0.49 -0.13,0.29 -0.45,0.49 -0.84,0.49 -0.78,0 -1.22,-0.85 -1.22,-1.06 0,-0.09 0.09,-0.09 0.11,-0.09 0.1,0 0.1,0.03 0.14,0.12 0.17,0.54 0.61,0.84 0.95,0.84 0.23,0 0.42,-0.13 0.42,-0.46 0,-0.14 -0.08,-0.49 -0.15,-0.72 z"
   inkscape:connector-curvature="0"
   style="fill:#000000;stroke-width:0" />
</g>    <g
       id="g4664"
       transform="matrix(1.25,0,0,-1.25,50.793678,1579.3637)"
       xml:space="preserve"
       stroke-miterlimit="10.433"
       font-style="normal"
       font-variant="normal"
       font-weight="normal"
       font-stretch="normal"
       font-size-adjust="none"
       letter-spacing="normal"
       word-spacing="normal"
       ns0:text="$\\left. \\tau_{xx} \\right| _{x + \\Delta x}$"
       ns0:preamble="D:\\Documenten\\Worksheets\\Inkscape\\incscape_preamble.tex"
       style="font-style:normal;font-variant:normal;font-weight:normal;font-stretch:normal;letter-spacing:normal;word-spacing:normal;text-anchor:start;fill:none;stroke:#000000;stroke-linecap:butt;stroke-linejoin:miter;stroke-miterlimit:10.43299961;stroke-opacity:1;stroke-dasharray:none;stroke-dashoffset:0">
<path
   d="m 94.12,496.88 h 1.672 c 0.129,0 0.487,0 0.487,0.34 0,0.24 -0.209,0.24 -0.398,0.24 h -2.786 c -0.199,0 -0.587,0 -1.024,-0.47 -0.329,-0.36 -0.607,-0.83 -0.607,-0.89 0,-0.01 0,-0.1 0.119,-0.1 0.08,0 0.1,0.04 0.159,0.12 0.488,0.76 1.055,0.76 1.264,0.76 h 0.825 l -0.975,-3.19 c -0.039,-0.12 -0.099,-0.33 -0.099,-0.36 0,-0.11 0.07,-0.27 0.289,-0.27 0.328,0 0.378,0.27 0.407,0.42 z"
   id="path4666"
   inkscape:connector-curvature="0"
   style="fill:#000000;stroke-width:0" />
<path
   d="m 97.285,492.42 -0.007,-0.02 -0.008,-0.03 -0.009,-0.02 -0.009,-0.03 -0.011,-0.02 -0.012,-0.03 -0.012,-0.02 -0.014,-0.03 -0.014,-0.02 -0.015,-0.03 -0.016,-0.02 -0.017,-0.03 -0.018,-0.02 -0.018,-0.03 -0.02,-0.02 -0.02,-0.03 -0.021,-0.02 -0.022,-0.02 -0.023,-0.02 -0.024,-0.02 -0.024,-0.02 -0.025,-0.02 -0.026,-0.02 -0.027,-0.01 -0.028,-0.02 -0.028,-0.01 -0.029,-0.01 -0.03,-0.01 -0.031,0 -0.031,-0.01 -0.033,0 -0.032,0 c -0.021,0 -0.23,0 -0.377,0.09 0.286,0.09 0.307,0.34 0.307,0.39 0,0.15 -0.119,0.25 -0.279,0.25 -0.195,0 -0.397,-0.16 -0.397,-0.42 0,-0.35 0.39,-0.51 0.732,-0.51 0.32,0 0.605,0.2 0.78,0.5 0.167,-0.37 0.55,-0.5 0.828,-0.5 0.801,0 1.226,0.87 1.226,1.06 0,0.1 -0.091,0.1 -0.111,0.1 -0.098,0 -0.105,-0.04 -0.133,-0.12 -0.146,-0.48 -0.564,-0.84 -0.954,-0.84 -0.278,0 -0.425,0.18 -0.425,0.45 0,0.18 0.167,0.81 0.362,1.58 0.14,0.54 0.453,0.71 0.683,0.71 0.014,0 0.23,0 0.376,-0.09 -0.223,-0.07 -0.306,-0.26 -0.306,-0.39 0,-0.15 0.118,-0.25 0.278,-0.25 0.16,0 0.39,0.13 0.39,0.42 0,0.39 -0.446,0.51 -0.724,0.51 -0.348,0 -0.627,-0.23 -0.78,-0.5 -0.125,0.29 -0.446,0.5 -0.836,0.5 -0.78,0 -1.225,-0.86 -1.225,-1.07 0,-0.09 0.097,-0.09 0.118,-0.09 0.09,0 0.097,0.03 0.132,0.12 0.174,0.54 0.613,0.84 0.954,0.84 0.23,0 0.418,-0.12 0.418,-0.46 0,-0.14 -0.083,-0.48 -0.146,-0.72 z"
   id="path4668"
   inkscape:connector-curvature="0"
   style="fill:#000000;stroke-width:0" />
<path
   d="m 101.8,492.42 0,-0.02 -0.01,-0.03 -0.01,-0.02 -0.01,-0.03 -0.01,-0.02 -0.01,-0.03 -0.02,-0.02 -0.01,-0.03 -0.01,-0.02 -0.02,-0.03 -0.01,-0.02 -0.02,-0.03 -0.02,-0.02 -0.02,-0.03 -0.02,-0.02 -0.02,-0.03 -0.02,-0.02 -0.02,-0.02 -0.02,-0.02 -0.03,-0.02 -0.02,-0.02 -0.03,-0.02 -0.02,-0.02 -0.03,-0.01 -0.03,-0.02 -0.03,-0.01 -0.02,-0.01 -0.03,-0.01 -0.04,0 -0.03,-0.01 -0.03,0 -0.03,0 c -0.02,0 -0.23,0 -0.38,0.09 0.29,0.09 0.31,0.34 0.31,0.39 0,0.15 -0.12,0.25 -0.28,0.25 -0.19,0 -0.4,-0.16 -0.4,-0.42 0,-0.35 0.39,-0.51 0.73,-0.51 0.33,0 0.61,0.2 0.78,0.5 0.17,-0.37 0.55,-0.5 0.83,-0.5 0.8,0 1.23,0.87 1.23,1.06 0,0.1 -0.09,0.1 -0.11,0.1 -0.1,0 -0.11,-0.04 -0.14,-0.12 -0.14,-0.48 -0.56,-0.84 -0.95,-0.84 -0.28,0 -0.42,0.18 -0.42,0.45 0,0.18 0.16,0.81 0.36,1.58 0.14,0.54 0.45,0.71 0.68,0.71 0.01,0 0.23,0 0.38,-0.09 -0.23,-0.07 -0.31,-0.26 -0.31,-0.39 0,-0.15 0.12,-0.25 0.28,-0.25 0.16,0 0.39,0.13 0.39,0.42 0,0.39 -0.45,0.51 -0.73,0.51 -0.34,0 -0.62,-0.23 -0.77,-0.5 -0.13,0.29 -0.45,0.5 -0.84,0.5 -0.78,0 -1.23,-0.86 -1.23,-1.07 0,-0.09 0.1,-0.09 0.12,-0.09 0.09,0 0.1,0.03 0.13,0.12 0.18,0.54 0.62,0.84 0.96,0.84 0.23,0 0.42,-0.12 0.42,-0.46 0,-0.14 -0.09,-0.48 -0.15,-0.72 z"
   id="path4670"
   inkscape:connector-curvature="0"
   style="fill:#000000;stroke-width:0" />
<path
   d="m 106.67,500.27 0,0.03 0,0.04 -0.01,0.03 0,0.01 0,0.02 0,0.02 0,0.01 0,0.02 0,0.01 -0.01,0.01 0,0.02 0,0.01 -0.01,0.01 0,0.02 -0.01,0.01 -0.01,0.01 0,0.01 -0.01,0.01 -0.01,0.01 -0.01,0.01 -0.01,0.01 -0.01,0 0,0.01 -0.01,0 -0.01,0 0,0 -0.01,0.01 -0.01,0 0,0 -0.01,0 -0.01,0 -0.01,0 -0.01,0 0,0.01 -0.01,0 -0.01,0 c -0.2,0 -0.2,-0.18 -0.2,-0.36 v -9.22 c 0,-0.18 0,-0.36 0.2,-0.36 0.2,0 0.2,0.18 0.2,0.36 z"
   id="path4672"
   inkscape:connector-curvature="0"
   style="fill:#000000;stroke-width:0" />
<path
   d="m 109.59,490.92 -0.01,-0.02 -0.01,-0.02 -0.01,-0.03 -0.01,-0.02 -0.01,-0.02 -0.01,-0.03 -0.01,-0.03 -0.02,-0.02 -0.01,-0.03 -0.01,-0.02 -0.02,-0.03 -0.02,-0.02 -0.02,-0.03 -0.01,-0.02 -0.02,-0.03 -0.02,-0.02 -0.02,-0.02 -0.03,-0.03 -0.02,-0.02 -0.02,-0.02 -0.03,-0.02 -0.02,-0.01 -0.03,-0.02 -0.03,-0.02 -0.02,-0.01 -0.03,-0.01 -0.03,-0.01 -0.03,-0.01 -0.03,-0.01 -0.03,0 -0.04,-0.01 -0.03,0 c -0.02,0 -0.23,0 -0.37,0.1 0.28,0.09 0.3,0.34 0.3,0.38 0,0.16 -0.12,0.26 -0.28,0.26 -0.19,0 -0.39,-0.17 -0.39,-0.42 0,-0.35 0.39,-0.51 0.73,-0.51 0.32,0 0.6,0.2 0.78,0.49 0.16,-0.37 0.55,-0.49 0.83,-0.49 0.8,0 1.22,0.87 1.22,1.06 0,0.09 -0.09,0.09 -0.11,0.09 -0.1,0 -0.1,-0.03 -0.13,-0.12 -0.15,-0.48 -0.57,-0.84 -0.96,-0.84 -0.27,0 -0.42,0.19 -0.42,0.45 0,0.19 0.17,0.82 0.36,1.59 0.14,0.54 0.45,0.71 0.68,0.71 0.02,0 0.23,0 0.38,-0.1 -0.22,-0.06 -0.31,-0.26 -0.31,-0.38 0,-0.15 0.12,-0.26 0.28,-0.26 0.16,0 0.39,0.13 0.39,0.43 0,0.39 -0.44,0.5 -0.72,0.5 -0.35,0 -0.63,-0.23 -0.78,-0.49 -0.13,0.29 -0.45,0.49 -0.84,0.49 -0.78,0 -1.22,-0.85 -1.22,-1.06 0,-0.09 0.09,-0.09 0.11,-0.09 0.1,0 0.1,0.03 0.14,0.12 0.17,0.54 0.61,0.84 0.95,0.84 0.23,0 0.42,-0.13 0.42,-0.46 0,-0.14 -0.08,-0.49 -0.15,-0.72 z"
   id="path4674"
   inkscape:connector-curvature="0"
   style="fill:#000000;stroke-width:0" />
<path
   d="m 115.6,491.76 h 2.13 c 0.09,0 0.25,0 0.25,0.16 0,0.18 -0.16,0.18 -0.25,0.18 h -2.13 v 2.13 c 0,0.09 0,0.26 -0.17,0.26 -0.18,0 -0.18,-0.16 -0.18,-0.26 v -2.13 h -2.14 c -0.08,0 -0.25,0 -0.25,-0.17 0,-0.17 0.16,-0.17 0.25,-0.17 h 2.14 v -2.14 c 0,-0.09 0,-0.25 0.17,-0.25 0.18,0 0.18,0.16 0.18,0.25 z"
   id="path4676"
   inkscape:connector-curvature="0"
   style="fill:#000000;stroke-width:0" />
<path
   d="m 121.97,494.98 0,0.02 -0.01,0.01 0,0.01 -0.01,0.01 0,0.01 -0.01,0.01 -0.01,0 0,0.01 -0.01,0.01 0,0.01 -0.01,0 0,0.01 -0.01,0.01 0,0 -0.01,0.01 0,0 -0.01,0.01 -0.01,0 0,0 -0.01,0.01 -0.01,0 0,0 -0.01,0.01 -0.01,0 -0.01,0 -0.01,0 -0.01,0 -0.01,0 -0.01,0 -0.01,0 -0.01,0 -0.01,0 c -0.09,0 -0.16,-0.02 -0.22,-0.13 l -0.01,-0.55 2.04,-3.7 h -4.09 l 2.05,3.7 0.01,0.55 -2.57,-4.66 c -0.05,-0.07 -0.05,-0.09 -0.05,-0.09 0,-0.07 0.06,-0.07 0.17,-0.07 h 5.34 c 0.11,0 0.17,0 0.17,0.07 0,0 0,0.02 -0.05,0.09 z"
   id="path4678"
   inkscape:connector-curvature="0"
   style="fill:#000000;stroke-width:0" />
<path
   d="m 126.76,490.92 0,-0.02 -0.01,-0.02 -0.01,-0.03 -0.01,-0.02 -0.01,-0.02 -0.01,-0.03 -0.01,-0.03 -0.02,-0.02 -0.01,-0.03 -0.02,-0.02 -0.01,-0.03 -0.02,-0.02 -0.02,-0.03 -0.01,-0.02 -0.02,-0.03 -0.02,-0.02 -0.03,-0.02 -0.02,-0.03 -0.02,-0.02 -0.02,-0.02 -0.03,-0.02 -0.02,-0.01 -0.03,-0.02 -0.03,-0.02 -0.02,-0.01 -0.03,-0.01 -0.03,-0.01 -0.03,-0.01 -0.03,-0.01 -0.03,0 -0.04,-0.01 -0.03,0 c -0.02,0 -0.23,0 -0.38,0.1 0.29,0.09 0.31,0.34 0.31,0.38 0,0.16 -0.12,0.26 -0.28,0.26 -0.19,0 -0.4,-0.17 -0.4,-0.42 0,-0.35 0.39,-0.51 0.74,-0.51 0.32,0 0.6,0.2 0.78,0.49 0.16,-0.37 0.55,-0.49 0.83,-0.49 0.8,0 1.22,0.87 1.22,1.06 0,0.09 -0.09,0.09 -0.11,0.09 -0.1,0 -0.11,-0.03 -0.13,-0.12 -0.15,-0.48 -0.57,-0.84 -0.96,-0.84 -0.27,0 -0.42,0.19 -0.42,0.45 0,0.19 0.17,0.82 0.36,1.59 0.14,0.54 0.45,0.71 0.68,0.71 0.02,0 0.23,0 0.38,-0.1 -0.22,-0.06 -0.31,-0.26 -0.31,-0.38 0,-0.15 0.12,-0.26 0.28,-0.26 0.16,0 0.39,0.13 0.39,0.43 0,0.39 -0.44,0.5 -0.72,0.5 -0.35,0 -0.63,-0.23 -0.78,-0.49 -0.13,0.29 -0.45,0.49 -0.84,0.49 -0.78,0 -1.22,-0.85 -1.22,-1.06 0,-0.09 0.09,-0.09 0.11,-0.09 0.09,0 0.1,0.03 0.14,0.12 0.17,0.54 0.61,0.84 0.95,0.84 0.23,0 0.42,-0.13 0.42,-0.46 0,-0.14 -0.08,-0.49 -0.15,-0.72 z"
   id="path4680"
   inkscape:connector-curvature="0"
   style="fill:#000000;stroke-width:0" />
</g>    <g
       style="font-style:normal;font-variant:normal;font-weight:normal;font-stretch:normal;letter-spacing:normal;word-spacing:normal;text-anchor:start;fill:none;stroke:#000000;stroke-linecap:butt;stroke-linejoin:miter;stroke-miterlimit:10.43299961;stroke-opacity:1;stroke-dasharray:none;stroke-dashoffset:0"
       ns0:preamble="D:\\Documenten\\Worksheets\\Inkscape\\incscape_preamble.tex"
       ns0:text="$\\left. \\tau_{xy} \\right| _{y}$"
       word-spacing="normal"
       letter-spacing="normal"
       font-size-adjust="none"
       font-stretch="normal"
       font-weight="normal"
       font-variant="normal"
       font-style="normal"
       stroke-miterlimit="10.433"
       xml:space="preserve"
       transform="matrix(1.25,0,0,-1.25,-15.316799,1635.6808)"
       id="content">
<path
   id="path4787"
   d="m 94.12,496.88 h 1.672 c 0.129,0 0.487,0 0.487,0.34 0,0.24 -0.209,0.24 -0.398,0.24 h -2.786 c -0.199,0 -0.587,0 -1.024,-0.47 -0.329,-0.36 -0.607,-0.83 -0.607,-0.89 0,-0.01 0,-0.1 0.119,-0.1 0.08,0 0.1,0.04 0.159,0.12 0.488,0.76 1.055,0.76 1.264,0.76 h 0.825 l -0.975,-3.19 c -0.039,-0.12 -0.099,-0.33 -0.099,-0.36 0,-0.11 0.07,-0.27 0.289,-0.27 0.328,0 0.378,0.27 0.407,0.42 z"
   inkscape:connector-curvature="0"
   style="fill:#000000;stroke-width:0" />
<path
   id="path4789"
   d="m 97.285,492.42 -0.007,-0.02 -0.008,-0.03 -0.009,-0.02 -0.009,-0.03 -0.011,-0.02 -0.012,-0.03 -0.012,-0.02 -0.014,-0.03 -0.014,-0.02 -0.015,-0.03 -0.016,-0.02 -0.017,-0.03 -0.018,-0.02 -0.018,-0.03 -0.02,-0.02 -0.02,-0.03 -0.021,-0.02 -0.022,-0.02 -0.023,-0.02 -0.024,-0.02 -0.024,-0.02 -0.025,-0.02 -0.026,-0.02 -0.027,-0.01 -0.028,-0.02 -0.028,-0.01 -0.029,-0.01 -0.03,-0.01 -0.031,0 -0.031,-0.01 -0.033,0 -0.032,0 c -0.021,0 -0.23,0 -0.377,0.09 0.286,0.09 0.307,0.34 0.307,0.39 0,0.15 -0.119,0.25 -0.279,0.25 -0.195,0 -0.397,-0.16 -0.397,-0.42 0,-0.35 0.39,-0.51 0.732,-0.51 0.32,0 0.605,0.2 0.78,0.5 0.167,-0.37 0.55,-0.5 0.828,-0.5 0.801,0 1.226,0.87 1.226,1.06 0,0.1 -0.091,0.1 -0.111,0.1 -0.098,0 -0.105,-0.04 -0.133,-0.12 -0.146,-0.48 -0.564,-0.84 -0.954,-0.84 -0.278,0 -0.425,0.18 -0.425,0.45 0,0.18 0.167,0.81 0.362,1.58 0.14,0.54 0.453,0.71 0.683,0.71 0.014,0 0.23,0 0.376,-0.09 -0.223,-0.07 -0.306,-0.26 -0.306,-0.39 0,-0.15 0.118,-0.25 0.278,-0.25 0.16,0 0.39,0.13 0.39,0.42 0,0.39 -0.446,0.51 -0.724,0.51 -0.348,0 -0.627,-0.23 -0.78,-0.5 -0.125,0.29 -0.446,0.5 -0.836,0.5 -0.78,0 -1.225,-0.86 -1.225,-1.07 0,-0.09 0.097,-0.09 0.118,-0.09 0.09,0 0.097,0.03 0.132,0.12 0.174,0.54 0.613,0.84 0.954,0.84 0.23,0 0.418,-0.12 0.418,-0.46 0,-0.14 -0.083,-0.48 -0.146,-0.72 z"
   inkscape:connector-curvature="0"
   style="fill:#000000;stroke-width:0" />
<path
   id="path4791"
   d="m 103.94,494.3 0,0.01 0,0 0,0.01 0.01,0 0,0 0,0.01 0,0.01 0,0 0,0.01 0.01,0.01 0,0 0,0.01 0,0 0,0.01 0,0 0,0.01 0,0 0,0.01 0.01,0 0,0 0,0.01 0,0 0,0 0,0.01 0,0.01 0,0 0,0.01 0,0 0,0.01 0,0 0,0.01 c 0,0.14 -0.11,0.22 -0.23,0.22 -0.08,0 -0.21,-0.04 -0.29,-0.17 -0.02,-0.04 -0.07,-0.26 -0.11,-0.4 l -0.14,-0.58 c -0.05,-0.17 -0.26,-1.04 -0.28,-1.12 -0.01,0 -0.32,-0.6 -0.86,-0.6 -0.47,0 -0.47,0.45 -0.47,0.57 0,0.38 0.16,0.82 0.37,1.35 0.08,0.22 0.11,0.31 0.11,0.43 0,0.33 -0.28,0.59 -0.66,0.59 -0.7,0 -1.01,-0.95 -1.01,-1.07 0,-0.09 0.09,-0.09 0.11,-0.09 0.1,0 0.11,0.04 0.13,0.11 0.17,0.58 0.47,0.85 0.75,0.85 0.12,0 0.18,-0.07 0.18,-0.24 0,-0.16 -0.07,-0.31 -0.1,-0.4 -0.34,-0.85 -0.41,-1.11 -0.41,-1.42 0,-0.11 0,-0.44 0.28,-0.66 0.21,-0.18 0.51,-0.22 0.69,-0.22 0.28,0 0.53,0.11 0.76,0.31 -0.09,-0.38 -0.16,-0.67 -0.46,-1.02 -0.19,-0.21 -0.47,-0.44 -0.83,-0.44 -0.05,0 -0.38,0 -0.53,0.23 0.38,0.04 0.38,0.37 0.38,0.38 0,0.22 -0.2,0.26 -0.27,0.26 -0.18,0 -0.41,-0.14 -0.41,-0.46 0,-0.35 0.34,-0.61 0.83,-0.61 0.71,0 1.56,0.54 1.78,1.41 z"
   inkscape:connector-curvature="0"
   style="fill:#000000;stroke-width:0" />
<path
   id="path4793"
   d="m 106.44,500.27 0,0.03 0,0.04 0,0.03 0,0.01 0,0.02 -0.01,0.02 0,0.01 0,0.02 0,0.01 0,0.01 -0.01,0.02 0,0.01 -0.01,0.01 0,0.02 -0.01,0.01 0,0.01 -0.01,0.01 -0.01,0.01 -0.01,0.01 0,0.01 -0.01,0.01 -0.02,0 0,0.01 -0.01,0 0,0 -0.01,0 -0.01,0.01 0,0 -0.01,0 -0.01,0 -0.01,0 0,0 -0.01,0 -0.01,0.01 -0.01,0 -0.01,0 c -0.2,0 -0.2,-0.18 -0.2,-0.36 v -9.22 c 0,-0.18 0,-0.36 0.2,-0.36 0.2,0 0.2,0.18 0.2,0.36 z"
   inkscape:connector-curvature="0"
   style="fill:#000000;stroke-width:0" />
<path
   id="path4795"
   d="m 111.5,492.45 0,0 0,0.01 0,0 0,0.01 0,0 0,0 0.01,0.01 0,0.01 0,0.01 0,0 0,0.01 0,0 0.01,0.01 0,0 0,0.01 0,0 0,0.01 0,0 0,0.01 0,0 0,0 0,0.01 0,0 0,0.01 0,0 0,0.01 0,0.01 0,0 0,0 0.01,0.01 0,0 c 0,0.14 -0.12,0.22 -0.24,0.22 -0.07,0 -0.2,-0.03 -0.28,-0.16 -0.02,-0.05 -0.08,-0.27 -0.11,-0.41 l -0.15,-0.57 c -0.04,-0.17 -0.26,-1.05 -0.28,-1.12 0,0 -0.31,-0.61 -0.85,-0.61 -0.48,0 -0.48,0.45 -0.48,0.58 0,0.37 0.16,0.81 0.37,1.35 0.09,0.22 0.12,0.3 0.12,0.42 0,0.34 -0.28,0.59 -0.66,0.59 -0.7,0 -1.02,-0.94 -1.02,-1.06 0,-0.09 0.1,-0.09 0.12,-0.09 0.1,0 0.11,0.03 0.13,0.11 0.17,0.58 0.47,0.85 0.75,0.85 0.12,0 0.17,-0.08 0.17,-0.24 0,-0.16 -0.06,-0.32 -0.09,-0.41 -0.34,-0.85 -0.41,-1.1 -0.41,-1.41 0,-0.12 0,-0.44 0.27,-0.67 0.22,-0.18 0.51,-0.21 0.7,-0.21 0.28,0 0.53,0.1 0.76,0.31 -0.09,-0.38 -0.17,-0.67 -0.46,-1.02 -0.19,-0.22 -0.47,-0.45 -0.84,-0.45 -0.05,0 -0.37,0 -0.52,0.23 0.38,0.04 0.38,0.38 0.38,0.38 0,0.23 -0.2,0.27 -0.27,0.27 -0.18,0 -0.41,-0.14 -0.41,-0.46 0,-0.35 0.34,-0.61 0.83,-0.61 0.7,0 1.56,0.54 1.78,1.41 z"
   inkscape:connector-curvature="0"
   style="fill:#000000;stroke-width:0" />
</g>    <path
       style="fill:none;stroke:#000000;stroke-width:0.70866144;stroke-linecap:butt;stroke-linejoin:miter;stroke-miterlimit:4;stroke-opacity:1;stroke-dasharray:none;marker-start:url(#Arrow1Mstart);marker-end:none"
       d="m 89.636894,1008.8401 43.308256,0"
       id="path4852"
       inkscape:connector-curvature="0" />
  </g>
</svg>
