<?xml version="1.0" encoding="UTF-8" standalone="no"?>
<!-- Created with Inkscape (http://www.inkscape.org/) -->

<svg
   xmlns:ns0="http://www.iki.fi/pav/software/textext/"
   xmlns:dc="http://purl.org/dc/elements/1.1/"
   xmlns:cc="http://creativecommons.org/ns#"
   xmlns:rdf="http://www.w3.org/1999/02/22-rdf-syntax-ns#"
   xmlns:svg="http://www.w3.org/2000/svg"
   xmlns="http://www.w3.org/2000/svg"
   xmlns:sodipodi="http://sodipodi.sourceforge.net/DTD/sodipodi-0.dtd"
   xmlns:inkscape="http://www.inkscape.org/namespaces/inkscape"
   width="124.01575"
   height="124.01575"
   id="svg3009"
   version="1.1"
   inkscape:version="0.48.2 r9819"
   sodipodi:docname="Instroming.svg">
  <sodipodi:namedview
     id="base"
     pagecolor="#ffffff"
     bordercolor="#666666"
     borderopacity="1.0"
     inkscape:pageopacity="0.0"
     inkscape:pageshadow="2"
     inkscape:zoom="5.6"
     inkscape:cx="57.364329"
     inkscape:cy="57.738268"
     inkscape:document-units="mm"
     inkscape:current-layer="layer2"
     showgrid="false"
     units="mm"
     inkscape:window-width="1280"
     inkscape:window-height="962"
     inkscape:window-x="-8"
     inkscape:window-y="-8"
     inkscape:window-maximized="1">
    <inkscape:grid
       dotted="false"
       spacingy="1mm"
       spacingx="1mm"
       units="mm"
       snapvisiblegridlinesonly="true"
       enabled="true"
       visible="true"
       empspacing="5"
       id="grid3017"
       type="xygrid" />
  </sodipodi:namedview>
  <defs
     id="defs3011">
    <marker
       style="overflow:visible"
       id="Arrow1Mstart"
       refX="0"
       refY="0"
       orient="auto"
       inkscape:stockid="Arrow1Mstart">
      <path
         transform="matrix(0.4,0,0,0.4,4,0)"
         style="fill-rule:evenodd;stroke:#000000;stroke-width:1pt;marker-start:none"
         d="M 0,0 5,-5 -12.5,0 5,5 0,0 z"
         id="path3776"
         inkscape:connector-curvature="0" />
    </marker>
    <marker
       style="overflow:visible"
       id="Arrow1Mend"
       refX="0"
       refY="0"
       orient="auto"
       inkscape:stockid="Arrow1Mend">
      <path
         transform="matrix(-0.4,0,0,-0.4,-4,0)"
         style="fill-rule:evenodd;stroke:#000000;stroke-width:1pt;marker-start:none"
         d="M 0,0 5,-5 -12.5,0 5,5 0,0 z"
         id="path3779"
         inkscape:connector-curvature="0" />
    </marker>
    <marker
       style="overflow:visible"
       id="Arrow1Mstart-1"
       refX="0"
       refY="0"
       orient="auto"
       inkscape:stockid="Arrow1Mstart">
      <path
         transform="matrix(0.4,0,0,0.4,4,0)"
         style="fill-rule:evenodd;stroke:#000000;stroke-width:1pt;marker-start:none"
         d="M 0,0 5,-5 -12.5,0 5,5 0,0 z"
         id="path3776-7"
         inkscape:connector-curvature="0" />
    </marker>
    <marker
       style="overflow:visible"
       id="Arrow1Mend-4"
       refX="0"
       refY="0"
       orient="auto"
       inkscape:stockid="Arrow1Mend">
      <path
         transform="matrix(-0.4,0,0,-0.4,-4,0)"
         style="fill-rule:evenodd;stroke:#000000;stroke-width:1pt;marker-start:none"
         d="M 0,0 5,-5 -12.5,0 5,5 0,0 z"
         id="path3779-0"
         inkscape:connector-curvature="0" />
    </marker>
  </defs>
  <metadata
     id="metadata3014">
    <rdf:RDF>
      <cc:Work
         rdf:about="">
        <dc:format>image/svg+xml</dc:format>
        <dc:type
           rdf:resource="http://purl.org/dc/dcmitype/StillImage" />
        <dc:title></dc:title>
      </cc:Work>
    </rdf:RDF>
  </metadata>
  <g
     transform="translate(0,-928.34645)"
     id="layer1"
     inkscape:groupmode="layer"
     inkscape:label="Layer 1">
    <path
       inkscape:connector-curvature="0"
       id="path4515"
       d="m 112.46485,1005.0077 0,-28.60582"
       style="fill:none;stroke:#000000;stroke-width:0.7086615;stroke-linecap:butt;stroke-linejoin:miter;stroke-miterlimit:4;stroke-opacity:1;stroke-dasharray:none;marker-start:url(#Arrow1Mstart);marker-end:url(#Arrow1Mend)" />
    <g
       id="g3110"
       transform="matrix(0.89804533,0,0,-0.99959166,-87.36219,1694.4953)"
       xml:space="preserve"
       stroke-miterlimit="10.433"
       font-style="normal"
       font-variant="normal"
       font-weight="normal"
       font-stretch="normal"
       font-size-adjust="none"
       letter-spacing="normal"
       word-spacing="normal"
       ns0:text="$D_2$"
       ns0:preamble=""
       style="font-style:normal;font-variant:normal;font-weight:normal;font-stretch:normal;letter-spacing:normal;word-spacing:normal;text-anchor:start;fill:none;stroke:#000000;stroke-linecap:butt;stroke-linejoin:miter;stroke-miterlimit:10.43299961;stroke-opacity:1;stroke-dasharray:none;stroke-dashoffset:0">
<path
   style="fill:#000000;stroke-width:0"
   inkscape:connector-curvature="0"
   d="m 225.01,707.9 -0.01,-0.04 0,-0.03 -0.01,-0.03 -0.01,-0.03 -0.01,-0.03 -0.01,-0.03 -0.01,-0.02 -0.01,-0.03 -0.01,-0.02 -0.01,-0.02 -0.01,-0.02 -0.02,-0.02 -0.01,-0.02 -0.02,-0.01 -0.02,-0.02 -0.02,-0.01 -0.02,-0.01 -0.03,-0.01 -0.03,-0.01 -0.03,-0.01 -0.03,-0.01 -0.02,0 -0.01,-0.01 -0.02,0 -0.02,0 -0.02,-0.01 -0.02,0 -0.02,0 -0.03,0 -0.02,-0.01 -0.02,0 -0.03,0 -0.03,0 -0.02,0 -0.03,0 -0.03,0 -0.03,0 -0.03,-0.01 -0.03,0 -0.04,0 -0.03,0 -0.03,0 -0.04,0 c -0.17,0 -0.28,0 -0.28,-0.19 0,-0.11 0.09,-0.11 0.28,-0.11 h 3.29 l -0.18,0.3 h -1.12 c -0.14,0 -0.16,0 -0.22,0.01 -0.1,0.01 -0.13,0.02 -0.13,0.1 0,0.03 0,0.05 0.05,0.23 l 1.36,5.45 c 0.09,0.35 0.11,0.38 0.54,0.38 h 1.06 c 0.98,0 1.81,-0.52 1.81,-1.84 0,-0.48 -0.2,-2.11 -1.05,-3.21 -0.29,-0.36 -1.07,-1.12 -2.3,-1.12 l 0.18,-0.3 c 2.07,0 4.03,2.09 4.03,4.27 0,1.4 -0.84,2.51 -2.34,2.51 h -3.34 c -0.19,0 -0.3,0 -0.3,-0.19 0,-0.12 0.09,-0.12 0.29,-0.12 0.13,0 0.31,-0.01 0.43,-0.02 0.16,-0.02 0.22,-0.05 0.22,-0.16 0,-0.04 -0.01,-0.07 -0.04,-0.19 z"
   id="path3112" />
<path
   style="fill:#000000;stroke-width:0"
   inkscape:connector-curvature="0"
   d="m 235.2,706.9 h -0.24 c -0.02,-0.16 -0.09,-0.57 -0.18,-0.64 -0.06,-0.04 -0.59,-0.04 -0.69,-0.04 h -1.28 c 0.73,0.65 0.97,0.84 1.39,1.17 0.52,0.41 1,0.84 1,1.5 0,0.84 -0.74,1.36 -1.63,1.36 -0.87,0 -1.45,-0.61 -1.45,-1.25 0,-0.35 0.3,-0.39 0.37,-0.39 0.16,0 0.37,0.12 0.37,0.37 0,0.13 -0.05,0.37 -0.41,0.37 0.21,0.49 0.69,0.65 1.01,0.65 0.7,0 1.06,-0.54 1.06,-1.11 0,-0.6 -0.43,-1.08 -0.65,-1.33 l -1.68,-1.66 c -0.07,-0.06 -0.07,-0.07 -0.07,-0.27 h 2.87 z"
   id="path3114" />
</g>    <path
       style="fill:none;stroke:#000000;stroke-width:1;stroke-linecap:butt;stroke-linejoin:miter;stroke-miterlimit:4;stroke-opacity:1;stroke-dasharray:8, 2, 1, 2;stroke-dashoffset:0"
       d="m 10.629915,990.72553 102.755915,0"
       id="path3848"
       inkscape:connector-curvature="0"
       sodipodi:nodetypes="cc" />
    <path
       style="fill:#cccccc;stroke:#000000;stroke-width:1px;stroke-linecap:butt;stroke-linejoin:miter;stroke-opacity:1"
       d="m 60.236221,935.43306 -4e-6,38.97638 49.606293,0 0,-14.17323 -3.5433,0 0,10.62992 -42.519686,0 4e-6,-35.43307"
       id="path3033"
       inkscape:connector-curvature="0"
       sodipodi:nodetypes="cccccccc" />
    <path
       sodipodi:nodetypes="cccccccc"
       inkscape:connector-curvature="0"
       id="path3035"
       d="m 60.236218,1045.2756 2e-6,-38.9764 49.6063,0 0,14.1733 -3.5433,0 0,-10.63 -42.519693,0 10e-7,35.4331"
       style="fill:#cccccc;stroke:#000000;stroke-width:1px;stroke-linecap:butt;stroke-linejoin:miter;stroke-opacity:1" />
    <path
       style="fill:none;stroke:#000000;stroke-width:1px;stroke-linecap:butt;stroke-linejoin:miter;stroke-opacity:1"
       d="m 109.84252,46.062991 0,31.889764"
       id="path3837"
       inkscape:connector-curvature="0"
       transform="translate(0,928.34645)" />
  </g>
  <g
     inkscape:groupmode="layer"
     id="layer2"
     inkscape:label="stroomlijnen">
    <g
       id="g4134"
       transform="translate(0,-0.26785714)">
      <g
         style="stroke-width:0.53149605;stroke-miterlimit:4;stroke-dasharray:none"
         transform="translate(0,-0.35714286)"
         id="g3845">
        <path
           style="fill:none;stroke:#000000;stroke-width:0.53149605;stroke-linecap:butt;stroke-linejoin:miter;stroke-miterlimit:4;stroke-opacity:1;stroke-dasharray:none"
           d="m 30.244657,45.057756 c 21.560743,8.035714 28.44491,12.519039 44.164792,12.519039 14.173228,0 13.966535,-2.942599 35.433071,-2.942599"
           id="path3041"
           inkscape:connector-curvature="0"
           sodipodi:nodetypes="csc" />
        <path
           sodipodi:nodetypes="csc"
           inkscape:connector-curvature="0"
           id="path3839"
           d="m 43.101799,35.650052 c 12.913809,12.678571 15.587768,18.257167 31.30765,18.257167 14.173228,0 11.109392,-4.436164 35.433071,-4.436164"
           style="fill:none;stroke:#000000;stroke-width:0.53149605;stroke-linecap:butt;stroke-linejoin:miter;stroke-miterlimit:4;stroke-opacity:1;stroke-dasharray:none" />
        <path
           style="fill:none;stroke:#000000;stroke-width:0.53149605;stroke-linecap:butt;stroke-linejoin:miter;stroke-miterlimit:4;stroke-opacity:1;stroke-dasharray:none"
           d="m 16.673228,52.801098 c 26.739314,4.821429 42.268877,8.326779 57.988759,8.326779 14.173228,0 17.463997,-1.338086 35.180533,-1.338086"
           id="path3841"
           inkscape:connector-curvature="0"
           sodipodi:nodetypes="csc" />
        <path
           style="fill:none;stroke:#000000;stroke-width:0.53149605;stroke-linecap:butt;stroke-linejoin:miter;stroke-miterlimit:4;stroke-opacity:1;stroke-dasharray:none"
           d="m 66.785715,48.658604 c 12.642028,4.993404 21.629943,0.102228 11.428571,-0.535714"
           id="path3843"
           inkscape:connector-curvature="0"
           sodipodi:nodetypes="cc" />
      </g>
      <path
         sodipodi:nodetypes="cc"
         inkscape:connector-curvature="0"
         id="path3861"
         d="m 22.442469,53.520319 2.08344,0.257491"
         style="fill:none;stroke:#000000;stroke-width:0.53149605;stroke-linecap:butt;stroke-linejoin:miter;stroke-miterlimit:4;stroke-opacity:1;stroke-dasharray:none;marker-end:url(#Arrow1Mend-4)" />
      <path
         sodipodi:nodetypes="cc"
         inkscape:connector-curvature="0"
         id="path4053"
         d="m 35.031754,46.556034 1.994154,0.635833"
         style="fill:none;stroke:#000000;stroke-width:0.53149605;stroke-linecap:butt;stroke-linejoin:miter;stroke-miterlimit:4;stroke-opacity:1;stroke-dasharray:none;marker-end:url(#Arrow1Mend-4)" />
      <path
         style="fill:none;stroke:#000000;stroke-width:0.53149605;stroke-linecap:butt;stroke-linejoin:miter;stroke-miterlimit:4;stroke-opacity:1;stroke-dasharray:none;marker-end:url(#Arrow1Mend-4)"
         d="m 45.656754,37.905687 1.547726,1.497124"
         id="path4055"
         inkscape:connector-curvature="0"
         sodipodi:nodetypes="cc" />
    </g>
    <g
       id="g4144"
       transform="matrix(1,0,0,-1,0,124.81364)">
      <g
         id="g4146"
         transform="translate(0,-0.35714286)"
         style="stroke-width:0.53149605;stroke-miterlimit:4;stroke-dasharray:none">
        <path
           sodipodi:nodetypes="csc"
           inkscape:connector-curvature="0"
           id="path4148"
           d="m 30.244657,45.057756 c 21.560743,8.035714 28.44491,12.519039 44.164792,12.519039 14.173228,0 13.966535,-2.942599 35.433071,-2.942599"
           style="fill:none;stroke:#000000;stroke-width:0.53149605;stroke-linecap:butt;stroke-linejoin:miter;stroke-miterlimit:4;stroke-opacity:1;stroke-dasharray:none" />
        <path
           style="fill:none;stroke:#000000;stroke-width:0.53149605;stroke-linecap:butt;stroke-linejoin:miter;stroke-miterlimit:4;stroke-opacity:1;stroke-dasharray:none"
           d="m 43.101799,35.650052 c 12.913809,12.678571 15.587768,18.257167 31.30765,18.257167 14.173228,0 11.109392,-4.436164 35.433071,-4.436164"
           id="path4150"
           inkscape:connector-curvature="0"
           sodipodi:nodetypes="csc" />
        <path
           sodipodi:nodetypes="csc"
           inkscape:connector-curvature="0"
           id="path4152"
           d="m 16.673228,52.801098 c 26.739314,4.821429 42.268877,8.326779 57.988759,8.326779 14.173228,0 17.463997,-1.338086 35.180533,-1.338086"
           style="fill:none;stroke:#000000;stroke-width:0.53149605;stroke-linecap:butt;stroke-linejoin:miter;stroke-miterlimit:4;stroke-opacity:1;stroke-dasharray:none" />
        <path
           sodipodi:nodetypes="cc"
           inkscape:connector-curvature="0"
           id="path4154"
           d="m 66.785715,48.658604 c 12.642028,4.993404 21.629943,0.102228 11.428571,-0.535714"
           style="fill:none;stroke:#000000;stroke-width:0.53149605;stroke-linecap:butt;stroke-linejoin:miter;stroke-miterlimit:4;stroke-opacity:1;stroke-dasharray:none" />
      </g>
      <path
         style="fill:none;stroke:#000000;stroke-width:0.53149605;stroke-linecap:butt;stroke-linejoin:miter;stroke-miterlimit:4;stroke-opacity:1;stroke-dasharray:none;marker-end:url(#Arrow1Mend-4)"
         d="m 22.442469,53.520319 2.08344,0.257491"
         id="path4156"
         inkscape:connector-curvature="0"
         sodipodi:nodetypes="cc" />
      <path
         style="fill:none;stroke:#000000;stroke-width:0.53149605;stroke-linecap:butt;stroke-linejoin:miter;stroke-miterlimit:4;stroke-opacity:1;stroke-dasharray:none;marker-end:url(#Arrow1Mend-4)"
         d="m 35.031754,46.556034 1.994154,0.635833"
         id="path4158"
         inkscape:connector-curvature="0"
         sodipodi:nodetypes="cc" />
      <path
         sodipodi:nodetypes="cc"
         inkscape:connector-curvature="0"
         id="path4160"
         d="m 45.656754,37.905687 1.547726,1.497124"
         style="fill:none;stroke:#000000;stroke-width:0.53149605;stroke-linecap:butt;stroke-linejoin:miter;stroke-miterlimit:4;stroke-opacity:1;stroke-dasharray:none;marker-end:url(#Arrow1Mend-4)" />
    </g>
  </g>
</svg>
