<?xml version="1.0" encoding="UTF-8" standalone="no"?>
<!-- Created with Inkscape (http://www.inkscape.org/) -->

<svg
   xmlns:ns0="http://www.iki.fi/pav/software/textext/"
   xmlns:dc="http://purl.org/dc/elements/1.1/"
   xmlns:cc="http://creativecommons.org/ns#"
   xmlns:rdf="http://www.w3.org/1999/02/22-rdf-syntax-ns#"
   xmlns:svg="http://www.w3.org/2000/svg"
   xmlns="http://www.w3.org/2000/svg"
   xmlns:xlink="http://www.w3.org/1999/xlink"
   xmlns:sodipodi="http://sodipodi.sourceforge.net/DTD/sodipodi-0.dtd"
   xmlns:inkscape="http://www.inkscape.org/namespaces/inkscape"
   width="425.19684"
   height="187.79527"
   id="svg3041"
   version="1.1"
   inkscape:version="0.48.2 r9819"
   sodipodi:docname="Golfsnelheid.svg">
  <sodipodi:namedview
     id="base"
     pagecolor="#ffffff"
     bordercolor="#666666"
     borderopacity="1.0"
     inkscape:pageopacity="0.0"
     inkscape:pageshadow="2"
     inkscape:zoom="1.979899"
     inkscape:cx="213.61505"
     inkscape:cy="97.680385"
     inkscape:document-units="mm"
     inkscape:current-layer="layer1"
     showgrid="false"
     inkscape:window-width="1366"
     inkscape:window-height="706"
     inkscape:window-x="-8"
     inkscape:window-y="-8"
     inkscape:window-maximized="1"
     units="mm"
     inkscape:snap-bbox="true"
     inkscape:object-paths="false">
    <inkscape:grid
       spacingy="1mm"
       spacingx="1mm"
       units="mm"
       snapvisiblegridlinesonly="true"
       enabled="true"
       visible="true"
       empspacing="5"
       id="grid2992"
       type="xygrid" />
  </sodipodi:namedview>
  <defs
     id="defs3043">
    <marker
       style="overflow:visible"
       id="Arrow1Mstart"
       refX="0"
       refY="0"
       orient="auto"
       inkscape:stockid="Arrow1Mstart">
      <path
         inkscape:connector-curvature="0"
         transform="matrix(0.4,0,0,0.4,4,0)"
         style="fill-rule:evenodd;stroke:#000000;stroke-width:1pt;marker-start:none"
         d="M 0,0 5,-5 -12.5,0 5,5 0,0 z"
         id="path6290" />
    </marker>
    <linearGradient
       id="linearGradient6221">
      <stop
         id="stop6223"
         offset="0"
         style="stop-color:#cccccc;stop-opacity:1;" />
      <stop
         id="stop6225"
         offset="1"
         style="stop-color:#cccccc;stop-opacity:0.58823532;" />
    </linearGradient>
    <marker
       style="overflow:visible"
       id="Arrow1Mend"
       refX="0"
       refY="0"
       orient="auto"
       inkscape:stockid="Arrow1Mend">
      <path
         inkscape:connector-curvature="0"
         transform="matrix(-0.4,0,0,-0.4,-4,0)"
         style="fill-rule:evenodd;stroke:#000000;stroke-width:1pt;marker-start:none"
         d="M 0,0 5,-5 -12.5,0 5,5 0,0 z"
         id="path3773" />
    </marker>
    <linearGradient
       gradientTransform="matrix(1,0,0,0.94119673,-8.4925434,738.29914)"
       gradientUnits="userSpaceOnUse"
       y2="124.01572"
       x2="141.73228"
       y1="354.33069"
       x1="141.73228"
       id="linearGradient6227"
       xlink:href="#linearGradient6221"
       inkscape:collect="always" />
    <linearGradient
       y2="124.01572"
       x2="141.73228"
       y1="354.33069"
       x1="141.73228"
       gradientTransform="matrix(1,0,0,0.94119673,-8.4925434,738.29914)"
       gradientUnits="userSpaceOnUse"
       id="linearGradient4321"
       xlink:href="#linearGradient6221"
       inkscape:collect="always" />
    <linearGradient
       y2="124.01572"
       x2="141.73228"
       y1="354.33069"
       x1="141.73228"
       gradientTransform="matrix(1,0,0,0.94119673,-8.492544,752.47238)"
       gradientUnits="userSpaceOnUse"
       id="linearGradient4363"
       xlink:href="#linearGradient6221"
       inkscape:collect="always" />
  </defs>
  <metadata
     id="metadata3046">
    <rdf:RDF>
      <cc:Work
         rdf:about="">
        <dc:format>image/svg+xml</dc:format>
        <dc:type
           rdf:resource="http://purl.org/dc/dcmitype/StillImage" />
        <dc:title />
      </cc:Work>
    </rdf:RDF>
  </metadata>
  <g
     transform="translate(0,-864.56687)"
     id="layer1"
     inkscape:groupmode="layer"
     inkscape:label="Laag 1">
    <path
       sodipodi:nodetypes="cssscsccsc"
       inkscape:connector-curvature="0"
       id="path6203"
       d="m 17.716534,889.37003 c 0,0 8.858268,0 35.433071,0 33.01281,0 62.656475,-17.71653 95.669295,-17.71653 33.01281,0 66.19978,17.71653 99.2126,17.71653 26.5748,0 159.44881,0 159.44881,0 0,0 10.62993,35.43307 0,70.86614 -7.99314,26.64381 0,88.58263 0,88.58263 l -389.763776,0 c 0,0 -4.656627,-55.52239 0,-88.58263 6.187186,-43.92661 0,-70.86614 0,-70.86614 z"
       style="fill:url(#linearGradient4363);fill-opacity:1;stroke:none" />
    <path
       style="fill:none;stroke:#000000;stroke-width:1.41732287;stroke-linecap:butt;stroke-linejoin:miter;stroke-miterlimit:4;stroke-opacity:1;stroke-dasharray:none;marker-end:url(#Arrow1Mend)"
       d="m 169.30348,969.0726 -35.1298,0"
       id="path5096"
       inkscape:connector-curvature="0"
       inkscape:transform-center-x="15.840055"
       inkscape:transform-center-y="-7.1652361"
       sodipodi:nodetypes="cc" />
    <path
       inkscape:connector-curvature="0"
       id="path6205"
       d="m 177.18183,871.83066 77.14658,0"
       style="fill:none;stroke:#000000;stroke-width:0.35433072;stroke-linecap:butt;stroke-linejoin:miter;stroke-miterlimit:4;stroke-opacity:1;stroke-dasharray:none" />
    <path
       inkscape:connector-curvature="0"
       id="path6207"
       d="m 354.33071,892.91334 53.1496,0"
       style="fill:none;stroke:#000000;stroke-width:0.35433072;stroke-linecap:butt;stroke-linejoin:miter;stroke-miterlimit:4;stroke-opacity:1;stroke-dasharray:none" />
    <path
       style="fill:none;stroke:#000000;stroke-width:0.35433072;stroke-linecap:butt;stroke-linejoin:miter;stroke-miterlimit:4;stroke-opacity:1;stroke-dasharray:none"
       d="m 372.04724,896.45665 35.43307,0"
       id="path6209"
       inkscape:connector-curvature="0" />
    <path
       inkscape:connector-curvature="0"
       id="path6211"
       d="m 389.76377,899.99996 17.71654,0"
       style="fill:none;stroke:#000000;stroke-width:0.35433072;stroke-linecap:butt;stroke-linejoin:miter;stroke-miterlimit:4;stroke-opacity:1;stroke-dasharray:none" />
    <path
       inkscape:connector-curvature="0"
       id="path6267"
       d="m 17.716535,1048.8188 388.868995,0"
       style="fill:none;stroke:#000000;stroke-width:1.77165353;stroke-linecap:butt;stroke-linejoin:miter;stroke-miterlimit:4;stroke-opacity:1;stroke-dasharray:none" />
    <path
       sodipodi:nodetypes="ccsccc"
       inkscape:connector-curvature="0"
       id="path6269"
       d="m 148.8189,1046.7908 0,-173.80621 c 13.37774,-0.53353 40.82144,6.71759 68.72966,13.85732 13.25192,3.39022 26.1848,5.10329 83.63254,4.05111 l 0,155.89768 z"
       style="fill:none;stroke:#000000;stroke-width:1.0629921;stroke-linecap:butt;stroke-linejoin:miter;stroke-miterlimit:4;stroke-opacity:1;stroke-dasharray:6.37795276, 6.37795276;stroke-dashoffset:0" />
    <path
       sodipodi:nodetypes="cc"
       inkscape:connector-curvature="0"
       id="path6279"
       d="m 251.64477,891.08244 -1e-5,155.85386"
       style="fill:none;stroke:#000000;stroke-width:0.70866144;stroke-linecap:butt;stroke-linejoin:miter;stroke-miterlimit:4;stroke-opacity:1;stroke-dasharray:none;marker-start:url(#Arrow1Mstart);marker-end:url(#Arrow1Mend)" />
    <path
       style="fill:none;stroke:#000000;stroke-width:0.70866144;stroke-miterlimit:4;stroke-dasharray:none"
       d="m 17.716534,889.37003 c 0,0 8.858268,0 35.433071,0 33.01281,0 62.656475,-17.71653 95.669295,-17.71653 33.01281,0 66.19978,17.71653 99.2126,17.71653 26.5748,0 159.44881,0 159.44881,0"
       id="path3431"
       inkscape:connector-curvature="0"
       sodipodi:nodetypes="csssc" />
    <path
       style="fill:none;stroke:#000000;stroke-width:0.70866138;stroke-linecap:butt;stroke-linejoin:miter;stroke-miterlimit:4;stroke-opacity:1;stroke-dasharray:none;marker-start:url(#Arrow1Mstart);marker-end:url(#Arrow1Mend)"
       d="m 251.64477,887.6654 0,-14.23637"
       id="path4217"
       inkscape:connector-curvature="0"
       sodipodi:nodetypes="cc" />
    <g
       transform="translate(-5.6692913e-7,14.173239)"
       id="g4245">
      <path
         style="fill:none;stroke:#000000;stroke-width:1.0629921;stroke-linecap:butt;stroke-linejoin:miter;stroke-miterlimit:4;stroke-opacity:1;stroke-dasharray:none;marker-end:url(#Arrow1Mend)"
         d="m 95.704701,1016.9291 49.565239,0"
         id="path6273"
         inkscape:connector-curvature="0"
         inkscape:transform-center-x="-22.130591"
         inkscape:transform-center-y="7.1652491"
         sodipodi:nodetypes="cc" />
      <path
         style="fill:none;stroke:#000000;stroke-width:1px;stroke-linecap:butt;stroke-linejoin:miter;stroke-opacity:1"
         d="M 148.8189,7.0866161 88.582677,184.25197"
         id="path4223"
         inkscape:connector-curvature="0"
         transform="translate(0,850.39364)" />
      <path
         sodipodi:nodetypes="cc"
         inkscape:transform-center-y="7.1652491"
         inkscape:transform-center-x="-19.515851"
         inkscape:connector-curvature="0"
         id="path4227"
         d="m 101.68448,999.21254 43.56497,0"
         style="fill:none;stroke:#000000;stroke-width:1.0629921;stroke-linecap:butt;stroke-linejoin:miter;stroke-miterlimit:4;stroke-opacity:1;stroke-dasharray:none;marker-end:url(#Arrow1Mend)" />
      <path
         style="fill:none;stroke:#000000;stroke-width:1.0629921;stroke-linecap:butt;stroke-linejoin:miter;stroke-miterlimit:4;stroke-opacity:1;stroke-dasharray:none;marker-end:url(#Arrow1Mend)"
         d="m 107.72216,981.496 37.49022,0"
         id="path4229"
         inkscape:connector-curvature="0"
         inkscape:transform-center-x="-16.868648"
         inkscape:transform-center-y="7.1652491"
         sodipodi:nodetypes="cc" />
      <path
         sodipodi:nodetypes="cc"
         inkscape:transform-center-y="7.1652491"
         inkscape:transform-center-x="-14.277519"
         inkscape:connector-curvature="0"
         id="path4231"
         d="m 113.74297,963.77947 31.54414,0"
         style="fill:none;stroke:#000000;stroke-width:1.0629921;stroke-linecap:butt;stroke-linejoin:miter;stroke-miterlimit:4;stroke-opacity:1;stroke-dasharray:none;marker-end:url(#Arrow1Mend)" />
      <path
         style="fill:none;stroke:#000000;stroke-width:1.0629921;stroke-linecap:butt;stroke-linejoin:miter;stroke-miterlimit:4;stroke-opacity:1;stroke-dasharray:none;marker-end:url(#Arrow1Mend)"
         d="m 119.75815,946.06293 25.48809,0"
         id="path4233"
         inkscape:connector-curvature="0"
         inkscape:transform-center-x="-11.638463"
         inkscape:transform-center-y="7.1652491"
         sodipodi:nodetypes="cc" />
      <path
         sodipodi:nodetypes="cc"
         inkscape:transform-center-y="7.1652491"
         inkscape:transform-center-x="-8.9859578"
         inkscape:connector-curvature="0"
         id="path4235"
         d="m 125.77333,928.3464 19.40118,0"
         style="fill:none;stroke:#000000;stroke-width:1.0629921;stroke-linecap:butt;stroke-linejoin:miter;stroke-miterlimit:4;stroke-opacity:1;stroke-dasharray:none;marker-end:url(#Arrow1Mend)" />
      <path
         style="fill:none;stroke:#000000;stroke-width:1.0629921;stroke-linecap:butt;stroke-linejoin:miter;stroke-miterlimit:4;stroke-opacity:1;stroke-dasharray:none;marker-end:url(#Arrow1Mend)"
         d="m 131.73018,910.62986 13.61238,0"
         id="path4237"
         inkscape:connector-curvature="0"
         inkscape:transform-center-x="-6.463381"
         inkscape:transform-center-y="7.1652491"
         sodipodi:nodetypes="cc" />
      <path
         sodipodi:nodetypes="cc"
         inkscape:transform-center-y="7.1652491"
         inkscape:transform-center-x="-3.9455976"
         inkscape:connector-curvature="0"
         id="path4275"
         d="m 137.71232,892.91333 7.96121,0"
         style="fill:none;stroke:#000000;stroke-width:1.0629921;stroke-linecap:butt;stroke-linejoin:miter;stroke-miterlimit:4;stroke-opacity:1;stroke-dasharray:none;marker-end:url(#Arrow1Mend)" />
    </g>
    <g
       transform="matrix(-1,0,0,1,450.62782,31.889777)"
       id="g4255">
      <path
         sodipodi:nodetypes="cc"
         transform="translate(0,850.39364)"
         inkscape:connector-curvature="0"
         id="path4259"
         d="M 148.8189,7.0866161 94.64784,166.53543"
         style="fill:none;stroke:#000000;stroke-width:1px;stroke-linecap:butt;stroke-linejoin:miter;stroke-opacity:1" />
      <path
         style="fill:none;stroke:#000000;stroke-width:1.0629921;stroke-linecap:butt;stroke-linejoin:miter;stroke-miterlimit:4;stroke-opacity:1;stroke-dasharray:none;marker-end:url(#Arrow1Mend)"
         d="m 101.68448,999.21254 43.56497,0"
         id="path4261"
         inkscape:connector-curvature="0"
         inkscape:transform-center-x="-19.515851"
         inkscape:transform-center-y="7.1652491"
         sodipodi:nodetypes="cc" />
      <path
         sodipodi:nodetypes="cc"
         inkscape:transform-center-y="7.1652491"
         inkscape:transform-center-x="-16.868648"
         inkscape:connector-curvature="0"
         id="path4263"
         d="m 107.72216,981.496 37.49022,0"
         style="fill:none;stroke:#000000;stroke-width:1.0629921;stroke-linecap:butt;stroke-linejoin:miter;stroke-miterlimit:4;stroke-opacity:1;stroke-dasharray:none;marker-end:url(#Arrow1Mend)" />
      <path
         style="fill:none;stroke:#000000;stroke-width:1.0629921;stroke-linecap:butt;stroke-linejoin:miter;stroke-miterlimit:4;stroke-opacity:1;stroke-dasharray:none;marker-end:url(#Arrow1Mend)"
         d="m 113.74297,963.77947 31.54414,0"
         id="path4265"
         inkscape:connector-curvature="0"
         inkscape:transform-center-x="-14.277519"
         inkscape:transform-center-y="7.1652491"
         sodipodi:nodetypes="cc" />
      <path
         sodipodi:nodetypes="cc"
         inkscape:transform-center-y="7.1652491"
         inkscape:transform-center-x="-11.638463"
         inkscape:connector-curvature="0"
         id="path4267"
         d="m 119.75815,946.06293 25.48809,0"
         style="fill:none;stroke:#000000;stroke-width:1.0629921;stroke-linecap:butt;stroke-linejoin:miter;stroke-miterlimit:4;stroke-opacity:1;stroke-dasharray:none;marker-end:url(#Arrow1Mend)" />
      <path
         style="fill:none;stroke:#000000;stroke-width:1.0629921;stroke-linecap:butt;stroke-linejoin:miter;stroke-miterlimit:4;stroke-opacity:1;stroke-dasharray:none;marker-end:url(#Arrow1Mend)"
         d="m 125.77333,928.3464 19.40118,0"
         id="path4269"
         inkscape:connector-curvature="0"
         inkscape:transform-center-x="-8.9859578"
         inkscape:transform-center-y="7.1652491"
         sodipodi:nodetypes="cc" />
      <path
         sodipodi:nodetypes="cc"
         inkscape:transform-center-y="7.1652491"
         inkscape:transform-center-x="-6.463381"
         inkscape:connector-curvature="0"
         id="path4271"
         d="m 131.73018,910.62986 13.61238,0"
         style="fill:none;stroke:#000000;stroke-width:1.0629921;stroke-linecap:butt;stroke-linejoin:miter;stroke-miterlimit:4;stroke-opacity:1;stroke-dasharray:none;marker-end:url(#Arrow1Mend)" />
      <path
         style="fill:none;stroke:#000000;stroke-width:1.0629921;stroke-linecap:butt;stroke-linejoin:miter;stroke-miterlimit:4;stroke-opacity:1;stroke-dasharray:none;marker-end:url(#Arrow1Mend)"
         d="m 138.15875,892.91333 7.53949,0"
         id="path4273"
         inkscape:connector-curvature="0"
         inkscape:transform-center-x="-3.4020309"
         inkscape:transform-center-y="3.3376597"
         sodipodi:nodetypes="cc" />
    </g>
    <path
       sodipodi:nodetypes="cc"
       inkscape:transform-center-y="-7.1652361"
       inkscape:transform-center-x="15.840055"
       inkscape:connector-curvature="0"
       id="path4277"
       d="m 317.16062,969.0726 -35.1298,0"
       style="fill:none;stroke:#000000;stroke-width:1.41732287;stroke-linecap:butt;stroke-linejoin:miter;stroke-miterlimit:4;stroke-opacity:1;stroke-dasharray:none;marker-end:url(#Arrow1Mend)" />
    <g
       ns0:preamble="D:\\Onderwijs\\FLUI\\Cursus\\FLUI_theorie\\tex\\commands.tex"
       ns0:text="$c$"
       word-spacing="normal"
       letter-spacing="normal"
       font-size-adjust="none"
       font-stretch="normal"
       font-weight="normal"
       font-variant="normal"
       font-style="normal"
       stroke-miterlimit="10.433"
       xml:space="preserve"
       transform="matrix(1.25,0,0,-1.25,-118.94779,1848.9732)"
       id="content"
       style="font-style:normal;font-variant:normal;font-weight:normal;font-stretch:normal;letter-spacing:normal;word-spacing:normal;text-anchor:start;fill:none;stroke:#000000;stroke-linecap:butt;stroke-linejoin:miter;stroke-miterlimit:10.43299961;stroke-opacity:1;stroke-dasharray:none;stroke-dashoffset:0">
<path
   id="path3088"
   d="m 227.37,710.9 -0.03,0 -0.03,0 -0.03,0 -0.02,0 -0.03,0 -0.03,-0.01 -0.01,0 -0.02,0 -0.01,0 -0.01,-0.01 -0.02,0 -0.01,0 -0.01,-0.01 -0.02,0 -0.01,-0.01 -0.01,-0.01 -0.02,0 -0.01,-0.01 -0.01,-0.01 -0.02,0 -0.01,-0.01 -0.01,-0.01 -0.02,-0.01 -0.01,-0.01 -0.01,-0.02 -0.02,-0.01 c -0.16,-0.15 -0.17,-0.32 -0.17,-0.39 0,-0.23 0.17,-0.34 0.36,-0.34 0.29,0 0.56,0.23 0.56,0.63 0,0.49 -0.47,0.86 -1.17,0.86 -1.35,0 -2.67,-1.43 -2.67,-2.83 0,-0.89 0.58,-1.67 1.61,-1.67 1.42,0 2.26,1.05 2.26,1.17 0,0.06 -0.06,0.13 -0.12,0.13 -0.05,0 -0.07,-0.02 -0.13,-0.1 -0.78,-0.99 -1.87,-0.99 -1.99,-0.99 -0.62,0 -0.89,0.49 -0.89,1.09 0,0.4 0.19,1.37 0.53,1.98 0.31,0.57 0.86,1 1.41,1 0.33,0 0.71,-0.13 0.85,-0.4 z"
   inkscape:connector-curvature="0"
   style="fill:#000000;stroke-width:0" />
</g>    <g
       id="g3204"
       transform="matrix(1.25,0,0,-1.25,-25.003603,1816.6483)"
       xml:space="preserve"
       stroke-miterlimit="10.433"
       font-style="normal"
       font-variant="normal"
       font-weight="normal"
       font-stretch="normal"
       font-size-adjust="none"
       letter-spacing="normal"
       word-spacing="normal"
       ns0:text="$y$"
       ns0:preamble="D:\\Onderwijs\\FLUI\\Cursus\\FLUI_theorie\\tex\\commands.tex"
       style="font-style:normal;font-variant:normal;font-weight:normal;font-stretch:normal;letter-spacing:normal;word-spacing:normal;text-anchor:start;fill:none;stroke:#000000;stroke-linecap:butt;stroke-linejoin:miter;stroke-miterlimit:10.43299961;stroke-opacity:1;stroke-dasharray:none;stroke-dashoffset:0">
<path
   style="fill:#000000;stroke-width:0"
   inkscape:connector-curvature="0"
   d="m 228.27,710.91 0,0.01 0,0 0,0.01 0,0 0.01,0.02 0,0.01 0,0.01 0.01,0.01 0,0.01 0,0 0,0.01 0,0.01 0.01,0.01 0,0.01 0,0 0,0.01 0,0 0,0.01 0,0.01 0,0 0,0.01 0,0 0.01,0.01 0,0.01 0,0.01 0,0.01 0,0.01 0,0.01 0,0 0,0.01 c 0,0.18 -0.14,0.27 -0.29,0.27 -0.1,0 -0.26,-0.06 -0.35,-0.21 -0.02,-0.05 -0.1,-0.36 -0.14,-0.54 -0.07,-0.26 -0.14,-0.52 -0.2,-0.79 l -0.45,-1.79 c -0.03,-0.15 -0.46,-0.85 -1.12,-0.85 -0.51,0 -0.62,0.44 -0.62,0.81 0,0.46 0.17,1.07 0.51,1.95 0.16,0.4 0.2,0.51 0.2,0.71 0,0.45 -0.32,0.82 -0.82,0.82 -0.94,0 -1.31,-1.44 -1.31,-1.53 0,-0.1 0.1,-0.1 0.12,-0.1 0.1,0 0.11,0.02 0.16,0.18 0.27,0.93 0.67,1.23 1,1.23 0.08,0 0.25,0 0.25,-0.32 0,-0.25 -0.1,-0.51 -0.17,-0.7 -0.39,-1.05 -0.57,-1.62 -0.57,-2.08 0,-0.89 0.62,-1.18 1.21,-1.18 0.39,0 0.73,0.16 1.01,0.44 -0.13,-0.51 -0.25,-1 -0.65,-1.53 -0.26,-0.34 -0.64,-0.62 -1.1,-0.62 -0.13,0 -0.58,0.03 -0.75,0.41 0.16,0 0.29,0 0.43,0.12 0.1,0.09 0.19,0.22 0.19,0.41 0,0.31 -0.26,0.35 -0.36,0.35 -0.23,0 -0.56,-0.16 -0.56,-0.65 0,-0.49 0.44,-0.86 1.05,-0.86 1.03,0 2.05,0.9 2.33,2.02 z"
   id="path3206" />
</g>    <g
       id="g3445"
       transform="matrix(1.25,0,0,-1.25,-21.973146,1845.4376)"
       xml:space="preserve"
       stroke="black"
       stroke-linecap="butt"
       stroke-linejoin="miter"
       stroke-miterlimit="10.433"
       stroke-dasharray="none"
       stroke-dashoffset="0"
       stroke-opacity="1"
       fill="none"
       fill-rule="evenodd"
       fill-opacity="1"
       font-style="normal"
       font-variant="normal"
       font-weight="normal"
       font-stretch="normal"
       font-size-adjust="none"
       letter-spacing="normal"
       word-spacing="normal"
       text-anchor="start"
       ns0:text="$c+\\Delta v$"
       ns0:preamble="D:\\Onderwijs\\FLUI\\Cursus\\FLUI_theorie\\tex\\commands.tex"
       style="font-style:normal;font-variant:normal;font-weight:normal;font-stretch:normal;letter-spacing:normal;word-spacing:normal;text-anchor:start;fill:none;stroke:#000000;stroke-linecap:butt;stroke-linejoin:miter;stroke-miterlimit:10.43299961;stroke-opacity:1;stroke-dasharray:none;stroke-dashoffset:0">
<path
   d="M227.37,710.9 L227.34,710.9 L227.31,710.9 L227.28,710.9 L227.26,710.9 L227.23,710.9 L227.2,710.89 L227.19,710.89 L227.17,710.89 L227.16,710.89 L227.15,710.88 L227.13,710.88 L227.12,710.88 L227.11,710.87 L227.09,710.87 L227.08,710.86 L227.07,710.85 L227.05,710.85 L227.04,710.84 L227.03,710.83 L227.01,710.83 L227,710.82 L226.99,710.81 L226.97,710.8 L226.96,710.79 L226.95,710.77 L226.93,710.76 C226.77,710.61,226.76,710.44,226.76,710.37 C226.76,710.14,226.93,710.03,227.12,710.03 C227.41,710.03,227.68,710.26,227.68,710.66 C227.68,711.15,227.21,711.52,226.51,711.52 C225.16,711.52,223.84,710.09,223.84,708.69 C223.84,707.8,224.42,707.02,225.45,707.02 C226.87,707.02,227.71,708.07,227.71,708.19 C227.71,708.25,227.65,708.32,227.59,708.32 C227.54,708.32,227.52,708.3,227.46,708.22 C226.68,707.23,225.59,707.23,225.47,707.23 C224.85,707.23,224.58,707.72,224.58,708.32 C224.58,708.72,224.77,709.69,225.11,710.3 C225.42,710.87,225.97,711.3,226.52,711.3 C226.85,711.3,227.23,711.17,227.37,710.9 Z "
   stroke-width="0"
   fill="black"
   id="path3447" />
<path
   d="M234.03,709.41 H236.8 C236.94,709.41,237.13,709.41,237.13,709.61 C237.13,709.81,236.94,709.81,236.8,709.81 H234.03 V712.59 C234.03,712.73,234.03,712.92,233.83,712.92 C233.63,712.92,233.63,712.73,233.63,712.59 V709.81 H230.84 C230.7,709.81,230.51,709.81,230.51,709.61 C230.51,709.41,230.7,709.41,230.84,709.41 H233.63 V706.63 C233.63,706.49,233.63,706.3,233.83,706.3 C234.03,706.3,234.03,706.49,234.03,706.63 Z "
   stroke-width="0"
   fill="black"
   id="path3449" />
<path
   d="M244.32,714.06 L244.31,714.07 L244.3,714.08 L244.3,714.09 L244.29,714.1 L244.29,714.11 L244.28,714.12 L244.27,714.13 L244.27,714.14 L244.26,714.15 L244.26,714.16 L244.25,714.17 L244.25,714.17 L244.24,714.18 L244.24,714.19 L244.23,714.19 L244.22,714.2 L244.22,714.2 L244.21,714.21 L244.2,714.21 L244.19,714.22 L244.19,714.22 L244.18,714.22 L244.17,714.23 L244.16,714.23 L244.15,714.23 L244.14,714.23 L244.13,714.23 L244.11,714.24 L244.1,714.24 L244.09,714.24 L244.07,714.24 L244.06,714.24 C243.89,714.24,243.87,714.19,243.8,714.06 L243.74,713.24 L246.41,707.88 H241.05 L243.74,713.24 L243.8,714.06 L240.43,707.32 C240.38,707.23,240.38,707.21,240.38,707.2 C240.38,707.13,240.45,707.13,240.6,707.13 H247.51 C247.67,707.13,247.73,707.13,247.73,707.2 C247.73,707.21,247.73,707.23,247.68,707.32 Z "
   stroke-width="0"
   fill="black"
   id="path3451" />
<path
   d="M252.88,710.82 L252.88,710.84 L252.88,710.87 L252.88,710.89 L252.88,710.92 L252.87,710.94 L252.87,710.96 L252.87,710.98 L252.87,711 L252.86,711.04 L252.85,711.08 L252.84,711.12 L252.83,711.16 L252.82,711.19 L252.81,711.22 L252.8,711.25 L252.79,711.28 L252.77,711.3 L252.76,711.33 L252.74,711.35 L252.73,711.37 L252.71,711.39 L252.69,711.41 L252.68,711.42 L252.66,711.44 L252.64,711.45 L252.62,711.46 L252.6,711.47 L252.58,711.48 L252.57,711.49 L252.55,711.5 L252.53,711.5 L252.51,711.51 L252.49,711.51 L252.48,711.51 L252.46,711.52 L252.44,711.52 C252.19,711.52,251.95,711.26,251.95,711.04 C251.95,710.91,252,710.85,252.11,710.74 C252.32,710.54,252.45,710.28,252.45,709.93 C252.45,709.51,251.84,707.23,250.68,707.23 C250.17,707.23,249.94,707.58,249.94,708.1 C249.94,708.66,250.21,709.38,250.52,710.2 C250.59,710.37,250.64,710.51,250.64,710.7 C250.64,711.15,250.32,711.52,249.82,711.52 C248.89,711.52,248.51,710.08,248.51,709.99 C248.51,709.89,248.61,709.89,248.63,709.89 C248.73,709.89,248.74,709.91,248.79,710.07 C249.08,711.07,249.51,711.3,249.79,711.3 C249.87,711.3,250.04,711.3,250.04,710.98 C250.04,710.73,249.94,710.46,249.87,710.28 C249.44,709.13,249.31,708.67,249.31,708.25 C249.31,707.17,250.18,707.02,250.64,707.02 C252.31,707.02,252.88,710.3,252.88,710.82 Z "
   stroke-width="0"
   fill="black"
   id="path3453" />
</g>    <g
       style="font-style:normal;font-variant:normal;font-weight:normal;font-stretch:normal;letter-spacing:normal;word-spacing:normal;text-anchor:start;fill:none;stroke:#000000;stroke-linecap:butt;stroke-linejoin:miter;stroke-miterlimit:10.43299961;stroke-opacity:1;stroke-dasharray:none;stroke-dashoffset:0"
       ns0:preamble="D:\\Onderwijs\\FLUI\\Cursus\\FLUI_theorie\\tex\\commands.tex"
       ns0:text="$\\Delta y$"
       word-spacing="normal"
       letter-spacing="normal"
       font-size-adjust="none"
       font-stretch="normal"
       font-weight="normal"
       font-variant="normal"
       font-style="normal"
       stroke-miterlimit="10.433"
       xml:space="preserve"
       transform="matrix(1.25,0,0,-1.25,-23.488374,1768.161)"
       id="g3573">
<path
   id="path3575"
   d="m 227.83,714.06 -0.01,0.01 0,0.01 -0.01,0.01 0,0.01 -0.01,0.01 -0.01,0.01 0,0.01 -0.01,0.01 0,0.01 -0.01,0.01 0,0.01 -0.01,0 0,0.01 -0.01,0.01 -0.01,0 0,0.01 -0.01,0 -0.01,0.01 0,0 -0.01,0.01 -0.01,0 -0.01,0 -0.01,0.01 -0.01,0 -0.01,0 -0.01,0 -0.01,0 -0.01,0.01 -0.02,0 -0.01,0 -0.01,0 -0.02,0 c -0.17,0 -0.19,-0.05 -0.26,-0.18 l -0.06,-0.82 2.68,-5.36 h -5.36 l 2.68,5.36 0.06,0.82 -3.36,-6.74 c -0.05,-0.09 -0.05,-0.11 -0.05,-0.12 0,-0.07 0.06,-0.07 0.22,-0.07 h 6.9 c 0.16,0 0.22,0 0.22,0.07 0,0.01 0,0.03 -0.05,0.12 z"
   inkscape:connector-curvature="0"
   style="fill:#000000;stroke-width:0" />
<path
   id="path3577"
   d="m 236.57,710.91 0,0.01 0,0 0,0.01 0.01,0 0,0.02 0,0.01 0,0.01 0.01,0.01 0,0.01 0,0 0,0.01 0.01,0.01 0,0.01 0,0.01 0,0 0,0.01 0,0 0,0.01 0,0.01 0.01,0 0,0.01 0,0 0,0.01 0,0.01 0,0.01 0,0.01 0,0.01 0,0.01 0,0 0,0.01 c 0,0.18 -0.14,0.27 -0.29,0.27 -0.1,0 -0.26,-0.06 -0.35,-0.21 -0.02,-0.05 -0.1,-0.36 -0.14,-0.54 -0.07,-0.26 -0.14,-0.52 -0.2,-0.79 l -0.44,-1.79 c -0.04,-0.15 -0.47,-0.85 -1.13,-0.85 -0.51,0 -0.61,0.44 -0.61,0.81 0,0.46 0.16,1.07 0.5,1.95 0.16,0.4 0.2,0.51 0.2,0.71 0,0.45 -0.32,0.82 -0.81,0.82 -0.95,0 -1.32,-1.44 -1.32,-1.53 0,-0.1 0.1,-0.1 0.12,-0.1 0.1,0 0.11,0.02 0.16,0.18 0.27,0.93 0.67,1.23 1.01,1.23 0.08,0 0.24,0 0.24,-0.32 0,-0.25 -0.09,-0.51 -0.16,-0.7 -0.4,-1.05 -0.58,-1.62 -0.58,-2.08 0,-0.89 0.62,-1.18 1.21,-1.18 0.39,0 0.73,0.16 1.01,0.44 -0.13,-0.51 -0.25,-1 -0.65,-1.53 -0.26,-0.34 -0.64,-0.62 -1.09,-0.62 -0.14,0 -0.59,0.03 -0.76,0.41 0.16,0 0.29,0 0.43,0.12 0.1,0.09 0.2,0.22 0.2,0.41 0,0.31 -0.27,0.35 -0.37,0.35 -0.23,0 -0.56,-0.16 -0.56,-0.65 0,-0.49 0.44,-0.86 1.06,-0.86 1.02,0 2.05,0.9 2.32,2.02 z"
   inkscape:connector-curvature="0"
   style="fill:#000000;stroke-width:0" />
</g>  </g>
</svg>
