<?xml version="1.0" encoding="UTF-8" standalone="no"?>
<!-- Created with Inkscape (http://www.inkscape.org/) -->

<svg
   xmlns:dc="http://purl.org/dc/elements/1.1/"
   xmlns:cc="http://creativecommons.org/ns#"
   xmlns:rdf="http://www.w3.org/1999/02/22-rdf-syntax-ns#"
   xmlns:svg="http://www.w3.org/2000/svg"
   xmlns="http://www.w3.org/2000/svg"
   xmlns:xlink="http://www.w3.org/1999/xlink"
   xmlns:sodipodi="http://sodipodi.sourceforge.net/DTD/sodipodi-0.dtd"
   xmlns:inkscape="http://www.inkscape.org/namespaces/inkscape"
   width="513.77954"
   height="162.99213"
   id="svg3041"
   version="1.1"
   inkscape:version="0.48.2 r9819"
   sodipodi:docname="Open_kanaal_subkritisch_naar_superkritisch.svg">
  <defs
     id="defs3043">
    <marker
       inkscape:stockid="Arrow1Mstart"
       orient="auto"
       refY="0"
       refX="0"
       id="Arrow1Mstart"
       style="overflow:visible">
      <path
         id="path6290"
         d="M 0,0 5,-5 -12.5,0 5,5 0,0 z"
         style="fill-rule:evenodd;stroke:#000000;stroke-width:1pt;marker-start:none"
         transform="matrix(0.4,0,0,0.4,4,0)"
         inkscape:connector-curvature="0" />
    </marker>
    <linearGradient
       id="linearGradient6221">
      <stop
         style="stop-color:#cccccc;stop-opacity:1;"
         offset="0"
         id="stop6223" />
      <stop
         style="stop-color:#cccccc;stop-opacity:0.58823532;"
         offset="1"
         id="stop6225" />
    </linearGradient>
    <marker
       inkscape:stockid="Arrow1Mend"
       orient="auto"
       refY="0"
       refX="0"
       id="Arrow1Mend"
       style="overflow:visible">
      <path
         id="path3773"
         d="M 0,0 5,-5 -12.5,0 5,5 0,0 z"
         style="fill-rule:evenodd;stroke:#000000;stroke-width:1pt;marker-start:none"
         transform="matrix(-0.4,0,0,-0.4,-4,0)"
         inkscape:connector-curvature="0" />
    </marker>
    <linearGradient
       inkscape:collect="always"
       xlink:href="#linearGradient6221"
       id="linearGradient6227"
       x1="141.73228"
       y1="354.33069"
       x2="141.73228"
       y2="124.01572"
       gradientUnits="userSpaceOnUse"
       gradientTransform="matrix(1,0,0,0.94119673,-8.4925434,738.29914)" />
    <linearGradient
       inkscape:collect="always"
       xlink:href="#linearGradient6221"
       id="linearGradient4321"
       gradientUnits="userSpaceOnUse"
       gradientTransform="matrix(1,0,0,0.94119673,-8.4925434,738.29914)"
       x1="141.73228"
       y1="354.33069"
       x2="141.73228"
       y2="124.01572" />
    <linearGradient
       inkscape:collect="always"
       xlink:href="#linearGradient6221"
       id="linearGradient4363"
       gradientUnits="userSpaceOnUse"
       gradientTransform="matrix(1,0,0,0.94119673,-8.492548,752.47242)"
       x1="141.73228"
       y1="354.33069"
       x2="141.73228"
       y2="124.01572" />
    <marker
       inkscape:stockid="Arrow1Mstart"
       orient="auto"
       refY="0"
       refX="0"
       id="Arrow1Mstart-5"
       style="overflow:visible">
      <path
         id="path6290-1"
         d="M 0,0 5,-5 -12.5,0 5,5 0,0 z"
         style="fill-rule:evenodd;stroke:#000000;stroke-width:1pt;marker-start:none"
         transform="matrix(0.4,0,0,0.4,4,0)"
         inkscape:connector-curvature="0" />
    </marker>
    <marker
       inkscape:stockid="Arrow1Mend"
       orient="auto"
       refY="0"
       refX="0"
       id="Arrow1Mend-7"
       style="overflow:visible">
      <path
         id="path3773-1"
         d="M 0,0 5,-5 -12.5,0 5,5 0,0 z"
         style="fill-rule:evenodd;stroke:#000000;stroke-width:1pt;marker-start:none"
         transform="matrix(-0.4,0,0,-0.4,-4,0)"
         inkscape:connector-curvature="0" />
    </marker>
    <marker
       inkscape:stockid="Arrow1Mstart"
       orient="auto"
       refY="0"
       refX="0"
       id="Arrow1Mstart-1"
       style="overflow:visible">
      <path
         id="path6290-5"
         d="M 0,0 5,-5 -12.5,0 5,5 0,0 z"
         style="fill-rule:evenodd;stroke:#000000;stroke-width:1pt;marker-start:none"
         transform="matrix(0.4,0,0,0.4,4,0)"
         inkscape:connector-curvature="0" />
    </marker>
    <marker
       inkscape:stockid="Arrow1Mend"
       orient="auto"
       refY="0"
       refX="0"
       id="Arrow1Mend-2"
       style="overflow:visible">
      <path
         id="path3773-7"
         d="M 0,0 5,-5 -12.5,0 5,5 0,0 z"
         style="fill-rule:evenodd;stroke:#000000;stroke-width:1pt;marker-start:none"
         transform="matrix(-0.4,0,0,-0.4,-4,0)"
         inkscape:connector-curvature="0" />
    </marker>
    <marker
       inkscape:stockid="Arrow1Mstart"
       orient="auto"
       refY="0"
       refX="0"
       id="Arrow1Mstart-6"
       style="overflow:visible">
      <path
         id="path6290-14"
         d="M 0,0 5,-5 -12.5,0 5,5 0,0 z"
         style="fill-rule:evenodd;stroke:#000000;stroke-width:1pt;marker-start:none"
         transform="matrix(0.4,0,0,0.4,4,0)"
         inkscape:connector-curvature="0" />
    </marker>
    <marker
       inkscape:stockid="Arrow1Mend"
       orient="auto"
       refY="0"
       refX="0"
       id="Arrow1Mend-23"
       style="overflow:visible">
      <path
         id="path3773-2"
         d="M 0,0 5,-5 -12.5,0 5,5 0,0 z"
         style="fill-rule:evenodd;stroke:#000000;stroke-width:1pt;marker-start:none"
         transform="matrix(-0.4,0,0,-0.4,-4,0)"
         inkscape:connector-curvature="0" />
    </marker>
  </defs>
  <sodipodi:namedview
     id="base"
     pagecolor="#ffffff"
     bordercolor="#666666"
     borderopacity="1.0"
     inkscape:pageopacity="0.0"
     inkscape:pageshadow="2"
     inkscape:zoom="1.979899"
     inkscape:cx="343.75162"
     inkscape:cy="104.35936"
     inkscape:document-units="mm"
     inkscape:current-layer="layer1"
     showgrid="false"
     inkscape:window-width="1280"
     inkscape:window-height="962"
     inkscape:window-x="-8"
     inkscape:window-y="-8"
     inkscape:window-maximized="1"
     units="mm"
     inkscape:snap-bbox="true"
     inkscape:object-paths="false">
    <inkscape:grid
       type="xygrid"
       id="grid2992"
       empspacing="5"
       visible="true"
       enabled="true"
       snapvisiblegridlinesonly="true"
       units="mm"
       spacingx="1mm"
       spacingy="1mm" />
  </sodipodi:namedview>
  <metadata
     id="metadata3046">
    <rdf:RDF>
      <cc:Work
         rdf:about="">
        <dc:format>image/svg+xml</dc:format>
        <dc:type
           rdf:resource="http://purl.org/dc/dcmitype/StillImage" />
        <dc:title></dc:title>
      </cc:Work>
    </rdf:RDF>
  </metadata>
  <g
     inkscape:label="Laag 1"
     inkscape:groupmode="layer"
     id="layer1"
     transform="translate(0,-889.37002)">
    <path
       style="fill:url(#linearGradient4363);fill-opacity:1;stroke:none"
       d="m 17.716529,924.80314 c 0,0 88.582691,-10e-5 106.299221,-10e-5 17.71654,0 35.74896,2.79968 53.1496,10.62997 70.86615,31.88976 70.86615,95.66929 141.73229,102.75589 0,0 0.35987,0 1.03375,9e-4 0.67389,8e-4 1.66179,0 2.91787,0.01 1.25607,0 2.78032,0.01 4.52688,0.016 1.74657,0.01 3.71546,0.018 5.86082,0.032 2.14536,0.014 4.4672,0.031 6.91966,0.053 2.45246,0.022 5.03554,0.048 7.7034,0.079 2.66786,0.031 3.18836,-0.1116 5.97993,-0.069 2.79156,0.042 2.1399,-1.4268 3.08848,-3.7823 1.05496,-2.6197 -0.69906,-2.1145 0.18982,-5.7052 0.66436,-2.6838 3.15357,-3.5127 5.49821,-7.7119 1.2743,-2.2823 -0.8345,-5.702 1.60294,-11.3209 0.87783,-2.0236 4.58425,-3.3694 6.91111,-7.0419 4.22512,-6.66859 4.11594,-5.34377 5.9993,-7.55846 2.41095,-2.83511 12.06596,-8.49658 23.98852,-8.05599 17.71653,0 94.94466,0 94.94466,0 0,0 5.011,19.37765 0,29.39965 -7.08661,14.1732 0.22146,32.0633 0,32.2848 -3.5433,3.5433 -177.16535,0 -177.16535,0 -88.58268,0 -106.29921,-85.03933 -141.73229,-85.03936 -17.71653,0 -35.43306,85.03936 -53.1496,85.03936 l -106.299221,0 c 0,0 -4.656626,-37.8059 10e-7,-70.86606 6.187186,-43.9266 -10e-7,-53.1496 -10e-7,-53.1496 z"
       id="path6203"
       inkscape:connector-curvature="0"
       sodipodi:nodetypes="csscsssssssssssssccscccccscc" />
    <path
       sodipodi:nodetypes="cc"
       inkscape:transform-center-y="-7.1652361"
       inkscape:transform-center-x="-8.1196972"
       inkscape:connector-curvature="0"
       id="path5096"
       d="m 35.736343,977.95271 17.413263,0"
       style="fill:none;stroke:#000000;stroke-width:1.41732287;stroke-linecap:butt;stroke-linejoin:miter;stroke-miterlimit:4;stroke-opacity:1;stroke-dasharray:none;marker-end:url(#Arrow1Mend)" />
    <path
       style="fill:none;stroke:#000000;stroke-width:1.77165353;stroke-linecap:butt;stroke-linejoin:miter;stroke-miterlimit:4;stroke-opacity:1;stroke-dasharray:none"
       d="m 17.716535,1048.8188 106.299215,0 c 17.71654,0 35.02679,-85.03939 53.14961,-85.03937 35.43307,4e-5 53.1496,85.03937 141.73228,85.03937 l 177.16535,0"
       id="path6267"
       inkscape:connector-curvature="0"
       sodipodi:nodetypes="ccscc" />
    <path
       sodipodi:nodetypes="ccsccsssssssc"
       inkscape:connector-curvature="0"
       id="path3431"
       d="m 17.716535,924.55056 c 0,0 79.724413,-10e-6 106.299215,-10e-6 17.71654,0 38.69916,4.37976 53.1496,10.88246 70.86615,31.88976 70.86615,95.66929 141.73229,102.75589 l 35.43307,0 c 0,0 1.32883,-0.1232 2.42828,-3.5654 1.06629,-3.3384 -0.84926,-2.8078 0.57931,-6.3502 1.32523,-3.2862 3.04165,-3.1921 4.61474,-6.1938 2.32605,-4.4384 -0.21055,-7.4411 2.11473,-11.8799 2.16108,-4.1254 4.92795,-3.8565 6.90805,-7.4438 2.42157,-4.38699 4.04778,-4.98755 6.74084,-8.34806 2.80961,-3.50596 14.0536,-7.37143 21.05108,-7.3302 17.5537,0.10343 79.30961,-0.2012 97.29525,-0.19572"
       style="fill:none;stroke:#000000;stroke-width:0.70866144;stroke-miterlimit:4;stroke-dasharray:none" />
    <path
       style="fill:none;stroke:#000000;stroke-width:1.41732287;stroke-linecap:butt;stroke-linejoin:miter;stroke-miterlimit:4;stroke-opacity:1;stroke-dasharray:none;marker-end:url(#Arrow1Mend)"
       d="m 298.65964,1043.3602 47.93504,0.6448"
       id="path6197"
       inkscape:connector-curvature="0"
       inkscape:transform-center-x="-21.49855"
       inkscape:transform-center-y="-6.6757168"
       sodipodi:nodetypes="cc" />
    <path
       sodipodi:nodetypes="cc"
       inkscape:connector-curvature="0"
       id="path3200"
       d="m 176.16985,957.86484 0,-59.9745"
       style="fill:none;stroke:#000000;stroke-width:1.0629921;stroke-linecap:butt;stroke-linejoin:miter;stroke-miterlimit:4;stroke-opacity:1;stroke-dasharray:6.37795282, 6.37795282;stroke-dashoffset:0" />
    <path
       sodipodi:nodetypes="cc"
       inkscape:connector-curvature="0"
       id="path3167"
       d="m 174.35114,907.40526 -148.311712,-10e-6"
       style="fill:none;stroke:#000000;stroke-width:0.70866144;stroke-linecap:butt;stroke-linejoin:miter;stroke-miterlimit:4;stroke-opacity:1;stroke-dasharray:none;marker-start:url(#Arrow1Mstart);marker-end:none" />
    <path
       style="fill:none;stroke:#000000;stroke-width:0.7086615;stroke-linecap:butt;stroke-linejoin:miter;stroke-miterlimit:4;stroke-opacity:1;stroke-dasharray:none;marker-start:url(#Arrow1Mstart);marker-end:url(#Arrow1Mend-23)"
       d="m 177.86026,907.40526 206.97128,10e-6"
       id="path7525"
       inkscape:connector-curvature="0"
       sodipodi:nodetypes="cc" />
    <path
       style="fill:none;stroke:#000000;stroke-width:1.0629921;stroke-linecap:butt;stroke-linejoin:miter;stroke-miterlimit:4;stroke-opacity:1;stroke-dasharray:6.37795283, 6.37795283;stroke-dashoffset:0"
       d="m 386.62421,1042.9802 0,-144.34217"
       id="path7527"
       inkscape:connector-curvature="0"
       sodipodi:nodetypes="cc" />
    <path
       style="fill:none;stroke:#000000;stroke-width:0.70866144;stroke-linecap:butt;stroke-linejoin:miter;stroke-miterlimit:4;stroke-opacity:1;stroke-dasharray:none;marker-start:url(#Arrow1Mstart);marker-end:none"
       d="m 388.31739,907.40526 109.05645,-10e-6"
       id="path7725"
       inkscape:connector-curvature="0"
       sodipodi:nodetypes="cc" />
    <text
       xml:space="preserve"
       style="font-size:13px;font-style:normal;font-variant:normal;font-weight:normal;font-stretch:normal;line-height:125%;letter-spacing:0px;word-spacing:0px;fill:#000000;fill-opacity:1;stroke:none;font-family:J;-inkscape-font-specification:J"
       x="58.774479"
       y="903.86176"
       id="text7727"
       sodipodi:linespacing="125%"><tspan
         sodipodi:role="line"
         id="tspan7729"
         x="58.774479"
         y="903.86176">subkritisch</tspan></text>
    <text
       sodipodi:linespacing="125%"
       id="text7731"
       y="903.86176"
       x="253.38474"
       style="font-size:13px;font-style:normal;font-variant:normal;font-weight:normal;font-stretch:normal;line-height:125%;letter-spacing:0px;word-spacing:0px;fill:#000000;fill-opacity:1;stroke:none;font-family:J;-inkscape-font-specification:J"
       xml:space="preserve"><tspan
         y="903.86176"
         x="253.38474"
         id="tspan7733"
         sodipodi:role="line">superkritisch</tspan></text>
    <text
       sodipodi:linespacing="125%"
       id="text7741"
       y="903.86176"
       x="425.20303"
       style="font-size:13px;font-style:normal;font-variant:normal;font-weight:normal;font-stretch:normal;line-height:125%;letter-spacing:0px;word-spacing:0px;fill:#000000;fill-opacity:1;stroke:none;font-family:J;-inkscape-font-specification:J"
       xml:space="preserve"><tspan
         y="903.86176"
         x="425.20303"
         id="tspan7743"
         sodipodi:role="line">subkritisch</tspan></text>
    <text
       xml:space="preserve"
       style="font-size:13px;font-style:normal;font-variant:normal;font-weight:normal;font-stretch:normal;line-height:125%;letter-spacing:0px;word-spacing:0px;fill:#000000;fill-opacity:1;stroke:none;font-family:J;-inkscape-font-specification:J"
       x="178.57143"
       y="928.07642"
       id="text7745"
       sodipodi:linespacing="125%"><tspan
         sodipodi:role="line"
         id="tspan7747"
         x="178.57143"
         y="928.07642">kritische diepte</tspan></text>
    <text
       sodipodi:linespacing="125%"
       id="text7749"
       y="933.43359"
       x="388.21429"
       style="font-size:13px;font-style:normal;font-variant:normal;font-weight:normal;font-stretch:normal;line-height:125%;letter-spacing:0px;word-spacing:0px;fill:#000000;fill-opacity:1;stroke:none;font-family:J;-inkscape-font-specification:J"
       xml:space="preserve"><tspan
         y="933.43359"
         x="388.21429"
         id="tspan7751"
         sodipodi:role="line">hydraulische sprong</tspan></text>
    <path
       style="fill:none;stroke:#000000;stroke-width:1.41732299;stroke-linecap:butt;stroke-linejoin:miter;stroke-miterlimit:4;stroke-opacity:1;stroke-dasharray:none;marker-end:url(#Arrow1Mend)"
       d="m 452.8792,1016.5241 28.7008,0"
       id="path7753"
       inkscape:connector-curvature="0"
       inkscape:transform-center-x="-13.038484"
       inkscape:transform-center-y="-7.1652361"
       sodipodi:nodetypes="cc" />
    <path
       sodipodi:type="arc"
       style="opacity:0.98000004;fill:none;stroke:#000000;stroke-width:0.79690856;stroke-miterlimit:4;stroke-dasharray:none"
       id="path7755"
       sodipodi:cx="391.33929"
       sodipodi:cy="127.81355"
       sodipodi:rx="10.982142"
       sodipodi:ry="7.8571429"
       d="m 396.1733,120.75851 a 10.982142,7.8571429 0 1 1 -14.64448,10.58635"
       transform="matrix(0.70738291,0,0,0.62882314,104.45128,935.70801)"
       sodipodi:start="5.168177"
       sodipodi:end="8.9586409"
       sodipodi:open="true" />
    <path
       sodipodi:open="true"
       sodipodi:end="8.9586409"
       sodipodi:start="5.168177"
       transform="matrix(0.45293669,0.26950322,-0.34603312,0.58155557,249.22855,820.52065)"
       d="m 396.1733,120.75851 a 10.982142,7.8571429 0 1 1 -14.64448,10.58635"
       sodipodi:ry="7.8571429"
       sodipodi:rx="10.982142"
       sodipodi:cy="127.81355"
       sodipodi:cx="391.33929"
       id="path7757"
       style="opacity:0.98000004;fill:none;stroke:#000000;stroke-width:0.88995868;stroke-miterlimit:4;stroke-dasharray:none"
       sodipodi:type="arc" />
    <path
       sodipodi:type="arc"
       style="opacity:0.98000004;fill:none;stroke:#000000;stroke-width:0.62057722;stroke-miterlimit:4;stroke-dasharray:none"
       id="path7759"
       sodipodi:cx="391.33929"
       sodipodi:cy="127.81355"
       sodipodi:rx="10.982142"
       sodipodi:ry="7.8571429"
       d="m 396.1733,120.75851 a 10.982142,7.8571429 0 1 1 -14.64448,10.58635"
       transform="matrix(0.53767782,-0.39586966,0.61523864,0.91125154,102.69314,1054.9724)"
       sodipodi:start="5.168177"
       sodipodi:end="8.9586409"
       sodipodi:open="true" />
    <path
       sodipodi:open="true"
       sodipodi:end="8.9586409"
       sodipodi:start="5.168177"
       transform="matrix(0.20920158,-0.46219183,0.57278099,0.13339714,211.70981,1190.7037)"
       d="m 396.1733,120.75851 a 10.982142,7.8571429 0 1 1 -14.64448,10.58635"
       sodipodi:ry="7.8571429"
       sodipodi:rx="10.982142"
       sodipodi:cy="127.81355"
       sodipodi:cx="391.33929"
       id="path7761"
       style="opacity:0.98000004;fill:none;stroke:#000000;stroke-width:0.98249876;stroke-miterlimit:4;stroke-dasharray:none"
       sodipodi:type="arc" />
  </g>
</svg>
