<?xml version="1.0" encoding="UTF-8" standalone="no"?>
<!-- Created with Inkscape (http://www.inkscape.org/) -->

<svg
   xmlns:ns0="http://www.iki.fi/pav/software/textext/"
   xmlns:dc="http://purl.org/dc/elements/1.1/"
   xmlns:cc="http://creativecommons.org/ns#"
   xmlns:rdf="http://www.w3.org/1999/02/22-rdf-syntax-ns#"
   xmlns:svg="http://www.w3.org/2000/svg"
   xmlns="http://www.w3.org/2000/svg"
   xmlns:sodipodi="http://sodipodi.sourceforge.net/DTD/sodipodi-0.dtd"
   xmlns:inkscape="http://www.inkscape.org/namespaces/inkscape"
   width="333.07086"
   height="223.22835"
   id="svg3041"
   version="1.1"
   inkscape:version="0.48.2 r9819"
   sodipodi:docname="Specifieke_energie_diagram.svg">
  <sodipodi:namedview
     id="base"
     pagecolor="#ffffff"
     bordercolor="#666666"
     borderopacity="1.0"
     inkscape:pageopacity="0.0"
     inkscape:pageshadow="2"
     inkscape:zoom="1.979899"
     inkscape:cx="117.70563"
     inkscape:cy="114.3647"
     inkscape:document-units="mm"
     inkscape:current-layer="layer4"
     showgrid="false"
     inkscape:window-width="1366"
     inkscape:window-height="706"
     inkscape:window-x="-8"
     inkscape:window-y="-8"
     inkscape:window-maximized="1"
     units="mm">
    <inkscape:grid
       type="xygrid"
       id="grid2992"
       empspacing="5"
       visible="true"
       enabled="true"
       snapvisiblegridlinesonly="true"
       units="mm"
       spacingx="1mm"
       spacingy="1mm" />
  </sodipodi:namedview>
  <defs
     id="defs3043">
    <marker
       inkscape:stockid="Arrow2Mend"
       orient="auto"
       refY="0"
       refX="0"
       id="Arrow2Mend"
       style="overflow:visible">
      <path
         id="path5635"
         style="font-size:12px;fill-rule:evenodd;stroke-width:0.625;stroke-linejoin:round"
         d="M 8.7185878,4.0337352 -2.2072895,0.01601326 8.7185884,-4.0017078 c -1.7454984,2.3720609 -1.7354408,5.6174519 -6e-7,8.035443 z"
         transform="scale(-0.6,-0.6)"
         inkscape:connector-curvature="0" />
    </marker>
  </defs>
  <metadata
     id="metadata3046">
    <rdf:RDF>
      <cc:Work
         rdf:about="">
        <dc:format>image/svg+xml</dc:format>
        <dc:type
           rdf:resource="http://purl.org/dc/dcmitype/StillImage" />
        <dc:title />
      </cc:Work>
    </rdf:RDF>
  </metadata>
  <g
     inkscape:label="Laag 1"
     inkscape:groupmode="layer"
     id="layer1"
     transform="translate(0,-829.1339)">
    <path
       style="fill:none;stroke:#000000;stroke-width:1.0629921;stroke-linecap:butt;stroke-linejoin:miter;stroke-miterlimit:4;stroke-opacity:1;stroke-dasharray:none;marker-mid:none;marker-end:url(#Arrow2Mend)"
       d="m 17.716535,1027.559 0,-194.66428"
       id="path4915"
       inkscape:connector-curvature="0" />
    <path
       inkscape:connector-curvature="0"
       id="path6049"
       d="m 17.716534,1027.559 304.619186,0"
       style="fill:none;stroke:#000000;stroke-width:1.0629921;stroke-linecap:butt;stroke-linejoin:miter;stroke-miterlimit:4;stroke-opacity:1;stroke-dasharray:none;marker-mid:none;marker-end:url(#Arrow2Mend)" />
    <path
       style="fill:none;stroke:#000000;stroke-width:1.0629921;stroke-linecap:butt;stroke-linejoin:miter;stroke-miterlimit:4;stroke-opacity:1;stroke-dasharray:8.50393696, 4.25196847;stroke-dashoffset:0"
       d="M 17.716534,1027.559 240.19008,805.08551"
       id="path6059"
       inkscape:connector-curvature="0"
       sodipodi:nodetypes="cc" />
    <path
       style="fill:none;stroke:#000000;stroke-width:1.41732287;stroke-linecap:butt;stroke-linejoin:miter;stroke-miterlimit:4;stroke-opacity:1;stroke-dasharray:none"
       d="m 302.0501,1011.1914 c 0,0 -25.14728,-1.3205 -55.49921,-4.4848 -22.92023,-2.3895 -45.91916,-4.9942 -68.39296,-10.09077 -12.9697,-2.94127 -26.6666,-5.01469 -38.12066,-11.77255 -6.03266,-3.55925 -12.39478,-8.12994 -15.13616,-14.57555 -2.48661,-5.84663 -1.45972,-12.87686 0,-19.06034 2.01603,-8.54001 7.17758,-16.06967 11.77256,-23.54512 8.04371,-13.08609 17.71471,-25.13377 27.46931,-36.99947 24.53008,-29.83891 77.92313,-85.7715 77.92313,-85.7715"
       id="path6063"
       inkscape:connector-curvature="0"
       sodipodi:nodetypes="csssssssc" />
    <g
       style="font-style:normal;font-variant:normal;font-weight:normal;font-stretch:normal;letter-spacing:normal;word-spacing:normal;text-anchor:start;fill:none;stroke:#000000;stroke-linecap:butt;stroke-linejoin:miter;stroke-miterlimit:10.43299961;stroke-opacity:1;stroke-dasharray:none;stroke-dashoffset:0"
       ns0:preamble="D:\\Onderwijs\\FLUI\\Cursus\\FLUI_theorie\\tex\\commands.tex"
       ns0:text="$y$"
       word-spacing="normal"
       letter-spacing="normal"
       font-size-adjust="none"
       font-stretch="normal"
       font-weight="normal"
       font-variant="normal"
       font-style="normal"
       stroke-miterlimit="10.433"
       xml:space="preserve"
       transform="matrix(1.25,0,0,-1.25,-273.76295,1727.2013)"
       id="g4450">
<path
   id="path4452"
   d="m 228.27,710.91 0,0.01 0,0 0,0.01 0,0 0.01,0.02 0,0.01 0,0.01 0.01,0.01 0,0.01 0,0 0,0.01 0,0.01 0.01,0.01 0,0.01 0,0 0,0.01 0,0 0,0.01 0,0.01 0,0 0,0.01 0,0 0.01,0.01 0,0.01 0,0.01 0,0.01 0,0.01 0,0.01 0,0 0,0.01 c 0,0.18 -0.14,0.27 -0.29,0.27 -0.1,0 -0.26,-0.06 -0.35,-0.21 -0.02,-0.05 -0.1,-0.36 -0.14,-0.54 -0.07,-0.26 -0.14,-0.52 -0.2,-0.79 l -0.45,-1.79 c -0.03,-0.15 -0.46,-0.85 -1.12,-0.85 -0.51,0 -0.62,0.44 -0.62,0.81 0,0.46 0.17,1.07 0.51,1.95 0.16,0.4 0.2,0.51 0.2,0.71 0,0.45 -0.32,0.82 -0.82,0.82 -0.94,0 -1.31,-1.44 -1.31,-1.53 0,-0.1 0.1,-0.1 0.12,-0.1 0.1,0 0.11,0.02 0.16,0.18 0.27,0.93 0.67,1.23 1,1.23 0.08,0 0.25,0 0.25,-0.32 0,-0.25 -0.1,-0.51 -0.17,-0.7 -0.39,-1.05 -0.57,-1.62 -0.57,-2.08 0,-0.89 0.62,-1.18 1.21,-1.18 0.39,0 0.73,0.16 1.01,0.44 -0.13,-0.51 -0.25,-1 -0.65,-1.53 -0.26,-0.34 -0.64,-0.62 -1.1,-0.62 -0.13,0 -0.58,0.03 -0.75,0.41 0.16,0 0.29,0 0.43,0.12 0.1,0.09 0.19,0.22 0.19,0.41 0,0.31 -0.26,0.35 -0.36,0.35 -0.23,0 -0.56,-0.16 -0.56,-0.65 0,-0.49 0.44,-0.86 1.05,-0.86 1.03,0 2.05,0.9 2.33,2.02 z"
   inkscape:connector-curvature="0"
   style="fill:#000000;stroke-width:0" />
</g>    <g
       style="font-style:normal;font-variant:normal;font-weight:normal;font-stretch:normal;letter-spacing:normal;word-spacing:normal;text-anchor:start;fill:none;stroke:#000000;stroke-linecap:butt;stroke-linejoin:miter;stroke-miterlimit:10.43299961;stroke-opacity:1;stroke-dasharray:none;stroke-dashoffset:0"
       ns0:preamble="D:\\Onderwijs\\FLUI\\Cursus\\FLUI_theorie\\tex\\commands.tex"
       ns0:text="$q$"
       word-spacing="normal"
       letter-spacing="normal"
       font-size-adjust="none"
       font-stretch="normal"
       font-weight="normal"
       font-variant="normal"
       font-style="normal"
       stroke-miterlimit="10.433"
       xml:space="preserve"
       transform="matrix(1.25,0,0,-1.25,-15.347115,1883.8326)"
       id="g3819">
<path
   id="path3821"
   d="m 227.93,711.41 0,0 0,0 0,0.01 0,0 0,0.01 0,0 -0.01,0 0,0.01 0,0 0,0.01 0,0 0,0.01 -0.01,0 0,0 0,0.01 0,0 -0.01,0 0,0.01 0,0 -0.01,0 0,0.01 -0.01,0 0,0 -0.01,0.01 0,0 -0.01,0 0,0 -0.01,0 0,0 -0.01,0.01 0,0 -0.01,0 c -0.11,0 -0.51,-0.4 -0.68,-0.69 -0.22,0.54 -0.6,0.7 -0.92,0.7 v -0.22 c 0.64,0 0.78,-0.81 0.78,-0.88 0,-0.06 -0.54,-2.23 -0.57,-2.27 -0.15,-0.28 -0.71,-0.92 -1.27,-0.92 h 0 c -0.59,0 -0.63,0.77 -0.63,0.94 0,0.48 0.28,1.56 0.45,1.98 0.31,0.73 0.83,1.15 1.24,1.15 v 0.22 c -1.18,0 -2.4,-1.47 -2.4,-2.92 0,-0.97 0.59,-1.58 1.31,-1.58 0.43,0 0.82,0.23 1.18,0.59 -0.09,-0.35 -0.42,-1.69 -0.45,-1.78 -0.08,-0.28 -0.16,-0.31 -0.72,-0.32 -0.13,0 -0.23,0 -0.23,-0.2 0,-0.01 0,-0.11 0.13,-0.11 0.32,0 0.67,0.03 1,0.03 0.34,0 0.69,-0.03 1.02,-0.03 0.05,0 0.18,0 0.18,0.2 0,0.11 -0.1,0.11 -0.26,0.11 -0.47,0 -0.47,0.07 -0.47,0.15 0,0.07 0.02,0.13 0.04,0.22 z"
   inkscape:connector-curvature="0"
   style="fill:#000000;stroke-width:0" />
</g>    <g
       style="font-style:normal;font-variant:normal;font-weight:normal;font-stretch:normal;letter-spacing:normal;word-spacing:normal;text-anchor:start;fill:none;stroke:#000000;stroke-linecap:butt;stroke-linejoin:miter;stroke-miterlimit:10.43299961;stroke-opacity:1;stroke-dasharray:none;stroke-dashoffset:0"
       ns0:preamble="D:\\Onderwijs\\FLUI\\Cursus\\FLUI_theorie\\tex\\commands.tex"
       ns0:text="$E = y + \\frac{q^2}{2gy^2}$"
       word-spacing="normal"
       letter-spacing="normal"
       font-size-adjust="none"
       font-stretch="normal"
       font-weight="normal"
       font-variant="normal"
       font-style="normal"
       stroke-miterlimit="10.433"
       xml:space="preserve"
       transform="matrix(1.25,0,0,-1.25,-26.81685,1927.0555)"
       id="g3082">
<path
   id="path3084"
   d="m 230.48,708.74 0,0.01 0,0 0,0.01 0.01,0.01 0,0.01 0.01,0.01 0,0.01 0,0.01 0.01,0.01 0,0.01 0,0 0,0.01 0.01,0 0,0.01 0,0 0,0 0,0.01 0,0 0,0 0,0.01 0,0 0.01,0 0,0.01 0,0 0,0 c 0,0.01 0,0.11 -0.12,0.11 -0.09,0 -0.11,-0.06 -0.13,-0.12 -0.65,-1.47 -1.02,-2.14 -2.72,-2.14 h -1.45 c -0.14,0 -0.16,0 -0.22,0.01 -0.1,0.02 -0.13,0.03 -0.13,0.1 0,0.03 0,0.05 0.05,0.23 l 0.68,2.71 h 0.98 c 0.85,0 0.85,-0.2 0.85,-0.45 0,-0.07 0,-0.19 -0.07,-0.49 -0.02,-0.05 -0.03,-0.08 -0.03,-0.11 0,-0.05 0.04,-0.11 0.13,-0.11 0.08,0 0.11,0.05 0.15,0.2 l 0.56,2.33 c 0,0.06 -0.05,0.11 -0.12,0.11 -0.09,0 -0.11,-0.06 -0.14,-0.18 -0.2,-0.76 -0.38,-0.99 -1.3,-0.99 h -0.93 l 0.59,2.4 c 0.09,0.34 0.1,0.38 0.54,0.38 h 1.4 c 1.22,0 1.52,-0.28 1.52,-1.1 0,-0.24 0,-0.26 -0.04,-0.53 0,-0.06 -0.01,-0.12 -0.01,-0.17 0,-0.05 0.03,-0.12 0.11,-0.12 0.11,0 0.12,0.06 0.14,0.25 l 0.2,1.71 c 0.03,0.27 -0.02,0.27 -0.26,0.27 h -5.03 c -0.2,0 -0.3,0 -0.3,-0.2 0,-0.11 0.09,-0.11 0.28,-0.11 0.37,0 0.65,0 0.65,-0.17 0,-0.04 0,-0.06 -0.05,-0.24 l -1.32,-5.26 c -0.09,-0.39 -0.11,-0.47 -0.9,-0.47 -0.17,0 -0.28,0 -0.28,-0.18 0,-0.12 0.09,-0.12 0.28,-0.12 h 5.16 c 0.23,0 0.24,0.01 0.31,0.17 z"
   inkscape:connector-curvature="0"
   style="fill:#000000;stroke-width:0" />
<path
   id="path3086"
   d="m 240.96,709.67 0.03,0.01 0.03,0 0.03,0 0.01,0 0.02,0 0.01,0 0.02,0 0.01,0 0.02,0.01 0.01,0 0.01,0 0.02,0.01 0.01,0 0.01,0 0.01,0.01 0.01,0.01 0.01,0 0.01,0.01 0.01,0.01 0.01,0.01 0.01,0.01 0,0 0.01,0.01 0,0.01 0,0 0.01,0.01 0,0 0,0.01 0,0.01 0,0.01 0.01,0 0,0.01 0,0.01 0,0.01 0,0.01 0,0 0,0.01 c 0,0.2 -0.19,0.2 -0.33,0.2 h -5.96 c -0.14,0 -0.33,0 -0.33,-0.2 0,-0.2 0.19,-0.2 0.34,-0.2 z"
   inkscape:connector-curvature="0"
   style="fill:#000000;stroke-width:0" />
<path
   id="path3088"
   d="m 240.97,707.75 0.02,0 0.01,0 0.03,0 0.02,0 0.02,0 0.01,0 0.02,0 0.01,0 0.01,0.01 0.02,0 0.01,0 0.01,0 0.02,0.01 0.01,0 0.01,0.01 0.01,0 0.01,0.01 0.01,0.01 0.01,0 0.01,0.01 0.01,0.01 0.01,0.01 0,0 0,0.01 0.01,0 0,0.01 0,0 0.01,0.01 0,0.01 0,0 0,0.01 0,0.01 0.01,0.01 0,0 0,0.01 0,0.01 0,0.01 0,0.01 0,0.01 c 0,0.2 -0.19,0.2 -0.34,0.2 h -5.94 c -0.15,0 -0.34,0 -0.34,-0.2 0,-0.2 0.19,-0.2 0.33,-0.2 z"
   inkscape:connector-curvature="0"
   style="fill:#000000;stroke-width:0" />
<path
   id="path3090"
   d="m 249.48,710.21 0,0.01 0,0 0,0.01 0.01,0.01 0,0.01 0,0.01 0,0.01 0.01,0.01 0,0.01 0,0.01 0,0 0.01,0.01 0,0.01 0,0.01 0,0 0,0.01 0,0.01 0,0 0,0.01 0.01,0 0,0.01 0,0 0,0.01 0,0.01 0,0.02 0,0.01 0,0 0,0.01 0,0 0,0.01 c 0,0.18 -0.14,0.27 -0.29,0.27 -0.1,0 -0.26,-0.06 -0.35,-0.21 -0.02,-0.05 -0.1,-0.36 -0.14,-0.54 -0.07,-0.25 -0.14,-0.52 -0.2,-0.79 l -0.44,-1.79 c -0.04,-0.15 -0.47,-0.84 -1.13,-0.84 -0.51,0 -0.62,0.43 -0.62,0.8 0,0.46 0.17,1.07 0.51,1.95 0.16,0.41 0.2,0.51 0.2,0.71 0,0.45 -0.32,0.82 -0.81,0.82 -0.95,0 -1.32,-1.44 -1.32,-1.53 0,-0.1 0.1,-0.1 0.12,-0.1 0.1,0 0.11,0.02 0.16,0.18 0.27,0.93 0.67,1.23 1.01,1.23 0.08,0 0.24,0 0.24,-0.32 0,-0.25 -0.09,-0.5 -0.16,-0.69 -0.4,-1.06 -0.58,-1.62 -0.58,-2.09 0,-0.88 0.63,-1.18 1.21,-1.18 0.39,0 0.73,0.17 1.01,0.45 -0.13,-0.52 -0.25,-1.01 -0.65,-1.54 -0.26,-0.33 -0.64,-0.62 -1.09,-0.62 -0.14,0 -0.59,0.03 -0.76,0.42 0.16,0 0.29,0 0.43,0.12 0.1,0.08 0.2,0.21 0.2,0.4 0,0.31 -0.27,0.35 -0.37,0.35 -0.23,0 -0.56,-0.16 -0.56,-0.64 0,-0.5 0.44,-0.87 1.06,-0.87 1.02,0 2.05,0.9 2.32,2.03 z"
   inkscape:connector-curvature="0"
   style="fill:#000000;stroke-width:0" />
<path
   id="path3092"
   d="m 256.17,708.71 h 2.78 c 0.13,0 0.32,0 0.32,0.2 0,0.2 -0.19,0.2 -0.32,0.2 h -2.78 v 2.78 c 0,0.14 0,0.33 -0.2,0.33 -0.2,0 -0.2,-0.19 -0.2,-0.33 v -2.78 h -2.78 c -0.14,0 -0.33,0 -0.33,-0.2 0,-0.2 0.19,-0.2 0.33,-0.2 h 2.78 v -2.78 c 0,-0.14 0,-0.33 0.2,-0.33 0.2,0 0.2,0.19 0.2,0.33 z"
   inkscape:connector-curvature="0"
   style="fill:#000000;stroke-width:0" />
<path
   id="path3094"
   d="m 271.05,713.74 0,0 0,0.01 0.01,0 0,0.01 0,0.01 0,0 0,0.01 0,0.01 0,0 0,0.01 0,0.01 0,0 0.01,0.01 0,0.01 0,0 0,0.01 c 0,0.04 -0.03,0.1 -0.09,0.1 -0.07,0 -0.37,-0.24 -0.51,-0.46 -0.07,0.14 -0.3,0.46 -0.74,0.46 v -0.2 c 0.49,0 0.62,-0.53 0.62,-0.6 0,-0.04 -0.02,-0.08 -0.02,-0.11 L 270,711.75 c -0.04,-0.12 -0.04,-0.14 -0.12,-0.25 -0.28,-0.32 -0.6,-0.5 -0.88,-0.5 -0.25,0 -0.5,0.18 -0.5,0.67 0,0.37 0.2,1.13 0.36,1.41 0.32,0.56 0.67,0.66 0.87,0.66 v 0.2 c -0.89,0 -1.8,-0.98 -1.8,-1.98 0,-0.68 0.46,-1.16 1.05,-1.16 0.4,0 0.73,0.25 0.88,0.38 -0.01,-0.02 -0.22,-0.89 -0.25,-1.01 -0.1,-0.38 -0.1,-0.39 -0.54,-0.4 -0.08,0 -0.18,0 -0.18,-0.15 0,-0.04 0.04,-0.1 0.11,-0.1 0.23,0 0.48,0.03 0.72,0.03 0.24,0 0.53,-0.03 0.75,-0.03 0.06,0 0.14,0.02 0.14,0.15 0,0.1 -0.1,0.1 -0.19,0.1 -0.15,0 -0.34,0 -0.34,0.09 0,0.02 0,0.03 0.04,0.15 z"
   inkscape:connector-curvature="0"
   style="fill:#000000;stroke-width:0" />
<path
   id="path3096"
   d="m 274.34,714.84 h -0.21 c -0.02,-0.1 -0.07,-0.41 -0.15,-0.45 -0.03,-0.04 -0.45,-0.04 -0.53,-0.04 h -0.97 c 0.33,0.25 0.69,0.53 0.99,0.73 0.45,0.3 0.87,0.59 0.87,1.12 0,0.63 -0.6,0.99 -1.32,0.99 -0.67,0 -1.16,-0.39 -1.16,-0.88 0,-0.26 0.22,-0.3 0.29,-0.3 0.13,0 0.29,0.09 0.29,0.29 0,0.18 -0.13,0.28 -0.28,0.29 0.14,0.23 0.43,0.38 0.76,0.38 0.48,0 0.89,-0.29 0.89,-0.78 0,-0.41 -0.29,-0.73 -0.68,-1.05 l -1.21,-1.03 c -0.05,-0.05 -0.05,-0.05 -0.06,-0.08 v -0.15 h 2.31 z"
   inkscape:connector-curvature="0"
   style="fill:#000000;stroke-width:0" />
<line
   id="line3098"
   y2="708.91998"
   x2="279.54999"
   y1="708.91998"
   x1="263.26001"
   style="stroke-width:0.398" />
<path
   id="path3100"
   d="m 266.77,704.26 h -0.23 c -0.02,-0.16 -0.09,-0.57 -0.18,-0.64 -0.06,-0.04 -0.59,-0.04 -0.69,-0.04 h -1.28 c 0.73,0.65 0.97,0.84 1.39,1.17 0.51,0.41 0.99,0.84 0.99,1.5 0,0.84 -0.73,1.36 -1.63,1.36 -0.86,0 -1.44,-0.61 -1.44,-1.25 0,-0.35 0.3,-0.39 0.37,-0.39 0.16,0 0.36,0.12 0.36,0.37 0,0.13 -0.04,0.37 -0.41,0.37 0.22,0.5 0.69,0.65 1.02,0.65 0.7,0 1.06,-0.54 1.06,-1.11 0,-0.6 -0.43,-1.08 -0.65,-1.33 l -1.68,-1.66 c -0.07,-0.06 -0.07,-0.07 -0.07,-0.27 h 2.87 z"
   inkscape:connector-curvature="0"
   style="fill:#000000;stroke-width:0" />
<path
   id="path3102"
   d="m 270.93,705.56 0.01,0.01 0,0.01 0,0 0,0.01 0.01,0.01 0,0.01 0,0.01 0,0 0,0.01 0,0.01 0,0 0.01,0.01 0,0 0,0.01 0,0 0,0.01 0,0 0,0 0,0.01 0,0 0,0 0,0.01 0,0 0,0 0,0 0,0.01 0,0 0,0 0,0 0,0 0,0 0,0 c 0,0.16 -0.12,0.23 -0.23,0.23 -0.16,0 -0.3,-0.14 -0.33,-0.27 -0.11,0.19 -0.35,0.4 -0.71,0.4 v -0.2 c 0.48,0 0.62,-0.52 0.62,-0.59 0,-0.01 0,-0.03 -0.02,-0.1 l -0.32,-1.25 c -0.02,-0.11 -0.02,-0.12 -0.14,-0.26 -0.25,-0.29 -0.58,-0.47 -0.85,-0.47 -0.35,0 -0.52,0.29 -0.52,0.66 0,0.3 0.19,1.08 0.37,1.39 0.29,0.48 0.62,0.62 0.86,0.62 v 0.2 c -0.87,0 -1.79,-0.93 -1.79,-1.93 0,-0.72 0.49,-1.14 1.06,-1.14 0.32,0 0.63,0.16 0.87,0.38 l -0.15,-0.63 c -0.08,-0.29 -0.13,-0.48 -0.39,-0.72 -0.31,-0.25 -0.61,-0.25 -0.78,-0.25 -0.32,0 -0.41,0.02 -0.54,0.05 0.18,0.08 0.23,0.25 0.23,0.34 0,0.17 -0.13,0.26 -0.28,0.26 -0.19,0 -0.39,-0.16 -0.39,-0.42 0,-0.42 0.6,-0.43 0.99,-0.43 1.09,0 1.56,0.56 1.65,0.96 z"
   inkscape:connector-curvature="0"
   style="fill:#000000;stroke-width:0" />
<path
   id="path3104"
   d="m 275.24,705.61 0,0.01 0,0 0,0.01 0,0 0.01,0 0,0.01 0,0.01 0,0 0,0.01 0,0.01 0.01,0 0,0.01 0,0 0,0.01 0,0 0,0.01 0,0 0,0.01 0,0 0,0 0,0.01 0.01,0 0,0 0,0.01 0,0.01 0,0 0,0.01 0,0 0,0.01 0,0 0,0.01 c 0,0.14 -0.12,0.22 -0.23,0.22 -0.08,0 -0.21,-0.04 -0.29,-0.17 -0.02,-0.04 -0.08,-0.26 -0.11,-0.4 l -0.15,-0.58 c -0.04,-0.17 -0.25,-1.04 -0.28,-1.12 0,0 -0.31,-0.6 -0.85,-0.6 -0.47,0 -0.47,0.45 -0.47,0.57 0,0.38 0.16,0.82 0.36,1.35 0.09,0.23 0.12,0.31 0.12,0.43 0,0.33 -0.28,0.59 -0.66,0.59 -0.7,0 -1.02,-0.95 -1.02,-1.07 0,-0.09 0.1,-0.09 0.12,-0.09 0.1,0 0.11,0.04 0.13,0.12 0.17,0.57 0.47,0.84 0.75,0.84 0.12,0 0.17,-0.07 0.17,-0.24 0,-0.16 -0.06,-0.31 -0.09,-0.4 -0.34,-0.85 -0.41,-1.11 -0.41,-1.42 0,-0.11 0,-0.44 0.27,-0.66 0.22,-0.18 0.51,-0.22 0.7,-0.22 0.28,0 0.53,0.11 0.76,0.31 -0.09,-0.38 -0.17,-0.67 -0.46,-1.02 -0.19,-0.21 -0.47,-0.44 -0.84,-0.44 -0.05,0 -0.37,0 -0.52,0.23 0.38,0.04 0.38,0.37 0.38,0.38 0,0.22 -0.2,0.26 -0.27,0.26 -0.18,0 -0.41,-0.14 -0.41,-0.46 0,-0.35 0.34,-0.61 0.83,-0.61 0.71,0 1.56,0.54 1.78,1.41 z"
   inkscape:connector-curvature="0"
   style="fill:#000000;stroke-width:0" />
<path
   id="path3106"
   d="m 278.59,705.94 h -0.21 c -0.02,-0.09 -0.07,-0.4 -0.15,-0.45 -0.04,-0.03 -0.45,-0.03 -0.53,-0.03 h -0.97 c 0.32,0.24 0.69,0.52 0.99,0.72 0.45,0.31 0.87,0.6 0.87,1.12 0,0.64 -0.61,0.99 -1.32,0.99 -0.67,0 -1.16,-0.38 -1.16,-0.87 0,-0.26 0.22,-0.31 0.29,-0.31 0.13,0 0.29,0.09 0.29,0.3 0,0.18 -0.13,0.28 -0.28,0.29 0.14,0.22 0.43,0.37 0.76,0.37 0.48,0 0.88,-0.29 0.88,-0.77 0,-0.42 -0.28,-0.74 -0.67,-1.06 l -1.21,-1.03 c -0.05,-0.04 -0.06,-0.04 -0.06,-0.08 v -0.15 h 2.31 z"
   inkscape:connector-curvature="0"
   style="fill:#000000;stroke-width:0" />
</g>  </g>
  <g
     inkscape:groupmode="layer"
     id="layer2"
     inkscape:label="curve2"
     style="display:inline">
    <path
       transform="translate(0,-829.1339)"
       style="fill:none;stroke:#000000;stroke-width:1.77165353;stroke-linecap:butt;stroke-linejoin:miter;stroke-miterlimit:4;stroke-opacity:1;stroke-dasharray:none"
       d="m 314.94385,977.5555 c 0,0 -12.10992,-1.1601 -29.1511,-4.48478 -17.39285,-3.3933 -35.19441,-6.13348 -51.57501,-12.89377 -11.46439,-4.73136 -23.09375,-10.38207 -31.95409,-19.06033 -5.03771,-4.93417 -9.53642,-11.08953 -11.21196,-17.93913 -1.69252,-6.919 -0.10369,-14.40713 1.68179,-21.30273 2.93456,-11.33336 8.88109,-21.72521 14.57555,-31.95409 5.89897,-10.59625 13.04221,-20.46879 20.18153,-30.27229 8.84772,-12.14941 28.02991,-35.31768 28.02991,-35.31768"
       id="path6065"
       inkscape:connector-curvature="0"
       sodipodi:nodetypes="csssssssc" />
    <g
       id="g3381"
       transform="matrix(1.25,0,0,-1.25,-1.6469761,1018.285)"
       xml:space="preserve"
       stroke-miterlimit="10.433"
       font-style="normal"
       font-variant="normal"
       font-weight="normal"
       font-stretch="normal"
       font-size-adjust="none"
       letter-spacing="normal"
       word-spacing="normal"
       ns0:text="$q\'&gt;q$"
       ns0:preamble="D:\\Onderwijs\\FLUI\\Cursus\\FLUI_theorie\\tex\\commands.tex"
       style="font-style:normal;font-variant:normal;font-weight:normal;font-stretch:normal;letter-spacing:normal;word-spacing:normal;text-anchor:start;fill:none;stroke:#000000;stroke-linecap:butt;stroke-linejoin:miter;stroke-miterlimit:10.43299961;stroke-opacity:1;stroke-dasharray:none;stroke-dashoffset:0">
<path
   style="fill:#000000;stroke-width:0"
   inkscape:connector-curvature="0"
   d="m 227.93,711.41 0,0 0,0 0,0.01 0,0 0,0.01 0,0 -0.01,0 0,0.01 0,0 0,0.01 0,0 0,0.01 -0.01,0 0,0 0,0.01 0,0 -0.01,0 0,0.01 0,0 -0.01,0 0,0.01 -0.01,0 0,0 -0.01,0.01 0,0 -0.01,0 0,0 -0.01,0 0,0 -0.01,0.01 0,0 -0.01,0 c -0.11,0 -0.51,-0.4 -0.68,-0.69 -0.22,0.54 -0.6,0.7 -0.92,0.7 v -0.22 c 0.64,0 0.78,-0.81 0.78,-0.88 0,-0.06 -0.54,-2.23 -0.57,-2.27 -0.15,-0.28 -0.71,-0.92 -1.27,-0.92 h 0 c -0.59,0 -0.63,0.77 -0.63,0.94 0,0.48 0.28,1.56 0.45,1.98 0.31,0.73 0.83,1.15 1.24,1.15 v 0.22 c -1.18,0 -2.4,-1.47 -2.4,-2.92 0,-0.97 0.59,-1.58 1.31,-1.58 0.43,0 0.82,0.23 1.18,0.59 -0.09,-0.35 -0.42,-1.69 -0.45,-1.78 -0.08,-0.28 -0.16,-0.31 -0.72,-0.32 -0.13,0 -0.23,0 -0.23,-0.2 0,-0.01 0,-0.11 0.13,-0.11 0.32,0 0.67,0.03 1,0.03 0.34,0 0.69,-0.03 1.02,-0.03 0.05,0 0.18,0 0.18,0.2 0,0.11 -0.1,0.11 -0.26,0.11 -0.47,0 -0.47,0.07 -0.47,0.15 0,0.07 0.02,0.13 0.04,0.22 z"
   id="path3383" />
<path
   style="fill:#000000;stroke-width:0"
   inkscape:connector-curvature="0"
   d="m 230.26,714.02 0,0.01 0.01,0.01 0,0.01 0.01,0.01 0,0.01 0,0.01 0.01,0.01 0,0.01 0,0.01 0.01,0.01 0,0 0,0.01 0,0.01 0.01,0.01 0,0 0,0.01 0,0.01 0,0 0,0.01 0,0 0,0.01 0.01,0.01 0,0 0,0.01 0,0.01 0,0.01 0,0.01 0,0 c 0,0.22 -0.2,0.39 -0.41,0.39 -0.27,0 -0.35,-0.22 -0.39,-0.33 l -0.91,-3.01 c -0.01,-0.01 -0.04,-0.11 -0.04,-0.11 0,-0.09 0.22,-0.15 0.27,-0.15 0.05,0 0.06,0.01 0.11,0.11 z"
   id="path3385" />
<path
   style="fill:#000000;stroke-width:0"
   inkscape:connector-curvature="0"
   d="m 240.51,709.39 0.03,0.01 0.01,0.01 0.01,0 0.01,0.01 0.01,0 0.01,0.01 0.01,0 0.01,0.01 0.01,0 0,0.01 0.01,0.01 0.01,0 0,0.01 0.01,0 0.01,0.01 0,0.01 0.01,0 0,0.01 0.01,0.01 0,0 0.01,0.01 0,0.01 0,0.01 0.01,0.01 0,0.01 0,0.01 0,0.01 0,0.01 0,0.01 0,0.01 c 0,0.12 -0.08,0.17 -0.19,0.22 l -5.51,2.59 c -0.13,0.07 -0.15,0.07 -0.18,0.07 -0.11,0 -0.19,-0.09 -0.19,-0.2 0,-0.09 0.05,-0.15 0.18,-0.22 l 5.23,-2.46 -5.23,-2.46 c -0.13,-0.07 -0.18,-0.13 -0.18,-0.22 0,-0.11 0.08,-0.2 0.19,-0.2 0.03,0 0.05,0 0.18,0.07 z"
   id="path3387" />
<path
   style="fill:#000000;stroke-width:0"
   inkscape:connector-curvature="0"
   d="m 248.82,711.41 -0.01,0 0,0 0,0.01 0,0 0,0.01 0,0 0,0 0,0.01 0,0 0,0.01 -0.01,0 0,0.01 0,0 0,0 -0.01,0.01 0,0 0,0 -0.01,0.01 0,0 0,0 -0.01,0.01 0,0 -0.01,0 0,0.01 0,0 -0.01,0 -0.01,0 0,0 -0.01,0 0,0.01 -0.01,0 -0.01,0 c -0.1,0 -0.5,-0.4 -0.67,-0.69 -0.22,0.54 -0.61,0.7 -0.93,0.7 v -0.22 c 0.65,0 0.79,-0.81 0.79,-0.88 0,-0.06 -0.55,-2.23 -0.58,-2.27 -0.15,-0.28 -0.7,-0.92 -1.26,-0.92 h 0 c -0.6,0 -0.64,0.77 -0.64,0.94 0,0.48 0.29,1.56 0.46,1.98 0.31,0.73 0.83,1.15 1.23,1.15 v 0.22 c -1.17,0 -2.4,-1.47 -2.4,-2.92 0,-0.97 0.59,-1.58 1.32,-1.58 0.43,0 0.82,0.23 1.17,0.59 -0.09,-0.35 -0.41,-1.69 -0.44,-1.78 -0.08,-0.28 -0.16,-0.31 -0.72,-0.32 -0.13,0 -0.23,0 -0.23,-0.2 0,-0.01 0,-0.11 0.13,-0.11 0.32,0 0.67,0.03 0.99,0.03 0.34,0 0.7,-0.03 1.03,-0.03 0.05,0 0.18,0 0.18,0.2 0,0.11 -0.1,0.11 -0.26,0.11 -0.48,0 -0.48,0.07 -0.48,0.15 0,0.07 0.02,0.13 0.04,0.22 z"
   id="path3389" />
</g>  </g>
  <g
     inkscape:groupmode="layer"
     id="layer3"
     inkscape:label="kritisch punt"
     style="display:inline">
    <path
       transform="translate(0,-829.1339)"
       style="fill:none;stroke:#000000;stroke-width:0.70866144;stroke-linecap:butt;stroke-linejoin:miter;stroke-miterlimit:4;stroke-opacity:1;stroke-dasharray:1.41732282, 1.41732282;stroke-dashoffset:0"
       d="m 18.007642,962.05345 104.722498,0"
       id="path6111"
       inkscape:connector-curvature="0" />
    <path
       transform="translate(0,-829.1339)"
       inkscape:connector-curvature="0"
       id="path6113"
       d="m 123.01627,1027.559 0,-65.34837"
       style="fill:none;stroke:#000000;stroke-width:0.7086615;stroke-linecap:butt;stroke-linejoin:miter;stroke-miterlimit:4;stroke-opacity:1;stroke-dasharray:1.41732287, 1.41732287;stroke-dashoffset:0" />
    <g
       id="content"
       transform="matrix(1.25,0,0,-1.25,-273.76295,1018.4531)"
       xml:space="preserve"
       stroke-miterlimit="10.433"
       font-style="normal"
       font-variant="normal"
       font-weight="normal"
       font-stretch="normal"
       font-size-adjust="none"
       letter-spacing="normal"
       word-spacing="normal"
       ns0:text="$y_c$"
       ns0:preamble="D:\\Onderwijs\\FLUI\\Cursus\\FLUI_theorie\\tex\\commands.tex"
       style="font-style:normal;font-variant:normal;font-weight:normal;font-stretch:normal;letter-spacing:normal;word-spacing:normal;text-anchor:start;fill:none;stroke:#000000;stroke-linecap:butt;stroke-linejoin:miter;stroke-miterlimit:10.43299961;stroke-opacity:1;stroke-dasharray:none;stroke-dashoffset:0">
<path
   style="fill:#000000;stroke-width:0"
   inkscape:connector-curvature="0"
   d="m 228.27,710.91 0,0.01 0,0 0,0.01 0,0 0.01,0.02 0,0.01 0,0.01 0.01,0.01 0,0.01 0,0 0,0.01 0,0.01 0.01,0.01 0,0.01 0,0 0,0.01 0,0 0,0.01 0,0.01 0,0 0,0.01 0,0 0.01,0.01 0,0.01 0,0.01 0,0.01 0,0.01 0,0.01 0,0 0,0.01 c 0,0.18 -0.14,0.27 -0.29,0.27 -0.1,0 -0.26,-0.06 -0.35,-0.21 -0.02,-0.05 -0.1,-0.36 -0.14,-0.54 -0.07,-0.26 -0.14,-0.52 -0.2,-0.79 l -0.45,-1.79 c -0.03,-0.15 -0.46,-0.85 -1.12,-0.85 -0.51,0 -0.62,0.44 -0.62,0.81 0,0.46 0.17,1.07 0.51,1.95 0.16,0.4 0.2,0.51 0.2,0.71 0,0.45 -0.32,0.82 -0.82,0.82 -0.94,0 -1.31,-1.44 -1.31,-1.53 0,-0.1 0.1,-0.1 0.12,-0.1 0.1,0 0.11,0.02 0.16,0.18 0.27,0.93 0.67,1.23 1,1.23 0.08,0 0.25,0 0.25,-0.32 0,-0.25 -0.1,-0.51 -0.17,-0.7 -0.39,-1.05 -0.57,-1.62 -0.57,-2.08 0,-0.89 0.62,-1.18 1.21,-1.18 0.39,0 0.73,0.16 1.01,0.44 -0.13,-0.51 -0.25,-1 -0.65,-1.53 -0.26,-0.34 -0.64,-0.62 -1.1,-0.62 -0.13,0 -0.58,0.03 -0.75,0.41 0.16,0 0.29,0 0.43,0.12 0.1,0.09 0.19,0.22 0.19,0.41 0,0.31 -0.26,0.35 -0.36,0.35 -0.23,0 -0.56,-0.16 -0.56,-0.65 0,-0.49 0.44,-0.86 1.05,-0.86 1.03,0 2.05,0.9 2.33,2.02 z"
   id="path3119" />
<path
   style="fill:#000000;stroke-width:0"
   inkscape:connector-curvature="0"
   d="m 231.37,708.29 -0.03,0 -0.02,-0.01 -0.02,0 -0.02,-0.01 -0.02,-0.01 -0.02,0 -0.02,-0.01 -0.01,-0.01 -0.02,-0.01 -0.02,-0.01 -0.01,-0.01 -0.02,-0.02 -0.01,-0.01 -0.01,-0.01 -0.01,-0.01 -0.01,-0.02 -0.01,-0.01 -0.01,-0.02 -0.01,-0.01 -0.01,-0.02 -0.01,-0.01 -0.01,-0.02 0,-0.01 -0.01,-0.02 0,-0.01 -0.01,-0.02 0,-0.01 0,-0.02 -0.01,-0.01 0,-0.02 0,-0.01 0,-0.01 c 0,-0.19 0.15,-0.26 0.27,-0.26 0.16,0 0.4,0.11 0.4,0.44 0,0.48 -0.54,0.61 -0.92,0.61 -1.04,0 -2.01,-0.96 -2.01,-1.93 0,-0.6 0.42,-1.21 1.29,-1.21 1.17,0 1.72,0.69 1.72,0.79 0,0.04 -0.06,0.12 -0.11,0.12 -0.05,0 -0.06,-0.02 -0.11,-0.07 -0.55,-0.64 -1.36,-0.64 -1.49,-0.64 -0.5,0 -0.72,0.34 -0.72,0.77 0,0.2 0.09,0.96 0.46,1.44 0.26,0.34 0.62,0.53 0.97,0.53 0.1,0 0.43,-0.01 0.61,-0.21 z"
   id="path3121" />
</g>    <g
       style="font-style:normal;font-variant:normal;font-weight:normal;font-stretch:normal;letter-spacing:normal;word-spacing:normal;text-anchor:start;fill:none;stroke:#000000;stroke-linecap:butt;stroke-linejoin:miter;stroke-miterlimit:10.43299961;stroke-opacity:1;stroke-dasharray:none;stroke-dashoffset:0"
       ns0:preamble="D:\\Onderwijs\\FLUI\\Cursus\\FLUI_theorie\\tex\\commands.tex"
       ns0:text="$E_c$"
       word-spacing="normal"
       letter-spacing="normal"
       font-size-adjust="none"
       font-stretch="normal"
       font-weight="normal"
       font-variant="normal"
       font-style="normal"
       stroke-miterlimit="10.433"
       xml:space="preserve"
       transform="matrix(1.25,0,0,-1.25,-163.98087,1093.8102)"
       id="g3229">
<path
   id="path3231"
   d="m 230.48,709.44 0,0 0,0.01 0,0.01 0.01,0.01 0,0.01 0.01,0.01 0,0.01 0,0.01 0.01,0.01 0,0.01 0,0 0,0 0.01,0.01 0,0 0,0.01 0,0 0,0.01 0,0 0,0 0,0.01 0,0 0.01,0 0,0 0,0.01 0,0 c 0,0.01 0,0.11 -0.12,0.11 -0.09,0 -0.11,-0.06 -0.13,-0.12 -0.65,-1.47 -1.02,-2.14 -2.72,-2.14 h -1.45 c -0.14,0 -0.16,0 -0.22,0.01 -0.1,0.01 -0.13,0.02 -0.13,0.1 0,0.03 0,0.05 0.05,0.23 l 0.68,2.71 h 0.98 c 0.85,0 0.85,-0.21 0.85,-0.45 0,-0.07 0,-0.19 -0.07,-0.49 -0.02,-0.05 -0.03,-0.08 -0.03,-0.11 0,-0.05 0.04,-0.11 0.13,-0.11 0.08,0 0.11,0.05 0.15,0.2 l 0.56,2.32 c 0,0.06 -0.05,0.11 -0.12,0.11 -0.09,0 -0.11,-0.06 -0.14,-0.18 -0.2,-0.75 -0.38,-0.98 -1.3,-0.98 h -0.93 l 0.59,2.39 c 0.09,0.35 0.1,0.39 0.54,0.39 h 1.4 c 1.22,0 1.52,-0.29 1.52,-1.1 0,-0.24 0,-0.26 -0.04,-0.53 0,-0.06 -0.01,-0.13 -0.01,-0.18 0,-0.05 0.03,-0.11 0.11,-0.11 0.11,0 0.12,0.06 0.14,0.24 l 0.2,1.72 c 0.03,0.27 -0.02,0.27 -0.26,0.27 h -5.03 c -0.2,0 -0.3,0 -0.3,-0.2 0,-0.11 0.09,-0.11 0.28,-0.11 0.37,0 0.65,0 0.65,-0.18 0,-0.04 0,-0.06 -0.05,-0.23 l -1.32,-5.26 c -0.09,-0.39 -0.11,-0.47 -0.9,-0.47 -0.17,0 -0.28,0 -0.28,-0.19 0,-0.11 0.09,-0.11 0.28,-0.11 h 5.16 c 0.23,0 0.24,0.01 0.31,0.16 z"
   inkscape:connector-curvature="0"
   style="fill:#000000;stroke-width:0" />
<path
   id="path3233"
   d="m 233.84,708.29 -0.03,0 -0.02,-0.01 -0.02,0 -0.02,-0.01 -0.02,-0.01 -0.02,0 -0.02,-0.01 -0.01,-0.01 -0.02,-0.01 -0.02,-0.01 -0.01,-0.01 -0.02,-0.02 -0.01,-0.01 -0.01,-0.01 -0.01,-0.01 -0.02,-0.02 -0.01,-0.01 -0.01,-0.02 0,-0.01 -0.01,-0.02 -0.01,-0.01 -0.01,-0.02 0,-0.01 -0.01,-0.02 0,-0.01 -0.01,-0.02 0,-0.01 0,-0.02 -0.01,-0.01 0,-0.02 0,-0.01 0,-0.01 c 0,-0.19 0.15,-0.26 0.27,-0.26 0.16,0 0.4,0.11 0.4,0.44 0,0.48 -0.54,0.61 -0.92,0.61 -1.04,0 -2.01,-0.96 -2.01,-1.93 0,-0.6 0.42,-1.21 1.29,-1.21 1.17,0 1.72,0.69 1.72,0.79 0,0.04 -0.06,0.12 -0.11,0.12 -0.05,0 -0.06,-0.02 -0.12,-0.07 -0.54,-0.64 -1.35,-0.64 -1.48,-0.64 -0.5,0 -0.72,0.34 -0.72,0.77 0,0.2 0.09,0.96 0.46,1.44 0.26,0.34 0.62,0.53 0.97,0.53 0.1,0 0.43,-0.01 0.61,-0.21 z"
   inkscape:connector-curvature="0"
   style="fill:#000000;stroke-width:0" />
</g>    <path
       transform="matrix(0.64468776,0,0,0.64468776,-19.330262,-84.40566)"
       d="m 223.24372,337.29422 a 1.767767,1.767767 0 1 1 -3.53553,0 1.767767,1.767767 0 1 1 3.53553,0 z"
       sodipodi:ry="1.767767"
       sodipodi:rx="1.767767"
       sodipodi:cy="337.29422"
       sodipodi:cx="221.47595"
       id="path6115"
       style="opacity:0.98000004;fill:#000000;fill-opacity:1;fill-rule:evenodd;stroke:none;display:none"
       sodipodi:type="arc" />
  </g>
  <g
     inkscape:groupmode="layer"
     id="layer4"
     inkscape:label="stromingstypes"
     style="display:inline">
    <path
       transform="translate(0,-829.1339)"
       style="fill:none;stroke:#000000;stroke-width:0.70866144;stroke-linecap:butt;stroke-linejoin:miter;stroke-miterlimit:4;stroke-opacity:1;stroke-dasharray:1.41732282, 1.41732282;stroke-dashoffset:0"
       d="m 170.66711,1027.559 0,-144.75868"
       id="path6061"
       inkscape:connector-curvature="0" />
    <path
       transform="translate(0,-829.1339)"
       inkscape:connector-curvature="0"
       id="path6107"
       d="m 18.007642,995.35127 151.866708,0"
       style="fill:none;stroke:#000000;stroke-width:0.70866144;stroke-linecap:butt;stroke-linejoin:miter;stroke-miterlimit:4;stroke-opacity:1;stroke-dasharray:1.41732282, 1.41732282;stroke-dashoffset:0" />
    <path
       transform="translate(0,-829.1339)"
       style="fill:none;stroke:#000000;stroke-width:0.70866144;stroke-linecap:butt;stroke-linejoin:miter;stroke-miterlimit:4;stroke-opacity:1;stroke-dasharray:1.41732282, 1.41732282;stroke-dashoffset:0"
       d="m 18.007642,882.88129 151.866708,0"
       id="path6109"
       inkscape:connector-curvature="0" />
    <path
       sodipodi:type="arc"
       style="opacity:0.98000004;fill:#000000;fill-opacity:1;fill-rule:evenodd;stroke:none;display:none"
       id="path6095"
       sodipodi:cx="221.47595"
       sodipodi:cy="337.29422"
       sodipodi:rx="1.767767"
       sodipodi:ry="1.767767"
       d="m 223.24372,337.29422 a 1.767767,1.767767 0 1 1 -3.53553,0 1.767767,1.767767 0 1 1 3.53553,0 z"
       transform="matrix(0.64468776,0,0,0.64468776,27.865087,-163.73029)" />
    <path
       transform="matrix(0.64468776,0,0,0.64468776,27.865087,-51.35013)"
       d="m 223.24372,337.29422 a 1.767767,1.767767 0 1 1 -3.53553,0 1.767767,1.767767 0 1 1 3.53553,0 z"
       sodipodi:ry="1.767767"
       sodipodi:rx="1.767767"
       sodipodi:cy="337.29422"
       sodipodi:cx="221.47595"
       id="path6097"
       style="opacity:0.98000004;fill:#000000;fill-opacity:1;fill-rule:evenodd;stroke:none;display:none"
       sodipodi:type="arc" />
    <g
       id="g3169"
       transform="matrix(1.25,0,0,-1.25,-106.03238,941.2714)"
       xml:space="preserve"
       stroke="black"
       stroke-linecap="butt"
       stroke-linejoin="miter"
       stroke-miterlimit="10.433"
       stroke-dasharray="none"
       stroke-dashoffset="0"
       stroke-opacity="1"
       fill="none"
       fill-rule="evenodd"
       fill-opacity="1"
       font-style="normal"
       font-variant="normal"
       font-weight="normal"
       font-stretch="normal"
       font-size-adjust="none"
       letter-spacing="normal"
       word-spacing="normal"
       text-anchor="start"
       ns0:text="$y_\\mathrm{sub}$"
       ns0:preamble=""
       style="font-style:normal;font-variant:normal;font-weight:normal;font-stretch:normal;letter-spacing:normal;word-spacing:normal;text-anchor:start;fill:none;stroke:#000000;stroke-linecap:butt;stroke-linejoin:miter;stroke-miterlimit:10.43299961;stroke-opacity:1;stroke-dasharray:none;stroke-dashoffset:0">
<path
   d="M228.27,710.91 L228.27,710.92 L228.27,710.92 L228.27,710.93 L228.27,710.93 L228.28,710.95 L228.28,710.96 L228.28,710.97 L228.29,710.98 L228.29,710.99 L228.29,710.99 L228.29,711 L228.29,711.01 L228.3,711.02 L228.3,711.03 L228.3,711.03 L228.3,711.04 L228.3,711.04 L228.3,711.05 L228.3,711.06 L228.3,711.06 L228.3,711.07 L228.3,711.07 L228.31,711.08 L228.31,711.09 L228.31,711.1 L228.31,711.11 L228.31,711.12 L228.31,711.13 L228.31,711.13 L228.31,711.14 C228.31,711.32,228.17,711.41,228.02,711.41 C227.92,711.41,227.76,711.35,227.67,711.2 C227.65,711.15,227.57,710.84,227.53,710.66 C227.46,710.4,227.39,710.14,227.33,709.87 L226.88,708.08 C226.85,707.93,226.42,707.23,225.76,707.23 C225.25,707.23,225.14,707.67,225.14,708.04 C225.14,708.5,225.31,709.11,225.65,709.99 C225.81,710.39,225.85,710.5,225.85,710.7 C225.85,711.15,225.53,711.52,225.03,711.52 C224.09,711.52,223.72,710.08,223.72,709.99 C223.72,709.89,223.82,709.89,223.84,709.89 C223.94,709.89,223.95,709.91,224,710.07 C224.27,711,224.67,711.3,225,711.3 C225.08,711.3,225.25,711.3,225.25,710.98 C225.25,710.73,225.15,710.47,225.08,710.28 C224.69,709.23,224.51,708.66,224.51,708.2 C224.51,707.31,225.13,707.02,225.72,707.02 C226.11,707.02,226.45,707.18,226.73,707.46 C226.6,706.95,226.48,706.46,226.08,705.93 C225.82,705.59,225.44,705.31,224.98,705.31 C224.85,705.31,224.4,705.34,224.23,705.72 C224.39,705.72,224.52,705.72,224.66,705.84 C224.76,705.93,224.85,706.06,224.85,706.25 C224.85,706.56,224.59,706.6,224.49,706.6 C224.26,706.6,223.93,706.44,223.93,705.95 C223.93,705.46,224.37,705.09,224.98,705.09 C226.01,705.09,227.03,705.99,227.31,707.11 Z "
   stroke-width="0"
   fill="black"
   id="path3171" />
<path
   d="M230.96,708.55 L230.96,708.56 L230.96,708.57 L230.96,708.58 L230.96,708.59 L230.96,708.6 L230.96,708.61 L230.96,708.62 L230.96,708.63 L230.95,708.64 L230.95,708.65 L230.95,708.65 L230.95,708.66 L230.95,708.67 L230.95,708.67 L230.95,708.68 L230.94,708.69 L230.94,708.69 L230.94,708.7 L230.94,708.7 L230.93,708.71 L230.93,708.71 L230.93,708.71 L230.92,708.72 L230.92,708.72 L230.91,708.72 L230.9,708.73 L230.9,708.73 L230.89,708.73 L230.89,708.73 L230.89,708.73 L230.88,708.73 L230.88,708.73 L230.88,708.73 L230.87,708.73 L230.87,708.73 L230.86,708.73 L230.86,708.73 C230.82,708.73,230.81,708.73,230.72,708.65 C230.71,708.64,230.64,708.58,230.59,708.54 C230.38,708.69,230.12,708.73,229.86,708.73 C228.87,708.73,228.63,708.21,228.63,707.86 C228.63,707.64,228.73,707.46,228.9,707.32 C229.16,707.09,229.42,707.04,229.86,706.97 C230.2,706.91,230.77,706.81,230.77,706.35 C230.77,706.08,230.58,705.76,229.91,705.76 C229.24,705.76,229,706.19,228.87,706.67 C228.85,706.76,228.85,706.78,228.75,706.78 C228.63,706.78,228.63,706.74,228.63,706.6 V705.74 C228.63,705.62,228.63,705.56,228.73,705.56 C228.79,705.56,228.92,705.71,229.06,705.86 C229.37,705.58,229.74,705.56,229.91,705.56 C230.82,705.56,231.15,706.05,231.15,706.54 C231.15,706.81,231.03,707.02,230.85,707.18 C230.59,707.42,230.27,707.48,230.02,707.52 C229.47,707.62,229.01,707.7,229.01,708.07 C229.01,708.29,229.2,708.57,229.86,708.57 C230.67,708.57,230.71,708,230.72,707.8 C230.73,707.72,230.81,707.72,230.84,707.72 C230.96,707.72,230.96,707.77,230.96,707.91 Z "
   stroke-width="0"
   fill="black"
   id="path3173" />
<path
   d="M233.99,708.62 V708.37 C234.45,708.37,234.51,708.32,234.51,707.98 V706.79 C234.51,706.18,234.11,705.76,233.58,705.76 C232.95,705.76,232.92,706.05,232.92,706.41 V708.7 L231.85,708.62 V708.37 C232.37,708.37,232.37,708.35,232.37,707.73 V706.69 C232.37,706.21,232.37,705.56,233.54,705.56 C233.69,705.56,234.2,705.56,234.53,706.15 H234.54 V705.56 L235.58,705.63 V705.88 C235.12,705.88,235.06,705.93,235.06,706.27 V708.7 Z "
   stroke-width="0"
   fill="black"
   id="path3175" />
<path
   d="M237.26,710.46 L236.21,710.38 V710.13 C236.69,710.13,236.74,710.07,236.74,709.73 V705.63 H236.97 L237.22,706.05 C237.48,705.71,237.87,705.56,238.24,705.56 L238.2,705.76 C237.64,705.76,237.36,706.19,237.29,706.34 V707.96 C237.48,708.28,237.86,708.5,238.28,708.5 C238.67,708.5,238.95,708.28,239.08,708.07 C239.22,707.87,239.31,707.6,239.31,707.14 C239.31,706.98,239.31,706.46,239.02,706.13 C238.74,705.82,238.4,705.76,238.2,705.76 L238.24,705.56 C239.15,705.56,239.94,706.25,239.94,707.13 C239.94,707.98,239.22,708.7,238.31,708.7 C237.89,708.7,237.51,708.53,237.26,708.28 Z "
   stroke-width="0"
   fill="black"
   id="path3177" />
</g>    <g
       style="font-style:normal;font-variant:normal;font-weight:normal;font-stretch:normal;letter-spacing:normal;word-spacing:normal;text-anchor:start;fill:none;stroke:#000000;stroke-linecap:butt;stroke-linejoin:miter;stroke-miterlimit:10.43299961;stroke-opacity:1;stroke-dasharray:none;stroke-dashoffset:0"
       ns0:preamble=""
       ns0:text="$y_\\mathrm{sup}$"
       text-anchor="start"
       word-spacing="normal"
       letter-spacing="normal"
       font-size-adjust="none"
       font-stretch="normal"
       font-weight="normal"
       font-variant="normal"
       font-style="normal"
       fill-opacity="1"
       fill-rule="evenodd"
       fill="none"
       stroke-opacity="1"
       stroke-dashoffset="0"
       stroke-dasharray="none"
       stroke-miterlimit="10.433"
       stroke-linejoin="miter"
       stroke-linecap="butt"
       stroke="black"
       xml:space="preserve"
       transform="matrix(1.25,0,0,-1.25,-103.50699,1046.0401)"
       id="g3296">
<path
   id="path3298"
   fill="black"
   stroke-width="0"
   d="M228.27,710.91 L228.27,710.92 L228.27,710.92 L228.27,710.93 L228.27,710.93 L228.28,710.95 L228.28,710.96 L228.28,710.97 L228.29,710.98 L228.29,710.99 L228.29,710.99 L228.29,711 L228.29,711.01 L228.3,711.02 L228.3,711.03 L228.3,711.03 L228.3,711.04 L228.3,711.04 L228.3,711.05 L228.3,711.06 L228.3,711.06 L228.3,711.07 L228.3,711.07 L228.31,711.08 L228.31,711.09 L228.31,711.1 L228.31,711.11 L228.31,711.12 L228.31,711.13 L228.31,711.13 L228.31,711.14 C228.31,711.32,228.17,711.41,228.02,711.41 C227.92,711.41,227.76,711.35,227.67,711.2 C227.65,711.15,227.57,710.84,227.53,710.66 C227.46,710.4,227.39,710.14,227.33,709.87 L226.88,708.08 C226.85,707.93,226.42,707.23,225.76,707.23 C225.25,707.23,225.14,707.67,225.14,708.04 C225.14,708.5,225.31,709.11,225.65,709.99 C225.81,710.39,225.85,710.5,225.85,710.7 C225.85,711.15,225.53,711.52,225.03,711.52 C224.09,711.52,223.72,710.08,223.72,709.99 C223.72,709.89,223.82,709.89,223.84,709.89 C223.94,709.89,223.95,709.91,224,710.07 C224.27,711,224.67,711.3,225,711.3 C225.08,711.3,225.25,711.3,225.25,710.98 C225.25,710.73,225.15,710.47,225.08,710.28 C224.69,709.23,224.51,708.66,224.51,708.2 C224.51,707.31,225.13,707.02,225.72,707.02 C226.11,707.02,226.45,707.18,226.73,707.46 C226.6,706.95,226.48,706.46,226.08,705.93 C225.82,705.59,225.44,705.31,224.98,705.31 C224.85,705.31,224.4,705.34,224.23,705.72 C224.39,705.72,224.52,705.72,224.66,705.84 C224.76,705.93,224.85,706.06,224.85,706.25 C224.85,706.56,224.59,706.6,224.49,706.6 C224.26,706.6,223.93,706.44,223.93,705.95 C223.93,705.46,224.37,705.09,224.98,705.09 C226.01,705.09,227.03,705.99,227.31,707.11 Z " />
<path
   id="path3300"
   fill="black"
   stroke-width="0"
   d="M230.96,708.55 L230.96,708.56 L230.96,708.57 L230.96,708.58 L230.96,708.59 L230.96,708.6 L230.96,708.61 L230.96,708.62 L230.96,708.63 L230.95,708.64 L230.95,708.65 L230.95,708.65 L230.95,708.66 L230.95,708.67 L230.95,708.67 L230.95,708.68 L230.94,708.69 L230.94,708.69 L230.94,708.7 L230.94,708.7 L230.93,708.71 L230.93,708.71 L230.93,708.71 L230.92,708.72 L230.92,708.72 L230.91,708.72 L230.9,708.73 L230.9,708.73 L230.89,708.73 L230.89,708.73 L230.89,708.73 L230.88,708.73 L230.88,708.73 L230.88,708.73 L230.87,708.73 L230.87,708.73 L230.86,708.73 L230.86,708.73 C230.82,708.73,230.81,708.73,230.72,708.65 C230.71,708.64,230.64,708.58,230.59,708.54 C230.38,708.69,230.12,708.73,229.86,708.73 C228.87,708.73,228.63,708.21,228.63,707.86 C228.63,707.64,228.73,707.46,228.9,707.32 C229.16,707.09,229.42,707.04,229.86,706.97 C230.2,706.91,230.77,706.81,230.77,706.35 C230.77,706.08,230.58,705.76,229.91,705.76 C229.24,705.76,229,706.19,228.87,706.67 C228.85,706.76,228.85,706.78,228.75,706.78 C228.63,706.78,228.63,706.74,228.63,706.6 V705.74 C228.63,705.62,228.63,705.56,228.73,705.56 C228.79,705.56,228.92,705.71,229.06,705.86 C229.37,705.58,229.74,705.56,229.91,705.56 C230.82,705.56,231.15,706.05,231.15,706.54 C231.15,706.81,231.03,707.02,230.85,707.18 C230.59,707.42,230.27,707.48,230.02,707.52 C229.47,707.62,229.01,707.7,229.01,708.07 C229.01,708.29,229.2,708.57,229.86,708.57 C230.67,708.57,230.71,708,230.72,707.8 C230.73,707.72,230.81,707.72,230.84,707.72 C230.96,707.72,230.96,707.77,230.96,707.91 Z " />
<path
   id="path3302"
   fill="black"
   stroke-width="0"
   d="M233.99,708.62 V708.37 C234.45,708.37,234.51,708.32,234.51,707.98 V706.79 C234.51,706.18,234.11,705.76,233.58,705.76 C232.95,705.76,232.92,706.05,232.92,706.41 V708.7 L231.85,708.62 V708.37 C232.37,708.37,232.37,708.35,232.37,707.73 V706.69 C232.37,706.21,232.37,705.56,233.54,705.56 C233.69,705.56,234.2,705.56,234.53,706.15 H234.54 V705.56 L235.58,705.63 V705.88 C235.12,705.88,235.06,705.93,235.06,706.27 V708.7 Z " />
<path
   id="path3304"
   fill="black"
   stroke-width="0"
   d="M237.81,704.53 L237.79,704.53 L237.77,704.53 L237.75,704.53 L237.73,704.53 L237.71,704.53 L237.69,704.53 L237.67,704.53 L237.66,704.53 L237.64,704.53 L237.62,704.53 L237.61,704.53 L237.59,704.53 L237.58,704.53 L237.56,704.54 L237.55,704.54 L237.54,704.54 L237.52,704.54 L237.51,704.54 L237.49,704.54 L237.47,704.54 L237.45,704.55 L237.43,704.55 L237.41,704.56 L237.39,704.56 L237.38,704.57 L237.37,704.58 L237.35,704.59 L237.34,704.59 L237.33,704.6 L237.33,704.62 L237.32,704.63 L237.31,704.64 L237.31,704.66 L237.3,704.67 L237.3,704.69 L237.29,704.71 L237.29,704.73 L237.29,704.75 L237.29,704.78 L237.29,704.8 L237.29,704.83 V705.97 C237.32,705.93,237.65,705.56,238.24,705.56 L238.19,705.76 C237.58,705.76,237.31,706.29,237.29,706.33 V707.95 C237.5,708.29,237.9,708.47,238.27,708.47 C238.85,708.47,239.31,707.86,239.31,707.13 C239.31,706.34,238.79,705.76,238.19,705.76 L238.24,705.56 C239.15,705.56,239.94,706.25,239.94,707.13 C239.94,707.99,239.23,708.7,238.35,708.7 C237.95,708.7,237.54,708.55,237.26,708.27 V708.7 L236.21,708.62 V708.37 C236.7,708.37,236.74,708.34,236.74,708.04 V704.83 C236.74,704.53,236.67,704.53,236.21,704.53 V704.28 C236.23,704.28,236.72,704.31,237.01,704.31 C237.27,704.31,237.75,704.29,237.81,704.28 Z " />
</g>  </g>
</svg>
