<?xml version="1.0" encoding="UTF-8" standalone="no"?>
<!-- Created with Inkscape (http://www.inkscape.org/) -->

<svg
   xmlns:dc="http://purl.org/dc/elements/1.1/"
   xmlns:cc="http://creativecommons.org/ns#"
   xmlns:rdf="http://www.w3.org/1999/02/22-rdf-syntax-ns#"
   xmlns:svg="http://www.w3.org/2000/svg"
   xmlns="http://www.w3.org/2000/svg"
   xmlns:sodipodi="http://sodipodi.sourceforge.net/DTD/sodipodi-0.dtd"
   xmlns:inkscape="http://www.inkscape.org/namespaces/inkscape"
   width="177.16534"
   height="177.16534"
   id="svg3041"
   version="1.1"
   inkscape:version="0.48.2 r9819"
   sodipodi:docname="Centrifugaalpomp.svg">
  <defs
     id="defs3043">
    <marker
       inkscape:stockid="Arrow1Mend"
       orient="auto"
       refY="0.0"
       refX="0.0"
       id="Arrow1Mend"
       style="overflow:visible;">
      <path
         id="path4754"
         d="M 0.0,0.0 L 5.0,-5.0 L -12.5,0.0 L 5.0,5.0 L 0.0,0.0 z "
         style="fill-rule:evenodd;stroke:#000000;stroke-width:1.0pt;marker-start:none;"
         transform="scale(0.4) rotate(180) translate(10,0)" />
    </marker>
    <marker
       inkscape:stockid="Arrow1Mstart"
       orient="auto"
       refY="0"
       refX="0"
       id="Arrow1Mstart"
       style="overflow:visible">
      <path
         id="path5162"
         d="M 0,0 5,-5 -12.5,0 5,5 0,0 z"
         style="fill-rule:evenodd;stroke:#000000;stroke-width:1pt;marker-start:none"
         transform="matrix(0.4,0,0,0.4,4,0)"
         inkscape:connector-curvature="0" />
    </marker>
    <marker
       inkscape:stockid="Arrow1Lend"
       orient="auto"
       refY="0"
       refX="0"
       id="Arrow1Lend"
       style="overflow:visible">
      <path
         id="path5159"
         d="M 0,0 5,-5 -12.5,0 5,5 0,0 z"
         style="fill-rule:evenodd;stroke:#000000;stroke-width:1pt;marker-start:none"
         transform="matrix(-0.8,0,0,-0.8,-10,0)"
         inkscape:connector-curvature="0" />
    </marker>
    <marker
       inkscape:stockid="Arrow1Lstart"
       orient="auto"
       refY="0"
       refX="0"
       id="Arrow1Lstart"
       style="overflow:visible">
      <path
         id="path5156"
         d="M 0,0 5,-5 -12.5,0 5,5 0,0 z"
         style="fill-rule:evenodd;stroke:#000000;stroke-width:1pt;marker-start:none"
         transform="matrix(0.8,0,0,0.8,10,0)"
         inkscape:connector-curvature="0" />
    </marker>
  </defs>
  <sodipodi:namedview
     id="base"
     pagecolor="#ffffff"
     bordercolor="#666666"
     borderopacity="1.0"
     inkscape:pageopacity="0.0"
     inkscape:pageshadow="2"
     inkscape:zoom="2.8"
     inkscape:cx="63.915494"
     inkscape:cy="87.008521"
     inkscape:document-units="mm"
     inkscape:current-layer="layer1"
     showgrid="false"
     inkscape:window-width="1280"
     inkscape:window-height="962"
     inkscape:window-x="-8"
     inkscape:window-y="-8"
     inkscape:window-maximized="1"
     units="mm">
    <inkscape:grid
       type="xygrid"
       id="grid2992"
       empspacing="5"
       visible="true"
       enabled="true"
       snapvisiblegridlinesonly="true"
       units="mm"
       spacingx="1mm"
       spacingy="1mm" />
  </sodipodi:namedview>
  <metadata
     id="metadata3046">
    <rdf:RDF>
      <cc:Work
         rdf:about="">
        <dc:format>image/svg+xml</dc:format>
        <dc:type
           rdf:resource="http://purl.org/dc/dcmitype/StillImage" />
        <dc:title />
      </cc:Work>
    </rdf:RDF>
  </metadata>
  <g
     inkscape:label="Laag 1"
     inkscape:groupmode="layer"
     id="layer1"
     transform="translate(0,-875.19677)">
    <path
       sodipodi:nodetypes="cscsscccc"
       inkscape:connector-curvature="0"
       id="path6412"
       d="m 60.544025,890.65846 0,7.73085 c -2e-6,11.59628 0,15.46171 3.865425,23.19255 -19.32713,3.86543 -42.519686,27.058 -42.519686,54.11597 0,38.65417 23.192556,69.57767 65.712242,69.57767 42.519684,0 69.577664,-34.7889 69.577664,-69.57767 0,-27.05797 -11.59627,-46.38511 -27.05798,-57.98139 -9.18927,-7.35141 -19.32712,-11.59627 -19.32712,-19.32713 l 0,-7.73085"
       style="fill:#cccccc;stroke:none" />
    <path
       style="fill:#ffffff;stroke:#000000;stroke-width:0.99999994px;stroke-linecap:butt;stroke-linejoin:miter;stroke-opacity:1"
       d="m 60.544023,890.65844 7.730852,0 c 0,19.32712 0,30.9234 19.327129,34.78883 -30.923407,0 -57.981389,23.19255 -57.981389,50.25053 0,34.7888 23.192555,61.8468 57.981389,61.8468 38.654266,0 61.846816,-30.9234 61.846816,-61.8468 0,-27.05798 -11.59629,-42.51968 -30.92341,-57.98138 -9.18927,-7.35142 -15.4617,-7.73086 -15.4617,-27.05798 l 7.73085,0"
       id="path6384"
       inkscape:connector-curvature="0"
       sodipodi:nodetypes="csssscc" />
    <path
       inkscape:connector-curvature="0"
       id="path5783"
       d="m 87.602004,882.92757 0,22.8877"
       style="fill:none;stroke:#000000;stroke-width:0.99921268;stroke-linecap:butt;stroke-linejoin:miter;stroke-miterlimit:4;stroke-opacity:1;stroke-dasharray:none;marker-start:url(#Arrow1Mstart);marker-end:none"
       sodipodi:nodetypes="cc" />
    <path
       sodipodi:type="arc"
       style="fill:none;stroke:#000000;stroke-width:0.64930558"
       id="path6382"
       sodipodi:cx="79.724411"
       sodipodi:cy="104.52755"
       sodipodi:rx="30.118111"
       sodipodi:ry="30.118111"
       d="m 109.84252,104.52755 c 0,16.63377 -13.484336,30.11811 -30.118109,30.11811 -16.633773,0 -30.118111,-13.48434 -30.118111,-30.11811 0,-16.633773 13.484338,-30.118111 30.118111,-30.118111 16.633773,0 30.118109,13.484338 30.118109,30.118111 z"
       transform="matrix(1.540107,0,0,1.540107,-39.047543,814.71422)" />
    <path
       sodipodi:nodetypes="cc"
       style="fill:none;stroke:#000000;stroke-width:0.99921268;stroke-linecap:butt;stroke-linejoin:miter;stroke-miterlimit:4;stroke-opacity:1;stroke-dasharray:none;marker-start:url(#Arrow1Mstart);marker-end:none"
       d="M 79.871152,979.56323 65.250026,991.39035"
       id="path5969"
       inkscape:connector-curvature="0" />
    <path
       transform="matrix(0.25668455,0,0,0.25668459,63.272555,948.86722)"
       d="m 109.84252,104.52755 c 0,16.63377 -13.484336,30.11811 -30.118109,30.11811 -16.633773,0 -30.118111,-13.48434 -30.118111,-30.11811 0,-16.633773 13.484338,-30.118111 30.118111,-30.118111 16.633773,0 30.118109,13.484338 30.118109,30.118111 z"
       sodipodi:ry="30.118111"
       sodipodi:rx="30.118111"
       sodipodi:cy="104.52755"
       sodipodi:cx="79.724411"
       id="path6386"
       style="fill:none;stroke:#000000;stroke-width:3.89583278"
       sodipodi:type="arc" />
    <path
       style="fill:none;stroke:#000000;stroke-width:0.99999994px;stroke-linecap:round;stroke-linejoin:miter;stroke-opacity:1"
       d="m 76.005726,975.6978 c 1.655888,-27.50509 37.290624,-28.48834 46.385114,-23.19255"
       id="path6388"
       inkscape:connector-curvature="0"
       sodipodi:nodetypes="cc"
       inkscape:transform-center-x="-15.461703"
       inkscape:transform-center-y="-12.861096" />
    <path
       inkscape:transform-center-y="12.861047"
       inkscape:transform-center-x="15.461707"
       sodipodi:nodetypes="cc"
       inkscape:connector-curvature="0"
       id="path6400"
       d="m 91.467431,975.6978 c -1.655888,27.5051 -37.290619,28.4884 -46.385114,23.19255"
       style="fill:none;stroke:#000000;stroke-width:0.99999994px;stroke-linecap:round;stroke-linejoin:miter;stroke-opacity:1" />
    <path
       style="fill:none;stroke:#000000;stroke-width:0.99999994px;stroke-linecap:round;stroke-linejoin:miter;stroke-opacity:1"
       d="m 87.602003,969.00269 c 22.992197,15.18661 6.026333,46.53881 -3.107227,51.76691"
       id="path6402"
       inkscape:connector-curvature="0"
       sodipodi:nodetypes="cc"
       inkscape:transform-center-x="-8.0774727"
       inkscape:transform-center-y="19.188313" />
    <path
       inkscape:transform-center-y="6.1459833"
       inkscape:transform-center-x="-17.773528"
       sodipodi:nodetypes="cc"
       inkscape:connector-curvature="0"
       id="path6404"
       d="m 79.871147,969.00269 c 24.648093,-12.31852 43.317003,18.05047 43.277863,28.57442"
       style="fill:none;stroke:#000000;stroke-width:0.99999994px;stroke-linecap:round;stroke-linejoin:miter;stroke-opacity:1" />
    <path
       inkscape:transform-center-y="-19.188391"
       inkscape:transform-center-x="8.0774772"
       sodipodi:nodetypes="cc"
       inkscape:connector-curvature="0"
       id="path6406"
       d="M 79.87115,982.39292 C 56.878985,967.20633 73.844834,935.85413 82.978367,930.62596"
       style="fill:none;stroke:#000000;stroke-width:0.99999994px;stroke-linecap:round;stroke-linejoin:miter;stroke-opacity:1" />
    <path
       style="fill:none;stroke:#000000;stroke-width:0.99999994px;stroke-linecap:round;stroke-linejoin:miter;stroke-opacity:1"
       d="M 87.602003,982.39292 C 62.953949,994.71142 44.285068,964.34247 44.324106,953.81851"
       id="path6408"
       inkscape:connector-curvature="0"
       sodipodi:nodetypes="cc"
       inkscape:transform-center-x="17.773557"
       inkscape:transform-center-y="-6.1460337" />
    <g
       id="g7186"
       transform="matrix(1.1364073,-0.39042602,0.39042602,1.1364073,-270.9545,-76.29336)"
       inkscape:transform-center-x="-36.566016"
       inkscape:transform-center-y="-0.16037299">
      <path
         sodipodi:open="true"
         sodipodi:end="0.9337535"
         sodipodi:start="0"
         transform="matrix(3.1448839,0,0,3.1448839,-63.00486,728.80492)"
         d="m 28.346457,62.007862 c 0,2.808345 -1.331673,5.45033 -3.589185,7.120792"
         sodipodi:ry="8.8582678"
         sodipodi:rx="8.8582678"
         sodipodi:cy="62.007862"
         sodipodi:cx="19.48819"
         id="path6624"
         style="fill:none;stroke:#000000;stroke-width:0.26462674;marker-end:none"
         sodipodi:type="arc" />
      <path
         sodipodi:nodetypes="cc"
         inkscape:connector-curvature="0"
         id="path6998"
         d="m 25.947066,926.43744 0.242373,-2.66964"
         style="fill:none;stroke:#000000;stroke-width:0.83156508;stroke-linecap:butt;stroke-linejoin:miter;stroke-miterlimit:4;stroke-opacity:1;stroke-dasharray:none;marker-end:url(#Arrow1Mend)" />
    </g>
  </g>
</svg>
