<?xml version="1.0" encoding="UTF-8" standalone="no"?>
<!-- Created with Inkscape (http://www.inkscape.org/) -->

<svg
   xmlns:ns0="http://www.iki.fi/pav/software/textext/"
   xmlns:dc="http://purl.org/dc/elements/1.1/"
   xmlns:cc="http://creativecommons.org/ns#"
   xmlns:rdf="http://www.w3.org/1999/02/22-rdf-syntax-ns#"
   xmlns:svg="http://www.w3.org/2000/svg"
   xmlns="http://www.w3.org/2000/svg"
   xmlns:xlink="http://www.w3.org/1999/xlink"
   xmlns:sodipodi="http://sodipodi.sourceforge.net/DTD/sodipodi-0.dtd"
   xmlns:inkscape="http://www.inkscape.org/namespaces/inkscape"
   width="488.97638"
   height="311.811"
   id="svg3041"
   version="1.1"
   inkscape:version="0.91 r13725"
   sodipodi:docname="Leidingnetwerk.svg">
  <sodipodi:namedview
     id="base"
     pagecolor="#ffffff"
     bordercolor="#666666"
     borderopacity="1.0"
     inkscape:pageopacity="0.0"
     inkscape:pageshadow="2"
     inkscape:zoom="1.548235"
     inkscape:cx="219.93945"
     inkscape:cy="202.63325"
     inkscape:document-units="mm"
     inkscape:current-layer="g4863"
     showgrid="false"
     inkscape:window-width="1280"
     inkscape:window-height="962"
     inkscape:window-x="-8"
     inkscape:window-y="-8"
     inkscape:window-maximized="1"
     units="mm"
     showguides="true"
     inkscape:guide-bbox="true">
    <inkscape:grid
       spacingy="1mm"
       spacingx="1mm"
       units="mm"
       snapvisiblegridlinesonly="true"
       enabled="true"
       visible="true"
       empspacing="5"
       id="grid2992"
       type="xygrid" />
  </sodipodi:namedview>
  <defs
     id="defs3043">
    <linearGradient
       y2="265.74802"
       x2="124.01575"
       y1="347.24408"
       x1="124.01575"
       spreadMethod="pad"
       gradientTransform="matrix(1.125,0,0,1.0869568,-24.235235,584.46516)"
       gradientUnits="userSpaceOnUse"
       id="linearGradient5567"
       xlink:href="#linearGradient7587"
       inkscape:collect="always" />
    <linearGradient
       id="linearGradient7587">
      <stop
         style="stop-color:#a9a9a9;stop-opacity:1;"
         offset="0"
         id="stop7595" />
      <stop
         id="stop7591"
         offset="1"
         style="stop-color:#dcdcdc;stop-opacity:1;" />
    </linearGradient>
    <linearGradient
       inkscape:collect="always"
       xlink:href="#linearGradient7587"
       id="linearGradient3520"
       gradientUnits="userSpaceOnUse"
       gradientTransform="matrix(1.125,0,0,1.0869568,-42.07677,657.20632)"
       spreadMethod="pad"
       x1="124.01575"
       y1="347.24408"
       x2="124.01575"
       y2="265.74802" />
    <marker
       style="overflow:visible"
       id="Arrow1Mstart"
       refX="0"
       refY="0"
       orient="auto"
       inkscape:stockid="Arrow1Mstart">
      <path
         transform="matrix(0.4,0,0,0.4,4,0)"
         style="fill-rule:evenodd;stroke:#000000;stroke-width:1pt;marker-start:none"
         d="M 0,0 5,-5 -12.5,0 5,5 0,0 z"
         id="path3776"
         inkscape:connector-curvature="0" />
    </marker>
    <marker
       style="overflow:visible"
       id="Arrow1Mend"
       refX="0"
       refY="0"
       orient="auto"
       inkscape:stockid="Arrow1Mend">
      <path
         transform="matrix(-0.4,0,0,-0.4,-4,0)"
         style="fill-rule:evenodd;stroke:#000000;stroke-width:1pt;marker-start:none"
         d="M 0,0 5,-5 -12.5,0 5,5 0,0 z"
         id="path3779"
         inkscape:connector-curvature="0" />
    </marker>
    <marker
       style="overflow:visible"
       id="Arrow1Mstart-1"
       refX="0"
       refY="0"
       orient="auto"
       inkscape:stockid="Arrow1Mstart">
      <path
         inkscape:connector-curvature="0"
         transform="matrix(0.4,0,0,0.4,4,0)"
         style="fill-rule:evenodd;stroke:#000000;stroke-width:1pt;marker-start:none"
         d="M 0,0 5,-5 -12.5,0 5,5 0,0 z"
         id="path3762" />
    </marker>
    <marker
       style="overflow:visible"
       id="Arrow1Mend-7"
       refX="0"
       refY="0"
       orient="auto"
       inkscape:stockid="Arrow1Mend">
      <path
         inkscape:connector-curvature="0"
         transform="matrix(-0.4,0,0,-0.4,-4,0)"
         style="fill-rule:evenodd;stroke:#000000;stroke-width:1pt;marker-start:none"
         d="M 0,0 5,-5 -12.5,0 5,5 0,0 z"
         id="path3765" />
    </marker>
    <marker
       style="overflow:visible"
       id="Arrow1Mstart-4"
       refX="0"
       refY="0"
       orient="auto"
       inkscape:stockid="Arrow1Mstart">
      <path
         transform="matrix(0.4,0,0,0.4,4,0)"
         style="fill-rule:evenodd;stroke:#000000;stroke-width:1pt;marker-start:none"
         d="M 0,0 5,-5 -12.5,0 5,5 0,0 z"
         id="path3776-0"
         inkscape:connector-curvature="0" />
    </marker>
    <marker
       style="overflow:visible"
       id="Arrow1Mend-9"
       refX="0"
       refY="0"
       orient="auto"
       inkscape:stockid="Arrow1Mend">
      <path
         transform="matrix(-0.4,0,0,-0.4,-4,0)"
         style="fill-rule:evenodd;stroke:#000000;stroke-width:1pt;marker-start:none"
         d="M 0,0 5,-5 -12.5,0 5,5 0,0 z"
         id="path3779-4"
         inkscape:connector-curvature="0" />
    </marker>
    <linearGradient
       y2="265.74802"
       x2="124.01575"
       y1="347.24408"
       x1="124.01575"
       spreadMethod="pad"
       gradientTransform="matrix(1.125,0,0,1.0869568,-42.07677,657.20632)"
       gradientUnits="userSpaceOnUse"
       id="linearGradient3145"
       xlink:href="#linearGradient7587"
       inkscape:collect="always" />
    <linearGradient
       y2="265.74802"
       x2="124.01575"
       y1="347.24408"
       x1="124.01575"
       spreadMethod="pad"
       gradientTransform="matrix(1.125,0,0,1.0869568,-42.07677,657.20632)"
       gradientUnits="userSpaceOnUse"
       id="linearGradient3155"
       xlink:href="#linearGradient7587"
       inkscape:collect="always" />
  </defs>
  <metadata
     id="metadata3046">
    <rdf:RDF>
      <cc:Work
         rdf:about="">
        <dc:format>image/svg+xml</dc:format>
        <dc:type
           rdf:resource="http://purl.org/dc/dcmitype/StillImage" />
        <dc:title />
      </cc:Work>
    </rdf:RDF>
  </metadata>
  <g
     style="display:inline"
     transform="translate(0,-740.55112)"
     id="layer1"
     inkscape:groupmode="layer"
     inkscape:label="Laag 1">
    <path
       transform="translate(0,712.20465)"
       inkscape:connector-curvature="0"
       id="path3073"
       d="m 347.7414,163.45055 -99.7099,52.69117"
       style="fill:none;stroke:#000000;stroke-width:3.54330707;stroke-linecap:butt;stroke-linejoin:miter;stroke-miterlimit:4;stroke-opacity:1;stroke-dasharray:none"
       sodipodi:nodetypes="cc" />
    <path
       transform="translate(0,712.20465)"
       inkscape:connector-curvature="0"
       id="path3071"
       d="M 132.12806,116.86694 248.0315,216.14172"
       style="fill:none;stroke:#000000;stroke-width:3.54330707;stroke-linecap:butt;stroke-linejoin:miter;stroke-miterlimit:4;stroke-opacity:1;stroke-dasharray:none"
       sodipodi:nodetypes="cc" />
    <g
       transform="matrix(0.79999993,0,0,0.77777804,3.5433142,43.322533)"
       id="g4364">
      <path
         inkscape:connector-curvature="0"
         id="path7583"
         d="m 17.716528,946.06296 159.448832,0"
         style="fill:#000000;stroke:#000000;stroke-width:0.44919613;stroke-linecap:butt;stroke-linejoin:miter;stroke-miterlimit:4;stroke-opacity:1;stroke-dasharray:none"
         sodipodi:nodetypes="cc" />
      <rect
         style="fill:url(#linearGradient3520);fill-opacity:1;fill-rule:nonzero;stroke:none"
         id="rect7585"
         width="159.44882"
         height="88.582703"
         x="17.716536"
         y="946.06293" />
      <path
         sodipodi:nodetypes="cccccc"
         style="fill:none;stroke:#000000;stroke-width:2.24598026;stroke-linecap:round;stroke-linejoin:miter;stroke-miterlimit:4;stroke-opacity:1;stroke-dasharray:none"
         d="m 17.716528,938.97634 0,95.66926 c 53.14961,0 106.299222,0 159.448832,0 l 0,-31.8898 m -1e-5,10e-5 c 0,-21.00811 1e-5,-63.77956 1e-5,-63.77956"
         id="path7073"
         inkscape:connector-curvature="0" />
    </g>
    <path
       sodipodi:nodetypes="ccccc"
       inkscape:connector-curvature="0"
       id="path3135"
       d="m 46.062992,767.89039 14.173228,0 -7.086614,10.62992 -14.173228,-21.25984 28.346456,0"
       style="fill:none;stroke:#000000;stroke-width:0.70866144;stroke-linecap:butt;stroke-linejoin:miter;stroke-miterlimit:4;stroke-opacity:1;stroke-dasharray:none" />
    <g
       id="g3137"
       transform="matrix(-0.79999993,0,0,0.77777804,478.34645,84.47214)">
      <path
         sodipodi:nodetypes="cc"
         style="fill:none;stroke:#000000;stroke-width:0.44919613;stroke-linecap:butt;stroke-linejoin:miter;stroke-miterlimit:4;stroke-opacity:1;stroke-dasharray:none"
         d="m 17.716528,946.06296 159.448832,0"
         id="path3139"
         inkscape:connector-curvature="0" />
      <rect
         y="946.06293"
         x="17.716536"
         height="88.582703"
         width="159.44882"
         id="rect3141"
         style="fill:url(#linearGradient3145);fill-opacity:1;fill-rule:nonzero;stroke:none" />
      <path
         inkscape:connector-curvature="0"
         id="path3143"
         d="m 17.716528,938.97634 0,95.66926 c 53.14961,0 106.299222,0 159.448832,0 l 0,-31.8898 m -1e-5,10e-5 c 0,-21.00811 1e-5,-63.77956 1e-5,-63.77956"
         style="fill:none;stroke:#000000;stroke-width:2.24598026;stroke-linecap:round;stroke-linejoin:miter;stroke-miterlimit:4;stroke-opacity:1;stroke-dasharray:none"
         sodipodi:nodetypes="cccccc" />
    </g>
    <path
       transform="translate(0,712.20465)"
       inkscape:connector-curvature="0"
       id="path3075"
       d="M 173.62205,318.89763 248.0315,216.14172"
       style="fill:none;stroke:#000000;stroke-width:3.54330707;stroke-linecap:butt;stroke-linejoin:miter;stroke-miterlimit:4;stroke-opacity:1;stroke-dasharray:none" />
    <g
       transform="matrix(0.79999993,0,0,0.77777804,38.976385,244.09419)"
       id="g3147">
      <path
         inkscape:connector-curvature="0"
         id="path3149"
         d="m 17.716528,946.06296 159.448832,0"
         style="fill:#000000;stroke:#000000;stroke-width:0.44919613;stroke-linecap:butt;stroke-linejoin:miter;stroke-miterlimit:4;stroke-opacity:1;stroke-dasharray:none"
         sodipodi:nodetypes="cc" />
      <rect
         style="fill:url(#linearGradient3155);fill-opacity:1;fill-rule:nonzero;stroke:none"
         id="rect3151"
         width="159.44882"
         height="88.582703"
         x="17.716536"
         y="946.06293" />
      <path
         sodipodi:nodetypes="cccccc"
         style="fill:none;stroke:#000000;stroke-width:2.24598026;stroke-linecap:round;stroke-linejoin:miter;stroke-miterlimit:4;stroke-opacity:1;stroke-dasharray:none"
         d="m 17.716528,938.97634 0,95.66926 c 53.14961,0 106.299222,0 159.448832,0 l 0,-31.8898 m -1e-5,10e-5 c 0,-21.00811 1e-5,-63.77956 1e-5,-63.77956"
         id="path3153"
         inkscape:connector-curvature="0" />
    </g>
    <path
       style="fill:none;stroke:#000000;stroke-width:0.70866144;stroke-linecap:butt;stroke-linejoin:miter;stroke-miterlimit:4;stroke-opacity:1;stroke-dasharray:none"
       d="m 364.96062,809.08966 14.17323,0 -7.08661,10.62992 -14.17323,-21.25984 28.34646,0"
       id="path3157"
       inkscape:connector-curvature="0"
       sodipodi:nodetypes="ccccc" />
    <path
       sodipodi:nodetypes="ccccc"
       inkscape:connector-curvature="0"
       id="path3159"
       d="m 81.496057,968.52231 14.17323,0 -7.08661,10.62992 -14.17323,-21.25984 28.346463,0"
       style="fill:none;stroke:#000000;stroke-width:0.70866144;stroke-linecap:butt;stroke-linejoin:miter;stroke-miterlimit:4;stroke-opacity:1;stroke-dasharray:none" />
    <path
       style="fill:none;stroke:#000000;stroke-width:0.70866144;stroke-linecap:butt;stroke-linejoin:miter;stroke-miterlimit:4;stroke-opacity:1;stroke-dasharray:none"
       d="m 329.52755,917.71645 14.17323,0 -7.08661,10.62992 -14.17323,-21.25984 28.34645,0"
       id="path3881"
       inkscape:connector-curvature="0"
       sodipodi:nodetypes="ccccc" />
  </g>
  <g
     style="display:inline"
     inkscape:label="annotations"
     inkscape:groupmode="layer"
     id="g4863"
     transform="translate(0,-740.55112)">
    <path
       style="fill:none;stroke:#000000;stroke-width:0.70866132;stroke-linecap:butt;stroke-linejoin:miter;stroke-miterlimit:4;stroke-opacity:1;stroke-dasharray:none"
       d="m 329.52756,928.34637 -74.40945,0"
       id="path4927"
       inkscape:connector-curvature="0" />
    <g
       style="font-style:normal;font-variant:normal;font-weight:normal;font-stretch:normal;letter-spacing:normal;word-spacing:normal;text-anchor:start;fill:none;stroke:#000000;stroke-linecap:butt;stroke-linejoin:miter;stroke-miterlimit:10.43299961;stroke-opacity:1;stroke-dasharray:none;stroke-dashoffset:0"
       id="content"
       transform="matrix(1.25,0,0,-1.25,-222.24799,1637.7721)"
       xml:space="preserve"
       stroke-miterlimit="10.433"
       font-style="normal"
       font-variant="normal"
       font-weight="normal"
       font-stretch="normal"
       font-size-adjust="none"
       letter-spacing="normal"
       word-spacing="normal"
       ns0:text="$z_1$"
       ns0:preamble="D:\\Onderwijs\\FLUI\\Cursus\\FLUI_theorie\\tex\\commands.tex">
<path
   style="fill:#000000;stroke-width:0"
   inkscape:connector-curvature="0"
   d="m 224.76,707.95 0.04,0.05 0.05,0.05 0.05,0.05 0.05,0.05 0.04,0.05 0.04,0.04 0.05,0.04 0.04,0.05 0.04,0.04 0.04,0.04 0.03,0.03 0.04,0.04 0.04,0.04 0.03,0.03 0.07,0.07 0.07,0.06 0.07,0.06 0.06,0.06 0.07,0.06 0.13,0.11 0.06,0.05 0.07,0.06 c 0,0.01 0.62,0.54 0.97,0.9 0.95,0.92 1.17,1.4 1.17,1.44 0,0.1 -0.09,0.1 -0.11,0.1 -0.07,0 -0.1,-0.02 -0.15,-0.11 -0.3,-0.48 -0.51,-0.64 -0.75,-0.64 -0.23,0 -0.36,0.15 -0.5,0.32 -0.19,0.23 -0.36,0.43 -0.69,0.43 -0.75,0 -1.2,-0.93 -1.2,-1.14 0,-0.05 0.03,-0.11 0.11,-0.11 0.09,0 0.11,0.05 0.13,0.11 0.19,0.46 0.77,0.47 0.85,0.47 0.21,0 0.4,-0.07 0.63,-0.15 0.39,-0.15 0.5,-0.15 0.76,-0.15 -0.36,-0.42 -1.19,-1.14 -1.38,-1.3 l -0.9,-0.83 c -0.67,-0.67 -1.02,-1.24 -1.02,-1.31 0,-0.09 0.1,-0.09 0.12,-0.09 0.08,0 0.1,0.02 0.16,0.13 0.23,0.34 0.53,0.61 0.84,0.61 0.23,0 0.33,-0.09 0.58,-0.38 0.17,-0.21 0.35,-0.36 0.64,-0.36 0.98,0 1.56,1.26 1.56,1.53 0,0.04 -0.04,0.1 -0.12,0.1 -0.09,0 -0.11,-0.06 -0.14,-0.13 -0.23,-0.65 -0.86,-0.84 -1.19,-0.84 -0.2,0 -0.38,0.06 -0.59,0.13 -0.34,0.13 -0.49,0.17 -0.7,0.17 -0.02,0 -0.17,0 -0.26,-0.03 z"
   id="path3087" />
<path
   style="fill:#000000;stroke-width:0"
   inkscape:connector-curvature="0"
   d="m 230.4,710.05 0,0.01 0,0.01 0,0.01 0,0.01 0,0 0,0.01 0,0.01 0,0.01 0,0 0,0.01 0,0.01 0,0 -0.01,0.01 0,0 0,0.01 0,0 0,0.01 0,0 0,0.01 0,0.01 -0.01,0.01 0,0 0,0.01 -0.01,0.01 0,0 -0.01,0.01 -0.01,0 0,0 -0.01,0.01 -0.01,0 -0.01,0 -0.01,0 0,0 -0.01,0 0,0 -0.01,0.01 0,0 -0.01,0 -0.01,0 0,0 -0.01,0 -0.01,0 0,0 -0.01,0 -0.01,0 -0.01,0 0,0 -0.01,0 -0.01,0 -0.01,0 c -0.45,-0.44 -1.08,-0.45 -1.37,-0.45 v -0.25 c 0.17,0 0.63,0 1.01,0.2 v -3.55 c 0,-0.23 0,-0.32 -0.69,-0.32 h -0.27 v -0.25 c 0.13,0.01 0.98,0.03 1.24,0.03 0.22,0 1.1,-0.02 1.25,-0.03 v 0.25 h -0.26 c -0.7,0 -0.7,0.09 -0.7,0.32 z"
   id="path3089" />
</g>    <g
       style="font-style:normal;font-variant:normal;font-weight:normal;font-stretch:normal;letter-spacing:normal;word-spacing:normal;text-anchor:start;fill:none;stroke:#000000;stroke-linecap:butt;stroke-linejoin:miter;stroke-miterlimit:10.43299961;stroke-opacity:1;stroke-dasharray:none;stroke-dashoffset:0"
       ns0:preamble="D:\\Onderwijs\\FLUI\\Cursus\\FLUI_theorie\\tex\\commands.tex"
       ns0:text="$z_2$"
       word-spacing="normal"
       letter-spacing="normal"
       font-size-adjust="none"
       font-stretch="normal"
       font-weight="normal"
       font-variant="normal"
       font-style="normal"
       stroke-miterlimit="10.433"
       xml:space="preserve"
       transform="matrix(1.25,0,0,-1.25,96.32344,1679.2007)"
       id="g3207"
       text-anchor="start"
       stroke-dashoffset="0"
       stroke-dasharray="none"
       stroke-opacity="1"
       stroke-linejoin="miter"
       stroke-linecap="butt"
       stroke="black"
       fill-rule="evenodd"
       fill-opacity="1"
       fill="none">
<path
   id="path3209"
   d="M224.76,707.95 L224.8,708 L224.85,708.05 L224.9,708.1 L224.95,708.15 L224.99,708.2 L225.03,708.24 L225.08,708.28 L225.12,708.33 L225.16,708.37 L225.2,708.41 L225.23,708.44 L225.27,708.48 L225.31,708.52 L225.34,708.55 L225.41,708.62 L225.48,708.68 L225.55,708.74 L225.61,708.8 L225.68,708.86 L225.81,708.97 L225.87,709.02 L225.94,709.08 C225.94,709.09,226.56,709.62,226.91,709.98 C227.86,710.9,228.08,711.38,228.08,711.42 C228.08,711.52,227.99,711.52,227.97,711.52 C227.9,711.52,227.87,711.5,227.82,711.41 C227.52,710.93,227.31,710.77,227.07,710.77 C226.84,710.77,226.71,710.92,226.57,711.09 C226.38,711.32,226.21,711.52,225.88,711.52 C225.13,711.52,224.68,710.59,224.68,710.38 C224.68,710.33,224.71,710.27,224.79,710.27 C224.88,710.27,224.9,710.32,224.92,710.38 C225.11,710.84,225.69,710.85,225.77,710.85 C225.98,710.85,226.17,710.78,226.4,710.7 C226.79,710.55,226.9,710.55,227.16,710.55 C226.8,710.13,225.97,709.41,225.78,709.25 L224.88,708.42 C224.21,707.75,223.86,707.18,223.86,707.11 C223.86,707.02,223.96,707.02,223.98,707.02 C224.06,707.02,224.08,707.04,224.14,707.15 C224.37,707.49,224.67,707.76,224.98,707.76 C225.21,707.76,225.31,707.67,225.56,707.38 C225.73,707.17,225.91,707.02,226.2,707.02 C227.18,707.02,227.76,708.28,227.76,708.55 C227.76,708.59,227.72,708.65,227.64,708.65 C227.55,708.65,227.53,708.59,227.5,708.52 C227.27,707.87,226.64,707.68,226.31,707.68 C226.11,707.68,225.93,707.74,225.72,707.81 C225.38,707.94,225.23,707.98,225.02,707.98 C225,707.98,224.85,707.98,224.76,707.95 Z "
   stroke-width="0"
   fill="black" />
<path
   id="path3211"
   d="M231.58,706.9 H231.35 C231.32,706.74,231.26,706.33,231.16,706.26 C231.11,706.22,230.57,706.22,230.48,706.22 H229.19 C229.93,706.87,230.17,707.06,230.59,707.39 C231.1,707.8,231.58,708.23,231.58,708.89 C231.58,709.73,230.84,710.25,229.95,710.25 C229.09,710.25,228.5,709.64,228.5,709 C228.5,708.65,228.8,708.61,228.87,708.61 C229.04,708.61,229.24,708.73,229.24,708.98 C229.24,709.11,229.19,709.35,228.83,709.35 C229.05,709.84,229.52,710,229.85,710 C230.54,710,230.91,709.46,230.91,708.89 C230.91,708.29,230.48,707.81,230.25,707.56 L228.57,705.9 C228.5,705.84,228.5,705.83,228.5,705.63 H231.37 Z "
   stroke-width="0"
   fill="black" />
</g>    <g
       id="g3329"
       transform="matrix(1.25,0,0,-1.25,60.609155,1787.7721)"
       xml:space="preserve"
       stroke="black"
       stroke-linecap="butt"
       stroke-linejoin="miter"
       stroke-miterlimit="10.433"
       stroke-dasharray="none"
       stroke-dashoffset="0"
       stroke-opacity="1"
       fill="none"
       fill-rule="evenodd"
       fill-opacity="1"
       font-style="normal"
       font-variant="normal"
       font-weight="normal"
       font-stretch="normal"
       font-size-adjust="none"
       letter-spacing="normal"
       word-spacing="normal"
       text-anchor="start"
       ns0:text="$z_k$"
       ns0:preamble="D:\\Onderwijs\\FLUI\\Cursus\\FLUI_theorie\\tex\\commands.tex"
       style="font-style:normal;font-variant:normal;font-weight:normal;font-stretch:normal;letter-spacing:normal;word-spacing:normal;text-anchor:start;fill:none;stroke:#000000;stroke-linecap:butt;stroke-linejoin:miter;stroke-miterlimit:10.43299961;stroke-opacity:1;stroke-dasharray:none;stroke-dashoffset:0">
<path
   d="M224.76,707.95 L224.8,708 L224.85,708.05 L224.9,708.1 L224.95,708.15 L224.99,708.2 L225.03,708.24 L225.08,708.28 L225.12,708.33 L225.16,708.37 L225.2,708.41 L225.23,708.44 L225.27,708.48 L225.31,708.52 L225.34,708.55 L225.41,708.62 L225.48,708.68 L225.55,708.74 L225.61,708.8 L225.68,708.86 L225.81,708.97 L225.87,709.02 L225.94,709.08 C225.94,709.09,226.56,709.62,226.91,709.98 C227.86,710.9,228.08,711.38,228.08,711.42 C228.08,711.52,227.99,711.52,227.97,711.52 C227.9,711.52,227.87,711.5,227.82,711.41 C227.52,710.93,227.31,710.77,227.07,710.77 C226.84,710.77,226.71,710.92,226.57,711.09 C226.38,711.32,226.21,711.52,225.88,711.52 C225.13,711.52,224.68,710.59,224.68,710.38 C224.68,710.33,224.71,710.27,224.79,710.27 C224.88,710.27,224.9,710.32,224.92,710.38 C225.11,710.84,225.69,710.85,225.77,710.85 C225.98,710.85,226.17,710.78,226.4,710.7 C226.79,710.55,226.9,710.55,227.16,710.55 C226.8,710.13,225.97,709.41,225.78,709.25 L224.88,708.42 C224.21,707.75,223.86,707.18,223.86,707.11 C223.86,707.02,223.96,707.02,223.98,707.02 C224.06,707.02,224.08,707.04,224.14,707.15 C224.37,707.49,224.67,707.76,224.98,707.76 C225.21,707.76,225.31,707.67,225.56,707.38 C225.73,707.17,225.91,707.02,226.2,707.02 C227.18,707.02,227.76,708.28,227.76,708.55 C227.76,708.59,227.72,708.65,227.64,708.65 C227.55,708.65,227.53,708.59,227.5,708.52 C227.27,707.87,226.64,707.68,226.31,707.68 C226.11,707.68,225.93,707.74,225.72,707.81 C225.38,707.94,225.23,707.98,225.02,707.98 C225,707.98,224.85,707.98,224.76,707.95 Z "
   stroke-width="0"
   fill="black"
   id="path3331" />
<path
   d="M230.24,710.25 L230.25,710.25 L230.25,710.25 L230.25,710.25 L230.25,710.25 L230.25,710.25 L230.25,710.25 L230.25,710.26 L230.25,710.26 L230.25,710.26 L230.25,710.26 L230.25,710.27 L230.25,710.27 L230.25,710.27 L230.25,710.28 L230.26,710.28 L230.26,710.29 L230.26,710.29 L230.26,710.3 L230.26,710.31 L230.26,710.31 L230.26,710.32 L230.26,710.32 L230.27,710.32 L230.27,710.33 L230.27,710.33 L230.27,710.34 L230.27,710.34 L230.27,710.34 L230.27,710.35 L230.27,710.35 L230.27,710.35 L230.27,710.35 L230.27,710.35 L230.27,710.35 L230.27,710.36 L230.27,710.36 L230.27,710.36 L230.27,710.36 L230.27,710.36 L230.27,710.36 L230.27,710.36 C230.27,710.39,230.24,710.46,230.16,710.46 C230.02,710.46,229.44,710.4,229.27,710.39 C229.21,710.38,229.12,710.37,229.12,710.23 C229.12,710.13,229.21,710.13,229.3,710.13 C229.63,710.13,229.63,710.08,229.63,710.03 C229.63,709.98,229.62,709.93,229.6,709.87 L228.62,705.94 C228.59,705.81,228.59,705.8,228.59,705.78 C228.59,705.68,228.67,705.56,228.82,705.56 C229.01,705.56,229.1,705.7,229.15,705.85 C229.16,705.88,229.46,707.1,229.49,707.2 C229.98,707.15,230.38,706.99,230.38,706.63 C230.38,706.6,230.38,706.56,230.36,706.49 C230.34,706.39,230.34,706.35,230.34,706.28 C230.34,705.78,230.74,705.56,231.07,705.56 C231.75,705.56,231.96,706.62,231.96,706.63 C231.96,706.72,231.87,706.72,231.85,706.72 C231.75,706.72,231.74,706.68,231.71,706.55 C231.62,706.25,231.44,705.76,231.1,705.76 C230.91,705.76,230.85,705.93,230.85,706.12 C230.85,706.24,230.85,706.25,230.89,706.43 C230.9,706.45,230.93,706.57,230.93,706.65 C230.93,707.27,230.09,707.36,229.8,707.38 C230,707.51,230.26,707.74,230.38,707.84 C230.73,708.18,231.08,708.5,231.47,708.5 C231.55,708.5,231.65,708.48,231.7,708.41 C231.4,708.36,231.34,708.13,231.34,708.02 C231.34,707.87,231.46,707.77,231.62,707.77 C231.8,707.77,232.01,707.92,232.01,708.21 C232.01,708.44,231.85,708.7,231.48,708.7 C231.08,708.7,230.72,708.41,230.36,708.09 C230.07,707.81,229.84,707.59,229.55,707.47 Z "
   stroke-width="0"
   fill="black"
   id="path3333" />
</g>    <g
       style="font-style:normal;font-variant:normal;font-weight:normal;font-stretch:normal;letter-spacing:normal;word-spacing:normal;text-anchor:start;fill:none;stroke:#000000;stroke-linecap:butt;stroke-linejoin:miter;stroke-miterlimit:10.43299961;stroke-opacity:1;stroke-dasharray:none;stroke-dashoffset:0"
       ns0:preamble="D:\\Onderwijs\\FLUI\\Cursus\\FLUI_theorie\\tex\\commands.tex"
       ns0:text="$z_3$"
       text-anchor="start"
       word-spacing="normal"
       letter-spacing="normal"
       font-size-adjust="none"
       font-stretch="normal"
       font-weight="normal"
       font-variant="normal"
       font-style="normal"
       fill-opacity="1"
       fill-rule="evenodd"
       fill="none"
       stroke-opacity="1"
       stroke-dashoffset="0"
       stroke-dasharray="none"
       stroke-miterlimit="10.433"
       stroke-linejoin="miter"
       stroke-linecap="butt"
       stroke="black"
       xml:space="preserve"
       transform="matrix(1.25,0,0,-1.25,-186.89085,1837.415)"
       id="g3453">
<path
   id="path3455"
   fill="black"
   stroke-width="0"
   d="M224.76,707.95 L224.8,708 L224.85,708.05 L224.9,708.1 L224.95,708.15 L224.99,708.2 L225.03,708.24 L225.08,708.28 L225.12,708.33 L225.16,708.37 L225.2,708.41 L225.23,708.44 L225.27,708.48 L225.31,708.52 L225.34,708.55 L225.41,708.62 L225.48,708.68 L225.55,708.74 L225.61,708.8 L225.68,708.86 L225.81,708.97 L225.87,709.02 L225.94,709.08 C225.94,709.09,226.56,709.62,226.91,709.98 C227.86,710.9,228.08,711.38,228.08,711.42 C228.08,711.52,227.99,711.52,227.97,711.52 C227.9,711.52,227.87,711.5,227.82,711.41 C227.52,710.93,227.31,710.77,227.07,710.77 C226.84,710.77,226.71,710.92,226.57,711.09 C226.38,711.32,226.21,711.52,225.88,711.52 C225.13,711.52,224.68,710.59,224.68,710.38 C224.68,710.33,224.71,710.27,224.79,710.27 C224.88,710.27,224.9,710.32,224.92,710.38 C225.11,710.84,225.69,710.85,225.77,710.85 C225.98,710.85,226.17,710.78,226.4,710.7 C226.79,710.55,226.9,710.55,227.16,710.55 C226.8,710.13,225.97,709.41,225.78,709.25 L224.88,708.42 C224.21,707.75,223.86,707.18,223.86,707.11 C223.86,707.02,223.96,707.02,223.98,707.02 C224.06,707.02,224.08,707.04,224.14,707.15 C224.37,707.49,224.67,707.76,224.98,707.76 C225.21,707.76,225.31,707.67,225.56,707.38 C225.73,707.17,225.91,707.02,226.2,707.02 C227.18,707.02,227.76,708.28,227.76,708.55 C227.76,708.59,227.72,708.65,227.64,708.65 C227.55,708.65,227.53,708.59,227.5,708.52 C227.27,707.87,226.64,707.68,226.31,707.68 C226.11,707.68,225.93,707.74,225.72,707.81 C225.38,707.94,225.23,707.98,225.02,707.98 C225,707.98,224.85,707.98,224.76,707.95 Z " />
<path
   id="path3457"
   fill="black"
   stroke-width="0"
   d="M229.97,707.95 L230.02,707.95 L230.07,707.95 L230.11,707.94 L230.16,707.94 L230.21,707.93 L230.25,707.91 L230.3,707.9 L230.34,707.88 L230.38,707.86 L230.42,707.84 L230.46,707.82 L230.5,707.8 L230.54,707.77 L230.57,707.74 L230.61,707.71 L230.64,707.67 L230.67,707.64 L230.7,707.6 L230.72,707.56 L230.75,707.52 L230.77,707.47 L230.79,707.42 L230.81,707.37 L230.83,707.32 L230.85,707.27 L230.86,707.21 L230.87,707.16 L230.88,707.1 L230.89,707.03 L230.9,706.97 L230.9,706.9 L230.9,706.83 C230.9,705.97,230.4,705.71,229.99,705.71 C229.72,705.71,229.1,705.79,228.81,706.2 C229.14,706.22,229.21,706.45,229.21,706.59 C229.21,706.81,229.05,706.97,228.83,706.97 C228.64,706.97,228.44,706.85,228.44,706.57 C228.44,705.92,229.16,705.49,230.01,705.49 C230.98,705.49,231.65,706.14,231.65,706.83 C231.65,707.38,231.2,707.92,230.43,708.08 C231.16,708.34,231.43,708.86,231.43,709.29 C231.43,709.84,230.79,710.25,230.02,710.25 C229.25,710.25,228.66,709.87,228.66,709.32 C228.66,709.08,228.81,708.95,229.02,708.95 C229.24,708.95,229.37,709.11,229.37,709.3 C229.37,709.5,229.24,709.65,229.02,709.66 C229.26,709.97,229.74,710.05,230,710.05 C230.32,710.05,230.75,709.89,230.75,709.29 C230.75,709,230.66,708.68,230.48,708.46 C230.24,708.2,230.05,708.18,229.7,708.16 C229.53,708.15,229.51,708.15,229.48,708.14 C229.46,708.14,229.41,708.13,229.41,708.05 C229.41,707.95,229.47,707.95,229.59,707.95 Z " />
</g>    <g
       ns0:preamble="D:\\Onderwijs\\FLUI\\Cursusmateriaal\\Fluidummechanica\\tex\\packages.tex"
       ns0:text="A"
       word-spacing="normal"
       letter-spacing="normal"
       font-size-adjust="none"
       font-stretch="normal"
       font-weight="normal"
       font-variant="normal"
       font-style="normal"
       stroke-miterlimit="10.433"
       xml:space="preserve"
       transform="matrix(1.25,0,0,-1.25,-87.242502,1468.8577)"
       id="g4230"
       style="font-style:normal;font-variant:normal;font-weight:normal;font-stretch:normal;letter-spacing:normal;word-spacing:normal;text-anchor:start;fill:none;fill-opacity:1;fill-rule:evenodd;stroke:#000000;stroke-linecap:butt;stroke-linejoin:miter;stroke-miterlimit:10.43299961;stroke-dasharray:none;stroke-dashoffset:0;stroke-opacity:1">
<path
   id="path4232"
   d="m 227.4,484.15 0,0.01 -0.01,0.01 0,0.01 -0.01,0.01 0,0.02 -0.01,0.01 0,0.01 0,0 -0.01,0.01 0,0.01 -0.01,0.01 0,0.01 -0.01,0.01 0,0 -0.01,0.01 0,0.01 -0.01,0 0,0.01 -0.01,0 -0.01,0.01 -0.01,0 0,0.01 -0.01,0 -0.01,0.01 -0.01,0 -0.01,0 -0.01,0 -0.01,0 -0.02,0.01 -0.01,0 -0.01,0 -0.01,0 -0.01,0 c -0.16,0 -0.19,-0.06 -0.24,-0.2 l -2.06,-5.94 c -0.18,-0.51 -0.58,-0.66 -1.12,-0.67 l 0,-0.31 c 0.23,0.01 0.66,0.04 1.02,0.04 0.31,0 0.83,-0.03 1.14,-0.04 l 0,0.31 c -0.49,0 -0.74,0.25 -0.74,0.51 0,0.03 0.01,0.13 0.02,0.15 l 0.46,1.3 0.11,0.31 1.11,3.23 1.13,-3.23 -2.24,0 -0.11,-0.31 2.46,0 0.53,-1.52 c 0.01,-0.04 0.03,-0.1 0.03,-0.14 0,-0.3 -0.56,-0.3 -0.83,-0.3 l 0,-0.31 c 0.36,0.04 1.06,0.04 1.44,0.04 0.42,0 0.88,-0.01 1.3,-0.04 l 0,0.31 -0.18,0 c -0.6,0 -0.74,0.07 -0.85,0.4 z"
   inkscape:connector-curvature="0"
   style="fill:#000000;stroke-width:0" />
</g>    <g
       id="g4348"
       transform="matrix(1.25,0,0,-1.25,7.7548419,1494.8906)"
       xml:space="preserve"
       stroke-miterlimit="10.433"
       font-style="normal"
       font-variant="normal"
       font-weight="normal"
       font-stretch="normal"
       font-size-adjust="none"
       letter-spacing="normal"
       word-spacing="normal"
       ns0:text="B"
       ns0:preamble="D:\\Onderwijs\\FLUI\\Cursusmateriaal\\Fluidummechanica\\tex\\packages.tex"
       style="font-style:normal;font-variant:normal;font-weight:normal;font-stretch:normal;letter-spacing:normal;word-spacing:normal;text-anchor:start;fill:none;fill-opacity:1;fill-rule:evenodd;stroke:#000000;stroke-linecap:butt;stroke-linejoin:miter;stroke-miterlimit:10.43299961;stroke-dasharray:none;stroke-dashoffset:0;stroke-opacity:1">
<path
   d="m 228,480.78 0.09,0.02 0.09,0.02 0.08,0.03 0.09,0.02 0.08,0.03 0.08,0.03 0.08,0.04 0.08,0.03 0.07,0.04 0.07,0.04 0.07,0.04 0.07,0.04 0.06,0.05 0.06,0.05 0.06,0.05 0.06,0.05 0.05,0.05 0.05,0.05 0.05,0.06 0.05,0.05 0.04,0.06 0.04,0.06 0.03,0.06 0.03,0.06 0.03,0.07 0.03,0.06 0.02,0.07 0.01,0.06 0.02,0.07 0.01,0.06 0,0.07 0,0.07 c 0,0.86 -0.91,1.68 -2.21,1.68 l -0.07,-0.31 c 0.97,0 1.32,-0.84 1.32,-1.37 0,-0.64 -0.49,-1.47 -1.6,-1.47 l -1.44,0 0,-0.22 1.87,0 c 0.99,0 1.41,-0.92 1.41,-1.59 0,-0.7 -0.52,-1.52 -1.55,-1.52 l 0,0 -1.25,0 c -0.46,0 -0.48,0.07 -0.48,0.4 l 0,2.71 0,0.22 0,2.45 c 0,0.32 0.02,0.39 0.48,0.39 l 1.24,0 0.07,0.31 -3.65,0 0,-0.31 0.24,0 c 0.77,0 0.79,-0.11 0.79,-0.47 l 0,-5.23 c 0,-0.36 -0.02,-0.47 -0.79,-0.47 l -0.24,0 0,-0.31 3.91,0 c 1.33,0 2.22,0.89 2.22,1.82 0,0.87 -0.81,1.61 -1.92,1.73 z"
   id="path4350"
   inkscape:connector-curvature="0"
   style="fill:#000000;stroke-width:0" />
</g>    <g
       style="font-style:normal;font-variant:normal;font-weight:normal;font-stretch:normal;letter-spacing:normal;word-spacing:normal;text-anchor:start;fill:none;fill-opacity:1;fill-rule:evenodd;stroke:#000000;stroke-linecap:butt;stroke-linejoin:miter;stroke-miterlimit:10.43299961;stroke-dasharray:none;stroke-dashoffset:0;stroke-opacity:1"
       ns0:preamble="D:\\Onderwijs\\FLUI\\Cursusmateriaal\\Fluidummechanica\\tex\\packages.tex"
       ns0:text="C"
       word-spacing="normal"
       letter-spacing="normal"
       font-size-adjust="none"
       font-stretch="normal"
       font-weight="normal"
       font-variant="normal"
       font-style="normal"
       stroke-miterlimit="10.433"
       xml:space="preserve"
       transform="matrix(1.25,0,0,-1.25,-76.738002,1566.5953)"
       id="g4462">
<path
   id="path4464"
   d="m 223.99,480.63 0,-0.19 0.02,-0.19 0.02,-0.18 0.03,-0.18 0.04,-0.18 0.05,-0.18 0.06,-0.16 0.06,-0.17 0.07,-0.16 0.08,-0.16 0.09,-0.15 0.09,-0.15 0.1,-0.14 0.1,-0.13 0.11,-0.13 0.12,-0.13 0.12,-0.12 0.13,-0.11 0.13,-0.1 0.14,-0.1 0.14,-0.09 0.14,-0.09 0.15,-0.08 0.16,-0.07 0.15,-0.06 0.16,-0.06 0.16,-0.04 0.17,-0.04 0.17,-0.03 0.17,-0.03 0.17,-0.01 0.17,0 c 1.63,0 2.6,1.38 2.6,2.53 0,0.1 0,0.17 -0.13,0.17 -0.11,0 -0.11,-0.06 -0.12,-0.16 -0.08,-1.42 -1.14,-2.24 -2.23,-2.24 -0.61,0 -2.56,0.34 -2.56,3.3 0,2.97 1.94,3.31 2.55,3.31 1.09,0 1.97,-0.9 2.17,-2.35 0.02,-0.14 0.02,-0.17 0.16,-0.17 0.16,0 0.16,0.03 0.16,0.24 l 0,2.35 c 0,0.17 0,0.24 -0.11,0.24 -0.04,0 -0.08,0 -0.16,-0.12 l -0.49,-0.74 c -0.37,0.36 -0.88,0.86 -1.84,0.86 -1.86,0 -3.47,-1.58 -3.47,-3.61 z"
   inkscape:connector-curvature="0"
   style="fill:#000000;stroke-width:0" />
</g>    <path
       style="fill:none;fill-rule:evenodd;stroke:#000000;stroke-width:0.99921262;stroke-linecap:butt;stroke-linejoin:miter;stroke-miterlimit:4;stroke-dasharray:none;stroke-opacity:1;marker-end:url(#Arrow1Mend)"
       d="m 171.61179,872.41522 21.80828,18.66835"
       id="path4239"
       inkscape:connector-curvature="0"
       sodipodi:nodetypes="cc" />
    <path
       sodipodi:nodetypes="cc"
       inkscape:connector-curvature="0"
       id="path4241"
       d="m 312.62346,902.21979 -23.29262,12.73102"
       style="fill:none;fill-rule:evenodd;stroke:#000000;stroke-width:0.99921262;stroke-linecap:butt;stroke-linejoin:miter;stroke-miterlimit:4;stroke-dasharray:none;stroke-opacity:1;marker-end:url(#Arrow1Mend)" />
    <path
       style="fill:none;fill-rule:evenodd;stroke:#000000;stroke-width:0.99921262;stroke-linecap:butt;stroke-linejoin:miter;stroke-miterlimit:4;stroke-dasharray:none;stroke-opacity:1;marker-end:url(#Arrow1Mend)"
       d="m 229.21366,965.56159 -13.23162,18.50687"
       id="path4243"
       inkscape:connector-curvature="0"
       sodipodi:nodetypes="cc" />
  </g>
  <g
     transform="translate(0,-219.68499)"
     inkscape:label="Karakteristiek"
     id="layer2"
     inkscape:groupmode="layer" />
</svg>
