<?xml version="1.0" encoding="UTF-8" standalone="no"?>
<!-- Created with Inkscape (http://www.inkscape.org/) -->

<svg
   xmlns:dc="http://purl.org/dc/elements/1.1/"
   xmlns:cc="http://creativecommons.org/ns#"
   xmlns:rdf="http://www.w3.org/1999/02/22-rdf-syntax-ns#"
   xmlns:svg="http://www.w3.org/2000/svg"
   xmlns="http://www.w3.org/2000/svg"
   xmlns:sodipodi="http://sodipodi.sourceforge.net/DTD/sodipodi-0.dtd"
   xmlns:inkscape="http://www.inkscape.org/namespaces/inkscape"
   width="531.49603"
   height="255.1181"
   id="svg3009"
   version="1.1"
   inkscape:version="0.48.2 r9819"
   sodipodi:docname="leiding_structuur.svg">
  <defs
     id="defs3011" />
  <sodipodi:namedview
     id="base"
     pagecolor="#ffffff"
     bordercolor="#666666"
     borderopacity="1.0"
     inkscape:pageopacity="0.0"
     inkscape:pageshadow="2"
     inkscape:zoom="1.5356713"
     inkscape:cx="255.75644"
     inkscape:cy="167.91226"
     inkscape:document-units="mm"
     inkscape:current-layer="layer1"
     showgrid="true"
     units="mm"
     inkscape:window-width="1280"
     inkscape:window-height="962"
     inkscape:window-x="-8"
     inkscape:window-y="-8"
     inkscape:window-maximized="1">
    <inkscape:grid
       type="xygrid"
       id="grid3017"
       empspacing="5"
       visible="true"
       enabled="true"
       snapvisiblegridlinesonly="true"
       units="mm"
       spacingx="1mm"
       spacingy="1mm"
       dotted="false" />
  </sodipodi:namedview>
  <metadata
     id="metadata3014">
    <rdf:RDF>
      <cc:Work
         rdf:about="">
        <dc:format>image/svg+xml</dc:format>
        <dc:type
           rdf:resource="http://purl.org/dc/dcmitype/StillImage" />
        <dc:title />
      </cc:Work>
    </rdf:RDF>
  </metadata>
  <g
     inkscape:label="Layer 1"
     inkscape:groupmode="layer"
     id="layer1"
     transform="translate(0,-797.24412)">
    <path
       style="fill:none;stroke:#000000;stroke-width:1px;stroke-linecap:butt;stroke-linejoin:miter;stroke-opacity:1"
       d="m 28.346454,960.23626 c 0,0 5e-5,42.51974 0,77.95274 0,3.5433 -3.54331,7.0866 -3.54331,7.0866"
       id="path2983"
       inkscape:connector-curvature="0"
       sodipodi:nodetypes="csc" />
    <path
       style="fill:none;stroke:#000000;stroke-width:1px;stroke-linecap:butt;stroke-linejoin:miter;stroke-opacity:1"
       d="m 42.519674,960.23626 c 0,0 -4e-5,42.51974 0,77.95274 0,3.5433 3.54331,7.0866 3.54331,7.0866"
       id="path2985"
       inkscape:connector-curvature="0"
       sodipodi:nodetypes="csc" />
    <g
       id="g2995"
       transform="translate(-184.25198,155.90557)">
      <path
         transform="translate(0,2.5390623e-6)"
         inkscape:connector-curvature="0"
         id="path2987"
         d="m 205.51181,804.33069 28.34646,0"
         style="fill:none;stroke:#000000;stroke-width:1.77165353;stroke-linecap:butt;stroke-linejoin:miter;stroke-miterlimit:4;stroke-opacity:1;stroke-dasharray:none" />
      <path
         transform="translate(0,2.5390623e-6)"
         inkscape:connector-curvature="0"
         id="path2989"
         d="m 248.0315,790.15746 0,-28.34646"
         style="fill:none;stroke:#000000;stroke-width:1.77165353;stroke-linecap:butt;stroke-linejoin:miter;stroke-miterlimit:4;stroke-opacity:1;stroke-dasharray:none" />
      <path
         sodipodi:nodetypes="cc"
         transform="translate(0,2.5390623e-6)"
         inkscape:connector-curvature="0"
         id="path2991"
         d="m 226.77165,804.33069 c 0,-14.17323 7.08662,-21.25985 21.25985,-21.25985"
         style="fill:none;stroke:#000000;stroke-width:1px;stroke-linecap:butt;stroke-linejoin:miter;stroke-opacity:1" />
      <path
         sodipodi:nodetypes="cc"
         transform="translate(0,2.5390623e-6)"
         inkscape:connector-curvature="0"
         id="path2993"
         d="m 212.59843,804.33069 c 0,-24.80315 10.62992,-35.43307 35.43307,-35.43307"
         style="fill:none;stroke:#000000;stroke-width:1px;stroke-linecap:butt;stroke-linejoin:miter;stroke-opacity:1" />
    </g>
    <g
       id="g3056"
       transform="matrix(0.27004935,0,0,0.27004935,15.936134,762.91276)">
      <path
         transform="translate(0,2.5390623e-6)"
         inkscape:connector-curvature="0"
         id="path3024"
         d="m 177.16535,591.73226 0,70.86614"
         style="fill:none;stroke:#000000;stroke-width:3.70302701px;stroke-linecap:butt;stroke-linejoin:miter;stroke-opacity:1" />
      <path
         sodipodi:nodetypes="ccsc"
         transform="translate(0,2.5390623e-6)"
         inkscape:connector-curvature="0"
         id="path3026"
         d="m 177.16534,651.96847 c 26.24193,0 42.5197,24.80316 67.32285,28.34647 0,0 24.80316,0 49.6063,0 10.62993,0 28.34645,-31.88977 28.34645,-31.88977"
         style="fill:none;stroke:#000000;stroke-width:3.70302701px;stroke-linecap:butt;stroke-linejoin:miter;stroke-opacity:1" />
      <path
         sodipodi:nodetypes="cc"
         transform="translate(0,2.5390623e-6)"
         inkscape:connector-curvature="0"
         id="path3028"
         d="m 177.16534,599.48462 c 39.36289,0 35.43309,45.39724 56.69293,48.94055"
         style="fill:none;stroke:#000000;stroke-width:3.70302701px;stroke-linecap:butt;stroke-linejoin:miter;stroke-opacity:1" />
      <path
         sodipodi:nodetypes="cssssc"
         inkscape:connector-curvature="0"
         id="path3034"
         d="m 387.10073,599.48463 c -21.25984,0 -41.89484,20.58341 -64.65979,20.59409 -28.34645,0.0133 -60.23622,0 -88.58267,0 -9.44882,0 -9.44882,28.34645 0,28.34645 35.43307,0 60.30826,-2.0196 88.58267,0 49.6063,3.54331 64.65979,3.5433 64.65979,3.5433"
         style="fill:none;stroke:#000000;stroke-width:3.70302701px;stroke-linecap:butt;stroke-linejoin:miter;stroke-opacity:1" />
      <path
         sodipodi:nodetypes="cc"
         transform="translate(0,2.5390623e-6)"
         inkscape:connector-curvature="0"
         id="path3038"
         d="m 203.6563,609.4488 151.72601,0"
         style="fill:none;stroke:#000000;stroke-width:3.70302701px;stroke-linecap:butt;stroke-linejoin:miter;stroke-opacity:1" />
      <path
         transform="translate(0,2.5390623e-6)"
         inkscape:connector-curvature="0"
         id="path3040"
         d="m 248.0315,620.07872 0,-10.62992"
         style="fill:none;stroke:#000000;stroke-width:3.70302701px;stroke-linecap:butt;stroke-linejoin:miter;stroke-opacity:1" />
      <path
         transform="translate(0,2.5390623e-6)"
         inkscape:connector-curvature="0"
         id="path3042"
         d="m 301.1811,620.07872 0,-10.62992"
         style="fill:none;stroke:#000000;stroke-width:3.70302701px;stroke-linecap:butt;stroke-linejoin:miter;stroke-opacity:1" />
      <path
         transform="translate(0,2.5390623e-6)"
         inkscape:connector-curvature="0"
         id="path3044"
         d="m 237.40157,609.4488 0,-3.54331 74.40945,0 0,3.54331"
         style="fill:none;stroke:#000000;stroke-width:3.70302701px;stroke-linecap:butt;stroke-linejoin:miter;stroke-opacity:1" />
      <path
         transform="translate(0,2.5390623e-6)"
         inkscape:connector-curvature="0"
         id="path3046"
         d="m 248.0315,605.90549 0,-3.54331 53.1496,0 0,3.54331"
         style="fill:none;stroke:#000000;stroke-width:3.70302701px;stroke-linecap:butt;stroke-linejoin:miter;stroke-opacity:1" />
      <path
         sodipodi:nodetypes="ccsscc"
         transform="translate(0,2.5390623e-6)"
         inkscape:connector-curvature="0"
         id="path3048"
         d="m 248.0315,602.36218 -17.71654,-14.17323 c 0,0 0,-67.32283 0,-85.03937 0,-24.80315 88.58268,-24.80315 88.58268,0 0,17.71654 0,85.03937 0,85.03937 l -17.71654,14.17323"
         style="fill:none;stroke:#000000;stroke-width:3.70302701px;stroke-linecap:butt;stroke-linejoin:miter;stroke-opacity:1" />
      <path
         inkscape:connector-curvature="0"
         id="path3050"
         d="m 258.66142,588.18896 31.88976,0 0,-28.34646 -31.88976,0 z"
         style="fill:none;stroke:#000000;stroke-width:3.70302701px;stroke-linecap:butt;stroke-linejoin:miter;stroke-opacity:1" />
      <path
         transform="translate(0,2.5390623e-6)"
         inkscape:connector-curvature="0"
         id="path3052"
         d="m 230.31496,517.32281 88.58268,0"
         style="fill:none;stroke:#000000;stroke-width:3.70302701px;stroke-linecap:butt;stroke-linejoin:miter;stroke-opacity:1" />
      <path
         inkscape:connector-curvature="0"
         id="path3054"
         d="m 230.31496,588.18896 88.58268,0"
         style="fill:none;stroke:#000000;stroke-width:3.70302701px;stroke-linecap:butt;stroke-linejoin:miter;stroke-opacity:1" />
    </g>
    <g
       transform="matrix(-1,0,0,-1,432.28346,1707.874)"
       id="g3840">
      <path
         style="fill:none;stroke:#000000;stroke-width:1.77165353;stroke-linecap:butt;stroke-linejoin:miter;stroke-miterlimit:4;stroke-opacity:1;stroke-dasharray:none"
         d="m 205.51181,804.33069 28.34646,0"
         id="path3842"
         inkscape:connector-curvature="0"
         transform="translate(0,2.5390623e-6)" />
      <path
         style="fill:none;stroke:#000000;stroke-width:1.77165353;stroke-linecap:butt;stroke-linejoin:miter;stroke-miterlimit:4;stroke-opacity:1;stroke-dasharray:none"
         d="m 248.0315,790.15746 0,-28.34646"
         id="path3844"
         inkscape:connector-curvature="0"
         transform="translate(0,2.5390623e-6)" />
      <path
         style="fill:none;stroke:#000000;stroke-width:1px;stroke-linecap:butt;stroke-linejoin:miter;stroke-opacity:1"
         d="m 226.77165,804.33069 c 0,-14.17323 7.08662,-21.25985 21.25985,-21.25985"
         id="path3846"
         inkscape:connector-curvature="0"
         transform="translate(0,2.5390623e-6)"
         sodipodi:nodetypes="cc" />
      <path
         style="fill:none;stroke:#000000;stroke-width:1px;stroke-linecap:butt;stroke-linejoin:miter;stroke-opacity:1"
         d="m 212.59843,804.33069 c 0,-24.80315 10.62992,-35.43307 35.43307,-35.43307"
         id="path3848"
         inkscape:connector-curvature="0"
         transform="translate(0,2.5390623e-6)"
         sodipodi:nodetypes="cc" />
    </g>
    <g
       id="g3876"
       transform="translate(-191.33859,138.18904)">
      <path
         inkscape:connector-curvature="0"
         id="path3850"
         d="m 311.81102,779.52755 0,28.34645"
         style="fill:none;stroke:#000000;stroke-width:1.77165353;stroke-linecap:butt;stroke-linejoin:miter;stroke-miterlimit:4;stroke-opacity:1;stroke-dasharray:none" />
      <path
         style="fill:none;stroke:#000000;stroke-width:1.77165353;stroke-linecap:butt;stroke-linejoin:miter;stroke-miterlimit:4;stroke-opacity:1;stroke-dasharray:none"
         d="m 340.15748,779.52755 0,28.34645"
         id="path3852"
         inkscape:connector-curvature="0" />
      <path
         sodipodi:nodetypes="sccss"
         inkscape:connector-curvature="0"
         id="path3854"
         d="m 318.89764,800.78738 c 0,-10.62992 0,-24.80315 0,-24.80315 l 14.17323,0 c 0,0 0,14.17323 0,24.80315 0,4.72441 -14.17323,4.72441 -14.17323,0 z"
         style="fill:none;stroke:#000000;stroke-width:1px;stroke-linecap:butt;stroke-linejoin:miter;stroke-opacity:1" />
      <path
         transform="translate(0,2.5390623e-6)"
         inkscape:connector-curvature="0"
         id="path3856"
         d="m 311.81102,800.78738 7.08662,0"
         style="fill:none;stroke:#000000;stroke-width:1px;stroke-linecap:butt;stroke-linejoin:miter;stroke-opacity:1" />
      <path
         transform="translate(0,2.5390623e-6)"
         inkscape:connector-curvature="0"
         id="path3858"
         d="m 333.07087,800.78738 7.08661,0"
         style="fill:none;stroke:#000000;stroke-width:1px;stroke-linecap:butt;stroke-linejoin:miter;stroke-opacity:1" />
      <path
         transform="translate(0,2.5390623e-6)"
         inkscape:connector-curvature="0"
         id="path3860"
         d="m 311.81102,786.61415 7.08662,0"
         style="fill:none;stroke:#000000;stroke-width:1px;stroke-linecap:butt;stroke-linejoin:miter;stroke-opacity:1" />
      <path
         transform="translate(0,2.5390623e-6)"
         inkscape:connector-curvature="0"
         id="path3862"
         d="m 333.07087,786.61415 7.08661,0"
         style="fill:none;stroke:#000000;stroke-width:1px;stroke-linecap:butt;stroke-linejoin:miter;stroke-opacity:1" />
      <path
         transform="translate(0,2.5390623e-6)"
         inkscape:connector-curvature="0"
         id="path3864"
         d="m 315.35433,775.98423 21.25984,0"
         style="fill:none;stroke:#000000;stroke-width:1.41732287;stroke-linecap:butt;stroke-linejoin:miter;stroke-miterlimit:4;stroke-opacity:1;stroke-dasharray:none" />
      <path
         sodipodi:nodetypes="cc"
         transform="translate(0,2.5390623e-6)"
         inkscape:connector-curvature="0"
         id="path3866"
         d="m 318.89764,775.98423 c 0,-3.54331 14.17323,-3.54331 14.17323,0"
         style="fill:none;stroke:#000000;stroke-width:1px;stroke-linecap:butt;stroke-linejoin:miter;stroke-opacity:1" />
      <path
         inkscape:connector-curvature="0"
         id="path3868"
         d="m 325.98425,772.44093 0,-7.08661"
         style="fill:none;stroke:#000000;stroke-width:1.77165341;stroke-linecap:square;stroke-linejoin:miter;stroke-miterlimit:4;stroke-opacity:1;stroke-dasharray:none" />
      <path
         inkscape:connector-curvature="0"
         id="path3870"
         d="m 311.81102,761.811 28.34646,0"
         style="fill:none;stroke:#000000;stroke-width:1px;stroke-linecap:butt;stroke-linejoin:miter;stroke-opacity:1" />
      <path
         sodipodi:nodetypes="cc"
         transform="translate(0,2.5390623e-6)"
         inkscape:connector-curvature="0"
         id="path3872"
         d="m 325.98425,765.35431 7.08662,-3.54331"
         style="fill:none;stroke:#000000;stroke-width:1px;stroke-linecap:butt;stroke-linejoin:miter;stroke-opacity:1" />
      <path
         transform="translate(0,2.5390623e-6)"
         inkscape:connector-curvature="0"
         id="path3874"
         d="M 325.98425,765.35431 318.89764,761.811"
         style="fill:none;stroke:#000000;stroke-width:1px;stroke-linecap:butt;stroke-linejoin:miter;stroke-opacity:1" />
    </g>
    <path
       style="fill:none;stroke:#000000;stroke-width:1px;stroke-linecap:butt;stroke-linejoin:miter;stroke-opacity:1"
       d="m 148.81889,924.80319 35.43307,0"
       id="path3891"
       inkscape:connector-curvature="0" />
    <path
       style="fill:none;stroke:#000000;stroke-width:1px;stroke-linecap:butt;stroke-linejoin:miter;stroke-opacity:1"
       d="m 148.81889,938.97642 35.43307,0"
       id="path3893"
       inkscape:connector-curvature="0" />
    <g
       id="g3933"
       transform="translate(-184.25197,85.039427)">
      <path
         inkscape:connector-curvature="0"
         id="path3897"
         d="m 194.88189,875.19683 0,88.58268 177.16537,0 0,-88.58268"
         style="fill:none;stroke:#000000;stroke-width:1px;stroke-linecap:butt;stroke-linejoin:miter;stroke-opacity:1" />
      <path
         sodipodi:nodetypes="cc"
         inkscape:connector-curvature="0"
         id="path3899"
         d="m 226.77165,892.91337 145.27559,0"
         style="fill:none;stroke:#000000;stroke-width:1px;stroke-linecap:butt;stroke-linejoin:miter;stroke-opacity:1" />
      <path
         sodipodi:nodetypes="cc"
         inkscape:connector-curvature="0"
         id="path3901"
         d="m 194.88189,892.91337 17.71654,0"
         style="fill:none;stroke:#000000;stroke-width:1px;stroke-linecap:butt;stroke-linejoin:miter;stroke-opacity:1" />
      <path
         transform="translate(0,2.5390623e-6)"
         inkscape:connector-curvature="0"
         id="path3903"
         d="m 340.15748,896.45667 31.88976,0"
         style="fill:none;stroke:#000000;stroke-width:1px;stroke-linecap:butt;stroke-linejoin:miter;stroke-opacity:1" />
      <path
         transform="translate(0,2.5390623e-6)"
         inkscape:connector-curvature="0"
         id="path3905"
         d="m 350.7874,899.99998 21.25984,0"
         style="fill:none;stroke:#000000;stroke-width:1px;stroke-linecap:butt;stroke-linejoin:miter;stroke-opacity:1" />
      <path
         transform="translate(0,2.5390623e-6)"
         inkscape:connector-curvature="0"
         id="path3907"
         d="m 364.96063,903.54328 7.08661,0"
         style="fill:none;stroke:#000000;stroke-width:1px;stroke-linecap:butt;stroke-linejoin:miter;stroke-opacity:1" />
    </g>
    <path
       style="fill:none;stroke:#000000;stroke-width:1px;stroke-linecap:butt;stroke-linejoin:miter;stroke-opacity:1"
       d="m 251.57478,871.65359 c 0,0 -1e-5,1.18109 0,-10.62993 0,-7.08661 7.08662,-10.62992 10.62993,-10.62992 33.07086,0 66.14173,0 99.21259,0 7.08662,0 10.62993,7.08662 10.62993,10.62992 0,3.54331 0,10.62993 0,10.62993 l 3.5433,0 c 0,0 0,-7.08662 0,-10.62993 0,-7.08661 -7.08661,-14.17322 -14.17323,-14.17322 -33.07086,2e-5 -66.14173,2e-5 -99.21259,0 -7.08662,0 -14.17323,7.08661 -14.17323,14.17322 0,11.81102 0,10.62993 0,10.62993"
       id="path3909"
       inkscape:connector-curvature="0"
       sodipodi:nodetypes="cssssccssssc" />
    <g
       id="g3919"
       transform="translate(-120.47245,145.27564)">
      <path
         sodipodi:nodetypes="cccssc"
         transform="translate(0,2.5390623e-6)"
         inkscape:connector-curvature="0"
         id="path3911"
         d="m 574.01575,708.6614 0,60.23622 3.54331,0 c 0,0 2e-5,-28.34646 0,-42.51969 0,-3.54331 3.5433,-3.54331 3.5433,-7.08661 0,-3.54331 0,-10.62992 0,-10.62992"
         style="fill:none;stroke:#000000;stroke-width:1px;stroke-linecap:butt;stroke-linejoin:miter;stroke-opacity:1" />
      <rect
         y="708.66138"
         x="570.47247"
         height="7.0866423"
         width="14.173196"
         id="rect3913"
         style="fill:#ffffff;stroke:#000000;stroke-width:1.00275588;stroke-linecap:square;stroke-linejoin:miter;stroke-miterlimit:4;stroke-opacity:1;stroke-dasharray:none;stroke-dashoffset:0" />
    </g>
    <path
       sodipodi:nodetypes="cssssccssssc"
       inkscape:connector-curvature="0"
       id="path3923"
       d="m 230.31494,871.65359 c 0,0 0,-16.53545 0,-28.34647 0,-3.5433 3.54331,-7.08661 7.08662,-7.08661 33.07086,0 175.98425,0 209.05511,0 3.54331,0 7.08662,3.54331 7.08662,7.08661 0,3.54331 0,10.62993 0,10.62993 l 7.08661,0 c 0,0 0,-7.08662 0,-10.62993 0,-7.08661 -7.08661,-14.17322 -14.17323,-14.17322 -33.07086,2e-5 -175.98425,2e-5 -209.05511,0 -7.08662,0 -14.17323,7.08661 -14.17323,14.17322 0,11.81102 0,28.34647 0,28.34647"
       style="fill:none;stroke:#000000;stroke-width:1px;stroke-linecap:butt;stroke-linejoin:miter;stroke-opacity:1" />
    <path
       style="fill:none;stroke:#000000;stroke-width:1px;stroke-linecap:butt;stroke-linejoin:miter;stroke-opacity:1"
       d="m 209.05511,871.65359 c 0,0 0,-34.77049 0,-46.58151 0,-3.5433 3.54331,-7.08661 7.08662,-7.08661 31.88976,1e-5 170.07874,1e-5 187.79527,1e-5 l 0,-7.08662 c -17.71653,0 -159.61851,2e-5 -187.79527,0 -7.08662,0 -14.17323,7.08661 -14.17323,14.17322 0,11.81102 0,46.58151 0,46.58151"
       id="path3925"
       inkscape:connector-curvature="0"
       sodipodi:nodetypes="csccccsc" />
    <g
       transform="matrix(0,-1,1,0,-304.72441,1392.5197)"
       id="g3927">
      <path
         style="fill:none;stroke:#000000;stroke-width:1px;stroke-linecap:butt;stroke-linejoin:miter;stroke-opacity:1"
         d="m 574.01575,708.6614 -10e-6,99.21261 3.54331,0 c 0,0 3e-5,-67.32285 1e-5,-81.49608 0,-3.54331 3.5433,-3.54331 3.5433,-7.08661 0,-3.54331 0,-10.62992 0,-10.62992"
         id="path3929"
         inkscape:connector-curvature="0"
         transform="translate(0,2.5390623e-6)"
         sodipodi:nodetypes="cccssc" />
      <rect
         style="fill:#ffffff;stroke:#000000;stroke-width:1.00275588;stroke-linecap:square;stroke-linejoin:miter;stroke-miterlimit:4;stroke-opacity:1;stroke-dasharray:none;stroke-dashoffset:0"
         id="rect3931"
         width="14.173196"
         height="7.0866423"
         x="570.47247"
         y="708.66138" />
    </g>
    <g
       id="g3951"
       transform="translate(-166.53545,148.81894)">
      <path
         transform="translate(0,2.5390623e-6)"
         inkscape:connector-curvature="0"
         id="path3941"
         d="m 364.96063,722.83462 14.17323,0"
         style="fill:none;stroke:#000000;stroke-width:1px;stroke-linecap:butt;stroke-linejoin:miter;stroke-opacity:1" />
      <path
         transform="translate(0,2.5390623e-6)"
         inkscape:connector-curvature="0"
         id="path3943"
         d="m 364.96063,698.03147 14.17323,0"
         style="fill:none;stroke:#000000;stroke-width:1px;stroke-linecap:butt;stroke-linejoin:miter;stroke-opacity:1" />
      <path
         transform="translate(0,2.5390623e-6)"
         inkscape:connector-curvature="0"
         id="path3945"
         d="m 368.50394,722.83462 0,-24.80315"
         style="fill:none;stroke:#000000;stroke-width:1px;stroke-linecap:butt;stroke-linejoin:miter;stroke-opacity:1" />
      <path
         transform="translate(0,2.5390623e-6)"
         inkscape:connector-curvature="0"
         id="path3947"
         d="m 375.59055,722.83462 0,-24.80315"
         style="fill:none;stroke:#000000;stroke-width:1px;stroke-linecap:butt;stroke-linejoin:miter;stroke-opacity:1" />
      <rect
         transform="translate(0,2.5390623e-6)"
         y="705.1181"
         x="364.96063"
         height="10.629921"
         width="14.173228"
         id="rect3949"
         style="fill:#ffffff;fill-opacity:1;fill-rule:nonzero;stroke:#000000;stroke-width:1.00275588;stroke-linecap:round;stroke-linejoin:miter;stroke-miterlimit:4;stroke-opacity:1;stroke-dasharray:none;stroke-dashoffset:0" />
    </g>
    <g
       transform="translate(-145.2756,148.81894)"
       id="g3958">
      <path
         style="fill:none;stroke:#000000;stroke-width:1px;stroke-linecap:butt;stroke-linejoin:miter;stroke-opacity:1"
         d="m 364.96063,722.83462 14.17323,0"
         id="path3960"
         inkscape:connector-curvature="0"
         transform="translate(0,2.5390623e-6)" />
      <path
         style="fill:none;stroke:#000000;stroke-width:1px;stroke-linecap:butt;stroke-linejoin:miter;stroke-opacity:1"
         d="m 364.96063,698.03147 14.17323,0"
         id="path3962"
         inkscape:connector-curvature="0"
         transform="translate(0,2.5390623e-6)" />
      <path
         style="fill:none;stroke:#000000;stroke-width:1px;stroke-linecap:butt;stroke-linejoin:miter;stroke-opacity:1"
         d="m 368.50394,722.83462 0,-24.80315"
         id="path3964"
         inkscape:connector-curvature="0"
         transform="translate(0,2.5390623e-6)" />
      <path
         style="fill:none;stroke:#000000;stroke-width:1px;stroke-linecap:butt;stroke-linejoin:miter;stroke-opacity:1"
         d="m 375.59055,722.83462 0,-24.80315"
         id="path3966"
         inkscape:connector-curvature="0"
         transform="translate(0,2.5390623e-6)" />
      <rect
         style="fill:#ffffff;fill-opacity:1;fill-rule:nonzero;stroke:#000000;stroke-width:1.00275588;stroke-linecap:round;stroke-linejoin:miter;stroke-miterlimit:4;stroke-opacity:1;stroke-dasharray:none;stroke-dashoffset:0"
         id="rect3968"
         width="14.173228"
         height="10.629921"
         x="364.96063"
         y="705.1181"
         transform="translate(0,2.5390623e-6)" />
    </g>
    <rect
       style="fill:#ffffff;fill-opacity:1;fill-rule:nonzero;stroke:#000000;stroke-width:1.00275588;stroke-linecap:round;stroke-linejoin:miter;stroke-miterlimit:4;stroke-opacity:1;stroke-dasharray:none;stroke-dashoffset:0"
       id="rect4544"
       width="70.866142"
       height="31.889763"
       x="191.33858"
       y="871.65356" />
    <text
       xml:space="preserve"
       style="font-size:13px;font-style:normal;font-variant:normal;font-weight:normal;font-stretch:normal;line-height:125%;letter-spacing:0px;word-spacing:0px;fill:#000000;fill-opacity:1;stroke:none;font-family:Arial;-inkscape-font-specification:Arial"
       x="74.409447"
       y="974.40948"
       id="text17020"
       sodipodi:linespacing="125%"><tspan
         sodipodi:role="line"
         id="tspan17022"
         x="74.409447"
         y="974.40948">1</tspan></text>
    <text
       xml:space="preserve"
       style="font-size:13px;font-style:normal;font-variant:normal;font-weight:normal;font-stretch:normal;line-height:125%;letter-spacing:0px;word-spacing:0px;fill:#000000;fill-opacity:1;stroke:none;font-family:Arial;-inkscape-font-specification:Arial"
       x="46.062992"
       y="1038.189"
       id="text17024"
       sodipodi:linespacing="125%"><tspan
         sodipodi:role="line"
         id="tspan17026"
         x="46.062992"
         y="1038.189">2</tspan></text>
    <text
       xml:space="preserve"
       style="font-size:13px;font-style:normal;font-variant:normal;font-weight:normal;font-stretch:normal;line-height:125%;letter-spacing:0px;word-spacing:0px;fill:#000000;fill-opacity:1;stroke:none;font-family:Arial;-inkscape-font-specification:Arial"
       x="14.173228"
       y="956.69293"
       id="text17028"
       sodipodi:linespacing="125%"><tspan
         sodipodi:role="line"
         id="tspan17030"
         x="14.173228"
         y="956.69293">3</tspan></text>
    <text
       xml:space="preserve"
       style="font-size:13px;font-style:normal;font-variant:normal;font-weight:normal;font-stretch:normal;line-height:125%;letter-spacing:0px;word-spacing:0px;fill:#000000;fill-opacity:1;stroke:none;font-family:Arial;-inkscape-font-specification:Arial"
       x="60.236221"
       y="914.17328"
       id="text17032"
       sodipodi:linespacing="125%"><tspan
         sodipodi:role="line"
         id="tspan17034"
         x="60.236221"
         y="914.17328">4</tspan></text>
    <text
       xml:space="preserve"
       style="font-size:13px;font-style:normal;font-variant:normal;font-weight:normal;font-stretch:normal;line-height:125%;letter-spacing:0px;word-spacing:0px;fill:#000000;fill-opacity:1;stroke:none;font-family:Arial;-inkscape-font-specification:Arial"
       x="109.84252"
       y="914.17328"
       id="text17036"
       sodipodi:linespacing="125%"><tspan
         sodipodi:role="line"
         id="tspan17038"
         x="109.84252"
         y="914.17328">5</tspan></text>
    <text
       xml:space="preserve"
       style="font-size:13px;font-style:normal;font-variant:normal;font-weight:normal;font-stretch:normal;line-height:125%;letter-spacing:0px;word-spacing:0px;fill:#000000;fill-opacity:1;stroke:none;font-family:Arial;-inkscape-font-specification:Arial"
       x="152.3622"
       y="914.17328"
       id="text17040"
       sodipodi:linespacing="125%"><tspan
         sodipodi:role="line"
         id="tspan17042"
         x="152.3622"
         y="914.17328">6</tspan></text>
    <text
       xml:space="preserve"
       style="font-size:13px;font-style:normal;font-variant:normal;font-weight:normal;font-stretch:normal;line-height:125%;letter-spacing:0px;word-spacing:0px;fill:#000000;fill-opacity:1;stroke:none;font-family:Arial;-inkscape-font-specification:Arial"
       x="177.16536"
       y="914.17328"
       id="text17044"
       sodipodi:linespacing="125%"><tspan
         sodipodi:role="line"
         id="tspan17046"
         x="177.16536"
         y="914.17328">7</tspan></text>
    <text
       xml:space="preserve"
       style="font-size:13px;font-style:normal;font-variant:normal;font-weight:normal;font-stretch:normal;line-height:125%;letter-spacing:0px;word-spacing:0px;fill:#000000;fill-opacity:1;stroke:none;font-family:Arial;-inkscape-font-specification:Arial"
       x="226.77165"
       y="914.17328"
       id="text17048"
       sodipodi:linespacing="125%"><tspan
         sodipodi:role="line"
         id="tspan17050"
         x="226.77165"
         y="914.17328">8</tspan></text>
    <text
       xml:space="preserve"
       style="font-size:13px;font-style:normal;font-variant:normal;font-weight:normal;font-stretch:normal;line-height:125%;letter-spacing:0px;word-spacing:0px;fill:#000000;fill-opacity:1;stroke:none;font-family:Arial;-inkscape-font-specification:Arial"
       x="187.79527"
       y="864.56696"
       id="text17052"
       sodipodi:linespacing="125%"><tspan
         sodipodi:role="line"
         id="tspan17054"
         x="187.79527"
         y="864.56696">9</tspan></text>
    <text
       xml:space="preserve"
       style="font-size:13px;font-style:normal;font-variant:normal;font-weight:normal;font-stretch:normal;line-height:125%;letter-spacing:0px;word-spacing:0px;fill:#000000;fill-opacity:1;stroke:none;font-family:Arial;-inkscape-font-specification:Arial"
       x="184.25197"
       y="825.59058"
       id="text17056"
       sodipodi:linespacing="125%"><tspan
         sodipodi:role="line"
         id="tspan17058"
         x="184.25197"
         y="825.59058">10</tspan></text>
    <text
       xml:space="preserve"
       style="font-size:13px;font-style:normal;font-variant:normal;font-weight:normal;font-stretch:normal;line-height:125%;letter-spacing:0px;word-spacing:0px;fill:#000000;fill-opacity:1;stroke:none;font-family:Arial;-inkscape-font-specification:Arial"
       x="216.14174"
       y="807.87408"
       id="text17060"
       sodipodi:linespacing="125%"><tspan
         sodipodi:role="line"
         id="tspan17062"
         x="216.14174"
         y="807.87408">11</tspan></text>
    <text
       xml:space="preserve"
       style="font-size:13px;font-style:normal;font-variant:normal;font-weight:normal;font-stretch:normal;line-height:125%;letter-spacing:0px;word-spacing:0px;fill:#000000;fill-opacity:1;stroke:none;font-family:Arial;-inkscape-font-specification:Arial"
       x="389.76379"
       y="807.87402"
       id="text17064"
       sodipodi:linespacing="125%"><tspan
         sodipodi:role="line"
         id="tspan17066"
         x="389.76379"
         y="807.87402">12</tspan></text>
    <text
       xml:space="preserve"
       style="font-size:13px;font-style:normal;font-variant:normal;font-weight:normal;font-stretch:normal;line-height:125%;letter-spacing:0px;word-spacing:0px;fill:#000000;fill-opacity:1;stroke:none;font-family:Arial;-inkscape-font-specification:Arial"
       x="421.65353"
       y="811.41736"
       id="text17068"
       sodipodi:linespacing="125%"><tspan
         sodipodi:role="line"
         id="tspan17070"
         x="421.65353"
         y="811.41736">13</tspan></text>
    <text
       sodipodi:linespacing="125%"
       id="text17072"
       y="811.41736"
       x="513.77954"
       style="font-size:13px;font-style:normal;font-variant:normal;font-weight:normal;font-stretch:normal;line-height:125%;letter-spacing:0px;word-spacing:0px;fill:#000000;fill-opacity:1;stroke:none;font-family:Arial;-inkscape-font-specification:Arial"
       xml:space="preserve"><tspan
         y="811.41736"
         x="513.77954"
         id="tspan17074"
         sodipodi:role="line">15</tspan></text>
    <text
       sodipodi:linespacing="125%"
       id="text17076"
       y="811.41736"
       x="485.43307"
       style="font-size:13px;font-style:normal;font-variant:normal;font-weight:normal;font-stretch:normal;line-height:125%;letter-spacing:0px;word-spacing:0px;fill:#000000;fill-opacity:1;stroke:none;font-family:Arial;-inkscape-font-specification:Arial"
       xml:space="preserve"><tspan
         y="811.41736"
         x="485.43307"
         id="tspan17078"
         sodipodi:role="line">14</tspan></text>
  </g>
</svg>
