<?xml version="1.0" encoding="UTF-8" standalone="no"?>
<!-- Created with Inkscape (http://www.inkscape.org/) -->

<svg
   xmlns:ns0="http://www.iki.fi/pav/software/textext/"
   xmlns:dc="http://purl.org/dc/elements/1.1/"
   xmlns:cc="http://creativecommons.org/ns#"
   xmlns:rdf="http://www.w3.org/1999/02/22-rdf-syntax-ns#"
   xmlns:svg="http://www.w3.org/2000/svg"
   xmlns="http://www.w3.org/2000/svg"
   xmlns:sodipodi="http://sodipodi.sourceforge.net/DTD/sodipodi-0.dtd"
   xmlns:inkscape="http://www.inkscape.org/namespaces/inkscape"
   width="283.46457"
   height="88.582672"
   id="svg3041"
   version="1.1"
   inkscape:version="0.48.2 r9819"
   sodipodi:docname="Parallelschakeling.svg">
  <defs
     id="defs3043">
    <clipPath
       id="clipPath9168"
       clipPathUnits="userSpaceOnUse">
      <path
         id="path9170"
         d="m 315.3,405.388 210.371,0 0,-130.207 -210.371,0 0,130.207 z" />
    </clipPath>
    <clipPath
       id="clipPath9100"
       clipPathUnits="userSpaceOnUse">
      <path
         id="path9102"
         d="m 315.3,405.388 210.371,0 0,-130.207 -210.371,0 0,130.207 z" />
    </clipPath>
    <clipPath
       id="clipPath9074"
       clipPathUnits="userSpaceOnUse">
      <path
         id="path9076"
         d="m 315.3,405.388 210.371,0 0,-130.207 -210.371,0 0,130.207 z" />
    </clipPath>
    <clipPath
       id="clipPath9054"
       clipPathUnits="userSpaceOnUse">
      <path
         id="path9056"
         d="m 315.3,405.388 210.371,0 0,-130.207 -210.371,0 0,130.207 z" />
    </clipPath>
    <clipPath
       id="clipPath9004"
       clipPathUnits="userSpaceOnUse">
      <path
         id="path9006"
         d="m 315.3,405.388 210.371,0 0,-130.207 -210.371,0 0,130.207 z" />
    </clipPath>
    <clipPath
       id="clipPath8696"
       clipPathUnits="userSpaceOnUse">
      <path
         id="path8698"
         clip-rule="evenodd"
         d="m 315.3,417.92 212.22,0 0,-155.94 -212.22,0 0,155.94 z" />
    </clipPath>
    <clipPath
       id="clipPath8198"
       clipPathUnits="userSpaceOnUse">
      <path
         id="path8200"
         d="m 315.3,708.705 210.371,0 0,-130.219 -210.371,0 0,130.219 z" />
    </clipPath>
    <clipPath
       id="clipPath8130"
       clipPathUnits="userSpaceOnUse">
      <path
         id="path8132"
         d="m 315.3,708.705 210.371,0 0,-130.219 -210.371,0 0,130.219 z" />
    </clipPath>
    <clipPath
       id="clipPath8104"
       clipPathUnits="userSpaceOnUse">
      <path
         id="path8106"
         d="m 315.3,708.705 210.371,0 0,-130.219 -210.371,0 0,130.219 z" />
    </clipPath>
    <clipPath
       id="clipPath8084"
       clipPathUnits="userSpaceOnUse">
      <path
         id="path8086"
         d="m 315.3,708.705 210.371,0 0,-130.219 -210.371,0 0,130.219 z" />
    </clipPath>
    <clipPath
       id="clipPath8034"
       clipPathUnits="userSpaceOnUse">
      <path
         id="path8036"
         d="m 315.3,708.705 210.371,0 0,-130.219 -210.371,0 0,130.219 z" />
    </clipPath>
    <clipPath
       id="clipPath7726"
       clipPathUnits="userSpaceOnUse">
      <path
         id="path7728"
         clip-rule="evenodd"
         d="m 315.3,721.22 212.22,0 0,-155.94 -212.22,0 0,155.94 z" />
    </clipPath>
    <clipPath
       id="clipPath7248"
       clipPathUnits="userSpaceOnUse">
      <path
         id="path7250"
         d="m 0,757.16 595.02,0 0,1.08 -595.02,0 0,-1.08 z" />
    </clipPath>
    <clipPath
       id="clipPath7236"
       clipPathUnits="userSpaceOnUse">
      <path
         id="path7238"
         d="m 0,41.54 595.02,0 0,1.08 -595.02,0 0,-1.08 z" />
    </clipPath>
  </defs>
  <sodipodi:namedview
     id="base"
     pagecolor="#ffffff"
     bordercolor="#666666"
     borderopacity="1.0"
     inkscape:pageopacity="0.0"
     inkscape:pageshadow="2"
     inkscape:zoom="2.8"
     inkscape:cx="131.46232"
     inkscape:cy="63.559523"
     inkscape:document-units="mm"
     inkscape:current-layer="layer1"
     showgrid="false"
     inkscape:window-width="1366"
     inkscape:window-height="706"
     inkscape:window-x="-8"
     inkscape:window-y="-8"
     inkscape:window-maximized="1"
     units="mm">
    <inkscape:grid
       type="xygrid"
       id="grid2992"
       empspacing="5"
       visible="true"
       enabled="true"
       snapvisiblegridlinesonly="true"
       units="mm"
       spacingx="1mm"
       spacingy="1mm" />
  </sodipodi:namedview>
  <metadata
     id="metadata3046">
    <rdf:RDF>
      <cc:Work
         rdf:about="">
        <dc:format>image/svg+xml</dc:format>
        <dc:type
           rdf:resource="http://purl.org/dc/dcmitype/StillImage" />
        <dc:title />
      </cc:Work>
    </rdf:RDF>
  </metadata>
  <g
     inkscape:label="Laag 1"
     inkscape:groupmode="layer"
     id="layer1"
     transform="translate(0,-963.77945)">
    <g
       id="g3986"
       transform="translate(-24.80315,42.519687)">
      <path
         sodipodi:nodetypes="cc"
         transform="translate(0,698.03145)"
         inkscape:connector-curvature="0"
         id="path3976"
         d="M 35.433071,301.18108 C 42.519685,294.09445 49.6063,287.00784 95.669292,287.00784"
         style="fill:none;stroke:#000000;stroke-width:3.54330707;stroke-linecap:butt;stroke-linejoin:miter;stroke-miterlimit:4;stroke-opacity:1;stroke-dasharray:none" />
      <path
         inkscape:connector-curvature="0"
         id="path3982"
         d="m 95.669292,977.95267 0,14.17323"
         style="fill:none;stroke:#000000;stroke-width:1px;stroke-linecap:butt;stroke-linejoin:miter;stroke-opacity:1" />
      <path
         style="fill:none;stroke:#000000;stroke-width:1px;stroke-linecap:butt;stroke-linejoin:miter;stroke-opacity:1"
         d="m 30.282621,994.24066 10.022038,10.02204"
         id="path3984"
         inkscape:connector-curvature="0" />
    </g>
    <g
       id="g4535"
       transform="translate(-3.9370078e-6,-35.433105)">
      <path
         sodipodi:nodetypes="cc"
         inkscape:connector-curvature="0"
         id="path3980"
         d="m 248.0315,1016.9291 c 10.62992,0 24.80315,7.0866 24.80315,24.8032"
         style="fill:none;stroke:#000000;stroke-width:3.54330707;stroke-linecap:butt;stroke-linejoin:miter;stroke-miterlimit:4;stroke-opacity:1;stroke-dasharray:none" />
      <path
         inkscape:connector-curvature="0"
         id="path3991"
         d="m 248.0315,1009.8424 0,14.1733"
         style="fill:none;stroke:#000000;stroke-width:1px;stroke-linecap:butt;stroke-linejoin:miter;stroke-opacity:1" />
      <path
         inkscape:connector-curvature="0"
         id="path3993"
         d="m 265.74803,1041.7322 14.17323,0"
         style="fill:none;stroke:#000000;stroke-width:1px;stroke-linecap:butt;stroke-linejoin:miter;stroke-opacity:1" />
    </g>
    <path
       style="fill:none;stroke:#000000;stroke-width:3.54330707;stroke-linecap:butt;stroke-linejoin:miter;stroke-miterlimit:4;stroke-opacity:1;stroke-dasharray:none"
       d="M 70.866142,1027.559 C 138.18898,1002.7558 166.53543,949.60622 248.0315,981.49598"
       id="path3995"
       inkscape:connector-curvature="0"
       sodipodi:nodetypes="cc" />
    <path
       sodipodi:nodetypes="cc"
       inkscape:connector-curvature="0"
       id="path4540"
       d="M 70.866142,1027.559 C 176.62004,1082.2502 197.45661,1013.5665 248.0315,981.49598"
       style="fill:none;stroke:#000000;stroke-width:3.54330707;stroke-linecap:butt;stroke-linejoin:miter;stroke-miterlimit:4;stroke-opacity:1;stroke-dasharray:none" />
    <path
       style="fill:none;stroke:#000000;stroke-width:3.54330707;stroke-linecap:butt;stroke-linejoin:miter;stroke-miterlimit:4;stroke-opacity:1;stroke-dasharray:none"
       d="M 70.866142,1027.559 C 191.2469,1032.2855 151.43007,993.6619 248.0315,981.49598"
       id="path4542"
       inkscape:connector-curvature="0"
       sodipodi:nodetypes="cc" />
    <g
       ns0:preamble="D:\\Onderwijs\\FLUI\\Cursus\\FLUI_theorie\\tex\\commands.tex"
       ns0:text="1"
       word-spacing="normal"
       letter-spacing="normal"
       font-size-adjust="none"
       font-stretch="normal"
       font-weight="normal"
       font-variant="normal"
       font-style="normal"
       stroke-miterlimit="10.433"
       xml:space="preserve"
       transform="matrix(1.25,0,0,-1.25,-153.44207,1874.2857)"
       id="content"
       style="font-style:normal;font-variant:normal;font-weight:normal;font-stretch:normal;letter-spacing:normal;word-spacing:normal;text-anchor:start;fill:none;stroke:#000000;stroke-linecap:butt;stroke-linejoin:miter;stroke-miterlimit:10.43299961;stroke-opacity:1;stroke-dasharray:none;stroke-dashoffset:0">
<path
   id="path3020"
   d="m 226.36,713.48 0,0.01 0,0.01 0,0.02 0,0.01 0,0 0,0.01 0,0.01 0,0.01 0,0.01 0,0.01 0,0.01 0,0.01 0,0 -0.01,0.01 0,0.01 0,0 0,0.01 0,0.01 0,0.01 0,0.01 -0.01,0.01 0,0.01 0,0.01 -0.01,0 0,0.01 -0.01,0.01 0,0 -0.01,0.01 -0.01,0 -0.01,0.01 0,0 -0.01,0 0,0 -0.01,0 0,0 -0.01,0 -0.01,0.01 0,0 -0.01,0 -0.01,0 0,0 -0.01,0 -0.01,0 -0.01,0 0,0 -0.01,0 -0.01,0 -0.01,0 -0.01,0 -0.01,0 -0.01,0 -0.01,0 c -0.62,-0.64 -1.49,-0.64 -1.81,-0.64 v -0.3 c 0.2,0 0.78,0 1.3,0.25 v -5.14 c 0,-0.36 -0.03,-0.48 -0.92,-0.48 h -0.32 v -0.3 c 0.35,0.03 1.21,0.03 1.61,0.03 0.4,0 1.26,0 1.61,-0.03 v 0.3 h -0.32 c -0.89,0 -0.92,0.11 -0.92,0.48 z"
   inkscape:connector-curvature="0"
   style="fill:#000000;stroke-width:0" />
</g>    <g
       id="g3064"
       transform="matrix(1.25,0,0,-1.25,-116.29922,1890)"
       xml:space="preserve"
       stroke-miterlimit="10.433"
       font-style="normal"
       font-variant="normal"
       font-weight="normal"
       font-stretch="normal"
       font-size-adjust="none"
       letter-spacing="normal"
       word-spacing="normal"
       ns0:text="2"
       ns0:preamble="D:\\Onderwijs\\FLUI\\Cursus\\FLUI_theorie\\tex\\commands.tex"
       style="font-style:normal;font-variant:normal;font-weight:normal;font-stretch:normal;letter-spacing:normal;word-spacing:normal;text-anchor:start;fill:none;stroke:#000000;stroke-linecap:butt;stroke-linejoin:miter;stroke-miterlimit:10.43299961;stroke-opacity:1;stroke-dasharray:none;stroke-dashoffset:0">
<path
   style="fill:#000000;stroke-width:0"
   inkscape:connector-curvature="0"
   d="m 224.7,707.89 1.05,1.02 c 1.55,1.37 2.15,1.91 2.15,2.9 0,1.14 -0.9,1.93 -2.11,1.93 -1.12,0 -1.86,-0.91 -1.86,-1.8 0,-0.55 0.5,-0.55 0.53,-0.55 0.17,0 0.51,0.12 0.51,0.52 0,0.26 -0.18,0.52 -0.52,0.52 -0.08,0 -0.1,0 -0.13,-0.01 0.23,0.65 0.76,1.01 1.34,1.01 0.91,0 1.33,-0.8 1.33,-1.62 0,-0.79 -0.49,-1.58 -1.04,-2.19 l -1.91,-2.13 c -0.11,-0.11 -0.11,-0.13 -0.11,-0.36 h 3.69 l 0.28,1.72 h -0.25 c -0.05,-0.3 -0.12,-0.73 -0.22,-0.88 -0.07,-0.08 -0.72,-0.08 -0.94,-0.08 z"
   id="path3066" />
</g>    <g
       style="font-style:normal;font-variant:normal;font-weight:normal;font-stretch:normal;letter-spacing:normal;word-spacing:normal;text-anchor:start;fill:none;stroke:#000000;stroke-linecap:butt;stroke-linejoin:miter;stroke-miterlimit:10.43299961;stroke-opacity:1;stroke-dasharray:none;stroke-dashoffset:0"
       ns0:preamble="D:\\Onderwijs\\FLUI\\Cursus\\FLUI_theorie\\tex\\commands.tex"
       ns0:text="3"
       word-spacing="normal"
       letter-spacing="normal"
       font-size-adjust="none"
       font-stretch="normal"
       font-weight="normal"
       font-variant="normal"
       font-style="normal"
       stroke-miterlimit="10.433"
       xml:space="preserve"
       transform="matrix(1.25,0,0,-1.25,-109.87065,1921.0715)"
       id="g3108">
<path
   style="fill:#000000;stroke-width:0"
   inkscape:connector-curvature="0"
   id="path3110"
   d="m 226.32,710.62 0.07,0.03 0.08,0.03 0.07,0.03 0.07,0.03 0.07,0.04 0.07,0.04 0.06,0.04 0.07,0.04 0.06,0.04 0.06,0.05 0.06,0.05 0.06,0.05 0.05,0.05 0.05,0.05 0.05,0.06 0.05,0.05 0.04,0.06 0.05,0.06 0.04,0.06 0.03,0.06 0.04,0.07 0.03,0.06 0.03,0.07 0.03,0.06 0.02,0.07 0.02,0.07 0.02,0.07 0.01,0.07 0.02,0.07 0,0.07 0.01,0.08 0,0.07 c 0,0.81 -0.87,1.37 -1.83,1.37 -1,0 -1.76,-0.59 -1.76,-1.35 0,-0.33 0.22,-0.52 0.51,-0.52 0.3,0 0.5,0.22 0.5,0.51 0,0.5 -0.46,0.5 -0.61,0.5 0.3,0.48 0.96,0.61 1.32,0.61 0.41,0 0.95,-0.22 0.95,-1.11 0,-0.12 -0.02,-0.7 -0.27,-1.13 -0.3,-0.48 -0.64,-0.51 -0.89,-0.52 -0.08,-0.01 -0.32,-0.03 -0.39,-0.03 -0.08,-0.01 -0.15,-0.02 -0.15,-0.12 0,-0.11 0.07,-0.11 0.24,-0.11 h 0.44 c 0.82,0 1.18,-0.67 1.18,-1.65 0,-1.35 -0.68,-1.64 -1.12,-1.64 -0.43,0 -1.17,0.17 -1.52,0.76 0.35,-0.05 0.65,0.17 0.65,0.55 0,0.35 -0.26,0.55 -0.55,0.55 -0.24,0 -0.56,-0.14 -0.56,-0.57 0,-0.91 0.92,-1.56 2.01,-1.56 1.21,0 2.12,0.9 2.12,1.91 0,0.82 -0.63,1.59 -1.66,1.8 z" />
</g>  </g>
</svg>
