<?xml version="1.0" encoding="UTF-8" standalone="no"?>
<!-- Created with Inkscape (http://www.inkscape.org/) -->

<svg
   xmlns:ns0="http://www.iki.fi/pav/software/textext/"
   xmlns:dc="http://purl.org/dc/elements/1.1/"
   xmlns:cc="http://creativecommons.org/ns#"
   xmlns:rdf="http://www.w3.org/1999/02/22-rdf-syntax-ns#"
   xmlns:svg="http://www.w3.org/2000/svg"
   xmlns="http://www.w3.org/2000/svg"
   xmlns:sodipodi="http://sodipodi.sourceforge.net/DTD/sodipodi-0.dtd"
   xmlns:inkscape="http://www.inkscape.org/namespaces/inkscape"
   width="354.33069"
   height="166.53543"
   id="svg3041"
   version="1.1"
   inkscape:version="0.48.2 r9819"
   sodipodi:docname="Plotse_verwijding.svg">
  <sodipodi:namedview
     id="base"
     pagecolor="#ffffff"
     bordercolor="#666666"
     borderopacity="1.0"
     inkscape:pageopacity="0.0"
     inkscape:pageshadow="2"
     inkscape:zoom="1.979899"
     inkscape:cx="60.492671"
     inkscape:cy="71.425926"
     inkscape:document-units="mm"
     inkscape:current-layer="layer1"
     showgrid="false"
     inkscape:window-width="1366"
     inkscape:window-height="706"
     inkscape:window-x="-8"
     inkscape:window-y="-8"
     inkscape:window-maximized="1"
     units="mm">
    <inkscape:grid
       type="xygrid"
       id="grid2992"
       empspacing="5"
       visible="true"
       enabled="true"
       snapvisiblegridlinesonly="true"
       units="mm"
       spacingx="1mm"
       spacingy="1mm" />
  </sodipodi:namedview>
  <defs
     id="defs3043">
    <marker
       inkscape:stockid="Arrow1Mend"
       orient="auto"
       refY="0"
       refX="0"
       id="Arrow1Mend"
       style="overflow:visible">
      <path
         id="path4922"
         d="M 0,0 5,-5 -12.5,0 5,5 0,0 z"
         style="fill-rule:evenodd;stroke:#000000;stroke-width:1pt;marker-start:none"
         transform="matrix(-0.4,0,0,-0.4,-4,0)"
         inkscape:connector-curvature="0" />
    </marker>
    <marker
       inkscape:stockid="Arrow1Lend"
       orient="auto"
       refY="0"
       refX="0"
       id="Arrow1Lend"
       style="overflow:visible">
      <path
         id="path4916"
         d="M 0,0 5,-5 -12.5,0 5,5 0,0 z"
         style="fill-rule:evenodd;stroke:#000000;stroke-width:1pt;marker-start:none"
         transform="matrix(-0.8,0,0,-0.8,-10,0)"
         inkscape:connector-curvature="0" />
    </marker>
  </defs>
  <metadata
     id="metadata3046">
    <rdf:RDF>
      <cc:Work
         rdf:about="">
        <dc:format>image/svg+xml</dc:format>
        <dc:type
           rdf:resource="http://purl.org/dc/dcmitype/StillImage" />
        <dc:title />
      </cc:Work>
    </rdf:RDF>
  </metadata>
  <g
     inkscape:label="Laag 1"
     inkscape:groupmode="layer"
     id="layer1"
     transform="translate(0,-885.82671)">
    <path
       sodipodi:nodetypes="cccc"
       inkscape:connector-curvature="0"
       id="path7489"
       d="m 17.716535,1006.2992 67.322836,0 0,35.433 251.574789,0 10e-6,7.0866 -258.661414,0 0,-35.433 -60.236221,0 z"
       style="fill:#b3b3b3;stroke:none" />
    <path
       style="fill:none;stroke:#000000;stroke-width:0.70866144;stroke-linecap:butt;stroke-linejoin:miter;stroke-miterlimit:4;stroke-opacity:1;stroke-dasharray:none"
       d="m 17.716534,1006.2992 67.322836,0 0,35.433 251.57479,0"
       id="path6547"
       inkscape:connector-curvature="0"
       sodipodi:nodetypes="cccc" />
    <path
       style="fill:#b3b3b3;stroke:none"
       d="m 17.716535,935.43313 67.322836,0 0,-35.43307 251.574789,0 10e-6,-7.0866 -258.661414,0 0,35.433 -60.236221,0 z"
       id="path7491"
       inkscape:connector-curvature="0"
       sodipodi:nodetypes="cccc" />
    <path
       sodipodi:nodetypes="cccc"
       inkscape:connector-curvature="0"
       id="path7059"
       d="m 17.716534,935.43307 67.322836,0 0,-35.43307 251.57479,0"
       style="fill:none;stroke:#000000;stroke-width:0.70866144;stroke-linecap:butt;stroke-linejoin:miter;stroke-miterlimit:4;stroke-opacity:1;stroke-dasharray:none" />
    <path
       style="fill:none;stroke:#000000;stroke-width:0.35433072;stroke-linecap:butt;stroke-linejoin:miter;stroke-miterlimit:4;stroke-opacity:1;stroke-dasharray:none"
       d="m 90.607422,935.43307 c 72.890888,0 137.176598,-31.88976 196.400448,-31.88976"
       id="path7061"
       inkscape:connector-curvature="0"
       sodipodi:nodetypes="cc" />
    <path
       sodipodi:nodetypes="cc"
       inkscape:connector-curvature="0"
       id="path7063"
       d="m 154.38695,953.14961 c 45.5568,0 83.52083,-14.17323 129.07762,-14.17323"
       style="fill:none;stroke:#000000;stroke-width:0.35433072;stroke-linecap:butt;stroke-linejoin:miter;stroke-miterlimit:4;stroke-opacity:1;stroke-dasharray:none" />
    <path
       style="fill:none;stroke:#000000;stroke-width:0.35433072;stroke-linecap:butt;stroke-linejoin:miter;stroke-miterlimit:4;stroke-opacity:1;stroke-dasharray:none"
       d="m 154.38695,988.58268 c 45.5568,0 83.52083,14.17322 129.07762,14.17322"
       id="path7065"
       inkscape:connector-curvature="0"
       sodipodi:nodetypes="cc" />
    <path
       style="fill:none;stroke:#000000;stroke-width:0.35433072;stroke-linecap:butt;stroke-linejoin:miter;stroke-miterlimit:4;stroke-opacity:1;stroke-dasharray:none"
       d="m 168.05399,970.86614 c 45.5568,0 62.76715,0 108.32396,0"
       id="path7067"
       inkscape:connector-curvature="0"
       sodipodi:nodetypes="cc" />
    <path
       sodipodi:nodetypes="cc"
       inkscape:connector-curvature="0"
       id="path7069"
       d="m 90.607422,1006.2992 c 72.890888,0 137.176598,31.8897 196.400448,31.8897"
       style="fill:none;stroke:#000000;stroke-width:0.35433072;stroke-linecap:butt;stroke-linejoin:miter;stroke-miterlimit:4;stroke-opacity:1;stroke-dasharray:none" />
    <path
       style="fill:none;stroke:#000000;stroke-width:0.35433072;stroke-linecap:butt;stroke-linejoin:miter;stroke-miterlimit:4;stroke-opacity:1;stroke-dasharray:2.12598421, 2.12598421;stroke-dashoffset:0"
       d="m 88.582677,903.54331 0,134.64559 212.598423,0 0,-134.64559 z"
       id="path7071"
       inkscape:connector-curvature="0"
       sodipodi:nodetypes="ccccc" />
    <path
       style="fill:none;stroke:#000000;stroke-width:0.70866144;stroke-linecap:butt;stroke-linejoin:miter;stroke-miterlimit:4;stroke-opacity:1;stroke-dasharray:none;marker-end:url(#Arrow1Mend)"
       d="m 88.582677,935.43301 49.606293,0"
       id="path7073"
       inkscape:connector-curvature="0" />
    <path
       inkscape:connector-curvature="0"
       id="path7445"
       d="m 88.582677,949.60624 49.606293,0"
       style="fill:none;stroke:#000000;stroke-width:0.70866144;stroke-linecap:butt;stroke-linejoin:miter;stroke-miterlimit:4;stroke-opacity:1;stroke-dasharray:none;marker-end:url(#Arrow1Mend)" />
    <path
       style="fill:none;stroke:#000000;stroke-width:0.70866144;stroke-linecap:butt;stroke-linejoin:miter;stroke-miterlimit:4;stroke-opacity:1;stroke-dasharray:none;marker-end:url(#Arrow1Mend)"
       d="m 88.582677,977.9527 49.606293,0"
       id="path7447"
       inkscape:connector-curvature="0" />
    <path
       inkscape:connector-curvature="0"
       id="path7449"
       d="m 88.582677,992.12592 49.606293,0"
       style="fill:none;stroke:#000000;stroke-width:0.70866144;stroke-linecap:butt;stroke-linejoin:miter;stroke-miterlimit:4;stroke-opacity:1;stroke-dasharray:none;marker-end:url(#Arrow1Mend)" />
    <path
       style="fill:none;stroke:#000000;stroke-width:0.70866144;stroke-linecap:butt;stroke-linejoin:miter;stroke-miterlimit:4;stroke-opacity:1;stroke-dasharray:none;marker-end:url(#Arrow1Mend)"
       d="m 88.582677,1006.2991 49.606293,0"
       id="path7451"
       inkscape:connector-curvature="0" />
    <path
       style="fill:none;stroke:#000000;stroke-width:0.70866144;stroke-linecap:butt;stroke-linejoin:miter;stroke-miterlimit:4;stroke-opacity:1;stroke-dasharray:none;marker-end:url(#Arrow1Mend)"
       d="m 88.582677,963.77947 49.606293,0"
       id="path7453"
       inkscape:connector-curvature="0" />
    <path
       style="fill:none;stroke:#000000;stroke-width:0.70866144;stroke-linecap:butt;stroke-linejoin:miter;stroke-miterlimit:4;stroke-opacity:1;stroke-dasharray:none;marker-end:url(#Arrow1Mend)"
       d="m 301.1811,935.43307 24.80315,0"
       id="path7467"
       inkscape:connector-curvature="0" />
    <path
       style="fill:none;stroke:#000000;stroke-width:0.70866144;stroke-linecap:butt;stroke-linejoin:miter;stroke-miterlimit:4;stroke-opacity:1;stroke-dasharray:none;marker-end:url(#Arrow1Mend)"
       d="m 301.1811,953.14961 24.80315,0"
       id="path7469"
       inkscape:connector-curvature="0" />
    <path
       style="fill:none;stroke:#000000;stroke-width:0.70866144;stroke-linecap:butt;stroke-linejoin:miter;stroke-miterlimit:4;stroke-opacity:1;stroke-dasharray:none;marker-end:url(#Arrow1Mend)"
       d="m 301.1811,970.86614 24.80315,0"
       id="path7471"
       inkscape:connector-curvature="0" />
    <path
       style="fill:none;stroke:#000000;stroke-width:0.70866144;stroke-linecap:butt;stroke-linejoin:miter;stroke-miterlimit:4;stroke-opacity:1;stroke-dasharray:none;marker-end:url(#Arrow1Mend)"
       d="m 301.1811,988.58268 24.80315,0"
       id="path7473"
       inkscape:connector-curvature="0" />
    <path
       style="fill:none;stroke:#000000;stroke-width:0.70866144;stroke-linecap:butt;stroke-linejoin:miter;stroke-miterlimit:4;stroke-opacity:1;stroke-dasharray:none;marker-end:url(#Arrow1Mend)"
       d="m 301.1811,1006.2992 24.80315,0"
       id="path7475"
       inkscape:connector-curvature="0" />
    <path
       style="fill:none;stroke:#000000;stroke-width:0.70866144;stroke-linecap:butt;stroke-linejoin:miter;stroke-miterlimit:4;stroke-opacity:1;stroke-dasharray:none;marker-end:url(#Arrow1Mend)"
       d="m 301.1811,1024.0157 24.80315,0"
       id="path7477"
       inkscape:connector-curvature="0" />
    <path
       inkscape:connector-curvature="0"
       id="path7455"
       d="m 301.1811,917.71654 24.80315,0"
       style="fill:none;stroke:#000000;stroke-width:0.70866144;stroke-linecap:butt;stroke-linejoin:miter;stroke-miterlimit:4;stroke-opacity:1;stroke-dasharray:none;marker-end:url(#Arrow1Mend)" />
    <path
       style="fill:none;stroke:#000000;stroke-width:0.70866144;stroke-linecap:butt;stroke-linejoin:miter;stroke-miterlimit:4;stroke-opacity:1;stroke-dasharray:none;marker-end:url(#Arrow1Mend)"
       d="m 301.1811,903.54331 24.80315,0"
       id="path7479"
       inkscape:connector-curvature="0" />
    <path
       inkscape:connector-curvature="0"
       id="path7481"
       d="m 301.1811,1038.1889 24.80315,0"
       style="fill:none;stroke:#000000;stroke-width:0.70866144;stroke-linecap:butt;stroke-linejoin:miter;stroke-miterlimit:4;stroke-opacity:1;stroke-dasharray:none;marker-end:url(#Arrow1Mend)" />
    <path
       style="fill:none;stroke:#000000;stroke-width:0.35433072;stroke-linecap:butt;stroke-linejoin:miter;stroke-miterlimit:4;stroke-opacity:1;stroke-dasharray:none"
       d="M 92.125984,931.88976 C 216.14173,917.71654 155.90551,896.45669 116.92913,917.71654"
       id="path7483"
       inkscape:connector-curvature="0"
       sodipodi:nodetypes="cc" />
    <path
       sodipodi:nodetypes="cc"
       inkscape:connector-curvature="0"
       id="path7485"
       d="m 92.125984,1009.8424 c 124.015746,14.1733 63.779526,35.4331 24.803146,14.1733"
       style="fill:none;stroke:#000000;stroke-width:0.35433072;stroke-linecap:butt;stroke-linejoin:miter;stroke-miterlimit:4;stroke-opacity:1;stroke-dasharray:none" />
    <g
       style="font-style:normal;font-variant:normal;font-weight:normal;font-stretch:normal;letter-spacing:normal;word-spacing:normal;text-anchor:start;fill:none;stroke:#000000;stroke-linecap:butt;stroke-linejoin:miter;stroke-miterlimit:10.43299961;stroke-opacity:1;stroke-dasharray:none;stroke-dashoffset:0"
       id="content"
       transform="matrix(1.25,0,0,-1.25,-200.71428,1845.3571)"
       xml:space="preserve"
       stroke-miterlimit="10.433"
       font-style="normal"
       font-variant="normal"
       font-weight="normal"
       font-stretch="normal"
       font-size-adjust="none"
       letter-spacing="normal"
       word-spacing="normal"
       ns0:text="1"
       ns0:preamble="D:\\Onderwijs\\FLUI\\Cursus\\FLUI_theorie\\tex\\commands.tex">
<path
   style="fill:#000000;stroke-width:0"
   inkscape:connector-curvature="0"
   d="m 226.36,713.48 0,0.01 0,0.01 0,0.02 0,0.01 0,0 0,0.01 0,0.01 0,0.01 0,0.01 0,0.01 0,0.01 0,0.01 0,0 -0.01,0.01 0,0.01 0,0 0,0.01 0,0.01 0,0.01 0,0.01 -0.01,0.01 0,0.01 0,0.01 -0.01,0 0,0.01 -0.01,0.01 0,0 -0.01,0.01 -0.01,0 -0.01,0.01 0,0 -0.01,0 0,0 -0.01,0 0,0 -0.01,0 -0.01,0.01 0,0 -0.01,0 -0.01,0 0,0 -0.01,0 -0.01,0 -0.01,0 0,0 -0.01,0 -0.01,0 -0.01,0 -0.01,0 -0.01,0 -0.01,0 -0.01,0 c -0.62,-0.64 -1.49,-0.64 -1.81,-0.64 v -0.3 c 0.2,0 0.78,0 1.3,0.25 v -5.14 c 0,-0.36 -0.03,-0.48 -0.92,-0.48 h -0.32 v -0.3 c 0.35,0.03 1.21,0.03 1.61,0.03 0.4,0 1.26,0 1.61,-0.03 v 0.3 h -0.32 c -0.89,0 -0.92,0.11 -0.92,0.48 z"
   id="path3060" />
</g>    <g
       style="font-style:normal;font-variant:normal;font-weight:normal;font-stretch:normal;letter-spacing:normal;word-spacing:normal;text-anchor:start;fill:none;stroke:#000000;stroke-linecap:butt;stroke-linejoin:miter;stroke-miterlimit:10.43299961;stroke-opacity:1;stroke-dasharray:none;stroke-dashoffset:0"
       ns0:preamble="D:\\Onderwijs\\FLUI\\Cursus\\FLUI_theorie\\tex\\commands.tex"
       ns0:text="2"
       word-spacing="normal"
       letter-spacing="normal"
       font-size-adjust="none"
       font-stretch="normal"
       font-weight="normal"
       font-variant="normal"
       font-style="normal"
       stroke-miterlimit="10.433"
       xml:space="preserve"
       transform="matrix(1.25,0,0,-1.25,11.785721,1845.3571)"
       id="g3148">
<path
   id="path3150"
   d="m 224.7,707.89 1.05,1.02 c 1.55,1.37 2.15,1.91 2.15,2.9 0,1.14 -0.9,1.93 -2.11,1.93 -1.12,0 -1.86,-0.91 -1.86,-1.8 0,-0.55 0.5,-0.55 0.53,-0.55 0.17,0 0.51,0.12 0.51,0.52 0,0.26 -0.18,0.52 -0.52,0.52 -0.08,0 -0.1,0 -0.13,-0.01 0.23,0.65 0.76,1.01 1.34,1.01 0.91,0 1.33,-0.8 1.33,-1.62 0,-0.79 -0.49,-1.58 -1.04,-2.19 l -1.91,-2.13 c -0.11,-0.11 -0.11,-0.13 -0.11,-0.36 h 3.69 l 0.28,1.72 h -0.25 c -0.05,-0.3 -0.12,-0.73 -0.22,-0.88 -0.07,-0.08 -0.72,-0.08 -0.94,-0.08 z"
   inkscape:connector-curvature="0"
   style="fill:#000000;stroke-width:0" />
</g>  </g>
</svg>
