<?xml version="1.0" encoding="UTF-8" standalone="no"?>
<!-- Created with Inkscape (http://www.inkscape.org/) -->

<svg
   xmlns:dc="http://purl.org/dc/elements/1.1/"
   xmlns:cc="http://creativecommons.org/ns#"
   xmlns:rdf="http://www.w3.org/1999/02/22-rdf-syntax-ns#"
   xmlns:svg="http://www.w3.org/2000/svg"
   xmlns="http://www.w3.org/2000/svg"
   xmlns:sodipodi="http://sodipodi.sourceforge.net/DTD/sodipodi-0.dtd"
   xmlns:inkscape="http://www.inkscape.org/namespaces/inkscape"
   width="177.16534"
   height="177.16534"
   id="svg3041"
   version="1.1"
   inkscape:version="0.48.2 r9819"
   sodipodi:docname="Schottenpomp.svg">
  <sodipodi:namedview
     id="base"
     pagecolor="#ffffff"
     bordercolor="#666666"
     borderopacity="1.0"
     inkscape:pageopacity="0.0"
     inkscape:pageshadow="2"
     inkscape:zoom="3.959798"
     inkscape:cx="55.350782"
     inkscape:cy="81.192096"
     inkscape:document-units="mm"
     inkscape:current-layer="layer1"
     showgrid="false"
     inkscape:window-width="1280"
     inkscape:window-height="962"
     inkscape:window-x="-8"
     inkscape:window-y="-8"
     inkscape:window-maximized="1"
     units="mm"
     inkscape:object-paths="false">
    <inkscape:grid
       type="xygrid"
       id="grid2992"
       empspacing="5"
       visible="true"
       enabled="true"
       snapvisiblegridlinesonly="true"
       units="mm"
       spacingx="1mm"
       spacingy="1mm" />
  </sodipodi:namedview>
  <defs
     id="defs3043">
    <marker
       inkscape:stockid="Arrow1Mend"
       orient="auto"
       refY="0.0"
       refX="0.0"
       id="Arrow1Mend"
       style="overflow:visible;">
      <path
         id="path4754"
         d="M 0.0,0.0 L 5.0,-5.0 L -12.5,0.0 L 5.0,5.0 L 0.0,0.0 z "
         style="fill-rule:evenodd;stroke:#000000;stroke-width:1.0pt;marker-start:none;"
         transform="scale(0.4) rotate(180) translate(10,0)" />
    </marker>
    <marker
       inkscape:stockid="Arrow1Mstart"
       orient="auto"
       refY="0"
       refX="0"
       id="Arrow1Mstart"
       style="overflow:visible">
      <path
         id="path5162"
         d="M 0,0 5,-5 -12.5,0 5,5 0,0 z"
         style="fill-rule:evenodd;stroke:#000000;stroke-width:1pt;marker-start:none"
         transform="matrix(0.4,0,0,0.4,4,0)"
         inkscape:connector-curvature="0" />
    </marker>
    <marker
       inkscape:stockid="Arrow1Lend"
       orient="auto"
       refY="0"
       refX="0"
       id="Arrow1Lend"
       style="overflow:visible">
      <path
         id="path5159"
         d="M 0,0 5,-5 -12.5,0 5,5 0,0 z"
         style="fill-rule:evenodd;stroke:#000000;stroke-width:1pt;marker-start:none"
         transform="matrix(-0.8,0,0,-0.8,-10,0)"
         inkscape:connector-curvature="0" />
    </marker>
    <marker
       inkscape:stockid="Arrow1Lstart"
       orient="auto"
       refY="0"
       refX="0"
       id="Arrow1Lstart"
       style="overflow:visible">
      <path
         id="path5156"
         d="M 0,0 5,-5 -12.5,0 5,5 0,0 z"
         style="fill-rule:evenodd;stroke:#000000;stroke-width:1pt;marker-start:none"
         transform="matrix(0.8,0,0,0.8,10,0)"
         inkscape:connector-curvature="0" />
    </marker>
  </defs>
  <metadata
     id="metadata3046">
    <rdf:RDF>
      <cc:Work
         rdf:about="">
        <dc:format>image/svg+xml</dc:format>
        <dc:type
           rdf:resource="http://purl.org/dc/dcmitype/StillImage" />
        <dc:title></dc:title>
      </cc:Work>
    </rdf:RDF>
  </metadata>
  <g
     inkscape:label="Laag 1"
     inkscape:groupmode="layer"
     id="layer1"
     transform="translate(0,-875.19677)">
    <path
       inkscape:connector-curvature="0"
       id="path5783"
       d="m 88.777584,898.45573 0,20.9415"
       style="fill:none;stroke:#000000;stroke-width:0.99921274;stroke-linecap:butt;stroke-linejoin:miter;stroke-miterlimit:4;stroke-opacity:1;stroke-dasharray:none;marker-start:url(#Arrow1Mstart);marker-end:none"
       sodipodi:nodetypes="cc" />
    <path
       transform="matrix(1.5999999,0,0,1.5999999,-38.976372,807.87395)"
       style="fill:#cccccc;stroke:none"
       d="m 124.01575,97.440933 c 0,20.013307 -12.77991,38.802107 -31.003937,44.291347 -4.429134,0 -8.839282,-1e-5 -13.287402,-1e-5 -4.09808,0 -8.858269,1e-5 -13.287403,1e-5 -18.716369,-5.17606 -31.003937,-23.928 -31.003937,-44.291347 0,-20.947115 11.46506,-39.680733 31.003937,-44.291339 4.429134,0 9.773087,-10e-7 13.287403,-10e-7 4.701737,0 8.858268,10e-7 13.287402,10e-7 17.867887,5.704225 31.003937,24.531645 31.003937,44.291339 z"
       id="path5986"
       inkscape:connector-curvature="0"
       sodipodi:nodetypes="scscscscs" />
    <path
       style="fill:#ffffff;stroke:none"
       d="m 124.01575,97.440933 c 0,22.113317 -15.72656,40.537907 -36.909451,43.852897 0,1.93398 0.115338,5.90774 0.115338,5.90774 l -14.879117,0.0426 c 0,0 -0.0173,-4.44741 -0.0173,-6.04118 -21.068363,-3.41266 -36.892144,-21.73004 -36.892144,-43.762037 0,-22.265392 15.698504,-39.881186 36.909449,-43.940589 0,-2.070336 0.0162,-7.150868 0.0162,-7.150868 l 14.747584,0.142746 c 0,0 0,6.546194 0,7.088768 21.046201,3.892609 36.909441,21.711589 36.909441,43.859943 z"
       id="path5984"
       inkscape:connector-curvature="0"
       sodipodi:nodetypes="cccccsccccsc"
       transform="matrix(1.44,0,0,1.44,-26.220473,823.46449)" />
    <path
       style="fill:none;stroke:#000000;stroke-width:1px;stroke-linecap:butt;stroke-linejoin:miter;stroke-opacity:1"
       d="m 67.322835,17.716525 10.629921,0 0,7.71796 c 0,0 -7.956185,1.717112 -11.671322,3.315431 -7.042421,3.029774 -14.210296,6.469813 -19.7765,11.741681 -7.870321,7.454145 -14.637332,16.746958 -18.095342,27.020632 -3.754214,11.153686 -4.72026,23.772535 -2.091213,35.243671 2.645312,11.54211 9.182977,22.41996 17.337728,31.00588 6.550695,6.89705 15.427828,11.41181 24.156998,15.19103 3.20599,1.38801 10.139651,2.65177 10.139651,2.65177 l 0,7.84423 -10.629921,0"
       id="path5988"
       inkscape:connector-curvature="0"
       transform="translate(0,875.19677)"
       sodipodi:nodetypes="ccaaaaaacc" />
    <g
       inkscape:transform-center-y="-20.790124"
       id="g5978"
       transform="matrix(-2.5492454,-0.94519312,-0.94504697,2.5497069,1031.4314,-1318.0096)"
       inkscape:transform-center-x="24.952674">
      <path
         sodipodi:nodetypes="cc"
         inkscape:connector-curvature="0"
         id="path5980"
         d="m 29.788149,57.525441 c -1.056635,-0.276211 -2.03742,0.667798 -2.400374,1.793076"
         style="fill:none;stroke:#000000;stroke-width:0.29531792;marker-end:none"
         transform="matrix(1.2453674,0,0,1.2453674,-8.3785451,854.17141)" />
      <path
         sodipodi:nodetypes="cc"
         inkscape:connector-curvature="0"
         id="path5982"
         d="m 28.640225,925.78243 0.89722,-0.005"
         style="fill:none;stroke:#000000;stroke-width:0.3674897;stroke-linecap:butt;stroke-linejoin:miter;stroke-miterlimit:4;stroke-opacity:1;stroke-dasharray:none;marker-end:url(#Arrow1Mend)" />
    </g>
    <path
       sodipodi:nodetypes="ccaaaaaacc"
       inkscape:connector-curvature="0"
       id="path5990"
       d="m 109.84252,892.9133 -10.629922,-1e-5 0,7.84423 c 0,0 6.933662,1.26376 10.139652,2.65177 8.72917,3.77922 17.6063,8.29398 24.157,15.19103 8.15475,8.58592 14.69241,19.46377 17.33772,31.00588 2.62905,11.47114 1.66301,24.08999 -2.09121,35.24368 -3.45801,10.27367 -10.22502,19.56652 -18.09534,27.02062 -5.5662,5.2719 -12.73408,8.7119 -19.7765,11.7417 -3.71514,1.5983 -11.671322,3.3154 -11.671322,3.3154 l 0,7.718 10.629922,0"
       style="fill:none;stroke:#000000;stroke-width:1px;stroke-linecap:butt;stroke-linejoin:miter;stroke-opacity:1" />
    <path
       sodipodi:type="arc"
       style="fill:#cccccc;fill-opacity:1;fill-rule:evenodd;stroke:#000000;stroke-width:0.84615391"
       id="path5994"
       sodipodi:cx="109.84252"
       sodipodi:cy="106.2992"
       sodipodi:rx="38.976379"
       sodipodi:ry="38.976379"
       d="m 148.8189,106.2992 a 38.976379,38.976379 0 1 1 -77.952758,0 38.976379,38.976379 0 1 1 77.952758,0 z"
       transform="matrix(1.1818181,0,0,1.1818181,-27.057979,838.15311)" />
    <path
       transform="matrix(0.18181828,0,0,0.18181828,82.784522,944.45229)"
       d="m 148.8189,106.2992 a 38.976379,38.976379 0 1 1 -77.952758,0 38.976379,38.976379 0 1 1 77.952758,0 z"
       sodipodi:ry="38.976379"
       sodipodi:rx="38.976379"
       sodipodi:cy="106.2992"
       sodipodi:cx="109.84252"
       id="path5996"
       style="fill:#cccccc;fill-opacity:1;fill-rule:evenodd;stroke:#000000;stroke-width:5.49999714"
       sodipodi:type="arc" />
    <g
       id="g6002"
       inkscape:transform-center-x="29.868112">
      <path
         style="fill:#ffffff;stroke:none"
         d="m 53.149604,961.8715 38.976376,0 0,3.81587 -38.976376,0"
         id="path6000"
         inkscape:connector-curvature="0" />
      <path
         inkscape:connector-curvature="0"
         id="path5998"
         d="m 56.692918,961.8715 35.433066,0 0,3.81587 -35.433066,0"
         style="fill:none;stroke:#000000;stroke-width:1px;stroke-linecap:round;stroke-linejoin:miter;stroke-opacity:1" />
    </g>
    <g
       id="g6012"
       inkscape:transform-center-x="29.868112"
       transform="matrix(0.8660254,0.5,-0.5,0.8660254,495.6564,77.744008)">
      <path
         style="fill:#ffffff;stroke:none"
         d="m 53.149604,961.8715 38.976376,0 0,3.81587 -38.976376,0"
         id="path6014"
         inkscape:connector-curvature="0" />
      <path
         inkscape:connector-curvature="0"
         id="path6016"
         d="m 56.692918,961.8715 35.433066,0 0,3.81587 -35.433066,0"
         style="fill:none;stroke:#000000;stroke-width:1px;stroke-linecap:round;stroke-linejoin:miter;stroke-opacity:1" />
    </g>
    <g
       id="g6018"
       inkscape:transform-center-x="29.868112"
       transform="matrix(0.5,0.8660254,-0.8660254,0.5,886.03543,392.90049)">
      <path
         style="fill:#ffffff;stroke:none"
         d="m 53.149604,961.8715 38.976376,0 0,3.81587 -38.976376,0"
         id="path6020"
         inkscape:connector-curvature="0" />
      <path
         inkscape:connector-curvature="0"
         id="path6022"
         d="m 56.692918,961.8715 35.433066,0 0,3.81587 -35.433066,0"
         style="fill:none;stroke:#000000;stroke-width:1px;stroke-linecap:round;stroke-linejoin:miter;stroke-opacity:1" />
    </g>
    <g
       id="g6024"
       inkscape:transform-center-x="29.868112"
       transform="matrix(0,1,-1,0,1066.5353,861.02353)">
      <path
         style="fill:#ffffff;stroke:none"
         d="m 53.149604,961.8715 38.976376,0 0,3.81587 -38.976376,0"
         id="path6026"
         inkscape:connector-curvature="0" />
      <path
         inkscape:connector-curvature="0"
         id="path6028"
         d="m 56.692918,961.8715 35.433066,0 0,3.81587 -35.433066,0"
         style="fill:none;stroke:#000000;stroke-width:1px;stroke-linecap:round;stroke-linejoin:miter;stroke-opacity:1" />
    </g>
    <g
       id="g6030"
       inkscape:transform-center-x="29.868112"
       transform="matrix(-0.5,0.8660254,-0.8660254,-0.5,988.79133,1356.6799)">
      <path
         style="fill:#ffffff;stroke:none"
         d="m 53.149604,961.8715 38.976376,0 0,3.81587 -38.976376,0"
         id="path6032"
         inkscape:connector-curvature="0" />
      <path
         inkscape:connector-curvature="0"
         id="path6034"
         d="m 56.692918,961.8715 35.433066,0 0,3.81587 -35.433066,0"
         style="fill:none;stroke:#000000;stroke-width:1px;stroke-linecap:round;stroke-linejoin:miter;stroke-opacity:1" />
    </g>
    <g
       id="g6036"
       inkscape:transform-center-x="29.868112"
       transform="matrix(-0.8660254,0.5,-0.5,-0.8660254,673.63485,1747.059)">
      <path
         style="fill:#ffffff;stroke:none"
         d="m 53.149604,961.8715 38.976376,0 0,3.81587 -38.976376,0"
         id="path6038"
         inkscape:connector-curvature="0" />
      <path
         inkscape:connector-curvature="0"
         id="path6040"
         d="m 56.692918,961.8715 35.433066,0 0,3.81587 -35.433066,0"
         style="fill:none;stroke:#000000;stroke-width:1px;stroke-linecap:round;stroke-linejoin:miter;stroke-opacity:1" />
    </g>
    <g
       id="g6042"
       inkscape:transform-center-x="29.868112"
       transform="matrix(-1,0,0,-1,205.51181,1927.5589)">
      <path
         style="fill:#ffffff;stroke:none"
         d="m 54.622818,961.8715 37.503162,0 0,3.81587 -37.503162,0"
         id="path6044"
         inkscape:connector-curvature="0" />
      <path
         inkscape:connector-curvature="0"
         id="path6046"
         d="m 56.692918,961.8715 35.433066,0 0,3.81587 -35.433066,0"
         style="fill:none;stroke:#000000;stroke-width:1px;stroke-linecap:round;stroke-linejoin:miter;stroke-opacity:1" />
    </g>
    <g
       id="g6048"
       inkscape:transform-center-x="29.868112"
       transform="matrix(-0.8660254,-0.5,0.5,-0.8660254,-290.14459,1849.8149)">
      <path
         style="fill:#ffffff;stroke:none"
         d="m 53.149604,961.8715 38.976376,0 0,3.81587 -38.976376,0"
         id="path6050"
         inkscape:connector-curvature="0" />
      <path
         inkscape:connector-curvature="0"
         id="path6052"
         d="m 56.692918,961.8715 35.433066,0 0,3.81587 -35.433066,0"
         style="fill:none;stroke:#000000;stroke-width:1px;stroke-linecap:round;stroke-linejoin:miter;stroke-opacity:1" />
    </g>
    <g
       id="g6054"
       inkscape:transform-center-x="29.868112"
       transform="matrix(-0.5,-0.8660254,0.8660254,-0.5,-680.52362,1534.6584)">
      <path
         style="fill:#ffffff;stroke:none"
         d="m 53.149604,961.8715 38.976376,0 0,3.81587 -38.976376,0"
         id="path6056"
         inkscape:connector-curvature="0" />
      <path
         inkscape:connector-curvature="0"
         id="path6058"
         d="m 56.692918,961.8715 35.433066,0 0,3.81587 -35.433066,0"
         style="fill:none;stroke:#000000;stroke-width:1px;stroke-linecap:round;stroke-linejoin:miter;stroke-opacity:1" />
    </g>
    <g
       id="g6060"
       inkscape:transform-center-x="29.868112"
       transform="matrix(0,-1,1,0,-861.02353,1066.5353)">
      <path
         style="fill:#ffffff;stroke:none"
         d="m 53.149604,961.8715 38.976376,0 0,3.81587 -38.976376,0"
         id="path6062"
         inkscape:connector-curvature="0" />
      <path
         inkscape:connector-curvature="0"
         id="path6064"
         d="m 56.692918,961.8715 35.433066,0 0,3.81587 -35.433066,0"
         style="fill:none;stroke:#000000;stroke-width:1px;stroke-linecap:round;stroke-linejoin:miter;stroke-opacity:1" />
    </g>
    <g
       id="g6066"
       inkscape:transform-center-x="29.868112"
       transform="matrix(0.5,-0.8660254,0.8660254,0.5,-783.27952,570.87894)">
      <path
         style="fill:#ffffff;stroke:none"
         d="m 53.149604,961.8715 38.976376,0 0,3.81587 -38.976376,0"
         id="path6068"
         inkscape:connector-curvature="0" />
      <path
         inkscape:connector-curvature="0"
         id="path6070"
         d="m 56.692918,961.8715 35.433066,0 0,3.81587 -35.433066,0"
         style="fill:none;stroke:#000000;stroke-width:1px;stroke-linecap:round;stroke-linejoin:miter;stroke-opacity:1" />
    </g>
    <g
       id="g6072"
       inkscape:transform-center-x="29.868112"
       transform="matrix(0.8660254,-0.5,0.5,0.8660254,-468.12304,180.49991)">
      <path
         style="fill:#ffffff;stroke:none"
         d="m 53.149604,961.8715 38.976376,0 0,3.81587 -38.976376,0"
         id="path6074"
         inkscape:connector-curvature="0" />
      <path
         inkscape:connector-curvature="0"
         id="path6076"
         d="m 56.692918,961.8715 35.433066,0 0,3.81587 -35.433066,0"
         style="fill:none;stroke:#000000;stroke-width:1px;stroke-linecap:round;stroke-linejoin:miter;stroke-opacity:1" />
    </g>
    <rect
       y="962.50122"
       x="114.04422"
       height="2.4718785"
       width="37.526363"
       id="rect6080"
       style="fill:#000000;fill-opacity:1;fill-rule:evenodd;stroke:none" />
    <rect
       style="fill:#000000;fill-opacity:1;fill-rule:evenodd;stroke:none"
       id="rect6082"
       width="37.526363"
       height="2.4718785"
       x="25.492598"
       y="962.50122"
       inkscape:transform-center-x="44.326898" />
    <rect
       inkscape:transform-center-x="50.662603"
       y="781.97339"
       x="496.15259"
       height="2.4718785"
       width="37.526363"
       id="rect6084"
       style="fill:#000000;fill-opacity:1;fill-rule:evenodd;stroke:none"
       transform="matrix(0.8660254,0.5,-0.5,0.8660254,0,0)"
       inkscape:transform-center-y="-29.250085" />
    <rect
       inkscape:transform-center-x="29.250066"
       y="391.60455"
       x="817.41815"
       height="2.4718785"
       width="37.526363"
       id="rect6088"
       style="fill:#000000;fill-opacity:1;fill-rule:evenodd;stroke:none"
       transform="matrix(0.5,0.8660254,-0.8660254,0.5,0,0)"
       inkscape:transform-center-y="-50.662636" />
    <rect
       inkscape:transform-center-x="-1.4805357e-005"
       y="-103.90257"
       x="902.45593"
       height="2.4718785"
       width="37.526363"
       id="rect6090"
       style="fill:#000000;fill-opacity:1;fill-rule:evenodd;stroke:none"
       transform="matrix(0,1,-1,0,0,0)"
       inkscape:transform-center-y="-58.500163" />
    <rect
       inkscape:transform-center-x="-29.250061"
       y="-572.09509"
       x="728.66046"
       height="2.4718785"
       width="37.526363"
       id="rect6092"
       style="fill:#000000;fill-opacity:1;fill-rule:evenodd;stroke:none"
       transform="matrix(-0.5,0.8660254,-0.8660254,-0.5,0,0)"
       inkscape:transform-center-y="-50.662585" />
    <rect
       inkscape:transform-center-x="-50.662607"
       y="-887.24689"
       x="342.73788"
       height="2.4718785"
       width="37.526363"
       id="rect6094"
       style="fill:#000000;fill-opacity:1;fill-rule:evenodd;stroke:none"
       transform="matrix(-0.8660254,0.5,-0.5,-0.8660254,0,0)"
       inkscape:transform-center-y="-29.250089" />
    <rect
       inkscape:transform-center-x="-50.662614"
       y="-784.49945"
       x="-621.12128"
       height="2.4718785"
       width="37.526363"
       id="rect6096"
       style="fill:#000000;fill-opacity:1;fill-rule:evenodd;stroke:none"
       transform="matrix(-0.8660254,-0.5,0.5,-0.8660254,0,0)"
       inkscape:transform-center-y="29.250109" />
    <rect
       inkscape:transform-center-x="-29.250075"
       y="-394.0813"
       x="-940.70325"
       height="2.4718785"
       width="37.526363"
       id="rect6098"
       style="fill:#000000;fill-opacity:1;fill-rule:evenodd;stroke:none"
       transform="matrix(-0.5,-0.8660254,0.8660254,-0.5,0,0)"
       inkscape:transform-center-y="50.662611" />
    <rect
       inkscape:transform-center-x="1.5235384e-005"
       y="101.43066"
       x="-1024.9291"
       height="2.4718785"
       width="37.526363"
       id="rect6100"
       style="fill:#000000;fill-opacity:1;fill-rule:evenodd;stroke:none"
       transform="matrix(0,-1,1,0,0,0)"
       inkscape:transform-center-y="58.500146" />
    <rect
       inkscape:transform-center-x="29.250103"
       y="569.55066"
       x="-851.99011"
       height="2.4718785"
       width="37.526363"
       id="rect6102"
       style="fill:#000000;fill-opacity:1;fill-rule:evenodd;stroke:none"
       transform="matrix(0.5,-0.8660254,0.8660254,0.5,0,0)"
       inkscape:transform-center-y="50.662579" />
    <rect
       inkscape:transform-center-x="50.662598"
       y="884.6864"
       x="-467.41797"
       height="2.4718785"
       width="37.526363"
       id="rect6104"
       style="fill:#000000;fill-opacity:1;fill-rule:evenodd;stroke:none"
       transform="matrix(0.8660254,-0.5,0.5,0.8660254,0,0)"
       inkscape:transform-center-y="29.250064" />
    <path
       inkscape:connector-curvature="0"
       id="path6106"
       d="m 87.884134,880.49722 0,13.26293"
       style="fill:none;stroke:#000000;stroke-width:0.99921274;stroke-linecap:butt;stroke-linejoin:miter;stroke-miterlimit:4;stroke-opacity:1;stroke-dasharray:none;marker-start:url(#Arrow1Mstart);marker-end:none"
       sodipodi:nodetypes="cc" />
    <g
       inkscape:transform-center-x="48.572824"
       transform="matrix(-2.0076302,1.8334293,1.8339066,2.0077116,-1605.2954,-929.60958)"
       id="g6108"
       inkscape:transform-center-y="16.476996">
      <path
         sodipodi:open="true"
         sodipodi:end="6.1049168"
         sodipodi:start="5.7295946"
         sodipodi:type="arc"
         style="fill:none;stroke:#000000;stroke-width:0.29531792;marker-end:none"
         id="path6110"
         sodipodi:cx="19.48819"
         sodipodi:cy="62.007862"
         sodipodi:rx="8.8582678"
         sodipodi:ry="8.8582678"
         d="m 27.023406,57.350672 c 0.584365,0.945488 0.98557,1.992507 1.182667,3.086391"
         transform="matrix(1.2453674,0,0,1.2453674,-8.3785451,854.17141)" />
      <path
         style="fill:none;stroke:#000000;stroke-width:0.3674897;stroke-linecap:butt;stroke-linejoin:miter;stroke-miterlimit:4;stroke-opacity:1;stroke-dasharray:none;marker-end:url(#Arrow1Mend)"
         d="m 25.714158,926.46853 -0.50679,-1.11062"
         id="path6112"
         inkscape:connector-curvature="0"
         sodipodi:nodetypes="cc" />
    </g>
    <g
       inkscape:transform-center-y="-41.538363"
       id="g6114"
       transform="matrix(-2.3460789,-1.3740291,-1.3739654,2.3465589,1394.4128,-1217.1291)"
       inkscape:transform-center-x="30.175586">
      <path
         transform="matrix(1.2453674,0,0,1.2453674,-8.3785451,854.17141)"
         d="m 27.023406,57.350672 c 0.584365,0.945488 0.98557,1.992507 1.182667,3.086391"
         sodipodi:ry="8.8582678"
         sodipodi:rx="8.8582678"
         sodipodi:cy="62.007862"
         sodipodi:cx="19.48819"
         id="path6116"
         style="fill:none;stroke:#000000;stroke-width:0.29531792;marker-end:none"
         sodipodi:type="arc"
         sodipodi:start="5.7295946"
         sodipodi:end="6.1049168"
         sodipodi:open="true" />
      <path
         sodipodi:nodetypes="cc"
         inkscape:connector-curvature="0"
         id="path6118"
         d="m 25.714158,926.46853 -0.50679,-1.11062"
         style="fill:none;stroke:#000000;stroke-width:0.3674897;stroke-linecap:butt;stroke-linejoin:miter;stroke-miterlimit:4;stroke-opacity:1;stroke-dasharray:none;marker-end:url(#Arrow1Mend)" />
    </g>
    <g
       inkscape:transform-center-y="-24.952626"
       id="g6120"
       transform="matrix(0.94519312,-2.5492454,-2.5497069,-0.94504697,2420.0144,1852.7239)"
       inkscape:transform-center-x="-20.790197">
      <path
         sodipodi:nodetypes="cc"
         inkscape:connector-curvature="0"
         id="path6122"
         d="M 29.321128,57.267957 C 28.688983,57.022574 28.075641,57.203 27.567624,57.923019"
         style="fill:none;stroke:#000000;stroke-width:0.29531792;marker-end:none"
         transform="matrix(1.2453674,0,0,1.2453674,-8.3785451,854.17141)" />
      <path
         sodipodi:nodetypes="cc"
         inkscape:connector-curvature="0"
         id="path6124"
         d="m 28.754894,925.61483 0.753482,0.0994"
         style="fill:none;stroke:#000000;stroke-width:0.3674897;stroke-linecap:butt;stroke-linejoin:miter;stroke-miterlimit:4;stroke-opacity:1;stroke-dasharray:none;marker-end:url(#Arrow1Mend)" />
    </g>
    <g
       inkscape:transform-center-y="1.2712801"
       id="g6132"
       transform="matrix(-2.4920694,-0.85633207,-0.85617962,2.4925132,940.58966,-1342.2286)"
       inkscape:transform-center-x="20.476426">
      <path
         transform="matrix(1.2453674,0,0,1.2453674,-8.3785451,854.17141)"
         d="M 27.386024,57.996238 A 8.8582678,8.8582678 0 0 1 21.518317,70.630361"
         sodipodi:ry="8.8582678"
         sodipodi:rx="8.8582678"
         sodipodi:cy="62.007862"
         sodipodi:cx="19.48819"
         id="path6134"
         style="fill:none;stroke:#000000;stroke-width:0.30470255;marker-end:none"
         sodipodi:type="arc"
         sodipodi:start="5.8132061"
         sodipodi:end="7.6227477"
         sodipodi:open="true" />
      <path
         sodipodi:nodetypes="cc"
         inkscape:connector-curvature="0"
         id="path6136"
         d="M 25.797013,926.52233 25.096302,925.3734"
         style="fill:none;stroke:#000000;stroke-width:0.37916782;stroke-linecap:butt;stroke-linejoin:miter;stroke-miterlimit:4;stroke-opacity:1;stroke-dasharray:none;marker-end:url(#Arrow1Mend)" />
    </g>
    <path
       sodipodi:nodetypes="cc"
       style="fill:none;stroke:#000000;stroke-width:0.99921274;stroke-linecap:butt;stroke-linejoin:miter;stroke-miterlimit:4;stroke-opacity:1;stroke-dasharray:none;marker-start:url(#Arrow1Mstart);marker-end:none"
       d="m 87.884134,1032.7777 0,13.2629"
       id="path6138"
       inkscape:connector-curvature="0" />
  </g>
</svg>
