<?xml version="1.0" encoding="UTF-8" standalone="no"?>
<!-- Created with Inkscape (http://www.inkscape.org/) -->

<svg
   xmlns:ns0="http://www.iki.fi/pav/software/textext/"
   xmlns:dc="http://purl.org/dc/elements/1.1/"
   xmlns:cc="http://creativecommons.org/ns#"
   xmlns:rdf="http://www.w3.org/1999/02/22-rdf-syntax-ns#"
   xmlns:svg="http://www.w3.org/2000/svg"
   xmlns="http://www.w3.org/2000/svg"
   xmlns:sodipodi="http://sodipodi.sourceforge.net/DTD/sodipodi-0.dtd"
   xmlns:inkscape="http://www.inkscape.org/namespaces/inkscape"
   width="283.46457"
   height="88.582672"
   id="svg3041"
   version="1.1"
   inkscape:version="0.48.2 r9819"
   sodipodi:docname="Serieschakeling.svg">
  <sodipodi:namedview
     id="base"
     pagecolor="#ffffff"
     bordercolor="#666666"
     borderopacity="1.0"
     inkscape:pageopacity="0.0"
     inkscape:pageshadow="2"
     inkscape:zoom="2.8"
     inkscape:cx="109.42936"
     inkscape:cy="104.5"
     inkscape:document-units="mm"
     inkscape:current-layer="layer1"
     showgrid="false"
     inkscape:window-width="1366"
     inkscape:window-height="706"
     inkscape:window-x="-8"
     inkscape:window-y="-8"
     inkscape:window-maximized="1"
     units="mm">
    <inkscape:grid
       spacingy="1mm"
       spacingx="1mm"
       units="mm"
       snapvisiblegridlinesonly="true"
       enabled="true"
       visible="true"
       empspacing="5"
       id="grid2992"
       type="xygrid" />
  </sodipodi:namedview>
  <defs
     id="defs3043" />
  <metadata
     id="metadata3046">
    <rdf:RDF>
      <cc:Work
         rdf:about="">
        <dc:format>image/svg+xml</dc:format>
        <dc:type
           rdf:resource="http://purl.org/dc/dcmitype/StillImage" />
        <dc:title />
      </cc:Work>
    </rdf:RDF>
  </metadata>
  <g
     transform="translate(0,-963.77945)"
     id="layer1"
     inkscape:groupmode="layer"
     inkscape:label="Laag 1">
    <g
       transform="translate(-24.80315,42.519687)"
       id="g4505">
      <path
         style="fill:none;stroke:#000000;stroke-width:3.54330707;stroke-linecap:butt;stroke-linejoin:miter;stroke-miterlimit:4;stroke-opacity:1;stroke-dasharray:none"
         d="m 209.05512,946.06301 c 35.43307,0 88.58268,13.2874 88.58268,53.14957"
         id="path3980"
         inkscape:connector-curvature="0"
         sodipodi:nodetypes="cc" />
      <g
         id="g3986">
        <path
           sodipodi:nodetypes="cc"
           transform="translate(0,698.03145)"
           inkscape:connector-curvature="0"
           id="path3976"
           d="m 35.433071,301.18108 c 17.716535,-17.71653 53.149606,-53.1496 141.732279,-53.1496"
           style="fill:none;stroke:#000000;stroke-width:3.54330707;stroke-linecap:butt;stroke-linejoin:miter;stroke-miterlimit:4;stroke-opacity:1;stroke-dasharray:none" />
        <path
           transform="translate(0,698.03145)"
           inkscape:connector-curvature="0"
           id="path3982"
           d="m 177.16535,240.94486 0,14.17323"
           style="fill:none;stroke:#000000;stroke-width:1px;stroke-linecap:butt;stroke-linejoin:miter;stroke-opacity:1" />
        <path
           style="fill:none;stroke:#000000;stroke-width:1px;stroke-linecap:butt;stroke-linejoin:miter;stroke-opacity:1"
           d="m 30.282621,994.24066 10.022038,10.02204"
           id="path3984"
           inkscape:connector-curvature="0" />
      </g>
      <path
         style="fill:none;stroke:#000000;stroke-width:1px;stroke-linecap:butt;stroke-linejoin:miter;stroke-opacity:1"
         d="m 209.05512,240.94486 0,14.17323"
         id="path3991"
         inkscape:connector-curvature="0"
         transform="translate(0,698.03145)" />
      <path
         style="fill:none;stroke:#000000;stroke-width:1px;stroke-linecap:butt;stroke-linejoin:miter;stroke-opacity:1"
         d="m 290.55118,301.18108 14.17323,0"
         id="path3993"
         inkscape:connector-curvature="0"
         transform="translate(0,698.03145)" />
      <path
         style="fill:none;stroke:#000000;stroke-width:3.54330707;stroke-linecap:butt;stroke-linejoin:miter;stroke-miterlimit:4;stroke-opacity:1;stroke-dasharray:none"
         d="m 177.16535,248.03148 31.88977,0"
         id="path3995"
         inkscape:connector-curvature="0"
         transform="translate(0,698.03145)" />
    </g>
    <g
       ns0:preamble="D:\\Onderwijs\\FLUI\\Cursus\\FLUI_theorie\\tex\\commands.tex"
       ns0:text="1"
       word-spacing="normal"
       letter-spacing="normal"
       font-size-adjust="none"
       font-stretch="normal"
       font-weight="normal"
       font-variant="normal"
       font-style="normal"
       stroke-miterlimit="10.433"
       xml:space="preserve"
       transform="matrix(1.25,0,0,-1.25,-227.14286,1881.7857)"
       id="content"
       style="font-style:normal;font-variant:normal;font-weight:normal;font-stretch:normal;letter-spacing:normal;word-spacing:normal;text-anchor:start;fill:none;stroke:#000000;stroke-linecap:butt;stroke-linejoin:miter;stroke-miterlimit:10.43299961;stroke-opacity:1;stroke-dasharray:none;stroke-dashoffset:0">
<path
   id="path3020"
   d="m 226.36,713.48 0,0.01 0,0.01 0,0.02 0,0.01 0,0 0,0.01 0,0.01 0,0.01 0,0.01 0,0.01 0,0.01 0,0.01 0,0 -0.01,0.01 0,0.01 0,0 0,0.01 0,0.01 0,0.01 0,0.01 -0.01,0.01 0,0.01 0,0.01 -0.01,0 0,0.01 -0.01,0.01 0,0 -0.01,0.01 -0.01,0 -0.01,0.01 0,0 -0.01,0 0,0 -0.01,0 0,0 -0.01,0 -0.01,0.01 0,0 -0.01,0 -0.01,0 0,0 -0.01,0 -0.01,0 -0.01,0 0,0 -0.01,0 -0.01,0 -0.01,0 -0.01,0 -0.01,0 -0.01,0 -0.01,0 c -0.62,-0.64 -1.49,-0.64 -1.81,-0.64 v -0.3 c 0.2,0 0.78,0 1.3,0.25 v -5.14 c 0,-0.36 -0.03,-0.48 -0.92,-0.48 h -0.32 v -0.3 c 0.35,0.03 1.21,0.03 1.61,0.03 0.4,0 1.26,0 1.61,-0.03 v 0.3 h -0.32 c -0.89,0 -0.92,0.11 -0.92,0.48 z"
   inkscape:connector-curvature="0"
   style="fill:#000000;stroke-width:0" />
</g>    <g
       id="g3064"
       transform="matrix(1.25,0,0,-1.25,-119.28572,1865.7143)"
       xml:space="preserve"
       stroke="black"
       stroke-linecap="butt"
       stroke-linejoin="miter"
       stroke-miterlimit="10.433"
       stroke-dasharray="none"
       stroke-dashoffset="0"
       stroke-opacity="1"
       fill="none"
       fill-rule="evenodd"
       fill-opacity="1"
       font-style="normal"
       font-variant="normal"
       font-weight="normal"
       font-stretch="normal"
       font-size-adjust="none"
       letter-spacing="normal"
       word-spacing="normal"
       text-anchor="start"
       ns0:text="2"
       ns0:preamble="D:\\Onderwijs\\FLUI\\Cursus\\FLUI_theorie\\tex\\commands.tex"
       style="font-style:normal;font-variant:normal;font-weight:normal;font-stretch:normal;letter-spacing:normal;word-spacing:normal;text-anchor:start;fill:none;stroke:#000000;stroke-linecap:butt;stroke-linejoin:miter;stroke-miterlimit:10.43299961;stroke-opacity:1;stroke-dasharray:none;stroke-dashoffset:0">
<path
   d="M224.7,707.89 L225.75,708.91 C227.3,710.28,227.9,710.82,227.9,711.81 C227.9,712.95,227,713.74,225.79,713.74 C224.67,713.74,223.93,712.83,223.93,711.94 C223.93,711.39,224.43,711.39,224.46,711.39 C224.63,711.39,224.97,711.51,224.97,711.91 C224.97,712.17,224.79,712.43,224.45,712.43 C224.37,712.43,224.35,712.43,224.32,712.42 C224.55,713.07,225.08,713.43,225.66,713.43 C226.57,713.43,226.99,712.63,226.99,711.81 C226.99,711.02,226.5,710.23,225.95,709.62 L224.04,707.49 C223.93,707.38,223.93,707.36,223.93,707.13 H227.62 L227.9,708.85 H227.65 C227.6,708.55,227.53,708.12,227.43,707.97 C227.36,707.89,226.71,707.89,226.49,707.89 Z "
   stroke-width="0"
   fill="black"
   id="path3066" />
</g>    <g
       style="font-style:normal;font-variant:normal;font-weight:normal;font-stretch:normal;letter-spacing:normal;word-spacing:normal;text-anchor:start;fill:none;stroke:#000000;stroke-linecap:butt;stroke-linejoin:miter;stroke-miterlimit:10.43299961;stroke-opacity:1;stroke-dasharray:none;stroke-dashoffset:0"
       ns0:preamble="D:\\Onderwijs\\FLUI\\Cursus\\FLUI_theorie\\tex\\commands.tex"
       ns0:text="3"
       text-anchor="start"
       word-spacing="normal"
       letter-spacing="normal"
       font-size-adjust="none"
       font-stretch="normal"
       font-weight="normal"
       font-variant="normal"
       font-style="normal"
       fill-opacity="1"
       fill-rule="evenodd"
       fill="none"
       stroke-opacity="1"
       stroke-dashoffset="0"
       stroke-dasharray="none"
       stroke-miterlimit="10.433"
       stroke-linejoin="miter"
       stroke-linecap="butt"
       stroke="black"
       xml:space="preserve"
       transform="matrix(1.25,0,0,-1.25,-40.000006,1879.6429)"
       id="g3108">
<path
   id="path3110"
   fill="black"
   stroke-width="0"
   d="M226.32,710.62 L226.39,710.65 L226.47,710.68 L226.54,710.71 L226.61,710.74 L226.68,710.78 L226.75,710.82 L226.81,710.86 L226.88,710.9 L226.94,710.94 L227,710.99 L227.06,711.04 L227.12,711.09 L227.17,711.14 L227.22,711.19 L227.27,711.25 L227.32,711.3 L227.36,711.36 L227.41,711.42 L227.45,711.48 L227.48,711.54 L227.52,711.61 L227.55,711.67 L227.58,711.74 L227.61,711.8 L227.63,711.87 L227.65,711.94 L227.67,712.01 L227.68,712.08 L227.7,712.15 L227.7,712.22 L227.71,712.3 L227.71,712.37 C227.71,713.18,226.84,713.74,225.88,713.74 C224.88,713.74,224.12,713.15,224.12,712.39 C224.12,712.06,224.34,711.87,224.63,711.87 C224.93,711.87,225.13,712.09,225.13,712.38 C225.13,712.88,224.67,712.88,224.52,712.88 C224.82,713.36,225.48,713.49,225.84,713.49 C226.25,713.49,226.79,713.27,226.79,712.38 C226.79,712.26,226.77,711.68,226.52,711.25 C226.22,710.77,225.88,710.74,225.63,710.73 C225.55,710.72,225.31,710.7,225.24,710.7 C225.16,710.69,225.09,710.68,225.09,710.58 C225.09,710.47,225.16,710.47,225.33,710.47 H225.77 C226.59,710.47,226.95,709.8,226.95,708.82 C226.95,707.47,226.27,707.18,225.83,707.18 C225.4,707.18,224.66,707.35,224.31,707.94 C224.66,707.89,224.96,708.11,224.96,708.49 C224.96,708.84,224.7,709.04,224.41,709.04 C224.17,709.04,223.85,708.9,223.85,708.47 C223.85,707.56,224.77,706.91,225.86,706.91 C227.07,706.91,227.98,707.81,227.98,708.82 C227.98,709.64,227.35,710.41,226.32,710.62 Z " />
</g>  </g>
</svg>
