<?xml version="1.0" encoding="UTF-8" standalone="no"?>
<!-- Created with Inkscape (http://www.inkscape.org/) -->

<svg
   xmlns:ns0="http://www.iki.fi/pav/software/textext/"
   xmlns:osb="http://www.openswatchbook.org/uri/2009/osb"
   xmlns:dc="http://purl.org/dc/elements/1.1/"
   xmlns:cc="http://creativecommons.org/ns#"
   xmlns:rdf="http://www.w3.org/1999/02/22-rdf-syntax-ns#"
   xmlns:svg="http://www.w3.org/2000/svg"
   xmlns="http://www.w3.org/2000/svg"
   xmlns:sodipodi="http://sodipodi.sourceforge.net/DTD/sodipodi-0.dtd"
   xmlns:inkscape="http://www.inkscape.org/namespaces/inkscape"
   width="235.43495"
   height="121.36678"
   id="svg3041"
   version="1.1"
   inkscape:version="0.48.2 r9819"
   sodipodi:docname="45gradenbocht.svg">
  <sodipodi:namedview
     id="base"
     pagecolor="#ffffff"
     bordercolor="#666666"
     borderopacity="1.0"
     inkscape:pageopacity="0.0"
     inkscape:pageshadow="2"
     inkscape:zoom="1.979899"
     inkscape:cx="79.23542"
     inkscape:cy="43.085229"
     inkscape:document-units="mm"
     inkscape:current-layer="layer1"
     showgrid="false"
     inkscape:window-width="1366"
     inkscape:window-height="706"
     inkscape:window-x="-8"
     inkscape:window-y="-8"
     inkscape:window-maximized="1"
     units="mm"
     inkscape:object-paths="true"
     inkscape:snap-nodes="false"
     fit-margin-left="0.5"
     fit-margin-top="0.5"
     fit-margin-bottom="0.5"
     fit-margin-right="0.5">
    <inkscape:grid
       spacingy="1mm"
       spacingx="1mm"
       units="mm"
       snapvisiblegridlinesonly="true"
       enabled="true"
       visible="true"
       empspacing="5"
       id="grid2992"
       type="xygrid" />
  </sodipodi:namedview>
  <defs
     id="defs3043">
    <linearGradient
       osb:paint="solid"
       id="linearGradient3786">
      <stop
         id="stop3788"
         offset="0"
         style="stop-color:#000000;stop-opacity:1;" />
    </linearGradient>
    <linearGradient
       osb:paint="solid"
       id="linearGradient4912">
      <stop
         id="stop4914"
         offset="0"
         style="stop-color:#00fcff;stop-opacity:1;" />
    </linearGradient>
    <marker
       inkscape:stockid="Arrow1Mstart"
       orient="auto"
       refY="0"
       refX="0"
       id="Arrow1Mstart"
       style="overflow:visible">
      <path
         inkscape:connector-curvature="0"
         id="path3776"
         d="M 0,0 5,-5 -12.5,0 5,5 0,0 z"
         style="fill-rule:evenodd;stroke:#000000;stroke-width:1pt;marker-start:none"
         transform="matrix(0.4,0,0,0.4,4,0)" />
    </marker>
    <marker
       inkscape:stockid="Arrow1Mend"
       orient="auto"
       refY="0"
       refX="0"
       id="Arrow1Mend"
       style="overflow:visible">
      <path
         inkscape:connector-curvature="0"
         id="path3779"
         d="M 0,0 5,-5 -12.5,0 5,5 0,0 z"
         style="fill-rule:evenodd;stroke:#000000;stroke-width:1pt;marker-start:none"
         transform="matrix(-0.4,0,0,-0.4,-4,0)" />
    </marker>
  </defs>
  <metadata
     id="metadata3046">
    <rdf:RDF>
      <cc:Work
         rdf:about="">
        <dc:format>image/svg+xml</dc:format>
        <dc:type
           rdf:resource="http://purl.org/dc/dcmitype/StillImage" />
        <dc:title />
      </cc:Work>
    </rdf:RDF>
  </metadata>
  <g
     transform="translate(-50.118109,-932.88111)"
     id="layer1"
     inkscape:groupmode="layer"
     inkscape:label="Laag 1">
    <g
       transform="matrix(1.4186046,0,0,1.4186046,6.650797,-398.02633)"
       id="g3833">
      <path
         style="fill:#6fa5d3;fill-opacity:1;fill-rule:nonzero;stroke:none"
         d="m 31.889764,946.06291 74.409446,0 c 27.62389,1.62579 31.63629,7.3805 47.90987,22.92815 l 14.28085,14.20752 -1.9545,23.10052 -24.80315,-24.80311 c -7.08661,-7.08661 -14.17322,-17.71654 -35.43307,-17.71654 l -74.409446,0 z"
         id="rect3003"
         inkscape:connector-curvature="0"
         sodipodi:nodetypes="ccccccccc" />
      <g
         id="g3809"
         transform="matrix(0.50000002,0,0,0.35714295,15.944879,651.2091)">
        <path
           style="fill:#ffffff;fill-rule:evenodd;stroke:none"
           d="m 38.976382,850.39362 c -3.543307,7.08661 -3.543307,24.80315 0,24.80315 m 0,-24.80315 c -3.543307,-7.08661 -3.543307,-24.80315 0,-24.80315 l -7.086614,0 0,49.6063 7.086614,0"
           id="path3791"
           inkscape:connector-curvature="0"
           sodipodi:nodetypes="ccccccc" />
        <path
           sodipodi:nodetypes="czzc"
           inkscape:connector-curvature="0"
           id="path3765"
           d="m 38.976382,825.59047 c -3.543307,0 -3.543307,17.71654 0,24.80315 3.543307,7.08661 3.543307,24.80315 0,24.80315 -3.543307,0 -3.543307,-17.71654 0,-24.80315"
           style="fill:none;stroke:#000000;stroke-width:1.18214679;stroke-linecap:butt;stroke-linejoin:miter;stroke-miterlimit:4;stroke-opacity:1;stroke-dasharray:none" />
      </g>
      <path
         sodipodi:nodetypes="ccccccccc"
         inkscape:connector-curvature="0"
         id="path3823"
         d="m 168.48993,983.19858 14.11634,14.11634 6.55401,6.55398 4.97642,5.1989 -12.12699,12.572 -5.37696,-5.2434 -6.55401,-6.554 -14.11634,-14.11629 z"
         style="fill:#6fa5d3;fill-opacity:1;fill-rule:nonzero;stroke:none" />
      <g
         transform="matrix(-0.3535534,-0.3535534,0.2525382,-0.2525382,-14.004237,1242.7457)"
         id="g3817">
        <path
           sodipodi:nodetypes="ccccccc"
           inkscape:connector-curvature="0"
           id="path3819"
           d="m 38.976382,850.39362 c -3.543307,7.08661 -3.543307,24.80315 0,24.80315 m 0,-24.80315 c -3.543307,-7.08661 -3.543307,-24.80315 0,-24.80315 l -4.711002,-1.3761 0.416438,53.35776 4.294564,-2.37536"
           style="fill:#ffffff;fill-rule:evenodd;stroke:none" />
        <path
           style="fill:none;stroke:#000000;stroke-width:1.18214679;stroke-linecap:butt;stroke-linejoin:miter;stroke-miterlimit:4;stroke-opacity:1;stroke-dasharray:none"
           d="m 38.976382,825.59047 c -3.543307,0 -3.543307,17.71654 0,24.80315 3.543307,7.08661 3.543307,24.80315 0,24.80315 -3.543307,0 -3.543307,-17.71654 0,-24.80315"
           id="path3821"
           inkscape:connector-curvature="0"
           sodipodi:nodetypes="czzc" />
      </g>
      <path
         inkscape:connector-curvature="0"
         id="path3829"
         d="m 35.763496,963.74149 70.535714,0.038 c 19.46137,0.47678 24.80315,7.08657 35.43307,17.7165 l 38.97638,38.97641"
         style="fill:none;stroke:#000000;stroke-width:0.49954823;stroke-linecap:butt;stroke-linejoin:miter;stroke-miterlimit:4;stroke-opacity:1;stroke-dasharray:none"
         sodipodi:nodetypes="cccc" />
      <path
         sodipodi:nodetypes="cccc"
         style="fill:none;stroke:#000000;stroke-width:0.49954823;stroke-linecap:butt;stroke-linejoin:miter;stroke-miterlimit:4;stroke-opacity:1;stroke-dasharray:none"
         d="m 35.433071,946.06291 70.866139,4e-5 c 13.94059,0.0327 28.34646,3.54326 38.97638,14.17319 l 48.03269,47.78106"
         id="path3831"
         inkscape:connector-curvature="0" />
    </g>
    <g
       transform="translate(20,-2)"
       id="g3936">
      <path
         style="fill:none;stroke:#000000;stroke-width:0.7086615;stroke-linecap:butt;stroke-linejoin:miter;stroke-miterlimit:4;stroke-opacity:1;stroke-dasharray:none"
         d="m 124.01575,937.08771 0,43.24772"
         id="path3825"
         inkscape:connector-curvature="0" />
      <g
         id="g3093">
        <path
           inkscape:connector-curvature="0"
           id="path3849"
           d="m 120.47244,946.06292 0,-9.05583 7.08662,0 0,9.05583"
           style="fill:none;stroke:#000000;stroke-width:0.70866144;stroke-linecap:butt;stroke-linejoin:miter;stroke-miterlimit:4;stroke-opacity:1;stroke-dasharray:none" />
        <g
           id="g3887"
           transform="matrix(1,0,0,0.43448243,0.08928571,531.90047)">
          <path
             style="fill:none;stroke:#000000;stroke-width:1.07510948;stroke-linecap:butt;stroke-linejoin:miter;stroke-miterlimit:4;stroke-opacity:1;stroke-dasharray:none"
             d="m 120.47244,936.49287 -1.62499,0 0,7.08662 1.62499,0"
             id="path3853"
             inkscape:connector-curvature="0" />
          <path
             inkscape:connector-curvature="0"
             id="path3857"
             d="m 129.58767,938.41251 1.21727,0 0,3.24734 -1.21727,0"
             style="fill:none;stroke:#000000;stroke-width:1.07510948;stroke-linecap:butt;stroke-linejoin:miter;stroke-miterlimit:4;stroke-opacity:1;stroke-dasharray:none" />
          <g
             id="g3865"
             transform="matrix(0.60106004,0,0,1,48.024177,4.6031781)">
            <path
               transform="translate(0,910.62985)"
               inkscape:connector-curvature="0"
               id="path3861"
               d="m 120.37946,26.50907 -1.85267,0 -0.35715,-0.424107"
               style="fill:none;stroke:#000000;stroke-width:0.69336796;stroke-linecap:butt;stroke-linejoin:miter;stroke-miterlimit:4;stroke-opacity:1;stroke-dasharray:none" />
            <path
               style="fill:none;stroke:#000000;stroke-width:0.69336796;stroke-linecap:butt;stroke-linejoin:miter;stroke-miterlimit:4;stroke-opacity:1;stroke-dasharray:none"
               d="m 120.37946,937.18356 -1.85267,0 -0.35715,0.42411"
               id="path3863"
               inkscape:connector-curvature="0" />
          </g>
          <g
             id="g3869"
             transform="matrix(0.62782892,0,0,1,44.809645,1.3503811)">
            <path
               style="fill:none;stroke:#000000;stroke-width:0.67842531;stroke-linecap:butt;stroke-linejoin:miter;stroke-miterlimit:4;stroke-opacity:1;stroke-dasharray:none"
               d="m 120.37946,26.50907 -1.85267,0 -0.35715,-0.424107"
               id="path3871"
               inkscape:connector-curvature="0"
               transform="translate(0,910.62985)" />
            <path
               inkscape:connector-curvature="0"
               id="path3873"
               d="m 120.37946,937.18356 -1.85267,0 -0.35715,0.42411"
               style="fill:none;stroke:#000000;stroke-width:0.67842531;stroke-linecap:butt;stroke-linejoin:miter;stroke-miterlimit:4;stroke-opacity:1;stroke-dasharray:none" />
          </g>
          <path
             inkscape:connector-curvature="0"
             id="path3079"
             d="m 127.77602,936.49287 1.62499,0 0,7.08662 -1.62499,0"
             style="fill:none;stroke:#000000;stroke-width:1.07510948;stroke-linecap:butt;stroke-linejoin:miter;stroke-miterlimit:4;stroke-opacity:1;stroke-dasharray:none" />
          <g
             transform="matrix(-0.60106004,0,0,1,200.22428,4.6031781)"
             id="g3081">
            <path
               style="fill:none;stroke:#000000;stroke-width:0.69336796;stroke-linecap:butt;stroke-linejoin:miter;stroke-miterlimit:4;stroke-opacity:1;stroke-dasharray:none"
               d="m 120.37946,26.50907 -1.85267,0 -0.35715,-0.424107"
               id="path3083"
               inkscape:connector-curvature="0"
               transform="translate(0,910.62985)" />
            <path
               inkscape:connector-curvature="0"
               id="path3085"
               d="m 120.37946,937.18356 -1.85267,0 -0.35715,0.42411"
               style="fill:none;stroke:#000000;stroke-width:0.69336796;stroke-linecap:butt;stroke-linejoin:miter;stroke-miterlimit:4;stroke-opacity:1;stroke-dasharray:none" />
          </g>
          <g
             transform="matrix(-0.62782892,0,0,1,203.43881,1.3503811)"
             id="g3087">
            <path
               transform="translate(0,910.62985)"
               inkscape:connector-curvature="0"
               id="path3089"
               d="m 120.37946,26.50907 -1.85267,0 -0.35715,-0.424107"
               style="fill:none;stroke:#000000;stroke-width:0.67842531;stroke-linecap:butt;stroke-linejoin:miter;stroke-miterlimit:4;stroke-opacity:1;stroke-dasharray:none" />
            <path
               style="fill:none;stroke:#000000;stroke-width:0.67842531;stroke-linecap:butt;stroke-linejoin:miter;stroke-miterlimit:4;stroke-opacity:1;stroke-dasharray:none"
               d="m 120.37946,937.18356 -1.85267,0 -0.35715,0.42411"
               id="path3091"
               inkscape:connector-curvature="0" />
          </g>
        </g>
      </g>
      <g
         transform="matrix(1,0,0,-1,0,1917.3557)"
         id="g3112">
        <path
           style="fill:none;stroke:#000000;stroke-width:0.70866144;stroke-linecap:butt;stroke-linejoin:miter;stroke-miterlimit:4;stroke-opacity:1;stroke-dasharray:none"
           d="m 120.47244,946.06292 0,-9.05583 7.08662,0 0,9.05583"
           id="path3114"
           inkscape:connector-curvature="0" />
        <g
           transform="matrix(1,0,0,0.43448243,0.08928571,531.90047)"
           id="g3116">
          <path
             inkscape:connector-curvature="0"
             id="path3118"
             d="m 120.47244,936.49287 -1.62499,0 0,7.08662 1.62499,0"
             style="fill:none;stroke:#000000;stroke-width:1.07510948;stroke-linecap:butt;stroke-linejoin:miter;stroke-miterlimit:4;stroke-opacity:1;stroke-dasharray:none" />
          <path
             style="fill:none;stroke:#000000;stroke-width:1.07510948;stroke-linecap:butt;stroke-linejoin:miter;stroke-miterlimit:4;stroke-opacity:1;stroke-dasharray:none"
             d="m 129.58767,938.41251 1.21727,0 0,3.24734 -1.21727,0"
             id="path3120"
             inkscape:connector-curvature="0" />
          <g
             transform="matrix(0.60106004,0,0,1,48.024177,4.6031781)"
             id="g3122">
            <path
               style="fill:none;stroke:#000000;stroke-width:0.69336796;stroke-linecap:butt;stroke-linejoin:miter;stroke-miterlimit:4;stroke-opacity:1;stroke-dasharray:none"
               d="m 120.37946,26.50907 -1.85267,0 -0.35715,-0.424107"
               id="path3124"
               inkscape:connector-curvature="0"
               transform="translate(0,910.62985)" />
            <path
               inkscape:connector-curvature="0"
               id="path3126"
               d="m 120.37946,937.18356 -1.85267,0 -0.35715,0.42411"
               style="fill:none;stroke:#000000;stroke-width:0.69336796;stroke-linecap:butt;stroke-linejoin:miter;stroke-miterlimit:4;stroke-opacity:1;stroke-dasharray:none" />
          </g>
          <g
             transform="matrix(0.62782892,0,0,1,44.809645,1.3503811)"
             id="g3128">
            <path
               transform="translate(0,910.62985)"
               inkscape:connector-curvature="0"
               id="path3130"
               d="m 120.37946,26.50907 -1.85267,0 -0.35715,-0.424107"
               style="fill:none;stroke:#000000;stroke-width:0.67842531;stroke-linecap:butt;stroke-linejoin:miter;stroke-miterlimit:4;stroke-opacity:1;stroke-dasharray:none" />
            <path
               style="fill:none;stroke:#000000;stroke-width:0.67842531;stroke-linecap:butt;stroke-linejoin:miter;stroke-miterlimit:4;stroke-opacity:1;stroke-dasharray:none"
               d="m 120.37946,937.18356 -1.85267,0 -0.35715,0.42411"
               id="path3132"
               inkscape:connector-curvature="0" />
          </g>
          <path
             style="fill:none;stroke:#000000;stroke-width:1.07510948;stroke-linecap:butt;stroke-linejoin:miter;stroke-miterlimit:4;stroke-opacity:1;stroke-dasharray:none"
             d="m 127.77602,936.49287 1.62499,0 0,7.08662 -1.62499,0"
             id="path3134"
             inkscape:connector-curvature="0" />
          <g
             id="g3136"
             transform="matrix(-0.60106004,0,0,1,200.22428,4.6031781)">
            <path
               transform="translate(0,910.62985)"
               inkscape:connector-curvature="0"
               id="path3138"
               d="m 120.37946,26.50907 -1.85267,0 -0.35715,-0.424107"
               style="fill:none;stroke:#000000;stroke-width:0.69336796;stroke-linecap:butt;stroke-linejoin:miter;stroke-miterlimit:4;stroke-opacity:1;stroke-dasharray:none" />
            <path
               style="fill:none;stroke:#000000;stroke-width:0.69336796;stroke-linecap:butt;stroke-linejoin:miter;stroke-miterlimit:4;stroke-opacity:1;stroke-dasharray:none"
               d="m 120.37946,937.18356 -1.85267,0 -0.35715,0.42411"
               id="path3140"
               inkscape:connector-curvature="0" />
          </g>
          <g
             id="g3142"
             transform="matrix(-0.62782892,0,0,1,203.43881,1.3503811)">
            <path
               style="fill:none;stroke:#000000;stroke-width:0.67842531;stroke-linecap:butt;stroke-linejoin:miter;stroke-miterlimit:4;stroke-opacity:1;stroke-dasharray:none"
               d="m 120.37946,26.50907 -1.85267,0 -0.35715,-0.424107"
               id="path3144"
               inkscape:connector-curvature="0"
               transform="translate(0,910.62985)" />
            <path
               inkscape:connector-curvature="0"
               id="path3146"
               d="m 120.37946,937.18356 -1.85267,0 -0.35715,0.42411"
               style="fill:none;stroke:#000000;stroke-width:0.67842531;stroke-linecap:butt;stroke-linejoin:miter;stroke-miterlimit:4;stroke-opacity:1;stroke-dasharray:none" />
          </g>
        </g>
      </g>
    </g>
    <path
       inkscape:connector-curvature="0"
       id="path2995"
       d="m 57.453376,956.47405 216.070534,0"
       style="fill:none;stroke:#000000;stroke-width:0.7086615;stroke-linecap:butt;stroke-linejoin:miter;stroke-miterlimit:4;stroke-opacity:1;stroke-dasharray:5.66929142, 1.41732285, 0.70866143, 1.41732285;stroke-dashoffset:0" />
    <path
       style="fill:none;stroke:#000000;stroke-width:0.70866144;stroke-linecap:butt;stroke-linejoin:miter;stroke-miterlimit:4;stroke-opacity:1;stroke-dasharray:5.66929138, 1.41732284, 0.70866142, 1.41732284;stroke-dashoffset:0"
       d="m 186.98064,956.71033 83.04686,83.04687"
       id="path4045"
       inkscape:connector-curvature="0" />
    <path
       sodipodi:open="true"
       sodipodi:end="0.75792094"
       sodipodi:start="0.028858721"
       transform="matrix(1.608871,0,0,1.608871,-140.15985,857.29285)"
       d="m 247.48155,63.010136 c -0.31403,10.878598 -4.62283,21.260667 -12.10403,29.164723"
       sodipodi:ry="44.285713"
       sodipodi:rx="44.285713"
       sodipodi:cy="61.732285"
       sodipodi:cx="203.21428"
       id="path4047"
       style="fill:none;stroke:#000000;stroke-width:0.44047126;stroke-miterlimit:4;stroke-dasharray:none;marker-start:url(#Arrow1Mstart);marker-end:url(#Arrow1Mend)"
       sodipodi:type="arc" />
    <g
       id="g3148"
       transform="matrix(0.70710678,0.70710678,-0.70710678,0.70710678,808.27877,221.46072)">
      <path
         inkscape:connector-curvature="0"
         id="path3150"
         d="m 124.01575,937.08771 0,43.24772"
         style="fill:none;stroke:#000000;stroke-width:0.7086615;stroke-linecap:butt;stroke-linejoin:miter;stroke-miterlimit:4;stroke-opacity:1;stroke-dasharray:none" />
      <g
         id="g3152">
        <path
           style="fill:none;stroke:#000000;stroke-width:0.70866144;stroke-linecap:butt;stroke-linejoin:miter;stroke-miterlimit:4;stroke-opacity:1;stroke-dasharray:none"
           d="m 120.47244,946.06292 0,-9.05583 7.08662,0 0,9.05583"
           id="path3154"
           inkscape:connector-curvature="0" />
        <g
           transform="matrix(1,0,0,0.43448243,0.08928571,531.90047)"
           id="g3156">
          <path
             inkscape:connector-curvature="0"
             id="path3158"
             d="m 120.47244,936.49287 -1.62499,0 0,7.08662 1.62499,0"
             style="fill:none;stroke:#000000;stroke-width:1.07510948;stroke-linecap:butt;stroke-linejoin:miter;stroke-miterlimit:4;stroke-opacity:1;stroke-dasharray:none" />
          <path
             style="fill:none;stroke:#000000;stroke-width:1.07510948;stroke-linecap:butt;stroke-linejoin:miter;stroke-miterlimit:4;stroke-opacity:1;stroke-dasharray:none"
             d="m 129.58767,938.41251 1.21727,0 0,3.24734 -1.21727,0"
             id="path3160"
             inkscape:connector-curvature="0" />
          <g
             transform="matrix(0.60106004,0,0,1,48.024177,4.6031781)"
             id="g3162">
            <path
               style="fill:none;stroke:#000000;stroke-width:0.69336796;stroke-linecap:butt;stroke-linejoin:miter;stroke-miterlimit:4;stroke-opacity:1;stroke-dasharray:none"
               d="m 120.37946,26.50907 -1.85267,0 -0.35715,-0.424107"
               id="path3164"
               inkscape:connector-curvature="0"
               transform="translate(0,910.62985)" />
            <path
               inkscape:connector-curvature="0"
               id="path3166"
               d="m 120.37946,937.18356 -1.85267,0 -0.35715,0.42411"
               style="fill:none;stroke:#000000;stroke-width:0.69336796;stroke-linecap:butt;stroke-linejoin:miter;stroke-miterlimit:4;stroke-opacity:1;stroke-dasharray:none" />
          </g>
          <g
             transform="matrix(0.62782892,0,0,1,44.809645,1.3503811)"
             id="g3168">
            <path
               transform="translate(0,910.62985)"
               inkscape:connector-curvature="0"
               id="path3170"
               d="m 120.37946,26.50907 -1.85267,0 -0.35715,-0.424107"
               style="fill:none;stroke:#000000;stroke-width:0.67842531;stroke-linecap:butt;stroke-linejoin:miter;stroke-miterlimit:4;stroke-opacity:1;stroke-dasharray:none" />
            <path
               style="fill:none;stroke:#000000;stroke-width:0.67842531;stroke-linecap:butt;stroke-linejoin:miter;stroke-miterlimit:4;stroke-opacity:1;stroke-dasharray:none"
               d="m 120.37946,937.18356 -1.85267,0 -0.35715,0.42411"
               id="path3172"
               inkscape:connector-curvature="0" />
          </g>
          <path
             style="fill:none;stroke:#000000;stroke-width:1.07510948;stroke-linecap:butt;stroke-linejoin:miter;stroke-miterlimit:4;stroke-opacity:1;stroke-dasharray:none"
             d="m 127.77602,936.49287 1.62499,0 0,7.08662 -1.62499,0"
             id="path3174"
             inkscape:connector-curvature="0" />
          <g
             id="g3176"
             transform="matrix(-0.60106004,0,0,1,200.22428,4.6031781)">
            <path
               transform="translate(0,910.62985)"
               inkscape:connector-curvature="0"
               id="path3178"
               d="m 120.37946,26.50907 -1.85267,0 -0.35715,-0.424107"
               style="fill:none;stroke:#000000;stroke-width:0.69336796;stroke-linecap:butt;stroke-linejoin:miter;stroke-miterlimit:4;stroke-opacity:1;stroke-dasharray:none" />
            <path
               style="fill:none;stroke:#000000;stroke-width:0.69336796;stroke-linecap:butt;stroke-linejoin:miter;stroke-miterlimit:4;stroke-opacity:1;stroke-dasharray:none"
               d="m 120.37946,937.18356 -1.85267,0 -0.35715,0.42411"
               id="path3180"
               inkscape:connector-curvature="0" />
          </g>
          <g
             id="g3182"
             transform="matrix(-0.62782892,0,0,1,203.43881,1.3503811)">
            <path
               style="fill:none;stroke:#000000;stroke-width:0.67842531;stroke-linecap:butt;stroke-linejoin:miter;stroke-miterlimit:4;stroke-opacity:1;stroke-dasharray:none"
               d="m 120.37946,26.50907 -1.85267,0 -0.35715,-0.424107"
               id="path3184"
               inkscape:connector-curvature="0"
               transform="translate(0,910.62985)" />
            <path
               inkscape:connector-curvature="0"
               id="path3186"
               d="m 120.37946,937.18356 -1.85267,0 -0.35715,0.42411"
               style="fill:none;stroke:#000000;stroke-width:0.67842531;stroke-linecap:butt;stroke-linejoin:miter;stroke-miterlimit:4;stroke-opacity:1;stroke-dasharray:none" />
          </g>
        </g>
      </g>
      <g
         id="g3188"
         transform="matrix(1,0,0,-1,0,1917.3557)">
        <path
           inkscape:connector-curvature="0"
           id="path3190"
           d="m 120.47244,946.06292 0,-9.05583 7.08662,0 0,9.05583"
           style="fill:none;stroke:#000000;stroke-width:0.70866144;stroke-linecap:butt;stroke-linejoin:miter;stroke-miterlimit:4;stroke-opacity:1;stroke-dasharray:none" />
        <g
           id="g3192"
           transform="matrix(1,0,0,0.43448243,0.08928571,531.90047)">
          <path
             style="fill:none;stroke:#000000;stroke-width:1.07510948;stroke-linecap:butt;stroke-linejoin:miter;stroke-miterlimit:4;stroke-opacity:1;stroke-dasharray:none"
             d="m 120.47244,936.49287 -1.62499,0 0,7.08662 1.62499,0"
             id="path3194"
             inkscape:connector-curvature="0" />
          <path
             inkscape:connector-curvature="0"
             id="path3196"
             d="m 129.58767,938.41251 1.21727,0 0,3.24734 -1.21727,0"
             style="fill:none;stroke:#000000;stroke-width:1.07510948;stroke-linecap:butt;stroke-linejoin:miter;stroke-miterlimit:4;stroke-opacity:1;stroke-dasharray:none" />
          <g
             id="g3198"
             transform="matrix(0.60106004,0,0,1,48.024177,4.6031781)">
            <path
               transform="translate(0,910.62985)"
               inkscape:connector-curvature="0"
               id="path3200"
               d="m 120.37946,26.50907 -1.85267,0 -0.35715,-0.424107"
               style="fill:none;stroke:#000000;stroke-width:0.69336796;stroke-linecap:butt;stroke-linejoin:miter;stroke-miterlimit:4;stroke-opacity:1;stroke-dasharray:none" />
            <path
               style="fill:none;stroke:#000000;stroke-width:0.69336796;stroke-linecap:butt;stroke-linejoin:miter;stroke-miterlimit:4;stroke-opacity:1;stroke-dasharray:none"
               d="m 120.37946,937.18356 -1.85267,0 -0.35715,0.42411"
               id="path3202"
               inkscape:connector-curvature="0" />
          </g>
          <g
             id="g3204"
             transform="matrix(0.62782892,0,0,1,44.809645,1.3503811)">
            <path
               style="fill:none;stroke:#000000;stroke-width:0.67842531;stroke-linecap:butt;stroke-linejoin:miter;stroke-miterlimit:4;stroke-opacity:1;stroke-dasharray:none"
               d="m 120.37946,26.50907 -1.85267,0 -0.35715,-0.424107"
               id="path3206"
               inkscape:connector-curvature="0"
               transform="translate(0,910.62985)" />
            <path
               inkscape:connector-curvature="0"
               id="path3208"
               d="m 120.37946,937.18356 -1.85267,0 -0.35715,0.42411"
               style="fill:none;stroke:#000000;stroke-width:0.67842531;stroke-linecap:butt;stroke-linejoin:miter;stroke-miterlimit:4;stroke-opacity:1;stroke-dasharray:none" />
          </g>
          <path
             inkscape:connector-curvature="0"
             id="path3210"
             d="m 127.77602,936.49287 1.62499,0 0,7.08662 -1.62499,0"
             style="fill:none;stroke:#000000;stroke-width:1.07510948;stroke-linecap:butt;stroke-linejoin:miter;stroke-miterlimit:4;stroke-opacity:1;stroke-dasharray:none" />
          <g
             transform="matrix(-0.60106004,0,0,1,200.22428,4.6031781)"
             id="g3212">
            <path
               style="fill:none;stroke:#000000;stroke-width:0.69336796;stroke-linecap:butt;stroke-linejoin:miter;stroke-miterlimit:4;stroke-opacity:1;stroke-dasharray:none"
               d="m 120.37946,26.50907 -1.85267,0 -0.35715,-0.424107"
               id="path3214"
               inkscape:connector-curvature="0"
               transform="translate(0,910.62985)" />
            <path
               inkscape:connector-curvature="0"
               id="path3216"
               d="m 120.37946,937.18356 -1.85267,0 -0.35715,0.42411"
               style="fill:none;stroke:#000000;stroke-width:0.69336796;stroke-linecap:butt;stroke-linejoin:miter;stroke-miterlimit:4;stroke-opacity:1;stroke-dasharray:none" />
          </g>
          <g
             transform="matrix(-0.62782892,0,0,1,203.43881,1.3503811)"
             id="g3218">
            <path
               transform="translate(0,910.62985)"
               inkscape:connector-curvature="0"
               id="path3220"
               d="m 120.37946,26.50907 -1.85267,0 -0.35715,-0.424107"
               style="fill:none;stroke:#000000;stroke-width:0.67842531;stroke-linecap:butt;stroke-linejoin:miter;stroke-miterlimit:4;stroke-opacity:1;stroke-dasharray:none" />
            <path
               style="fill:none;stroke:#000000;stroke-width:0.67842531;stroke-linecap:butt;stroke-linejoin:miter;stroke-miterlimit:4;stroke-opacity:1;stroke-dasharray:none"
               d="m 120.37946,937.18356 -1.85267,0 -0.35715,0.42411"
               id="path3222"
               inkscape:connector-curvature="0" />
          </g>
        </g>
      </g>
    </g>
    <g
       ns0:preamble=""
       ns0:text="45$^\\circ$"
       word-spacing="normal"
       letter-spacing="normal"
       font-size-adjust="none"
       font-stretch="normal"
       font-weight="normal"
       font-variant="normal"
       font-style="normal"
       stroke-miterlimit="10.433"
       xml:space="preserve"
       transform="matrix(1.25,0,0,-1.25,-21.862911,1871.6431)"
       id="content"
       style="font-style:normal;font-variant:normal;font-weight:normal;font-stretch:normal;letter-spacing:normal;word-spacing:normal;text-anchor:start;fill:none;stroke:#000000;stroke-linecap:butt;stroke-linejoin:miter;stroke-miterlimit:10.43299961;stroke-opacity:1;stroke-dasharray:none;stroke-dashoffset:0">
<path
   id="path3191"
   d="m 226.36,708.76 v -0.86 c 0,-0.36 -0.02,-0.47 -0.76,-0.47 h -0.21 v -0.3 c 0.41,0.03 0.93,0.03 1.35,0.03 0.41,0 0.94,0 1.35,-0.03 v 0.3 h -0.21 c -0.74,0 -0.76,0.11 -0.76,0.47 v 0.86 h 1 v 0.31 h -1 v 4.52 c 0,0.2 0,0.26 -0.16,0.26 -0.09,0 -0.11,0 -0.2,-0.12 l -3.05,-4.66 h 0.28 l 2.43,3.71 v -3.71 h -2.43 -0.28 v -0.31 z"
   inkscape:connector-curvature="0"
   style="fill:#000000;stroke-width:0" />
<path
   id="path3193"
   d="m 232.88,709.12 0,0.11 -0.01,0.11 -0.01,0.11 -0.02,0.1 -0.02,0.11 -0.02,0.1 -0.03,0.1 -0.03,0.1 -0.04,0.1 -0.04,0.09 -0.05,0.09 -0.04,0.09 -0.06,0.09 -0.05,0.08 -0.06,0.08 -0.06,0.07 -0.07,0.08 -0.06,0.06 -0.08,0.07 -0.07,0.06 -0.08,0.06 -0.08,0.05 -0.08,0.05 -0.08,0.04 -0.09,0.04 -0.09,0.04 -0.09,0.03 -0.09,0.02 -0.09,0.02 -0.1,0.02 -0.1,0 -0.1,0.01 c -0.48,0 -0.9,-0.16 -1.26,-0.51 v 1.94 c 0.2,-0.06 0.52,-0.13 0.84,-0.13 1.23,0 1.92,0.9 1.92,1.03 0,0.06 -0.03,0.11 -0.1,0.11 -0.01,0 -0.03,0 -0.08,-0.03 -0.2,-0.09 -0.68,-0.29 -1.35,-0.29 -0.4,0 -0.86,0.07 -1.32,0.28 -0.08,0.03 -0.1,0.03 -0.12,0.03 -0.1,0 -0.1,-0.08 -0.1,-0.24 v -2.94 c 0,-0.18 0,-0.26 0.14,-0.26 0.07,0 0.09,0.03 0.13,0.09 0.11,0.16 0.47,0.7 1.28,0.7 0.52,0 0.77,-0.46 0.85,-0.64 0.16,-0.36 0.17,-0.75 0.17,-1.25 0,-0.35 0,-0.94 -0.23,-1.36 -0.24,-0.39 -0.61,-0.65 -1.07,-0.65 -0.73,0 -1.29,0.53 -1.46,1.12 0.03,-0.01 0.06,-0.02 0.17,-0.02 0.33,0 0.5,0.25 0.5,0.48 0,0.24 -0.17,0.49 -0.5,0.49 -0.14,0 -0.49,-0.07 -0.49,-0.53 0,-0.85 0.69,-1.81 1.8,-1.81 1.16,0 2.17,0.95 2.17,2.21 z"
   inkscape:connector-curvature="0"
   style="fill:#000000;stroke-width:0" />
<path
   id="path3195"
   d="m 236.93,712.48 -0.01,0.08 0,0.07 -0.01,0.08 -0.01,0.07 -0.02,0.08 -0.02,0.07 -0.03,0.07 -0.02,0.07 -0.03,0.06 -0.04,0.07 -0.03,0.06 -0.04,0.06 -0.04,0.06 -0.05,0.06 -0.04,0.05 -0.05,0.05 -0.06,0.05 -0.05,0.05 -0.06,0.04 -0.06,0.04 -0.06,0.04 -0.06,0.04 -0.06,0.03 -0.07,0.03 -0.07,0.02 -0.07,0.03 -0.07,0.02 -0.07,0.01 -0.07,0.02 -0.08,0.01 -0.07,0 -0.08,0 v -0.34 c 0.65,0 1.16,-0.53 1.16,-1.15 0,-0.64 -0.52,-1.15 -1.16,-1.15 h 0 c -0.66,0 -1.16,0.53 -1.16,1.15 0,0.65 0.52,1.15 1.16,1.15 v 0.34 c -0.84,0 -1.5,-0.67 -1.5,-1.49 0,-0.84 0.68,-1.49 1.5,-1.49 0.83,0 1.5,0.67 1.5,1.49 z"
   inkscape:connector-curvature="0"
   style="fill:#000000;stroke-width:0" />
</g>  </g>
</svg>
