<?xml version="1.0" encoding="UTF-8" standalone="no"?>
<!-- Created with Inkscape (http://www.inkscape.org/) -->

<svg
   xmlns:dc="http://purl.org/dc/elements/1.1/"
   xmlns:cc="http://creativecommons.org/ns#"
   xmlns:rdf="http://www.w3.org/1999/02/22-rdf-syntax-ns#"
   xmlns:svg="http://www.w3.org/2000/svg"
   xmlns="http://www.w3.org/2000/svg"
   xmlns:sodipodi="http://sodipodi.sourceforge.net/DTD/sodipodi-0.dtd"
   xmlns:inkscape="http://www.inkscape.org/namespaces/inkscape"
   width="177.16534"
   height="152.3622"
   id="svg3009"
   version="1.1"
   inkscape:version="0.48.2 r9819"
   sodipodi:docname="afvoerbocht.svg">
  <sodipodi:namedview
     id="base"
     pagecolor="#ffffff"
     bordercolor="#666666"
     borderopacity="1.0"
     inkscape:pageopacity="0.0"
     inkscape:pageshadow="2"
     inkscape:zoom="2.8"
     inkscape:cx="103.31528"
     inkscape:cy="83.067005"
     inkscape:document-units="mm"
     inkscape:current-layer="layer1"
     showgrid="false"
     units="mm"
     inkscape:window-width="1280"
     inkscape:window-height="962"
     inkscape:window-x="-8"
     inkscape:window-y="-8"
     inkscape:window-maximized="1">
    <inkscape:grid
       type="xygrid"
       id="grid3017"
       empspacing="5"
       visible="true"
       enabled="true"
       snapvisiblegridlinesonly="true"
       units="mm"
       spacingx="1mm"
       spacingy="1mm"
       dotted="false" />
  </sodipodi:namedview>
  <defs
     id="defs3011">
    <marker
       inkscape:stockid="Arrow1Mstart"
       orient="auto"
       refY="0"
       refX="0"
       id="Arrow1Mstart"
       style="overflow:visible">
      <path
         inkscape:connector-curvature="0"
         id="path3776"
         d="M 0,0 5,-5 -12.5,0 5,5 0,0 z"
         style="fill-rule:evenodd;stroke:#000000;stroke-width:1pt;marker-start:none"
         transform="matrix(0.4,0,0,0.4,4,0)" />
    </marker>
    <marker
       inkscape:stockid="Arrow1Mend"
       orient="auto"
       refY="0"
       refX="0"
       id="Arrow1Mend"
       style="overflow:visible">
      <path
         inkscape:connector-curvature="0"
         id="path3779"
         d="M 0,0 5,-5 -12.5,0 5,5 0,0 z"
         style="fill-rule:evenodd;stroke:#000000;stroke-width:1pt;marker-start:none"
         transform="matrix(-0.4,0,0,-0.4,-4,0)" />
    </marker>
    <clipPath
       id="clipPath3799"
       clipPathUnits="userSpaceOnUse">
      <rect
         y="70.866158"
         x="88.58268"
         height="124.01575"
         width="124.01575"
         id="rect3801"
         style="fill:#ffffff;stroke:none" />
    </clipPath>
    <clipPath
       id="clipPath3803"
       clipPathUnits="userSpaceOnUse">
      <rect
         y="112.20473"
         x="88.582687"
         height="82.677162"
         width="82.677162"
         id="rect3805"
         style="fill:#ffffff;stroke:none" />
    </clipPath>
    <clipPath
       id="clipPath3807"
       clipPathUnits="userSpaceOnUse">
      <rect
         y="-53.149586"
         x="88.58268"
         height="248.03148"
         width="248.03148"
         id="rect3809"
         style="fill:#ffffff;stroke:none" />
    </clipPath>
  </defs>
  <metadata
     id="metadata3014">
    <rdf:RDF>
      <cc:Work
         rdf:about="">
        <dc:format>image/svg+xml</dc:format>
        <dc:type
           rdf:resource="http://purl.org/dc/dcmitype/StillImage" />
        <dc:title />
      </cc:Work>
    </rdf:RDF>
  </metadata>
  <g
     inkscape:label="Layer 1"
     inkscape:groupmode="layer"
     id="layer1"
     transform="translate(0,-900.00003)">
    <path
       inkscape:connector-curvature="0"
       id="path8895"
       d="m 15.700989,973.28676 0,-61.96977"
       style="fill:none;stroke:#000000;stroke-width:0.70866144;stroke-linecap:butt;stroke-linejoin:miter;stroke-miterlimit:4;stroke-opacity:1;stroke-dasharray:none;marker-start:url(#Arrow1Mstart);marker-end:url(#Arrow1Mend)" />
    <path
       clip-path="url(#clipPath3807)"
       transform="matrix(0.50000004,0,0,0.50000004,13.92935,915.9138)"
       d="m 159.44882,194.8819 c 0,39.13829 -31.72785,70.86614 -70.86614,70.86614 -39.13829,0 -70.866143,-31.72785 -70.866143,-70.86614 0,-39.13829 31.727853,-70.86615 70.866143,-70.86615 39.13829,0 70.86614,31.72786 70.86614,70.86615 z"
       sodipodi:ry="70.866142"
       sodipodi:rx="70.866142"
       sodipodi:cy="194.8819"
       sodipodi:cx="88.58268"
       id="path3011"
       style="fill:none;stroke:#000000;stroke-width:1.99842501;stroke-miterlimit:4;stroke-dasharray:none"
       sodipodi:type="arc" />
    <path
       inkscape:transform-center-y="-53.399404"
       inkscape:transform-center-x="-53.399404"
       clip-path="url(#clipPath3803)"
       sodipodi:type="arc"
       style="fill:none;stroke:#000000;stroke-width:0.66614175;stroke-miterlimit:4;stroke-dasharray:none"
       id="path3013"
       sodipodi:cx="88.58268"
       sodipodi:cy="194.8819"
       sodipodi:rx="70.866142"
       sodipodi:ry="70.866142"
       d="m 159.44882,194.8819 c 0,39.13829 -31.72785,70.86614 -70.86614,70.86614 -39.13829,0 -70.866143,-31.72785 -70.866143,-70.86614 0,-39.13829 31.727853,-70.86615 70.866143,-70.86615 39.13829,0 70.86614,31.72786 70.86614,70.86615 z"
       transform="matrix(1.5,0,0,1.5,-74.653332,721.0319)" />
    <path
       clip-path="url(#clipPath3799)"
       sodipodi:type="arc"
       style="fill:none;stroke:#000000;stroke-width:0.99921262;stroke-miterlimit:4;stroke-dasharray:7.99370098, 1.99842525, 0.99921262, 1.99842525;stroke-dashoffset:0"
       id="path3015"
       sodipodi:cx="88.58268"
       sodipodi:cy="194.8819"
       sodipodi:rx="70.866142"
       sodipodi:ry="70.866142"
       d="m 159.44882,194.8819 c 0,39.13829 -31.72785,70.86614 -70.86614,70.86614 -39.13829,0 -70.866143,-31.72785 -70.866143,-70.86614 0,-39.13829 31.727853,-70.86615 70.866143,-70.86615 39.13829,0 70.86614,31.72786 70.86614,70.86615 z"
       transform="translate(-30.361989,818.47285)" />
    <path
       inkscape:transform-center-y="-19.737988"
       inkscape:transform-center-x="-19.737994"
       sodipodi:type="arc"
       style="fill:none;stroke:#000000;stroke-width:1.8174659;stroke-miterlimit:4;stroke-dasharray:7.26986356, 7.26986356;stroke-dashoffset:0"
       id="path3811"
       sodipodi:cx="88.58268"
       sodipodi:cy="194.8819"
       sodipodi:rx="70.866142"
       sodipodi:ry="70.866142"
       d="m 159.44882,194.8819 c 0,39.13829 -31.72785,70.86614 -70.86614,70.86614 -39.13829,0 -70.866143,-31.72785 -70.866143,-70.86614 0,-39.13829 31.727853,-70.86615 70.866143,-70.86615 39.13829,0 70.86614,31.72786 70.86614,70.86615 z"
       transform="matrix(0.55000004,0,0,0.55000004,9.5002159,906.16971)"
       clip-path="url(#clipPath3807)" />
    <path
       transform="matrix(1.4500001,0,0,1.4500001,-70.224202,730.77598)"
       d="m 159.44882,194.8819 c 0,39.13829 -31.72785,70.86614 -70.86614,70.86614 -39.13829,0 -70.866143,-31.72785 -70.866143,-70.86614 0,-39.13829 31.727853,-70.86615 70.866143,-70.86615 39.13829,0 70.86614,31.72786 70.86614,70.86615 z"
       sodipodi:ry="70.866142"
       sodipodi:rx="70.866142"
       sodipodi:cy="194.8819"
       sodipodi:cx="88.58268"
       id="path3813"
       style="fill:none;stroke:#000000;stroke-width:0.68938363;stroke-miterlimit:4;stroke-dasharray:2.75753446, 2.75753446;stroke-dashoffset:0"
       sodipodi:type="arc"
       clip-path="url(#clipPath3803)"
       inkscape:transform-center-x="-51.627759"
       inkscape:transform-center-y="-51.627749" />
    <path
       sodipodi:nodetypes="ccccccc"
       inkscape:connector-curvature="0"
       id="path3815"
       d="m 58.220691,977.92168 0,3.54329 -35.43307,0 0,-77.95274 35.43307,0 0,3.54331 z"
       style="fill:none;stroke:#000000;stroke-width:1px;stroke-linecap:round;stroke-linejoin:miter;stroke-opacity:1" />
    <path
       inkscape:connector-curvature="0"
       id="path3817"
       d="m 58.220695,910.59885 -7.086614,0 0,-3.54331 -28.346456,0 0,70.86614 28.346456,0 0,-3.5433 7.086614,0 z"
       style="fill:none;stroke:#000000;stroke-width:0.99960631;stroke-linecap:butt;stroke-linejoin:miter;stroke-miterlimit:4;stroke-opacity:1;stroke-dasharray:3.99842528, 3.99842528;stroke-dashoffset:0"
       sodipodi:nodetypes="ccccccccc" />
    <path
       sodipodi:nodetypes="ccccccc"
       style="fill:none;stroke:#000000;stroke-width:0.99999994px;stroke-linecap:round;stroke-linejoin:miter;stroke-opacity:1"
       d="m 93.653748,1013.3547 -3.54331,0 0,35.4331 77.952762,0 0,-35.4331 -3.54331,0 z"
       id="path3825"
       inkscape:connector-curvature="0" />
    <path
       style="fill:none;stroke:#000000;stroke-width:0.99960631;stroke-linecap:butt;stroke-linejoin:miter;stroke-miterlimit:4;stroke-opacity:1;stroke-dasharray:3.99842522, 3.99842522;stroke-dashoffset:0"
       d="m 160.97658,1013.3547 0,7.0867 3.54331,0 0,28.3464 -70.866142,0 0,-28.3464 3.5433,0 0,-7.0867 z"
       id="path3827"
       inkscape:connector-curvature="0"
       sodipodi:nodetypes="ccccccccc" />
    <path
       inkscape:connector-curvature="0"
       id="path3829"
       d="m 58.220691,942.48861 -35.43307,0"
       style="fill:none;stroke:#000000;stroke-width:1;stroke-linecap:butt;stroke-linejoin:miter;stroke-miterlimit:4;stroke-opacity:1;stroke-dasharray:7.99999993, 1.99999998, 1, 1.99999998;stroke-dashoffset:0" />
    <path
       inkscape:connector-curvature="0"
       id="path3831"
       d="m 129.08684,1013.3547 0,35.4331"
       style="fill:none;stroke:#000000;stroke-width:1;stroke-linecap:butt;stroke-linejoin:miter;stroke-miterlimit:4;stroke-opacity:1;stroke-dasharray:8.00000001, 1.99999999, 1, 1.99999999;stroke-dashoffset:0" />
    <g
       id="g4648">
      <g
         id="g4644">
        <path
           sodipodi:nodetypes="ccccc"
           style="fill:none;stroke:#000000;stroke-width:0.99960631;stroke-linecap:butt;stroke-linejoin:miter;stroke-miterlimit:4;stroke-opacity:1;stroke-dasharray:3.99842519, 3.99842519;stroke-dashoffset:0"
           d="m 51.026934,910.4484 -63.310739,0 0,64.08042 63.310739,0 z"
           id="path4638"
           inkscape:connector-curvature="0" />
        <path
           sodipodi:nodetypes="cccc"
           style="fill:none;stroke:#000000;stroke-width:0.99960631;stroke-linecap:butt;stroke-linejoin:miter;stroke-miterlimit:4;stroke-opacity:1;stroke-dasharray:none;stroke-dashoffset:0"
           d="m 22.562652,907.05554 -28.346456,0 0,70.86614 28.346456,0"
           id="path4642"
           inkscape:connector-curvature="0" />
      </g>
    </g>
    <g
       id="g4653"
       transform="matrix(0,-1,1,0,-813.47419,1071.1459)">
      <g
         id="g4655">
        <path
           inkscape:connector-curvature="0"
           id="path4657"
           d="m 51.026934,910.4484 -63.310739,0 0,64.08042 63.310739,0 z"
           style="fill:none;stroke:#000000;stroke-width:0.99960631;stroke-linecap:butt;stroke-linejoin:miter;stroke-miterlimit:4;stroke-opacity:1;stroke-dasharray:3.99842519, 3.99842519;stroke-dashoffset:0"
           sodipodi:nodetypes="ccccc" />
        <path
           inkscape:connector-curvature="0"
           id="path4659"
           d="m 22.562652,907.05554 -28.346456,0 0,70.86614 28.346456,0"
           style="fill:none;stroke:#000000;stroke-width:0.99960631;stroke-linecap:butt;stroke-linejoin:miter;stroke-miterlimit:4;stroke-opacity:1;stroke-dasharray:none;stroke-dashoffset:0"
           sodipodi:nodetypes="cccc" />
      </g>
    </g>
    <text
       xml:space="preserve"
       style="font-size:13px;font-style:normal;font-variant:normal;font-weight:normal;font-stretch:normal;line-height:125%;letter-spacing:0px;word-spacing:0px;fill:#000000;fill-opacity:1;stroke:none;font-family:J;-inkscape-font-specification:J"
       x="-961.4129"
       y="12.515139"
       id="text3018"
       sodipodi:linespacing="125%"
       transform="matrix(0,-1,1,0,0,0)"><tspan
         sodipodi:role="line"
         id="tspan3020"
         x="-961.4129"
         y="12.515139">32mm</tspan></text>
  </g>
</svg>
