<?xml version="1.0" encoding="UTF-8" standalone="no"?>
<!-- Created with Inkscape (http://www.inkscape.org/) -->

<svg
   xmlns:ns0="http://www.iki.fi/pav/software/textext/"
   xmlns:dc="http://purl.org/dc/elements/1.1/"
   xmlns:cc="http://creativecommons.org/ns#"
   xmlns:rdf="http://www.w3.org/1999/02/22-rdf-syntax-ns#"
   xmlns:svg="http://www.w3.org/2000/svg"
   xmlns="http://www.w3.org/2000/svg"
   xmlns:sodipodi="http://sodipodi.sourceforge.net/DTD/sodipodi-0.dtd"
   xmlns:inkscape="http://www.inkscape.org/namespaces/inkscape"
   width="177.16534"
   height="152.3622"
   id="svg3009"
   version="1.1"
   inkscape:version="0.48.2 r9819"
   sodipodi:docname="afvoerbocht.svg">
  <sodipodi:namedview
     id="base"
     pagecolor="#ffffff"
     bordercolor="#666666"
     borderopacity="1.0"
     inkscape:pageopacity="0.0"
     inkscape:pageshadow="2"
     inkscape:zoom="2.8"
     inkscape:cx="45.223765"
     inkscape:cy="69.320962"
     inkscape:document-units="mm"
     inkscape:current-layer="layer1"
     showgrid="false"
     units="mm"
     inkscape:window-width="1366"
     inkscape:window-height="706"
     inkscape:window-x="-8"
     inkscape:window-y="-8"
     inkscape:window-maximized="1">
    <inkscape:grid
       dotted="false"
       spacingy="1mm"
       spacingx="1mm"
       units="mm"
       snapvisiblegridlinesonly="true"
       enabled="true"
       visible="true"
       empspacing="5"
       id="grid3017"
       type="xygrid" />
  </sodipodi:namedview>
  <defs
     id="defs3011">
    <marker
       style="overflow:visible"
       id="Arrow1Mstart"
       refX="0"
       refY="0"
       orient="auto"
       inkscape:stockid="Arrow1Mstart">
      <path
         transform="matrix(0.4,0,0,0.4,4,0)"
         style="fill-rule:evenodd;stroke:#000000;stroke-width:1pt;marker-start:none"
         d="M 0,0 5,-5 -12.5,0 5,5 0,0 z"
         id="path3776"
         inkscape:connector-curvature="0" />
    </marker>
    <marker
       style="overflow:visible"
       id="Arrow1Mend"
       refX="0"
       refY="0"
       orient="auto"
       inkscape:stockid="Arrow1Mend">
      <path
         transform="matrix(-0.4,0,0,-0.4,-4,0)"
         style="fill-rule:evenodd;stroke:#000000;stroke-width:1pt;marker-start:none"
         d="M 0,0 5,-5 -12.5,0 5,5 0,0 z"
         id="path3779"
         inkscape:connector-curvature="0" />
    </marker>
    <clipPath
       clipPathUnits="userSpaceOnUse"
       id="clipPath3799">
      <rect
         style="fill:#ffffff;stroke:none"
         id="rect3801"
         width="124.01575"
         height="124.01575"
         x="88.58268"
         y="70.866158" />
    </clipPath>
    <clipPath
       clipPathUnits="userSpaceOnUse"
       id="clipPath3803">
      <rect
         style="fill:#ffffff;stroke:none"
         id="rect3805"
         width="82.677162"
         height="82.677162"
         x="88.582687"
         y="112.20473" />
    </clipPath>
    <clipPath
       clipPathUnits="userSpaceOnUse"
       id="clipPath3807">
      <rect
         style="fill:#ffffff;stroke:none"
         id="rect3809"
         width="248.03148"
         height="248.03148"
         x="88.58268"
         y="-53.149586" />
    </clipPath>
  </defs>
  <metadata
     id="metadata3014">
    <rdf:RDF>
      <cc:Work
         rdf:about="">
        <dc:format>image/svg+xml</dc:format>
        <dc:type
           rdf:resource="http://purl.org/dc/dcmitype/StillImage" />
        <dc:title />
      </cc:Work>
    </rdf:RDF>
  </metadata>
  <g
     transform="translate(0,-900.00003)"
     id="layer1"
     inkscape:groupmode="layer"
     inkscape:label="Layer 1">
    <path
       style="fill:none;stroke:#000000;stroke-width:0.70866144;stroke-linecap:butt;stroke-linejoin:miter;stroke-miterlimit:4;stroke-opacity:1;stroke-dasharray:none;marker-start:url(#Arrow1Mstart);marker-end:url(#Arrow1Mend)"
       d="m 15.700989,973.28676 0,-61.96977"
       id="path8895"
       inkscape:connector-curvature="0" />
    <path
       sodipodi:type="arc"
       style="fill:none;stroke:#000000;stroke-width:1.99842501;stroke-miterlimit:4;stroke-dasharray:none"
       id="path3011"
       sodipodi:cx="88.58268"
       sodipodi:cy="194.8819"
       sodipodi:rx="70.866142"
       sodipodi:ry="70.866142"
       d="m 159.44882,194.8819 c 0,39.13829 -31.72785,70.86614 -70.86614,70.86614 -39.13829,0 -70.866143,-31.72785 -70.866143,-70.86614 0,-39.13829 31.727853,-70.86615 70.866143,-70.86615 39.13829,0 70.86614,31.72786 70.86614,70.86615 z"
       transform="matrix(0.50000004,0,0,0.50000004,13.92935,915.9138)"
       clip-path="url(#clipPath3807)" />
    <path
       transform="matrix(1.5,0,0,1.5,-74.653332,721.0319)"
       d="m 159.44882,194.8819 c 0,39.13829 -31.72785,70.86614 -70.86614,70.86614 -39.13829,0 -70.866143,-31.72785 -70.866143,-70.86614 0,-39.13829 31.727853,-70.86615 70.866143,-70.86615 39.13829,0 70.86614,31.72786 70.86614,70.86615 z"
       sodipodi:ry="70.866142"
       sodipodi:rx="70.866142"
       sodipodi:cy="194.8819"
       sodipodi:cx="88.58268"
       id="path3013"
       style="fill:none;stroke:#000000;stroke-width:0.66614175;stroke-miterlimit:4;stroke-dasharray:none"
       sodipodi:type="arc"
       clip-path="url(#clipPath3803)"
       inkscape:transform-center-x="-53.399404"
       inkscape:transform-center-y="-53.399404" />
    <path
       transform="translate(-30.361989,818.47285)"
       d="m 159.44882,194.8819 c 0,39.13829 -31.72785,70.86614 -70.86614,70.86614 -39.13829,0 -70.866143,-31.72785 -70.866143,-70.86614 0,-39.13829 31.727853,-70.86615 70.866143,-70.86615 39.13829,0 70.86614,31.72786 70.86614,70.86615 z"
       sodipodi:ry="70.866142"
       sodipodi:rx="70.866142"
       sodipodi:cy="194.8819"
       sodipodi:cx="88.58268"
       id="path3015"
       style="fill:none;stroke:#000000;stroke-width:0.99921262;stroke-miterlimit:4;stroke-dasharray:7.99370098, 1.99842525, 0.99921262, 1.99842525;stroke-dashoffset:0"
       sodipodi:type="arc"
       clip-path="url(#clipPath3799)" />
    <path
       clip-path="url(#clipPath3807)"
       transform="matrix(0.55000004,0,0,0.55000004,9.5002159,906.16971)"
       d="m 159.44882,194.8819 c 0,39.13829 -31.72785,70.86614 -70.86614,70.86614 -39.13829,0 -70.866143,-31.72785 -70.866143,-70.86614 0,-39.13829 31.727853,-70.86615 70.866143,-70.86615 39.13829,0 70.86614,31.72786 70.86614,70.86615 z"
       sodipodi:ry="70.866142"
       sodipodi:rx="70.866142"
       sodipodi:cy="194.8819"
       sodipodi:cx="88.58268"
       id="path3811"
       style="fill:none;stroke:#000000;stroke-width:1.8174659;stroke-miterlimit:4;stroke-dasharray:7.26986356, 7.26986356;stroke-dashoffset:0"
       sodipodi:type="arc"
       inkscape:transform-center-x="-19.737994"
       inkscape:transform-center-y="-19.737988" />
    <path
       inkscape:transform-center-y="-51.627749"
       inkscape:transform-center-x="-51.627759"
       clip-path="url(#clipPath3803)"
       sodipodi:type="arc"
       style="fill:none;stroke:#000000;stroke-width:0.68938363;stroke-miterlimit:4;stroke-dasharray:2.75753446, 2.75753446;stroke-dashoffset:0"
       id="path3813"
       sodipodi:cx="88.58268"
       sodipodi:cy="194.8819"
       sodipodi:rx="70.866142"
       sodipodi:ry="70.866142"
       d="m 159.44882,194.8819 c 0,39.13829 -31.72785,70.86614 -70.86614,70.86614 -39.13829,0 -70.866143,-31.72785 -70.866143,-70.86614 0,-39.13829 31.727853,-70.86615 70.866143,-70.86615 39.13829,0 70.86614,31.72786 70.86614,70.86615 z"
       transform="matrix(1.4500001,0,0,1.4500001,-70.224202,730.77598)" />
    <path
       style="fill:none;stroke:#000000;stroke-width:1px;stroke-linecap:round;stroke-linejoin:miter;stroke-opacity:1"
       d="m 58.220691,977.92168 0,3.54329 -35.43307,0 0,-77.95274 35.43307,0 0,3.54331 z"
       id="path3815"
       inkscape:connector-curvature="0"
       sodipodi:nodetypes="ccccccc" />
    <path
       sodipodi:nodetypes="ccccccccc"
       style="fill:none;stroke:#000000;stroke-width:0.99960631;stroke-linecap:butt;stroke-linejoin:miter;stroke-miterlimit:4;stroke-opacity:1;stroke-dasharray:3.99842528, 3.99842528;stroke-dashoffset:0"
       d="m 58.220695,910.59885 -7.086614,0 0,-3.54331 -28.346456,0 0,70.86614 28.346456,0 0,-3.5433 7.086614,0 z"
       id="path3817"
       inkscape:connector-curvature="0" />
    <path
       inkscape:connector-curvature="0"
       id="path3825"
       d="m 93.653748,1013.3547 -3.54331,0 0,35.4331 77.952762,0 0,-35.4331 -3.54331,0 z"
       style="fill:none;stroke:#000000;stroke-width:0.99999994px;stroke-linecap:round;stroke-linejoin:miter;stroke-opacity:1"
       sodipodi:nodetypes="ccccccc" />
    <path
       sodipodi:nodetypes="ccccccccc"
       inkscape:connector-curvature="0"
       id="path3827"
       d="m 160.97658,1013.3547 0,7.0867 3.54331,0 0,28.3464 -70.866142,0 0,-28.3464 3.5433,0 0,-7.0867 z"
       style="fill:none;stroke:#000000;stroke-width:0.99960631;stroke-linecap:butt;stroke-linejoin:miter;stroke-miterlimit:4;stroke-opacity:1;stroke-dasharray:3.99842522, 3.99842522;stroke-dashoffset:0" />
    <path
       style="fill:none;stroke:#000000;stroke-width:1;stroke-linecap:butt;stroke-linejoin:miter;stroke-miterlimit:4;stroke-opacity:1;stroke-dasharray:7.99999993, 1.99999998, 1, 1.99999998;stroke-dashoffset:0"
       d="m 58.220691,942.48861 -35.43307,0"
       id="path3829"
       inkscape:connector-curvature="0" />
    <path
       style="fill:none;stroke:#000000;stroke-width:1;stroke-linecap:butt;stroke-linejoin:miter;stroke-miterlimit:4;stroke-opacity:1;stroke-dasharray:8.00000001, 1.99999999, 1, 1.99999999;stroke-dashoffset:0"
       d="m 129.08684,1013.3547 0,35.4331"
       id="path3831"
       inkscape:connector-curvature="0" />
    <g
       id="g4648">
      <g
         id="g4644">
        <path
           inkscape:connector-curvature="0"
           id="path4638"
           d="m 51.026934,910.4484 -63.310739,0 0,64.08042 63.310739,0 z"
           style="fill:none;stroke:#000000;stroke-width:0.99960631;stroke-linecap:butt;stroke-linejoin:miter;stroke-miterlimit:4;stroke-opacity:1;stroke-dasharray:3.99842519, 3.99842519;stroke-dashoffset:0"
           sodipodi:nodetypes="ccccc" />
        <path
           inkscape:connector-curvature="0"
           id="path4642"
           d="m 22.562652,907.05554 -28.346456,0 0,70.86614 28.346456,0"
           style="fill:none;stroke:#000000;stroke-width:0.99960631;stroke-linecap:butt;stroke-linejoin:miter;stroke-miterlimit:4;stroke-opacity:1;stroke-dasharray:none;stroke-dashoffset:0"
           sodipodi:nodetypes="cccc" />
      </g>
    </g>
    <g
       transform="matrix(0,-1,1,0,-813.47419,1071.1459)"
       id="g4653">
      <g
         id="g4655">
        <path
           sodipodi:nodetypes="ccccc"
           style="fill:none;stroke:#000000;stroke-width:0.99960631;stroke-linecap:butt;stroke-linejoin:miter;stroke-miterlimit:4;stroke-opacity:1;stroke-dasharray:3.99842519, 3.99842519;stroke-dashoffset:0"
           d="m 51.026934,910.4484 -63.310739,0 0,64.08042 63.310739,0 z"
           id="path4657"
           inkscape:connector-curvature="0" />
        <path
           sodipodi:nodetypes="cccc"
           style="fill:none;stroke:#000000;stroke-width:0.99960631;stroke-linecap:butt;stroke-linejoin:miter;stroke-miterlimit:4;stroke-opacity:1;stroke-dasharray:none;stroke-dashoffset:0"
           d="m 22.562652,907.05554 -28.346456,0 0,70.86614 28.346456,0"
           id="path4659"
           inkscape:connector-curvature="0" />
      </g>
    </g>
    <g
       ns0:preamble=""
       ns0:text="32mm"
       word-spacing="normal"
       letter-spacing="normal"
       font-size-adjust="none"
       font-stretch="normal"
       font-weight="normal"
       font-variant="normal"
       font-style="normal"
       stroke-miterlimit="10.433"
       xml:space="preserve"
       transform="matrix(0,-1.25,-1.25,0,897.10709,1237.2228)"
       id="content"
       style="font-style:normal;font-variant:normal;font-weight:normal;font-stretch:normal;letter-spacing:normal;word-spacing:normal;text-anchor:start;fill:none;stroke:#000000;stroke-linecap:butt;stroke-linejoin:miter;stroke-miterlimit:10.43299961;stroke-opacity:1;stroke-dasharray:none;stroke-dashoffset:0">
<path
   id="path3054"
   d="m 226.32,710.62 0.07,0.03 0.08,0.03 0.07,0.03 0.07,0.03 0.07,0.04 0.07,0.04 0.06,0.04 0.07,0.04 0.06,0.04 0.06,0.05 0.06,0.05 0.06,0.05 0.05,0.05 0.05,0.05 0.05,0.06 0.05,0.05 0.04,0.06 0.05,0.06 0.04,0.06 0.03,0.06 0.04,0.07 0.03,0.06 0.03,0.07 0.03,0.06 0.02,0.07 0.02,0.07 0.02,0.07 0.01,0.07 0.02,0.07 0,0.07 0.01,0.08 0,0.07 c 0,0.81 -0.87,1.37 -1.83,1.37 -1,0 -1.76,-0.59 -1.76,-1.35 0,-0.33 0.22,-0.52 0.51,-0.52 0.3,0 0.5,0.22 0.5,0.51 0,0.5 -0.46,0.5 -0.61,0.5 0.3,0.48 0.96,0.61 1.32,0.61 0.41,0 0.95,-0.22 0.95,-1.11 0,-0.12 -0.02,-0.7 -0.27,-1.13 -0.3,-0.48 -0.64,-0.51 -0.89,-0.52 -0.08,-0.01 -0.32,-0.03 -0.39,-0.03 -0.08,-0.01 -0.15,-0.02 -0.15,-0.12 0,-0.11 0.07,-0.11 0.24,-0.11 h 0.44 c 0.82,0 1.18,-0.67 1.18,-1.65 0,-1.35 -0.68,-1.64 -1.12,-1.64 -0.43,0 -1.17,0.17 -1.52,0.76 0.35,-0.05 0.65,0.17 0.65,0.55 0,0.35 -0.26,0.55 -0.55,0.55 -0.24,0 -0.56,-0.14 -0.56,-0.57 0,-0.91 0.92,-1.56 2.01,-1.56 1.21,0 2.12,0.9 2.12,1.91 0,0.82 -0.63,1.59 -1.66,1.8 z"
   inkscape:connector-curvature="0"
   style="fill:#000000;stroke-width:0" />
<path
   id="path3056"
   d="m 229.68,707.89 1.05,1.02 c 1.55,1.37 2.15,1.91 2.15,2.9 0,1.14 -0.89,1.93 -2.11,1.93 -1.12,0 -1.86,-0.91 -1.86,-1.8 0,-0.55 0.5,-0.55 0.53,-0.55 0.17,0 0.52,0.12 0.52,0.52 0,0.26 -0.18,0.52 -0.53,0.52 -0.08,0 -0.1,0 -0.13,-0.01 0.23,0.65 0.77,1.01 1.34,1.01 0.91,0 1.34,-0.8 1.34,-1.62 0,-0.79 -0.5,-1.58 -1.05,-2.19 l -1.91,-2.13 c -0.11,-0.11 -0.11,-0.13 -0.11,-0.36 h 3.69 l 0.28,1.72 h -0.25 c -0.05,-0.3 -0.12,-0.73 -0.22,-0.88 -0.07,-0.08 -0.72,-0.08 -0.94,-0.08 z"
   inkscape:connector-curvature="0"
   style="fill:#000000;stroke-width:0" />
<path
   id="path3058"
   d="m 234.49,710.54 v -2.66 c 0,-0.45 -0.11,-0.45 -0.78,-0.45 v -0.3 c 0.35,0.01 0.86,0.03 1.13,0.03 0.26,0 0.77,-0.02 1.11,-0.03 v 0.3 c -0.66,0 -0.77,0 -0.77,0.45 v 1.83 c 0,1.03 0.7,1.59 1.34,1.59 0.63,0 0.74,-0.54 0.74,-1.1 v -2.32 c 0,-0.45 -0.11,-0.45 -0.78,-0.45 v -0.3 c 0.35,0.01 0.85,0.03 1.12,0.03 0.26,0 0.78,-0.02 1.12,-0.03 v 0.3 c -0.67,0 -0.78,0 -0.78,0.45 v 1.83 c 0,1.03 0.71,1.59 1.35,1.59 0.62,0 0.73,-0.54 0.73,-1.1 v -2.32 c 0,-0.45 -0.11,-0.45 -0.78,-0.45 v -0.3 c 0.35,0.01 0.86,0.03 1.13,0.03 0.26,0 0.78,-0.02 1.11,-0.03 v 0.3 c -0.51,0 -0.76,0 -0.77,0.3 v 1.9 c 0,0.85 0,1.16 -0.31,1.52 -0.14,0.17 -0.47,0.37 -1.05,0.37 -0.83,0 -1.27,-0.6 -1.44,-0.98 -0.14,0.87 -0.87,0.98 -1.32,0.98 -0.73,0 -1.2,-0.43 -1.47,-1.05 v 1.05 l -1.41,-0.11 v -0.31 c 0.7,0 0.78,-0.07 0.78,-0.56 z"
   inkscape:connector-curvature="0"
   style="fill:#000000;stroke-width:0" />
<path
   id="path3060"
   d="m 242.79,710.54 v -2.66 c 0,-0.45 -0.11,-0.45 -0.78,-0.45 v -0.3 c 0.35,0.01 0.86,0.03 1.13,0.03 0.26,0 0.77,-0.02 1.11,-0.03 v 0.3 c -0.66,0 -0.77,0 -0.77,0.45 v 1.83 c 0,1.03 0.7,1.59 1.34,1.59 0.63,0 0.74,-0.54 0.74,-1.1 v -2.32 c 0,-0.45 -0.11,-0.45 -0.78,-0.45 v -0.3 c 0.35,0.01 0.86,0.03 1.12,0.03 0.26,0 0.78,-0.02 1.12,-0.03 v 0.3 c -0.67,0 -0.78,0 -0.78,0.45 v 1.83 c 0,1.03 0.71,1.59 1.35,1.59 0.62,0 0.73,-0.54 0.73,-1.1 v -2.32 c 0,-0.45 -0.11,-0.45 -0.77,-0.45 v -0.3 c 0.35,0.01 0.85,0.03 1.12,0.03 0.26,0 0.78,-0.02 1.12,-0.03 v 0.3 c -0.52,0 -0.77,0 -0.78,0.3 v 1.9 c 0,0.85 0,1.16 -0.31,1.52 -0.14,0.17 -0.47,0.37 -1.04,0.37 -0.84,0 -1.28,-0.6 -1.45,-0.98 -0.14,0.87 -0.87,0.98 -1.32,0.98 -0.73,0 -1.19,-0.43 -1.47,-1.05 v 1.05 l -1.41,-0.11 v -0.31 c 0.7,0 0.78,-0.07 0.78,-0.56 z"
   inkscape:connector-curvature="0"
   style="fill:#000000;stroke-width:0" />
</g>  </g>
</svg>
