<?xml version="1.0" encoding="UTF-8" standalone="no"?>
<!-- Created with Inkscape (http://www.inkscape.org/) -->

<svg
   xmlns:dc="http://purl.org/dc/elements/1.1/"
   xmlns:cc="http://creativecommons.org/ns#"
   xmlns:rdf="http://www.w3.org/1999/02/22-rdf-syntax-ns#"
   xmlns:svg="http://www.w3.org/2000/svg"
   xmlns="http://www.w3.org/2000/svg"
   xmlns:xlink="http://www.w3.org/1999/xlink"
   xmlns:sodipodi="http://sodipodi.sourceforge.net/DTD/sodipodi-0.dtd"
   xmlns:inkscape="http://www.inkscape.org/namespaces/inkscape"
   width="273.57806"
   height="81.147331"
   id="svg3009"
   version="1.1"
   inkscape:version="0.48.2 r9819"
   sodipodi:docname="dredger.svg">
  <sodipodi:namedview
     id="base"
     pagecolor="#ffffff"
     bordercolor="#666666"
     borderopacity="1.0"
     inkscape:pageopacity="0.0"
     inkscape:pageshadow="2"
     inkscape:zoom="2.8284271"
     inkscape:cx="164.66559"
     inkscape:cy="23.721202"
     inkscape:document-units="mm"
     inkscape:current-layer="layer1"
     showgrid="false"
     units="mm"
     inkscape:window-width="1366"
     inkscape:window-height="706"
     inkscape:window-x="-8"
     inkscape:window-y="-8"
     inkscape:window-maximized="1"
     fit-margin-left="0.5"
     fit-margin-bottom="0.5"
     fit-margin-top="0.5"
     fit-margin-right="0.5">
    <inkscape:grid
       type="xygrid"
       id="grid3017"
       empspacing="5"
       visible="true"
       enabled="true"
       snapvisiblegridlinesonly="true"
       units="mm"
       spacingx="1mm"
       spacingy="1mm"
       dotted="false" />
  </sodipodi:namedview>
  <defs
     id="defs3011">
    <marker
       inkscape:stockid="Arrow1Mend"
       orient="auto"
       refY="0"
       refX="0"
       id="Arrow1Mend"
       style="overflow:visible">
      <path
         id="path3912"
         d="M 0,0 5,-5 -12.5,0 5,5 0,0 z"
         style="fill-rule:evenodd;stroke:#000000;stroke-width:1pt;marker-start:none"
         transform="matrix(-0.4,0,0,-0.4,-4,0)"
         inkscape:connector-curvature="0" />
    </marker>
    <linearGradient
       inkscape:collect="always"
       xlink:href="#linearGradient7587"
       id="linearGradient3304"
       gradientUnits="userSpaceOnUse"
       gradientTransform="matrix(1.125,0,0,1.0869568,-15.521397,656.40388)"
       spreadMethod="pad"
       x1="124.01575"
       y1="347.24408"
       x2="124.01575"
       y2="265.74802" />
    <linearGradient
       id="linearGradient7587">
      <stop
         style="stop-color:#6da5d4;stop-opacity:1;"
         offset="0"
         id="stop7595" />
      <stop
         id="stop7591"
         offset="1"
         style="stop-color:#cae7f9;stop-opacity:1;" />
    </linearGradient>
    <marker
       inkscape:stockid="Arrow1Mstart"
       orient="auto"
       refY="0"
       refX="0"
       id="Arrow1Mstart"
       style="overflow:visible">
      <path
         inkscape:connector-curvature="0"
         id="path3776"
         d="M 0,0 5,-5 -12.5,0 5,5 0,0 z"
         style="fill-rule:evenodd;stroke:#000000;stroke-width:1pt;marker-start:none"
         transform="matrix(0.4,0,0,0.4,4,0)" />
    </marker>
    <marker
       inkscape:stockid="Arrow1Mend"
       orient="auto"
       refY="0"
       refX="0"
       id="Arrow1Mend-1"
       style="overflow:visible">
      <path
         inkscape:connector-curvature="0"
         id="path3779"
         d="M 0,0 5,-5 -12.5,0 5,5 0,0 z"
         style="fill-rule:evenodd;stroke:#000000;stroke-width:1pt;marker-start:none"
         transform="matrix(-0.4,0,0,-0.4,-4,0)" />
    </marker>
    <linearGradient
       inkscape:collect="always"
       xlink:href="#linearGradient7587-7"
       id="linearGradient3308"
       gradientUnits="userSpaceOnUse"
       gradientTransform="matrix(1.125,0,0,1.0869568,-15.521397,656.40388)"
       spreadMethod="pad"
       x1="124.01575"
       y1="347.24408"
       x2="124.01575"
       y2="265.74802" />
    <linearGradient
       id="linearGradient7587-7">
      <stop
         style="stop-color:#6da5d4;stop-opacity:1;"
         offset="0"
         id="stop7595-4" />
      <stop
         id="stop7591-0"
         offset="1"
         style="stop-color:#cae7f9;stop-opacity:1;" />
    </linearGradient>
    <linearGradient
       y2="265.74802"
       x2="124.01575"
       y1="347.24408"
       x1="124.01575"
       spreadMethod="pad"
       gradientTransform="matrix(1.1882538,0,0,0.35545856,-1.9760313,883.94818)"
       gradientUnits="userSpaceOnUse"
       id="linearGradient6148"
       xlink:href="#linearGradient7587-7"
       inkscape:collect="always" />
  </defs>
  <metadata
     id="metadata3014">
    <rdf:RDF>
      <cc:Work
         rdf:about="">
        <dc:format>image/svg+xml</dc:format>
        <dc:type
           rdf:resource="http://purl.org/dc/dcmitype/StillImage" />
        <dc:title></dc:title>
      </cc:Work>
    </rdf:RDF>
  </metadata>
  <g
     inkscape:label="Layer 1"
     inkscape:groupmode="layer"
     id="layer1"
     transform="translate(-57.399298,-929.22599)">
    <g
       id="g6171"
       transform="matrix(1.3987294,0,0,1.3987294,-23.664736,-401.93807)">
      <rect
         style="fill:url(#linearGradient6148);fill-opacity:1;fill-rule:nonzero;stroke:none"
         id="rect7585"
         width="168.41393"
         height="28.968473"
         x="61.179192"
         y="978.41058" />
      <path
         inkscape:connector-curvature="0"
         id="path7583"
         d="m 61.179185,978.41062 168.413925,0"
         style="fill:none;stroke:#5599ff;stroke-width:0.25332329;stroke-linecap:butt;stroke-linejoin:miter;stroke-miterlimit:4;stroke-opacity:1;stroke-dasharray:none"
         sodipodi:nodetypes="cc" />
      <path
         inkscape:connector-curvature="0"
         id="path6169"
         d="m 193.62202,1007.7553 0.0498,-2.5738 c 0,0 4.01109,-0.1512 5.71428,-1.103 3.69979,-2.0677 6.32525,-5.53579 8.93519,-9.0555 2.02104,-2.72551 4.66412,-4.70201 7.15818,-6.86311 1.78436,-1.54614 2.99936,-3.82575 4.92294,-5.20354 2.14091,-1.53346 4.7563,-2.39602 7.10959,-3.52376 1.57175,-0.75322 3.16852,-2.02215 5.29727,-2.73291 1.96782,-0.65703 4.06653,-0.63144 6.09813,-1.19642 2.75746,-0.76684 5.3913,-2.07421 7.40642,-2.55516 2.26397,-0.54035 4.37834,-0.078 4.37834,-0.078 l 0.12249,34.8852 z"
         style="fill:#ffffff;stroke:none"
         sodipodi:nodetypes="ccssssssssc" />
      <path
         inkscape:connector-curvature="0"
         id="path6083"
         d="m 61.122021,1006.2309 30.384921,0.3128 103.192578,-0.3128 c 0,0 4.01109,-0.1469 5.71428,-1.0714 3.69979,-2.0084 6.32525,-5.37714 8.93519,-8.7959 2.02104,-2.64739 4.66412,-4.56723 7.15818,-6.66638 1.78436,-1.50182 2.99936,-3.71608 4.92294,-5.05438 2.14091,-1.4895 4.7563,-2.32733 7.10959,-3.42275 1.57175,-0.73163 3.16852,-1.96418 5.29727,-2.65457 1.96782,-0.63819 4.06653,-0.61334 6.09813,-1.16212 2.75746,-0.74486 5.3913,-2.01475 7.40642,-2.48192 2.26397,-0.52486 3.03784,-0.3439 3.03784,-0.3439"
         style="fill:none;stroke:#cccccc;stroke-width:3.79984903;stroke-linecap:butt;stroke-linejoin:miter;stroke-miterlimit:4;stroke-opacity:1;stroke-dasharray:none"
         sodipodi:nodetypes="cccssssssssc" />
      <path
         sodipodi:nodetypes="ccsssccssssssssc"
         style="fill:none;stroke:#000000;stroke-width:0.71493459px;stroke-linecap:butt;stroke-linejoin:miter;stroke-opacity:1"
         d="m 61.122021,1004.2553 22.745838,0 c 0,0 3.496027,0.5338 5.259107,0.6187 1.157171,0.056 2.284587,-0.152 3.575084,-0.1311 1.073008,0.017 2.313325,0.2746 3.275013,0.2195 1.728334,-0.099 4.684587,-0.7071 4.684587,-0.7071 l 93.01015,0 c 0,0 4.01109,-0.1469 5.71428,-1.0714 3.69979,-2.0084 6.32525,-5.37711 8.93519,-8.79592 2.02104,-2.64739 4.66412,-4.56723 7.15818,-6.66638 1.78436,-1.50182 2.99936,-3.71608 4.92294,-5.05438 2.14091,-1.4895 4.7563,-2.32733 7.10959,-3.42275 1.57175,-0.73163 3.16852,-1.96418 5.29727,-2.65457 1.96782,-0.63819 4.06653,-0.61334 6.09813,-1.16212 2.75746,-0.74486 5.3913,-2.01475 7.40642,-2.48192 2.26397,-0.52486 4.37834,-0.0758 4.37834,-0.0758"
         id="path4769"
         inkscape:connector-curvature="0" />
    </g>
    <g
       id="g6416"
       transform="matrix(1.3987294,0,0,1.3987294,-23.664736,-400.4545)">
      <path
         sodipodi:nodetypes="csssssccsssssc"
         inkscape:connector-curvature="0"
         id="path6180"
         d="m 97.638012,1002.6493 c 0,0 -3.543307,-1.873 -3.543307,-3.54335 0,-7.08661 0,-17.71653 0,-28.34646 0,-1.67033 1.872978,-3.5433 3.543307,-3.5433 10.629918,0 24.803148,0 35.433068,0 1.67033,0 3.54331,1.87297 3.54331,3.5433 0,3.47211 0,3.54331 0,3.54331 l 3.54331,0.006 c 0,0 0,-0.0767 0,-3.54883 0,-3.3497 -3.64852,-7.08661 -7.08661,-7.08661 -10.62992,0 -24.80315,0 -35.433078,0 -3.791649,0 -7.086614,3.47174 -7.086614,7.08661 0,10.62993 0,21.25985 0,28.34646 0,1.67037 -3.543307,3.54327 -3.543307,3.54327"
         style="fill:#cccccc;stroke:#000000;stroke-width:0.37998492;stroke-linecap:butt;stroke-linejoin:miter;stroke-miterlimit:4;stroke-opacity:1;stroke-dasharray:none" />
      <path
         inkscape:connector-curvature="0"
         id="path6206"
         d="m 181.36021,961.32238 -19.02928,10.98655 2.80282,4.85462 18.97177,-10.95335 z"
         style="fill:#cccccc;fill-opacity:1;stroke:#000000;stroke-width:0.37998492;stroke-linecap:butt;stroke-linejoin:miter;stroke-miterlimit:4;stroke-opacity:1;stroke-dasharray:none" />
      <rect
         transform="translate(59.20751,859.39219)"
         y="108.38253"
         x="46.315495"
         height="4.9497476"
         width="23.688078"
         id="rect6208"
         style="fill:#4d4d4d;fill-opacity:1;fill-rule:evenodd;stroke:#000000;stroke-width:0.37998492;stroke-linecap:round;stroke-linejoin:round;stroke-miterlimit:4;stroke-opacity:1;stroke-dasharray:none;stroke-dashoffset:0" />
      <g
         transform="translate(3.8890873,0)"
         id="g6218">
        <path
           style="fill:none;stroke:#000000;stroke-width:0.71493459px;stroke-linecap:butt;stroke-linejoin:miter;stroke-opacity:1"
           d="m 137.55252,977.58583 0,-23.5113 24.27386,0 -5.89493,10.21033 0,13.30097 z"
           id="path6198"
           inkscape:connector-curvature="0"
           sodipodi:nodetypes="cccccc" />
        <path
           style="fill:none;stroke:#000000;stroke-width:0.71493459px;stroke-linecap:butt;stroke-linejoin:miter;stroke-opacity:1"
           d="m 135.98156,953.93978 1.65625,-1.66406 24.65625,0 1.67187,1.66406 z"
           id="path6200"
           inkscape:connector-curvature="0"
           sodipodi:nodetypes="ccccc" />
        <path
           style="fill:#ececec;stroke:#000000;stroke-width:0.37998492;stroke-linecap:round;stroke-linejoin:round;stroke-miterlimit:4;stroke-opacity:1;stroke-dasharray:none"
           d="m 152.01527,956.01907 6.36397,0 -4.08859,7.08164 -2.27538,0 z"
           id="path6202"
           inkscape:connector-curvature="0" />
        <path
           inkscape:connector-curvature="0"
           id="path6204"
           d="m 146.89427,956.01907 3.28842,0 0,7.08164 -3.28842,0 z"
           style="fill:#ececec;stroke:#000000;stroke-width:0.37998492;stroke-linecap:round;stroke-linejoin:round;stroke-miterlimit:4;stroke-opacity:1;stroke-dasharray:none"
           sodipodi:nodetypes="ccccc" />
      </g>
      <path
         sodipodi:nodetypes="csssccc"
         transform="translate(59.20751,859.39219)"
         inkscape:connector-curvature="0"
         id="path6178"
         d="m 39.522218,112.9661 c 0,0 0,5.63507 0,8.20749 0,1.19048 1.334904,2.52538 2.525382,2.52538 19.81491,0 45.134294,0 65.40738,0 5.42935,0 14.10587,-8.14403 14.10587,-8.14403 l 0,-3.03078 z"
         style="fill:#999999;stroke:#000000;stroke-width:0.71493459px;stroke-linecap:butt;stroke-linejoin:miter;stroke-opacity:1" />
      <path
         transform="translate(59.20751,859.39219)"
         inkscape:connector-curvature="0"
         id="path6196"
         d="m 37.763921,122.34789 2.010835,-0.64081"
         style="fill:none;stroke:#000000;stroke-width:0.71493459px;stroke-linecap:butt;stroke-linejoin:miter;stroke-opacity:1" />
      <g
         transform="matrix(0.54474007,0,0,1,44.128686,0.02209709)"
         id="g6191">
        <path
           style="fill:#808080;stroke:#000000;stroke-width:0.34322622;stroke-linecap:butt;stroke-linejoin:miter;stroke-miterlimit:4;stroke-opacity:1;stroke-dasharray:none"
           d="m 96.90514,981.51911 c 0,0 -1.20095,-0.24482 -1.193243,-0.7071 0.0087,-0.52076 0.938664,-1.0432 1.37002,-0.75131 0.405566,0.27444 -0.176777,1.45841 -0.176777,1.45841 z"
           id="path6185"
           inkscape:connector-curvature="0"
           sodipodi:nodetypes="cssc" />
        <path
           sodipodi:nodetypes="cssc"
           inkscape:connector-curvature="0"
           id="path6187"
           d="m 96.843166,981.84252 c 0,0 0.526723,1.1067 0.152767,1.37858 -0.421273,0.30626 -1.397983,-0.12247 -1.424228,-0.64264 -0.02467,-0.48908 1.271461,-0.73594 1.271461,-0.73594 z"
           style="fill:#808080;stroke:#000000;stroke-width:0.34322622;stroke-linecap:butt;stroke-linejoin:miter;stroke-miterlimit:4;stroke-opacity:1;stroke-dasharray:none"
           inkscape:transform-center-x="0.60411693"
           inkscape:transform-center-y="0.88679104" />
        <path
           inkscape:transform-center-y="-0.009799719"
           inkscape:transform-center-x="-0.95512872"
           style="fill:#808080;stroke:#000000;stroke-width:0.34322622;stroke-linecap:butt;stroke-linejoin:miter;stroke-miterlimit:4;stroke-opacity:1;stroke-dasharray:none"
           d="m 97.137303,981.71985 c 0,0 0.695069,-1.0095 1.117502,-0.82159 0.475866,0.2117 0.592929,1.27192 0.155572,1.55474 -0.411221,0.2659 -1.273074,-0.73315 -1.273074,-0.73315 z"
           id="path6189"
           inkscape:connector-curvature="0"
           sodipodi:nodetypes="cssc" />
      </g>
      <rect
         style="fill:#4d4d4d;fill-opacity:1;fill-rule:evenodd;stroke:#000000;stroke-width:0.37998492;stroke-linecap:round;stroke-linejoin:round;stroke-miterlimit:4;stroke-opacity:1;stroke-dasharray:none;stroke-dashoffset:0"
         id="rect6210"
         width="12.551147"
         height="3.800699"
         x="100.92681"
         y="960.96881" />
      <path
         transform="translate(59.20751,859.39219)"
         inkscape:connector-curvature="0"
         id="path6212"
         d="m 47.066795,108.51512 0,-3.75651"
         style="fill:none;stroke:#000000;stroke-width:0.37998492;stroke-linecap:butt;stroke-linejoin:miter;stroke-miterlimit:4;stroke-opacity:1;stroke-dasharray:none" />
      <path
         style="fill:none;stroke:#000000;stroke-width:0.37998492;stroke-linecap:butt;stroke-linejoin:miter;stroke-miterlimit:4;stroke-opacity:1;stroke-dasharray:none"
         d="m 112.63827,967.90731 0,-3.75651"
         id="path6214"
         inkscape:connector-curvature="0" />
      <path
         inkscape:connector-curvature="0"
         id="path6216"
         d="m 127.70848,967.90731 0,-4.72917"
         style="fill:none;stroke:#000000;stroke-width:0.37998492;stroke-linecap:butt;stroke-linejoin:miter;stroke-miterlimit:4;stroke-opacity:1;stroke-dasharray:none" />
      <path
         style="fill:none;stroke:#000000;stroke-width:0.37998492;stroke-linecap:butt;stroke-linejoin:miter;stroke-miterlimit:4;stroke-opacity:1;stroke-dasharray:none"
         d="m 178.30695,972.11462 -4.23815,-7.16199"
         id="path6224"
         inkscape:connector-curvature="0" />
      <path
         sodipodi:nodetypes="ccccc"
         transform="translate(59.20751,859.39219)"
         inkscape:connector-curvature="0"
         id="path6226"
         d="m 122.89775,101.794 c 17.98778,-12.799997 46.58843,-13.415063 66.10009,4.78836 l -15.83838,4.9038 c -8.35489,-6.45732 -30.85399,-13.07279 -47.7364,-5.26914 z"
         style="fill:#b3b3b3;stroke:none" />
    </g>
  </g>
</svg>
