<?xml version="1.0" encoding="UTF-8" standalone="no"?>
<!-- Created with Inkscape (http://www.inkscape.org/) -->

<svg
   xmlns:osb="http://www.openswatchbook.org/uri/2009/osb"
   xmlns:dc="http://purl.org/dc/elements/1.1/"
   xmlns:cc="http://creativecommons.org/ns#"
   xmlns:rdf="http://www.w3.org/1999/02/22-rdf-syntax-ns#"
   xmlns:svg="http://www.w3.org/2000/svg"
   xmlns="http://www.w3.org/2000/svg"
   xmlns:sodipodi="http://sodipodi.sourceforge.net/DTD/sodipodi-0.dtd"
   xmlns:inkscape="http://www.inkscape.org/namespaces/inkscape"
   width="354.33069"
   height="120.47243"
   id="svg3041"
   version="1.1"
   inkscape:version="0.48.2 r9819"
   sodipodi:docname="dynamische_druk.svg">
  <defs
     id="defs3043">
    <linearGradient
       id="linearGradient3786"
       osb:paint="solid">
      <stop
         style="stop-color:#000000;stop-opacity:1;"
         offset="0"
         id="stop3788" />
    </linearGradient>
    <linearGradient
       id="linearGradient4912"
       osb:paint="solid">
      <stop
         style="stop-color:#00fcff;stop-opacity:1;"
         offset="0"
         id="stop4914" />
    </linearGradient>
    <marker
       style="overflow:visible"
       id="Arrow1Mstart"
       refX="0"
       refY="0"
       orient="auto"
       inkscape:stockid="Arrow1Mstart">
      <path
         transform="matrix(0.4,0,0,0.4,4,0)"
         style="fill-rule:evenodd;stroke:#000000;stroke-width:1pt;marker-start:none"
         d="M 0,0 5,-5 -12.5,0 5,5 0,0 z"
         id="path3776"
         inkscape:connector-curvature="0" />
    </marker>
    <marker
       style="overflow:visible"
       id="Arrow1Mend"
       refX="0"
       refY="0"
       orient="auto"
       inkscape:stockid="Arrow1Mend">
      <path
         transform="matrix(-0.4,0,0,-0.4,-4,0)"
         style="fill-rule:evenodd;stroke:#000000;stroke-width:1pt;marker-start:none"
         d="M 0,0 5,-5 -12.5,0 5,5 0,0 z"
         id="path3779"
         inkscape:connector-curvature="0" />
    </marker>
  </defs>
  <sodipodi:namedview
     id="base"
     pagecolor="#ffffff"
     bordercolor="#666666"
     borderopacity="1.0"
     inkscape:pageopacity="0.0"
     inkscape:pageshadow="2"
     inkscape:zoom="2.8"
     inkscape:cx="157.77414"
     inkscape:cy="88.557817"
     inkscape:document-units="mm"
     inkscape:current-layer="layer1"
     showgrid="true"
     inkscape:window-width="1280"
     inkscape:window-height="962"
     inkscape:window-x="-8"
     inkscape:window-y="-8"
     inkscape:window-maximized="1"
     units="mm">
    <inkscape:grid
       type="xygrid"
       id="grid2992"
       empspacing="5"
       visible="true"
       enabled="true"
       snapvisiblegridlinesonly="true"
       units="mm"
       spacingx="1mm"
       spacingy="1mm" />
  </sodipodi:namedview>
  <metadata
     id="metadata3046">
    <rdf:RDF>
      <cc:Work
         rdf:about="">
        <dc:format>image/svg+xml</dc:format>
        <dc:type
           rdf:resource="http://purl.org/dc/dcmitype/StillImage" />
        <dc:title />
      </cc:Work>
    </rdf:RDF>
  </metadata>
  <g
     inkscape:label="Laag 1"
     inkscape:groupmode="layer"
     id="layer1"
     transform="translate(0,-931.8897)">
    <path
       style="fill:#6fa5d3;fill-opacity:1;fill-rule:nonzero;stroke:none"
       d="m 31.889763,946.06295 290.551177,0 1.77166,49.60627 -90.35433,0 0,17.71658 -7.08661,0 0,-17.71658 -92.12599,0 0,3.5433 -7.08661,0 0,-3.5433 -93.897642,0 z"
       id="rect3003"
       inkscape:connector-curvature="0"
       sodipodi:nodetypes="ccccccccccccc" />
    <path
       sodipodi:nodetypes="ccccccc"
       inkscape:connector-curvature="0"
       id="path3791"
       d="m 35.433071,970.86607 c -3.543307,7.08661 -3.543307,24.80315 0,24.80315 m 0,-24.80315 c -3.543307,-7.08661 -3.543307,-24.80315 0,-24.80315 l -7.086614,0 0,49.6063 7.086614,0"
       style="fill:#ffffff;fill-rule:evenodd;stroke:none" />
    <path
       style="fill:none;stroke:#000000;stroke-width:0.70866144;stroke-linecap:butt;stroke-linejoin:miter;stroke-miterlimit:4;stroke-opacity:1;stroke-dasharray:none"
       d="m 35.433071,995.66922 92.125989,0 m 7.08661,0 92.12598,0"
       id="path2989"
       inkscape:connector-curvature="0"
       sodipodi:nodetypes="cccc" />
    <path
       style="fill:none;stroke:#000000;stroke-width:0.70866144;stroke-linecap:butt;stroke-linejoin:miter;stroke-miterlimit:4;stroke-opacity:1;stroke-dasharray:none"
       d="m 233.85827,995.66922 85.03937,0"
       id="path2991"
       inkscape:connector-curvature="0"
       sodipodi:nodetypes="cc" />
    <path
       style="fill:none;stroke:#000000;stroke-width:0.70866144;stroke-linecap:butt;stroke-linejoin:miter;stroke-miterlimit:4;stroke-opacity:1;stroke-dasharray:none"
       d="m 35.433071,946.06292 283.464569,0"
       id="path2993"
       inkscape:connector-curvature="0" />
    <path
       style="fill:#b3b3b3;stroke:none"
       d="m 276.37796,942.51961 0,77.95279 c 0,35.4329 -49.6063,35.4329 -49.6063,0 l 0,-7.0867 7.08661,10e-5 0,7.0866 c 0,24.8031 35.43307,24.8031 35.43307,0 l 0,-77.95278 z"
       id="path3773"
       inkscape:connector-curvature="0"
       sodipodi:nodetypes="cccccsccc" />
    <path
       style="fill:none;stroke:#000000;stroke-width:1px;stroke-linecap:butt;stroke-linejoin:miter;stroke-opacity:1"
       d="m 233.85826,995.66922 0,24.80318 c 0,24.8031 35.43307,24.8031 35.43307,0 l 0,-85.0394 m 7.08662,0 0,85.0394 c 0,35.433 -49.6063,35.433 -49.6063,0 l 0,-24.80318"
       id="path3769"
       inkscape:connector-curvature="0"
       sodipodi:nodetypes="cccccccc" />
    <path
       style="fill:none;stroke:#000000;stroke-width:0.70866144;stroke-linecap:butt;stroke-linejoin:miter;stroke-miterlimit:4;stroke-opacity:1;stroke-dasharray:5.66929134, 1.41732283, 0.70866142, 1.41732283;stroke-dashoffset:0"
       d="m 38.976378,970.86607 279.921262,0"
       id="path2995"
       inkscape:connector-curvature="0" />
    <path
       style="fill:none;stroke:#000000;stroke-width:0.70866144;stroke-linecap:butt;stroke-linejoin:miter;stroke-miterlimit:4;stroke-opacity:1;stroke-dasharray:none"
       d="m 35.433071,946.06292 c -3.543307,0 -3.543307,17.71654 0,24.80315 3.543307,7.08661 3.543307,24.80315 0,24.80315 -3.543307,0 -3.543307,-17.71654 0,-24.80315"
       id="path3765"
       inkscape:connector-curvature="0"
       sodipodi:nodetypes="czzc" />
    <path
       style="fill:#ffffff;fill-rule:evenodd;stroke:none"
       d="m 318.89764,970.86607 c 3.54331,7.08661 3.54331,24.80315 0,24.80315 m 0,-24.80315 c 3.54331,-7.08661 3.54331,-24.80315 0,-24.80315 l 7.08662,0 0,49.6063 -7.08662,0"
       id="path3792"
       inkscape:connector-curvature="0"
       sodipodi:nodetypes="ccccccc" />
    <path
       sodipodi:nodetypes="czzc"
       inkscape:connector-curvature="0"
       id="path3767"
       d="m 318.89764,995.66922 c 3.54331,0 3.54331,-17.71654 0,-24.80315 -3.54331,-7.08661 -3.54331,-24.80315 0,-24.80315 3.54331,0 3.54331,17.71654 0,24.80315"
       style="fill:none;stroke:#000000;stroke-width:0.70866144;stroke-linecap:butt;stroke-linejoin:miter;stroke-miterlimit:4;stroke-opacity:1;stroke-dasharray:none" />
    <path
       style="fill:none;stroke:#000000;stroke-width:1px;stroke-linecap:butt;stroke-linejoin:miter;stroke-opacity:1;marker-start:url(#Arrow1Mstart);marker-end:url(#Arrow1Mend)"
       d="m 282.14174,1009.8425 0,-67.32286"
       id="path3901"
       inkscape:connector-curvature="0" />
    <text
       sodipodi:linespacing="125%"
       id="text3907"
       y="1009.8424"
       x="289.22833"
       style="font-size:13px;font-style:normal;font-variant:normal;font-weight:normal;font-stretch:normal;line-height:125%;letter-spacing:0px;word-spacing:0px;fill:#000000;fill-opacity:1;stroke:none;font-family:J;-inkscape-font-specification:J"
       xml:space="preserve"><tspan
         y="1009.8424"
         x="289.22833"
         id="tspan3909"
         sodipodi:role="line">0.6m</tspan></text>
    <path
       sodipodi:nodetypes="cccccsccc"
       inkscape:connector-curvature="0"
       id="path3019"
       d="m 177.16536,1016.9291 0,3.5433 c 0,35.4329 -49.6063,35.4329 -49.6063,0 l 0,-21.25998 7.08661,1e-4 0,21.25988 c 0,24.8031 35.43307,24.8031 35.43307,0 l 0,-3.5433 z"
       style="fill:#b3b3b3;stroke:none" />
    <rect
       style="fill:#6fa5d3;fill-opacity:1;fill-rule:evenodd;stroke:none"
       id="rect3021"
       width="7.0866189"
       height="28.346476"
       x="170.07874"
       y="988.58258" />
    <path
       sodipodi:nodetypes="cccccccccccc"
       inkscape:connector-curvature="0"
       id="path3015"
       d="m 134.64567,995.66922 0,24.80318 c 0,24.8031 35.43307,24.8031 35.43307,0 l 0,-38.97641 c 0,-3.5433 -3.54331,-7.08661 -7.08661,-7.08661 l -14.17323,0 m -21.25984,21.25984 0,24.80318 c 0,35.433 49.6063,35.433 49.6063,0 l -1e-5,-38.97641 c 0,-7.08661 -3.5433,-14.17323 -10.62992,-14.17323 l -17.71653,0"
       style="fill:none;stroke:#000000;stroke-width:1px;stroke-linecap:butt;stroke-linejoin:miter;stroke-opacity:1" />
    <path
       inkscape:connector-curvature="0"
       id="path3803"
       d="m 184.25197,1016.9291 0,-17.71658"
       style="fill:none;stroke:#000000;stroke-width:1px;stroke-linecap:butt;stroke-linejoin:miter;stroke-opacity:1;marker-start:url(#Arrow1Mstart);marker-end:url(#Arrow1Mend)" />
    <text
       xml:space="preserve"
       style="font-size:13px;font-style:normal;font-variant:normal;font-weight:normal;font-stretch:normal;line-height:125%;letter-spacing:0px;word-spacing:0px;fill:#000000;fill-opacity:1;stroke:none;font-family:J;-inkscape-font-specification:J"
       x="187.79527"
       y="1009.8425"
       id="text3805"
       sodipodi:linespacing="125%"><tspan
         sodipodi:role="line"
         id="tspan3807"
         x="187.79527"
         y="1009.8425">0.2m</tspan></text>
  </g>
</svg>
