<?xml version="1.0" encoding="UTF-8" standalone="no"?>
<!-- Created with Inkscape (http://www.inkscape.org/) -->

<svg
   xmlns:dc="http://purl.org/dc/elements/1.1/"
   xmlns:cc="http://creativecommons.org/ns#"
   xmlns:rdf="http://www.w3.org/1999/02/22-rdf-syntax-ns#"
   xmlns:svg="http://www.w3.org/2000/svg"
   xmlns="http://www.w3.org/2000/svg"
   xmlns:xlink="http://www.w3.org/1999/xlink"
   xmlns:sodipodi="http://sodipodi.sourceforge.net/DTD/sodipodi-0.dtd"
   xmlns:inkscape="http://www.inkscape.org/namespaces/inkscape"
   width="319.60162"
   height="149.99355"
   id="svg3009"
   version="1.1"
   inkscape:version="0.48.2 r9819"
   sodipodi:docname="jetski.svg">
  <defs
     id="defs3011">
    <marker
       inkscape:stockid="Arrow1Mend"
       orient="auto"
       refY="0"
       refX="0"
       id="Arrow1Mend"
       style="overflow:visible">
      <path
         id="path3912"
         d="M 0,0 5,-5 -12.5,0 5,5 0,0 z"
         style="fill-rule:evenodd;stroke:#000000;stroke-width:1pt;marker-start:none"
         transform="matrix(-0.4,0,0,-0.4,-4,0)"
         inkscape:connector-curvature="0" />
    </marker>
    <linearGradient
       inkscape:collect="always"
       xlink:href="#linearGradient7587"
       id="linearGradient3304"
       gradientUnits="userSpaceOnUse"
       gradientTransform="matrix(1.125,0,0,1.0869568,-15.521397,656.40388)"
       spreadMethod="pad"
       x1="124.01575"
       y1="347.24408"
       x2="124.01575"
       y2="265.74802" />
    <linearGradient
       id="linearGradient7587">
      <stop
         style="stop-color:#6da5d4;stop-opacity:1;"
         offset="0"
         id="stop7595" />
      <stop
         id="stop7591"
         offset="1"
         style="stop-color:#cae7f9;stop-opacity:1;" />
    </linearGradient>
    <linearGradient
       y2="265.74802"
       x2="124.01575"
       y1="347.24408"
       x1="124.01575"
       spreadMethod="pad"
       gradientTransform="matrix(2.2236508,0,0,0.49199161,-91.035568,870.62791)"
       gradientUnits="userSpaceOnUse"
       id="linearGradient3093"
       xlink:href="#linearGradient7587"
       inkscape:collect="always" />
  </defs>
  <sodipodi:namedview
     id="base"
     pagecolor="#ffffff"
     bordercolor="#666666"
     borderopacity="1.0"
     inkscape:pageopacity="0.0"
     inkscape:pageshadow="2"
     inkscape:zoom="1.4"
     inkscape:cx="139.61199"
     inkscape:cy="95.910425"
     inkscape:document-units="mm"
     inkscape:current-layer="layer1"
     showgrid="false"
     units="mm"
     inkscape:window-width="1366"
     inkscape:window-height="706"
     inkscape:window-x="-8"
     inkscape:window-y="-8"
     inkscape:window-maximized="1"
     fit-margin-left="0.5"
     fit-margin-bottom="0.5"
     fit-margin-top="0.5"
     fit-margin-right="0.5">
    <inkscape:grid
       type="xygrid"
       id="grid3017"
       empspacing="5"
       visible="true"
       enabled="true"
       snapvisiblegridlinesonly="true"
       units="mm"
       spacingx="1mm"
       spacingy="1mm"
       dotted="false" />
  </sodipodi:namedview>
  <metadata
     id="metadata3014">
    <rdf:RDF>
      <cc:Work
         rdf:about="">
        <dc:format>image/svg+xml</dc:format>
        <dc:type
           rdf:resource="http://purl.org/dc/dcmitype/StillImage" />
        <dc:title></dc:title>
      </cc:Work>
    </rdf:RDF>
  </metadata>
  <g
     inkscape:label="Layer 1"
     inkscape:groupmode="layer"
     id="layer1"
     transform="translate(-25.112483,-893.2472)">
    <rect
       y="1001.3737"
       x="27.150589"
       height="40.095379"
       width="315.16312"
       id="rect7585"
       style="fill:url(#linearGradient3093);fill-opacity:1;fill-rule:nonzero;stroke:none" />
    <g
       id="g3019"
       transform="translate(2.5043549,51.09681)">
      <g
         transform="matrix(0.98700311,0.16070117,-0.16070117,0.98700311,149.57182,-29.298114)"
         inkscape:transform-center-y="-30.761366"
         inkscape:transform-center-x="53.421573"
         id="g3008">
        <path
           style="fill:#ffffff;stroke:#000000;stroke-width:1px;stroke-linecap:butt;stroke-linejoin:miter;stroke-opacity:1"
           d="m 185.71429,179.15212 c 16.08595,8.44816 42.28799,22.23447 55.47661,33.49964 l 21.04233,2.49257 C 241.43604,199.19524 217.53643,183.32826 192.5,173.97355 z"
           id="path3006"
           inkscape:connector-curvature="0"
           transform="translate(0,698.03149)"
           sodipodi:nodetypes="ccccc" />
        <path
           style="fill:#ffffff;stroke:#000000;stroke-width:1px;stroke-linecap:butt;stroke-linejoin:miter;stroke-opacity:1"
           d="m 149.25004,162.90678 c -2.57966,0.51135 -8.28819,3.21899 -7.82868,5.80838 1.29168,7.27874 11.04488,9.16921 18.43528,9.34391 7.51232,0.17759 25.61523,0.90353 25.75889,1.26269 l 8.33376,-5.05076 c 0.47244,0.62991 -27.6538,-14.74308 -44.69925,-11.36422 z"
           id="path3002"
           inkscape:connector-curvature="0"
           transform="translate(0,698.03149)"
           sodipodi:nodetypes="sssccs" />
        <path
           style="fill:#000000;stroke:#000000;stroke-width:1px;stroke-linecap:butt;stroke-linejoin:miter;stroke-opacity:1"
           d="m 151.52288,168.46262 -13.8896,8.08122 c -3.89887,3.07028 3.00149,7.96132 5.05077,5.80838 l 13.13198,-8.5863 c 0.69057,-4.5524 -1.18521,-5.73645 -4.29315,-5.3033 z"
           id="path3004"
           inkscape:connector-curvature="0"
           transform="translate(0,698.03149)"
           sodipodi:nodetypes="ccccc" />
      </g>
      <g
         id="g3013">
        <path
           style="fill:none;stroke:#000000;stroke-width:1px;stroke-linecap:butt;stroke-linejoin:miter;stroke-opacity:1"
           d="m 56.071429,266.47355 0,-12.14286 242.142861,-5.71429 -54.28572,20.35715 z"
           id="path2994"
           inkscape:connector-curvature="0"
           transform="translate(0,698.03149)" />
        <path
           style="fill:#ffffff;stroke:#000000;stroke-width:1px;stroke-linecap:butt;stroke-linejoin:miter;stroke-opacity:1"
           d="m 150.89286,922.54074 c 0,0 21.91393,-24.13192 35.35714,-24.64285 22.58673,-0.85845 55.63586,6.17844 82.23215,15.26786 7.63215,2.60832 8.75303,8.36632 11.875,11.69642 7.90905,3.78975 16.92394,13.13946 19.73214,17.14286"
           id="path3000"
           inkscape:connector-curvature="0"
           sodipodi:nodetypes="csscc" />
        <path
           style="fill:#ffffff;stroke:#000000;stroke-width:1px;stroke-linecap:butt;stroke-linejoin:miter;stroke-opacity:1"
           d="m 57.142858,947.71932 c 0,0 14.899988,-24.46717 27.5,-27.85714 11.091015,-2.98398 158.571432,10 158.571432,10"
           id="path2998"
           inkscape:connector-curvature="0"
           sodipodi:nodetypes="csc" />
        <rect
           style="fill:#000000;stroke:#000000;stroke-width:0.53149605;stroke-linecap:round;stroke-linejoin:round;stroke-miterlimit:4;stroke-opacity:1;stroke-dasharray:none;stroke-dashoffset:0"
           id="rect2996"
           width="251.25922"
           height="6.0515375"
           x="29.834467"
           y="947.90588"
           transform="matrix(0.99974566,-0.02255261,0.02255261,0.99974566,0,0)"
           ry="1.8394481"
           rx="4.7970042" />
      </g>
    </g>
    <g
       id="g3892">
      <path
         transform="translate(0,698.03149)"
         sodipodi:nodetypes="csscssccsscsscc"
         inkscape:connector-curvature="0"
         id="path3114"
         d="m 264.65997,313.16697 c 0,0 -3.88909,-0.25254 -11.16507,-0.25254 -1.86858,0 -5.75646,-2.06899 -5.75646,-4.80445 0,-4.24176 0,-12.79035 0,-16.8985 -6.96935,0 -9.44726,0 -14.0715,0 -22.41004,0 -41.0462,22.20803 -63.45624,22.20803 -36.53748,0 -111.621852,0 -111.621852,0 l -0.01742,-3.99954 c 0,0 74.279372,0 110.357142,0 23.45755,0 42.88173,-23.48214 66.33929,-23.48214 6.00642,0 18.25893,0 18.25893,0 0,0 0,13.20745 0,16.5625 0,1.78881 2.00583,3.79464 3.79464,3.79464 7.93026,0 25.71429,0 25.71429,0 z"
         style="fill:#74aad7;fill-opacity:1;stroke:#000000;stroke-width:0.70866144;stroke-linecap:butt;stroke-linejoin:miter;stroke-miterlimit:4;stroke-opacity:1;stroke-dasharray:none" />
      <g
         transform="translate(8.129912,12.237063)"
         id="g3888">
        <path
           sodipodi:type="arc"
           style="fill:#74aad7;fill-opacity:1;fill-rule:evenodd;stroke:#000000;stroke-width:0.6767683;stroke-linecap:round;stroke-linejoin:round;stroke-miterlimit:4;stroke-opacity:1;stroke-dasharray:none;stroke-dashoffset:0"
           id="path3884"
           sodipodi:cx="245.89285"
           sodipodi:cy="278.43784"
           sodipodi:rx="10"
           sodipodi:ry="10"
           d="m 255.89285,278.43784 c 0,5.52284 -4.47715,10 -10,10 -5.52284,0 -10,-4.47716 -10,-10 0,-5.52285 4.47716,-10 10,-10 5.52285,0 10,4.47715 10,10 z"
           transform="matrix(1.0314961,0,0,1.0629919,-12.377667,678.43226)" />
        <path
           style="fill:none;stroke:#000000;stroke-width:1px;stroke-linecap:butt;stroke-linejoin:miter;stroke-opacity:1"
           d="m 247.04936,967.32281 -14.17323,7.08661 14.17323,7.08662 z"
           id="path3886"
           inkscape:connector-curvature="0" />
      </g>
    </g>
    <path
       sodipodi:nodetypes="cc"
       style="fill:none;stroke:#5599ff;stroke-width:0.35433069;stroke-linecap:butt;stroke-linejoin:miter;stroke-miterlimit:4;stroke-opacity:1;stroke-dasharray:none"
       d="m 27.061302,1001.3737 315.703978,0"
       id="path7583"
       inkscape:connector-curvature="0" />
    <path
       style="fill:none;stroke:#000000;stroke-width:1px;stroke-linecap:butt;stroke-linejoin:miter;stroke-opacity:1;marker-end:url(#Arrow1Mend)"
       d="m 302.32143,1009.505 -18.75,0"
       id="path3898"
       inkscape:connector-curvature="0" />
    <path
       inkscape:connector-curvature="0"
       id="path4344"
       d="m 56.071436,1009.505 -25.710968,0"
       style="fill:none;stroke:#000000;stroke-width:1px;stroke-linecap:butt;stroke-linejoin:miter;stroke-opacity:1;marker-end:url(#Arrow1Mend)" />
  </g>
</svg>
