<?xml version="1.0" encoding="UTF-8" standalone="no"?>
<!-- Created with Inkscape (http://www.inkscape.org/) -->

<svg
   xmlns:ns0="http://www.iki.fi/pav/software/textext/"
   xmlns:dc="http://purl.org/dc/elements/1.1/"
   xmlns:cc="http://creativecommons.org/ns#"
   xmlns:rdf="http://www.w3.org/1999/02/22-rdf-syntax-ns#"
   xmlns:svg="http://www.w3.org/2000/svg"
   xmlns="http://www.w3.org/2000/svg"
   xmlns:xlink="http://www.w3.org/1999/xlink"
   xmlns:sodipodi="http://sodipodi.sourceforge.net/DTD/sodipodi-0.dtd"
   xmlns:inkscape="http://www.inkscape.org/namespaces/inkscape"
   sodipodi:docname="vernauwing.svg"
   inkscape:version="0.48.2 r9819"
   version="1.1"
   id="svg3041"
   height="153.24805"
   width="379.37653">
  <sodipodi:namedview
     id="base"
     pagecolor="#ffffff"
     bordercolor="#666666"
     borderopacity="1.0"
     inkscape:pageopacity="0.0"
     inkscape:pageshadow="2"
     inkscape:zoom="2.0000001"
     inkscape:cx="197.76196"
     inkscape:cy="62.51317"
     inkscape:document-units="mm"
     inkscape:current-layer="layer1"
     showgrid="false"
     inkscape:window-width="1366"
     inkscape:window-height="706"
     inkscape:window-x="-8"
     inkscape:window-y="-8"
     inkscape:window-maximized="1"
     units="mm"
     fit-margin-left="0.5"
     fit-margin-top="0.5"
     fit-margin-bottom="0.5"
     fit-margin-right="0.5">
    <inkscape:grid
       type="xygrid"
       id="grid2992"
       empspacing="5"
       visible="true"
       enabled="true"
       snapvisiblegridlinesonly="true"
       units="mm"
       spacingx="1mm"
       spacingy="1mm" />
  </sodipodi:namedview>
  <defs
     id="defs3043">
    <marker
       inkscape:stockid="Arrow1Mend"
       orient="auto"
       refY="0"
       refX="0"
       id="Arrow1Mend"
       style="overflow:visible">
      <path
         inkscape:connector-curvature="0"
         id="path3779"
         d="M 0,0 5,-5 -12.5,0 5,5 0,0 z"
         style="fill-rule:evenodd;stroke:#000000;stroke-width:1pt;marker-start:none"
         transform="matrix(-0.4,0,0,-0.4,-4,0)" />
    </marker>
    <marker
       inkscape:stockid="Arrow1Mstart"
       orient="auto"
       refY="0"
       refX="0"
       id="Arrow1Mstart"
       style="overflow:visible">
      <path
         inkscape:connector-curvature="0"
         id="path3776"
         d="M 0,0 5,-5 -12.5,0 5,5 0,0 z"
         style="fill-rule:evenodd;stroke:#000000;stroke-width:1pt;marker-start:none"
         transform="matrix(0.4,0,0,0.4,4,0)" />
    </marker>
    <linearGradient
       id="linearGradient7587">
      <stop
         id="stop7595"
         offset="0"
         style="stop-color:#6da5d4;stop-opacity:1;" />
      <stop
         style="stop-color:#cae7f9;stop-opacity:1;"
         offset="1"
         id="stop7591" />
    </linearGradient>
    <linearGradient
       inkscape:collect="always"
       xlink:href="#linearGradient7587"
       id="linearGradient7599"
       gradientUnits="userSpaceOnUse"
       spreadMethod="pad"
       x1="134.1395"
       y1="422.83499"
       x2="134.1395"
       y2="318.89761"
       gradientTransform="matrix(0.87500004,0,0,1.8749936,148.37597,383.565)" />
    <linearGradient
       inkscape:collect="always"
       xlink:href="#linearGradient7587"
       id="linearGradient8515"
       gradientUnits="userSpaceOnUse"
       gradientTransform="matrix(1.125,0,0,2.6086951,-24.360232,128.79166)"
       spreadMethod="pad"
       x1="124.01575"
       y1="347.24408"
       x2="124.01575"
       y2="265.74802" />
    <marker
       inkscape:stockid="Arrow1Mstart"
       orient="auto"
       refY="0"
       refX="0"
       id="Arrow1Mstart-1"
       style="overflow:visible">
      <path
         id="path3776-7"
         d="M 0,0 5,-5 -12.5,0 5,5 0,0 z"
         style="fill-rule:evenodd;stroke:#000000;stroke-width:1pt;marker-start:none"
         transform="matrix(0.4,0,0,0.4,4,0)"
         inkscape:connector-curvature="0" />
    </marker>
    <linearGradient
       inkscape:collect="always"
       xlink:href="#linearGradient7587"
       id="linearGradient5567"
       gradientUnits="userSpaceOnUse"
       gradientTransform="matrix(1.125,0,0,1.0869568,-47.569759,368.79759)"
       spreadMethod="pad"
       x1="124.01575"
       y1="347.24408"
       x2="124.01575"
       y2="265.74802" />
    <linearGradient
       inkscape:collect="always"
       xlink:href="#linearGradient7587"
       id="linearGradient5575"
       x1="251.34547"
       y1="947.73126"
       x2="252.05412"
       y2="947.73126"
       gradientUnits="userSpaceOnUse"
       gradientTransform="translate(-23.334524,-215.66757)" />
    <linearGradient
       inkscape:collect="always"
       xlink:href="#linearGradient7587"
       id="linearGradient5583"
       x1="248.36319"
       y1="1029.371"
       x2="248.1998"
       y2="926.37097"
       gradientUnits="userSpaceOnUse"
       gradientTransform="translate(-23.334524,-215.66757)" />
    <linearGradient
       inkscape:collect="always"
       xlink:href="#linearGradient7587"
       id="linearGradient5591"
       x1="318.97934"
       y1="1025.7628"
       x2="319.31595"
       y2="909.01282"
       gradientUnits="userSpaceOnUse"
       gradientTransform="translate(143.54267,-194.45437)" />
    <marker
       style="overflow:visible"
       id="Arrow1Lend"
       refX="0"
       refY="0"
       orient="auto"
       inkscape:stockid="Arrow1Lend">
      <path
         inkscape:connector-curvature="0"
         transform="matrix(-0.8,0,0,-0.8,-10,0)"
         style="fill-rule:evenodd;stroke:#000000;stroke-width:1pt;marker-start:none"
         d="M 0,0 5,-5 -12.5,0 5,5 0,0 z"
         id="path3773" />
    </marker>
  </defs>
  <metadata
     id="metadata3046">
    <rdf:RDF>
      <cc:Work
         rdf:about="">
        <dc:format>image/svg+xml</dc:format>
        <dc:type
           rdf:resource="http://purl.org/dc/dcmitype/StillImage" />
        <dc:title />
      </cc:Work>
    </rdf:RDF>
  </metadata>
  <g
     inkscape:label="Laag 1"
     inkscape:groupmode="layer"
     id="layer1"
     transform="translate(-7.4581065,-898.20071)">
    <path
       style="fill:#6fa5d3;fill-opacity:1;stroke:none"
       d="m 54.649606,942.84636 141.732284,0 70.86614,35.43307 106.29921,0 0,35.43307 -106.29921,0 -70.86614,35.4331 -141.732284,0 z"
       id="path5597"
       inkscape:connector-curvature="0" />
    <path
       inkscape:connector-curvature="0"
       id="path5599"
       d="m 54.649606,942.84636 141.732284,0 70.86614,35.43307 106.29921,0 m 0,35.43307 -106.29921,0 -70.86614,35.4331 -141.732284,0"
       style="fill:none;stroke:#000000;stroke-width:1.0629921;stroke-linecap:round;stroke-linejoin:miter;stroke-miterlimit:4;stroke-opacity:1;stroke-dasharray:none"
       sodipodi:nodetypes="cccccccc" />
    <path
       sodipodi:nodetypes="cc"
       inkscape:connector-curvature="0"
       id="path6349"
       d="m 61.73622,995.99598 -17.71653,0"
       style="fill:none;stroke:#000000;stroke-width:0.70866144;stroke-linecap:butt;stroke-linejoin:miter;stroke-miterlimit:4;stroke-opacity:1;stroke-dasharray:none;marker-start:url(#Arrow1Mstart);marker-end:none" />
    <path
       style="fill:none;stroke:#000000;stroke-width:0.70866144;stroke-linecap:butt;stroke-linejoin:miter;stroke-miterlimit:4;stroke-opacity:1;stroke-dasharray:none;marker-start:url(#Arrow1Mstart);marker-end:none"
       d="m 384.17716,995.99598 -17.71653,0"
       id="path5893"
       inkscape:connector-curvature="0"
       sodipodi:nodetypes="cc" />
    <g
       transform="matrix(0,1,-1,0,947.56293,889.69677)"
       id="g5340">
      <path
         sodipodi:type="arc"
         style="fill:none;stroke:#000000;stroke-width:0.70866144;stroke-linecap:butt;stroke-linejoin:round;stroke-miterlimit:4;stroke-dasharray:none;stroke-dashoffset:0"
         id="path3761"
         sodipodi:cx="35.433071"
         sodipodi:cy="177.16533"
         sodipodi:rx="17.716536"
         sodipodi:ry="17.716536"
         d="m 53.149607,177.16533 c 0,9.78457 -7.931963,17.71653 -17.716536,17.71653 -9.784572,0 -17.716535,-7.93196 -17.716535,-17.71653 0,-9.78457 7.931963,-17.71654 17.716535,-17.71654 9.784573,0 17.716536,7.93197 17.716536,17.71654 z"
         transform="translate(-7.0866144,680.31492)" />
      <path
         style="fill:none;stroke:#000000;stroke-width:1.77165353;stroke-linecap:butt;stroke-linejoin:miter;stroke-miterlimit:4;stroke-opacity:1;stroke-dasharray:none"
         d="m 46.062992,159.4488 7.086614,0"
         id="path3763"
         inkscape:connector-curvature="0"
         transform="translate(0,698.03145)" />
      <path
         style="fill:none;stroke:#000000;stroke-width:0.35433072;stroke-linecap:butt;stroke-linejoin:miter;stroke-miterlimit:4;stroke-opacity:1;stroke-dasharray:none;marker-end:url(#Arrow1Lend)"
         d="M 28.346457,159.4488 21.259843,145.27557"
         id="path3765"
         inkscape:connector-curvature="0"
         transform="translate(0,698.03145)" />
    </g>
    <g
       ns0:preamble=""
       ns0:text="\\O80mm"
       word-spacing="normal"
       letter-spacing="normal"
       font-size-adjust="none"
       font-stretch="normal"
       font-weight="normal"
       font-variant="normal"
       font-style="normal"
       stroke-miterlimit="10.433"
       xml:space="preserve"
       transform="matrix(1.25,0,0,-1.25,-138.80746,1823.5048)"
       id="content"
       style="font-style:normal;font-variant:normal;font-weight:normal;font-stretch:normal;letter-spacing:normal;word-spacing:normal;text-anchor:start;fill:none;stroke:#000000;stroke-linecap:butt;stroke-linejoin:miter;stroke-miterlimit:10.43299961;stroke-opacity:1;stroke-dasharray:none;stroke-dashoffset:0">
<path
   id="path3053"
   d="m 230.05,714.33 -0.21,0.14 -0.59,-0.87 c -0.02,-0.04 -0.07,-0.1 -0.09,-0.1 -0.01,0 -0.02,0 -0.07,0.05 -0.24,0.15 -0.86,0.58 -1.8,0.58 v -0.22 c 0.92,0 1.47,-0.56 1.65,-0.75 l -3.46,-5.07 c -0.35,0.49 -0.6,1.13 -0.6,2.4 0,0.56 0.02,1.54 0.51,2.32 0.47,0.74 1.21,1.1 1.9,1.1 v 0.22 c -1.78,0 -3.3,-1.59 -3.3,-3.64 0,-1.48 0.8,-2.43 1.23,-2.79 l -0.59,-0.88 -0.08,-0.11 0.19,-0.14 0.6,0.86 c 0.01,0.02 0.06,0.09 0.08,0.09 0.01,0 0.02,0 0.08,-0.04 0.73,-0.49 1.37,-0.57 1.79,-0.57 l 0.01,0.22 c -0.62,0 -1.22,0.26 -1.65,0.75 l 3.45,5.07 c 0.57,-0.76 0.62,-1.82 0.62,-2.46 0,-0.5 -0.02,-1.57 -0.58,-2.37 -0.43,-0.62 -1.12,-0.99 -1.84,-0.99 l -0.01,-0.22 c 1.81,0 3.31,1.58 3.31,3.58 0,1.23 -0.49,2.14 -1.24,2.83 z"
   inkscape:connector-curvature="0"
   style="fill:#000000;stroke-width:0" />
<path
   id="path3055"
   d="m 234.26,710.72 0.06,0.04 0.07,0.03 0.06,0.04 0.06,0.04 0.06,0.03 0.06,0.04 0.06,0.04 0.06,0.04 0.05,0.05 0.05,0.04 0.05,0.04 0.05,0.05 0.05,0.04 0.04,0.05 0.05,0.05 0.04,0.04 0.03,0.05 0.04,0.05 0.04,0.05 0.03,0.05 0.03,0.05 0.02,0.06 0.03,0.05 0.02,0.06 0.02,0.05 0.02,0.06 0.01,0.05 0.02,0.06 0.01,0.06 0,0.06 0.01,0.06 0,0.06 c 0,0.91 -0.89,1.48 -1.79,1.48 l -0.01,-0.25 c 0.72,0 1.36,-0.51 1.36,-1.23 0,-0.56 -0.39,-1.04 -0.98,-1.39 l -1.24,0.79 c -0.45,0.3 -0.5,0.64 -0.5,0.81 0,0.61 0.65,1.02 1.36,1.02 l 0.01,0.25 c -1,0 -1.8,-0.73 -1.8,-1.66 0,-0.18 0.02,-0.62 0.43,-1.09 0.11,-0.12 0.48,-0.37 0.73,-0.54 l 0.23,-0.15 1.22,-0.77 c 0.28,-0.19 0.75,-0.49 0.75,-1.09 0,-0.74 -0.75,-1.26 -1.56,-1.26 -0.86,0 -1.57,0.62 -1.57,1.45 0,0.57 0.31,1.21 1.16,1.67 h 0 l -0.23,0.15 c -0.58,-0.29 -1.43,-0.84 -1.43,-1.82 0,-1.06 1.01,-1.72 2.06,-1.72 1.12,0 2.07,0.82 2.07,1.88 0,0.36 -0.11,0.81 -0.49,1.23 -0.19,0.2 -0.35,0.3 -0.98,0.7 z"
   inkscape:connector-curvature="0"
   style="fill:#000000;stroke-width:0" />
<path
   id="path3057"
   d="m 240.74,710.3 0,0.15 0,0.15 -0.01,0.15 0,0.15 -0.01,0.15 -0.02,0.14 -0.01,0.15 -0.02,0.15 -0.02,0.14 -0.03,0.15 -0.03,0.14 -0.04,0.15 -0.04,0.14 -0.05,0.14 -0.06,0.14 -0.03,0.07 -0.03,0.07 c -0.46,0.95 -1.27,1.11 -1.69,1.11 -0.6,0 -1.32,-0.26 -1.73,-1.18 -0.32,-0.69 -0.37,-1.46 -0.37,-2.26 0,-0.74 0.04,-1.64 0.45,-2.39 0.43,-0.81 1.15,-1 1.64,-1 v 0.22 c -0.39,0 -0.98,0.24 -1.15,1.2 -0.11,0.59 -0.11,1.51 -0.11,2.09 0,0.64 0,1.29 0.08,1.83 0.19,1.18 0.93,1.27 1.18,1.27 0.33,0 0.99,-0.18 1.17,-1.16 0.1,-0.56 0.1,-1.31 0.1,-1.94 0,-0.74 0,-1.42 -0.11,-2.05 -0.15,-0.95 -0.71,-1.24 -1.16,-1.24 h 0 v -0.22 c 0.54,0 1.29,0.2 1.73,1.15 0.32,0.68 0.37,1.46 0.37,2.24 z"
   inkscape:connector-curvature="0"
   style="fill:#000000;stroke-width:0" />
<path
   id="path3059"
   d="m 242.24,710.54 v -2.66 c 0,-0.45 -0.11,-0.45 -0.78,-0.45 v -0.3 c 0.35,0.01 0.86,0.03 1.13,0.03 0.26,0 0.77,-0.02 1.11,-0.03 v 0.3 c -0.67,0 -0.78,0 -0.78,0.45 v 1.83 c 0,1.03 0.71,1.59 1.35,1.59 0.62,0 0.73,-0.54 0.73,-1.1 v -2.32 c 0,-0.45 -0.11,-0.45 -0.77,-0.45 v -0.3 c 0.35,0.01 0.85,0.03 1.12,0.03 0.26,0 0.78,-0.02 1.12,-0.03 v 0.3 c -0.67,0 -0.78,0 -0.78,0.45 v 1.83 c 0,1.03 0.71,1.59 1.34,1.59 0.63,0 0.74,-0.54 0.74,-1.1 v -2.32 c 0,-0.45 -0.11,-0.45 -0.78,-0.45 v -0.3 c 0.35,0.01 0.86,0.03 1.13,0.03 0.26,0 0.77,-0.02 1.11,-0.03 v 0.3 c -0.52,0 -0.76,0 -0.77,0.3 v 1.9 c 0,0.85 0,1.16 -0.31,1.52 -0.14,0.17 -0.47,0.37 -1.05,0.37 -0.83,0 -1.27,-0.6 -1.44,-0.98 -0.14,0.87 -0.87,0.98 -1.32,0.98 -0.73,0 -1.2,-0.43 -1.47,-1.05 v 1.05 l -1.41,-0.11 v -0.31 c 0.7,0 0.78,-0.07 0.78,-0.56 z"
   inkscape:connector-curvature="0"
   style="fill:#000000;stroke-width:0" />
<path
   id="path3061"
   d="m 250.54,710.54 v -2.66 c 0,-0.45 -0.11,-0.45 -0.78,-0.45 v -0.3 c 0.35,0.01 0.86,0.03 1.13,0.03 0.26,0 0.77,-0.02 1.11,-0.03 v 0.3 c -0.66,0 -0.77,0 -0.77,0.45 v 1.83 c 0,1.03 0.7,1.59 1.34,1.59 0.63,0 0.74,-0.54 0.74,-1.1 v -2.32 c 0,-0.45 -0.11,-0.45 -0.78,-0.45 v -0.3 c 0.35,0.01 0.85,0.03 1.12,0.03 0.26,0 0.78,-0.02 1.12,-0.03 v 0.3 c -0.67,0 -0.78,0 -0.78,0.45 v 1.83 c 0,1.03 0.71,1.59 1.35,1.59 0.62,0 0.73,-0.54 0.73,-1.1 v -2.32 c 0,-0.45 -0.11,-0.45 -0.78,-0.45 v -0.3 c 0.35,0.01 0.86,0.03 1.13,0.03 0.26,0 0.78,-0.02 1.11,-0.03 v 0.3 c -0.51,0 -0.76,0 -0.77,0.3 v 1.9 c 0,0.85 0,1.16 -0.31,1.52 -0.14,0.17 -0.47,0.37 -1.05,0.37 -0.83,0 -1.27,-0.6 -1.44,-0.98 -0.14,0.87 -0.87,0.98 -1.32,0.98 -0.73,0 -1.19,-0.43 -1.47,-1.05 v 1.05 l -1.41,-0.11 v -0.31 c 0.7,0 0.78,-0.07 0.78,-0.56 z"
   inkscape:connector-curvature="0"
   style="fill:#000000;stroke-width:0" />
</g>    <g
       id="g3159"
       transform="matrix(1.25,0,0,-1.25,28.776843,1856.7388)"
       xml:space="preserve"
       stroke-miterlimit="10.433"
       font-style="normal"
       font-variant="normal"
       font-weight="normal"
       font-stretch="normal"
       font-size-adjust="none"
       letter-spacing="normal"
       word-spacing="normal"
       ns0:text="\\O24mm"
       ns0:preamble=""
       style="font-style:normal;font-variant:normal;font-weight:normal;font-stretch:normal;letter-spacing:normal;word-spacing:normal;text-anchor:start;fill:none;stroke:#000000;stroke-linecap:butt;stroke-linejoin:miter;stroke-miterlimit:10.43299961;stroke-opacity:1;stroke-dasharray:none;stroke-dashoffset:0">
<path
   style="fill:#000000;stroke-width:0"
   inkscape:connector-curvature="0"
   d="m 230.05,714.33 -0.21,0.14 -0.59,-0.87 c -0.02,-0.04 -0.07,-0.1 -0.09,-0.1 -0.01,0 -0.02,0 -0.07,0.05 -0.24,0.15 -0.86,0.58 -1.8,0.58 v -0.22 c 0.92,0 1.47,-0.56 1.65,-0.75 l -3.46,-5.07 c -0.35,0.49 -0.6,1.13 -0.6,2.4 0,0.56 0.02,1.54 0.51,2.32 0.47,0.74 1.21,1.1 1.9,1.1 v 0.22 c -1.78,0 -3.3,-1.59 -3.3,-3.64 0,-1.48 0.8,-2.43 1.23,-2.79 l -0.59,-0.88 -0.08,-0.11 0.19,-0.14 0.6,0.86 c 0.01,0.02 0.06,0.09 0.08,0.09 0.01,0 0.02,0 0.08,-0.04 0.73,-0.49 1.37,-0.57 1.79,-0.57 l 0.01,0.22 c -0.62,0 -1.22,0.26 -1.65,0.75 l 3.45,5.07 c 0.57,-0.76 0.62,-1.82 0.62,-2.46 0,-0.5 -0.02,-1.57 -0.58,-2.37 -0.43,-0.62 -1.12,-0.99 -1.84,-0.99 l -0.01,-0.22 c 1.81,0 3.31,1.58 3.31,3.58 0,1.23 -0.49,2.14 -1.24,2.83 z"
   id="path3161" />
<path
   style="fill:#000000;stroke-width:0"
   inkscape:connector-curvature="0"
   d="m 232.44,707.89 1.06,1.02 c 1.55,1.37 2.15,1.91 2.15,2.9 0,1.14 -0.9,1.93 -2.11,1.93 -1.13,0 -1.86,-0.91 -1.86,-1.8 0,-0.55 0.5,-0.55 0.53,-0.55 0.17,0 0.51,0.12 0.51,0.52 0,0.26 -0.18,0.52 -0.52,0.52 -0.08,0 -0.1,0 -0.13,-0.01 0.22,0.65 0.76,1.01 1.34,1.01 0.91,0 1.33,-0.8 1.33,-1.62 0,-0.79 -0.5,-1.58 -1.04,-2.19 l -1.91,-2.13 c -0.11,-0.11 -0.11,-0.13 -0.11,-0.36 h 3.69 l 0.28,1.72 h -0.25 c -0.05,-0.3 -0.12,-0.73 -0.22,-0.88 -0.07,-0.08 -0.73,-0.08 -0.94,-0.08 z"
   id="path3163" />
<path
   style="fill:#000000;stroke-width:0"
   inkscape:connector-curvature="0"
   d="m 239.09,708.76 v -0.86 c 0,-0.36 -0.02,-0.47 -0.76,-0.47 h -0.21 v -0.3 c 0.41,0.03 0.93,0.03 1.34,0.03 0.42,0 0.95,0 1.36,-0.03 v 0.3 h -0.21 c -0.74,0 -0.76,0.11 -0.76,0.47 v 0.86 h 1 v 0.31 h -1 v 4.52 c 0,0.2 0,0.26 -0.16,0.26 -0.09,0 -0.12,0 -0.2,-0.12 l -3.05,-4.66 h 0.28 l 2.43,3.71 v -3.71 h -2.43 -0.28 v -0.31 z"
   id="path3165" />
<path
   style="fill:#000000;stroke-width:0"
   inkscape:connector-curvature="0"
   d="m 242.24,710.54 v -2.66 c 0,-0.45 -0.11,-0.45 -0.78,-0.45 v -0.3 c 0.35,0.01 0.86,0.03 1.13,0.03 0.26,0 0.77,-0.02 1.11,-0.03 v 0.3 c -0.67,0 -0.78,0 -0.78,0.45 v 1.83 c 0,1.03 0.71,1.59 1.35,1.59 0.62,0 0.73,-0.54 0.73,-1.1 v -2.32 c 0,-0.45 -0.11,-0.45 -0.77,-0.45 v -0.3 c 0.35,0.01 0.85,0.03 1.12,0.03 0.26,0 0.78,-0.02 1.12,-0.03 v 0.3 c -0.67,0 -0.78,0 -0.78,0.45 v 1.83 c 0,1.03 0.71,1.59 1.34,1.59 0.63,0 0.74,-0.54 0.74,-1.1 v -2.32 c 0,-0.45 -0.11,-0.45 -0.78,-0.45 v -0.3 c 0.35,0.01 0.86,0.03 1.13,0.03 0.26,0 0.77,-0.02 1.11,-0.03 v 0.3 c -0.52,0 -0.76,0 -0.77,0.3 v 1.9 c 0,0.85 0,1.16 -0.31,1.52 -0.14,0.17 -0.47,0.37 -1.05,0.37 -0.83,0 -1.27,-0.6 -1.44,-0.98 -0.14,0.87 -0.87,0.98 -1.32,0.98 -0.73,0 -1.2,-0.43 -1.47,-1.05 v 1.05 l -1.41,-0.11 v -0.31 c 0.7,0 0.78,-0.07 0.78,-0.56 z"
   id="path3167" />
<path
   style="fill:#000000;stroke-width:0"
   inkscape:connector-curvature="0"
   d="m 250.54,710.54 v -2.66 c 0,-0.45 -0.11,-0.45 -0.78,-0.45 v -0.3 c 0.35,0.01 0.86,0.03 1.13,0.03 0.26,0 0.77,-0.02 1.11,-0.03 v 0.3 c -0.66,0 -0.77,0 -0.77,0.45 v 1.83 c 0,1.03 0.7,1.59 1.34,1.59 0.63,0 0.74,-0.54 0.74,-1.1 v -2.32 c 0,-0.45 -0.11,-0.45 -0.78,-0.45 v -0.3 c 0.35,0.01 0.85,0.03 1.12,0.03 0.26,0 0.78,-0.02 1.12,-0.03 v 0.3 c -0.67,0 -0.78,0 -0.78,0.45 v 1.83 c 0,1.03 0.71,1.59 1.35,1.59 0.62,0 0.73,-0.54 0.73,-1.1 v -2.32 c 0,-0.45 -0.11,-0.45 -0.78,-0.45 v -0.3 c 0.35,0.01 0.86,0.03 1.13,0.03 0.26,0 0.78,-0.02 1.11,-0.03 v 0.3 c -0.51,0 -0.76,0 -0.77,0.3 v 1.9 c 0,0.85 0,1.16 -0.31,1.52 -0.14,0.17 -0.47,0.37 -1.05,0.37 -0.83,0 -1.27,-0.6 -1.44,-0.98 -0.14,0.87 -0.87,0.98 -1.32,0.98 -0.73,0 -1.19,-0.43 -1.47,-1.05 v 1.05 l -1.41,-0.11 v -0.31 c 0.7,0 0.78,-0.07 0.78,-0.56 z"
   id="path3169" />
</g>    <g
       style="font-style:normal;font-variant:normal;font-weight:normal;font-stretch:normal;letter-spacing:normal;word-spacing:normal;text-anchor:start;fill:none;stroke:#000000;stroke-linecap:butt;stroke-linejoin:miter;stroke-miterlimit:10.43299961;stroke-opacity:1;stroke-dasharray:none;stroke-dashoffset:0"
       ns0:preamble=""
       ns0:text="40l/min"
       word-spacing="normal"
       letter-spacing="normal"
       font-size-adjust="none"
       font-stretch="normal"
       font-weight="normal"
       font-variant="normal"
       font-style="normal"
       stroke-miterlimit="10.433"
       xml:space="preserve"
       transform="matrix(1.25,0,0,-1.25,-270.40774,1876.8319)"
       id="g3275">
<path
   id="path3277"
   d="m 226.36,708.76 v -0.86 c 0,-0.36 -0.02,-0.47 -0.76,-0.47 h -0.21 v -0.3 c 0.41,0.03 0.93,0.03 1.35,0.03 0.41,0 0.94,0 1.35,-0.03 v 0.3 h -0.21 c -0.74,0 -0.76,0.11 -0.76,0.47 v 0.86 h 1 v 0.31 h -1 v 4.52 c 0,0.2 0,0.26 -0.16,0.26 -0.09,0 -0.11,0 -0.2,-0.12 l -3.05,-4.66 h 0.28 l 2.43,3.71 v -3.71 h -2.43 -0.28 v -0.31 z"
   inkscape:connector-curvature="0"
   style="fill:#000000;stroke-width:0" />
<path
   id="path3279"
   d="m 232.99,710.3 0,0.15 0,0.15 -0.01,0.15 0,0.15 -0.01,0.15 -0.01,0.14 -0.02,0.15 -0.02,0.15 -0.02,0.14 -0.03,0.15 -0.03,0.14 -0.04,0.15 -0.04,0.14 -0.05,0.14 -0.06,0.14 -0.03,0.07 -0.03,0.07 c -0.46,0.95 -1.27,1.11 -1.69,1.11 -0.6,0 -1.32,-0.26 -1.73,-1.18 -0.32,-0.69 -0.37,-1.46 -0.37,-2.26 0,-0.74 0.04,-1.64 0.45,-2.39 0.43,-0.81 1.15,-1 1.64,-1 v 0.22 c -0.39,0 -0.97,0.24 -1.15,1.2 -0.11,0.59 -0.11,1.51 -0.11,2.09 0,0.64 0,1.29 0.08,1.83 0.19,1.18 0.93,1.27 1.18,1.27 0.33,0 0.99,-0.18 1.18,-1.16 0.09,-0.56 0.09,-1.31 0.09,-1.94 0,-0.74 0,-1.42 -0.11,-2.05 -0.15,-0.95 -0.71,-1.24 -1.16,-1.24 h 0 v -0.22 c 0.54,0 1.29,0.2 1.73,1.15 0.32,0.68 0.37,1.46 0.37,2.24 z"
   inkscape:connector-curvature="0"
   style="fill:#000000;stroke-width:0" />
<path
   id="path3281"
   d="m 235.16,714.02 -1.44,-0.11 v -0.31 c 0.7,0 0.78,-0.07 0.78,-0.55 v -5.17 c 0,-0.45 -0.11,-0.45 -0.78,-0.45 v -0.3 c 0.33,0.01 0.86,0.03 1.11,0.03 0.25,0 0.73,-0.02 1.1,-0.03 v 0.3 c -0.67,0 -0.77,0 -0.77,0.45 z"
   inkscape:connector-curvature="0"
   style="fill:#000000;stroke-width:0" />
<path
   id="path3283"
   d="m 240.52,714.2 0,0 0,0.01 0.01,0.01 0,0 0,0.01 0,0 0,0.01 0.01,0 0,0.01 0,0 0,0.01 0.01,0.01 0,0.01 0,0.01 0,0 0.01,0.01 0,0.01 0,0 0,0.01 0,0 0,0.01 0,0 0.01,0.01 0,0 0,0.01 0,0 0,0 0,0.01 0,0 0,0 0,0 0,0.01 0,0 0,0 0,0.01 c 0,0.11 -0.09,0.2 -0.2,0.2 -0.14,0 -0.18,-0.1 -0.21,-0.2 l -3.39,-9.36 c -0.05,-0.13 -0.05,-0.16 -0.05,-0.18 0,-0.11 0.09,-0.2 0.2,-0.2 0.14,0 0.18,0.1 0.21,0.2 z"
   inkscape:connector-curvature="0"
   style="fill:#000000;stroke-width:0" />
<path
   id="path3285"
   d="m 242.24,710.54 v -2.66 c 0,-0.45 -0.11,-0.45 -0.78,-0.45 v -0.3 c 0.35,0.01 0.86,0.03 1.13,0.03 0.26,0 0.77,-0.02 1.11,-0.03 v 0.3 c -0.67,0 -0.78,0 -0.78,0.45 v 1.83 c 0,1.03 0.71,1.59 1.35,1.59 0.62,0 0.73,-0.54 0.73,-1.1 v -2.32 c 0,-0.45 -0.11,-0.45 -0.77,-0.45 v -0.3 c 0.35,0.01 0.85,0.03 1.12,0.03 0.26,0 0.78,-0.02 1.12,-0.03 v 0.3 c -0.67,0 -0.78,0 -0.78,0.45 v 1.83 c 0,1.03 0.71,1.59 1.34,1.59 0.63,0 0.74,-0.54 0.74,-1.1 v -2.32 c 0,-0.45 -0.11,-0.45 -0.78,-0.45 v -0.3 c 0.35,0.01 0.86,0.03 1.13,0.03 0.26,0 0.77,-0.02 1.11,-0.03 v 0.3 c -0.52,0 -0.76,0 -0.77,0.3 v 1.9 c 0,0.85 0,1.16 -0.31,1.52 -0.14,0.17 -0.47,0.37 -1.05,0.37 -0.83,0 -1.27,-0.6 -1.44,-0.98 -0.14,0.87 -0.87,0.98 -1.32,0.98 -0.73,0 -1.2,-0.43 -1.47,-1.05 v 1.05 l -1.41,-0.11 v -0.31 c 0.7,0 0.78,-0.07 0.78,-0.56 z"
   inkscape:connector-curvature="0"
   style="fill:#000000;stroke-width:0" />
<path
   id="path3287"
   d="m 251.21,711.52 -1.4,-0.11 v -0.31 c 0.65,0 0.74,-0.06 0.74,-0.55 v -2.67 c 0,-0.45 -0.11,-0.45 -0.78,-0.45 v -0.3 c 0.32,0.01 0.86,0.03 1.1,0.03 0.35,0 0.7,-0.02 1.03,-0.03 v 0.3 c -0.65,0 -0.69,0.05 -0.69,0.44 z"
   inkscape:connector-curvature="0"
   style="fill:#000000;stroke-width:0" />
<path
   id="path3289"
   d="m 251.25,713.24 0,0.03 -0.01,0.03 0,0.03 -0.01,0.03 0,0.02 -0.01,0.03 -0.01,0.03 -0.01,0.02 -0.01,0.02 -0.01,0.03 -0.01,0.02 -0.02,0.02 -0.01,0.02 -0.02,0.02 -0.02,0.02 -0.01,0.02 -0.02,0.01 -0.02,0.02 -0.02,0.01 -0.02,0.02 -0.02,0.01 -0.03,0.01 -0.02,0.01 -0.02,0.01 -0.03,0.01 -0.02,0.01 -0.02,0.01 -0.03,0 -0.02,0.01 -0.03,0 -0.03,0 -0.02,0 c -0.31,0 -0.53,-0.27 -0.53,-0.53 0,-0.26 0.22,-0.52 0.53,-0.52 0.28,0 0.53,0.21 0.53,0.52 z"
   inkscape:connector-curvature="0"
   style="fill:#000000;stroke-width:0" />
<path
   id="path3291"
   d="m 253.31,710.54 v -2.66 c 0,-0.45 -0.11,-0.45 -0.78,-0.45 v -0.3 c 0.35,0.01 0.86,0.03 1.12,0.03 0.26,0 0.78,-0.02 1.12,-0.03 v 0.3 c -0.67,0 -0.78,0 -0.78,0.45 v 1.83 c 0,1.03 0.71,1.59 1.35,1.59 0.62,0 0.73,-0.54 0.73,-1.1 v -2.32 c 0,-0.45 -0.11,-0.45 -0.77,-0.45 v -0.3 c 0.35,0.01 0.85,0.03 1.12,0.03 0.26,0 0.78,-0.02 1.12,-0.03 v 0.3 c -0.52,0 -0.77,0 -0.78,0.3 v 1.9 c 0,0.85 0,1.16 -0.31,1.52 -0.14,0.17 -0.47,0.37 -1.04,0.37 -0.73,0 -1.2,-0.43 -1.48,-1.05 v 1.05 l -1.4,-0.11 v -0.31 c 0.7,0 0.78,-0.07 0.78,-0.56 z"
   inkscape:connector-curvature="0"
   style="fill:#000000;stroke-width:0" />
</g>  </g>
  <g
     transform="translate(-7.4581065,-200.16925)"
     inkscape:groupmode="layer"
     id="layer2"
     inkscape:label="waterkering"
     style="display:inline" />
</svg>
