<?xml version="1.0" encoding="UTF-8" standalone="no"?>
<!-- Created with Inkscape (http://www.inkscape.org/) -->

<svg
   xmlns:ns0="http://www.iki.fi/pav/software/textext/"
   xmlns:dc="http://purl.org/dc/elements/1.1/"
   xmlns:cc="http://creativecommons.org/ns#"
   xmlns:rdf="http://www.w3.org/1999/02/22-rdf-syntax-ns#"
   xmlns:svg="http://www.w3.org/2000/svg"
   xmlns="http://www.w3.org/2000/svg"
   xmlns:sodipodi="http://sodipodi.sourceforge.net/DTD/sodipodi-0.dtd"
   xmlns:inkscape="http://www.inkscape.org/namespaces/inkscape"
   width="115.3109"
   height="141.73228"
   id="svg3041"
   version="1.1"
   inkscape:version="0.48.2 r9819"
   sodipodi:docname="waterkraan.svg">
  <sodipodi:namedview
     id="base"
     pagecolor="#ffffff"
     bordercolor="#666666"
     borderopacity="1.0"
     inkscape:pageopacity="0.0"
     inkscape:pageshadow="2"
     inkscape:zoom="3.4391434"
     inkscape:cx="81.392107"
     inkscape:cy="85.689418"
     inkscape:document-units="mm"
     inkscape:current-layer="layer1"
     showgrid="false"
     inkscape:window-width="1280"
     inkscape:window-height="962"
     inkscape:window-x="-8"
     inkscape:window-y="-8"
     inkscape:window-maximized="1"
     units="mm"
     fit-margin-left="0.5"
     fit-margin-top="0.5"
     fit-margin-bottom="0.5"
     fit-margin-right="0.5">
    <inkscape:grid
       type="xygrid"
       id="grid2992"
       empspacing="5"
       visible="true"
       enabled="true"
       snapvisiblegridlinesonly="true"
       units="mm"
       spacingx="1mm"
       spacingy="1mm" />
  </sodipodi:namedview>
  <defs
     id="defs3043">
    <marker
       inkscape:stockid="Arrow1Mend"
       orient="auto"
       refY="0"
       refX="0"
       id="Arrow1Mend"
       style="overflow:visible">
      <path
         id="path3779"
         d="M 0,0 5,-5 -12.5,0 5,5 0,0 z"
         style="fill-rule:evenodd;stroke:#000000;stroke-width:1pt;marker-start:none"
         transform="matrix(-0.4,0,0,-0.4,-4,0)"
         inkscape:connector-curvature="0" />
    </marker>
    <marker
       inkscape:stockid="Arrow1Mstart"
       orient="auto"
       refY="0"
       refX="0"
       id="Arrow1Mstart"
       style="overflow:visible">
      <path
         id="path3776"
         d="M 0,0 5,-5 -12.5,0 5,5 0,0 z"
         style="fill-rule:evenodd;stroke:#000000;stroke-width:1pt;marker-start:none"
         transform="matrix(0.4,0,0,0.4,4,0)"
         inkscape:connector-curvature="0" />
    </marker>
    <marker
       style="overflow:visible"
       id="Arrow1Mstart-1"
       refX="0"
       refY="0"
       orient="auto"
       inkscape:stockid="Arrow1Mstart">
      <path
         transform="matrix(0.4,0,0,0.4,4,0)"
         style="fill-rule:evenodd;stroke:#000000;stroke-width:1pt;marker-start:none"
         d="M 0,0 5,-5 -12.5,0 5,5 0,0 z"
         id="path3776-7"
         inkscape:connector-curvature="0" />
    </marker>
    <marker
       style="overflow:visible"
       id="Arrow1Mend-4"
       refX="0"
       refY="0"
       orient="auto"
       inkscape:stockid="Arrow1Mend">
      <path
         transform="matrix(-0.4,0,0,-0.4,-4,0)"
         style="fill-rule:evenodd;stroke:#000000;stroke-width:1pt;marker-start:none"
         d="M 0,0 5,-5 -12.5,0 5,5 0,0 z"
         id="path3779-0"
         inkscape:connector-curvature="0" />
    </marker>
  </defs>
  <metadata
     id="metadata3046">
    <rdf:RDF>
      <cc:Work
         rdf:about="">
        <dc:format>image/svg+xml</dc:format>
        <dc:type
           rdf:resource="http://purl.org/dc/dcmitype/StillImage" />
        <dc:title />
      </cc:Work>
    </rdf:RDF>
  </metadata>
  <g
     inkscape:label="Laag 1"
     inkscape:groupmode="layer"
     id="layer1"
     transform="translate(-8.5852565,-908.85817)">
    <path
       sodipodi:nodetypes="ccccc"
       inkscape:connector-curvature="0"
       id="rect3888"
       d="m 75.722855,962.87349 -41.795544,0 c 11.140227,31.4219 12.969776,67.03601 13.927074,85.69591 l 13.934235,0 c 0.49991,-19.1287 2.786846,-54.27401 13.934235,-85.69591 z"
       style="fill:#6fa5d3;fill-opacity:1;stroke:none" />
    <path
       sodipodi:nodetypes="cccccsccsc"
       style="fill:none;stroke:#5f8dd3;stroke-width:0.35433072;stroke-linecap:round;stroke-linejoin:miter;stroke-miterlimit:4;stroke-opacity:1;stroke-dasharray:none"
       d="m 73.033378,966.37147 c -1.020876,2.50773 -1.981648,5.15501 -2.884218,7.92819 m 0,0 c -0.90257,2.77318 -1.746937,5.67225 -2.535002,8.68354 m 0,0 c -0.788065,3.01129 -1.519828,6.1348 -2.19719,9.35686 -0.67736,3.22207 -1.300319,6.54271 -1.870778,9.94824 m -1.555768,10.4575 c -0.467356,3.5616 -0.88411,7.1945 -1.252163,10.8848 -0.368054,3.6905 -0.801754,10.4857 -1.074306,14.2775"
       id="path5351"
       inkscape:connector-curvature="0" />
    <path
       sodipodi:nodetypes="ccccc"
       inkscape:connector-curvature="0"
       id="path3004"
       d="m 33.920146,934.52703 0,28.34646 c 2.786849,3.5433 39.01586,3.5433 41.802709,0 l 0,-28.34646 c -2.786849,3.54331 -39.01586,3.54331 -41.802709,0 z"
       style="fill:#ffffff;stroke:#000000;stroke-width:1.0629921;stroke-linecap:butt;stroke-linejoin:round;stroke-miterlimit:4;stroke-opacity:1;stroke-dasharray:none" />
    <path
       sodipodi:nodetypes="ccc"
       inkscape:connector-curvature="0"
       id="path3786"
       d="m 45.067535,910.19666 c -5.573691,4.86607 -8.36054,17.03126 -8.36054,19.4643 0,2.43303 -2.547396,2.74046 -2.786849,4.86607"
       style="fill:none;stroke:#000000;stroke-width:1.0629921;stroke-linecap:butt;stroke-linejoin:miter;stroke-miterlimit:4;stroke-opacity:1;stroke-dasharray:none" />
    <path
       sodipodi:nodetypes="cc"
       inkscape:connector-curvature="0"
       id="path3792"
       d="m 33.920146,934.52703 c 2.786849,3.54331 39.01586,3.54331 41.802709,0"
       style="fill:none;stroke:#000000;stroke-width:1.77165353;stroke-linecap:butt;stroke-linejoin:miter;stroke-miterlimit:4;stroke-opacity:1;stroke-dasharray:none" />
    <path
       style="fill:none;stroke:#000000;stroke-width:1.0629921;stroke-linecap:butt;stroke-linejoin:miter;stroke-miterlimit:4;stroke-opacity:1;stroke-dasharray:none"
       d="m 78.509704,910.19666 c -5.573698,7.29911 -5.573698,14.59822 -5.573698,19.4643 0,2.43304 3.026302,2.74046 2.786849,4.86607"
       id="path3794"
       inkscape:connector-curvature="0"
       sodipodi:nodetypes="ccc" />
    <path
       inkscape:connector-curvature="0"
       id="path3796"
       d="m 36.706997,965.7301 c 1.020876,2.50773 1.981648,5.15501 2.884218,7.92819 0.90257,2.77317 1.746937,5.67224 2.535002,8.68353 m 2.197189,9.35687 c 0.677361,3.22207 1.30032,6.54269 1.870779,9.94821 0.570457,3.4055 1.088413,6.8959 1.555768,10.4575 0.467356,3.5616 0.88411,7.1945 1.252163,10.8849 m 0.959959,11.2301 c 0.272552,3.7919 0.498304,7.6276 0.679157,11.4936"
       style="fill:none;stroke:#5f8dd3;stroke-width:0.35433072;stroke-linecap:round;stroke-linejoin:miter;stroke-miterlimit:4;stroke-opacity:1;stroke-dasharray:none"
       sodipodi:nodetypes="csccssccc" />
    <path
       inkscape:connector-curvature="0"
       id="path3798"
       d="m 61.78862,968.95477 c -0.408351,2.50774 -0.79266,5.15502 -1.153687,7.9282 -0.361028,2.77318 -0.698775,5.67225 -1.014001,8.68354 m -0.878876,9.35686 c -0.270945,3.22207 -0.520128,6.54273 -0.748311,9.94823 -0.228183,3.4055 -0.435366,6.8959 -0.622308,10.4575 m -0.04348,5.8449 c -0.375915,4.7454 -0.73235,12.4783 -0.84137,16.2701 -0.109021,3.7919 -0.199322,4.4029 -0.271663,8.2689"
       style="fill:none;stroke:#5f8dd3;stroke-width:0.35433072;stroke-linecap:round;stroke-linejoin:miter;stroke-miterlimit:4;stroke-opacity:1;stroke-dasharray:none"
       sodipodi:nodetypes="csccsccsc" />
    <path
       sodipodi:nodetypes="csssccsc"
       style="fill:none;stroke:#5f8dd3;stroke-width:0.35433072;stroke-linecap:round;stroke-linejoin:miter;stroke-miterlimit:4;stroke-opacity:1;stroke-dasharray:none"
       d="m 48.473544,969.11405 c 0.408349,2.50774 0.792659,5.15503 1.153686,7.9282 0.361028,2.77318 0.698775,5.67225 1.014002,8.68354 0.315226,3.01128 0.607931,6.13481 0.878875,9.35687 0.270945,3.22207 0.520128,6.54264 0.748311,9.94824 m 0.622308,10.4575 c 0.186942,3.5616 0.353644,7.1944 0.500865,10.8848 0.147222,3.6905 0.274963,7.4384 0.383983,11.2302"
       id="path3800"
       inkscape:connector-curvature="0" />
    <path
       sodipodi:nodetypes="cc"
       inkscape:connector-curvature="0"
       id="path3802"
       d="m 45.067538,974.29966 c 0.812216,4.58333 1.628367,9.20474 2.786847,17.1392"
       style="fill:none;stroke:#5f8dd3;stroke-width:0.35433072;stroke-linecap:butt;stroke-linejoin:miter;stroke-miterlimit:4;stroke-opacity:1;stroke-dasharray:none" />
    <path
       sodipodi:nodetypes="cc"
       style="fill:none;stroke:#5f8dd3;stroke-width:0.35433072;stroke-linecap:butt;stroke-linejoin:miter;stroke-miterlimit:4;stroke-opacity:1;stroke-dasharray:none"
       d="m 54.984946,977.1562 0.114347,25.27"
       id="path3804"
       inkscape:connector-curvature="0" />
    <path
       sodipodi:nodetypes="cc"
       inkscape:connector-curvature="0"
       id="path3806"
       d="m 47.854385,1000.0084 c 1.117997,6.4882 1.969404,11.8834 2.786847,17.1393"
       style="fill:none;stroke:#5f8dd3;stroke-width:0.35433072;stroke-linecap:butt;stroke-linejoin:miter;stroke-miterlimit:4;stroke-opacity:1;stroke-dasharray:none" />
    <path
       sodipodi:nodetypes="cc"
       style="fill:none;stroke:#5f8dd3;stroke-width:0.35433072;stroke-linecap:butt;stroke-linejoin:miter;stroke-miterlimit:4;stroke-opacity:1;stroke-dasharray:none"
       d="m 65.375894,973.75722 c -1.262536,5.5421 -2.933406,14.68412 -3.587274,20.53817"
       id="path3808"
       inkscape:connector-curvature="0" />
    <path
       style="fill:none;stroke:#000000;stroke-width:0.7086615;stroke-linecap:butt;stroke-linejoin:miter;stroke-miterlimit:4;stroke-opacity:1;stroke-dasharray:none;marker-start:url(#Arrow1Mstart);marker-end:url(#Arrow1Mend)"
       d="m 21.259843,1047.8984 0,-85.02482"
       id="path8895"
       inkscape:connector-curvature="0" />
    <path
       inkscape:connector-curvature="0"
       id="path3882"
       d="m 28.346457,962.87353 5.573694,0"
       style="fill:none;stroke:#000000;stroke-width:0.7086615;stroke-linecap:butt;stroke-linejoin:miter;stroke-miterlimit:4;stroke-opacity:1;stroke-dasharray:none;marker-start:none;marker-end:url(#Arrow1Mend)" />
    <path
       style="fill:none;stroke:#000000;stroke-width:0.7086615;stroke-linecap:butt;stroke-linejoin:miter;stroke-miterlimit:4;stroke-opacity:1;stroke-dasharray:none;marker-start:none;marker-end:none"
       d="m 33.920138,962.87353 41.802715,0"
       id="path4072"
       inkscape:connector-curvature="0" />
    <path
       style="fill:none;stroke:#000000;stroke-width:0.7086615;stroke-linecap:butt;stroke-linejoin:miter;stroke-miterlimit:4;stroke-opacity:1;stroke-dasharray:none;marker-start:none;marker-end:url(#Arrow1Mend)"
       d="m 98.017626,962.87354 -22.294776,0"
       id="path4450"
       inkscape:connector-curvature="0" />
    <path
       style="fill:none;stroke:#000000;stroke-width:0.7086615;stroke-linecap:butt;stroke-linejoin:miter;stroke-miterlimit:4;stroke-opacity:1;stroke-dasharray:none;marker-start:none;marker-end:url(#Arrow1Mend)"
       d="m 42.280691,1047.229 5.573694,0"
       id="path4456"
       inkscape:connector-curvature="0" />
    <path
       inkscape:connector-curvature="0"
       id="path4458"
       d="m 47.854372,1047.229 13.934247,0"
       style="fill:none;stroke:#000000;stroke-width:0.70866144;stroke-linecap:butt;stroke-linejoin:miter;stroke-miterlimit:4;stroke-opacity:1;stroke-dasharray:none;marker-start:none;marker-end:none" />
    <path
       inkscape:connector-curvature="0"
       id="path4460"
       d="m 84.083397,1047.229 -22.294777,0"
       style="fill:none;stroke:#000000;stroke-width:0.7086615;stroke-linecap:butt;stroke-linejoin:miter;stroke-miterlimit:4;stroke-opacity:1;stroke-dasharray:none;marker-start:none;marker-end:url(#Arrow1Mend)" />
    <g
       ns0:preamble=""
       ns0:text="\\O18mm"
       word-spacing="normal"
       letter-spacing="normal"
       font-size-adjust="none"
       font-stretch="normal"
       font-weight="normal"
       font-variant="normal"
       font-style="normal"
       stroke-miterlimit="10.433"
       xml:space="preserve"
       transform="matrix(1.25,0,0,-1.25,-199.788,1843.6373)"
       id="content"
       style="font-style:normal;font-variant:normal;font-weight:normal;font-stretch:normal;letter-spacing:normal;word-spacing:normal;text-anchor:start;fill:none;stroke:#000000;stroke-linecap:butt;stroke-linejoin:miter;stroke-miterlimit:10.43299961;stroke-opacity:1;stroke-dasharray:none;stroke-dashoffset:0">
<path
   id="path3058"
   d="m 230.05,714.33 -0.21,0.14 -0.59,-0.87 c -0.02,-0.04 -0.07,-0.1 -0.09,-0.1 -0.01,0 -0.02,0 -0.07,0.05 -0.24,0.15 -0.86,0.58 -1.8,0.58 v -0.22 c 0.92,0 1.47,-0.56 1.65,-0.75 l -3.46,-5.07 c -0.35,0.49 -0.6,1.13 -0.6,2.4 0,0.56 0.02,1.54 0.51,2.32 0.47,0.74 1.21,1.1 1.9,1.1 v 0.22 c -1.78,0 -3.3,-1.59 -3.3,-3.64 0,-1.48 0.8,-2.43 1.23,-2.79 l -0.59,-0.88 -0.08,-0.11 0.19,-0.14 0.6,0.86 c 0.01,0.02 0.06,0.09 0.08,0.09 0.01,0 0.02,0 0.08,-0.04 0.73,-0.49 1.37,-0.57 1.79,-0.57 l 0.01,0.22 c -0.62,0 -1.22,0.26 -1.65,0.75 l 3.45,5.07 c 0.57,-0.76 0.62,-1.82 0.62,-2.46 0,-0.5 -0.02,-1.57 -0.58,-2.37 -0.43,-0.62 -1.12,-0.99 -1.84,-0.99 l -0.01,-0.22 c 1.81,0 3.31,1.58 3.31,3.58 0,1.23 -0.49,2.14 -1.24,2.83 z"
   inkscape:connector-curvature="0"
   style="fill:#000000;stroke-width:0" />
<path
   id="path3060"
   d="m 234.11,713.48 0,0.01 0,0.01 0,0.02 0,0.01 0,0 0,0.01 0,0.01 0,0.01 0,0.01 0,0.01 -0.01,0.01 0,0.01 0,0 0,0.01 0,0.01 0,0 0,0.01 0,0.01 0,0.01 0,0.01 -0.01,0.01 0,0.01 0,0.01 -0.01,0 0,0.01 -0.01,0.01 0,0 -0.01,0.01 -0.01,0 -0.01,0.01 0,0 -0.01,0 0,0 -0.01,0 0,0 -0.01,0 -0.01,0.01 0,0 -0.01,0 -0.01,0 0,0 -0.01,0 -0.01,0 -0.01,0 -0.01,0 0,0 -0.01,0 -0.01,0 -0.01,0 -0.01,0 -0.01,0 -0.01,0 c -0.62,-0.64 -1.5,-0.64 -1.81,-0.64 v -0.3 c 0.19,0 0.78,0 1.3,0.25 v -5.14 c 0,-0.36 -0.03,-0.48 -0.93,-0.48 h -0.31 v -0.3 c 0.34,0.03 1.21,0.03 1.61,0.03 0.4,0 1.26,0 1.61,-0.03 v 0.3 h -0.32 c -0.89,0 -0.92,0.11 -0.92,0.48 z"
   inkscape:connector-curvature="0"
   style="fill:#000000;stroke-width:0" />
<path
   id="path3062"
   d="m 239.24,710.72 0.06,0.04 0.07,0.03 0.06,0.04 0.06,0.04 0.06,0.03 0.06,0.04 0.06,0.04 0.06,0.04 0.05,0.05 0.05,0.04 0.05,0.04 0.05,0.05 0.05,0.04 0.04,0.05 0.05,0.05 0.04,0.04 0.04,0.05 0.03,0.05 0.04,0.05 0.03,0.05 0.03,0.05 0.03,0.06 0.02,0.05 0.02,0.06 0.02,0.05 0.02,0.06 0.02,0.05 0.01,0.06 0.01,0.06 0,0.06 0.01,0.06 0,0.06 c 0,0.91 -0.89,1.48 -1.79,1.48 l -0.01,-0.25 c 0.73,0 1.36,-0.51 1.36,-1.23 0,-0.56 -0.38,-1.04 -0.98,-1.39 l -1.24,0.79 c -0.45,0.3 -0.49,0.64 -0.49,0.81 0,0.61 0.64,1.02 1.35,1.02 l 0.01,0.25 c -1,0 -1.8,-0.73 -1.8,-1.66 0,-0.18 0.02,-0.62 0.44,-1.09 0.11,-0.12 0.47,-0.37 0.72,-0.54 l 0.23,-0.15 1.22,-0.77 c 0.28,-0.19 0.75,-0.49 0.75,-1.09 0,-0.74 -0.75,-1.26 -1.56,-1.26 -0.86,0 -1.57,0.62 -1.57,1.45 0,0.57 0.32,1.21 1.16,1.67 h 0 l -0.23,0.15 c -0.57,-0.29 -1.43,-0.84 -1.43,-1.82 0,-1.06 1.02,-1.72 2.06,-1.72 1.12,0 2.07,0.82 2.07,1.88 0,0.36 -0.11,0.81 -0.49,1.23 -0.19,0.2 -0.35,0.3 -0.98,0.7 z"
   inkscape:connector-curvature="0"
   style="fill:#000000;stroke-width:0" />
<path
   id="path3064"
   d="m 242.24,710.54 v -2.66 c 0,-0.45 -0.11,-0.45 -0.78,-0.45 v -0.3 c 0.35,0.01 0.86,0.03 1.13,0.03 0.26,0 0.77,-0.02 1.11,-0.03 v 0.3 c -0.67,0 -0.78,0 -0.78,0.45 v 1.83 c 0,1.03 0.71,1.59 1.35,1.59 0.62,0 0.73,-0.54 0.73,-1.1 v -2.32 c 0,-0.45 -0.11,-0.45 -0.77,-0.45 v -0.3 c 0.35,0.01 0.85,0.03 1.12,0.03 0.26,0 0.78,-0.02 1.12,-0.03 v 0.3 c -0.67,0 -0.78,0 -0.78,0.45 v 1.83 c 0,1.03 0.71,1.59 1.34,1.59 0.63,0 0.74,-0.54 0.74,-1.1 v -2.32 c 0,-0.45 -0.11,-0.45 -0.78,-0.45 v -0.3 c 0.35,0.01 0.86,0.03 1.13,0.03 0.26,0 0.77,-0.02 1.11,-0.03 v 0.3 c -0.52,0 -0.76,0 -0.77,0.3 v 1.9 c 0,0.85 0,1.16 -0.31,1.52 -0.14,0.17 -0.47,0.37 -1.05,0.37 -0.83,0 -1.27,-0.6 -1.44,-0.98 -0.14,0.87 -0.87,0.98 -1.32,0.98 -0.73,0 -1.2,-0.43 -1.47,-1.05 v 1.05 l -1.41,-0.11 v -0.31 c 0.7,0 0.78,-0.07 0.78,-0.56 z"
   inkscape:connector-curvature="0"
   style="fill:#000000;stroke-width:0" />
<path
   id="path3066"
   d="m 250.54,710.54 v -2.66 c 0,-0.45 -0.11,-0.45 -0.78,-0.45 v -0.3 c 0.35,0.01 0.86,0.03 1.13,0.03 0.26,0 0.77,-0.02 1.11,-0.03 v 0.3 c -0.66,0 -0.77,0 -0.77,0.45 v 1.83 c 0,1.03 0.7,1.59 1.34,1.59 0.63,0 0.74,-0.54 0.74,-1.1 v -2.32 c 0,-0.45 -0.11,-0.45 -0.78,-0.45 v -0.3 c 0.35,0.01 0.85,0.03 1.12,0.03 0.26,0 0.78,-0.02 1.12,-0.03 v 0.3 c -0.67,0 -0.78,0 -0.78,0.45 v 1.83 c 0,1.03 0.71,1.59 1.35,1.59 0.62,0 0.73,-0.54 0.73,-1.1 v -2.32 c 0,-0.45 -0.11,-0.45 -0.78,-0.45 v -0.3 c 0.35,0.01 0.86,0.03 1.13,0.03 0.26,0 0.78,-0.02 1.11,-0.03 v 0.3 c -0.51,0 -0.76,0 -0.77,0.3 v 1.9 c 0,0.85 0,1.16 -0.31,1.52 -0.14,0.17 -0.47,0.37 -1.05,0.37 -0.83,0 -1.27,-0.6 -1.44,-0.98 -0.14,0.87 -0.87,0.98 -1.32,0.98 -0.73,0 -1.19,-0.43 -1.47,-1.05 v 1.05 l -1.41,-0.11 v -0.31 c 0.7,0 0.78,-0.07 0.78,-0.56 z"
   inkscape:connector-curvature="0"
   style="fill:#000000;stroke-width:0" />
</g>    <g
       id="g3168"
       transform="matrix(1.25,0,0,-1.25,-206.96958,1928.9429)"
       xml:space="preserve"
       stroke-miterlimit="10.433"
       font-style="normal"
       font-variant="normal"
       font-weight="normal"
       font-stretch="normal"
       font-size-adjust="none"
       letter-spacing="normal"
       word-spacing="normal"
       ns0:text="\\O"
       ns0:preamble=""
       style="font-style:normal;font-variant:normal;font-weight:normal;font-stretch:normal;letter-spacing:normal;word-spacing:normal;text-anchor:start;fill:none;stroke:#000000;stroke-linecap:butt;stroke-linejoin:miter;stroke-miterlimit:10.43299961;stroke-opacity:1;stroke-dasharray:none;stroke-dashoffset:0">
<path
   style="fill:#000000;stroke-width:0"
   inkscape:connector-curvature="0"
   d="m 230.05,714.33 -0.21,0.14 -0.59,-0.87 c -0.02,-0.04 -0.07,-0.1 -0.09,-0.1 -0.01,0 -0.02,0 -0.07,0.05 -0.24,0.15 -0.86,0.58 -1.8,0.58 v -0.22 c 0.92,0 1.47,-0.56 1.65,-0.75 l -3.46,-5.07 c -0.35,0.49 -0.6,1.13 -0.6,2.4 0,0.56 0.02,1.54 0.51,2.32 0.47,0.74 1.21,1.1 1.9,1.1 v 0.22 c -1.78,0 -3.3,-1.59 -3.3,-3.64 0,-1.48 0.8,-2.43 1.23,-2.79 l -0.59,-0.88 -0.08,-0.11 0.19,-0.14 0.6,0.86 c 0.01,0.02 0.06,0.09 0.08,0.09 0.01,0 0.02,0 0.08,-0.04 0.73,-0.49 1.37,-0.57 1.79,-0.57 l 0.01,0.22 c -0.62,0 -1.22,0.26 -1.65,0.75 l 3.45,5.07 c 0.57,-0.76 0.62,-1.82 0.62,-2.46 0,-0.5 -0.02,-1.57 -0.58,-2.37 -0.43,-0.62 -1.12,-0.99 -1.84,-0.99 l -0.01,-0.22 c 1.81,0 3.31,1.58 3.31,3.58 0,1.23 -0.49,2.14 -1.24,2.83 z"
   id="path3170" />
</g>    <g
       style="font-style:normal;font-variant:normal;font-weight:normal;font-stretch:normal;letter-spacing:normal;word-spacing:normal;text-anchor:start;fill:none;stroke:#000000;stroke-linecap:butt;stroke-linejoin:miter;stroke-miterlimit:10.43299961;stroke-opacity:1;stroke-dasharray:none;stroke-dashoffset:0"
       ns0:preamble=""
       ns0:text="0.2m"
       word-spacing="normal"
       letter-spacing="normal"
       font-size-adjust="none"
       font-stretch="normal"
       font-weight="normal"
       font-variant="normal"
       font-style="normal"
       stroke-miterlimit="10.433"
       xml:space="preserve"
       transform="matrix(0,-1.25,-1.25,0,902.53191,1299.2649)"
       id="g3264">
<path
   id="path3266"
   d="m 228.01,710.3 0,0.15 0,0.15 -0.01,0.15 0,0.15 -0.01,0.15 -0.02,0.14 -0.01,0.15 -0.02,0.15 -0.02,0.14 -0.03,0.15 -0.03,0.14 -0.04,0.15 -0.04,0.14 -0.05,0.14 -0.06,0.14 -0.03,0.07 -0.03,0.07 c -0.46,0.95 -1.27,1.11 -1.69,1.11 -0.6,0 -1.32,-0.26 -1.73,-1.18 -0.32,-0.69 -0.37,-1.46 -0.37,-2.26 0,-0.74 0.04,-1.64 0.45,-2.39 0.43,-0.81 1.15,-1 1.64,-1 v 0.22 c -0.39,0 -0.98,0.24 -1.15,1.2 -0.11,0.59 -0.11,1.51 -0.11,2.09 0,0.64 0,1.29 0.08,1.83 0.18,1.18 0.93,1.27 1.18,1.27 0.33,0 0.98,-0.18 1.17,-1.16 0.1,-0.56 0.1,-1.31 0.1,-1.94 0,-0.74 0,-1.42 -0.11,-2.05 -0.15,-0.95 -0.71,-1.24 -1.16,-1.24 h 0 v -0.22 c 0.54,0 1.29,0.2 1.73,1.15 0.32,0.68 0.37,1.46 0.37,2.24 z"
   inkscape:connector-curvature="0"
   style="fill:#000000;stroke-width:0" />
<path
   id="path3268"
   d="m 230.32,707.65 0,0.03 0,0.02 0,0.03 -0.01,0.03 0,0.02 -0.01,0.03 -0.01,0.02 -0.01,0.03 -0.01,0.02 -0.01,0.02 -0.01,0.02 -0.02,0.02 -0.01,0.03 -0.02,0.02 -0.01,0.01 -0.02,0.02 -0.02,0.02 -0.02,0.02 -0.02,0.01 -0.02,0.02 -0.02,0.01 -0.02,0.01 -0.03,0.02 -0.02,0.01 -0.02,0.01 -0.03,0 -0.02,0.01 -0.03,0.01 -0.02,0 -0.03,0.01 -0.03,0 -0.02,0 c -0.29,0 -0.53,-0.24 -0.53,-0.53 0,-0.29 0.24,-0.52 0.53,-0.52 0.29,0 0.52,0.23 0.52,0.52 z"
   inkscape:connector-curvature="0"
   style="fill:#000000;stroke-width:0" />
<path
   id="path3270"
   d="m 232.44,707.89 1.06,1.02 c 1.55,1.37 2.15,1.91 2.15,2.9 0,1.14 -0.9,1.93 -2.11,1.93 -1.13,0 -1.86,-0.91 -1.86,-1.8 0,-0.55 0.5,-0.55 0.53,-0.55 0.17,0 0.51,0.12 0.51,0.52 0,0.26 -0.18,0.52 -0.52,0.52 -0.08,0 -0.1,0 -0.13,-0.01 0.22,0.65 0.76,1.01 1.34,1.01 0.91,0 1.33,-0.8 1.33,-1.62 0,-0.79 -0.5,-1.58 -1.04,-2.19 l -1.91,-2.13 c -0.11,-0.11 -0.11,-0.13 -0.11,-0.36 h 3.69 l 0.28,1.72 h -0.25 c -0.05,-0.3 -0.12,-0.73 -0.22,-0.88 -0.07,-0.08 -0.73,-0.08 -0.94,-0.08 z"
   inkscape:connector-curvature="0"
   style="fill:#000000;stroke-width:0" />
<path
   id="path3272"
   d="m 237.26,710.54 v -2.66 c 0,-0.45 -0.11,-0.45 -0.78,-0.45 v -0.3 c 0.35,0.01 0.86,0.03 1.12,0.03 0.26,0 0.78,-0.02 1.12,-0.03 v 0.3 c -0.67,0 -0.78,0 -0.78,0.45 v 1.83 c 0,1.03 0.71,1.59 1.35,1.59 0.62,0 0.73,-0.54 0.73,-1.1 v -2.32 c 0,-0.45 -0.11,-0.45 -0.77,-0.45 v -0.3 c 0.35,0.01 0.85,0.03 1.12,0.03 0.26,0 0.78,-0.02 1.12,-0.03 v 0.3 c -0.67,0 -0.78,0 -0.78,0.45 v 1.83 c 0,1.03 0.7,1.59 1.34,1.59 0.63,0 0.74,-0.54 0.74,-1.1 v -2.32 c 0,-0.45 -0.11,-0.45 -0.78,-0.45 v -0.3 c 0.35,0.01 0.86,0.03 1.13,0.03 0.26,0 0.77,-0.02 1.11,-0.03 v 0.3 c -0.52,0 -0.76,0 -0.77,0.3 v 1.9 c 0,0.85 0,1.16 -0.31,1.52 -0.14,0.17 -0.47,0.37 -1.05,0.37 -0.83,0 -1.27,-0.6 -1.44,-0.98 -0.14,0.87 -0.88,0.98 -1.32,0.98 -0.73,0 -1.2,-0.43 -1.48,-1.05 v 1.05 l -1.4,-0.11 v -0.31 c 0.7,0 0.78,-0.07 0.78,-0.56 z"
   inkscape:connector-curvature="0"
   style="fill:#000000;stroke-width:0" />
</g>  </g>
</svg>
