<?xml version="1.0" encoding="UTF-8" standalone="no"?>
<!-- Created with Inkscape (http://www.inkscape.org/) -->

<svg
   xmlns:ns0="http://www.iki.fi/pav/software/textext/"
   xmlns:dc="http://purl.org/dc/elements/1.1/"
   xmlns:cc="http://creativecommons.org/ns#"
   xmlns:rdf="http://www.w3.org/1999/02/22-rdf-syntax-ns#"
   xmlns:svg="http://www.w3.org/2000/svg"
   xmlns="http://www.w3.org/2000/svg"
   xmlns:sodipodi="http://sodipodi.sourceforge.net/DTD/sodipodi-0.dtd"
   xmlns:inkscape="http://www.inkscape.org/namespaces/inkscape"
   width="345.81436"
   height="200.47891"
   id="svg3041"
   version="1.1"
   inkscape:version="0.48.2 r9819"
   sodipodi:docname="dimensieanalysevoorbeeld.svg">
  <sodipodi:namedview
     id="base"
     pagecolor="#ffffff"
     bordercolor="#666666"
     borderopacity="1.0"
     inkscape:pageopacity="0.0"
     inkscape:pageshadow="2"
     inkscape:zoom="1.979899"
     inkscape:cx="185.41603"
     inkscape:cy="124.42409"
     inkscape:document-units="mm"
     inkscape:current-layer="layer1"
     showgrid="false"
     inkscape:window-width="1366"
     inkscape:window-height="706"
     inkscape:window-x="-8"
     inkscape:window-y="-8"
     inkscape:window-maximized="1"
     units="mm"
     fit-margin-left="0.4"
     fit-margin-top="0.5"
     fit-margin-bottom="0.5"
     fit-margin-right="0.5">
    <inkscape:grid
       spacingy="1mm"
       spacingx="1mm"
       units="mm"
       snapvisiblegridlinesonly="true"
       enabled="true"
       visible="true"
       empspacing="5"
       id="grid2992"
       type="xygrid" />
  </sodipodi:namedview>
  <defs
     id="defs3043">
    <marker
       style="overflow:visible"
       id="Arrow1Mend"
       refX="0"
       refY="0"
       orient="auto"
       inkscape:stockid="Arrow1Mend">
      <path
         inkscape:connector-curvature="0"
         transform="matrix(-0.4,0,0,-0.4,-4,0)"
         style="fill-rule:evenodd;stroke:#000000;stroke-width:1pt;marker-start:none"
         d="M 0,0 5,-5 -12.5,0 5,5 0,0 z"
         id="path6817" />
    </marker>
  </defs>
  <metadata
     id="metadata3046">
    <rdf:RDF>
      <cc:Work
         rdf:about="">
        <dc:format>image/svg+xml</dc:format>
        <dc:type
           rdf:resource="http://purl.org/dc/dcmitype/StillImage" />
        <dc:title />
      </cc:Work>
    </rdf:RDF>
  </metadata>
  <g
     transform="translate(-0.96332327,-850.03495)"
     id="layer1"
     inkscape:groupmode="layer"
     inkscape:label="Laag 1">
    <path
       inkscape:connector-curvature="0"
       id="path6035"
       d="m 42.575928,1034.6456 301.181102,0"
       style="fill:none;stroke:#000000;stroke-width:0.99921262;stroke-linecap:round;stroke-linejoin:miter;stroke-miterlimit:4;stroke-opacity:1;stroke-dasharray:none;marker-end:url(#Arrow1Mend)" />
    <path
       style="fill:none;stroke:#000000;stroke-width:0.99921256;stroke-linecap:round;stroke-linejoin:miter;stroke-miterlimit:4;stroke-opacity:1;stroke-dasharray:none;marker-end:url(#Arrow1Mend)"
       d="m 42.575928,1034.6456 0,-179.76516"
       id="path7249"
       inkscape:connector-curvature="0" />
    <g
       id="content"
       transform="matrix(1.25,0,0,-1.25,-278.15811,1756.1753)"
       xml:space="preserve"
       stroke-miterlimit="10.433"
       font-style="normal"
       font-variant="normal"
       font-weight="normal"
       font-stretch="normal"
       font-size-adjust="none"
       letter-spacing="normal"
       word-spacing="normal"
       ns0:text="$\\dfrac{F}{\\rho v^2 D^2}$"
       ns0:preamble="D:\\Onderwijs\\FLUI\\Cursus\\FLUI_theorie\\tex\\commands.tex"
       style="font-style:normal;font-variant:normal;font-weight:normal;font-stretch:normal;letter-spacing:normal;word-spacing:normal;text-anchor:start;fill:none;stroke:#000000;stroke-linecap:butt;stroke-linejoin:miter;stroke-miterlimit:10.43299961;stroke-opacity:1;stroke-dasharray:none;stroke-dashoffset:0">
<path
   style="fill:#000000;stroke-width:0"
   inkscape:connector-curvature="0"
   d="m 237.65,713.51 h 0.96 c 0.75,0 0.83,-0.16 0.83,-0.45 0,-0.07 0,-0.19 -0.07,-0.48 -0.02,-0.05 -0.03,-0.1 -0.03,-0.11 0,-0.08 0.06,-0.12 0.12,-0.12 0.1,0 0.1,0.03 0.15,0.2 l 0.54,2.16 c 0.03,0.11 0.03,0.13 0.03,0.16 0,0.02 -0.02,0.11 -0.11,0.11 -0.1,0 -0.11,-0.05 -0.15,-0.21 -0.21,-0.78 -0.44,-0.95 -1.29,-0.95 h -0.9 l 0.63,2.52 c 0.09,0.35 0.1,0.39 0.54,0.39 h 1.31 c 1.23,0 1.46,-0.33 1.46,-1.1 0,-0.22 0,-0.26 -0.03,-0.53 -0.02,-0.13 -0.02,-0.15 -0.02,-0.18 0,-0.05 0.03,-0.12 0.12,-0.12 0.11,0 0.12,0.06 0.14,0.25 l 0.19,1.72 c 0.03,0.26 -0.02,0.26 -0.26,0.26 h -4.88 c -0.2,0 -0.3,0 -0.3,-0.19 0,-0.11 0.09,-0.11 0.28,-0.11 0.37,0 0.65,0 0.65,-0.18 0,-0.04 0,-0.06 -0.05,-0.24 l -1.31,-5.26 c -0.1,-0.38 -0.12,-0.46 -0.91,-0.46 -0.17,0 -0.28,0 -0.28,-0.19 0,-0.12 0.12,-0.12 0.15,-0.12 0.29,0 1.02,0.03 1.31,0.03 0.33,0 1.16,-0.03 1.49,-0.03 0.09,0 0.2,0 0.2,0.19 0,0.08 -0.06,0.1 -0.06,0.11 -0.03,0.01 -0.04,0.01 -0.27,0.01 -0.22,0 -0.27,0 -0.52,0.02 -0.29,0.03 -0.32,0.07 -0.32,0.2 0,0.02 0,0.08 0.04,0.22 z"
   id="path3091" />
<line
   style="stroke-width:0.398"
   x1="224.63"
   y1="706.03003"
   x2="252.42999"
   y2="706.03003"
   id="line3093" />
<path
   style="fill:#000000;stroke-width:0"
   inkscape:connector-curvature="0"
   d="m 224.96,694.99 -0.01,-0.01 0,0 0,-0.01 0,0 0,-0.01 0,0 0,-0.01 0,0 0,-0.01 -0.01,0 0,-0.01 0,0 0,0 0,-0.01 0,-0.01 0,0 0,-0.01 -0.01,0 0,-0.01 0,-0.01 0,0 0,-0.01 0,0 0,0 0,-0.01 0,0 0,0 0,-0.01 0,0 0,0 0,-0.01 0,0 0,0 0,0 0,-0.01 0,0 c 0,-0.15 0.11,-0.27 0.28,-0.27 0.2,0 0.32,0.18 0.34,0.21 0.05,0.09 0.37,1.42 0.64,2.49 0.2,-0.4 0.52,-0.66 0.99,-0.66 l -0.02,0.22 c -0.69,0 -0.85,0.79 -0.85,0.88 0,0.04 0.05,0.24 0.08,0.37 0.28,1.11 0.38,1.47 0.6,1.86 0.42,0.73 0.92,0.95 1.23,0.95 0.37,0 0.69,-0.29 0.69,-0.97 0,-0.55 -0.29,-1.66 -0.56,-2.15 -0.33,-0.63 -0.81,-0.94 -1.19,-0.94 h 0 l 0.02,-0.22 c 1.16,0 2.44,1.4 2.44,2.88 0,1.05 -0.65,1.62 -1.38,1.62 -0.97,0 -2.01,-1 -2.31,-2.21 z"
   id="path3095" />
<path
   style="fill:#000000;stroke-width:0"
   inkscape:connector-curvature="0"
   d="m 234.43,700.4 0,0.03 0,0.02 0,0.02 0,0.03 0,0.02 0,0.02 0,0.02 -0.01,0.03 0,0.04 -0.01,0.03 -0.01,0.04 -0.01,0.04 -0.01,0.03 -0.01,0.03 -0.01,0.03 -0.02,0.03 -0.01,0.02 -0.02,0.03 -0.01,0.02 -0.02,0.02 -0.01,0.02 -0.02,0.02 -0.02,0.01 -0.02,0.02 -0.01,0.01 -0.02,0.01 -0.02,0.01 -0.02,0.01 -0.02,0.01 -0.02,0.01 -0.01,0 -0.02,0.01 -0.02,0 -0.02,0.01 -0.02,0 -0.01,0 c -0.25,0 -0.49,-0.26 -0.49,-0.48 0,-0.13 0.05,-0.19 0.16,-0.3 0.21,-0.2 0.34,-0.46 0.34,-0.81 0,-0.42 -0.61,-2.69 -1.77,-2.69 -0.51,0 -0.74,0.34 -0.74,0.86 0,0.56 0.27,1.28 0.58,2.1 0.07,0.17 0.12,0.31 0.12,0.5 0,0.45 -0.32,0.82 -0.82,0.82 -0.93,0 -1.31,-1.44 -1.31,-1.53 0,-0.1 0.1,-0.1 0.12,-0.1 0.1,0 0.11,0.02 0.16,0.18 0.28,1 0.71,1.23 1,1.23 0.08,0 0.25,0 0.25,-0.32 0,-0.25 -0.1,-0.52 -0.17,-0.7 -0.44,-1.15 -0.57,-1.6 -0.57,-2.03 0,-1.07 0.88,-1.23 1.34,-1.23 1.67,0 2.23,3.29 2.23,3.8 z"
   id="path3097" />
<path
   style="fill:#000000;stroke-width:0"
   inkscape:connector-curvature="0"
   d="m 238.48,700.85 h -0.24 c -0.02,-0.15 -0.09,-0.56 -0.18,-0.63 -0.05,-0.05 -0.59,-0.05 -0.68,-0.05 h -1.29 c 0.73,0.65 0.98,0.85 1.4,1.17 0.51,0.41 0.99,0.84 0.99,1.5 0,0.85 -0.74,1.36 -1.63,1.36 -0.86,0 -1.45,-0.6 -1.45,-1.24 0,-0.36 0.3,-0.39 0.37,-0.39 0.17,0 0.37,0.11 0.37,0.37 0,0.12 -0.05,0.36 -0.41,0.36 0.22,0.5 0.69,0.65 1.02,0.65 0.69,0 1.06,-0.54 1.06,-1.11 0,-0.6 -0.43,-1.08 -0.66,-1.33 l -1.68,-1.66 c -0.07,-0.06 -0.07,-0.07 -0.07,-0.27 h 2.87 z"
   id="path3099" />
<path
   style="fill:#000000;stroke-width:0"
   inkscape:connector-curvature="0"
   d="m 241.02,697.48 -0.01,-0.03 -0.01,-0.04 -0.01,-0.03 -0.01,-0.03 -0.01,-0.03 -0.01,-0.03 -0.01,-0.02 -0.01,-0.03 -0.01,-0.02 -0.01,-0.02 -0.01,-0.02 -0.02,-0.02 -0.01,-0.01 -0.02,-0.02 -0.02,-0.01 -0.02,-0.02 -0.02,-0.01 -0.03,-0.01 -0.02,-0.01 -0.03,-0.01 -0.04,-0.01 -0.01,0 -0.02,-0.01 -0.02,0 -0.02,0 -0.02,0 -0.02,-0.01 -0.02,0 -0.02,0 -0.03,0 -0.02,-0.01 -0.03,0 -0.02,0 -0.03,0 -0.03,0 -0.03,0 -0.03,0 -0.03,0 -0.03,-0.01 -0.03,0 -0.04,0 -0.03,0 -0.04,0 c -0.17,0 -0.28,0 -0.28,-0.18 0,-0.12 0.09,-0.12 0.28,-0.12 h 3.29 l -0.17,0.3 h -1.13 c -0.14,0 -0.16,0 -0.22,0.01 -0.1,0.01 -0.13,0.02 -0.13,0.1 0,0.03 0,0.05 0.05,0.23 l 1.36,5.45 c 0.1,0.35 0.11,0.38 0.54,0.38 h 1.07 c 0.97,0 1.8,-0.52 1.8,-1.84 0,-0.48 -0.2,-2.11 -1.05,-3.2 -0.29,-0.37 -1.07,-1.13 -2.29,-1.13 l 0.17,-0.3 c 2.07,0 4.03,2.09 4.03,4.27 0,1.4 -0.84,2.51 -2.33,2.51 h -3.35 c -0.19,0 -0.3,0 -0.3,-0.19 0,-0.12 0.09,-0.12 0.29,-0.12 0.13,0 0.31,-0.01 0.43,-0.02 0.16,-0.02 0.22,-0.05 0.22,-0.16 0,-0.04 -0.01,-0.07 -0.04,-0.18 z"
   id="path3101" />
<path
   style="fill:#000000;stroke-width:0"
   inkscape:connector-curvature="0"
   d="m 251.48,700.85 h -0.24 c -0.02,-0.15 -0.09,-0.56 -0.18,-0.63 -0.06,-0.05 -0.59,-0.05 -0.69,-0.05 h -1.28 c 0.73,0.65 0.97,0.85 1.39,1.17 0.51,0.41 1,0.84 1,1.5 0,0.85 -0.74,1.36 -1.63,1.36 -0.87,0 -1.45,-0.6 -1.45,-1.24 0,-0.36 0.3,-0.39 0.37,-0.39 0.16,0 0.37,0.11 0.37,0.37 0,0.12 -0.05,0.36 -0.41,0.36 0.21,0.5 0.68,0.65 1.01,0.65 0.7,0 1.06,-0.54 1.06,-1.11 0,-0.6 -0.43,-1.08 -0.65,-1.33 l -1.68,-1.66 c -0.07,-0.06 -0.07,-0.07 -0.07,-0.27 h 2.87 z"
   id="path3103" />
</g>    <g
       id="g3285"
       transform="matrix(1.25,0,0,-1.25,-96.015253,1932.3797)"
       xml:space="preserve"
       stroke-miterlimit="10.433"
       font-style="normal"
       font-variant="normal"
       font-weight="normal"
       font-stretch="normal"
       font-size-adjust="none"
       letter-spacing="normal"
       word-spacing="normal"
       ns0:text="Re"
       ns0:preamble="D:\\Onderwijs\\FLUI\\Cursus\\FLUI_theorie\\tex\\commands.tex"
       style="font-style:normal;font-variant:normal;font-weight:normal;font-stretch:normal;letter-spacing:normal;word-spacing:normal;text-anchor:start;fill:none;stroke:#000000;stroke-linecap:butt;stroke-linejoin:miter;stroke-miterlimit:10.43299961;stroke-opacity:1;stroke-dasharray:none;stroke-dashoffset:0">
<path
   style="fill:#000000;stroke-width:0"
   inkscape:connector-curvature="0"
   d="m 227.76,710.5 0.09,0.03 0.09,0.02 0.09,0.03 0.08,0.03 0.09,0.03 0.08,0.03 0.08,0.04 0.08,0.04 0.08,0.04 0.07,0.04 0.07,0.04 0.07,0.05 0.07,0.04 0.07,0.05 0.06,0.05 0.06,0.05 0.06,0.05 0.05,0.06 0.06,0.05 0.04,0.06 0.05,0.06 0.04,0.06 0.04,0.06 0.03,0.07 0.04,0.06 0.02,0.07 0.03,0.06 0.02,0.07 0.01,0.07 0.01,0.07 0.01,0.07 0,0.07 c 0,0.96 -1.13,1.79 -2.6,1.79 h -3.12 v -0.31 h 0.24 c 0.77,0 0.78,-0.11 0.78,-0.46 v -5.24 c 0,-0.36 -0.01,-0.47 -0.78,-0.47 h -0.24 v -0.3 c 0.36,0.03 1.07,0.03 1.45,0.03 0.39,0 1.1,0 1.45,-0.03 v 0.3 h -0.23 c -0.77,0 -0.79,0.11 -0.79,0.47 v 2.51 0.22 2.58 c 0,0.22 0,0.34 0.22,0.37 0.1,0.02 0.39,0.02 0.59,0.02 0.89,0 2.01,-0.04 2.01,-1.48 0,-0.68 -0.24,-1.49 -1.72,-1.49 h -1.1 v -0.22 h 1.14 c 0.16,0 0.58,0 0.93,-0.33 0.38,-0.36 0.38,-0.67 0.38,-1.34 0,-0.64 0,-1.04 0.41,-1.42 0.4,-0.35 0.95,-0.41 1.25,-0.41 0.78,0 0.94,0.81 0.94,1.09 0,0.06 0,0.17 -0.12,0.17 -0.11,0 -0.11,-0.09 -0.12,-0.16 -0.06,-0.71 -0.41,-0.88 -0.66,-0.88 -0.49,0 -0.57,0.5 -0.71,1.42 l -0.13,0.8 c -0.18,0.64 -0.66,0.96 -1.21,1.15 z"
   id="path3287" />
<path
   style="fill:#000000;stroke-width:0"
   inkscape:connector-curvature="0"
   d="m 231.87,709.42 0.01,0.21 c 0.06,1.48 0.89,1.73 1.23,1.73 1.03,0 1.13,-1.34 1.13,-1.73 h -2.36 l -0.01,-0.21 h 2.78 c 0.22,0 0.24,0 0.24,0.21 0,0.98 -0.53,1.95 -1.78,1.95 -1.15,0 -2.07,-1.03 -2.07,-2.27 0,-1.33 1.05,-2.29 2.19,-2.29 1.22,0 1.66,1.1 1.66,1.29 0,0.1 -0.07,0.12 -0.13,0.12 -0.08,0 -0.1,-0.06 -0.12,-0.14 -0.35,-1.03 -1.25,-1.03 -1.35,-1.03 -0.5,0 -0.89,0.3 -1.12,0.67 -0.3,0.48 -0.3,1.13 -0.3,1.49 z"
   id="path3289" />
</g>    <g
       style="font-style:normal;font-variant:normal;font-weight:normal;font-stretch:normal;letter-spacing:normal;word-spacing:normal;text-anchor:start;fill:none;stroke:#000000;stroke-width:1;stroke-linecap:butt;stroke-linejoin:miter;stroke-miterlimit:10.43299961;stroke-opacity:1;stroke-dasharray:none;stroke-dashoffset:0"
       ns0:preamble="D:\\Onderwijs\\FLUI\\Cursus\\FLUI_theorie\\tex\\commands.tex"
       ns0:text="$\\dfrac{N D}{v} = 1$"
       word-spacing="normal"
       letter-spacing="normal"
       font-size-adjust="none"
       font-stretch="normal"
       font-weight="normal"
       font-variant="normal"
       font-style="normal"
       stroke-miterlimit="10.433"
       xml:space="preserve"
       transform="matrix(1.1922453,0.3755681,0.3755681,-1.1922453,-454.76495,1738.7787)"
       id="g3351">
<path
   id="path3353"
   d="m 232.15,716.02 0.02,0.08 0.01,0.03 0.01,0.04 0.01,0.03 0.02,0.03 0.01,0.04 0.02,0.03 0.01,0.03 0.02,0.03 0.02,0.03 0.02,0.03 0.03,0.03 0.02,0.03 0.03,0.02 0.03,0.03 0.03,0.02 0.03,0.02 0.03,0.03 0.04,0.02 0.04,0.02 0.04,0.01 0.05,0.02 0.04,0.02 0.05,0.01 0.06,0.01 0.05,0.01 0.06,0.01 0.07,0.01 0.06,0.01 0.07,0 0.04,0.01 0.03,0 c 0.05,0 0.17,0.01 0.17,0.2 0,0.01 0,0.11 -0.13,0.11 -0.32,0 -0.67,-0.04 -1,-0.04 -0.34,0 -0.69,0.04 -1.02,0.04 -0.06,0 -0.17,0 -0.17,-0.2 0,-0.11 0.09,-0.11 0.17,-0.11 0.57,-0.01 0.68,-0.22 0.68,-0.44 0,-0.03 -0.02,-0.18 -0.03,-0.21 l -1.11,-4.42 -2.2,5.19 c -0.08,0.17 -0.09,0.19 -0.32,0.19 h -1.33 c -0.2,0 -0.29,0 -0.29,-0.2 0,-0.11 0.09,-0.11 0.28,-0.11 0.05,0 0.67,0 0.67,-0.09 l -1.33,-5.34 c -0.1,-0.39 -0.27,-0.71 -1.08,-0.74 -0.05,0 -0.16,-0.01 -0.16,-0.2 0,-0.07 0.05,-0.11 0.13,-0.11 0.31,0 0.66,0.03 0.99,0.03 0.34,0 0.7,-0.03 1.02,-0.03 0.05,0 0.18,0 0.18,0.2 0,0.1 -0.08,0.11 -0.19,0.11 -0.58,0.02 -0.66,0.24 -0.66,0.44 0,0.06 0.01,0.11 0.04,0.22 l 1.31,5.25 c 0.04,-0.06 0.04,-0.08 0.09,-0.18 l 2.48,-5.85 c 0.07,-0.17 0.1,-0.19 0.19,-0.19 0.11,0 0.11,0.03 0.16,0.21 z"
   inkscape:connector-curvature="0"
   style="fill:#000000;stroke-width:0" />
<path
   id="path3355"
   d="m 235.3,711.05 -0.01,-0.03 -0.01,-0.03 -0.01,-0.04 0,-0.03 -0.01,-0.03 -0.01,-0.02 -0.01,-0.03 -0.01,-0.02 -0.01,-0.02 -0.02,-0.03 -0.01,-0.01 -0.01,-0.02 -0.02,-0.02 -0.02,-0.02 -0.01,-0.01 -0.02,-0.01 -0.03,-0.02 -0.02,-0.01 -0.03,-0.01 -0.03,-0.01 -0.03,0 -0.02,-0.01 -0.02,0 -0.02,-0.01 -0.01,0 -0.02,0 -0.03,0 -0.02,-0.01 -0.02,0 -0.02,0 -0.03,0 -0.02,0 -0.03,-0.01 -0.03,0 -0.02,0 -0.03,0 -0.03,0 -0.03,0 -0.04,0 -0.03,0 -0.03,0 -0.04,0 -0.03,0 c -0.17,0 -0.28,0 -0.28,-0.19 0,-0.12 0.09,-0.12 0.28,-0.12 h 3.29 l -0.18,0.31 h -1.13 c -0.13,0 -0.15,0 -0.21,0.01 -0.1,0.01 -0.13,0.02 -0.13,0.1 0,0.03 0,0.05 0.05,0.23 l 1.36,5.45 c 0.09,0.35 0.11,0.38 0.54,0.38 h 1.06 c 0.98,0 1.8,-0.53 1.8,-1.84 0,-0.49 -0.2,-2.12 -1.04,-3.21 -0.29,-0.37 -1.08,-1.12 -2.3,-1.12 l 0.18,-0.31 c 2.07,0 4.03,2.1 4.03,4.27 0,1.4 -0.85,2.52 -2.34,2.52 h -3.34 c -0.19,0 -0.3,0 -0.3,-0.19 0,-0.12 0.09,-0.12 0.29,-0.12 0.13,0 0.31,-0.01 0.43,-0.02 0.15,-0.02 0.21,-0.05 0.21,-0.16 0,-0.04 -0.01,-0.07 -0.04,-0.19 z"
   inkscape:connector-curvature="0"
   style="fill:#000000;stroke-width:0" />
<line
   id="line3357"
   y2="706.03003"
   x2="242.24001"
   y1="706.03003"
   x1="224.63"
   style="stroke-width:0.398" />
<path
   id="path3359"
   d="m 235.5,700.4 0,0.03 0,0.02 0,0.02 0,0.03 -0.01,0.02 0,0.02 0,0.02 0,0.03 -0.01,0.04 -0.01,0.03 -0.01,0.04 -0.01,0.04 -0.01,0.03 -0.01,0.03 -0.01,0.03 -0.01,0.03 -0.02,0.02 -0.01,0.03 -0.02,0.02 -0.01,0.02 -0.02,0.02 -0.02,0.02 -0.01,0.01 -0.02,0.02 -0.02,0.01 -0.02,0.01 -0.02,0.01 -0.02,0.01 -0.01,0.01 -0.02,0.01 -0.02,0 -0.02,0.01 -0.02,0 -0.01,0.01 -0.02,0 -0.02,0 c -0.25,0 -0.49,-0.26 -0.49,-0.48 0,-0.13 0.05,-0.19 0.16,-0.3 0.21,-0.2 0.34,-0.46 0.34,-0.81 0,-0.42 -0.61,-2.69 -1.77,-2.69 -0.51,0 -0.74,0.34 -0.74,0.86 0,0.56 0.27,1.28 0.58,2.1 0.07,0.17 0.12,0.31 0.12,0.5 0,0.45 -0.32,0.82 -0.82,0.82 -0.93,0 -1.31,-1.44 -1.31,-1.53 0,-0.1 0.1,-0.1 0.12,-0.1 0.1,0 0.11,0.02 0.16,0.18 0.29,1 0.72,1.23 1,1.23 0.08,0 0.25,0 0.25,-0.32 0,-0.25 -0.1,-0.52 -0.17,-0.7 -0.43,-1.15 -0.56,-1.6 -0.56,-2.03 0,-1.07 0.87,-1.23 1.33,-1.23 1.67,0 2.24,3.29 2.24,3.8 z"
   inkscape:connector-curvature="0"
   style="fill:#000000;stroke-width:0" />
<path
   id="path3361"
   d="m 253.04,706.79 0.03,0 0.03,0 0.03,0 0.01,0 0.02,0 0.01,0 0.02,0 0.01,0.01 0.01,0 0.02,0 0.01,0 0.01,0.01 0.02,0 0.01,0.01 0.01,0 0.01,0.01 0.01,0.01 0.01,0 0.01,0.01 0.01,0.01 0.01,0.01 0,0.01 0,0 0.01,0.01 0,0 0,0.01 0.01,0.01 0,0 0,0.01 0,0.01 0,0.01 0.01,0 0,0.01 0,0.01 0,0.01 0,0.01 0,0.01 c 0,0.2 -0.19,0.2 -0.33,0.2 h -5.96 c -0.14,0 -0.33,0 -0.33,-0.2 0,-0.2 0.19,-0.2 0.34,-0.2 z"
   inkscape:connector-curvature="0"
   style="fill:#000000;stroke-width:0" />
<path
   id="path3363"
   d="m 253.05,704.86 0.01,0 0.02,0 0.02,0 0.03,0 0.02,0 0.01,0 0.01,0.01 0.02,0 0.01,0 0.02,0 0.01,0 0.01,0.01 0.01,0 0.02,0.01 0.01,0 0.01,0.01 0.01,0 0.01,0.01 0.01,0.01 0.01,0.01 0.01,0 0,0.01 0.01,0 0,0.01 0,0.01 0.01,0 0,0.01 0,0 0.01,0.01 0,0.01 0,0 0,0.01 0,0.01 0.01,0.01 0,0 0,0.01 0,0.01 0,0.01 0,0.01 c 0,0.2 -0.19,0.2 -0.34,0.2 h -5.94 c -0.15,0 -0.34,0 -0.34,-0.2 0,-0.2 0.19,-0.2 0.33,-0.2 z"
   inkscape:connector-curvature="0"
   style="fill:#000000;stroke-width:0" />
<path
   id="path3365"
   d="m 259.65,709.9 0,0.01 0,0.01 0,0.01 0,0.01 0,0.01 0,0.01 0,0.01 0,0.01 0,0.01 0,0 0,0.01 0,0.01 0,0.01 0,0 0,0.01 0,0.01 0,0.01 -0.01,0 0,0.01 0,0.01 0,0.01 -0.01,0.01 0,0.01 0,0.01 -0.01,0.01 0,0 -0.01,0.01 -0.01,0 -0.01,0.01 0,0 -0.01,0 0,0 -0.01,0.01 -0.01,0 0,0 -0.01,0 0,0 -0.01,0 -0.01,0 0,0 -0.01,0 -0.01,0 -0.01,0 0,0 -0.01,0.01 -0.01,0 -0.01,0 -0.01,0 -0.01,0 -0.01,0 -0.01,0 -0.01,0 c -0.62,-0.64 -1.49,-0.64 -1.81,-0.64 v -0.31 c 0.2,0 0.79,0 1.3,0.26 v -5.14 c 0,-0.36 -0.03,-0.48 -0.92,-0.48 h -0.32 v -0.31 c 0.35,0.03 1.21,0.03 1.61,0.03 0.4,0 1.27,0 1.61,-0.03 v 0.31 h -0.31 c -0.9,0 -0.93,0.11 -0.93,0.48 z"
   inkscape:connector-curvature="0"
   style="fill:#000000;stroke-width:0" />
</g>    <g
       style="font-style:normal;font-variant:normal;font-weight:normal;font-stretch:normal;letter-spacing:normal;word-spacing:normal;text-anchor:start;fill:none;stroke:#000000;stroke-width:1;stroke-linecap:butt;stroke-linejoin:miter;stroke-miterlimit:10.43299961;stroke-opacity:1;stroke-dasharray:none;stroke-dashoffset:0"
       ns0:preamble="D:\\Onderwijs\\FLUI\\Cursus\\FLUI_theorie\\tex\\commands.tex"
       ns0:text="3"
       word-spacing="normal"
       letter-spacing="normal"
       font-size-adjust="none"
       font-stretch="normal"
       font-weight="normal"
       font-variant="normal"
       font-style="normal"
       stroke-miterlimit="10.433"
       xml:space="preserve"
       transform="matrix(1.1922453,0.3755681,0.3755681,-1.1922453,-417.62209,1724.8502)"
       id="g3466">
<path
   style="fill:#000000;stroke-width:0"
   inkscape:connector-curvature="0"
   id="path3468"
   d="m 226.32,710.62 0.07,0.03 0.08,0.03 0.07,0.03 0.07,0.03 0.07,0.04 0.07,0.04 0.06,0.04 0.07,0.04 0.06,0.04 0.06,0.05 0.06,0.05 0.06,0.05 0.05,0.05 0.05,0.05 0.05,0.06 0.05,0.05 0.04,0.06 0.05,0.06 0.04,0.06 0.03,0.06 0.04,0.07 0.03,0.06 0.03,0.07 0.03,0.06 0.02,0.07 0.02,0.07 0.02,0.07 0.01,0.07 0.02,0.07 0,0.07 0.01,0.08 0,0.07 c 0,0.81 -0.87,1.37 -1.83,1.37 -1,0 -1.76,-0.59 -1.76,-1.35 0,-0.33 0.22,-0.52 0.51,-0.52 0.3,0 0.5,0.22 0.5,0.51 0,0.5 -0.46,0.5 -0.61,0.5 0.3,0.48 0.96,0.61 1.32,0.61 0.41,0 0.95,-0.22 0.95,-1.11 0,-0.12 -0.02,-0.7 -0.27,-1.13 -0.3,-0.48 -0.64,-0.51 -0.89,-0.52 -0.08,-0.01 -0.32,-0.03 -0.39,-0.03 -0.08,-0.01 -0.15,-0.02 -0.15,-0.12 0,-0.11 0.07,-0.11 0.24,-0.11 h 0.44 c 0.82,0 1.18,-0.67 1.18,-1.65 0,-1.35 -0.68,-1.64 -1.12,-1.64 -0.43,0 -1.17,0.17 -1.52,0.76 0.35,-0.05 0.65,0.17 0.65,0.55 0,0.35 -0.26,0.55 -0.55,0.55 -0.24,0 -0.56,-0.14 -0.56,-0.57 0,-0.91 0.92,-1.56 2.01,-1.56 1.21,0 2.12,0.9 2.12,1.91 0,0.82 -0.63,1.59 -1.66,1.8 z" />
</g>    <g
       id="g3554"
       transform="matrix(1.1922453,0.3755681,0.3755681,-1.1922453,-417.6221,1682.7073)"
       xml:space="preserve"
       stroke-miterlimit="10.433"
       font-style="normal"
       font-variant="normal"
       font-weight="normal"
       font-stretch="normal"
       font-size-adjust="none"
       letter-spacing="normal"
       word-spacing="normal"
       ns0:text="5"
       ns0:preamble="D:\\Onderwijs\\FLUI\\Cursus\\FLUI_theorie\\tex\\commands.tex"
       style="font-style:normal;font-variant:normal;font-weight:normal;font-stretch:normal;letter-spacing:normal;word-spacing:normal;text-anchor:start;fill:none;stroke:#000000;stroke-width:1;stroke-linecap:butt;stroke-linejoin:miter;stroke-miterlimit:10.43299961;stroke-opacity:1;stroke-dasharray:none;stroke-dashoffset:0">
<path
   style="fill:#000000;stroke-width:0"
   inkscape:connector-curvature="0"
   d="m 227.9,709.12 0,0.11 -0.01,0.11 -0.01,0.11 -0.02,0.1 -0.02,0.11 -0.02,0.1 -0.03,0.1 -0.04,0.1 -0.03,0.1 -0.04,0.09 -0.05,0.09 -0.05,0.09 -0.05,0.09 -0.05,0.08 -0.06,0.08 -0.06,0.07 -0.07,0.08 -0.07,0.06 -0.07,0.07 -0.07,0.06 -0.08,0.06 -0.08,0.05 -0.08,0.05 -0.08,0.04 -0.09,0.04 -0.09,0.04 -0.09,0.03 -0.09,0.02 -0.1,0.02 -0.09,0.02 -0.1,0 -0.1,0.01 c -0.48,0 -0.91,-0.16 -1.27,-0.51 v 1.94 c 0.2,-0.06 0.53,-0.13 0.85,-0.13 1.23,0 1.92,0.9 1.92,1.03 0,0.06 -0.03,0.11 -0.1,0.11 -0.01,0 -0.03,0 -0.08,-0.03 -0.2,-0.09 -0.68,-0.29 -1.35,-0.29 -0.4,0 -0.86,0.07 -1.32,0.28 -0.08,0.03 -0.1,0.03 -0.12,0.03 -0.1,0 -0.1,-0.08 -0.1,-0.24 v -2.94 c 0,-0.18 0,-0.26 0.14,-0.26 0.07,0 0.09,0.03 0.13,0.09 0.11,0.16 0.47,0.7 1.28,0.7 0.52,0 0.77,-0.46 0.85,-0.64 0.15,-0.36 0.17,-0.75 0.17,-1.25 0,-0.35 0,-0.94 -0.24,-1.36 -0.23,-0.39 -0.6,-0.65 -1.06,-0.65 -0.73,0 -1.29,0.53 -1.46,1.12 0.03,-0.01 0.06,-0.02 0.17,-0.02 0.32,0 0.49,0.25 0.49,0.48 0,0.24 -0.17,0.49 -0.49,0.49 -0.14,0 -0.49,-0.07 -0.49,-0.53 0,-0.85 0.69,-1.81 1.8,-1.81 1.15,0 2.17,0.95 2.17,2.21 z"
   id="path3556" />
</g>    <g
       id="g3042">
      <path
         sodipodi:nodetypes="cc"
         transform="translate(0.96332327,850.03495)"
         inkscape:connector-curvature="0"
         id="path3038"
         d="M 41.416254,18.903994 C 65.3232,36.918395 89.13758,54.377402 112.37947,68.401468"
         style="fill:none;stroke:#000000;stroke-width:1px;stroke-linecap:butt;stroke-linejoin:miter;stroke-opacity:1" />
      <path
         sodipodi:nodetypes="cc"
         transform="translate(0.96332327,850.03495)"
         inkscape:connector-curvature="0"
         id="path3040"
         d="m 123.49115,74.967459 c 56.65359,36.357551 140.21114,59.097291 201.52543,70.205601"
         style="fill:none;stroke:#000000;stroke-width:1px;stroke-linecap:butt;stroke-linejoin:miter;stroke-opacity:1" />
    </g>
    <g
       id="g3046"
       transform="matrix(1,0,0,0.65920932,0,355.94332)">
      <path
         style="fill:none;stroke:#000000;stroke-width:1.23165286px;stroke-linecap:butt;stroke-linejoin:miter;stroke-opacity:1"
         d="M 41.416254,18.903994 C 65.3232,36.918395 89.13758,54.377402 112.37947,68.401468"
         id="path3048"
         inkscape:connector-curvature="0"
         transform="translate(0.96332327,850.03495)"
         sodipodi:nodetypes="cc" />
      <path
         style="fill:none;stroke:#000000;stroke-width:1.23165286px;stroke-linecap:butt;stroke-linejoin:miter;stroke-opacity:1"
         d="m 123.49115,74.967459 c 56.65359,36.357551 140.21114,59.097291 201.52543,70.205601"
         id="path3050"
         inkscape:connector-curvature="0"
         transform="translate(0.96332327,850.03495)"
         sodipodi:nodetypes="cc" />
    </g>
    <g
       transform="matrix(1,0,0,0.44833641,0,577.2343)"
       id="g3052">
      <path
         sodipodi:nodetypes="cc"
         transform="translate(0.96332327,850.03495)"
         inkscape:connector-curvature="0"
         id="path3054"
         d="M 41.416254,18.903994 75.236613,45.300193"
         style="fill:none;stroke:#000000;stroke-width:1.49347508px;stroke-linecap:butt;stroke-linejoin:miter;stroke-opacity:1" />
      <path
         sodipodi:nodetypes="cc"
         transform="translate(0.96332327,850.03495)"
         inkscape:connector-curvature="0"
         id="path3056"
         d="m 123.49115,74.967459 c 56.65359,36.357551 140.21114,59.097291 201.52543,70.205601"
         style="fill:none;stroke:#000000;stroke-width:1.49347508px;stroke-linecap:butt;stroke-linejoin:miter;stroke-opacity:1" />
    </g>
    <path
       sodipodi:type="arc"
       style="fill:none;stroke:#000000;stroke-width:1.41732562;stroke-linecap:round;stroke-linejoin:round;stroke-miterlimit:4;stroke-opacity:1;stroke-dasharray:none;stroke-dashoffset:0"
       id="path3058"
       sodipodi:cx="113.38583"
       sodipodi:cy="165.04584"
       sodipodi:rx="3.5433071"
       sodipodi:ry="3.5433071"
       d="m 116.92914,165.04584 a 3.5433071,3.5433071 0 1 1 -7.08661,0 3.5433071,3.5433071 0 1 1 7.08661,0 z"
       transform="matrix(0.49999902,0,0,0.49999902,0.45835463,885.481)" />
    <path
       transform="matrix(0.49999902,0,0,0.49999902,13.62143,895.86616)"
       d="m 116.92914,165.04584 a 3.5433071,3.5433071 0 1 1 -7.08661,0 3.5433071,3.5433071 0 1 1 7.08661,0 z"
       sodipodi:ry="3.5433071"
       sodipodi:rx="3.5433071"
       sodipodi:cy="165.04584"
       sodipodi:cx="113.38583"
       id="path3060"
       style="fill:none;stroke:#000000;stroke-width:1.41732562;stroke-linecap:round;stroke-linejoin:round;stroke-miterlimit:4;stroke-opacity:1;stroke-dasharray:none;stroke-dashoffset:0"
       sodipodi:type="arc" />
    <path
       transform="matrix(0.49999902,0,0,0.49999902,77.144537,909.01757)"
       d="m 116.92914,165.04584 a 3.5433071,3.5433071 0 1 1 -7.08661,0 3.5433071,3.5433071 0 1 1 7.08661,0 z"
       sodipodi:ry="3.5433071"
       sodipodi:rx="3.5433071"
       sodipodi:cy="165.04584"
       sodipodi:cx="113.38583"
       id="path3064"
       style="fill:none;stroke:#000000;stroke-width:1.41732562;stroke-linecap:round;stroke-linejoin:round;stroke-miterlimit:4;stroke-opacity:1;stroke-dasharray:none;stroke-dashoffset:0"
       sodipodi:type="arc" />
    <path
       transform="matrix(0.49999902,0,0,0.49999902,88.877794,918.34206)"
       d="m 116.92914,165.04584 a 3.5433071,3.5433071 0 1 1 -7.08661,0 3.5433071,3.5433071 0 1 1 7.08661,0 z"
       sodipodi:ry="3.5433071"
       sodipodi:rx="3.5433071"
       sodipodi:cy="165.04584"
       sodipodi:cx="113.38583"
       id="path3066"
       style="fill:none;stroke:#000000;stroke-width:1.41732562;stroke-linecap:round;stroke-linejoin:round;stroke-miterlimit:4;stroke-opacity:1;stroke-dasharray:none;stroke-dashoffset:0"
       sodipodi:type="arc" />
    <path
       transform="matrix(0.49999902,0,0,0.49999902,115.04858,918.13227)"
       d="m 116.92914,165.04584 a 3.5433071,3.5433071 0 1 1 -7.08661,0 3.5433071,3.5433071 0 1 1 7.08661,0 z"
       sodipodi:ry="3.5433071"
       sodipodi:rx="3.5433071"
       sodipodi:cy="165.04584"
       sodipodi:cx="113.38583"
       id="path3068"
       style="fill:none;stroke:#000000;stroke-width:1.41732562;stroke-linecap:round;stroke-linejoin:round;stroke-miterlimit:4;stroke-opacity:1;stroke-dasharray:none;stroke-dashoffset:0"
       sodipodi:type="arc" />
    <path
       transform="matrix(0.49999902,0,0,0.49999902,149.14122,927.72872)"
       d="m 116.92914,165.04584 a 3.5433071,3.5433071 0 1 1 -7.08661,0 3.5433071,3.5433071 0 1 1 7.08661,0 z"
       sodipodi:ry="3.5433071"
       sodipodi:rx="3.5433071"
       sodipodi:cy="165.04584"
       sodipodi:cx="113.38583"
       id="path3070"
       style="fill:none;stroke:#000000;stroke-width:1.41732562;stroke-linecap:round;stroke-linejoin:round;stroke-miterlimit:4;stroke-opacity:1;stroke-dasharray:none;stroke-dashoffset:0"
       sodipodi:type="arc" />
    <path
       transform="matrix(0.49999902,0,0,0.49999902,172.87981,930.50664)"
       d="m 116.92914,165.04584 a 3.5433071,3.5433071 0 1 1 -7.08661,0 3.5433071,3.5433071 0 1 1 7.08661,0 z"
       sodipodi:ry="3.5433071"
       sodipodi:rx="3.5433071"
       sodipodi:cy="165.04584"
       sodipodi:cx="113.38583"
       id="path3072"
       style="fill:none;stroke:#000000;stroke-width:1.41732562;stroke-linecap:round;stroke-linejoin:round;stroke-miterlimit:4;stroke-opacity:1;stroke-dasharray:none;stroke-dashoffset:0"
       sodipodi:type="arc" />
    <path
       transform="matrix(0.49999902,0,0,0.49999902,215.55875,934.04217)"
       d="m 116.92914,165.04584 a 3.5433071,3.5433071 0 1 1 -7.08661,0 3.5433071,3.5433071 0 1 1 7.08661,0 z"
       sodipodi:ry="3.5433071"
       sodipodi:rx="3.5433071"
       sodipodi:cy="165.04584"
       sodipodi:cx="113.38583"
       id="path3074"
       style="fill:none;stroke:#000000;stroke-width:1.41732562;stroke-linecap:round;stroke-linejoin:round;stroke-miterlimit:4;stroke-opacity:1;stroke-dasharray:none;stroke-dashoffset:0"
       sodipodi:type="arc" />
    <path
       transform="matrix(0.49999902,0,0,0.49999902,220.60952,936.56756)"
       d="m 116.92914,165.04584 a 3.5433071,3.5433071 0 1 1 -7.08661,0 3.5433071,3.5433071 0 1 1 7.08661,0 z"
       sodipodi:ry="3.5433071"
       sodipodi:rx="3.5433071"
       sodipodi:cy="165.04584"
       sodipodi:cx="113.38583"
       id="path3076"
       style="fill:none;stroke:#000000;stroke-width:1.41732562;stroke-linecap:round;stroke-linejoin:round;stroke-miterlimit:4;stroke-opacity:1;stroke-dasharray:none;stroke-dashoffset:0"
       sodipodi:type="arc" />
    <path
       transform="matrix(0.49999902,0,0,0.49999902,265.81384,940.10309)"
       d="m 116.92914,165.04584 a 3.5433071,3.5433071 0 1 1 -7.08661,0 3.5433071,3.5433071 0 1 1 7.08661,0 z"
       sodipodi:ry="3.5433071"
       sodipodi:rx="3.5433071"
       sodipodi:cy="165.04584"
       sodipodi:cx="113.38583"
       id="path3078"
       style="fill:none;stroke:#000000;stroke-width:1.41732562;stroke-linecap:round;stroke-linejoin:round;stroke-miterlimit:4;stroke-opacity:1;stroke-dasharray:none;stroke-dashoffset:0"
       sodipodi:type="arc" />
    <rect
       y="934.92517"
       x="52.341366"
       height="3.5433071"
       width="3.5433071"
       id="rect3864"
       style="fill:none;stroke:#000000;stroke-width:0.70866144;stroke-linecap:round;stroke-linejoin:round;stroke-miterlimit:4;stroke-opacity:1;stroke-dasharray:none;stroke-dashoffset:0" />
    <rect
       y="937.70306"
       x="63.958118"
       height="3.5433071"
       width="3.5433071"
       id="rect3866"
       style="fill:none;stroke:#000000;stroke-width:0.70866144;stroke-linecap:round;stroke-linejoin:round;stroke-miterlimit:4;stroke-opacity:1;stroke-dasharray:none;stroke-dashoffset:0" />
    <rect
       y="948.30969"
       x="85.676399"
       height="3.5433071"
       width="3.5433071"
       id="rect3868"
       style="fill:none;stroke:#000000;stroke-width:0.70866144;stroke-linecap:round;stroke-linejoin:round;stroke-miterlimit:4;stroke-opacity:1;stroke-dasharray:none;stroke-dashoffset:0" />
    <rect
       y="949.06726"
       x="96.030464"
       height="3.5433071"
       width="3.5433071"
       id="rect3870"
       style="fill:none;stroke:#000000;stroke-width:0.70866144;stroke-linecap:round;stroke-linejoin:round;stroke-miterlimit:4;stroke-opacity:1;stroke-dasharray:none;stroke-dashoffset:0" />
    <rect
       y="956.896"
       x="103.60661"
       height="3.5433071"
       width="3.5433071"
       id="rect3872"
       style="fill:none;stroke:#000000;stroke-width:0.70866144;stroke-linecap:round;stroke-linejoin:round;stroke-miterlimit:4;stroke-opacity:1;stroke-dasharray:none;stroke-dashoffset:0" />
    <rect
       y="972.04828"
       x="141.23479"
       height="3.5433071"
       width="3.5433071"
       id="rect3874"
       style="fill:none;stroke:#000000;stroke-width:0.70866144;stroke-linecap:round;stroke-linejoin:round;stroke-miterlimit:4;stroke-opacity:1;stroke-dasharray:none;stroke-dashoffset:0" />
    <rect
       y="975.5838"
       x="162.19545"
       height="3.5433071"
       width="3.5433071"
       id="rect3876"
       style="fill:none;stroke:#000000;stroke-width:0.70866144;stroke-linecap:round;stroke-linejoin:round;stroke-miterlimit:4;stroke-opacity:1;stroke-dasharray:none;stroke-dashoffset:0" />
    <rect
       y="982.65485"
       x="177.60028"
       height="3.5433071"
       width="3.5433071"
       id="rect3878"
       style="fill:none;stroke:#000000;stroke-width:0.70866144;stroke-linecap:round;stroke-linejoin:round;stroke-miterlimit:4;stroke-opacity:1;stroke-dasharray:none;stroke-dashoffset:0" />
    <rect
       y="991.24115"
       x="201.08632"
       height="3.5433071"
       width="3.5433071"
       id="rect3880"
       style="fill:none;stroke:#000000;stroke-width:0.70866144;stroke-linecap:round;stroke-linejoin:round;stroke-miterlimit:4;stroke-opacity:1;stroke-dasharray:none;stroke-dashoffset:0" />
    <rect
       y="993.51398"
       x="229.87567"
       height="3.5433071"
       width="3.5433071"
       id="rect3882"
       style="fill:none;stroke:#000000;stroke-width:0.70866144;stroke-linecap:round;stroke-linejoin:round;stroke-miterlimit:4;stroke-opacity:1;stroke-dasharray:none;stroke-dashoffset:0" />
    <rect
       y="998.05969"
       x="242.25005"
       height="3.5433071"
       width="3.5433071"
       id="rect3884"
       style="fill:none;stroke:#000000;stroke-width:0.70866144;stroke-linecap:round;stroke-linejoin:round;stroke-miterlimit:4;stroke-opacity:1;stroke-dasharray:none;stroke-dashoffset:0" />
    <rect
       y="1000.8376"
       x="274.57492"
       height="3.5433071"
       width="3.5433071"
       id="rect3886"
       style="fill:none;stroke:#000000;stroke-width:0.70866144;stroke-linecap:round;stroke-linejoin:round;stroke-miterlimit:4;stroke-opacity:1;stroke-dasharray:none;stroke-dashoffset:0" />
    <rect
       y="1009.1714"
       x="304.12189"
       height="3.5433071"
       width="3.5433071"
       id="rect3888"
       style="fill:none;stroke:#000000;stroke-width:0.70866144;stroke-linecap:round;stroke-linejoin:round;stroke-miterlimit:4;stroke-opacity:1;stroke-dasharray:none;stroke-dashoffset:0" />
    <rect
       y="1008.4138"
       x="320.28433"
       height="3.5433071"
       width="3.5433071"
       id="rect3890"
       style="fill:none;stroke:#000000;stroke-width:0.70866144;stroke-linecap:round;stroke-linejoin:round;stroke-miterlimit:4;stroke-opacity:1;stroke-dasharray:none;stroke-dashoffset:0" />
    <g
       transform="matrix(0.49999973,0,0,0.49999973,-28.128856,396.61812)"
       id="g3892">
      <path
         style="fill:none;stroke:#000000;stroke-width:1.41732359;stroke-linecap:butt;stroke-linejoin:miter;stroke-miterlimit:4;stroke-opacity:1;stroke-dasharray:none"
         d="m 166.53543,104.80962 0,7.08662"
         id="path3894"
         inkscape:connector-curvature="0"
         transform="translate(0.96332327,850.03495)" />
      <path
         style="fill:none;stroke:#000000;stroke-width:1.41732359;stroke-linecap:butt;stroke-linejoin:miter;stroke-miterlimit:4;stroke-opacity:1;stroke-dasharray:none"
         d="m 162.99213,108.35293 7.08661,0"
         id="path3896"
         inkscape:connector-curvature="0"
         transform="translate(0.96332327,850.03495)" />
    </g>
    <g
       transform="matrix(0.49999973,0,0,0.49999973,-17.522254,410.25518)"
       id="g3898">
      <path
         style="fill:none;stroke:#000000;stroke-width:1.41732359;stroke-linecap:butt;stroke-linejoin:miter;stroke-miterlimit:4;stroke-opacity:1;stroke-dasharray:none"
         d="m 166.53543,104.80962 0,7.08662"
         id="path3900"
         inkscape:connector-curvature="0"
         transform="translate(0.96332327,850.03495)" />
      <path
         style="fill:none;stroke:#000000;stroke-width:1.41732359;stroke-linecap:butt;stroke-linejoin:miter;stroke-miterlimit:4;stroke-opacity:1;stroke-dasharray:none"
         d="m 162.99213,108.35293 7.08661,0"
         id="path3902"
         inkscape:connector-curvature="0"
         transform="translate(0.96332327,850.03495)" />
    </g>
    <g
       transform="matrix(0.49999973,0,0,0.49999973,5.2061781,426.41762)"
       id="g3904">
      <path
         style="fill:none;stroke:#000000;stroke-width:1.41732359;stroke-linecap:butt;stroke-linejoin:miter;stroke-miterlimit:4;stroke-opacity:1;stroke-dasharray:none"
         d="m 166.53543,104.80962 0,7.08662"
         id="path3906"
         inkscape:connector-curvature="0"
         transform="translate(0.96332327,850.03495)" />
      <path
         style="fill:none;stroke:#000000;stroke-width:1.41732359;stroke-linecap:butt;stroke-linejoin:miter;stroke-miterlimit:4;stroke-opacity:1;stroke-dasharray:none"
         d="m 162.99213,108.35293 7.08661,0"
         id="path3908"
         inkscape:connector-curvature="0"
         transform="translate(0.96332327,850.03495)" />
    </g>
    <g
       transform="matrix(0.49999973,0,0,0.49999973,24.399076,434.49884)"
       id="g3910">
      <path
         style="fill:none;stroke:#000000;stroke-width:1.41732359;stroke-linecap:butt;stroke-linejoin:miter;stroke-miterlimit:4;stroke-opacity:1;stroke-dasharray:none"
         d="m 166.53543,104.80962 0,7.08662"
         id="path3912"
         inkscape:connector-curvature="0"
         transform="translate(0.96332327,850.03495)" />
      <path
         style="fill:none;stroke:#000000;stroke-width:1.41732359;stroke-linecap:butt;stroke-linejoin:miter;stroke-miterlimit:4;stroke-opacity:1;stroke-dasharray:none"
         d="m 162.99213,108.35293 7.08661,0"
         id="path3914"
         inkscape:connector-curvature="0"
         transform="translate(0.96332327,850.03495)" />
    </g>
    <g
       transform="matrix(0.49999973,0,0,0.49999973,65.310254,453.69174)"
       id="g3916">
      <path
         style="fill:none;stroke:#000000;stroke-width:1.41732359;stroke-linecap:butt;stroke-linejoin:miter;stroke-miterlimit:4;stroke-opacity:1;stroke-dasharray:none"
         d="m 166.53543,104.80962 0,7.08662"
         id="path3918"
         inkscape:connector-curvature="0"
         transform="translate(0.96332327,850.03495)" />
      <path
         style="fill:none;stroke:#000000;stroke-width:1.41732359;stroke-linecap:butt;stroke-linejoin:miter;stroke-miterlimit:4;stroke-opacity:1;stroke-dasharray:none"
         d="m 162.99213,108.35293 7.08661,0"
         id="path3920"
         inkscape:connector-curvature="0"
         transform="translate(0.96332327,850.03495)" />
    </g>
    <g
       transform="matrix(0.49999973,0,0,0.49999973,83.998076,469.85418)"
       id="g3922">
      <path
         style="fill:none;stroke:#000000;stroke-width:1.41732359;stroke-linecap:butt;stroke-linejoin:miter;stroke-miterlimit:4;stroke-opacity:1;stroke-dasharray:none"
         d="m 166.53543,104.80962 0,7.08662"
         id="path3924"
         inkscape:connector-curvature="0"
         transform="translate(0.96332327,850.03495)" />
      <path
         style="fill:none;stroke:#000000;stroke-width:1.41732359;stroke-linecap:butt;stroke-linejoin:miter;stroke-miterlimit:4;stroke-opacity:1;stroke-dasharray:none"
         d="m 162.99213,108.35293 7.08661,0"
         id="path3926"
         inkscape:connector-curvature="0"
         transform="translate(0.96332327,850.03495)" />
    </g>
    <g
       transform="matrix(0.49999973,0,0,0.49999973,112.28235,482.98617)"
       id="g3928">
      <path
         style="fill:none;stroke:#000000;stroke-width:1.41732359;stroke-linecap:butt;stroke-linejoin:miter;stroke-miterlimit:4;stroke-opacity:1;stroke-dasharray:none"
         d="m 166.53543,104.80962 0,7.08662"
         id="path3930"
         inkscape:connector-curvature="0"
         transform="translate(0.96332327,850.03495)" />
      <path
         style="fill:none;stroke:#000000;stroke-width:1.41732359;stroke-linecap:butt;stroke-linejoin:miter;stroke-miterlimit:4;stroke-opacity:1;stroke-dasharray:none"
         d="m 162.99213,108.35293 7.08661,0"
         id="path3932"
         inkscape:connector-curvature="0"
         transform="translate(0.96332327,850.03495)" />
    </g>
    <g
       transform="matrix(0.49999973,0,0,0.49999973,133.49555,489.55216)"
       id="g3934">
      <path
         style="fill:none;stroke:#000000;stroke-width:1.41732359;stroke-linecap:butt;stroke-linejoin:miter;stroke-miterlimit:4;stroke-opacity:1;stroke-dasharray:none"
         d="m 166.53543,104.80962 0,7.08662"
         id="path3936"
         inkscape:connector-curvature="0"
         transform="translate(0.96332327,850.03495)" />
      <path
         style="fill:none;stroke:#000000;stroke-width:1.41732359;stroke-linecap:butt;stroke-linejoin:miter;stroke-miterlimit:4;stroke-opacity:1;stroke-dasharray:none"
         d="m 162.99213,108.35293 7.08661,0"
         id="path3938"
         inkscape:connector-curvature="0"
         transform="translate(0.96332327,850.03495)" />
    </g>
    <g
       transform="matrix(0.49999973,0,0,0.49999973,164.81028,496.11815)"
       id="g3940">
      <path
         style="fill:none;stroke:#000000;stroke-width:1.41732359;stroke-linecap:butt;stroke-linejoin:miter;stroke-miterlimit:4;stroke-opacity:1;stroke-dasharray:none"
         d="m 166.53543,104.80962 0,7.08662"
         id="path3942"
         inkscape:connector-curvature="0"
         transform="translate(0.96332327,850.03495)" />
      <path
         style="fill:none;stroke:#000000;stroke-width:1.41732359;stroke-linecap:butt;stroke-linejoin:miter;stroke-miterlimit:4;stroke-opacity:1;stroke-dasharray:none"
         d="m 162.99213,108.35293 7.08661,0"
         id="path3944"
         inkscape:connector-curvature="0"
         transform="translate(0.96332327,850.03495)" />
    </g>
    <g
       transform="matrix(0.49999973,0,0,0.49999973,179.45749,499.65368)"
       id="g3946">
      <path
         style="fill:none;stroke:#000000;stroke-width:1.41732359;stroke-linecap:butt;stroke-linejoin:miter;stroke-miterlimit:4;stroke-opacity:1;stroke-dasharray:none"
         d="m 166.53543,104.80962 0,7.08662"
         id="path3948"
         inkscape:connector-curvature="0"
         transform="translate(0.96332327,850.03495)" />
      <path
         style="fill:none;stroke:#000000;stroke-width:1.41732359;stroke-linecap:butt;stroke-linejoin:miter;stroke-miterlimit:4;stroke-opacity:1;stroke-dasharray:none"
         d="m 162.99213,108.35293 7.08661,0"
         id="path3950"
         inkscape:connector-curvature="0"
         transform="translate(0.96332327,850.03495)" />
    </g>
    <g
       transform="matrix(0.49999973,0,0,0.49999973,195.11486,505.7146)"
       id="g3952">
      <path
         style="fill:none;stroke:#000000;stroke-width:1.41732359;stroke-linecap:butt;stroke-linejoin:miter;stroke-miterlimit:4;stroke-opacity:1;stroke-dasharray:none"
         d="m 166.53543,104.80962 0,7.08662"
         id="path3954"
         inkscape:connector-curvature="0"
         transform="translate(0.96332327,850.03495)" />
      <path
         style="fill:none;stroke:#000000;stroke-width:1.41732359;stroke-linecap:butt;stroke-linejoin:miter;stroke-miterlimit:4;stroke-opacity:1;stroke-dasharray:none"
         d="m 162.99213,108.35293 7.08661,0"
         id="path3956"
         inkscape:connector-curvature="0"
         transform="translate(0.96332327,850.03495)" />
    </g>
    <g
       transform="matrix(0.49999973,0,0,0.49999973,219.86359,510.26028)"
       id="g3958">
      <path
         style="fill:none;stroke:#000000;stroke-width:1.41732359;stroke-linecap:butt;stroke-linejoin:miter;stroke-miterlimit:4;stroke-opacity:1;stroke-dasharray:none"
         d="m 166.53543,104.80962 0,7.08662"
         id="path3960"
         inkscape:connector-curvature="0"
         transform="translate(0.96332327,850.03495)" />
      <path
         style="fill:none;stroke:#000000;stroke-width:1.41732359;stroke-linecap:butt;stroke-linejoin:miter;stroke-miterlimit:4;stroke-opacity:1;stroke-dasharray:none"
         d="m 162.99213,108.35293 7.08661,0"
         id="path3962"
         inkscape:connector-curvature="0"
         transform="translate(0.96332327,850.03495)" />
    </g>
    <g
       transform="matrix(0.49999973,0,0,0.49999973,239.05649,515.81612)"
       id="g3964">
      <path
         style="fill:none;stroke:#000000;stroke-width:1.41732359;stroke-linecap:butt;stroke-linejoin:miter;stroke-miterlimit:4;stroke-opacity:1;stroke-dasharray:none"
         d="m 166.53543,104.80962 0,7.08662"
         id="path3966"
         inkscape:connector-curvature="0"
         transform="translate(0.96332327,850.03495)" />
      <path
         style="fill:none;stroke:#000000;stroke-width:1.41732359;stroke-linecap:butt;stroke-linejoin:miter;stroke-miterlimit:4;stroke-opacity:1;stroke-dasharray:none"
         d="m 162.99213,108.35293 7.08661,0"
         id="path3968"
         inkscape:connector-curvature="0"
         transform="translate(0.96332327,850.03495)" />
    </g>
  </g>
</svg>
