<?xml version="1.0" encoding="UTF-8" standalone="no"?>
<!-- Created with Inkscape (http://www.inkscape.org/) -->

<svg
   xmlns:ns0="http://www.iki.fi/pav/software/textext/"
   xmlns:dc="http://purl.org/dc/elements/1.1/"
   xmlns:cc="http://creativecommons.org/ns#"
   xmlns:rdf="http://www.w3.org/1999/02/22-rdf-syntax-ns#"
   xmlns:svg="http://www.w3.org/2000/svg"
   xmlns="http://www.w3.org/2000/svg"
   xmlns:sodipodi="http://sodipodi.sourceforge.net/DTD/sodipodi-0.dtd"
   xmlns:inkscape="http://www.inkscape.org/namespaces/inkscape"
   id="svg2"
   version="1.1"
   inkscape:version="0.48.2 r9819"
   width="230.31496"
   height="162.99213"
   xml:space="preserve"
   sodipodi:docname="Schoepenrij.svg"><sodipodi:namedview
     pagecolor="#ffffff"
     bordercolor="#666666"
     borderopacity="1"
     objecttolerance="10"
     gridtolerance="10"
     guidetolerance="10"
     inkscape:pageopacity="0"
     inkscape:pageshadow="2"
     inkscape:window-width="1366"
     inkscape:window-height="706"
     id="namedview4"
     showgrid="false"
     inkscape:document-units="mm"
     units="mm"
     inkscape:zoom="1.7299857"
     inkscape:cx="-24.361339"
     inkscape:cy="72.765649"
     inkscape:window-x="-8"
     inkscape:window-y="-8"
     inkscape:window-maximized="1"
     inkscape:current-layer="layer3"
     showguides="true"
     inkscape:guide-bbox="true"><inkscape:grid
       spacingy="1mm"
       spacingx="1mm"
       units="mm"
       snapvisiblegridlinesonly="true"
       enabled="true"
       visible="true"
       empspacing="5"
       id="grid3113"
       type="xygrid" /></sodipodi:namedview><metadata
     id="metadata8"><rdf:RDF><cc:Work
         rdf:about=""><dc:format>image/svg+xml</dc:format><dc:type
           rdf:resource="http://purl.org/dc/dcmitype/StillImage" /><dc:title /></cc:Work></rdf:RDF></metadata><defs
     id="defs6"><marker
       style="overflow:visible"
       id="Arrow1Mend"
       refX="0"
       refY="0"
       orient="auto"
       inkscape:stockid="Arrow1Mend"><path
         transform="matrix(-0.4,0,0,-0.4,-4,0)"
         style="fill-rule:evenodd;stroke:#000000;stroke-width:1pt;marker-start:none"
         d="M 0,0 5,-5 -12.5,0 5,5 0,0 z"
         id="path4026"
         inkscape:connector-curvature="0" /></marker><marker
       style="overflow:visible"
       id="Arrow1Mend-4"
       refX="0"
       refY="0"
       orient="auto"
       inkscape:stockid="Arrow1Mend"><path
         transform="matrix(-0.4,0,0,-0.4,-4,0)"
         style="fill-rule:evenodd;stroke:#000000;stroke-width:1pt;marker-start:none"
         d="M 0,0 5,-5 -12.5,0 5,5 0,0 z"
         id="path4026-0"
         inkscape:connector-curvature="0" /></marker></defs><g
     style="opacity:0.25;display:inline"
     inkscape:label="Stoomlijnen"
     id="layer1"
     inkscape:groupmode="layer"
     transform="translate(0,-14.173226)"
     sodipodi:insensitive="true"><g
       id="g14"
       transform="matrix(0.81034605,0,0,0.81034605,-0.66633075,6.93274)"><path
         d="m 264.07,-10.817713 0,50.813713"
         style="fill:none;stroke:#000000;stroke-width:0.4372592;stroke-linecap:butt;stroke-linejoin:miter;stroke-miterlimit:4;stroke-opacity:1;stroke-dasharray:none"
         id="path16"
         inkscape:connector-curvature="0"
         sodipodi:nodetypes="cc" /></g><g
       id="g18"
       transform="matrix(0.81034605,0,0,0.81034605,-0.66633075,6.93274)"><path
         d="m 249.895,-10.817713 0,50.813713 c 0,79.371 -28.344,127.559 -42.52,141.734 -14.172,14.172 -28.344,28.344 -28.344,28.344"
         style="fill:none;stroke:#000000;stroke-width:0.4372592;stroke-linecap:butt;stroke-linejoin:miter;stroke-miterlimit:4;stroke-opacity:1;stroke-dasharray:none"
         id="path20"
         inkscape:connector-curvature="0"
         sodipodi:nodetypes="cscc" /></g><g
       id="g22"
       transform="matrix(0.81034605,0,0,0.81034605,-0.66633075,6.93274)"><path
         d="m 235.723,-10.817713 0,50.813713 c 0,49.324 -7.641,106.856 -42.52,141.734 l -28.348,28.344"
         style="fill:none;stroke:#000000;stroke-width:0.4372592;stroke-linecap:butt;stroke-linejoin:miter;stroke-miterlimit:4;stroke-opacity:1;stroke-dasharray:none"
         id="path24"
         inkscape:connector-curvature="0"
         sodipodi:nodetypes="cscc" /></g><g
       id="g26"
       transform="matrix(0.81034605,0,0,0.81034605,-0.66633075,6.93274)"><path
         d="m 221.551,-10.817713 0,50.813713 c 0,49.324 -2.836,102.047 -42.52,141.734 -14.176,14.172 -28.347,28.344 -28.347,28.344"
         style="fill:none;stroke:#000000;stroke-width:0.4372592;stroke-linecap:butt;stroke-linejoin:miter;stroke-miterlimit:4;stroke-opacity:1;stroke-dasharray:none"
         id="path28"
         inkscape:connector-curvature="0"
         sodipodi:nodetypes="cscc" /></g><g
       id="g30"
       transform="matrix(0.81034605,0,0,0.81034605,-0.66633075,6.93274)"><path
         d="m 207.375,-10.817713 0,50.813713 c 0,28.348 19.844,85.039 -42.52,141.734 -14.828,13.481 -28.343,28.344 -28.343,28.344"
         style="fill:none;stroke:#000000;stroke-width:0.4372592;stroke-linecap:butt;stroke-linejoin:miter;stroke-miterlimit:4;stroke-opacity:1;stroke-dasharray:none"
         id="path32"
         inkscape:connector-curvature="0"
         sodipodi:nodetypes="cscc" /></g><g
       id="g38"
       transform="matrix(0.81034605,0,0,0.81034605,-0.66633075,6.93274)"><path
         d="m 320.762,-10.817713 0,50.813713 c 0,79.371 -28.344,127.559 -42.52,141.734 -14.172,14.172 -28.347,28.344 -28.347,28.344"
         style="fill:none;stroke:#000000;stroke-width:0.4372592;stroke-linecap:butt;stroke-linejoin:miter;stroke-miterlimit:4;stroke-opacity:1;stroke-dasharray:none"
         id="path40"
         inkscape:connector-curvature="0"
         sodipodi:nodetypes="cscc" /></g><g
       id="g42"
       transform="matrix(0.81034605,0,0,0.81034605,-0.66633075,6.93274)"><path
         d="m 306.59,-10.817713 0,50.813713 c 0,49.324 -7.645,106.856 -42.52,141.734 l -28.347,28.344"
         style="fill:none;stroke:#000000;stroke-width:0.4372592;stroke-linecap:butt;stroke-linejoin:miter;stroke-miterlimit:4;stroke-opacity:1;stroke-dasharray:none"
         id="path44"
         inkscape:connector-curvature="0"
         sodipodi:nodetypes="cscc" /></g><g
       id="g46"
       transform="matrix(0.81034605,0,0,0.81034605,-0.66633075,6.93274)"><path
         d="m 292.418,-10.817713 0,50.813713 c 0,49.324 -2.836,102.047 -42.523,141.734 -14.172,14.172 -28.344,28.344 -28.344,28.344"
         style="fill:none;stroke:#000000;stroke-width:0.4372592;stroke-linecap:butt;stroke-linejoin:miter;stroke-miterlimit:4;stroke-opacity:1;stroke-dasharray:none"
         id="path48"
         inkscape:connector-curvature="0"
         sodipodi:nodetypes="cssc" /></g><g
       id="g50"
       transform="matrix(0.81034605,0,0,0.81034605,-0.66633075,6.93274)"><path
         d="m 278.242,-10.817713 0,50.813713 c 0,28.348 19.844,85.039 -42.519,141.734 -14.832,13.481 -28.348,28.344 -28.348,28.344"
         style="fill:none;stroke:#000000;stroke-width:0.4372592;stroke-linecap:butt;stroke-linejoin:miter;stroke-miterlimit:4;stroke-opacity:1;stroke-dasharray:none"
         id="path52"
         inkscape:connector-curvature="0"
         sodipodi:nodetypes="cscc" /></g><g
       id="g54"
       transform="matrix(0.81034605,0,0,0.81034605,-0.66633075,6.93274)"><path
         d="m 264.07,210.074 28.348,-28.344 c 28.344,-28.347 45.352,-56.695 45.352,-56.695"
         style="fill:none;stroke:#000000;stroke-width:0.4372592;stroke-linecap:butt;stroke-linejoin:miter;stroke-miterlimit:4;stroke-opacity:1;stroke-dasharray:none"
         id="path56"
         inkscape:connector-curvature="0" /></g><g
       id="g58"
       transform="matrix(0.81034605,0,0,0.81034605,-0.66633075,6.93274)"><path
         d="m 193.203,-10.817713 0,50.813713"
         style="fill:none;stroke:#000000;stroke-width:0.4372592;stroke-linecap:butt;stroke-linejoin:miter;stroke-miterlimit:4;stroke-opacity:1;stroke-dasharray:none"
         id="path60"
         inkscape:connector-curvature="0"
         sodipodi:nodetypes="cc" /></g><g
       id="g62"
       transform="matrix(0.81034605,0,0,0.81034605,-0.66633075,6.93274)"><path
         d="m 179.031,-10.817713 0,50.813713 c 0,79.371 -28.347,127.559 -42.519,141.734 -14.176,14.172 -28.348,28.344 -28.348,28.344"
         style="fill:none;stroke:#000000;stroke-width:0.4372592;stroke-linecap:butt;stroke-linejoin:miter;stroke-miterlimit:4;stroke-opacity:1;stroke-dasharray:none"
         id="path64"
         inkscape:connector-curvature="0"
         sodipodi:nodetypes="cscc" /></g><g
       id="g66"
       transform="matrix(0.81034605,0,0,0.81034605,-0.66633075,6.93274)"><path
         d="m 164.855,-10.817713 0,50.813713 c 0,49.324 -7.64,106.856 -42.519,141.734 l -28.344,28.344"
         style="fill:none;stroke:#000000;stroke-width:0.4372592;stroke-linecap:butt;stroke-linejoin:miter;stroke-miterlimit:4;stroke-opacity:1;stroke-dasharray:none"
         id="path68"
         inkscape:connector-curvature="0"
         sodipodi:nodetypes="cscc" /></g><g
       id="g70"
       transform="matrix(0.81034605,0,0,0.81034605,-0.66633075,6.93274)"><path
         d="m 150.684,-10.817713 0,50.813713 c 0,49.324 -2.836,102.047 -42.52,141.734 -14.172,14.172 -28.348,28.344 -28.348,28.344"
         style="fill:none;stroke:#000000;stroke-width:0.4372592;stroke-linecap:butt;stroke-linejoin:miter;stroke-miterlimit:4;stroke-opacity:1;stroke-dasharray:none"
         id="path72"
         inkscape:connector-curvature="0"
         sodipodi:nodetypes="cscc" /></g><g
       id="g74"
       transform="matrix(0.81034605,0,0,0.81034605,-0.66633075,6.93274)"><path
         d="m 136.512,-10.817713 0,50.813713 c 0,28.348 19.84,85.039 -42.52,141.734 -14.832,13.481 -28.347,28.344 -28.347,28.344"
         style="fill:none;stroke:#000000;stroke-width:0.4372592;stroke-linecap:butt;stroke-linejoin:miter;stroke-miterlimit:4;stroke-opacity:1;stroke-dasharray:none"
         id="path76"
         inkscape:connector-curvature="0"
         sodipodi:nodetypes="cscc" /></g><g
       id="g82"
       transform="matrix(0.81034605,0,0,0.81034605,-0.66633075,6.93274)"><path
         d="m 122.336,-10.817713 0,50.813713"
         style="fill:none;stroke:#000000;stroke-width:0.4372592;stroke-linecap:butt;stroke-linejoin:miter;stroke-miterlimit:4;stroke-opacity:1;stroke-dasharray:none"
         id="path84"
         inkscape:connector-curvature="0"
         sodipodi:nodetypes="cc" /></g><g
       id="g86"
       transform="matrix(0.81034605,0,0,0.81034605,-0.66633075,6.93274)"><path
         d="m 108.164,-10.817713 0,50.813713 c 0,79.371 -28.348,127.559 -42.519,141.734 -14.172,14.172 -28.348,28.344 -28.348,28.344"
         style="fill:none;stroke:#000000;stroke-width:0.4372592;stroke-linecap:butt;stroke-linejoin:miter;stroke-miterlimit:4;stroke-opacity:1;stroke-dasharray:none"
         id="path88"
         inkscape:connector-curvature="0"
         sodipodi:nodetypes="cscc" /></g><g
       id="g90"
       transform="matrix(0.81034605,0,0,0.81034605,-0.66633075,6.93274)"><path
         d="m 93.992,-10.817713 0,50.813713 c 0,49.324 -7.644,106.856 -42.519,141.734 l -28.348,28.344"
         style="fill:none;stroke:#000000;stroke-width:0.4372592;stroke-linecap:butt;stroke-linejoin:miter;stroke-miterlimit:4;stroke-opacity:1;stroke-dasharray:none"
         id="path92"
         inkscape:connector-curvature="0"
         sodipodi:nodetypes="cscc" /></g><g
       id="g94"
       transform="matrix(0.81034605,0,0,0.81034605,-0.66633075,6.93274)"><path
         d="m 79.816,-10.817713 0,50.813713 c 0,49.324 -2.832,102.047 -42.519,141.734 -14.172,14.172 -28.344,28.344 -28.344,28.344"
         style="fill:none;stroke:#000000;stroke-width:0.4372592;stroke-linecap:butt;stroke-linejoin:miter;stroke-miterlimit:4;stroke-opacity:1;stroke-dasharray:none"
         id="path96"
         inkscape:connector-curvature="0"
         sodipodi:nodetypes="cssc" /></g><g
       id="g98"
       transform="matrix(0.81034605,0,0,0.81034605,-0.66633075,6.93274)"><path
         d="m 65.645,-10.817713 0,50.813713 c 0,28.348 19.843,85.039 -42.52,141.734 -14.832,13.481 -28.348,28.344 -28.348,28.344"
         style="fill:none;stroke:#000000;stroke-width:0.4372592;stroke-linecap:butt;stroke-linejoin:miter;stroke-miterlimit:4;stroke-opacity:1;stroke-dasharray:none"
         id="path100"
         inkscape:connector-curvature="0"
         sodipodi:nodetypes="cscc" /></g><g
       id="g106"
       transform="matrix(0.81034605,0,0,0.81034605,-0.66633075,6.93274)"><path
         d="m 51.473,-10.817713 0,50.813713"
         style="fill:none;stroke:#000000;stroke-width:0.4372592;stroke-linecap:butt;stroke-linejoin:miter;stroke-miterlimit:4;stroke-opacity:1;stroke-dasharray:none"
         id="path108"
         inkscape:connector-curvature="0"
         sodipodi:nodetypes="cc" /></g><g
       id="g110"
       transform="matrix(0.81034605,0,0,0.81034605,-0.66633075,6.93274)"><path
         d="m 37.297,-10.817713 0,50.813713 c 0,79.371 -28.344,127.559 -42.52,141.734 -14.172,14.172 -28.343,28.344 -28.343,28.344"
         style="fill:none;stroke:#000000;stroke-width:0.4372592;stroke-linecap:butt;stroke-linejoin:miter;stroke-miterlimit:4;stroke-opacity:1;stroke-dasharray:none"
         id="path112"
         inkscape:connector-curvature="0"
         sodipodi:nodetypes="cscc" /></g><g
       id="g114"
       transform="matrix(0.81034605,0,0,0.81034605,-0.66633075,6.93274)"><path
         d="m 23.125,-10.817713 0,50.813713 c 0,49.324 -7.641,106.856 -42.52,141.734 l -28.347,28.344"
         style="fill:none;stroke:#000000;stroke-width:0.4372592;stroke-linecap:butt;stroke-linejoin:miter;stroke-miterlimit:4;stroke-opacity:1;stroke-dasharray:none"
         id="path116"
         inkscape:connector-curvature="0"
         sodipodi:nodetypes="cscc" /></g><g
       id="g118"
       transform="matrix(0.81034605,0,0,0.81034605,-0.66633075,6.93274)"><path
         d="m 8.953,-10.817713 0,50.813713 c 0,49.324 -2.836,102.047 -42.519,141.734 -14.176,14.172 -28.348,28.344 -28.348,28.344"
         style="fill:none;stroke:#000000;stroke-width:0.4372592;stroke-linecap:butt;stroke-linejoin:miter;stroke-miterlimit:4;stroke-opacity:1;stroke-dasharray:none"
         id="path120"
         inkscape:connector-curvature="0"
         sodipodi:nodetypes="cscc" /></g><g
       id="g126"
       transform="matrix(0.81034605,0,0,0.81034605,-0.66633075,6.93274)"><path
         d="m 349.109,11.652 0,28.344 c 0,28.348 19.844,85.039 -42.519,141.734 -14.832,13.481 -28.348,28.344 -28.348,28.344"
         style="fill:none;stroke:#000000;stroke-width:0.4372592;stroke-linecap:butt;stroke-linejoin:miter;stroke-miterlimit:4;stroke-opacity:1;stroke-dasharray:none"
         id="path128"
         inkscape:connector-curvature="0" /></g><g
       id="g34"
       transform="matrix(0.81034605,0,0,0.81034605,-0.66633075,6.93274)"
       style="display:inline"><path
         d="m 193.203,210.074 28.348,-28.344 c 28.344,-28.347 45.351,-56.695 45.351,-56.695"
         style="fill:none;stroke:#000000;stroke-width:0.4372592;stroke-linecap:butt;stroke-linejoin:miter;stroke-miterlimit:4;stroke-opacity:1;stroke-dasharray:none"
         id="path36"
         inkscape:connector-curvature="0" /></g><g
       id="g78"
       transform="matrix(0.81034605,0,0,0.81034605,-0.66633075,6.93274)"
       style="display:inline"><path
         d="m 122.336,210.074 28.348,-28.344 c 28.347,-28.347 45.355,-56.695 45.355,-56.695"
         style="fill:none;stroke:#000000;stroke-width:0.4372592;stroke-linecap:butt;stroke-linejoin:miter;stroke-miterlimit:4;stroke-opacity:1;stroke-dasharray:none"
         id="path80"
         inkscape:connector-curvature="0" /></g><g
       id="g102"
       transform="matrix(0.81034605,0,0,0.81034605,-0.66633075,6.93274)"
       style="display:inline"><path
         d="M 51.473,210.074 79.816,181.73 c 28.348,-28.347 45.356,-56.695 45.356,-56.695"
         style="fill:none;stroke:#000000;stroke-width:0.4372592;stroke-linecap:butt;stroke-linejoin:miter;stroke-miterlimit:4;stroke-opacity:1;stroke-dasharray:none"
         id="path104"
         inkscape:connector-curvature="0" /></g><g
       id="g122"
       transform="matrix(0.81034605,0,0,0.81034605,-0.66633075,6.93274)"
       style="display:inline"><path
         d="M -19.395,210.074 8.953,181.73 c 28.344,-28.347 45.352,-56.695 45.352,-56.695"
         style="fill:none;stroke:#000000;stroke-width:0.4372592;stroke-linecap:butt;stroke-linejoin:miter;stroke-miterlimit:4;stroke-opacity:1;stroke-dasharray:none"
         id="path124"
         inkscape:connector-curvature="0" /></g></g><g
     style="display:inline"
     inkscape:label="Controlevolume"
     id="layer2"
     inkscape:groupmode="layer"
     transform="translate(0,-14.173226)"
     sodipodi:insensitive="true"><path
       sodipodi:nodetypes="ccccsssccczssc"
       inkscape:connector-curvature="0"
       id="path3115"
       d="m 78.384641,112.2414 0,4.41658 45.354329,0 0,-5.09294 c 0,0 -4.26644,-0.68376 -5.20685,-9.40215 C 116.79065,86.018087 113.48467,63.427629 107.54036,47.957798 103.29378,36.906262 98.319036,26.48739 91.226126,17.00791 88.023919,12.728246 84.465383,10.247166 84.465383,10.247166 l -44.022587,0 6.760743,6.760744 c 9.648045,5.168328 23.321771,17.990312 27.365491,23.249392 4.04372,5.25908 16.499832,24.072542 15.269802,42.236477 -0.6747,9.963325 -2.183409,20.449281 -8.619545,28.057441 -0.86303,1.02018 -2.834646,1.69018 -2.834646,1.69018 z"
       style="fill:none;stroke:#000000;stroke-width:0.79937005;stroke-linecap:butt;stroke-linejoin:miter;stroke-miterlimit:4;stroke-opacity:1;stroke-dasharray:1.59874016, 1.59874016;stroke-dashoffset:0"
       transform="matrix(1.25,0,0,-1.25,0,177.16539)" /></g><g
     style="display:inline"
     transform="matrix(1.25,0,0,-1.25,0,162.99217)"
     inkscape:label="Schoepen"
     inkscape:groupmode="layer"
     id="g10"
     sodipodi:insensitive="true"><path
       d="m 78.161909,110.25784 c 5.10518,0 12.124722,-20.418132 10.210361,-35.731727 C 86.457908,59.210572 73.059322,33.689858 47.535367,18.374318 c 15.313595,20.418127 20.342278,44.52106 23.479938,61.25503 3.064405,16.335928 2.044017,30.628492 7.146604,30.628492 z"
       style="fill:#808080;fill-opacity:1;fill-rule:nonzero;stroke:none"
       id="path130"
       inkscape:connector-curvature="0" /><path
       d="m 124.10334,110.25784 c 5.10518,0 12.12473,-20.418132 10.21036,-35.731727 -1.91436,-15.315541 -15.31554,-40.836255 -40.83625,-56.151795 15.31295,20.418127 20.34228,44.52106 23.47929,61.25503 3.0644,16.335928 2.04142,30.628492 7.1466,30.628492 z"
       style="fill:#808080;fill-opacity:1;fill-rule:nonzero;stroke:none"
       id="path132"
       inkscape:connector-curvature="0" /><path
       d="m 170.04478,110.25784 c 5.10518,0 12.12213,-20.418132 10.20777,-35.731727 -1.91177,-15.315541 -15.31295,-40.836255 -40.83626,-56.151795 15.31554,20.418127 20.34487,44.52106 23.48253,61.25503 3.06117,16.335928 2.04078,30.628492 7.14596,30.628492 z"
       style="fill:#808080;fill-opacity:1;fill-rule:nonzero;stroke:none"
       id="path134"
       inkscape:connector-curvature="0" /><path
       d="m 32.222419,110.25784 c 5.102587,0 12.122777,-20.418132 10.207767,-35.731727 C 40.515825,59.210572 27.117239,33.689858 1.5939317,18.374318 16.906879,38.792445 21.938804,62.895378 25.076464,79.629348 c 3.061811,16.335928 2.040775,30.628492 7.145955,30.628492 z"
       style="fill:#808080;fill-opacity:1;fill-rule:nonzero;stroke:none"
       id="path136"
       inkscape:connector-curvature="0" /></g><g
     inkscape:label="Annotaties"
     id="layer3"
     inkscape:groupmode="layer"
     transform="translate(0,-14.173226)"><path
   inkscape:connector-curvature="0"
   id="path4012"
   d="m 126.91241,22.45891 0,17.575632"
   style="fill:none;stroke:#000000;stroke-width:1px;stroke-linecap:butt;stroke-linejoin:miter;stroke-opacity:1;marker-end:url(#Arrow1Mend)" /><path
   style="fill:none;stroke:#000000;stroke-width:1px;stroke-linecap:butt;stroke-linejoin:miter;stroke-opacity:1;marker-end:url(#Arrow1Mend)"
   d="m 91.068946,155.24116 -18.93079,18.93079"
   id="path4458"
   inkscape:connector-curvature="0" /><g
   ns0:preamble="D:\\Onderwijs\\FLUI\\Cursus\\FLUI_theorie\\tex\\commands.tex"
   ns0:text="$\\alpha$"
   word-spacing="normal"
   letter-spacing="normal"
   font-size-adjust="none"
   font-stretch="normal"
   font-weight="normal"
   font-variant="normal"
   font-style="normal"
   stroke-miterlimit="10.433"
   xml:space="preserve"
   transform="matrix(1.25,0,0,-1.25,-200.72232,1060.1657)"
   id="content"
   style="font-style:normal;font-variant:normal;font-weight:normal;font-stretch:normal;letter-spacing:normal;word-spacing:normal;text-anchor:start;fill:none;stroke:#000000;stroke-linecap:butt;stroke-linejoin:miter;stroke-miterlimit:10.43299961;stroke-opacity:1;stroke-dasharray:none;stroke-dashoffset:0">
<path
   id="path4537"
   d="m 228.18,709.47 0,0.07 0,0.07 -0.01,0.07 0,0.07 -0.02,0.13 -0.01,0.12 -0.03,0.12 -0.02,0.12 -0.03,0.1 -0.04,0.11 -0.04,0.09 -0.04,0.1 -0.04,0.08 -0.05,0.08 -0.06,0.08 -0.05,0.07 -0.06,0.07 -0.06,0.06 -0.06,0.05 -0.06,0.06 -0.07,0.05 -0.06,0.04 -0.07,0.04 -0.07,0.04 -0.07,0.03 -0.07,0.03 -0.08,0.02 -0.07,0.02 -0.07,0.02 -0.07,0.01 -0.07,0.01 -0.07,0.01 -0.07,0 -0.07,0.01 c -1.37,0 -2.68,-1.43 -2.68,-2.83 0,-0.92 0.6,-1.67 1.61,-1.67 l 0.02,0.21 c -0.59,0 -0.89,0.45 -0.89,1.09 0,0.48 0.26,1.56 0.57,2.06 0.47,0.73 1.01,0.92 1.36,0.92 0.98,0 0.98,-1.3 0.98,-2.08 0,-0.37 0,-0.94 0.02,-1.11 h 0 c -0.87,-0.77 -1.64,-0.88 -2.04,-0.88 l -0.02,-0.21 c 0.63,0 1.34,0.22 2.1,0.83 0.13,-0.53 0.46,-0.83 0.91,-0.83 0.52,0 0.83,0.54 0.83,0.7 0,0.07 -0.06,0.1 -0.12,0.1 -0.07,0 -0.1,-0.03 -0.13,-0.1 -0.18,-0.49 -0.53,-0.49 -0.55,-0.49 -0.31,0 -0.31,0.78 -0.31,1.02 0,0.21 0,0.23 0.1,0.34 0.93,1.18 1.14,2.33 1.14,2.34 0,0.02 -0.01,0.1 -0.12,0.1 -0.1,0 -0.1,-0.03 -0.15,-0.21 -0.18,-0.62 -0.5,-1.38 -0.97,-1.97 z"
   inkscape:connector-curvature="0"
   style="fill:#000000;stroke-width:0" />
</g>
<g
   id="g4619"
   transform="translate(-3.7572565,3.8295114)"><path
     inkscape:connector-curvature="0"
     id="path4615"
     d="m 91.096952,155.70674 0,12.45421"
     style="fill:none;stroke:#000000;stroke-width:0.35433072;stroke-linecap:butt;stroke-linejoin:miter;stroke-miterlimit:4;stroke-opacity:1;stroke-dasharray:none" /><path
     sodipodi:open="true"
     sodipodi:end="2.3996454"
     sodipodi:start="1.5661235"
     transform="matrix(1.6165413,0,0,1.6165413,-59.622004,-103.54703)"
     d="m 93.172385,167.20234 c -1.91578,0.009 -3.74633,-0.79121 -5.040884,-2.20346"
     sodipodi:ry="6.7952299"
     sodipodi:rx="6.7952299"
     sodipodi:cy="160.40718"
     sodipodi:cx="93.140633"
     id="path4617"
     style="fill:none;stroke:#000000;stroke-width:0.21919063;stroke-linecap:round;stroke-linejoin:round;stroke-miterlimit:4;stroke-opacity:1;stroke-dasharray:none;stroke-dashoffset:0"
     sodipodi:type="arc" /></g>
<g
   id="g5208"
   transform="translate(1.1560789,-22.543539)"><path
     inkscape:connector-curvature="0"
     id="path4623"
     d="m 7.0866142,53.149604 21.2598428,0"
     style="fill:none;stroke:#000000;stroke-width:0.99921262;stroke-linecap:round;stroke-linejoin:miter;stroke-miterlimit:3.9000001;stroke-opacity:1;stroke-dasharray:none;marker-end:url(#Arrow1Mend)" /><path
     style="fill:none;stroke:#000000;stroke-width:0.99921262;stroke-linecap:round;stroke-linejoin:miter;stroke-miterlimit:3.9000001;stroke-opacity:1;stroke-dasharray:none;marker-end:url(#Arrow1Mend)"
     d="m 7.0866142,53.149604 0,21.259843"
     id="path4846"
     inkscape:connector-curvature="0" /><g
     style="font-style:normal;font-variant:normal;font-weight:normal;font-stretch:normal;letter-spacing:normal;word-spacing:normal;text-anchor:start;fill:none;stroke:#000000;stroke-linecap:butt;stroke-linejoin:miter;stroke-miterlimit:10.43299961;stroke-opacity:1;stroke-dasharray:none;stroke-dashoffset:0"
     ns0:preamble="D:\\Onderwijs\\FLUI\\Cursus\\FLUI_theorie\\tex\\commands.tex"
     ns0:text="$x$"
     word-spacing="normal"
     letter-spacing="normal"
     font-size-adjust="none"
     font-stretch="normal"
     font-weight="normal"
     font-variant="normal"
     font-style="normal"
     stroke-miterlimit="10.433"
     xml:space="preserve"
     transform="matrix(1.25,0,0,-1.25,-270.18927,960.93445)"
     id="g4937">
<path
   id="path4939"
   d="m 226.76,710.13 0,0.02 0.01,0.03 0.01,0.03 0.01,0.04 0.01,0.04 0.01,0.04 0.01,0.04 0.02,0.05 0.01,0.04 0.02,0.05 0.02,0.05 0.02,0.05 0.02,0.05 0.03,0.05 0.02,0.05 0.03,0.05 0.03,0.05 0.03,0.04 0.03,0.05 0.04,0.04 0.04,0.05 0.04,0.04 0.04,0.04 0.04,0.03 0.05,0.03 0.05,0.03 0.02,0.01 0.03,0.02 0.02,0.01 0.03,0.01 0.03,0.01 0.03,0 0.03,0.01 0.02,0.01 0.04,0 0.03,0 0.03,0.01 0.03,0 c 0.05,0 0.29,0 0.5,-0.13 -0.28,-0.05 -0.48,-0.3 -0.48,-0.54 0,-0.16 0.11,-0.35 0.38,-0.35 0.22,0 0.54,0.18 0.54,0.58 0,0.52 -0.59,0.66 -0.93,0.66 -0.58,0 -0.93,-0.53 -1.04,-0.76 -0.25,0.66 -0.79,0.76 -1.08,0.76 -1.03,0 -1.6,-1.29 -1.6,-1.53 0,-0.1 0.1,-0.1 0.12,-0.1 0.08,0 0.11,0.02 0.13,0.11 0.34,1.05 0.99,1.3 1.33,1.3 0.19,0 0.54,-0.09 0.54,-0.67 0,-0.31 -0.17,-0.97 -0.54,-2.36 -0.16,-0.62 -0.51,-1.04 -0.94,-1.04 -0.06,0 -0.29,0 -0.5,0.13 0.25,0.05 0.47,0.26 0.47,0.54 0,0.27 -0.22,0.35 -0.37,0.35 -0.3,0 -0.55,-0.26 -0.55,-0.58 0,-0.46 0.5,-0.65 0.94,-0.65 0.65,0 1.01,0.69 1.04,0.75 0.12,-0.37 0.48,-0.75 1.07,-0.75 1.03,0 1.6,1.28 1.6,1.53 0,0.1 -0.09,0.1 -0.12,0.1 -0.09,0 -0.11,-0.05 -0.13,-0.11 -0.33,-1.07 -1.01,-1.31 -1.33,-1.31 -0.38,0 -0.54,0.32 -0.54,0.66 0,0.22 0.06,0.44 0.17,0.87 z"
   inkscape:connector-curvature="0"
   style="fill:#000000;stroke-width:0" />
</g><g
     id="g5117"
     transform="matrix(1.25,0,0,-1.25,-254.22736,945.98801)"
     xml:space="preserve"
     stroke-miterlimit="10.433"
     font-style="normal"
     font-variant="normal"
     font-weight="normal"
     font-stretch="normal"
     font-size-adjust="none"
     letter-spacing="normal"
     word-spacing="normal"
     ns0:text="$y$"
     ns0:preamble="D:\\Onderwijs\\FLUI\\Cursus\\FLUI_theorie\\tex\\commands.tex"
     style="font-style:normal;font-variant:normal;font-weight:normal;font-stretch:normal;letter-spacing:normal;word-spacing:normal;text-anchor:start;fill:none;stroke:#000000;stroke-linecap:butt;stroke-linejoin:miter;stroke-miterlimit:10.43299961;stroke-opacity:1;stroke-dasharray:none;stroke-dashoffset:0">
<path
   style="fill:#000000;stroke-width:0"
   inkscape:connector-curvature="0"
   d="m 228.27,710.91 0,0.01 0,0 0,0.01 0,0 0.01,0.02 0,0.01 0,0.01 0.01,0.01 0,0.01 0,0 0,0.01 0,0.01 0.01,0.01 0,0.01 0,0 0,0.01 0,0 0,0.01 0,0.01 0,0 0,0.01 0,0 0.01,0.01 0,0.01 0,0.01 0,0.01 0,0.01 0,0.01 0,0 0,0.01 c 0,0.18 -0.14,0.27 -0.29,0.27 -0.1,0 -0.26,-0.06 -0.35,-0.21 -0.02,-0.05 -0.1,-0.36 -0.14,-0.54 -0.07,-0.26 -0.14,-0.52 -0.2,-0.79 l -0.45,-1.79 c -0.03,-0.15 -0.46,-0.85 -1.12,-0.85 -0.51,0 -0.62,0.44 -0.62,0.81 0,0.46 0.17,1.07 0.51,1.95 0.16,0.4 0.2,0.51 0.2,0.71 0,0.45 -0.32,0.82 -0.82,0.82 -0.94,0 -1.31,-1.44 -1.31,-1.53 0,-0.1 0.1,-0.1 0.12,-0.1 0.1,0 0.11,0.02 0.16,0.18 0.27,0.93 0.67,1.23 1,1.23 0.08,0 0.25,0 0.25,-0.32 0,-0.25 -0.1,-0.51 -0.17,-0.7 -0.39,-1.05 -0.57,-1.62 -0.57,-2.08 0,-0.89 0.62,-1.18 1.21,-1.18 0.39,0 0.73,0.16 1.01,0.44 -0.13,-0.51 -0.25,-1 -0.65,-1.53 -0.26,-0.34 -0.64,-0.62 -1.1,-0.62 -0.13,0 -0.58,0.03 -0.75,0.41 0.16,0 0.29,0 0.43,0.12 0.1,0.09 0.19,0.22 0.19,0.41 0,0.31 -0.26,0.35 -0.36,0.35 -0.23,0 -0.56,-0.16 -0.56,-0.65 0,-0.49 0.44,-0.86 1.05,-0.86 1.03,0 2.05,0.9 2.33,2.02 z"
   id="path5119" />
</g></g>
</g></svg>