<?xml version="1.0" encoding="UTF-8" standalone="no"?>
<!-- Created with Inkscape (http://www.inkscape.org/) -->

<svg
   xmlns:dc="http://purl.org/dc/elements/1.1/"
   xmlns:cc="http://creativecommons.org/ns#"
   xmlns:rdf="http://www.w3.org/1999/02/22-rdf-syntax-ns#"
   xmlns:svg="http://www.w3.org/2000/svg"
   xmlns="http://www.w3.org/2000/svg"
   xmlns:sodipodi="http://sodipodi.sourceforge.net/DTD/sodipodi-0.dtd"
   xmlns:inkscape="http://www.inkscape.org/namespaces/inkscape"
   width="354.33069"
   height="177.16534"
   id="svg3009"
   version="1.1"
   inkscape:version="0.91 r13725"
   sodipodi:docname="Energie_cascade.svg">
  <defs
     id="defs3011">
    <marker
       inkscape:stockid="Arrow1Mstart"
       orient="auto"
       refY="0.0"
       refX="0.0"
       id="Arrow1Mstart"
       style="overflow:visible">
      <path
         id="path3772"
         d="M 0.0,0.0 L 5.0,-5.0 L -12.5,0.0 L 5.0,5.0 L 0.0,0.0 z "
         style="fill-rule:evenodd;stroke:#000000;stroke-width:1.0pt;marker-start:none"
         transform="scale(0.4) translate(10,0)" />
    </marker>
  </defs>
  <sodipodi:namedview
     id="base"
     pagecolor="#ffffff"
     bordercolor="#666666"
     borderopacity="1.0"
     inkscape:pageopacity="0.0"
     inkscape:pageshadow="2"
     inkscape:zoom="1.548235"
     inkscape:cx="229.58286"
     inkscape:cy="74.072226"
     inkscape:document-units="mm"
     inkscape:current-layer="layer1"
     showgrid="true"
     units="mm"
     inkscape:window-width="1280"
     inkscape:window-height="962"
     inkscape:window-x="-8"
     inkscape:window-y="-8"
     inkscape:window-maximized="1">
    <inkscape:grid
       type="xygrid"
       id="grid3017"
       empspacing="5"
       visible="true"
       enabled="true"
       snapvisiblegridlinesonly="true"
       units="mm"
       spacingx="1mm"
       spacingy="1mm"
       dotted="false" />
  </sodipodi:namedview>
  <metadata
     id="metadata3014">
    <rdf:RDF>
      <cc:Work
         rdf:about="">
        <dc:format>image/svg+xml</dc:format>
        <dc:type
           rdf:resource="http://purl.org/dc/dcmitype/StillImage" />
        <dc:title />
      </cc:Work>
    </rdf:RDF>
  </metadata>
  <g
     inkscape:label="Layer 1"
     inkscape:groupmode="layer"
     id="layer1"
     transform="translate(0,-875.19684)">
    <rect
       style="fill:#cccccc;fill-opacity:1;fill-rule:evenodd;stroke:none"
       id="rect2985"
       width="283.46457"
       height="141.73228"
       x="35.433071"
       y="903.54333" />
    <path
       style="fill:none;stroke:#000000;stroke-width:1px;stroke-linecap:butt;stroke-linejoin:miter;stroke-opacity:1"
       d="m 35.433072,885.82675 0,159.44885 283.464568,0 0,-159.44885"
       id="path2983"
       inkscape:connector-curvature="0"
       sodipodi:nodetypes="cccc" />
    <path
       style="fill:#4d4d4d;stroke:#000000;stroke-width:1px;stroke-linecap:butt;stroke-linejoin:miter;stroke-opacity:1"
       d="m 88.582677,920.85475 -10.629921,-10.62993 -35.433071,0 0,28.34646 35.433071,0 10.629921,-10.62992 88.582673,0 0,-7.08661 z"
       id="path3757"
       inkscape:connector-curvature="0"
       sodipodi:nodetypes="ccccccccc" />
    <path
       sodipodi:nodetypes="ccccccccc"
       inkscape:connector-curvature="0"
       id="path3759"
       d="m 265.74802,920.85475 10.62992,-10.62993 35.43307,0 0,28.34646 -35.43307,0 -10.62992,-10.62992 -88.58267,0 0,-7.08661 z"
       style="fill:#4d4d4d;stroke:#000000;stroke-width:1px;stroke-linecap:butt;stroke-linejoin:miter;stroke-opacity:1" />
    <path
       sodipodi:type="arc"
       style="fill:none;stroke:#000000;stroke-width:1.49770296;marker-start:url(#Arrow1Mstart)"
       id="path3761"
       sodipodi:cx="177.16536"
       sodipodi:cy="960.02704"
       sodipodi:rx="134.64568"
       sodipodi:ry="13.651325"
       d="M 227.68953,972.68084 A 134.64568,13.651325 0 0 1 64.261567,967.46514 134.64568,13.651325 0 0 1 83.64689,950.2057 134.64568,13.651325 0 0 1 254.45688,948.84893 134.64568,13.651325 0 0 1 300.1168,965.5917"
       sodipodi:start="1.1861428"
       sodipodi:end="0.41985489"
       sodipodi:open="true" />
    <path
       sodipodi:open="true"
       sodipodi:end="0.41985489"
       sodipodi:start="1.1861428"
       d="m 270.15479,993.44361 a 64.266556,6.5157957 0 0 1 -78.00438,-2.48946 64.266556,6.5157957 0 0 1 9.25264,-8.23796 64.266556,6.5157957 0 0 1 81.52783,-0.64759 64.266556,6.5157957 0 0 1 21.79354,7.99135"
       sodipodi:ry="6.5157957"
       sodipodi:rx="64.266556"
       sodipodi:cy="987.40393"
       sodipodi:cx="246.03954"
       id="path4759"
       style="fill:none;stroke:#000000;stroke-width:1.0629921;stroke-miterlimit:4;stroke-dasharray:none;marker-start:url(#Arrow1Mstart)"
       sodipodi:type="arc" />
    <path
       sodipodi:type="arc"
       style="fill:none;stroke:#000000;stroke-width:0.70866144;stroke-miterlimit:4;stroke-dasharray:none;marker-start:url(#Arrow1Mstart)"
       id="path4761"
       sodipodi:cx="280.02487"
       sodipodi:cy="1004.1168"
       sodipodi:rx="30.929081"
       sodipodi:ry="3.135808"
       d="m 291.63064,1007.0235 a 30.929081,3.135808 0 0 1 -37.54058,-1.1981 30.929081,3.135808 0 0 1 4.45295,-3.9646 30.929081,3.135808 0 0 1 39.23628,-0.3117 30.929081,3.135808 0 0 1 10.48841,3.846"
       sodipodi:start="1.1861428"
       sodipodi:end="0.41985489"
       sodipodi:open="true" />
    <path
       sodipodi:type="arc"
       style="fill:none;stroke:#000000;stroke-width:0.35433075;stroke-miterlimit:4;stroke-dasharray:none;marker-start:url(#Arrow1Mstart)"
       id="path4777"
       sodipodi:cx="245.27048"
       sodipodi:cy="1016.7681"
       sodipodi:rx="12.408262"
       sodipodi:ry="1.829494"
       d="m 249.92653,1018.4639 a 12.408262,1.829494 0 0 1 -15.06069,-0.6989 12.408262,1.829494 0 0 1 1.78645,-2.3131 12.408262,1.829494 0 0 1 15.74098,-0.1818 12.408262,1.829494 0 0 1 4.20779,2.2438"
       sodipodi:start="1.1861428"
       sodipodi:end="0.41985489"
       sodipodi:open="true" />
    <path
       sodipodi:type="arc"
       style="fill:none;stroke:#000000;stroke-width:0.35433075;stroke-miterlimit:4;stroke-dasharray:none;marker-start:url(#Arrow1Mstart)"
       id="path4779"
       sodipodi:cx="218.00858"
       sodipodi:cy="1016.7681"
       sodipodi:rx="12.408262"
       sodipodi:ry="1.829494"
       d="m 222.66463,1018.4639 a 12.408262,1.829494 0 0 1 -15.0607,-0.6989 12.408262,1.829494 0 0 1 1.78646,-2.3131 12.408262,1.829494 0 0 1 15.74098,-0.1818 12.408262,1.829494 0 0 1 4.20779,2.2438"
       sodipodi:start="1.1861428"
       sodipodi:end="0.41985489"
       sodipodi:open="true" />
    <path
       sodipodi:type="arc"
       style="fill:none;stroke:#000000;stroke-width:0.35433075;stroke-miterlimit:4;stroke-dasharray:none;marker-start:url(#Arrow1Mstart)"
       id="path4781"
       sodipodi:cx="190.74666"
       sodipodi:cy="1016.7681"
       sodipodi:rx="12.408262"
       sodipodi:ry="1.829494"
       d="m 195.40271,1018.4639 a 12.408262,1.829494 0 0 1 -15.06069,-0.6989 12.408262,1.829494 0 0 1 1.78645,-2.3131 12.408262,1.829494 0 0 1 15.74098,-0.1818 12.408262,1.829494 0 0 1 4.20779,2.2438"
       sodipodi:start="1.1861428"
       sodipodi:end="0.41985489"
       sodipodi:open="true" />
    <path
       sodipodi:type="arc"
       style="fill:none;stroke:#000000;stroke-width:0.35433075;stroke-miterlimit:4;stroke-dasharray:none;marker-start:url(#Arrow1Mstart)"
       id="path4783"
       sodipodi:cx="163.48476"
       sodipodi:cy="1016.7681"
       sodipodi:rx="12.408262"
       sodipodi:ry="1.829494"
       d="m 168.14081,1018.4639 a 12.408262,1.829494 0 0 1 -15.06069,-0.6989 12.408262,1.829494 0 0 1 1.78645,-2.3131 12.408262,1.829494 0 0 1 15.74098,-0.1818 12.408262,1.829494 0 0 1 4.20779,2.2438"
       sodipodi:start="1.1861428"
       sodipodi:end="0.41985489"
       sodipodi:open="true" />
    <path
       sodipodi:type="arc"
       style="fill:none;stroke:#000000;stroke-width:0.35433075;stroke-miterlimit:4;stroke-dasharray:none;marker-start:url(#Arrow1Mstart)"
       id="path4785"
       sodipodi:cx="136.22285"
       sodipodi:cy="1016.7681"
       sodipodi:rx="12.408262"
       sodipodi:ry="1.829494"
       d="m 140.87891,1018.4639 a 12.408262,1.829494 0 0 1 -15.0607,-0.6989 12.408262,1.829494 0 0 1 1.78646,-2.3131 12.408262,1.829494 0 0 1 15.74098,-0.1818 12.408262,1.829494 0 0 1 4.20779,2.2438"
       sodipodi:start="1.1861428"
       sodipodi:end="0.41985489"
       sodipodi:open="true" />
    <path
       sodipodi:type="arc"
       style="fill:none;stroke:#000000;stroke-width:0.35433075;stroke-miterlimit:4;stroke-dasharray:none;marker-start:url(#Arrow1Mstart)"
       id="path4787"
       sodipodi:cx="108.96095"
       sodipodi:cy="1016.7681"
       sodipodi:rx="12.408262"
       sodipodi:ry="1.829494"
       d="m 113.617,1018.4639 a 12.408262,1.829494 0 0 1 -15.060688,-0.6989 12.408262,1.829494 0 0 1 1.786458,-2.3131 12.408262,1.829494 0 0 1 15.74098,-0.1818 12.408262,1.829494 0 0 1 4.20778,2.2438"
       sodipodi:start="1.1861428"
       sodipodi:end="0.41985489"
       sodipodi:open="true" />
    <path
       sodipodi:type="arc"
       style="fill:none;stroke:#000000;stroke-width:0.35433075;stroke-miterlimit:4;stroke-dasharray:none;marker-start:url(#Arrow1Mstart)"
       id="path4789"
       sodipodi:cx="81.699043"
       sodipodi:cy="1016.7681"
       sodipodi:rx="12.408262"
       sodipodi:ry="1.829494"
       d="m 86.355095,1018.4639 a 12.408262,1.829494 0 0 1 -15.060692,-0.6989 12.408262,1.829494 0 0 1 1.786453,-2.3131 12.408262,1.829494 0 0 1 15.740982,-0.1818 12.408262,1.829494 0 0 1 4.207786,2.2438"
       sodipodi:start="1.1861428"
       sodipodi:end="0.41985489"
       sodipodi:open="true" />
    <path
       sodipodi:type="arc"
       style="fill:none;stroke:#000000;stroke-width:0.35433075;stroke-miterlimit:4;stroke-dasharray:none;marker-start:url(#Arrow1Mstart)"
       id="path4791"
       sodipodi:cx="54.437134"
       sodipodi:cy="1016.7681"
       sodipodi:rx="12.408262"
       sodipodi:ry="1.829494"
       d="m 59.093185,1018.4639 a 12.408262,1.829494 0 0 1 -15.060692,-0.6989 12.408262,1.829494 0 0 1 1.786453,-2.3131 12.408262,1.829494 0 0 1 15.740982,-0.1818 12.408262,1.829494 0 0 1 4.207787,2.2438"
       sodipodi:start="1.1861428"
       sodipodi:end="0.41985489"
       sodipodi:open="true" />
    <path
       sodipodi:type="arc"
       style="fill:none;stroke:#000000;stroke-width:0.35433075;stroke-miterlimit:4;stroke-dasharray:none;marker-start:url(#Arrow1Mstart)"
       id="path4793"
       sodipodi:cx="299.79428"
       sodipodi:cy="1016.7681"
       sodipodi:rx="12.408262"
       sodipodi:ry="1.829494"
       d="m 304.45033,1018.4639 a 12.408262,1.829494 0 0 1 -15.06069,-0.6989 12.408262,1.829494 0 0 1 1.78645,-2.3131 12.408262,1.829494 0 0 1 15.74099,-0.1818 12.408262,1.829494 0 0 1 4.20778,2.2438"
       sodipodi:start="1.1861428"
       sodipodi:end="0.41985489"
       sodipodi:open="true" />
    <path
       sodipodi:open="true"
       sodipodi:end="0.41985489"
       sodipodi:start="1.1861428"
       d="m 277.18843,1018.4639 a 12.408262,1.829494 0 0 1 -15.06069,-0.6989 12.408262,1.829494 0 0 1 1.78645,-2.3131 12.408262,1.829494 0 0 1 15.74098,-0.1818 12.408262,1.829494 0 0 1 4.20779,2.2438"
       sodipodi:ry="1.829494"
       sodipodi:rx="12.408262"
       sodipodi:cy="1016.7681"
       sodipodi:cx="272.53238"
       id="path4763"
       style="fill:none;stroke:#000000;stroke-width:0.35433075;stroke-miterlimit:4;stroke-dasharray:none;marker-start:url(#Arrow1Mstart)"
       sodipodi:type="arc" />
    <path
       sodipodi:type="arc"
       style="fill:none;stroke:#000000;stroke-width:0.35433078;stroke-miterlimit:4;stroke-dasharray:none;marker-start:url(#Arrow1Mstart)"
       id="path4765"
       sodipodi:cx="306.62259"
       sodipodi:cy="1028.3883"
       sodipodi:rx="4.9999318"
       sodipodi:ry="1.1242813"
       d="m 308.49875,1029.4304 a 4.9999318,1.1242813 0 0 1 -6.06873,-0.4295 4.9999318,1.1242813 0 0 1 0.71985,-1.4214 4.9999318,1.1242813 0 0 1 6.34286,-0.1118 4.9999318,1.1242813 0 0 1 1.69554,1.3789"
       sodipodi:start="1.1861428"
       sodipodi:end="0.41985489"
       sodipodi:open="true" />
    <path
       sodipodi:open="true"
       sodipodi:end="0.41985489"
       sodipodi:start="1.1861428"
       d="m 309.49494,1036.4787 a 3.1478503,0.61471915 0 0 1 -3.82074,-0.2348 3.1478503,0.61471915 0 0 1 0.4532,-0.7772 3.1478503,0.61471915 0 0 1 3.99333,-0.061 3.1478503,0.61471915 0 0 1 1.06747,0.7539"
       sodipodi:ry="0.61471915"
       sodipodi:rx="3.1478503"
       sodipodi:cy="1035.9089"
       sodipodi:cx="308.31375"
       id="path4767"
       style="fill:none;stroke:#000000;stroke-width:0.17716537;stroke-miterlimit:4;stroke-dasharray:none;marker-start:url(#Arrow1Mstart)"
       sodipodi:type="arc" />
    <path
       sodipodi:type="arc"
       style="fill:none;stroke:#000000;stroke-width:1.0629921;stroke-miterlimit:4;stroke-dasharray:none;marker-start:url(#Arrow1Mstart)"
       id="path4769"
       sodipodi:cx="106.78624"
       sodipodi:cy="987.40393"
       sodipodi:rx="64.266556"
       sodipodi:ry="6.5157957"
       d="m 130.90149,993.44361 a 64.266556,6.5157957 0 0 1 -78.004377,-2.48946 64.266556,6.5157957 0 0 1 9.25264,-8.23796 64.266556,6.5157957 0 0 1 81.527827,-0.64759 64.266556,6.5157957 0 0 1 21.79354,7.99135"
       sodipodi:start="1.1861428"
       sodipodi:end="0.41985489"
       sodipodi:open="true" />
    <path
       sodipodi:open="true"
       sodipodi:end="0.41985489"
       sodipodi:start="1.1861428"
       d="m 85.054535,1007.0235 a 30.929081,3.135808 0 0 1 -37.54058,-1.1981 30.929081,3.135808 0 0 1 4.452948,-3.9646 30.929081,3.135808 0 0 1 39.236284,-0.3117 30.929081,3.135808 0 0 1 10.488413,3.846"
       sodipodi:ry="3.135808"
       sodipodi:rx="30.929081"
       sodipodi:cy="1004.1168"
       sodipodi:cx="73.448769"
       id="path4771"
       style="fill:none;stroke:#000000;stroke-width:0.70866144;stroke-miterlimit:4;stroke-dasharray:none;marker-start:url(#Arrow1Mstart)"
       sodipodi:type="arc" />
    <path
       sodipodi:type="arc"
       style="fill:none;stroke:#000000;stroke-width:0.70866144;stroke-miterlimit:4;stroke-dasharray:none;marker-start:url(#Arrow1Mstart)"
       id="path4773"
       sodipodi:cx="142.30746"
       sodipodi:cy="1004.1168"
       sodipodi:rx="30.929081"
       sodipodi:ry="3.135808"
       d="m 153.91323,1007.0235 a 30.929081,3.135808 0 0 1 -37.54058,-1.1981 30.929081,3.135808 0 0 1 4.45295,-3.9646 30.929081,3.135808 0 0 1 39.23628,-0.3117 30.929081,3.135808 0 0 1 10.48842,3.846"
       sodipodi:start="1.1861428"
       sodipodi:end="0.41985489"
       sodipodi:open="true" />
    <path
       sodipodi:open="true"
       sodipodi:end="0.41985489"
       sodipodi:start="1.1861428"
       d="m 222.77193,1007.0235 a 30.929081,3.135808 0 0 1 -37.54058,-1.1981 30.929081,3.135808 0 0 1 4.45295,-3.9646 30.929081,3.135808 0 0 1 39.23629,-0.3117 30.929081,3.135808 0 0 1 10.48841,3.846"
       sodipodi:ry="3.135808"
       sodipodi:rx="30.929081"
       sodipodi:cy="1004.1168"
       sodipodi:cx="211.16617"
       id="path4775"
       style="fill:none;stroke:#000000;stroke-width:0.70866144;stroke-miterlimit:4;stroke-dasharray:none;marker-start:url(#Arrow1Mstart)"
       sodipodi:type="arc" />
    <path
       sodipodi:type="arc"
       style="fill:none;stroke:#000000;stroke-width:0.35433078;stroke-miterlimit:4;stroke-dasharray:none;marker-start:url(#Arrow1Mstart)"
       id="path4797"
       sodipodi:cx="292.19305"
       sodipodi:cy="1028.3883"
       sodipodi:rx="4.9999318"
       sodipodi:ry="1.1242813"
       d="m 294.06922,1029.4304 a 4.9999318,1.1242813 0 0 1 -6.06873,-0.4295 4.9999318,1.1242813 0 0 1 0.71985,-1.4214 4.9999318,1.1242813 0 0 1 6.34286,-0.1118 4.9999318,1.1242813 0 0 1 1.69553,1.3789"
       sodipodi:start="1.1861428"
       sodipodi:end="0.41985489"
       sodipodi:open="true" />
    <path
       sodipodi:type="arc"
       style="fill:none;stroke:#000000;stroke-width:0.35433078;stroke-miterlimit:4;stroke-dasharray:none;marker-start:url(#Arrow1Mstart)"
       id="path4799"
       sodipodi:cx="277.76355"
       sodipodi:cy="1028.3883"
       sodipodi:rx="4.9999318"
       sodipodi:ry="1.1242813"
       d="m 279.63971,1029.4304 a 4.9999318,1.1242813 0 0 1 -6.06873,-0.4295 4.9999318,1.1242813 0 0 1 0.71986,-1.4214 4.9999318,1.1242813 0 0 1 6.34285,-0.1118 4.9999318,1.1242813 0 0 1 1.69554,1.3789"
       sodipodi:start="1.1861428"
       sodipodi:end="0.41985489"
       sodipodi:open="true" />
    <path
       sodipodi:type="arc"
       style="fill:none;stroke:#000000;stroke-width:0.35433078;stroke-miterlimit:4;stroke-dasharray:none;marker-start:url(#Arrow1Mstart)"
       id="path4801"
       sodipodi:cx="263.33405"
       sodipodi:cy="1028.3883"
       sodipodi:rx="4.9999318"
       sodipodi:ry="1.1242813"
       d="m 265.21021,1029.4304 a 4.9999318,1.1242813 0 0 1 -6.06873,-0.4295 4.9999318,1.1242813 0 0 1 0.71985,-1.4214 4.9999318,1.1242813 0 0 1 6.34286,-0.1118 4.9999318,1.1242813 0 0 1 1.69553,1.3789"
       sodipodi:start="1.1861428"
       sodipodi:end="0.41985489"
       sodipodi:open="true" />
    <path
       sodipodi:type="arc"
       style="fill:none;stroke:#000000;stroke-width:0.35433078;stroke-miterlimit:4;stroke-dasharray:none;marker-start:url(#Arrow1Mstart)"
       id="path4803"
       sodipodi:cx="248.90454"
       sodipodi:cy="1028.3883"
       sodipodi:rx="4.9999318"
       sodipodi:ry="1.1242813"
       d="m 250.78071,1029.4304 a 4.9999318,1.1242813 0 0 1 -6.06874,-0.4295 4.9999318,1.1242813 0 0 1 0.71986,-1.4214 4.9999318,1.1242813 0 0 1 6.34285,-0.1118 4.9999318,1.1242813 0 0 1 1.69554,1.3789"
       sodipodi:start="1.1861428"
       sodipodi:end="0.41985489"
       sodipodi:open="true" />
    <path
       sodipodi:type="arc"
       style="fill:none;stroke:#000000;stroke-width:0.35433078;stroke-miterlimit:4;stroke-dasharray:none;marker-start:url(#Arrow1Mstart)"
       id="path4805"
       sodipodi:cx="234.47505"
       sodipodi:cy="1028.3883"
       sodipodi:rx="4.9999318"
       sodipodi:ry="1.1242813"
       d="m 236.35122,1029.4304 a 4.9999318,1.1242813 0 0 1 -6.06874,-0.4295 4.9999318,1.1242813 0 0 1 0.71986,-1.4214 4.9999318,1.1242813 0 0 1 6.34285,-0.1118 4.9999318,1.1242813 0 0 1 1.69554,1.3789"
       sodipodi:start="1.1861428"
       sodipodi:end="0.41985489"
       sodipodi:open="true" />
    <path
       sodipodi:type="arc"
       style="fill:none;stroke:#000000;stroke-width:0.35433078;stroke-miterlimit:4;stroke-dasharray:none;marker-start:url(#Arrow1Mstart)"
       id="path4807"
       sodipodi:cx="220.04553"
       sodipodi:cy="1028.3883"
       sodipodi:rx="4.9999318"
       sodipodi:ry="1.1242813"
       d="m 221.9217,1029.4304 a 4.9999318,1.1242813 0 0 1 -6.06874,-0.4295 4.9999318,1.1242813 0 0 1 0.71986,-1.4214 4.9999318,1.1242813 0 0 1 6.34286,-0.1118 4.9999318,1.1242813 0 0 1 1.69553,1.3789"
       sodipodi:start="1.1861428"
       sodipodi:end="0.41985489"
       sodipodi:open="true" />
    <path
       sodipodi:type="arc"
       style="fill:none;stroke:#000000;stroke-width:0.35433078;stroke-miterlimit:4;stroke-dasharray:none;marker-start:url(#Arrow1Mstart)"
       id="path4809"
       sodipodi:cx="205.61603"
       sodipodi:cy="1028.3883"
       sodipodi:rx="4.9999318"
       sodipodi:ry="1.1242813"
       d="m 207.49219,1029.4304 a 4.9999318,1.1242813 0 0 1 -6.06873,-0.4295 4.9999318,1.1242813 0 0 1 0.71985,-1.4214 4.9999318,1.1242813 0 0 1 6.34286,-0.1118 4.9999318,1.1242813 0 0 1 1.69554,1.3789"
       sodipodi:start="1.1861428"
       sodipodi:end="0.41985489"
       sodipodi:open="true" />
    <path
       sodipodi:type="arc"
       style="fill:none;stroke:#000000;stroke-width:0.35433078;stroke-miterlimit:4;stroke-dasharray:none;marker-start:url(#Arrow1Mstart)"
       id="path4811"
       sodipodi:cx="191.18652"
       sodipodi:cy="1028.3883"
       sodipodi:rx="4.9999318"
       sodipodi:ry="1.1242813"
       d="m 193.06269,1029.4304 a 4.9999318,1.1242813 0 0 1 -6.06874,-0.4295 4.9999318,1.1242813 0 0 1 0.71986,-1.4214 4.9999318,1.1242813 0 0 1 6.34286,-0.1118 4.9999318,1.1242813 0 0 1 1.69553,1.3789"
       sodipodi:start="1.1861428"
       sodipodi:end="0.41985489"
       sodipodi:open="true" />
    <path
       sodipodi:type="arc"
       style="fill:none;stroke:#000000;stroke-width:0.35433078;stroke-miterlimit:4;stroke-dasharray:none;marker-start:url(#Arrow1Mstart)"
       id="path4813"
       sodipodi:cx="176.75703"
       sodipodi:cy="1028.3883"
       sodipodi:rx="4.9999318"
       sodipodi:ry="1.1242813"
       d="m 178.6332,1029.4304 a 4.9999318,1.1242813 0 0 1 -6.06873,-0.4295 4.9999318,1.1242813 0 0 1 0.71985,-1.4214 4.9999318,1.1242813 0 0 1 6.34286,-0.1118 4.9999318,1.1242813 0 0 1 1.69553,1.3789"
       sodipodi:start="1.1861428"
       sodipodi:end="0.41985489"
       sodipodi:open="true" />
    <path
       sodipodi:type="arc"
       style="fill:none;stroke:#000000;stroke-width:0.35433078;stroke-miterlimit:4;stroke-dasharray:none;marker-start:url(#Arrow1Mstart)"
       id="path4815"
       sodipodi:cx="162.32751"
       sodipodi:cy="1028.3883"
       sodipodi:rx="4.9999318"
       sodipodi:ry="1.1242813"
       d="m 164.20368,1029.4304 a 4.9999318,1.1242813 0 0 1 -6.06873,-0.4295 4.9999318,1.1242813 0 0 1 0.71985,-1.4214 4.9999318,1.1242813 0 0 1 6.34286,-0.1118 4.9999318,1.1242813 0 0 1 1.69553,1.3789"
       sodipodi:start="1.1861428"
       sodipodi:end="0.41985489"
       sodipodi:open="true" />
    <path
       sodipodi:type="arc"
       style="fill:none;stroke:#000000;stroke-width:0.35433078;stroke-miterlimit:4;stroke-dasharray:none;marker-start:url(#Arrow1Mstart)"
       id="path4817"
       sodipodi:cx="147.89803"
       sodipodi:cy="1028.3883"
       sodipodi:rx="4.9999318"
       sodipodi:ry="1.1242813"
       d="m 149.77419,1029.4304 a 4.9999318,1.1242813 0 0 1 -6.06873,-0.4295 4.9999318,1.1242813 0 0 1 0.71985,-1.4214 4.9999318,1.1242813 0 0 1 6.34286,-0.1118 4.9999318,1.1242813 0 0 1 1.69553,1.3789"
       sodipodi:start="1.1861428"
       sodipodi:end="0.41985489"
       sodipodi:open="true" />
    <path
       sodipodi:type="arc"
       style="fill:none;stroke:#000000;stroke-width:0.35433078;stroke-miterlimit:4;stroke-dasharray:none;marker-start:url(#Arrow1Mstart)"
       id="path4819"
       sodipodi:cx="133.46852"
       sodipodi:cy="1028.3883"
       sodipodi:rx="4.9999318"
       sodipodi:ry="1.1242813"
       d="m 135.34469,1029.4304 a 4.9999318,1.1242813 0 0 1 -6.06874,-0.4295 4.9999318,1.1242813 0 0 1 0.71986,-1.4214 4.9999318,1.1242813 0 0 1 6.34285,-0.1118 4.9999318,1.1242813 0 0 1 1.69554,1.3789"
       sodipodi:start="1.1861428"
       sodipodi:end="0.41985489"
       sodipodi:open="true" />
    <path
       sodipodi:type="arc"
       style="fill:none;stroke:#000000;stroke-width:0.35433078;stroke-miterlimit:4;stroke-dasharray:none;marker-start:url(#Arrow1Mstart)"
       id="path4821"
       sodipodi:cx="119.03901"
       sodipodi:cy="1028.3883"
       sodipodi:rx="4.9999318"
       sodipodi:ry="1.1242813"
       d="m 120.91517,1029.4304 a 4.9999318,1.1242813 0 0 1 -6.06873,-0.4295 4.9999318,1.1242813 0 0 1 0.71985,-1.4214 4.9999318,1.1242813 0 0 1 6.34286,-0.1118 4.9999318,1.1242813 0 0 1 1.69554,1.3789"
       sodipodi:start="1.1861428"
       sodipodi:end="0.41985489"
       sodipodi:open="true" />
    <path
       sodipodi:type="arc"
       style="fill:none;stroke:#000000;stroke-width:0.35433078;stroke-miterlimit:4;stroke-dasharray:none;marker-start:url(#Arrow1Mstart)"
       id="path4823"
       sodipodi:cx="104.6095"
       sodipodi:cy="1028.3883"
       sodipodi:rx="4.9999318"
       sodipodi:ry="1.1242813"
       d="m 106.48566,1029.4304 a 4.9999318,1.1242813 0 0 1 -6.06873,-0.4295 4.9999318,1.1242813 0 0 1 0.71985,-1.4214 4.9999318,1.1242813 0 0 1 6.34286,-0.1118 4.9999318,1.1242813 0 0 1 1.69554,1.3789"
       sodipodi:start="1.1861428"
       sodipodi:end="0.41985489"
       sodipodi:open="true" />
    <path
       sodipodi:type="arc"
       style="fill:none;stroke:#000000;stroke-width:0.35433078;stroke-miterlimit:4;stroke-dasharray:none;marker-start:url(#Arrow1Mstart)"
       id="path4825"
       sodipodi:cx="90.179993"
       sodipodi:cy="1028.3883"
       sodipodi:rx="4.9999318"
       sodipodi:ry="1.1242813"
       d="m 92.056157,1029.4304 a 4.9999318,1.1242813 0 0 1 -6.068733,-0.4295 4.9999318,1.1242813 0 0 1 0.719854,-1.4214 4.9999318,1.1242813 0 0 1 6.342858,-0.1118 4.9999318,1.1242813 0 0 1 1.695535,1.3789"
       sodipodi:start="1.1861428"
       sodipodi:end="0.41985489"
       sodipodi:open="true" />
    <path
       sodipodi:type="arc"
       style="fill:none;stroke:#000000;stroke-width:0.35433078;stroke-miterlimit:4;stroke-dasharray:none;marker-start:url(#Arrow1Mstart)"
       id="path4827"
       sodipodi:cx="75.750488"
       sodipodi:cy="1028.3883"
       sodipodi:rx="4.9999318"
       sodipodi:ry="1.1242813"
       d="m 77.626653,1029.4304 a 4.9999318,1.1242813 0 0 1 -6.068734,-0.4295 4.9999318,1.1242813 0 0 1 0.719855,-1.4214 4.9999318,1.1242813 0 0 1 6.342857,-0.1118 4.9999318,1.1242813 0 0 1 1.695536,1.3789"
       sodipodi:start="1.1861428"
       sodipodi:end="0.41985489"
       sodipodi:open="true" />
    <path
       sodipodi:type="arc"
       style="fill:none;stroke:#000000;stroke-width:0.35433078;stroke-miterlimit:4;stroke-dasharray:none;marker-start:url(#Arrow1Mstart)"
       id="path4829"
       sodipodi:cx="61.320992"
       sodipodi:cy="1028.3883"
       sodipodi:rx="4.9999318"
       sodipodi:ry="1.1242813"
       d="m 63.197156,1029.4304 a 4.9999318,1.1242813 0 0 1 -6.068733,-0.4295 4.9999318,1.1242813 0 0 1 0.719854,-1.4214 4.9999318,1.1242813 0 0 1 6.342857,-0.1118 4.9999318,1.1242813 0 0 1 1.695536,1.3789"
       sodipodi:start="1.1861428"
       sodipodi:end="0.41985489"
       sodipodi:open="true" />
    <path
       sodipodi:open="true"
       sodipodi:end="0.41985489"
       sodipodi:start="1.1861428"
       d="m 48.767648,1029.4304 a 4.9999318,1.1242813 0 0 1 -6.068734,-0.4295 4.9999318,1.1242813 0 0 1 0.719855,-1.4214 4.9999318,1.1242813 0 0 1 6.342857,-0.1118 4.9999318,1.1242813 0 0 1 1.695536,1.3789"
       sodipodi:ry="1.1242813"
       sodipodi:rx="4.9999318"
       sodipodi:cy="1028.3883"
       sodipodi:cx="46.891483"
       id="path4795"
       style="fill:none;stroke:#000000;stroke-width:0.35433078;stroke-miterlimit:4;stroke-dasharray:none;marker-start:url(#Arrow1Mstart)"
       sodipodi:type="arc" />
    <path
       sodipodi:open="true"
       sodipodi:end="0.41985489"
       sodipodi:start="1.1861428"
       d="m 302.36811,1036.4787 a 3.1478503,0.61471915 0 0 1 -3.82074,-0.2348 3.1478503,0.61471915 0 0 1 0.4532,-0.7772 3.1478503,0.61471915 0 0 1 3.99333,-0.061 3.1478503,0.61471915 0 0 1 1.06747,0.7539"
       sodipodi:ry="0.61471915"
       sodipodi:rx="3.1478503"
       sodipodi:cy="1035.9089"
       sodipodi:cx="301.18692"
       id="path4833"
       style="fill:none;stroke:#000000;stroke-width:0.17716537;stroke-miterlimit:4;stroke-dasharray:none;marker-start:url(#Arrow1Mstart)"
       sodipodi:type="arc" />
    <path
       sodipodi:open="true"
       sodipodi:end="0.41985489"
       sodipodi:start="1.1861428"
       d="m 295.24122,1036.4787 a 3.1478503,0.61471915 0 0 1 -3.82074,-0.2348 3.1478503,0.61471915 0 0 1 0.4532,-0.7772 3.1478503,0.61471915 0 0 1 3.99333,-0.061 3.1478503,0.61471915 0 0 1 1.06747,0.7539"
       sodipodi:ry="0.61471915"
       sodipodi:rx="3.1478503"
       sodipodi:cy="1035.9089"
       sodipodi:cx="294.06003"
       id="path4835"
       style="fill:none;stroke:#000000;stroke-width:0.17716537;stroke-miterlimit:4;stroke-dasharray:none;marker-start:url(#Arrow1Mstart)"
       sodipodi:type="arc" />
    <path
       sodipodi:open="true"
       sodipodi:end="0.41985489"
       sodipodi:start="1.1861428"
       d="m 288.11436,1036.4787 a 3.1478503,0.61471915 0 0 1 -3.82075,-0.2348 3.1478503,0.61471915 0 0 1 0.45321,-0.7772 3.1478503,0.61471915 0 0 1 3.99333,-0.061 3.1478503,0.61471915 0 0 1 1.06747,0.7539"
       sodipodi:ry="0.61471915"
       sodipodi:rx="3.1478503"
       sodipodi:cy="1035.9089"
       sodipodi:cx="286.93317"
       id="path4837"
       style="fill:none;stroke:#000000;stroke-width:0.17716537;stroke-miterlimit:4;stroke-dasharray:none;marker-start:url(#Arrow1Mstart)"
       sodipodi:type="arc" />
    <path
       sodipodi:open="true"
       sodipodi:end="0.41985489"
       sodipodi:start="1.1861428"
       d="m 280.9875,1036.4787 a 3.1478503,0.61471915 0 0 1 -3.82075,-0.2348 3.1478503,0.61471915 0 0 1 0.45321,-0.7772 3.1478503,0.61471915 0 0 1 3.99333,-0.061 3.1478503,0.61471915 0 0 1 1.06747,0.7539"
       sodipodi:ry="0.61471915"
       sodipodi:rx="3.1478503"
       sodipodi:cy="1035.9089"
       sodipodi:cx="279.8063"
       id="path4839"
       style="fill:none;stroke:#000000;stroke-width:0.17716537;stroke-miterlimit:4;stroke-dasharray:none;marker-start:url(#Arrow1Mstart)"
       sodipodi:type="arc" />
    <path
       sodipodi:open="true"
       sodipodi:end="0.41985489"
       sodipodi:start="1.1861428"
       d="m 273.86064,1036.4787 a 3.1478503,0.61471915 0 0 1 -3.82075,-0.2348 3.1478503,0.61471915 0 0 1 0.45321,-0.7772 3.1478503,0.61471915 0 0 1 3.99332,-0.061 3.1478503,0.61471915 0 0 1 1.06748,0.7539"
       sodipodi:ry="0.61471915"
       sodipodi:rx="3.1478503"
       sodipodi:cy="1035.9089"
       sodipodi:cx="272.67944"
       id="path4841"
       style="fill:none;stroke:#000000;stroke-width:0.17716537;stroke-miterlimit:4;stroke-dasharray:none;marker-start:url(#Arrow1Mstart)"
       sodipodi:type="arc" />
    <path
       sodipodi:type="arc"
       style="fill:none;stroke:#000000;stroke-width:0.17716537;stroke-miterlimit:4;stroke-dasharray:none;marker-start:url(#Arrow1Mstart)"
       id="path4831"
       sodipodi:cx="265.55258"
       sodipodi:cy="1035.9089"
       sodipodi:rx="3.1478503"
       sodipodi:ry="0.61471915"
       d="m 266.73377,1036.4787 a 3.1478503,0.61471915 0 0 1 -3.82074,-0.2348 3.1478503,0.61471915 0 0 1 0.45321,-0.7772 3.1478503,0.61471915 0 0 1 3.99332,-0.061 3.1478503,0.61471915 0 0 1 1.06748,0.7539"
       sodipodi:start="1.1861428"
       sodipodi:end="0.41985489"
       sodipodi:open="true" />
    <path
       sodipodi:open="true"
       sodipodi:end="0.41985489"
       sodipodi:start="1.1861428"
       d="m 259.60691,1036.4787 a 3.1478503,0.61471915 0 0 1 -3.82074,-0.2348 3.1478503,0.61471915 0 0 1 0.4532,-0.7772 3.1478503,0.61471915 0 0 1 3.99333,-0.061 3.1478503,0.61471915 0 0 1 1.06747,0.7539"
       sodipodi:ry="0.61471915"
       sodipodi:rx="3.1478503"
       sodipodi:cy="1035.9089"
       sodipodi:cx="258.42572"
       id="path4857"
       style="fill:none;stroke:#000000;stroke-width:0.17716537;stroke-miterlimit:4;stroke-dasharray:none;marker-start:url(#Arrow1Mstart)"
       sodipodi:type="arc" />
    <path
       sodipodi:open="true"
       sodipodi:end="0.41985489"
       sodipodi:start="1.1861428"
       d="m 209.71885,1036.4787 a 3.1478503,0.61471915 0 0 1 -3.82074,-0.2348 3.1478503,0.61471915 0 0 1 0.4532,-0.7772 3.1478503,0.61471915 0 0 1 3.99333,-0.061 3.1478503,0.61471915 0 0 1 1.06747,0.7539"
       sodipodi:ry="0.61471915"
       sodipodi:rx="3.1478503"
       sodipodi:cy="1035.9089"
       sodipodi:cx="208.53766"
       id="path4871"
       style="fill:none;stroke:#000000;stroke-width:0.17716537;stroke-miterlimit:4;stroke-dasharray:none;marker-start:url(#Arrow1Mstart)"
       sodipodi:type="arc" />
    <path
       sodipodi:open="true"
       sodipodi:end="0.41985489"
       sodipodi:start="1.1861428"
       d="m 159.83082,1036.4787 a 3.1478503,0.61471915 0 0 1 -3.82074,-0.2348 3.1478503,0.61471915 0 0 1 0.4532,-0.7772 3.1478503,0.61471915 0 0 1 3.99333,-0.061 3.1478503,0.61471915 0 0 1 1.06747,0.7539"
       sodipodi:ry="0.61471915"
       sodipodi:rx="3.1478503"
       sodipodi:cy="1035.9089"
       sodipodi:cx="158.64963"
       id="path4885"
       style="fill:none;stroke:#000000;stroke-width:0.17716537;stroke-miterlimit:4;stroke-dasharray:none;marker-start:url(#Arrow1Mstart)"
       sodipodi:type="arc" />
    <path
       sodipodi:open="true"
       sodipodi:end="0.41985489"
       sodipodi:start="1.1861428"
       d="m 109.94277,1036.4787 a 3.1478503,0.61471915 0 0 1 -3.82075,-0.2348 3.1478503,0.61471915 0 0 1 0.45321,-0.7772 3.1478503,0.61471915 0 0 1 3.99332,-0.061 3.1478503,0.61471915 0 0 1 1.06748,0.7539"
       sodipodi:ry="0.61471915"
       sodipodi:rx="3.1478503"
       sodipodi:cy="1035.9089"
       sodipodi:cx="108.76157"
       id="path4899"
       style="fill:none;stroke:#000000;stroke-width:0.17716537;stroke-miterlimit:4;stroke-dasharray:none;marker-start:url(#Arrow1Mstart)"
       sodipodi:type="arc" />
    <path
       sodipodi:open="true"
       sodipodi:end="0.41985489"
       sodipodi:start="1.1861428"
       d="m 60.054713,1036.4787 a 3.1478503,0.61471915 0 0 1 -3.820745,-0.2348 3.1478503,0.61471915 0 0 1 0.453205,-0.7772 3.1478503,0.61471915 0 0 1 3.993328,-0.061 3.1478503,0.61471915 0 0 1 1.067472,0.7539"
       sodipodi:ry="0.61471915"
       sodipodi:rx="3.1478503"
       sodipodi:cy="1035.9089"
       sodipodi:cx="58.87352"
       id="path4913"
       style="fill:none;stroke:#000000;stroke-width:0.17716537;stroke-miterlimit:4;stroke-dasharray:none;marker-start:url(#Arrow1Mstart)"
       sodipodi:type="arc" />
    <path
       sodipodi:open="true"
       sodipodi:end="0.41985489"
       sodipodi:start="1.1861428"
       d="m 252.48004,1036.4787 a 3.1478503,0.61471915 0 0 1 -3.82075,-0.2348 3.1478503,0.61471915 0 0 1 0.45321,-0.7772 3.1478503,0.61471915 0 0 1 3.99332,-0.061 3.1478503,0.61471915 0 0 1 1.06748,0.7539"
       sodipodi:ry="0.61471915"
       sodipodi:rx="3.1478503"
       sodipodi:cy="1035.9089"
       sodipodi:cx="251.29884"
       id="path4859"
       style="fill:none;stroke:#000000;stroke-width:0.17716537;stroke-miterlimit:4;stroke-dasharray:none;marker-start:url(#Arrow1Mstart)"
       sodipodi:type="arc" />
    <path
       sodipodi:open="true"
       sodipodi:end="0.41985489"
       sodipodi:start="1.1861428"
       d="m 202.59199,1036.4787 a 3.1478503,0.61471915 0 0 1 -3.82074,-0.2348 3.1478503,0.61471915 0 0 1 0.4532,-0.7772 3.1478503,0.61471915 0 0 1 3.99333,-0.061 3.1478503,0.61471915 0 0 1 1.06747,0.7539"
       sodipodi:ry="0.61471915"
       sodipodi:rx="3.1478503"
       sodipodi:cy="1035.9089"
       sodipodi:cx="201.4108"
       id="path4873"
       style="fill:none;stroke:#000000;stroke-width:0.17716537;stroke-miterlimit:4;stroke-dasharray:none;marker-start:url(#Arrow1Mstart)"
       sodipodi:type="arc" />
    <path
       sodipodi:open="true"
       sodipodi:end="0.41985489"
       sodipodi:start="1.1861428"
       d="m 152.70394,1036.4787 a 3.1478503,0.61471915 0 0 1 -3.82074,-0.2348 3.1478503,0.61471915 0 0 1 0.4532,-0.7772 3.1478503,0.61471915 0 0 1 3.99333,-0.061 3.1478503,0.61471915 0 0 1 1.06747,0.7539"
       sodipodi:ry="0.61471915"
       sodipodi:rx="3.1478503"
       sodipodi:cy="1035.9089"
       sodipodi:cx="151.52275"
       id="path4887"
       style="fill:none;stroke:#000000;stroke-width:0.17716537;stroke-miterlimit:4;stroke-dasharray:none;marker-start:url(#Arrow1Mstart)"
       sodipodi:type="arc" />
    <path
       sodipodi:open="true"
       sodipodi:end="0.41985489"
       sodipodi:start="1.1861428"
       d="m 102.81589,1036.4787 a 3.1478503,0.61471915 0 0 1 -3.820745,-0.2348 3.1478503,0.61471915 0 0 1 0.453205,-0.7772 3.1478503,0.61471915 0 0 1 3.99333,-0.061 3.1478503,0.61471915 0 0 1 1.06747,0.7539"
       sodipodi:ry="0.61471915"
       sodipodi:rx="3.1478503"
       sodipodi:cy="1035.9089"
       sodipodi:cx="101.6347"
       id="path4901"
       style="fill:none;stroke:#000000;stroke-width:0.17716537;stroke-miterlimit:4;stroke-dasharray:none;marker-start:url(#Arrow1Mstart)"
       sodipodi:type="arc" />
    <path
       sodipodi:open="true"
       sodipodi:end="0.41985489"
       sodipodi:start="1.1861428"
       d="m 52.927851,1036.4787 a 3.1478503,0.61471915 0 0 1 -3.820744,-0.2348 3.1478503,0.61471915 0 0 1 0.453205,-0.7772 3.1478503,0.61471915 0 0 1 3.993327,-0.061 3.1478503,0.61471915 0 0 1 1.067473,0.7539"
       sodipodi:ry="0.61471915"
       sodipodi:rx="3.1478503"
       sodipodi:cy="1035.9089"
       sodipodi:cx="51.746658"
       id="path4915"
       style="fill:none;stroke:#000000;stroke-width:0.17716537;stroke-miterlimit:4;stroke-dasharray:none;marker-start:url(#Arrow1Mstart)"
       sodipodi:type="arc" />
    <path
       sodipodi:open="true"
       sodipodi:end="0.41985489"
       sodipodi:start="1.1861428"
       d="m 245.35317,1036.4787 a 3.1478503,0.61471915 0 0 1 -3.82074,-0.2348 3.1478503,0.61471915 0 0 1 0.45321,-0.7772 3.1478503,0.61471915 0 0 1 3.99332,-0.061 3.1478503,0.61471915 0 0 1 1.06748,0.7539"
       sodipodi:ry="0.61471915"
       sodipodi:rx="3.1478503"
       sodipodi:cy="1035.9089"
       sodipodi:cx="244.17198"
       id="path4861"
       style="fill:none;stroke:#000000;stroke-width:0.17716537;stroke-miterlimit:4;stroke-dasharray:none;marker-start:url(#Arrow1Mstart)"
       sodipodi:type="arc" />
    <path
       sodipodi:open="true"
       sodipodi:end="0.41985489"
       sodipodi:start="1.1861428"
       d="m 195.46513,1036.4787 a 3.1478503,0.61471915 0 0 1 -3.82075,-0.2348 3.1478503,0.61471915 0 0 1 0.45321,-0.7772 3.1478503,0.61471915 0 0 1 3.99333,-0.061 3.1478503,0.61471915 0 0 1 1.06747,0.7539"
       sodipodi:ry="0.61471915"
       sodipodi:rx="3.1478503"
       sodipodi:cy="1035.9089"
       sodipodi:cx="194.28394"
       id="path4875"
       style="fill:none;stroke:#000000;stroke-width:0.17716537;stroke-miterlimit:4;stroke-dasharray:none;marker-start:url(#Arrow1Mstart)"
       sodipodi:type="arc" />
    <path
       sodipodi:open="true"
       sodipodi:end="0.41985489"
       sodipodi:start="1.1861428"
       d="m 145.57708,1036.4787 a 3.1478503,0.61471915 0 0 1 -3.82074,-0.2348 3.1478503,0.61471915 0 0 1 0.4532,-0.7772 3.1478503,0.61471915 0 0 1 3.99333,-0.061 3.1478503,0.61471915 0 0 1 1.06747,0.7539"
       sodipodi:ry="0.61471915"
       sodipodi:rx="3.1478503"
       sodipodi:cy="1035.9089"
       sodipodi:cx="144.39589"
       id="path4889"
       style="fill:none;stroke:#000000;stroke-width:0.17716537;stroke-miterlimit:4;stroke-dasharray:none;marker-start:url(#Arrow1Mstart)"
       sodipodi:type="arc" />
    <path
       sodipodi:open="true"
       sodipodi:end="0.41985489"
       sodipodi:start="1.1861428"
       d="m 95.689036,1036.4787 a 3.1478503,0.61471915 0 0 1 -3.820745,-0.2348 3.1478503,0.61471915 0 0 1 0.453205,-0.7772 3.1478503,0.61471915 0 0 1 3.993328,-0.061 3.1478503,0.61471915 0 0 1 1.067473,0.7539"
       sodipodi:ry="0.61471915"
       sodipodi:rx="3.1478503"
       sodipodi:cy="1035.9089"
       sodipodi:cx="94.507843"
       id="path4903"
       style="fill:none;stroke:#000000;stroke-width:0.17716537;stroke-miterlimit:4;stroke-dasharray:none;marker-start:url(#Arrow1Mstart)"
       sodipodi:type="arc" />
    <path
       sodipodi:open="true"
       sodipodi:end="0.41985489"
       sodipodi:start="1.1861428"
       d="m 45.800986,1036.4787 a 3.1478503,0.61471915 0 0 1 -3.820745,-0.2348 3.1478503,0.61471915 0 0 1 0.453205,-0.7772 3.1478503,0.61471915 0 0 1 3.993328,-0.061 3.1478503,0.61471915 0 0 1 1.067472,0.7539"
       sodipodi:ry="0.61471915"
       sodipodi:rx="3.1478503"
       sodipodi:cy="1035.9089"
       sodipodi:cx="44.619793"
       id="path4917"
       style="fill:none;stroke:#000000;stroke-width:0.17716537;stroke-miterlimit:4;stroke-dasharray:none;marker-start:url(#Arrow1Mstart)"
       sodipodi:type="arc" />
    <path
       sodipodi:open="true"
       sodipodi:end="0.41985489"
       sodipodi:start="1.1861428"
       d="m 238.22631,1036.4787 a 3.1478503,0.61471915 0 0 1 -3.82074,-0.2348 3.1478503,0.61471915 0 0 1 0.4532,-0.7772 3.1478503,0.61471915 0 0 1 3.99333,-0.061 3.1478503,0.61471915 0 0 1 1.06747,0.7539"
       sodipodi:ry="0.61471915"
       sodipodi:rx="3.1478503"
       sodipodi:cy="1035.9089"
       sodipodi:cx="237.04512"
       id="path4863"
       style="fill:none;stroke:#000000;stroke-width:0.17716537;stroke-miterlimit:4;stroke-dasharray:none;marker-start:url(#Arrow1Mstart)"
       sodipodi:type="arc" />
    <path
       sodipodi:open="true"
       sodipodi:end="0.41985489"
       sodipodi:start="1.1861428"
       d="m 188.33825,1036.4787 a 3.1478503,0.61471915 0 0 1 -3.82074,-0.2348 3.1478503,0.61471915 0 0 1 0.4532,-0.7772 3.1478503,0.61471915 0 0 1 3.99333,-0.061 3.1478503,0.61471915 0 0 1 1.06747,0.7539"
       sodipodi:ry="0.61471915"
       sodipodi:rx="3.1478503"
       sodipodi:cy="1035.9089"
       sodipodi:cx="187.15706"
       id="path4877"
       style="fill:none;stroke:#000000;stroke-width:0.17716537;stroke-miterlimit:4;stroke-dasharray:none;marker-start:url(#Arrow1Mstart)"
       sodipodi:type="arc" />
    <path
       sodipodi:open="true"
       sodipodi:end="0.41985489"
       sodipodi:start="1.1861428"
       d="m 138.45022,1036.4787 a 3.1478503,0.61471915 0 0 1 -3.82074,-0.2348 3.1478503,0.61471915 0 0 1 0.4532,-0.7772 3.1478503,0.61471915 0 0 1 3.99333,-0.061 3.1478503,0.61471915 0 0 1 1.06747,0.7539"
       sodipodi:ry="0.61471915"
       sodipodi:rx="3.1478503"
       sodipodi:cy="1035.9089"
       sodipodi:cx="137.26903"
       id="path4891"
       style="fill:none;stroke:#000000;stroke-width:0.17716537;stroke-miterlimit:4;stroke-dasharray:none;marker-start:url(#Arrow1Mstart)"
       sodipodi:type="arc" />
    <path
       sodipodi:open="true"
       sodipodi:end="0.41985489"
       sodipodi:start="1.1861428"
       d="m 88.562174,1036.4787 a 3.1478503,0.61471915 0 0 1 -3.820744,-0.2348 3.1478503,0.61471915 0 0 1 0.453205,-0.7772 3.1478503,0.61471915 0 0 1 3.993327,-0.061 3.1478503,0.61471915 0 0 1 1.067473,0.7539"
       sodipodi:ry="0.61471915"
       sodipodi:rx="3.1478503"
       sodipodi:cy="1035.9089"
       sodipodi:cx="87.380981"
       id="path4905"
       style="fill:none;stroke:#000000;stroke-width:0.17716537;stroke-miterlimit:4;stroke-dasharray:none;marker-start:url(#Arrow1Mstart)"
       sodipodi:type="arc" />
    <path
       sodipodi:open="true"
       sodipodi:end="0.41985489"
       sodipodi:start="1.1861428"
       d="m 231.09945,1036.4787 a 3.1478503,0.61471915 0 0 1 -3.82074,-0.2348 3.1478503,0.61471915 0 0 1 0.4532,-0.7772 3.1478503,0.61471915 0 0 1 3.99333,-0.061 3.1478503,0.61471915 0 0 1 1.06747,0.7539"
       sodipodi:ry="0.61471915"
       sodipodi:rx="3.1478503"
       sodipodi:cy="1035.9089"
       sodipodi:cx="229.91826"
       id="path4865"
       style="fill:none;stroke:#000000;stroke-width:0.17716537;stroke-miterlimit:4;stroke-dasharray:none;marker-start:url(#Arrow1Mstart)"
       sodipodi:type="arc" />
    <path
       sodipodi:open="true"
       sodipodi:end="0.41985489"
       sodipodi:start="1.1861428"
       d="m 181.21139,1036.4787 a 3.1478503,0.61471915 0 0 1 -3.82074,-0.2348 3.1478503,0.61471915 0 0 1 0.4532,-0.7772 3.1478503,0.61471915 0 0 1 3.99333,-0.061 3.1478503,0.61471915 0 0 1 1.06747,0.7539"
       sodipodi:ry="0.61471915"
       sodipodi:rx="3.1478503"
       sodipodi:cy="1035.9089"
       sodipodi:cx="180.0302"
       id="path4879"
       style="fill:none;stroke:#000000;stroke-width:0.17716537;stroke-miterlimit:4;stroke-dasharray:none;marker-start:url(#Arrow1Mstart)"
       sodipodi:type="arc" />
    <path
       sodipodi:open="true"
       sodipodi:end="0.41985489"
       sodipodi:start="1.1861428"
       d="m 131.32336,1036.4787 a 3.1478503,0.61471915 0 0 1 -3.82075,-0.2348 3.1478503,0.61471915 0 0 1 0.45321,-0.7772 3.1478503,0.61471915 0 0 1 3.99333,-0.061 3.1478503,0.61471915 0 0 1 1.06747,0.7539"
       sodipodi:ry="0.61471915"
       sodipodi:rx="3.1478503"
       sodipodi:cy="1035.9089"
       sodipodi:cx="130.14217"
       id="path4893"
       style="fill:none;stroke:#000000;stroke-width:0.17716537;stroke-miterlimit:4;stroke-dasharray:none;marker-start:url(#Arrow1Mstart)"
       sodipodi:type="arc" />
    <path
       sodipodi:open="true"
       sodipodi:end="0.41985489"
       sodipodi:start="1.1861428"
       d="m 81.435305,1036.4787 a 3.1478503,0.61471915 0 0 1 -3.820745,-0.2348 3.1478503,0.61471915 0 0 1 0.453205,-0.7772 3.1478503,0.61471915 0 0 1 3.993328,-0.061 3.1478503,0.61471915 0 0 1 1.067473,0.7539"
       sodipodi:ry="0.61471915"
       sodipodi:rx="3.1478503"
       sodipodi:cy="1035.9089"
       sodipodi:cx="80.254112"
       id="path4907"
       style="fill:none;stroke:#000000;stroke-width:0.17716537;stroke-miterlimit:4;stroke-dasharray:none;marker-start:url(#Arrow1Mstart)"
       sodipodi:type="arc" />
    <path
       sodipodi:open="true"
       sodipodi:end="0.41985489"
       sodipodi:start="1.1861428"
       d="m 216.84573,1036.4787 a 3.1478503,0.61471915 0 0 1 -3.82075,-0.2348 3.1478503,0.61471915 0 0 1 0.45321,-0.7772 3.1478503,0.61471915 0 0 1 3.99333,-0.061 3.1478503,0.61471915 0 0 1 1.06747,0.7539"
       sodipodi:ry="0.61471915"
       sodipodi:rx="3.1478503"
       sodipodi:cy="1035.9089"
       sodipodi:cx="215.66454"
       id="path4867"
       style="fill:none;stroke:#000000;stroke-width:0.17716537;stroke-miterlimit:4;stroke-dasharray:none;marker-start:url(#Arrow1Mstart)"
       sodipodi:type="arc" />
    <path
       sodipodi:open="true"
       sodipodi:end="0.41985489"
       sodipodi:start="1.1861428"
       d="m 174.08453,1036.4787 a 3.1478503,0.61471915 0 0 1 -3.82075,-0.2348 3.1478503,0.61471915 0 0 1 0.45321,-0.7772 3.1478503,0.61471915 0 0 1 3.99333,-0.061 3.1478503,0.61471915 0 0 1 1.06747,0.7539"
       sodipodi:ry="0.61471915"
       sodipodi:rx="3.1478503"
       sodipodi:cy="1035.9089"
       sodipodi:cx="172.90334"
       id="path4881"
       style="fill:none;stroke:#000000;stroke-width:0.17716537;stroke-miterlimit:4;stroke-dasharray:none;marker-start:url(#Arrow1Mstart)"
       sodipodi:type="arc" />
    <path
       sodipodi:open="true"
       sodipodi:end="0.41985489"
       sodipodi:start="1.1861428"
       d="m 124.19649,1036.4787 a 3.1478503,0.61471915 0 0 1 -3.82074,-0.2348 3.1478503,0.61471915 0 0 1 0.4532,-0.7772 3.1478503,0.61471915 0 0 1 3.99333,-0.061 3.1478503,0.61471915 0 0 1 1.06747,0.7539"
       sodipodi:ry="0.61471915"
       sodipodi:rx="3.1478503"
       sodipodi:cy="1035.9089"
       sodipodi:cx="123.0153"
       id="path4895"
       style="fill:none;stroke:#000000;stroke-width:0.17716537;stroke-miterlimit:4;stroke-dasharray:none;marker-start:url(#Arrow1Mstart)"
       sodipodi:type="arc" />
    <path
       sodipodi:open="true"
       sodipodi:end="0.41985489"
       sodipodi:start="1.1861428"
       d="m 67.181575,1036.4787 a 3.1478503,0.61471915 0 0 1 -3.820745,-0.2348 3.1478503,0.61471915 0 0 1 0.453205,-0.7772 3.1478503,0.61471915 0 0 1 3.993327,-0.061 3.1478503,0.61471915 0 0 1 1.067473,0.7539"
       sodipodi:ry="0.61471915"
       sodipodi:rx="3.1478503"
       sodipodi:cy="1035.9089"
       sodipodi:cx="66.000381"
       id="path4909"
       style="fill:none;stroke:#000000;stroke-width:0.17716537;stroke-miterlimit:4;stroke-dasharray:none;marker-start:url(#Arrow1Mstart)"
       sodipodi:type="arc" />
    <path
       sodipodi:type="arc"
       style="fill:none;stroke:#000000;stroke-width:0.17716537;stroke-miterlimit:4;stroke-dasharray:none;marker-start:url(#Arrow1Mstart)"
       id="path4869"
       sodipodi:cx="222.7914"
       sodipodi:cy="1035.9089"
       sodipodi:rx="3.1478503"
       sodipodi:ry="0.61471915"
       d="m 223.97259,1036.4787 a 3.1478503,0.61471915 0 0 1 -3.82074,-0.2348 3.1478503,0.61471915 0 0 1 0.4532,-0.7772 3.1478503,0.61471915 0 0 1 3.99333,-0.061 3.1478503,0.61471915 0 0 1 1.06747,0.7539"
       sodipodi:start="1.1861428"
       sodipodi:end="0.41985489"
       sodipodi:open="true" />
    <path
       sodipodi:type="arc"
       style="fill:none;stroke:#000000;stroke-width:0.17716537;stroke-miterlimit:4;stroke-dasharray:none;marker-start:url(#Arrow1Mstart)"
       id="path4883"
       sodipodi:cx="165.77649"
       sodipodi:cy="1035.9089"
       sodipodi:rx="3.1478503"
       sodipodi:ry="0.61471915"
       d="m 166.95768,1036.4787 a 3.1478503,0.61471915 0 0 1 -3.82074,-0.2348 3.1478503,0.61471915 0 0 1 0.4532,-0.7772 3.1478503,0.61471915 0 0 1 3.99333,-0.061 3.1478503,0.61471915 0 0 1 1.06747,0.7539"
       sodipodi:start="1.1861428"
       sodipodi:end="0.41985489"
       sodipodi:open="true" />
    <path
       sodipodi:type="arc"
       style="fill:none;stroke:#000000;stroke-width:0.17716537;stroke-miterlimit:4;stroke-dasharray:none;marker-start:url(#Arrow1Mstart)"
       id="path4897"
       sodipodi:cx="115.88844"
       sodipodi:cy="1035.9089"
       sodipodi:rx="3.1478503"
       sodipodi:ry="0.61471915"
       d="m 117.06964,1036.4787 a 3.1478503,0.61471915 0 0 1 -3.82075,-0.2348 3.1478503,0.61471915 0 0 1 0.45321,-0.7772 3.1478503,0.61471915 0 0 1 3.99332,-0.061 3.1478503,0.61471915 0 0 1 1.06748,0.7539"
       sodipodi:start="1.1861428"
       sodipodi:end="0.41985489"
       sodipodi:open="true" />
    <path
       sodipodi:type="arc"
       style="fill:none;stroke:#000000;stroke-width:0.17716537;stroke-miterlimit:4;stroke-dasharray:none;marker-start:url(#Arrow1Mstart)"
       id="path4911"
       sodipodi:cx="73.127251"
       sodipodi:cy="1035.9089"
       sodipodi:rx="3.1478503"
       sodipodi:ry="0.61471915"
       d="m 74.308444,1036.4787 a 3.1478503,0.61471915 0 0 1 -3.820745,-0.2348 3.1478503,0.61471915 0 0 1 0.453205,-0.7772 3.1478503,0.61471915 0 0 1 3.993327,-0.061 3.1478503,0.61471915 0 0 1 1.067473,0.7539"
       sodipodi:start="1.1861428"
       sodipodi:end="0.41985489"
       sodipodi:open="true" />
    <rect
       style="fill:#4d4d4d;fill-opacity:1;fill-rule:evenodd;stroke:#000000;stroke-width:1.00275588;stroke-linecap:round;stroke-linejoin:round;stroke-miterlimit:4;stroke-dasharray:none;stroke-dashoffset:0;stroke-opacity:1"
       id="rect4927"
       width="14.173229"
       height="48.840725"
       x="170.07874"
       y="889.73053" />
  </g>
</svg>
