<?xml version="1.0" encoding="UTF-8" standalone="no"?>
<!-- Created with Inkscape (http://www.inkscape.org/) -->

<svg
   xmlns:ns0="http://www.iki.fi/pav/software/textext/"
   xmlns:dc="http://purl.org/dc/elements/1.1/"
   xmlns:cc="http://creativecommons.org/ns#"
   xmlns:rdf="http://www.w3.org/1999/02/22-rdf-syntax-ns#"
   xmlns:svg="http://www.w3.org/2000/svg"
   xmlns="http://www.w3.org/2000/svg"
   xmlns:xlink="http://www.w3.org/1999/xlink"
   xmlns:sodipodi="http://sodipodi.sourceforge.net/DTD/sodipodi-0.dtd"
   xmlns:inkscape="http://www.inkscape.org/namespaces/inkscape"
   width="265.74802"
   height="230.31496"
   id="svg3041"
   version="1.1"
   inkscape:version="0.48.2 r9819"
   sodipodi:docname="driehoek_uit_stilstaande_vloeistof.svg">
  <sodipodi:namedview
     id="base"
     pagecolor="#ffffff"
     bordercolor="#666666"
     borderopacity="1.0"
     inkscape:pageopacity="0.0"
     inkscape:pageshadow="2"
     inkscape:zoom="1.979899"
     inkscape:cx="42.918494"
     inkscape:cy="114.57556"
     inkscape:document-units="mm"
     inkscape:current-layer="layer1"
     showgrid="false"
     inkscape:window-width="1366"
     inkscape:window-height="706"
     inkscape:window-x="-8"
     inkscape:window-y="-8"
     inkscape:window-maximized="1"
     units="mm"
     inkscape:snap-bbox="true"
     inkscape:object-paths="false">
    <inkscape:grid
       type="xygrid"
       id="grid2992"
       empspacing="5"
       visible="true"
       enabled="true"
       snapvisiblegridlinesonly="true"
       units="mm"
       spacingx="1mm"
       spacingy="1mm" />
  </sodipodi:namedview>
  <defs
     id="defs3043">
    <marker
       inkscape:stockid="Arrow1Mstart"
       orient="auto"
       refY="0.0"
       refX="0.0"
       id="Arrow1Mstart"
       style="overflow:visible">
      <path
         id="path6290"
         d="M 0.0,0.0 L 5.0,-5.0 L -12.5,0.0 L 5.0,5.0 L 0.0,0.0 z "
         style="fill-rule:evenodd;stroke:#000000;stroke-width:1.0pt;marker-start:none"
         transform="scale(0.4) translate(10,0)" />
    </marker>
    <linearGradient
       id="linearGradient6221">
      <stop
         style="stop-color:#cccccc;stop-opacity:1;"
         offset="0"
         id="stop6223" />
      <stop
         style="stop-color:#cccccc;stop-opacity:0.58823532;"
         offset="1"
         id="stop6225" />
    </linearGradient>
    <marker
       inkscape:stockid="Arrow1Mend"
       orient="auto"
       refY="0"
       refX="0"
       id="Arrow1Mend"
       style="overflow:visible">
      <path
         id="path3773"
         d="M 0,0 5,-5 -12.5,0 5,5 0,0 z"
         style="fill-rule:evenodd;stroke:#000000;stroke-width:1pt;marker-start:none"
         transform="matrix(-0.4,0,0,-0.4,-4,0)"
         inkscape:connector-curvature="0" />
    </marker>
    <linearGradient
       inkscape:collect="always"
       xlink:href="#linearGradient6221"
       id="linearGradient6227"
       x1="141.73228"
       y1="354.33069"
       x2="141.73228"
       y2="124.01572"
       gradientUnits="userSpaceOnUse"
       gradientTransform="matrix(1,0,0,0.94119673,-10,716.68112)" />
  </defs>
  <metadata
     id="metadata3046">
    <rdf:RDF>
      <cc:Work
         rdf:about="">
        <dc:format>image/svg+xml</dc:format>
        <dc:type
           rdf:resource="http://purl.org/dc/dcmitype/StillImage" />
        <dc:title />
      </cc:Work>
    </rdf:RDF>
  </metadata>
  <g
     inkscape:label="Laag 1"
     inkscape:groupmode="layer"
     id="layer1"
     transform="translate(0,-822.04718)">
    <path
       style="fill:url(#linearGradient6227);fill-opacity:1;stroke:none"
       d="m 7.716535,833.40433 248.031495,0 c 0,0 5.05076,77.3401 0,116.72321 -3.53846,27.59098 3.03046,93.35666 3.03046,93.35666 0,0 -103.14035,5.7841 -144.2188,1.4261 -40.328431,-4.2784 -105.833002,-3.3276 -105.833002,-3.3276 0,0 -5.66678,-75.06966 -1.010153,-108.1299 6.187185,-43.92661 0,-100.04847 0,-100.04847 z"
       id="path6203"
       inkscape:connector-curvature="0"
       sodipodi:nodetypes="ccscscsc" />
    <g
       id="g5106"
       transform="matrix(0.96592583,0.25881905,-0.25881905,0.96592583,243.81153,1.7094441)">
      <g
         transform="translate(-53.149604,70.866137)"
         id="g5098">
        <path
           style="fill:#cccccc;stroke:#000000;stroke-width:0.70866144;stroke-linecap:butt;stroke-linejoin:miter;stroke-miterlimit:4;stroke-opacity:1;stroke-dasharray:none"
           d="m 106.29921,910.62986 159.44882,0 -159.44882,-88.58268 z"
           id="path4548"
           inkscape:connector-curvature="0" />
        <path
           inkscape:transform-center-y="20.061085"
           inkscape:transform-center-x="10.974612"
           inkscape:connector-curvature="0"
           id="path4391"
           d="m 209.21788,825.32986 -21.4226,39.237"
           style="fill:none;stroke:#000000;stroke-width:1.41732287;stroke-linecap:butt;stroke-linejoin:miter;stroke-miterlimit:4;stroke-opacity:1;stroke-dasharray:none;marker-end:url(#Arrow1Mend)" />
        <path
           style="fill:none;stroke:#000000;stroke-width:1.41732287;stroke-linecap:butt;stroke-linejoin:miter;stroke-miterlimit:4;stroke-opacity:1;stroke-dasharray:none;marker-end:url(#Arrow1Mend)"
           d="m 184.25197,967.32277 0,-53.14961"
           id="path5094"
           inkscape:connector-curvature="0"
           inkscape:transform-center-x="-10.974611"
           inkscape:transform-center-y="-20.061089"
           sodipodi:nodetypes="cc" />
        <path
           sodipodi:nodetypes="cc"
           inkscape:transform-center-y="10.974612"
           inkscape:transform-center-x="-13.439783"
           inkscape:connector-curvature="0"
           id="path5096"
           d="m 67.62612,868.11017 35.12979,0"
           style="fill:none;stroke:#000000;stroke-width:1.41732287;stroke-linecap:butt;stroke-linejoin:miter;stroke-miterlimit:4;stroke-opacity:1;stroke-dasharray:none;marker-end:url(#Arrow1Mend)" />
      </g>
      <path
         transform="translate(0,698.03145)"
         inkscape:connector-curvature="0"
         id="path5104"
         d="m 56.692913,269.29132 0,10.62992 10.629922,0"
         style="fill:none;stroke:#000000;stroke-width:1px;stroke-linecap:butt;stroke-linejoin:miter;stroke-opacity:1" />
    </g>
    <g
       id="g6251"
       transform="translate(0,9.21429)">
      <path
         inkscape:connector-curvature="0"
         id="path6205"
         d="m 7.716535,824.19004 248.031485,0"
         style="fill:none;stroke:#000000;stroke-width:0.70866144;stroke-linecap:butt;stroke-linejoin:miter;stroke-miterlimit:4;stroke-opacity:1;stroke-dasharray:none" />
      <path
         inkscape:connector-curvature="0"
         id="path6207"
         d="m 202.59843,827.73334 53.1496,0"
         style="fill:none;stroke:#000000;stroke-width:0.35433072;stroke-linecap:butt;stroke-linejoin:miter;stroke-miterlimit:4;stroke-opacity:1;stroke-dasharray:none" />
      <path
         style="fill:none;stroke:#000000;stroke-width:0.35433072;stroke-linecap:butt;stroke-linejoin:miter;stroke-miterlimit:4;stroke-opacity:1;stroke-dasharray:none"
         d="m 220.31496,831.27665 35.43307,0"
         id="path6209"
         inkscape:connector-curvature="0" />
      <path
         inkscape:connector-curvature="0"
         id="path6211"
         d="m 238.03149,834.81996 17.71654,0"
         style="fill:none;stroke:#000000;stroke-width:0.35433072;stroke-linecap:butt;stroke-linejoin:miter;stroke-miterlimit:4;stroke-opacity:1;stroke-dasharray:none" />
    </g>
    <path
       sodipodi:type="arc"
       style="fill:none;stroke:#000000;stroke-width:0.46378481;stroke-miterlimit:4;stroke-dasharray:none;marker-start:url(#Arrow1Mstart);marker-end:url(#Arrow1Mend)"
       id="path6946"
       sodipodi:cx="215.35715"
       sodipodi:cy="175.49353"
       sodipodi:rx="23.035715"
       sodipodi:ry="23.035715"
       d="m 193.19001,169.22757 c 0.87051,-3.0796 2.37315,-5.94403 4.41212,-8.41067"
       transform="matrix(1.5439449,0,0,1.5122121,-136.4684,738.36166)"
       sodipodi:start="3.4170744"
       sodipodi:end="3.8323552"
       sodipodi:open="true"
       inkscape:transform-center-x="31.526754"
       inkscape:transform-center-y="-16.942667" />
    <g
       style="font-style:normal;font-variant:normal;font-weight:normal;font-stretch:normal;letter-spacing:normal;word-spacing:normal;text-anchor:start;fill:none;stroke:#000000;stroke-linecap:butt;stroke-linejoin:miter;stroke-miterlimit:10.43299961;stroke-opacity:1;stroke-dasharray:none;stroke-dashoffset:0"
       id="content"
       transform="matrix(1.25,0,0,-1.25,-258.92857,1793.2143)"
       xml:space="preserve"
       stroke-miterlimit="10.433"
       font-style="normal"
       font-variant="normal"
       font-weight="normal"
       font-stretch="normal"
       font-size-adjust="none"
       letter-spacing="normal"
       word-spacing="normal"
       ns0:text="$\\vt{F}_B$"
       ns0:preamble="D:\\Onderwijs\\FLUI\\Cursus\\FLUI_theorie\\tex\\commands.tex">
<path
   style="fill:#000000;stroke-width:0"
   inkscape:connector-curvature="0"
   d="m 227.07,710.27 h 0.65 c 0.6,0 0.77,-0.1 0.77,-0.42 0,-0.11 -0.03,-0.3 -0.06,-0.42 -0.02,-0.07 -0.03,-0.12 -0.03,-0.14 0,-0.15 0.13,-0.18 0.23,-0.18 0.19,0 0.19,0.06 0.24,0.24 l 0.56,2.22 c 0.04,0.13 0.04,0.14 0.04,0.15 0,0.18 -0.2,0.18 -0.24,0.18 -0.19,0 -0.21,-0.07 -0.26,-0.25 -0.2,-0.76 -0.5,-0.91 -1.22,-0.91 h -0.56 l 0.66,2.65 c 0.13,0.02 0.24,0.02 0.34,0.02 h 1.18 c 1.14,0 1.48,-0.28 1.48,-1.16 0,-0.24 -0.04,-0.54 -0.04,-0.58 0,-0.18 0.19,-0.18 0.24,-0.18 0.21,0 0.22,0.1 0.24,0.27 l 0.18,1.78 0.01,0.16 c 0,0.18 -0.17,0.18 -0.33,0.18 h -5.35 c -0.21,0 -0.22,-0.01 -0.27,-0.05 -0.07,-0.05 -0.09,-0.23 -0.09,-0.24 0,-0.18 0.14,-0.18 0.41,-0.18 0.21,0 0.4,-0.01 0.61,-0.02 l -1.41,-5.6 c -0.04,-0.16 -0.05,-0.17 -0.23,-0.19 -0.16,-0.01 -0.36,-0.01 -0.52,-0.01 -0.26,0 -0.28,0 -0.32,-0.02 -0.12,-0.07 -0.12,-0.23 -0.12,-0.27 0,-0.01 0,-0.17 0.22,-0.17 0.25,0 0.51,0.02 0.76,0.02 0.26,0 0.53,0.01 0.8,0.01 0.3,0 0.6,-0.01 0.9,-0.01 0.28,0 0.57,-0.02 0.85,-0.02 0.12,0 0.3,0 0.3,0.28 0,0.18 -0.17,0.18 -0.33,0.18 h -0.33 c -0.37,0 -0.52,0.02 -0.62,0.04 z"
   id="path3050" />
<path
   style="fill:#000000;stroke-width:0"
   inkscape:connector-curvature="0"
   d="m 233.21,706.17 -0.01,-0.02 0,-0.02 -0.01,-0.02 0,-0.02 -0.01,-0.01 0,-0.02 -0.01,-0.02 -0.01,-0.01 0,-0.02 -0.01,-0.01 -0.01,-0.01 -0.01,-0.01 -0.01,-0.01 -0.01,-0.01 -0.02,-0.01 -0.01,-0.01 -0.01,-0.01 -0.02,-0.01 -0.02,0 -0.02,-0.01 -0.02,0 -0.01,-0.01 -0.02,0 -0.01,0 -0.01,0 -0.02,0 -0.01,-0.01 -0.02,0 -0.01,0 -0.02,0 -0.01,0 -0.02,0 -0.02,0 -0.02,-0.01 -0.02,0 -0.02,0 -0.02,0 -0.02,0 -0.02,0 -0.02,0 -0.03,0 -0.02,0 -0.02,0 c -0.12,0 -0.21,0 -0.21,-0.15 0,-0.1 0.08,-0.1 0.21,-0.1 h 2.69 c 1.17,0 2.07,0.8 2.07,1.49 0,0.49 -0.45,0.92 -1.19,0.99 0.84,0.16 1.54,0.68 1.54,1.28 0,0.53 -0.53,0.99 -1.44,0.99 l -0.11,-0.25 c 0.71,0 0.87,-0.47 0.87,-0.73 0,-0.56 -0.63,-1.2 -1.56,-1.2 h -1.15 l -0.05,-0.2 h 1.48 c 0.66,0 0.91,-0.43 0.91,-0.83 0,-0.69 -0.71,-1.29 -1.55,-1.29 h -1.12 c -0.22,0 -0.22,0.01 -0.22,0.07 0,0.01 0,0.04 0.02,0.15 l 0.48,1.9 0.05,0.2 0.43,1.69 c 0.05,0.22 0.06,0.24 0.35,0.24 h 1.06 l 0.11,0.25 h -2.53 c -0.13,0 -0.22,0 -0.22,-0.15 0,-0.1 0.08,-0.1 0.22,-0.1 0.01,0 0.14,0 0.26,-0.01 0.15,-0.02 0.16,-0.03 0.16,-0.1 0,-0.01 0,-0.05 -0.02,-0.15 z"
   id="path3052" />
</g>    <g
       style="font-style:normal;font-variant:normal;font-weight:normal;font-stretch:normal;letter-spacing:normal;word-spacing:normal;text-anchor:start;fill:none;stroke:#000000;stroke-linecap:butt;stroke-linejoin:miter;stroke-miterlimit:10.43299961;stroke-opacity:1;stroke-dasharray:none;stroke-dashoffset:0"
       ns0:preamble="D:\\Onderwijs\\FLUI\\Cursus\\FLUI_theorie\\tex\\commands.tex"
       ns0:text="$\\vt{F}_C$"
       word-spacing="normal"
       letter-spacing="normal"
       font-size-adjust="none"
       font-stretch="normal"
       font-weight="normal"
       font-variant="normal"
       font-style="normal"
       stroke-miterlimit="10.433"
       xml:space="preserve"
       transform="matrix(1.25,0,0,-1.25,-113.92857,1802.5)"
       id="g3134">
<path
   id="path3136"
   d="m 227.07,710.27 h 0.65 c 0.6,0 0.77,-0.1 0.77,-0.42 0,-0.11 -0.03,-0.3 -0.06,-0.42 -0.02,-0.07 -0.03,-0.12 -0.03,-0.14 0,-0.15 0.13,-0.18 0.23,-0.18 0.19,0 0.19,0.06 0.24,0.24 l 0.56,2.22 c 0.04,0.13 0.04,0.14 0.04,0.15 0,0.18 -0.2,0.18 -0.24,0.18 -0.19,0 -0.21,-0.07 -0.26,-0.25 -0.2,-0.76 -0.5,-0.91 -1.22,-0.91 h -0.56 l 0.66,2.65 c 0.13,0.02 0.24,0.02 0.34,0.02 h 1.18 c 1.14,0 1.48,-0.28 1.48,-1.16 0,-0.24 -0.04,-0.54 -0.04,-0.58 0,-0.18 0.19,-0.18 0.24,-0.18 0.21,0 0.22,0.1 0.24,0.27 l 0.18,1.78 0.01,0.16 c 0,0.18 -0.17,0.18 -0.33,0.18 h -5.35 c -0.21,0 -0.22,-0.01 -0.27,-0.05 -0.07,-0.05 -0.09,-0.23 -0.09,-0.24 0,-0.18 0.14,-0.18 0.41,-0.18 0.21,0 0.4,-0.01 0.61,-0.02 l -1.41,-5.6 c -0.04,-0.16 -0.05,-0.17 -0.23,-0.19 -0.16,-0.01 -0.36,-0.01 -0.52,-0.01 -0.26,0 -0.28,0 -0.32,-0.02 -0.12,-0.07 -0.12,-0.23 -0.12,-0.27 0,-0.01 0,-0.17 0.22,-0.17 0.25,0 0.51,0.02 0.76,0.02 0.26,0 0.53,0.01 0.8,0.01 0.3,0 0.6,-0.01 0.9,-0.01 0.28,0 0.57,-0.02 0.85,-0.02 0.12,0 0.3,0 0.3,0.28 0,0.18 -0.17,0.18 -0.33,0.18 h -0.33 c -0.37,0 -0.52,0.02 -0.62,0.04 z"
   inkscape:connector-curvature="0"
   style="fill:#000000;stroke-width:0" />
<path
   id="path3138"
   d="m 237.76,710.43 0,0 0,0.01 0,0 0,0 0,0.01 -0.01,0 0,0 0,0.01 0,0 0,0.01 0,0 0,0 -0.01,0.01 0,0 0,0 0,0.01 0,0 -0.01,0 0,0.01 0,0 -0.01,0 0,0.01 -0.01,0 0,0 0,0 -0.01,0 0,0.01 -0.01,0 0,0 0,0 -0.01,0 0,0 0,0 -0.01,0 0,0 0,0 c -0.05,0 -0.07,-0.01 -0.13,-0.08 l -0.51,-0.54 c -0.06,0.08 -0.45,0.62 -1.31,0.62 -1.69,0 -3.35,-1.5 -3.35,-3.07 0,-1.13 0.89,-1.96 2.14,-1.96 0.38,0 1.05,0.08 1.76,0.68 0.55,0.47 0.71,1.07 0.71,1.13 0,0.09 -0.09,0.09 -0.12,0.09 -0.09,0 -0.11,-0.04 -0.13,-0.11 -0.28,-0.95 -1.26,-1.54 -2.1,-1.54 -0.74,0 -1.56,0.4 -1.56,1.5 0,0.2 0.05,1.3 0.85,2.17 0.48,0.54 1.21,0.86 1.87,0.86 0.81,0 1.28,-0.59 1.28,-1.36 0,-0.2 -0.02,-0.25 -0.02,-0.29 0,-0.09 0.09,-0.09 0.13,-0.09 0.11,0 0.11,0.02 0.14,0.15 z"
   inkscape:connector-curvature="0"
   style="fill:#000000;stroke-width:0" />
</g>    <g
       id="g3222"
       transform="matrix(1.25,0,0,-1.25,-170.71428,1919.2857)"
       xml:space="preserve"
       stroke-miterlimit="10.433"
       font-style="normal"
       font-variant="normal"
       font-weight="normal"
       font-stretch="normal"
       font-size-adjust="none"
       letter-spacing="normal"
       word-spacing="normal"
       ns0:text="$\\vt{F}_A$"
       ns0:preamble="D:\\Onderwijs\\FLUI\\Cursus\\FLUI_theorie\\tex\\commands.tex"
       style="font-style:normal;font-variant:normal;font-weight:normal;font-stretch:normal;letter-spacing:normal;word-spacing:normal;text-anchor:start;fill:none;stroke:#000000;stroke-linecap:butt;stroke-linejoin:miter;stroke-miterlimit:10.43299961;stroke-opacity:1;stroke-dasharray:none;stroke-dashoffset:0">
<path
   style="fill:#000000;stroke-width:0"
   inkscape:connector-curvature="0"
   d="m 227.07,710.27 h 0.65 c 0.6,0 0.77,-0.1 0.77,-0.42 0,-0.11 -0.03,-0.3 -0.06,-0.42 -0.02,-0.07 -0.03,-0.12 -0.03,-0.14 0,-0.15 0.13,-0.18 0.23,-0.18 0.19,0 0.19,0.06 0.24,0.24 l 0.56,2.22 c 0.04,0.13 0.04,0.14 0.04,0.15 0,0.18 -0.2,0.18 -0.24,0.18 -0.19,0 -0.21,-0.07 -0.26,-0.25 -0.2,-0.76 -0.5,-0.91 -1.22,-0.91 h -0.56 l 0.66,2.65 c 0.13,0.02 0.24,0.02 0.34,0.02 h 1.18 c 1.14,0 1.48,-0.28 1.48,-1.16 0,-0.24 -0.04,-0.54 -0.04,-0.58 0,-0.18 0.19,-0.18 0.24,-0.18 0.21,0 0.22,0.1 0.24,0.27 l 0.18,1.78 0.01,0.16 c 0,0.18 -0.17,0.18 -0.33,0.18 h -5.35 c -0.21,0 -0.22,-0.01 -0.27,-0.05 -0.07,-0.05 -0.09,-0.23 -0.09,-0.24 0,-0.18 0.14,-0.18 0.41,-0.18 0.21,0 0.4,-0.01 0.61,-0.02 l -1.41,-5.6 c -0.04,-0.16 -0.05,-0.17 -0.23,-0.19 -0.16,-0.01 -0.36,-0.01 -0.52,-0.01 -0.26,0 -0.28,0 -0.32,-0.02 -0.12,-0.07 -0.12,-0.23 -0.12,-0.27 0,-0.01 0,-0.17 0.22,-0.17 0.25,0 0.51,0.02 0.76,0.02 0.26,0 0.53,0.01 0.8,0.01 0.3,0 0.6,-0.01 0.9,-0.01 0.28,0 0.57,-0.02 0.85,-0.02 0.12,0 0.3,0 0.3,0.28 0,0.18 -0.17,0.18 -0.33,0.18 h -0.33 c -0.37,0 -0.52,0.02 -0.62,0.04 z"
   id="path3224" />
<path
   style="fill:#000000;stroke-width:0"
   inkscape:connector-curvature="0"
   d="m 233.32,706.47 -0.02,-0.04 -0.02,-0.03 -0.03,-0.04 -0.02,-0.03 -0.02,-0.03 -0.03,-0.03 -0.02,-0.02 -0.02,-0.03 -0.02,-0.03 -0.03,-0.02 -0.02,-0.02 -0.03,-0.03 -0.02,-0.02 -0.02,-0.02 -0.03,-0.02 -0.03,-0.02 -0.02,-0.01 -0.03,-0.02 -0.03,-0.02 -0.02,-0.01 -0.03,-0.01 -0.03,-0.02 -0.03,-0.01 -0.03,-0.01 -0.03,-0.01 -0.03,-0.01 -0.04,0 -0.03,-0.01 -0.04,-0.01 -0.03,0 -0.04,-0.01 -0.04,0 c -0.07,-0.01 -0.16,-0.01 -0.16,-0.15 0,-0.07 0.07,-0.1 0.1,-0.1 0.18,0 0.41,0.03 0.6,0.03 0.22,0 0.51,-0.03 0.72,-0.03 0.03,0 0.14,0 0.14,0.15 0,0.09 -0.09,0.1 -0.12,0.1 -0.06,0.01 -0.31,0.02 -0.31,0.21 0,0.08 0.07,0.2 0.11,0.26 l 0.55,0.87 h 2 l -0.04,0.25 h -1.79 l 1.46,2.27 0.33,-2.27 0.04,-0.25 0.16,-1.16 c -0.03,-0.07 -0.07,-0.18 -0.48,-0.18 -0.08,0 -0.18,0 -0.18,-0.15 0,-0.03 0.02,-0.1 0.11,-0.1 0.2,0 0.7,0.03 0.9,0.03 0.13,0 0.29,-0.01 0.41,-0.01 0.13,0 0.27,-0.02 0.4,-0.02 0.09,0 0.14,0.06 0.14,0.15 0,0.1 -0.09,0.1 -0.2,0.1 -0.4,0 -0.42,0.06 -0.44,0.22 l -0.61,4.29 c -0.02,0.15 -0.03,0.2 -0.17,0.2 -0.13,0 -0.17,-0.06 -0.23,-0.16 z"
   id="path3226" />
</g>    <g
       style="font-style:normal;font-variant:normal;font-weight:normal;font-stretch:normal;letter-spacing:normal;word-spacing:normal;text-anchor:start;fill:none;stroke:#000000;stroke-linecap:butt;stroke-linejoin:miter;stroke-miterlimit:10.43299961;stroke-opacity:1;stroke-dasharray:none;stroke-dashoffset:0"
       ns0:preamble="D:\\Onderwijs\\FLUI\\Cursus\\FLUI_theorie\\tex\\commands.tex"
       ns0:text="$\\alpha$"
       word-spacing="normal"
       letter-spacing="normal"
       font-size-adjust="none"
       font-stretch="normal"
       font-weight="normal"
       font-variant="normal"
       font-style="normal"
       stroke-miterlimit="10.433"
       xml:space="preserve"
       transform="matrix(1.25,0,0,-1.25,-125.71428,1870)"
       id="g3312">
<path
   id="path3314"
   d="m 228.18,709.47 0,0.07 0,0.07 -0.01,0.07 0,0.07 -0.02,0.13 -0.01,0.12 -0.03,0.12 -0.02,0.12 -0.03,0.1 -0.04,0.11 -0.04,0.09 -0.04,0.1 -0.04,0.08 -0.05,0.08 -0.06,0.08 -0.05,0.07 -0.06,0.07 -0.06,0.06 -0.06,0.05 -0.06,0.06 -0.07,0.05 -0.06,0.04 -0.07,0.04 -0.07,0.04 -0.07,0.03 -0.07,0.03 -0.08,0.02 -0.07,0.02 -0.07,0.02 -0.07,0.01 -0.07,0.01 -0.07,0.01 -0.07,0 -0.07,0.01 c -1.37,0 -2.68,-1.43 -2.68,-2.83 0,-0.92 0.6,-1.67 1.61,-1.67 l 0.02,0.21 c -0.59,0 -0.89,0.45 -0.89,1.09 0,0.48 0.26,1.56 0.57,2.06 0.47,0.73 1.01,0.92 1.36,0.92 0.98,0 0.98,-1.3 0.98,-2.08 0,-0.37 0,-0.94 0.02,-1.11 h 0 c -0.87,-0.77 -1.64,-0.88 -2.04,-0.88 l -0.02,-0.21 c 0.63,0 1.34,0.22 2.1,0.83 0.13,-0.53 0.46,-0.83 0.91,-0.83 0.52,0 0.83,0.54 0.83,0.7 0,0.07 -0.06,0.1 -0.12,0.1 -0.07,0 -0.1,-0.03 -0.13,-0.1 -0.18,-0.49 -0.53,-0.49 -0.55,-0.49 -0.31,0 -0.31,0.78 -0.31,1.02 0,0.21 0,0.23 0.1,0.34 0.93,1.18 1.14,2.33 1.14,2.34 0,0.02 -0.01,0.1 -0.12,0.1 -0.1,0 -0.1,-0.03 -0.15,-0.21 -0.18,-0.62 -0.5,-1.38 -0.97,-1.97 z"
   inkscape:connector-curvature="0"
   style="fill:#000000;stroke-width:0" />
</g>  </g>
</svg>
