<?xml version="1.0" encoding="UTF-8" standalone="no"?>
<!-- Created with Inkscape (http://www.inkscape.org/) -->

<svg
   xmlns:dc="http://purl.org/dc/elements/1.1/"
   xmlns:cc="http://creativecommons.org/ns#"
   xmlns:rdf="http://www.w3.org/1999/02/22-rdf-syntax-ns#"
   xmlns:svg="http://www.w3.org/2000/svg"
   xmlns="http://www.w3.org/2000/svg"
   xmlns:xlink="http://www.w3.org/1999/xlink"
   xmlns:sodipodi="http://sodipodi.sourceforge.net/DTD/sodipodi-0.dtd"
   xmlns:inkscape="http://www.inkscape.org/namespaces/inkscape"
   width="283.46457"
   height="177.16534"
   id="svg3041"
   version="1.1"
   inkscape:version="0.48.2 r9819"
   sodipodi:docname="grafiche_weergave_integraal.svg">
  <defs
     id="defs3043">
    <marker
       inkscape:stockid="Arrow1Mstart"
       orient="auto"
       refY="0"
       refX="0"
       id="Arrow1Mstart"
       style="overflow:visible">
      <path
         inkscape:connector-curvature="0"
         id="path6290"
         d="M 0,0 5,-5 -12.5,0 5,5 0,0 z"
         style="fill-rule:evenodd;stroke:#000000;stroke-width:1pt;marker-start:none"
         transform="matrix(0.4,0,0,0.4,4,0)" />
    </marker>
    <marker
       inkscape:stockid="Arrow1Mend"
       orient="auto"
       refY="0"
       refX="0"
       id="Arrow1Mend"
       style="overflow:visible">
      <path
         id="path3773"
         d="M 0,0 5,-5 -12.5,0 5,5 0,0 z"
         style="fill-rule:evenodd;stroke:#000000;stroke-width:1pt;marker-start:none"
         transform="matrix(-0.4,0,0,-0.4,-4,0)"
         inkscape:connector-curvature="0" />
    </marker>
    <marker
       inkscape:stockid="Arrow1Mend"
       orient="auto"
       refY="0"
       refX="0"
       id="marker3045"
       style="overflow:visible">
      <path
         id="path3047"
         d="M 0,0 5,-5 -12.5,0 5,5 0,0 z"
         style="fill-rule:evenodd;stroke:#000000;stroke-width:1pt;marker-start:none"
         transform="matrix(-0.4,0,0,-0.4,-4,0)"
         inkscape:connector-curvature="0" />
    </marker>
    <marker
       inkscape:stockid="Arrow1Mend"
       orient="auto"
       refY="0"
       refX="0"
       id="marker3049"
       style="overflow:visible">
      <path
         id="path3051"
         d="M 0,0 5,-5 -12.5,0 5,5 0,0 z"
         style="fill-rule:evenodd;stroke:#000000;stroke-width:1pt;marker-start:none"
         transform="matrix(-0.4,0,0,-0.4,-4,0)"
         inkscape:connector-curvature="0" />
    </marker>
    <linearGradient
       inkscape:collect="always"
       xlink:href="#linearGradient6221"
       id="linearGradient6227"
       x1="141.73228"
       y1="354.33069"
       x2="141.73228"
       y2="124.01572"
       gradientUnits="userSpaceOnUse"
       gradientTransform="matrix(1,0,0,0.94119673,-8.4925434,738.29914)" />
    <linearGradient
       id="linearGradient6221">
      <stop
         style="stop-color:#cccccc;stop-opacity:1;"
         offset="0"
         id="stop6223" />
      <stop
         style="stop-color:#cccccc;stop-opacity:0.58823532;"
         offset="1"
         id="stop6225" />
    </linearGradient>
    <linearGradient
       y2="124.01572"
       x2="141.73228"
       y1="354.33069"
       x1="141.73228"
       gradientTransform="matrix(1.0741566,0,0,0.82567053,-10.599511,776.51268)"
       gradientUnits="userSpaceOnUse"
       id="linearGradient3075"
       xlink:href="#linearGradient6221"
       inkscape:collect="always" />
    <marker
       inkscape:stockid="Arrow1Mend"
       orient="auto"
       refY="0"
       refX="0"
       id="Arrow1Mend-1"
       style="overflow:visible">
      <path
         id="path3773-7"
         d="M 0,0 5,-5 -12.5,0 5,5 0,0 z"
         style="fill-rule:evenodd;stroke:#000000;stroke-width:1pt;marker-start:none"
         transform="matrix(-0.4,0,0,-0.4,-4,0)"
         inkscape:connector-curvature="0" />
    </marker>
    <marker
       inkscape:stockid="Arrow1Mend"
       orient="auto"
       refY="0"
       refX="0"
       id="Arrow1Mend-4"
       style="overflow:visible">
      <path
         id="path3773-0"
         d="M 0,0 5,-5 -12.5,0 5,5 0,0 z"
         style="fill-rule:evenodd;stroke:#000000;stroke-width:1pt;marker-start:none"
         transform="matrix(-0.4,0,0,-0.4,-4,0)"
         inkscape:connector-curvature="0" />
    </marker>
    <marker
       inkscape:stockid="Arrow1Mend"
       orient="auto"
       refY="0"
       refX="0"
       id="marker4069"
       style="overflow:visible">
      <path
         id="path4071"
         d="M 0,0 5,-5 -12.5,0 5,5 0,0 z"
         style="fill-rule:evenodd;stroke:#000000;stroke-width:1pt;marker-start:none"
         transform="matrix(-0.4,0,0,-0.4,-4,0)"
         inkscape:connector-curvature="0" />
    </marker>
    <marker
       inkscape:stockid="Arrow1Mend"
       orient="auto"
       refY="0"
       refX="0"
       id="marker4073"
       style="overflow:visible">
      <path
         id="path4075"
         d="M 0,0 5,-5 -12.5,0 5,5 0,0 z"
         style="fill-rule:evenodd;stroke:#000000;stroke-width:1pt;marker-start:none"
         transform="matrix(-0.4,0,0,-0.4,-4,0)"
         inkscape:connector-curvature="0" />
    </marker>
    <marker
       inkscape:stockid="Arrow1Mend"
       orient="auto"
       refY="0"
       refX="0"
       id="marker4077"
       style="overflow:visible">
      <path
         id="path4079"
         d="M 0,0 5,-5 -12.5,0 5,5 0,0 z"
         style="fill-rule:evenodd;stroke:#000000;stroke-width:1pt;marker-start:none"
         transform="matrix(-0.4,0,0,-0.4,-4,0)"
         inkscape:connector-curvature="0" />
    </marker>
    <marker
       inkscape:stockid="Arrow1Mend"
       orient="auto"
       refY="0"
       refX="0"
       id="marker4081"
       style="overflow:visible">
      <path
         id="path4083"
         d="M 0,0 5,-5 -12.5,0 5,5 0,0 z"
         style="fill-rule:evenodd;stroke:#000000;stroke-width:1pt;marker-start:none"
         transform="matrix(-0.4,0,0,-0.4,-4,0)"
         inkscape:connector-curvature="0" />
    </marker>
    <marker
       inkscape:stockid="Arrow1Mend"
       orient="auto"
       refY="0"
       refX="0"
       id="marker4085"
       style="overflow:visible">
      <path
         id="path4087"
         d="M 0,0 5,-5 -12.5,0 5,5 0,0 z"
         style="fill-rule:evenodd;stroke:#000000;stroke-width:1pt;marker-start:none"
         transform="matrix(-0.4,0,0,-0.4,-4,0)"
         inkscape:connector-curvature="0" />
    </marker>
  </defs>
  <sodipodi:namedview
     id="base"
     pagecolor="#ffffff"
     bordercolor="#666666"
     borderopacity="1.0"
     inkscape:pageopacity="0.0"
     inkscape:pageshadow="2"
     inkscape:zoom="1.979899"
     inkscape:cx="109.94335"
     inkscape:cy="87.279548"
     inkscape:document-units="mm"
     inkscape:current-layer="g3220"
     showgrid="false"
     inkscape:window-width="1280"
     inkscape:window-height="962"
     inkscape:window-x="-8"
     inkscape:window-y="-8"
     inkscape:window-maximized="1"
     units="mm">
    <inkscape:grid
       type="xygrid"
       id="grid2992"
       empspacing="5"
       visible="true"
       enabled="true"
       snapvisiblegridlinesonly="true"
       units="mm"
       spacingx="1mm"
       spacingy="1mm" />
  </sodipodi:namedview>
  <metadata
     id="metadata3046">
    <rdf:RDF>
      <cc:Work
         rdf:about="">
        <dc:format>image/svg+xml</dc:format>
        <dc:type
           rdf:resource="http://purl.org/dc/dcmitype/StillImage" />
        <dc:title />
      </cc:Work>
    </rdf:RDF>
  </metadata>
  <g
     inkscape:label="Laag 1"
     inkscape:groupmode="layer"
     id="layer1"
     transform="translate(0,-875.19677)">
    <path
       style="fill:url(#linearGradient3075);fill-opacity:1;stroke:none"
       d="m 8.4308207,878.90882 265.7480393,0 c 0,0 5.4253,45.63103 0,80.18011 -3.80086,24.20435 3.80607,87.03487 3.80607,87.03487 0,0 -110.78889,5.0741 -154.91358,1.251 -43.319059,-3.7533 -113.6812203,-2.9192 -113.6812203,-2.9192 0,0 -5.961256,-48.77636 -0.959309,-77.77865 6.6460073,-38.53489 0,-87.76813 0,-87.76813 z"
       id="path6203"
       inkscape:connector-curvature="0"
       sodipodi:nodetypes="ccscscsc" />
    <g
       id="g6251"
       transform="translate(18.399266,54.759668)">
      <path
         inkscape:connector-curvature="0"
         id="path6205"
         d="m -10.000012,824.19004 265.748032,0"
         style="fill:none;stroke:#000000;stroke-width:0.70866144;stroke-linecap:butt;stroke-linejoin:miter;stroke-miterlimit:4;stroke-opacity:1;stroke-dasharray:none"
         sodipodi:nodetypes="cc" />
      <path
         inkscape:connector-curvature="0"
         id="path6207"
         d="m 202.59843,827.73334 53.1496,0"
         style="fill:none;stroke:#000000;stroke-width:0.35433072;stroke-linecap:butt;stroke-linejoin:miter;stroke-miterlimit:4;stroke-opacity:1;stroke-dasharray:none" />
      <path
         style="fill:none;stroke:#000000;stroke-width:0.35433072;stroke-linecap:butt;stroke-linejoin:miter;stroke-miterlimit:4;stroke-opacity:1;stroke-dasharray:none"
         d="m 220.31496,831.27665 35.43307,0"
         id="path6209"
         inkscape:connector-curvature="0" />
      <path
         inkscape:connector-curvature="0"
         id="path6211"
         d="m 238.03149,834.81996 17.71654,0"
         style="fill:none;stroke:#000000;stroke-width:0.35433072;stroke-linecap:butt;stroke-linejoin:miter;stroke-miterlimit:4;stroke-opacity:1;stroke-dasharray:none" />
    </g>
    <g
       id="g3220"
       transform="translate(-16.479335,25.953231)">
      <path
         sodipodi:nodetypes="ssssssss"
         transform="translate(0,698.03145)"
         inkscape:connector-curvature="0"
         id="path3218"
         d="m 124.01575,283.46455 c -28.346459,-53.14961 0,0 -28.346459,-53.14961 -10.554165,-19.78906 17.253919,-40.78916 41.297809,-47.69825 42.11761,-12.10263 63.9931,6.95281 65.0014,8.72187 14.20516,24.92292 0,0 14.17323,24.80315 6.33846,11.09231 7.10406,24.79802 -7.08661,28.34646 -24.30658,6.07797 -24.09638,34.62397 -42.51969,42.51968 -24.80315,10.62993 -35.82681,9.00584 -42.51968,-3.5433 z"
         style="fill:#b3b3b3;stroke:none" />
      <path
         sodipodi:nodetypes="sssssss"
         transform="translate(0,698.03145)"
         inkscape:connector-curvature="0"
         id="path3144"
         d="m 198.4252,209.0551 c -18.1753,-4.29061 -43.48779,8.05471 -56.69292,21.25984 -13.20513,13.20513 -26.06819,36.4463 -17.71653,53.14961 8.35166,16.70331 25.26635,10.68986 42.51968,3.5433 12.19995,-5.05338 19.00902,-26.09564 28.34646,-35.43307 9.33743,-9.33743 22.68792,-4.68192 24.80315,-17.71653 2.67557,-16.48763 -5.00336,-20.96551 -21.25984,-24.80315 z"
         style="fill:none;stroke:#000000;stroke-width:1px;stroke-linecap:butt;stroke-linejoin:miter;stroke-opacity:1" />
      <path
         inkscape:transform-center-x="7.7282872"
         style="fill:none;stroke:#000000;stroke-width:1.41732287;stroke-linecap:butt;stroke-linejoin:miter;stroke-miterlimit:4;stroke-opacity:1;stroke-dasharray:none;marker-end:url(#Arrow1Mend)"
         d="M 172.02164,883.23703 187.8307,910.7144"
         id="path5096"
         inkscape:connector-curvature="0"
         inkscape:transform-center-y="-13.301604"
         sodipodi:nodetypes="cc" />
      <path
         sodipodi:nodetypes="cc"
         inkscape:transform-center-y="-13.306154"
         inkscape:connector-curvature="0"
         id="path3202"
         d="m 196.81924,900.94419 15.8145,27.48649"
         style="fill:none;stroke:#000000;stroke-width:1.41732287;stroke-linecap:butt;stroke-linejoin:miter;stroke-miterlimit:4;stroke-opacity:1;stroke-dasharray:none;marker-end:url(#Arrow1Mend)"
         inkscape:transform-center-x="7.7310044" />
      <path
         inkscape:transform-center-x="12.09721"
         style="fill:none;stroke:#000000;stroke-width:1.41732287;stroke-linecap:butt;stroke-linejoin:miter;stroke-miterlimit:4;stroke-opacity:1;stroke-dasharray:none;marker-end:url(#Arrow1Mend)"
         d="M 127.81345,889.37004 152.3622,931.8897"
         id="path3204"
         inkscape:connector-curvature="0"
         inkscape:transform-center-y="-20.823305"
         sodipodi:nodetypes="cc" />
      <path
         sodipodi:nodetypes="cc"
         inkscape:transform-center-y="-17.843736"
         inkscape:connector-curvature="0"
         id="path3206"
         d="m 159.73134,913.16687 21.02814,36.5617"
         style="fill:none;stroke:#000000;stroke-width:1.41732287;stroke-linecap:butt;stroke-linejoin:miter;stroke-miterlimit:4;stroke-opacity:1;stroke-dasharray:none;marker-end:url(#Arrow1Mend)"
         inkscape:transform-center-x="10.337919" />
      <path
         inkscape:transform-center-x="16.316038"
         style="fill:none;stroke:#000000;stroke-width:1.41732287;stroke-linecap:butt;stroke-linejoin:miter;stroke-miterlimit:4;stroke-opacity:1;stroke-dasharray:none;marker-end:url(#Arrow1Mend)"
         d="m 98.154251,913.72052 32.985459,57.23619"
         id="path3208"
         inkscape:connector-curvature="0"
         inkscape:transform-center-y="-28.181265"
         sodipodi:nodetypes="cc" />
      <path
         sodipodi:nodetypes="cc"
         inkscape:transform-center-y="-25.647419"
         inkscape:connector-curvature="0"
         id="path3210"
         d="m 129.5033,925.94875 30.01352,52.16895"
         style="fill:none;stroke:#000000;stroke-width:1.41732287;stroke-linecap:butt;stroke-linejoin:miter;stroke-miterlimit:4;stroke-opacity:1;stroke-dasharray:none;marker-end:url(#Arrow1Mend)"
         inkscape:transform-center-x="14.83053" />
      <path
         style="fill:none;stroke:#000000;stroke-width:0.70866144;stroke-linecap:butt;stroke-linejoin:miter;stroke-miterlimit:4;stroke-opacity:1;stroke-dasharray:4.25196851, 4.25196851;stroke-dashoffset:0"
         d="m 188.13678,881.05587 c -16.53557,-7.85614 -44.96809,-4.05639 -61.79613,3.36882 -16.82805,7.42519 -36.281173,23.00827 -33.028045,38.47138 3.25313,15.46309 21.593205,14.72315 40.599145,13.15356 13.43923,-1.10987 26.31443,-16.3906 38.21366,-21.64102 11.89921,-5.2504 23.60169,1.73027 29.51789,-8.24485 7.48343,-12.61763 1.28335,-18.08115 -13.50652,-25.10789 z"
         id="path3231"
         inkscape:connector-curvature="0"
         sodipodi:nodetypes="sssssss" />
    </g>
    <path
       style="fill:none;stroke:#000000;stroke-width:0.70866144;stroke-linecap:butt;stroke-linejoin:miter;stroke-miterlimit:4;stroke-opacity:1;stroke-dasharray:4.25196862, 4.25196862;stroke-dashoffset:0"
       d="M 108.08632,133.47624 77.892231,77.097108"
       id="path4053"
       inkscape:connector-curvature="0"
       transform="translate(0,875.19677)"
       sodipodi:nodetypes="cc" />
    <path
       inkscape:connector-curvature="0"
       id="path4055"
       d="M 201.71484,943.29721 186.96503,917.80777"
       style="fill:none;stroke:#000000;stroke-width:0.70866144;stroke-linecap:butt;stroke-linejoin:miter;stroke-miterlimit:4;stroke-opacity:1;stroke-dasharray:4.2519686, 4.2519686;stroke-dashoffset:0"
       sodipodi:nodetypes="cc" />
  </g>
  <g
     inkscape:groupmode="layer"
     id="layer2"
     inkscape:label="Layer"
     style="display:none">
    <g
       transform="translate(-16.158647,-849.55223)"
       id="g4031">
      <path
         style="fill:#b3b3b3;stroke:none"
         d="m 124.01575,283.46455 c -28.346459,-53.14961 0,0 -28.346459,-53.14961 -14.914026,-27.9638 17.235639,-37.08449 38.976379,-42.51968 14.17323,-3.54331 57.07218,-14.39534 67.32283,3.5433 14.17323,24.80315 0,0 14.17323,24.80315 6.33846,11.09231 7.10406,24.79802 -7.08661,28.34646 -24.30658,6.07797 -24.09638,34.62397 -42.51969,42.51968 -24.80315,10.62993 -35.82681,9.00584 -42.51968,-3.5433 z"
         id="path4033"
         inkscape:connector-curvature="0"
         transform="translate(0,698.03145)"
         sodipodi:nodetypes="ssssssss" />
      <path
         style="fill:none;stroke:#000000;stroke-width:1px;stroke-linecap:butt;stroke-linejoin:miter;stroke-opacity:1"
         d="m 198.4252,209.0551 c -18.1753,-4.29061 -43.48779,8.05471 -56.69292,21.25984 -13.20513,13.20513 -26.06819,36.4463 -17.71653,53.14961 8.35166,16.70331 25.26635,10.68986 42.51968,3.5433 12.19995,-5.05338 19.00902,-26.09564 28.34646,-35.43307 9.33743,-9.33743 22.68792,-4.68192 24.80315,-17.71653 2.67557,-16.48763 -5.00336,-20.96551 -21.25984,-24.80315 z"
         id="path4035"
         inkscape:connector-curvature="0"
         transform="translate(0,698.03145)"
         sodipodi:nodetypes="sssssss" />
      <path
         sodipodi:nodetypes="cc"
         inkscape:transform-center-y="-13.301604"
         inkscape:connector-curvature="0"
         id="path4037"
         d="M 172.02164,883.23703 187.8307,910.7144"
         style="fill:none;stroke:#000000;stroke-width:1.41732287;stroke-linecap:butt;stroke-linejoin:miter;stroke-miterlimit:4;stroke-opacity:1;stroke-dasharray:none;marker-end:url(#Arrow1Mend)"
         inkscape:transform-center-x="7.7282872" />
      <path
         inkscape:transform-center-x="8.6052846"
         style="fill:none;stroke:#000000;stroke-width:1.41732287;stroke-linecap:butt;stroke-linejoin:miter;stroke-miterlimit:4;stroke-opacity:1;stroke-dasharray:none;marker-end:url(#Arrow1Mend)"
         d="m 195.03353,897.9231 17.5649,30.42329"
         id="path4039"
         inkscape:connector-curvature="0"
         inkscape:transform-center-y="-14.775092"
         sodipodi:nodetypes="cc" />
      <path
         sodipodi:nodetypes="cc"
         inkscape:transform-center-y="-20.823305"
         inkscape:connector-curvature="0"
         id="path4041"
         d="M 127.81345,889.37004 152.3622,931.8897"
         style="fill:none;stroke:#000000;stroke-width:1.41732287;stroke-linecap:butt;stroke-linejoin:miter;stroke-miterlimit:4;stroke-opacity:1;stroke-dasharray:none;marker-end:url(#Arrow1Mend)"
         inkscape:transform-center-x="12.09721" />
      <path
         inkscape:transform-center-x="12.09721"
         style="fill:none;stroke:#000000;stroke-width:1.41732287;stroke-linecap:butt;stroke-linejoin:miter;stroke-miterlimit:4;stroke-opacity:1;stroke-dasharray:none;marker-end:url(#Arrow1Mend)"
         d="m 156.15991,907.08657 24.54875,42.51966"
         id="path4043"
         inkscape:connector-curvature="0"
         inkscape:transform-center-y="-20.823305"
         sodipodi:nodetypes="cc" />
      <path
         sodipodi:nodetypes="cc"
         inkscape:transform-center-y="-29.589483"
         inkscape:connector-curvature="0"
         id="path4045"
         d="m 96.485683,910.86338 34.637157,60.05237"
         style="fill:none;stroke:#000000;stroke-width:1.41732287;stroke-linecap:butt;stroke-linejoin:miter;stroke-miterlimit:4;stroke-opacity:1;stroke-dasharray:none;marker-end:url(#Arrow1Mend)"
         inkscape:transform-center-x="17.141665" />
      <path
         inkscape:transform-center-x="17.30476"
         style="fill:none;stroke:#000000;stroke-width:1.41732287;stroke-linecap:butt;stroke-linejoin:miter;stroke-miterlimit:4;stroke-opacity:1;stroke-dasharray:none;marker-end:url(#Arrow1Mend)"
         d="m 124.5033,917.38744 34.96342,60.60865"
         id="path4047"
         inkscape:connector-curvature="0"
         inkscape:transform-center-y="-29.867683"
         sodipodi:nodetypes="cc" />
      <path
         id="path4049"
         style="fill:none;stroke:#000000;stroke-width:0.70866144;stroke-linecap:butt;stroke-linejoin:miter;stroke-miterlimit:4;stroke-opacity:1;stroke-dasharray:4.25196852, 4.25196852;stroke-dashoffset:0"
         d="M 216.14173,914.17316 201.9685,889.37001 c -8.09899,-14.17322 -39.46569,-10.62992 -67.32283,-3.5433 -27.85714,7.08661 -52.204728,17.71653 -38.976379,42.51968 l 28.346459,53.1496"
         inkscape:connector-curvature="0"
         sodipodi:nodetypes="csssc" />
    </g>
  </g>
</svg>
