<?xml version="1.0" encoding="UTF-8" standalone="no"?>
<!-- Created with Inkscape (http://www.inkscape.org/) -->

<svg
   xmlns:ns0="http://www.iki.fi/pav/software/textext/"
   xmlns:osb="http://www.openswatchbook.org/uri/2009/osb"
   xmlns:dc="http://purl.org/dc/elements/1.1/"
   xmlns:cc="http://creativecommons.org/ns#"
   xmlns:rdf="http://www.w3.org/1999/02/22-rdf-syntax-ns#"
   xmlns:svg="http://www.w3.org/2000/svg"
   xmlns="http://www.w3.org/2000/svg"
   xmlns:xlink="http://www.w3.org/1999/xlink"
   xmlns:sodipodi="http://sodipodi.sourceforge.net/DTD/sodipodi-0.dtd"
   xmlns:inkscape="http://www.inkscape.org/namespaces/inkscape"
   width="225.00946"
   height="122.64284"
   id="svg3041"
   version="1.1"
   inkscape:version="0.48.2 r9819"
   sodipodi:docname="j-buis.svg">
  <sodipodi:namedview
     id="base"
     pagecolor="#ffffff"
     bordercolor="#666666"
     borderopacity="1.0"
     inkscape:pageopacity="0.0"
     inkscape:pageshadow="2"
     inkscape:zoom="2.8"
     inkscape:cx="136.65464"
     inkscape:cy="58.54359"
     inkscape:document-units="mm"
     inkscape:current-layer="layer1"
     showgrid="false"
     inkscape:window-width="1366"
     inkscape:window-height="706"
     inkscape:window-x="-8"
     inkscape:window-y="-8"
     inkscape:window-maximized="1"
     units="mm"
     fit-margin-left="0.5"
     fit-margin-top="0.5"
     fit-margin-bottom="0.5"
     fit-margin-right="0.5">
    <inkscape:grid
       spacingy="1mm"
       spacingx="1mm"
       units="mm"
       snapvisiblegridlinesonly="true"
       enabled="true"
       visible="true"
       empspacing="5"
       id="grid2992"
       type="xygrid" />
  </sodipodi:namedview>
  <defs
     id="defs3043">
    <linearGradient
       osb:paint="solid"
       id="linearGradient4386">
      <stop
         id="stop4388"
         offset="0"
         style="stop-color:#cae7f9;stop-opacity:1;" />
    </linearGradient>
    <linearGradient
       osb:paint="solid"
       id="linearGradient4380">
      <stop
         id="stop4382"
         offset="0"
         style="stop-color:#cae7f9;stop-opacity:1;" />
    </linearGradient>
    <marker
       style="overflow:visible"
       id="Arrow1Mend"
       refX="0"
       refY="0"
       orient="auto"
       inkscape:stockid="Arrow1Mend">
      <path
         inkscape:connector-curvature="0"
         transform="matrix(-0.4,0,0,-0.4,-4,0)"
         style="fill-rule:evenodd;stroke:#000000;stroke-width:1pt;marker-start:none"
         d="M 0,0 5,-5 -12.5,0 5,5 0,0 z"
         id="path3779" />
    </marker>
    <marker
       style="overflow:visible"
       id="Arrow1Mstart"
       refX="0"
       refY="0"
       orient="auto"
       inkscape:stockid="Arrow1Mstart">
      <path
         inkscape:connector-curvature="0"
         transform="matrix(0.4,0,0,0.4,4,0)"
         style="fill-rule:evenodd;stroke:#000000;stroke-width:1pt;marker-start:none"
         d="M 0,0 5,-5 -12.5,0 5,5 0,0 z"
         id="path3776" />
    </marker>
    <linearGradient
       gradientUnits="userSpaceOnUse"
       y2="963.1098"
       x2="255.1181"
       y1="963.1098"
       x1="248.03148"
       id="linearGradient4384"
       xlink:href="#linearGradient4380"
       inkscape:collect="always"
       gradientTransform="matrix(1,0,0,0.66005341,0,333.65621)" />
    <linearGradient
       gradientUnits="userSpaceOnUse"
       y2="937.20465"
       x2="336.61417"
       y1="937.20465"
       x1="17.716536"
       id="linearGradient4390"
       xlink:href="#linearGradient4386"
       inkscape:collect="always"
       gradientTransform="matrix(0.69059643,0,0,1,61.292487,12.857143)" />
  </defs>
  <metadata
     id="metadata3046">
    <rdf:RDF>
      <cc:Work
         rdf:about="">
        <dc:format>image/svg+xml</dc:format>
        <dc:type
           rdf:resource="http://purl.org/dc/dcmitype/StillImage" />
        <dc:title />
      </cc:Work>
    </rdf:RDF>
  </metadata>
  <g
     transform="translate(-70.985093,-928.30195)"
     id="layer1"
     inkscape:groupmode="layer"
     inkscape:label="Laag 1">
    <rect
       y="941.20349"
       x="73.527466"
       height="17.716536"
       width="220.22957"
       id="rect5887"
       style="fill:url(#linearGradient4390);fill-opacity:1;stroke:none" />
    <rect
       y="1016.9291"
       x="124.01574"
       height="11.450665"
       width="35.433079"
       id="rect5891"
       style="fill:#cae7f9;fill-opacity:1;stroke:none" />
    <rect
       style="fill:#cae7f9;fill-opacity:1;stroke:none"
       id="rect5889"
       width="7.0866256"
       height="62.540154"
       x="138.18896"
       y="957.93225" />
    <path
       inkscape:connector-curvature="0"
       id="path5351"
       d="m 73.288243,958.92007 64.900737,0"
       style="fill:none;stroke:#000000;stroke-width:1.0629921;stroke-linecap:round;stroke-linejoin:miter;stroke-miterlimit:4;stroke-opacity:1;stroke-dasharray:none" />
    <rect
       y="957.22424"
       x="248.03148"
       height="24.271721"
       width="7.0866256"
       id="rect5893"
       style="fill:url(#linearGradient4384);fill-opacity:1;stroke:none" />
    <path
       inkscape:connector-curvature="0"
       id="path5353"
       d="m 145.27559,958.92007 102.75591,0"
       style="fill:none;stroke:#000000;stroke-width:1.0629921;stroke-linecap:round;stroke-linejoin:miter;stroke-miterlimit:4;stroke-opacity:1;stroke-dasharray:none" />
    <path
       inkscape:connector-curvature="0"
       id="path5355"
       d="m 255.11812,958.92007 38.55997,0"
       style="fill:none;stroke:#000000;stroke-width:1.0629921;stroke-linecap:round;stroke-linejoin:miter;stroke-miterlimit:4;stroke-opacity:1;stroke-dasharray:none" />
    <rect
       transform="translate(0,698.03145)"
       y="329.52753"
       x="124.01575"
       height="21.259842"
       width="35.433071"
       id="rect5881"
       style="fill:#b3b3b3;fill-opacity:1;stroke:none" />
    <rect
       y="981.49597"
       x="248.03149"
       height="60.236221"
       width="7.0866146"
       id="rect5885"
       style="fill:#b3b3b3;fill-opacity:1;stroke:none" />
    <rect
       style="fill:#b3b3b3;fill-opacity:1;stroke:none"
       id="rect5883"
       width="97.310783"
       height="7.0865874"
       x="157.80733"
       y="1034.6456" />
    <path
       transform="translate(0,698.03145)"
       inkscape:connector-curvature="0"
       id="path5359"
       d="m 145.27559,261.06719 0,57.83043 14.17323,0 0,17.71653 88.58268,0 0,-75.82949"
       style="fill:none;stroke:#000000;stroke-width:0.70866144;stroke-linecap:round;stroke-linejoin:miter;stroke-miterlimit:4;stroke-opacity:1;stroke-dasharray:none"
       sodipodi:nodetypes="cccccc" />
    <path
       inkscape:connector-curvature="0"
       id="path5361"
       d="m 159.44882,1041.7322 0,7.0866 -35.43307,0 0,-31.8897 14.17323,0 0,-58.00903"
       style="fill:none;stroke:#000000;stroke-width:0.70866144;stroke-linecap:butt;stroke-linejoin:miter;stroke-miterlimit:4;stroke-opacity:1;stroke-dasharray:none"
       sodipodi:nodetypes="cccccc" />
    <path
       transform="translate(0,698.03145)"
       inkscape:connector-curvature="0"
       id="path5871"
       d="m 159.44882,343.70077 95.66929,0 0,-82.91611"
       style="fill:none;stroke:#000000;stroke-width:0.70866144;stroke-linecap:square;stroke-linejoin:miter;stroke-miterlimit:4;stroke-opacity:1;stroke-dasharray:none"
       sodipodi:nodetypes="ccc" />
    <path
       inkscape:connector-curvature="0"
       id="path5873"
       d="m 73.294362,941.20353 220.397048,0"
       style="fill:none;stroke:#000000;stroke-width:1.0629921;stroke-linecap:round;stroke-linejoin:miter;stroke-miterlimit:4;stroke-opacity:1;stroke-dasharray:none" />
    <path
       transform="translate(0,710.88859)"
       d="m 209.05511,239.1732 c 0,10.76303 -8.72515,19.48819 -19.48818,19.48819 -10.76303,0 -19.48819,-8.72516 -19.48819,-19.48819 0,-10.76303 8.72516,-19.48819 19.48819,-19.48819 10.76303,0 19.48818,8.72516 19.48818,19.48819 z"
       sodipodi:ry="19.48819"
       sodipodi:rx="19.48819"
       sodipodi:cy="239.1732"
       sodipodi:cx="189.56693"
       id="path5875"
       style="fill:#0088aa;fill-opacity:1;stroke:#000000"
       sodipodi:type="arc" />
    <path
       inkscape:connector-curvature="0"
       id="path5877"
       d="M 177.16535,962.46337 201.9685,937.66022"
       style="fill:none;stroke:#000000;stroke-width:1px;stroke-linecap:square;stroke-linejoin:miter;stroke-opacity:1" />
    <path
       style="fill:none;stroke:#000000;stroke-width:1px;stroke-linecap:square;stroke-linejoin:miter;stroke-opacity:1"
       d="m 177.16535,937.66022 24.80315,24.80315"
       id="path5879"
       inkscape:connector-curvature="0" />
    <path
       transform="translate(0,698.03145)"
       inkscape:connector-curvature="0"
       id="path5895"
       d="m 180.70866,329.52754 0,-46.06299"
       style="fill:none;stroke:#000000;stroke-width:0.70866144;stroke-linecap:butt;stroke-linejoin:miter;stroke-miterlimit:4;stroke-opacity:1;stroke-dasharray:none;marker-start:url(#Arrow1Mstart);marker-end:url(#Arrow1Mend)" />
    <path
       style="fill:none;stroke:#000000;stroke-width:0.35433072;stroke-linecap:butt;stroke-linejoin:miter;stroke-miterlimit:4;stroke-opacity:1;stroke-dasharray:none"
       d="m 166.53543,329.52754 10.62992,0"
       id="path6335"
       inkscape:connector-curvature="0"
       transform="translate(0,698.03145)" />
    <path
       inkscape:connector-curvature="0"
       id="path6337"
       d="m 184.25197,981.496 60.23622,0"
       style="fill:none;stroke:#000000;stroke-width:0.35433072;stroke-linecap:butt;stroke-linejoin:miter;stroke-miterlimit:4;stroke-opacity:1;stroke-dasharray:none" />
    <path
       style="fill:none;stroke:#000000;stroke-width:0.70866144;stroke-linecap:butt;stroke-linejoin:miter;stroke-miterlimit:4;stroke-opacity:1;stroke-dasharray:none;marker-start:url(#Arrow1Mstart);marker-end:none"
       d="m 122.14693,950.23896 -17.71654,0"
       id="path6349"
       inkscape:connector-curvature="0"
       sodipodi:nodetypes="cc" />
    <path
       sodipodi:nodetypes="cc"
       inkscape:connector-curvature="0"
       id="path6535"
       d="m 276.97975,950.23895 -17.71654,0"
       style="fill:none;stroke:#000000;stroke-width:0.70866144;stroke-linecap:butt;stroke-linejoin:miter;stroke-miterlimit:4;stroke-opacity:1;stroke-dasharray:none;marker-start:url(#Arrow1Mstart);marker-end:none" />
    <g
       ns0:preamble=""
       ns0:text="water"
       word-spacing="normal"
       letter-spacing="normal"
       font-size-adjust="none"
       font-stretch="normal"
       font-weight="normal"
       font-variant="normal"
       font-style="normal"
       stroke-miterlimit="10.433"
       xml:space="preserve"
       transform="matrix(1.25,0,0,-1.25,-202.88677,1851.5654)"
       id="content"
       style="font-style:normal;font-variant:normal;font-weight:normal;font-stretch:normal;letter-spacing:normal;word-spacing:normal;text-anchor:start;fill:none;stroke:#000000;stroke-linecap:butt;stroke-linejoin:miter;stroke-miterlimit:10.43299961;stroke-opacity:1;stroke-dasharray:none;stroke-dashoffset:0">
<path
   id="path3074"
   d="m 229.59,710.46 0.02,0.05 0.02,0.04 0.01,0.04 0.02,0.04 0.02,0.04 0.02,0.04 0.03,0.03 0.02,0.03 0.02,0.03 0.02,0.03 0.03,0.02 0.02,0.03 0.03,0.02 0.02,0.02 0.03,0.02 0.03,0.02 0.02,0.02 0.03,0.02 0.03,0.01 0.03,0.01 0.02,0.02 0.03,0.01 0.03,0.01 0.03,0.01 0.03,0 0.04,0.01 0.03,0 0.03,0.01 0.03,0 0.03,0.01 0.03,0 0.04,0 v 0.31 c -0.22,-0.02 -0.51,-0.03 -0.73,-0.03 -0.29,0 -0.74,0.02 -0.93,0.03 v -0.31 c 0.36,-0.01 0.58,-0.19 0.58,-0.48 0,-0.06 0,-0.08 -0.05,-0.21 l -0.9,-2.54 -0.99,2.77 c -0.04,0.12 -0.05,0.14 -0.05,0.19 0,0.27 0.39,0.27 0.59,0.27 v 0.31 c -0.29,-0.01 -0.8,-0.03 -1.04,-0.03 -0.29,0 -0.58,0.01 -0.88,0.03 v -0.31 c 0.37,0 0.53,-0.02 0.63,-0.15 0.05,-0.06 0.16,-0.36 0.22,-0.55 l -0.85,-2.4 -0.95,2.65 c -0.05,0.12 -0.05,0.14 -0.05,0.18 0,0.27 0.39,0.27 0.59,0.27 v 0.31 c -0.3,-0.01 -0.86,-0.03 -1.08,-0.03 -0.04,0 -0.57,0.01 -0.93,0.03 v -0.31 c 0.5,0 0.62,-0.03 0.74,-0.35 l 1.25,-3.52 c 0.05,-0.14 0.08,-0.21 0.21,-0.21 0.13,0 0.15,0.06 0.2,0.19 l 1,2.82 1.02,-2.83 c 0.04,-0.11 0.07,-0.18 0.2,-0.18 0.13,0 0.16,0.08 0.2,0.18 z"
   inkscape:connector-curvature="0"
   style="fill:#000000;stroke-width:0" />
<path
   id="path3076"
   d="m 233.66,707.88 0.01,-0.04 0,-0.03 0.01,-0.04 0.01,-0.04 0.01,-0.04 0.01,-0.03 0.01,-0.04 0.01,-0.03 0.02,-0.04 0.01,-0.03 0.02,-0.04 0.02,-0.03 0.02,-0.03 0.02,-0.04 0.03,-0.03 0.02,-0.03 0.02,-0.02 0.03,-0.03 0.03,-0.03 0.03,-0.02 0.03,-0.02 0.03,-0.03 0.03,-0.02 0.03,-0.01 0.04,-0.02 0.04,-0.01 0.03,-0.02 0.04,-0.01 0.04,0 0.04,-0.01 0.04,0 0.05,0 c 0.21,0 0.81,0.13 0.81,0.94 v 0.56 H 235 v -0.56 c 0,-0.58 -0.24,-0.64 -0.35,-0.64 -0.33,0 -0.37,0.45 -0.37,0.5 v 1.99 c 0,0.41 0,0.8 -0.36,1.17 -0.39,0.39 -0.89,0.55 -1.36,0.55 -0.82,0 -1.51,-0.47 -1.51,-1.13 0,-0.29 0.2,-0.46 0.46,-0.46 0.28,0 0.46,0.19 0.46,0.45 0,0.12 -0.05,0.45 -0.51,0.46 0.27,0.35 0.76,0.46 1.08,0.46 0.48,0 1.05,-0.39 1.05,-1.27 v -0.37 -0.21 -0.99 c 0,-0.95 -0.71,-1.29 -1.16,-1.29 -0.49,0 -0.9,0.35 -0.9,0.85 0,0.55 0.42,1.37 2.06,1.43 h 0 v 0.21 c -0.51,-0.03 -1.2,-0.06 -1.83,-0.36 -0.75,-0.34 -0.99,-0.85 -0.99,-1.29 0,-0.81 0.96,-1.05 1.59,-1.05 0.65,0 1.11,0.39 1.3,0.86 z"
   inkscape:connector-curvature="0"
   style="fill:#000000;stroke-width:0" />
<path
   id="path3078"
   d="m 237.05,711.1 h 1.42 v 0.31 h -1.42 v 1.82 h -0.25 c -0.01,-0.81 -0.31,-1.87 -1.28,-1.91 v -0.22 h 0.84 v -2.74 c 0,-1.22 0.93,-1.34 1.29,-1.34 0.7,0 0.98,0.7 0.98,1.34 v 0.56 h -0.25 v -0.54 c 0,-0.74 -0.29,-1.12 -0.66,-1.12 -0.67,0 -0.67,0.91 -0.67,1.08 z"
   inkscape:connector-curvature="0"
   style="fill:#000000;stroke-width:0" />
<path
   id="path3080"
   d="m 240.31,709.42 0.01,0.21 c 0.06,1.48 0.89,1.73 1.23,1.73 1.03,0 1.13,-1.34 1.13,-1.73 h -2.36 l -0.01,-0.21 h 2.77 c 0.22,0 0.25,0 0.25,0.21 0,0.98 -0.54,1.95 -1.78,1.95 -1.15,0 -2.07,-1.03 -2.07,-2.27 0,-1.33 1.05,-2.29 2.19,-2.29 1.21,0 1.66,1.1 1.66,1.29 0,0.1 -0.08,0.12 -0.13,0.12 -0.09,0 -0.11,-0.06 -0.13,-0.14 -0.34,-1.03 -1.24,-1.03 -1.34,-1.03 -0.5,0 -0.89,0.3 -1.12,0.67 -0.3,0.48 -0.3,1.13 -0.3,1.49 z"
   inkscape:connector-curvature="0"
   style="fill:#000000;stroke-width:0" />
<path
   id="path3082"
   d="m 245.29,710.42 v 1.1 l -1.38,-0.11 v -0.31 c 0.7,0 0.78,-0.07 0.78,-0.56 v -2.66 c 0,-0.45 -0.11,-0.45 -0.78,-0.45 v -0.3 c 0.39,0.01 0.85,0.03 1.13,0.03 0.4,0 0.87,0 1.27,-0.03 v 0.3 h -0.21 c -0.74,0 -0.76,0.11 -0.76,0.47 v 1.53 c 0,0.98 0.42,1.87 1.18,1.87 0.07,0 0.09,0 0.11,-0.01 -0.03,-0.01 -0.23,-0.13 -0.23,-0.39 0,-0.28 0.21,-0.43 0.42,-0.43 0.18,0 0.43,0.12 0.43,0.44 0,0.32 -0.31,0.61 -0.73,0.61 -0.73,0 -1.09,-0.67 -1.23,-1.1 z"
   inkscape:connector-curvature="0"
   style="fill:#000000;stroke-width:0" />
</g>    <g
       id="g3200"
       transform="matrix(1.25,0,0,-1.25,-22.217028,1924.4106)"
       xml:space="preserve"
       stroke-miterlimit="10.433"
       font-style="normal"
       font-variant="normal"
       font-weight="normal"
       font-stretch="normal"
       font-size-adjust="none"
       letter-spacing="normal"
       word-spacing="normal"
       ns0:text="kwik"
       ns0:preamble=""
       style="font-style:normal;font-variant:normal;font-weight:normal;font-stretch:normal;letter-spacing:normal;word-spacing:normal;text-anchor:start;fill:none;stroke:#000000;stroke-linecap:butt;stroke-linejoin:miter;stroke-miterlimit:10.43299961;stroke-opacity:1;stroke-dasharray:none;stroke-dashoffset:0">
<path
   style="fill:#000000;stroke-width:0"
   inkscape:connector-curvature="0"
   d="m 224.49,707.88 0,-0.02 0,-0.02 0,-0.04 -0.01,-0.03 0,-0.04 0,-0.03 -0.01,-0.03 0,-0.02 -0.01,-0.03 -0.01,-0.02 -0.01,-0.02 -0.01,-0.02 -0.01,-0.02 -0.02,-0.01 -0.01,-0.02 -0.02,-0.01 -0.02,-0.01 -0.02,-0.01 -0.03,-0.01 -0.02,-0.01 -0.03,0 -0.03,-0.01 -0.03,0 -0.04,-0.01 -0.04,0 -0.02,0 -0.02,0 -0.02,0 -0.02,0 -0.02,0 -0.03,-0.01 -0.02,0 -0.02,0 -0.03,0 -0.03,0 -0.02,0 -0.03,0 -0.03,0 -0.03,0 -0.03,0 -0.03,0 v -0.3 c 0.33,0.01 0.8,0.03 1.08,0.03 0.3,0 0.7,-0.01 1.1,-0.03 v 0.3 c -0.67,0 -0.78,0 -0.78,0.45 v 1.02 l 0.64,0.55 c 0.77,-1.05 1.18,-1.61 1.18,-1.79 0,-0.19 -0.17,-0.23 -0.35,-0.23 v -0.3 c 0.27,0.01 0.86,0.03 1.07,0.03 0.29,0 0.58,-0.01 0.87,-0.03 v 0.3 c -0.37,0 -0.59,0 -0.97,0.53 l -1.26,1.78 c -0.01,0.02 -0.06,0.08 -0.06,0.11 0,0.04 0.7,0.63 0.8,0.71 0.63,0.51 1.05,0.53 1.26,0.54 v 0.31 c -0.29,-0.03 -0.42,-0.03 -0.7,-0.03 -0.36,0 -0.97,0.02 -1.11,0.03 v -0.31 c 0.18,-0.01 0.28,-0.12 0.28,-0.25 0,-0.2 -0.13,-0.32 -0.21,-0.39 l -1.41,-1.21 v 4.77 l -1.43,-0.11 v -0.31 c 0.7,0 0.78,-0.07 0.78,-0.55 z"
   id="path3202" />
<path
   style="fill:#000000;stroke-width:0"
   inkscape:connector-curvature="0"
   d="m 234.85,710.46 0.02,0.05 0.01,0.04 0.02,0.04 0.02,0.04 0.02,0.04 0.02,0.04 0.02,0.03 0.03,0.03 0.02,0.03 0.02,0.03 0.03,0.02 0.02,0.03 0.03,0.02 0.02,0.02 0.03,0.02 0.02,0.02 0.03,0.02 0.03,0.02 0.03,0.01 0.02,0.01 0.03,0.02 0.03,0.01 0.03,0.01 0.03,0.01 0.03,0 0.03,0.01 0.03,0 0.04,0.01 0.03,0 0.03,0.01 0.03,0 0.03,0 v 0.31 c -0.21,-0.02 -0.5,-0.03 -0.72,-0.03 -0.29,0 -0.74,0.02 -0.93,0.03 v -0.31 c 0.36,-0.01 0.58,-0.19 0.58,-0.48 0,-0.06 0,-0.08 -0.05,-0.21 l -0.91,-2.54 -0.98,2.77 c -0.04,0.12 -0.05,0.14 -0.05,0.19 0,0.27 0.39,0.27 0.59,0.27 v 0.31 c -0.29,-0.01 -0.8,-0.03 -1.04,-0.03 -0.3,0 -0.58,0.01 -0.88,0.03 v -0.31 c 0.36,0 0.52,-0.02 0.62,-0.15 0.05,-0.06 0.16,-0.36 0.23,-0.55 l -0.85,-2.4 -0.95,2.65 c -0.05,0.12 -0.05,0.14 -0.05,0.18 0,0.27 0.39,0.27 0.59,0.27 v 0.31 c -0.3,-0.01 -0.86,-0.03 -1.09,-0.03 -0.03,0 -0.56,0.01 -0.92,0.03 v -0.31 c 0.5,0 0.62,-0.03 0.74,-0.35 l 1.25,-3.52 c 0.05,-0.14 0.08,-0.21 0.21,-0.21 0.13,0 0.15,0.06 0.2,0.19 l 1,2.82 1.02,-2.83 c 0.04,-0.11 0.07,-0.18 0.2,-0.18 0.13,0 0.16,0.08 0.19,0.18 z"
   id="path3204" />
<path
   style="fill:#000000;stroke-width:0"
   inkscape:connector-curvature="0"
   d="m 237.65,711.52 -1.4,-0.11 v -0.31 c 0.65,0 0.74,-0.06 0.74,-0.55 v -2.67 c 0,-0.45 -0.11,-0.45 -0.78,-0.45 v -0.3 c 0.32,0.01 0.86,0.03 1.1,0.03 0.35,0 0.69,-0.02 1.03,-0.03 v 0.3 c -0.65,0 -0.69,0.05 -0.69,0.44 z"
   id="path3206" />
<path
   style="fill:#000000;stroke-width:0"
   inkscape:connector-curvature="0"
   d="m 237.69,713.24 0,0.03 -0.01,0.03 0,0.03 -0.01,0.03 0,0.02 -0.01,0.03 -0.01,0.03 -0.01,0.02 -0.01,0.02 -0.01,0.03 -0.01,0.02 -0.02,0.02 -0.01,0.02 -0.02,0.02 -0.02,0.02 -0.01,0.02 -0.02,0.01 -0.02,0.02 -0.02,0.01 -0.02,0.02 -0.02,0.01 -0.03,0.01 -0.02,0.01 -0.02,0.01 -0.03,0.01 -0.02,0.01 -0.02,0.01 -0.03,0 -0.02,0.01 -0.03,0 -0.03,0 -0.02,0 c -0.31,0 -0.53,-0.27 -0.53,-0.53 0,-0.26 0.22,-0.52 0.53,-0.52 0.28,0 0.53,0.21 0.53,0.52 z"
   id="path3208" />
<path
   style="fill:#000000;stroke-width:0"
   inkscape:connector-curvature="0"
   d="m 239.71,707.88 0,-0.02 0,-0.02 0,-0.04 -0.01,-0.03 0,-0.04 0,-0.03 -0.01,-0.03 0,-0.02 -0.01,-0.03 -0.01,-0.02 -0.01,-0.02 -0.01,-0.02 -0.01,-0.02 -0.02,-0.01 -0.01,-0.02 -0.02,-0.01 -0.02,-0.01 -0.02,-0.01 -0.03,-0.01 -0.02,-0.01 -0.03,0 -0.03,-0.01 -0.03,0 -0.04,-0.01 -0.02,0 -0.02,0 -0.02,0 -0.02,0 -0.02,0 -0.02,0 -0.02,0 -0.03,-0.01 -0.02,0 -0.02,0 -0.03,0 -0.03,0 -0.02,0 -0.03,0 -0.03,0 -0.03,0 -0.03,0 -0.03,0 v -0.3 c 0.33,0.01 0.8,0.03 1.09,0.03 0.29,0 0.69,-0.01 1.09,-0.03 v 0.3 c -0.67,0 -0.78,0 -0.78,0.45 v 1.02 l 0.64,0.55 c 0.77,-1.05 1.18,-1.61 1.18,-1.79 0,-0.19 -0.16,-0.23 -0.35,-0.23 v -0.3 c 0.27,0.01 0.86,0.03 1.07,0.03 0.29,0 0.58,-0.01 0.87,-0.03 v 0.3 c -0.37,0 -0.59,0 -0.97,0.53 l -1.26,1.78 c -0.01,0.02 -0.06,0.08 -0.06,0.11 0,0.04 0.7,0.63 0.8,0.71 0.63,0.51 1.05,0.53 1.26,0.54 v 0.31 c -0.29,-0.03 -0.42,-0.03 -0.7,-0.03 -0.36,0 -0.97,0.02 -1.11,0.03 v -0.31 c 0.19,-0.01 0.29,-0.12 0.29,-0.25 0,-0.2 -0.14,-0.32 -0.22,-0.39 l -1.41,-1.21 v 4.77 l -1.43,-0.11 v -0.31 c 0.7,0 0.78,-0.07 0.78,-0.55 z"
   id="path3210" />
</g>    <g
       style="font-style:normal;font-variant:normal;font-weight:normal;font-stretch:normal;letter-spacing:normal;word-spacing:normal;text-anchor:start;fill:none;stroke:#000000;stroke-linecap:butt;stroke-linejoin:miter;stroke-miterlimit:10.43299961;stroke-opacity:1;stroke-dasharray:none;stroke-dashoffset:0"
       ns0:preamble=""
       ns0:text="\\O4mm"
       word-spacing="normal"
       letter-spacing="normal"
       font-size-adjust="none"
       font-stretch="normal"
       font-weight="normal"
       font-variant="normal"
       font-style="normal"
       stroke-miterlimit="10.433"
       xml:space="preserve"
       transform="matrix(1.25,0,0,-1.25,-22.752742,1895.1249)"
       id="g3336">
<path
   id="path3338"
   d="m 230.05,714.33 -0.21,0.14 -0.59,-0.87 c -0.02,-0.04 -0.07,-0.1 -0.09,-0.1 -0.01,0 -0.02,0 -0.07,0.05 -0.24,0.15 -0.86,0.58 -1.8,0.58 v -0.22 c 0.92,0 1.47,-0.56 1.65,-0.75 l -3.46,-5.07 c -0.35,0.49 -0.6,1.13 -0.6,2.4 0,0.56 0.02,1.54 0.51,2.32 0.47,0.74 1.21,1.1 1.9,1.1 v 0.22 c -1.78,0 -3.3,-1.59 -3.3,-3.64 0,-1.48 0.8,-2.43 1.23,-2.79 l -0.59,-0.88 -0.08,-0.11 0.19,-0.14 0.6,0.86 c 0.01,0.02 0.06,0.09 0.08,0.09 0.01,0 0.02,0 0.08,-0.04 0.73,-0.49 1.37,-0.57 1.79,-0.57 l 0.01,0.22 c -0.62,0 -1.22,0.26 -1.65,0.75 l 3.45,5.07 c 0.57,-0.76 0.62,-1.82 0.62,-2.46 0,-0.5 -0.02,-1.57 -0.58,-2.37 -0.43,-0.62 -1.12,-0.99 -1.84,-0.99 l -0.01,-0.22 c 1.81,0 3.31,1.58 3.31,3.58 0,1.23 -0.49,2.14 -1.24,2.83 z"
   inkscape:connector-curvature="0"
   style="fill:#000000;stroke-width:0" />
<path
   id="path3340"
   d="m 234.11,708.76 v -0.86 c 0,-0.36 -0.02,-0.47 -0.76,-0.47 h -0.21 v -0.3 c 0.41,0.03 0.93,0.03 1.34,0.03 0.42,0 0.95,0 1.36,-0.03 v 0.3 h -0.21 c -0.74,0 -0.76,0.11 -0.76,0.47 v 0.86 h 1 v 0.31 h -1 v 4.52 c 0,0.2 0,0.26 -0.16,0.26 -0.09,0 -0.12,0 -0.2,-0.12 l -3.05,-4.66 h 0.28 l 2.43,3.71 v -3.71 h -2.43 -0.28 v -0.31 z"
   inkscape:connector-curvature="0"
   style="fill:#000000;stroke-width:0" />
<path
   id="path3342"
   d="m 237.26,710.54 v -2.66 c 0,-0.45 -0.11,-0.45 -0.78,-0.45 v -0.3 c 0.35,0.01 0.86,0.03 1.12,0.03 0.26,0 0.78,-0.02 1.12,-0.03 v 0.3 c -0.67,0 -0.78,0 -0.78,0.45 v 1.83 c 0,1.03 0.71,1.59 1.35,1.59 0.62,0 0.73,-0.54 0.73,-1.1 v -2.32 c 0,-0.45 -0.11,-0.45 -0.77,-0.45 v -0.3 c 0.35,0.01 0.85,0.03 1.12,0.03 0.26,0 0.78,-0.02 1.12,-0.03 v 0.3 c -0.67,0 -0.78,0 -0.78,0.45 v 1.83 c 0,1.03 0.7,1.59 1.34,1.59 0.63,0 0.74,-0.54 0.74,-1.1 v -2.32 c 0,-0.45 -0.11,-0.45 -0.78,-0.45 v -0.3 c 0.35,0.01 0.86,0.03 1.13,0.03 0.26,0 0.77,-0.02 1.11,-0.03 v 0.3 c -0.52,0 -0.76,0 -0.77,0.3 v 1.9 c 0,0.85 0,1.16 -0.31,1.52 -0.14,0.17 -0.47,0.37 -1.05,0.37 -0.83,0 -1.27,-0.6 -1.44,-0.98 -0.14,0.87 -0.88,0.98 -1.32,0.98 -0.73,0 -1.2,-0.43 -1.48,-1.05 v 1.05 l -1.4,-0.11 v -0.31 c 0.7,0 0.78,-0.07 0.78,-0.56 z"
   inkscape:connector-curvature="0"
   style="fill:#000000;stroke-width:0" />
<path
   id="path3344"
   d="m 245.56,710.54 v -2.66 c 0,-0.45 -0.11,-0.45 -0.78,-0.45 v -0.3 c 0.35,0.01 0.86,0.03 1.13,0.03 0.25,0 0.77,-0.02 1.11,-0.03 v 0.3 c -0.67,0 -0.78,0 -0.78,0.45 v 1.83 c 0,1.03 0.71,1.59 1.35,1.59 0.62,0 0.73,-0.54 0.73,-1.1 v -2.32 c 0,-0.45 -0.11,-0.45 -0.77,-0.45 v -0.3 c 0.35,0.01 0.85,0.03 1.12,0.03 0.26,0 0.78,-0.02 1.12,-0.03 v 0.3 c -0.67,0 -0.78,0 -0.78,0.45 v 1.83 c 0,1.03 0.71,1.59 1.34,1.59 0.63,0 0.74,-0.54 0.74,-1.1 v -2.32 c 0,-0.45 -0.11,-0.45 -0.78,-0.45 v -0.3 c 0.35,0.01 0.86,0.03 1.13,0.03 0.26,0 0.77,-0.02 1.11,-0.03 v 0.3 c -0.51,0 -0.76,0 -0.77,0.3 v 1.9 c 0,0.85 0,1.16 -0.31,1.52 -0.14,0.17 -0.47,0.37 -1.05,0.37 -0.83,0 -1.27,-0.6 -1.44,-0.98 -0.14,0.87 -0.88,0.98 -1.32,0.98 -0.73,0 -1.2,-0.43 -1.48,-1.05 v 1.05 l -1.4,-0.11 v -0.31 c 0.7,0 0.78,-0.07 0.78,-0.56 z"
   inkscape:connector-curvature="0"
   style="fill:#000000;stroke-width:0" />
</g>    <g
       id="g3489"
       transform="matrix(1.25,0,0,-1.25,-97.217029,1884.4107)"
       xml:space="preserve"
       stroke-miterlimit="10.433"
       font-style="normal"
       font-variant="normal"
       font-weight="normal"
       font-stretch="normal"
       font-size-adjust="none"
       letter-spacing="normal"
       word-spacing="normal"
       ns0:text="32mm"
       ns0:preamble=""
       style="font-style:normal;font-variant:normal;font-weight:normal;font-stretch:normal;letter-spacing:normal;word-spacing:normal;text-anchor:start;fill:none;stroke:#000000;stroke-linecap:butt;stroke-linejoin:miter;stroke-miterlimit:10.43299961;stroke-opacity:1;stroke-dasharray:none;stroke-dashoffset:0">
<path
   style="fill:#000000;stroke-width:0"
   inkscape:connector-curvature="0"
   d="m 226.32,710.62 0.07,0.03 0.08,0.03 0.07,0.03 0.07,0.03 0.07,0.04 0.07,0.04 0.06,0.04 0.07,0.04 0.06,0.04 0.06,0.05 0.06,0.05 0.06,0.05 0.05,0.05 0.05,0.05 0.05,0.06 0.05,0.05 0.04,0.06 0.05,0.06 0.04,0.06 0.03,0.06 0.04,0.07 0.03,0.06 0.03,0.07 0.03,0.06 0.02,0.07 0.02,0.07 0.02,0.07 0.01,0.07 0.02,0.07 0,0.07 0.01,0.08 0,0.07 c 0,0.81 -0.87,1.37 -1.83,1.37 -1,0 -1.76,-0.59 -1.76,-1.35 0,-0.33 0.22,-0.52 0.51,-0.52 0.3,0 0.5,0.22 0.5,0.51 0,0.5 -0.46,0.5 -0.61,0.5 0.3,0.48 0.96,0.61 1.32,0.61 0.41,0 0.95,-0.22 0.95,-1.11 0,-0.12 -0.02,-0.7 -0.27,-1.13 -0.3,-0.48 -0.64,-0.51 -0.89,-0.52 -0.08,-0.01 -0.32,-0.03 -0.39,-0.03 -0.08,-0.01 -0.15,-0.02 -0.15,-0.12 0,-0.11 0.07,-0.11 0.24,-0.11 h 0.44 c 0.82,0 1.18,-0.67 1.18,-1.65 0,-1.35 -0.68,-1.64 -1.12,-1.64 -0.43,0 -1.17,0.17 -1.52,0.76 0.35,-0.05 0.65,0.17 0.65,0.55 0,0.35 -0.26,0.55 -0.55,0.55 -0.24,0 -0.56,-0.14 -0.56,-0.57 0,-0.91 0.92,-1.56 2.01,-1.56 1.21,0 2.12,0.9 2.12,1.91 0,0.82 -0.63,1.59 -1.66,1.8 z"
   id="path3491" />
<path
   style="fill:#000000;stroke-width:0"
   inkscape:connector-curvature="0"
   d="m 229.68,707.89 1.05,1.02 c 1.55,1.37 2.15,1.91 2.15,2.9 0,1.14 -0.89,1.93 -2.11,1.93 -1.12,0 -1.86,-0.91 -1.86,-1.8 0,-0.55 0.5,-0.55 0.53,-0.55 0.17,0 0.52,0.12 0.52,0.52 0,0.26 -0.18,0.52 -0.53,0.52 -0.08,0 -0.1,0 -0.13,-0.01 0.23,0.65 0.77,1.01 1.34,1.01 0.91,0 1.34,-0.8 1.34,-1.62 0,-0.79 -0.5,-1.58 -1.05,-2.19 l -1.91,-2.13 c -0.11,-0.11 -0.11,-0.13 -0.11,-0.36 h 3.69 l 0.28,1.72 h -0.25 c -0.05,-0.3 -0.12,-0.73 -0.22,-0.88 -0.07,-0.08 -0.72,-0.08 -0.94,-0.08 z"
   id="path3493" />
<path
   style="fill:#000000;stroke-width:0"
   inkscape:connector-curvature="0"
   d="m 234.49,710.54 v -2.66 c 0,-0.45 -0.11,-0.45 -0.78,-0.45 v -0.3 c 0.35,0.01 0.86,0.03 1.13,0.03 0.26,0 0.77,-0.02 1.11,-0.03 v 0.3 c -0.66,0 -0.77,0 -0.77,0.45 v 1.83 c 0,1.03 0.7,1.59 1.34,1.59 0.63,0 0.74,-0.54 0.74,-1.1 v -2.32 c 0,-0.45 -0.11,-0.45 -0.78,-0.45 v -0.3 c 0.35,0.01 0.85,0.03 1.12,0.03 0.26,0 0.78,-0.02 1.12,-0.03 v 0.3 c -0.67,0 -0.78,0 -0.78,0.45 v 1.83 c 0,1.03 0.71,1.59 1.35,1.59 0.62,0 0.73,-0.54 0.73,-1.1 v -2.32 c 0,-0.45 -0.11,-0.45 -0.78,-0.45 v -0.3 c 0.35,0.01 0.86,0.03 1.13,0.03 0.26,0 0.78,-0.02 1.11,-0.03 v 0.3 c -0.51,0 -0.76,0 -0.77,0.3 v 1.9 c 0,0.85 0,1.16 -0.31,1.52 -0.14,0.17 -0.47,0.37 -1.05,0.37 -0.83,0 -1.27,-0.6 -1.44,-0.98 -0.14,0.87 -0.87,0.98 -1.32,0.98 -0.73,0 -1.2,-0.43 -1.47,-1.05 v 1.05 l -1.41,-0.11 v -0.31 c 0.7,0 0.78,-0.07 0.78,-0.56 z"
   id="path3495" />
<path
   style="fill:#000000;stroke-width:0"
   inkscape:connector-curvature="0"
   d="m 242.79,710.54 v -2.66 c 0,-0.45 -0.11,-0.45 -0.78,-0.45 v -0.3 c 0.35,0.01 0.86,0.03 1.13,0.03 0.26,0 0.77,-0.02 1.11,-0.03 v 0.3 c -0.66,0 -0.77,0 -0.77,0.45 v 1.83 c 0,1.03 0.7,1.59 1.34,1.59 0.63,0 0.74,-0.54 0.74,-1.1 v -2.32 c 0,-0.45 -0.11,-0.45 -0.78,-0.45 v -0.3 c 0.35,0.01 0.86,0.03 1.12,0.03 0.26,0 0.78,-0.02 1.12,-0.03 v 0.3 c -0.67,0 -0.78,0 -0.78,0.45 v 1.83 c 0,1.03 0.71,1.59 1.35,1.59 0.62,0 0.73,-0.54 0.73,-1.1 v -2.32 c 0,-0.45 -0.11,-0.45 -0.77,-0.45 v -0.3 c 0.35,0.01 0.85,0.03 1.12,0.03 0.26,0 0.78,-0.02 1.12,-0.03 v 0.3 c -0.52,0 -0.77,0 -0.78,0.3 v 1.9 c 0,0.85 0,1.16 -0.31,1.52 -0.14,0.17 -0.47,0.37 -1.04,0.37 -0.84,0 -1.28,-0.6 -1.45,-0.98 -0.14,0.87 -0.87,0.98 -1.32,0.98 -0.73,0 -1.19,-0.43 -1.47,-1.05 v 1.05 l -1.41,-0.11 v -0.31 c 0.7,0 0.78,-0.07 0.78,-0.56 z"
   id="path3497" />
</g>    <g
       style="font-style:normal;font-variant:normal;font-weight:normal;font-stretch:normal;letter-spacing:normal;word-spacing:normal;text-anchor:start;fill:none;stroke:#000000;stroke-linecap:butt;stroke-linejoin:miter;stroke-miterlimit:10.43299961;stroke-opacity:1;stroke-dasharray:none;stroke-dashoffset:0"
       ns0:preamble=""
       ns0:text="\\O40mm"
       word-spacing="normal"
       letter-spacing="normal"
       font-size-adjust="none"
       font-stretch="normal"
       font-weight="normal"
       font-variant="normal"
       font-style="normal"
       stroke-miterlimit="10.433"
       xml:space="preserve"
       transform="matrix(1.25,0,0,-1.25,-199.88418,1917.344)"
       id="g3628">
<path
   id="path3630"
   d="m 230.05,714.33 -0.21,0.14 -0.59,-0.87 c -0.02,-0.04 -0.07,-0.1 -0.09,-0.1 -0.01,0 -0.02,0 -0.07,0.05 -0.24,0.15 -0.86,0.58 -1.8,0.58 v -0.22 c 0.92,0 1.47,-0.56 1.65,-0.75 l -3.46,-5.07 c -0.35,0.49 -0.6,1.13 -0.6,2.4 0,0.56 0.02,1.54 0.51,2.32 0.47,0.74 1.21,1.1 1.9,1.1 v 0.22 c -1.78,0 -3.3,-1.59 -3.3,-3.64 0,-1.48 0.8,-2.43 1.23,-2.79 l -0.59,-0.88 -0.08,-0.11 0.19,-0.14 0.6,0.86 c 0.01,0.02 0.06,0.09 0.08,0.09 0.01,0 0.02,0 0.08,-0.04 0.73,-0.49 1.37,-0.57 1.79,-0.57 l 0.01,0.22 c -0.62,0 -1.22,0.26 -1.65,0.75 l 3.45,5.07 c 0.57,-0.76 0.62,-1.82 0.62,-2.46 0,-0.5 -0.02,-1.57 -0.58,-2.37 -0.43,-0.62 -1.12,-0.99 -1.84,-0.99 l -0.01,-0.22 c 1.81,0 3.31,1.58 3.31,3.58 0,1.23 -0.49,2.14 -1.24,2.83 z"
   inkscape:connector-curvature="0"
   style="fill:#000000;stroke-width:0" />
<path
   id="path3632"
   d="m 234.11,708.76 v -0.86 c 0,-0.36 -0.02,-0.47 -0.76,-0.47 h -0.21 v -0.3 c 0.41,0.03 0.93,0.03 1.34,0.03 0.42,0 0.95,0 1.36,-0.03 v 0.3 h -0.21 c -0.74,0 -0.76,0.11 -0.76,0.47 v 0.86 h 1 v 0.31 h -1 v 4.52 c 0,0.2 0,0.26 -0.16,0.26 -0.09,0 -0.12,0 -0.2,-0.12 l -3.05,-4.66 h 0.28 l 2.43,3.71 v -3.71 h -2.43 -0.28 v -0.31 z"
   inkscape:connector-curvature="0"
   style="fill:#000000;stroke-width:0" />
<path
   id="path3634"
   d="m 240.74,710.3 0,0.15 0,0.15 -0.01,0.15 0,0.15 -0.01,0.15 -0.02,0.14 -0.01,0.15 -0.02,0.15 -0.02,0.14 -0.03,0.15 -0.03,0.14 -0.04,0.15 -0.04,0.14 -0.05,0.14 -0.06,0.14 -0.03,0.07 -0.03,0.07 c -0.46,0.95 -1.27,1.11 -1.69,1.11 -0.6,0 -1.32,-0.26 -1.73,-1.18 -0.32,-0.69 -0.37,-1.46 -0.37,-2.26 0,-0.74 0.04,-1.64 0.45,-2.39 0.43,-0.81 1.15,-1 1.64,-1 v 0.22 c -0.39,0 -0.98,0.24 -1.15,1.2 -0.11,0.59 -0.11,1.51 -0.11,2.09 0,0.64 0,1.29 0.08,1.83 0.19,1.18 0.93,1.27 1.18,1.27 0.33,0 0.99,-0.18 1.17,-1.16 0.1,-0.56 0.1,-1.31 0.1,-1.94 0,-0.74 0,-1.42 -0.11,-2.05 -0.15,-0.95 -0.71,-1.24 -1.16,-1.24 h 0 v -0.22 c 0.54,0 1.29,0.2 1.73,1.15 0.32,0.68 0.37,1.46 0.37,2.24 z"
   inkscape:connector-curvature="0"
   style="fill:#000000;stroke-width:0" />
<path
   id="path3636"
   d="m 242.24,710.54 v -2.66 c 0,-0.45 -0.11,-0.45 -0.78,-0.45 v -0.3 c 0.35,0.01 0.86,0.03 1.13,0.03 0.26,0 0.77,-0.02 1.11,-0.03 v 0.3 c -0.67,0 -0.78,0 -0.78,0.45 v 1.83 c 0,1.03 0.71,1.59 1.35,1.59 0.62,0 0.73,-0.54 0.73,-1.1 v -2.32 c 0,-0.45 -0.11,-0.45 -0.77,-0.45 v -0.3 c 0.35,0.01 0.85,0.03 1.12,0.03 0.26,0 0.78,-0.02 1.12,-0.03 v 0.3 c -0.67,0 -0.78,0 -0.78,0.45 v 1.83 c 0,1.03 0.71,1.59 1.34,1.59 0.63,0 0.74,-0.54 0.74,-1.1 v -2.32 c 0,-0.45 -0.11,-0.45 -0.78,-0.45 v -0.3 c 0.35,0.01 0.86,0.03 1.13,0.03 0.26,0 0.77,-0.02 1.11,-0.03 v 0.3 c -0.52,0 -0.76,0 -0.77,0.3 v 1.9 c 0,0.85 0,1.16 -0.31,1.52 -0.14,0.17 -0.47,0.37 -1.05,0.37 -0.83,0 -1.27,-0.6 -1.44,-0.98 -0.14,0.87 -0.87,0.98 -1.32,0.98 -0.73,0 -1.2,-0.43 -1.47,-1.05 v 1.05 l -1.41,-0.11 v -0.31 c 0.7,0 0.78,-0.07 0.78,-0.56 z"
   inkscape:connector-curvature="0"
   style="fill:#000000;stroke-width:0" />
<path
   id="path3638"
   d="m 250.54,710.54 v -2.66 c 0,-0.45 -0.11,-0.45 -0.78,-0.45 v -0.3 c 0.35,0.01 0.86,0.03 1.13,0.03 0.26,0 0.77,-0.02 1.11,-0.03 v 0.3 c -0.66,0 -0.77,0 -0.77,0.45 v 1.83 c 0,1.03 0.7,1.59 1.34,1.59 0.63,0 0.74,-0.54 0.74,-1.1 v -2.32 c 0,-0.45 -0.11,-0.45 -0.78,-0.45 v -0.3 c 0.35,0.01 0.85,0.03 1.12,0.03 0.26,0 0.78,-0.02 1.12,-0.03 v 0.3 c -0.67,0 -0.78,0 -0.78,0.45 v 1.83 c 0,1.03 0.71,1.59 1.35,1.59 0.62,0 0.73,-0.54 0.73,-1.1 v -2.32 c 0,-0.45 -0.11,-0.45 -0.78,-0.45 v -0.3 c 0.35,0.01 0.86,0.03 1.13,0.03 0.26,0 0.78,-0.02 1.11,-0.03 v 0.3 c -0.51,0 -0.76,0 -0.77,0.3 v 1.9 c 0,0.85 0,1.16 -0.31,1.52 -0.14,0.17 -0.47,0.37 -1.05,0.37 -0.83,0 -1.27,-0.6 -1.44,-0.98 -0.14,0.87 -0.87,0.98 -1.32,0.98 -0.73,0 -1.19,-0.43 -1.47,-1.05 v 1.05 l -1.41,-0.11 v -0.31 c 0.7,0 0.78,-0.07 0.78,-0.56 z"
   inkscape:connector-curvature="0"
   style="fill:#000000;stroke-width:0" />
</g>  </g>
</svg>
