<?xml version="1.0" encoding="UTF-8" standalone="no"?>
<!-- Created with Inkscape (http://www.inkscape.org/) -->

<svg
   xmlns:ns0="http://www.iki.fi/pav/software/textext/"
   xmlns:dc="http://purl.org/dc/elements/1.1/"
   xmlns:cc="http://creativecommons.org/ns#"
   xmlns:rdf="http://www.w3.org/1999/02/22-rdf-syntax-ns#"
   xmlns:svg="http://www.w3.org/2000/svg"
   xmlns="http://www.w3.org/2000/svg"
   xmlns:xlink="http://www.w3.org/1999/xlink"
   xmlns:sodipodi="http://sodipodi.sourceforge.net/DTD/sodipodi-0.dtd"
   xmlns:inkscape="http://www.inkscape.org/namespaces/inkscape"
   width="283.46457"
   height="177.16534"
   id="svg3041"
   version="1.1"
   inkscape:version="0.48.2 r9819"
   sodipodi:docname="kracht_gebogen_oppervlak.svg">
  <sodipodi:namedview
     id="base"
     pagecolor="#ffffff"
     bordercolor="#666666"
     borderopacity="1.0"
     inkscape:pageopacity="0.0"
     inkscape:pageshadow="2"
     inkscape:zoom="1.979899"
     inkscape:cx="67.689263"
     inkscape:cy="104.25548"
     inkscape:document-units="mm"
     inkscape:current-layer="layer1"
     showgrid="false"
     inkscape:window-width="1366"
     inkscape:window-height="706"
     inkscape:window-x="-8"
     inkscape:window-y="-8"
     inkscape:window-maximized="1"
     units="mm">
    <inkscape:grid
       type="xygrid"
       id="grid2992"
       empspacing="5"
       visible="true"
       enabled="true"
       snapvisiblegridlinesonly="true"
       units="mm"
       spacingx="1mm"
       spacingy="1mm" />
  </sodipodi:namedview>
  <defs
     id="defs3043">
    <marker
       inkscape:stockid="Arrow1Mstart"
       orient="auto"
       refY="0"
       refX="0"
       id="Arrow1Mstart"
       style="overflow:visible">
      <path
         inkscape:connector-curvature="0"
         id="path6290"
         d="M 0,0 5,-5 -12.5,0 5,5 0,0 z"
         style="fill-rule:evenodd;stroke:#000000;stroke-width:1pt;marker-start:none"
         transform="matrix(0.4,0,0,0.4,4,0)" />
    </marker>
    <marker
       inkscape:stockid="Arrow1Mend"
       orient="auto"
       refY="0"
       refX="0"
       id="Arrow1Mend"
       style="overflow:visible">
      <path
         id="path3773"
         d="M 0,0 5,-5 -12.5,0 5,5 0,0 z"
         style="fill-rule:evenodd;stroke:#000000;stroke-width:1pt;marker-start:none"
         transform="matrix(-0.4,0,0,-0.4,-4,0)"
         inkscape:connector-curvature="0" />
    </marker>
    <marker
       inkscape:stockid="Arrow1Mend"
       orient="auto"
       refY="0"
       refX="0"
       id="marker3045"
       style="overflow:visible">
      <path
         id="path3047"
         d="M 0,0 5,-5 -12.5,0 5,5 0,0 z"
         style="fill-rule:evenodd;stroke:#000000;stroke-width:1pt;marker-start:none"
         transform="matrix(-0.4,0,0,-0.4,-4,0)"
         inkscape:connector-curvature="0" />
    </marker>
    <marker
       inkscape:stockid="Arrow1Mend"
       orient="auto"
       refY="0"
       refX="0"
       id="marker3049"
       style="overflow:visible">
      <path
         id="path3051"
         d="M 0,0 5,-5 -12.5,0 5,5 0,0 z"
         style="fill-rule:evenodd;stroke:#000000;stroke-width:1pt;marker-start:none"
         transform="matrix(-0.4,0,0,-0.4,-4,0)"
         inkscape:connector-curvature="0" />
    </marker>
    <linearGradient
       inkscape:collect="always"
       xlink:href="#linearGradient6221"
       id="linearGradient6227"
       x1="141.73228"
       y1="354.33069"
       x2="141.73228"
       y2="124.01572"
       gradientUnits="userSpaceOnUse"
       gradientTransform="matrix(1,0,0,0.94119673,-8.4925434,738.29914)" />
    <linearGradient
       id="linearGradient6221">
      <stop
         style="stop-color:#cccccc;stop-opacity:1;"
         offset="0"
         id="stop6223" />
      <stop
         style="stop-color:#cccccc;stop-opacity:0.58823532;"
         offset="1"
         id="stop6225" />
    </linearGradient>
    <linearGradient
       y2="124.01572"
       x2="141.73228"
       y1="354.33069"
       x1="141.73228"
       gradientTransform="matrix(1.0741566,0,0,0.82567053,-10.599511,776.51268)"
       gradientUnits="userSpaceOnUse"
       id="linearGradient3075"
       xlink:href="#linearGradient6221"
       inkscape:collect="always" />
    <marker
       inkscape:stockid="Arrow1Mend"
       orient="auto"
       refY="0"
       refX="0"
       id="Arrow1Mend-1"
       style="overflow:visible">
      <path
         id="path3773-7"
         d="M 0,0 5,-5 -12.5,0 5,5 0,0 z"
         style="fill-rule:evenodd;stroke:#000000;stroke-width:1pt;marker-start:none"
         transform="matrix(-0.4,0,0,-0.4,-4,0)"
         inkscape:connector-curvature="0" />
    </marker>
    <marker
       inkscape:stockid="Arrow1Mend"
       orient="auto"
       refY="0"
       refX="0"
       id="Arrow1Mend-4"
       style="overflow:visible">
      <path
         id="path3773-0"
         d="M 0,0 5,-5 -12.5,0 5,5 0,0 z"
         style="fill-rule:evenodd;stroke:#000000;stroke-width:1pt;marker-start:none"
         transform="matrix(-0.4,0,0,-0.4,-4,0)"
         inkscape:connector-curvature="0" />
    </marker>
    <marker
       inkscape:stockid="Arrow1Mend"
       orient="auto"
       refY="0"
       refX="0"
       id="marker4069"
       style="overflow:visible">
      <path
         id="path4071"
         d="M 0,0 5,-5 -12.5,0 5,5 0,0 z"
         style="fill-rule:evenodd;stroke:#000000;stroke-width:1pt;marker-start:none"
         transform="matrix(-0.4,0,0,-0.4,-4,0)"
         inkscape:connector-curvature="0" />
    </marker>
    <marker
       inkscape:stockid="Arrow1Mend"
       orient="auto"
       refY="0"
       refX="0"
       id="marker4073"
       style="overflow:visible">
      <path
         id="path4075"
         d="M 0,0 5,-5 -12.5,0 5,5 0,0 z"
         style="fill-rule:evenodd;stroke:#000000;stroke-width:1pt;marker-start:none"
         transform="matrix(-0.4,0,0,-0.4,-4,0)"
         inkscape:connector-curvature="0" />
    </marker>
    <marker
       inkscape:stockid="Arrow1Mend"
       orient="auto"
       refY="0"
       refX="0"
       id="marker4077"
       style="overflow:visible">
      <path
         id="path4079"
         d="M 0,0 5,-5 -12.5,0 5,5 0,0 z"
         style="fill-rule:evenodd;stroke:#000000;stroke-width:1pt;marker-start:none"
         transform="matrix(-0.4,0,0,-0.4,-4,0)"
         inkscape:connector-curvature="0" />
    </marker>
    <marker
       inkscape:stockid="Arrow1Mend"
       orient="auto"
       refY="0"
       refX="0"
       id="marker4081"
       style="overflow:visible">
      <path
         id="path4083"
         d="M 0,0 5,-5 -12.5,0 5,5 0,0 z"
         style="fill-rule:evenodd;stroke:#000000;stroke-width:1pt;marker-start:none"
         transform="matrix(-0.4,0,0,-0.4,-4,0)"
         inkscape:connector-curvature="0" />
    </marker>
    <marker
       inkscape:stockid="Arrow1Mend"
       orient="auto"
       refY="0"
       refX="0"
       id="marker4085"
       style="overflow:visible">
      <path
         id="path4087"
         d="M 0,0 5,-5 -12.5,0 5,5 0,0 z"
         style="fill-rule:evenodd;stroke:#000000;stroke-width:1pt;marker-start:none"
         transform="matrix(-0.4,0,0,-0.4,-4,0)"
         inkscape:connector-curvature="0" />
    </marker>
  </defs>
  <metadata
     id="metadata3046">
    <rdf:RDF>
      <cc:Work
         rdf:about="">
        <dc:format>image/svg+xml</dc:format>
        <dc:type
           rdf:resource="http://purl.org/dc/dcmitype/StillImage" />
        <dc:title />
      </cc:Work>
    </rdf:RDF>
  </metadata>
  <g
     inkscape:label="Laag 1"
     inkscape:groupmode="layer"
     id="layer1"
     transform="translate(0,-875.19677)">
    <path
       style="fill:url(#linearGradient3075);fill-opacity:1;stroke:none"
       d="m 8.4308207,878.90882 265.7480393,0 c 0,0 5.4253,45.63103 0,80.18011 -3.80086,24.20435 3.80607,87.03487 3.80607,87.03487 0,0 -110.78889,5.0741 -154.91358,1.251 -43.319059,-3.7533 -113.6812203,-2.9192 -113.6812203,-2.9192 0,0 -5.961256,-48.77636 -0.959309,-77.77865 6.6460073,-38.53489 0,-87.76813 0,-87.76813 z"
       id="path6203"
       inkscape:connector-curvature="0"
       sodipodi:nodetypes="ccscscsc" />
    <g
       id="g6251"
       transform="translate(18.399266,54.759668)">
      <path
         inkscape:connector-curvature="0"
         id="path6205"
         d="m -10.000012,824.19004 265.748032,0"
         style="fill:none;stroke:#000000;stroke-width:0.70866144;stroke-linecap:butt;stroke-linejoin:miter;stroke-miterlimit:4;stroke-opacity:1;stroke-dasharray:none"
         sodipodi:nodetypes="cc" />
      <path
         inkscape:connector-curvature="0"
         id="path6207"
         d="m 202.59843,827.73334 53.1496,0"
         style="fill:none;stroke:#000000;stroke-width:0.35433072;stroke-linecap:butt;stroke-linejoin:miter;stroke-miterlimit:4;stroke-opacity:1;stroke-dasharray:none" />
      <path
         style="fill:none;stroke:#000000;stroke-width:0.35433072;stroke-linecap:butt;stroke-linejoin:miter;stroke-miterlimit:4;stroke-opacity:1;stroke-dasharray:none"
         d="m 220.31496,831.27665 35.43307,0"
         id="path6209"
         inkscape:connector-curvature="0" />
      <path
         inkscape:connector-curvature="0"
         id="path6211"
         d="m 238.03149,834.81996 17.71654,0"
         style="fill:none;stroke:#000000;stroke-width:0.35433072;stroke-linecap:butt;stroke-linejoin:miter;stroke-miterlimit:4;stroke-opacity:1;stroke-dasharray:none" />
    </g>
    <path
       inkscape:transform-center-x="14.83053"
       style="fill:none;stroke:#000000;stroke-width:1.41732287;stroke-linecap:butt;stroke-linejoin:miter;stroke-miterlimit:4;stroke-opacity:1;stroke-dasharray:none;marker-end:url(#Arrow1Mend)"
       d="m 102.79618,893.69194 30.01352,52.16895"
       id="path3210"
       inkscape:connector-curvature="0"
       inkscape:transform-center-y="-25.647419"
       sodipodi:nodetypes="cc" />
    <path
       style="fill:none;stroke:#000000;stroke-width:0.70866144;stroke-linecap:butt;stroke-linejoin:miter;stroke-miterlimit:4;stroke-opacity:1;stroke-dasharray:none"
       d="m 67.68022,1012.4611 c -5.694996,-37.13171 25.617795,-94.37497 63.6396,-105.05588 30.10058,-1.60101 71.92136,4.83662 85.86297,19.69798 -31.38095,15.30409 -48.94531,56.28568 -44.95179,92.4289 -25.59053,-10.7749 -80.307118,-16.4991 -104.55078,-7.071 z"
       id="path3048"
       inkscape:connector-curvature="0"
       sodipodi:nodetypes="ccccc" />
    <path
       style="fill:none;stroke:#000000;stroke-width:0.70866144;stroke-linecap:butt;stroke-linejoin:miter;stroke-miterlimit:4;stroke-opacity:1;stroke-dasharray:none"
       d="m 125.76399,951.09432 c 1.76204,-4.13052 4.55143,-7.23368 8.33376,-9.34391 4.68595,-0.42084 7.98447,1.23945 11.36421,2.77792 -3.34353,1.72176 -5.26564,3.25711 -7.57615,7.95496 -4.62986,-2.04948 -7.49196,-1.31925 -12.12182,-1.38897 z"
       id="path3050"
       inkscape:connector-curvature="0"
       sodipodi:nodetypes="ccccc" />
    <path
       sodipodi:nodetypes="cc"
       inkscape:transform-center-y="5.2806112"
       inkscape:connector-curvature="0"
       id="path3894"
       d="M 137.8513,944.94302 131.70036,933.8462"
       style="fill:none;stroke:#000000;stroke-width:0.70866144;stroke-linecap:butt;stroke-linejoin:miter;stroke-miterlimit:4;stroke-opacity:1;stroke-dasharray:none;marker-end:url(#Arrow1Mend)"
       inkscape:transform-center-x="-2.9742197" />
    <path
       inkscape:transform-center-x="8.359851"
       style="fill:none;stroke:#000000;stroke-width:0.70866144;stroke-linecap:butt;stroke-linejoin:miter;stroke-miterlimit:4;stroke-opacity:1;stroke-dasharray:none;marker-end:url(#Arrow1Mend)"
       d="m 31.543212,963.52406 17.379672,-2.91758"
       id="path3900"
       inkscape:connector-curvature="0"
       inkscape:transform-center-y="1.1989358"
       sodipodi:nodetypes="cc" />
    <g
       style="font-style:normal;font-variant:normal;font-weight:normal;font-stretch:normal;letter-spacing:normal;word-spacing:normal;text-anchor:start;fill:none;stroke:#000000;stroke-linecap:butt;stroke-linejoin:miter;stroke-miterlimit:10.43299961;stroke-opacity:1;stroke-dasharray:none;stroke-dashoffset:0"
       id="content"
       transform="matrix(1.25,0,0,-1.25,-171.07143,1780.7143)"
       xml:space="preserve"
       stroke-miterlimit="10.433"
       font-style="normal"
       font-variant="normal"
       font-weight="normal"
       font-stretch="normal"
       font-size-adjust="none"
       letter-spacing="normal"
       word-spacing="normal"
       ns0:text="$\\vt{\\diff F}$"
       ns0:preamble="D:\\Onderwijs\\FLUI\\Cursus\\FLUI_theorie\\tex\\commands.tex">
<path
   style="fill:#000000;stroke-width:0"
   inkscape:connector-curvature="0"
   d="m 227.59,707.55 v -0.48 l 1.82,0.06 v 0.46 c -0.62,0 -0.68,0 -0.68,0.39 v 6.04 l -1.77,-0.08 v -0.47 c 0.62,0 0.69,0 0.69,-0.38 v -1.94 c -0.5,0.39 -1.01,0.44 -1.34,0.44 l 0.1,-0.35 c 0.56,0 0.96,-0.32 1.18,-0.61 h 0 v -2.48 c -0.13,-0.18 -0.54,-0.73 -1.29,-0.73 -1.22,0 -1.22,1.21 -1.22,1.9 0,0.48 0,1.01 0.26,1.4 0.29,0.42 0.76,0.52 1.07,0.52 l -0.1,0.35 c -1.46,0 -2.5,-0.87 -2.5,-2.27 0,-1.31 0.92,-2.25 2.39,-2.25 0.6,0 1.08,0.23 1.39,0.48 z"
   id="path3093" />
<path
   style="fill:#000000;stroke-width:0"
   inkscape:connector-curvature="0"
   d="m 233.44,710.27 h 0.65 c 0.59,0 0.76,-0.1 0.76,-0.42 0,-0.11 -0.03,-0.3 -0.06,-0.42 -0.02,-0.07 -0.03,-0.12 -0.03,-0.14 0,-0.15 0.13,-0.18 0.23,-0.18 0.19,0 0.2,0.06 0.25,0.24 l 0.56,2.22 c 0.04,0.13 0.04,0.14 0.04,0.15 0,0.18 -0.2,0.18 -0.24,0.18 -0.19,0 -0.21,-0.07 -0.26,-0.25 -0.2,-0.76 -0.51,-0.91 -1.22,-0.91 h -0.56 l 0.65,2.65 c 0.13,0.02 0.24,0.02 0.34,0.02 h 1.19 c 1.13,0 1.48,-0.28 1.48,-1.16 0,-0.24 -0.04,-0.54 -0.04,-0.58 0,-0.18 0.19,-0.18 0.24,-0.18 0.21,0 0.22,0.1 0.24,0.27 l 0.18,1.78 0.01,0.16 c 0,0.18 -0.17,0.18 -0.33,0.18 h -5.36 c -0.2,0 -0.21,-0.01 -0.26,-0.05 -0.07,-0.05 -0.09,-0.23 -0.09,-0.24 0,-0.18 0.14,-0.18 0.4,-0.18 0.21,0 0.4,-0.01 0.61,-0.02 l -1.4,-5.6 c -0.04,-0.16 -0.05,-0.17 -0.23,-0.19 -0.17,-0.01 -0.37,-0.01 -0.53,-0.01 -0.26,0 -0.28,0 -0.32,-0.02 -0.11,-0.07 -0.11,-0.23 -0.11,-0.27 0,-0.01 0,-0.17 0.21,-0.17 0.25,0 0.51,0.02 0.76,0.02 0.27,0 0.54,0.01 0.81,0.01 0.29,0 0.59,-0.01 0.89,-0.01 0.29,0 0.58,-0.02 0.86,-0.02 0.12,0 0.29,0 0.29,0.28 0,0.18 -0.16,0.18 -0.32,0.18 h -0.33 c -0.38,0 -0.53,0.02 -0.63,0.04 z"
   id="path3095" />
</g>    <g
       style="font-style:normal;font-variant:normal;font-weight:normal;font-stretch:normal;letter-spacing:normal;word-spacing:normal;text-anchor:start;fill:none;stroke:#000000;stroke-linecap:butt;stroke-linejoin:miter;stroke-miterlimit:10.43299961;stroke-opacity:1;stroke-dasharray:none;stroke-dashoffset:0"
       ns0:preamble="D:\\Onderwijs\\FLUI\\Cursus\\FLUI_theorie\\tex\\commands.tex"
       ns0:text="$\\vt{n}$"
       word-spacing="normal"
       letter-spacing="normal"
       font-size-adjust="none"
       font-stretch="normal"
       font-weight="normal"
       font-variant="normal"
       font-style="normal"
       stroke-miterlimit="10.433"
       xml:space="preserve"
       transform="matrix(1.25,0,0,-1.25,-143.57143,1819.2857)"
       id="g3231">
<path
   id="path3233"
   d="m 226.22,710.86 -0.02,0.05 -0.01,0.04 -0.02,0.04 -0.02,0.05 -0.03,0.04 -0.02,0.03 -0.03,0.04 -0.03,0.04 -0.03,0.03 -0.03,0.04 -0.03,0.03 -0.04,0.03 -0.04,0.03 -0.03,0.02 -0.04,0.03 -0.05,0.02 -0.04,0.03 -0.04,0.02 -0.04,0.02 -0.05,0.02 -0.05,0.01 -0.04,0.02 -0.05,0.01 -0.05,0.02 -0.05,0.01 -0.05,0.01 -0.05,0.01 -0.04,0 -0.06,0.01 -0.05,0 -0.05,0 -0.05,0 c -0.36,0 -0.64,-0.2 -0.86,-0.56 -0.25,-0.4 -0.38,-0.94 -0.38,-0.98 0,-0.14 0.15,-0.14 0.24,-0.14 0.11,0 0.15,0 0.2,0.05 0.02,0.02 0.02,0.04 0.08,0.28 0.2,0.78 0.42,1 0.67,1 0.15,0 0.23,-0.1 0.23,-0.37 0,-0.17 -0.04,-0.33 -0.14,-0.73 -0.07,-0.27 -0.16,-0.67 -0.21,-0.89 l -0.36,-1.39 c -0.03,-0.14 -0.08,-0.33 -0.08,-0.4 0,-0.21 0.16,-0.43 0.47,-0.43 0.51,0 0.63,0.45 0.7,0.75 0.1,0.37 0.18,0.69 0.28,1.11 0.04,0.13 0.29,1.16 0.31,1.18 0.01,0.07 0.29,0.51 0.62,0.78 0.27,0.22 0.6,0.39 1.02,0.39 0.26,0 0.5,-0.1 0.5,-0.59 0,-0.57 -0.44,-1.73 -0.63,-2.22 -0.11,-0.27 -0.14,-0.34 -0.14,-0.51 0,-0.58 0.58,-0.89 1.12,-0.89 1.06,0 1.56,1.35 1.56,1.54 0,0.14 -0.15,0.14 -0.24,0.14 -0.12,0 -0.19,0 -0.23,-0.13 -0.33,-1.1 -0.87,-1.2 -1.02,-1.2 -0.07,0 -0.17,0 -0.17,0.21 0,0.23 0.1,0.48 0.2,0.73 0.15,0.4 0.61,1.57 0.61,2.12 0,0.92 -0.76,1.15 -1.48,1.15 -0.21,0 -0.94,0 -1.64,-0.75 z"
   inkscape:connector-curvature="0"
   style="fill:#000000;stroke-width:0" />
</g>    <g
       id="g3367"
       transform="matrix(1.25,0,0,-1.25,-233.92857,1840.3572)"
       xml:space="preserve"
       stroke-miterlimit="10.433"
       font-style="normal"
       font-variant="normal"
       font-weight="normal"
       font-stretch="normal"
       font-size-adjust="none"
       letter-spacing="normal"
       word-spacing="normal"
       ns0:text="$\\vt{r}$"
       ns0:preamble="D:\\Onderwijs\\FLUI\\Cursus\\FLUI_theorie\\tex\\commands.tex"
       style="font-style:normal;font-variant:normal;font-weight:normal;font-stretch:normal;letter-spacing:normal;word-spacing:normal;text-anchor:start;fill:none;stroke:#000000;stroke-linecap:butt;stroke-linejoin:miter;stroke-miterlimit:10.43299961;stroke-opacity:1;stroke-dasharray:none;stroke-dashoffset:0">
<path
   style="fill:#000000;stroke-width:0"
   inkscape:connector-curvature="0"
   d="m 227.85,711.12 -0.03,-0.01 -0.02,0 -0.02,-0.01 -0.03,-0.01 -0.02,0 -0.02,-0.01 -0.02,-0.01 -0.02,-0.01 -0.02,-0.01 -0.02,-0.01 -0.02,-0.01 -0.02,-0.01 -0.03,-0.02 -0.04,-0.02 -0.03,-0.03 -0.02,-0.02 -0.03,-0.03 -0.02,-0.02 -0.02,-0.03 -0.02,-0.03 -0.02,-0.03 -0.02,-0.02 -0.01,-0.03 -0.02,-0.03 -0.01,-0.03 -0.01,-0.02 -0.01,-0.03 -0.01,-0.02 0,-0.03 -0.01,-0.02 0,-0.02 -0.01,-0.03 0,-0.02 0,-0.01 -0.01,-0.02 0,-0.01 0,-0.02 0,-0.01 c 0,-0.22 0.17,-0.45 0.5,-0.45 0.34,0 0.72,0.27 0.72,0.78 0,0.46 -0.36,0.86 -0.98,0.86 -0.56,0 -1.02,-0.27 -1.32,-0.59 -0.24,0.46 -0.81,0.59 -1.17,0.59 -0.36,0 -0.64,-0.2 -0.86,-0.56 -0.24,-0.39 -0.38,-0.92 -0.38,-0.98 0,-0.14 0.15,-0.14 0.24,-0.14 0.11,0 0.15,0 0.2,0.05 0.02,0.02 0.02,0.04 0.08,0.28 0.19,0.76 0.41,1 0.67,1 0.15,0 0.23,-0.1 0.23,-0.36 0,-0.18 -0.03,-0.29 -0.14,-0.75 -0.05,-0.17 -0.21,-0.83 -0.27,-1.08 -0.05,-0.19 -0.15,-0.63 -0.2,-0.81 -0.06,-0.26 -0.18,-0.71 -0.18,-0.78 0,-0.21 0.16,-0.43 0.47,-0.43 0.19,0 0.54,0.11 0.65,0.52 0.01,0.03 0.69,2.73 0.7,2.79 0.04,0.15 0.04,0.17 0.17,0.32 0.23,0.29 0.59,0.58 1.09,0.58 0.25,0 0.36,-0.11 0.39,-0.14 z"
   id="path3369" />
</g>    <g
       style="font-style:normal;font-variant:normal;font-weight:normal;font-stretch:normal;letter-spacing:normal;word-spacing:normal;text-anchor:start;fill:none;stroke:#000000;stroke-linecap:butt;stroke-linejoin:miter;stroke-miterlimit:10.43299961;stroke-opacity:1;stroke-dasharray:none;stroke-dashoffset:0"
       ns0:preamble="D:\\Onderwijs\\FLUI\\Cursus\\FLUI_theorie\\tex\\commands.tex"
       ns0:text="$\\diff A$"
       word-spacing="normal"
       letter-spacing="normal"
       font-size-adjust="none"
       font-stretch="normal"
       font-weight="normal"
       font-variant="normal"
       font-style="normal"
       stroke-miterlimit="10.433"
       xml:space="preserve"
       transform="matrix(1.25,0,0,-1.25,-150,1847.8572)"
       id="g3503">
<path
   id="path3505"
   d="m 227.21,707.67 v -0.65 l 1.47,0.11 v 0.3 c -0.7,0 -0.78,0.07 -0.78,0.56 v 6.03 l -1.43,-0.11 v -0.31 c 0.69,0 0.77,-0.07 0.77,-0.55 v -2.15 c -0.29,0.36 -0.71,0.62 -1.25,0.62 l 0.04,-0.22 c 0.35,0 0.76,-0.15 1.07,-0.6 0.11,-0.17 0.11,-0.19 0.11,-0.37 h 0 v -2.03 c 0,-0.18 0,-0.2 -0.11,-0.37 -0.3,-0.48 -0.74,-0.7 -1.17,-0.7 -0.45,0 -0.81,0.26 -1.05,0.64 -0.25,0.41 -0.28,0.97 -0.28,1.38 0,0.37 0.02,0.96 0.3,1.41 0.21,0.31 0.59,0.64 1.13,0.64 l -0.04,0.22 c -1.17,0 -2.22,-0.98 -2.22,-2.26 0,-1.26 0.97,-2.24 2.11,-2.24 0.64,0 1.08,0.33 1.33,0.65 z"
   inkscape:connector-curvature="0"
   style="fill:#000000;stroke-width:0" />
<path
   id="path3507"
   d="m 230.75,708.27 -0.04,-0.06 -0.04,-0.06 -0.03,-0.06 -0.04,-0.05 -0.04,-0.05 -0.04,-0.04 -0.03,-0.05 -0.04,-0.04 -0.04,-0.04 -0.03,-0.04 -0.04,-0.03 -0.04,-0.03 -0.04,-0.03 -0.03,-0.03 -0.04,-0.02 -0.04,-0.03 -0.04,-0.02 -0.03,-0.02 -0.04,-0.02 -0.04,-0.02 -0.04,-0.01 -0.04,-0.01 -0.04,-0.02 -0.04,-0.01 -0.04,-0.01 -0.03,-0.01 -0.04,0 -0.04,-0.01 -0.08,-0.01 -0.09,-0.01 c -0.12,-0.01 -0.2,-0.01 -0.2,-0.2 0,-0.06 0.05,-0.1 0.13,-0.1 0.26,0 0.57,0.03 0.85,0.03 0.33,0 0.68,-0.03 0.99,-0.03 0.06,0 0.19,0 0.19,0.18 0,0.11 -0.08,0.12 -0.16,0.12 -0.22,0.02 -0.46,0.1 -0.46,0.35 0,0.12 0.06,0.23 0.14,0.37 l 0.75,1.27 h 2.5 l -0.03,0.31 h -2.28 l 1.96,3.28 0.32,-3.28 0.03,-0.31 c 0.02,-0.21 0.16,-1.56 0.16,-1.66 0,-0.3 -0.52,-0.33 -0.72,-0.33 -0.14,0 -0.24,0 -0.24,-0.2 0,-0.1 0.12,-0.1 0.14,-0.1 0.41,0 0.84,0.03 1.25,0.03 0.25,0 0.87,-0.03 1.12,-0.03 0.06,0 0.18,0 0.18,0.19 0,0.11 -0.1,0.11 -0.23,0.11 -0.62,0 -0.62,0.07 -0.65,0.36 l -0.6,6.21 c -0.02,0.2 -0.02,0.24 -0.19,0.24 -0.16,0 -0.2,-0.07 -0.26,-0.17 z"
   inkscape:connector-curvature="0"
   style="fill:#000000;stroke-width:0" />
</g>  </g>
  <g
     inkscape:groupmode="layer"
     id="layer2"
     inkscape:label="Layer"
     style="display:none">
    <g
       transform="translate(-16.158647,-849.55223)"
       id="g4031">
      <path
         style="fill:#b3b3b3;stroke:none"
         d="m 124.01575,283.46455 c -28.346459,-53.14961 0,0 -28.346459,-53.14961 -14.914026,-27.9638 17.235639,-37.08449 38.976379,-42.51968 14.17323,-3.54331 57.07218,-14.39534 67.32283,3.5433 14.17323,24.80315 0,0 14.17323,24.80315 6.33846,11.09231 7.10406,24.79802 -7.08661,28.34646 -24.30658,6.07797 -24.09638,34.62397 -42.51969,42.51968 -24.80315,10.62993 -35.82681,9.00584 -42.51968,-3.5433 z"
         id="path4033"
         inkscape:connector-curvature="0"
         transform="translate(0,698.03145)"
         sodipodi:nodetypes="ssssssss" />
      <path
         style="fill:none;stroke:#000000;stroke-width:1px;stroke-linecap:butt;stroke-linejoin:miter;stroke-opacity:1"
         d="m 198.4252,209.0551 c -18.1753,-4.29061 -43.48779,8.05471 -56.69292,21.25984 -13.20513,13.20513 -26.06819,36.4463 -17.71653,53.14961 8.35166,16.70331 25.26635,10.68986 42.51968,3.5433 12.19995,-5.05338 19.00902,-26.09564 28.34646,-35.43307 9.33743,-9.33743 22.68792,-4.68192 24.80315,-17.71653 2.67557,-16.48763 -5.00336,-20.96551 -21.25984,-24.80315 z"
         id="path4035"
         inkscape:connector-curvature="0"
         transform="translate(0,698.03145)"
         sodipodi:nodetypes="sssssss" />
      <path
         sodipodi:nodetypes="cc"
         inkscape:transform-center-y="-13.301604"
         inkscape:connector-curvature="0"
         id="path4037"
         d="M 172.02164,883.23703 187.8307,910.7144"
         style="fill:none;stroke:#000000;stroke-width:1.41732287;stroke-linecap:butt;stroke-linejoin:miter;stroke-miterlimit:4;stroke-opacity:1;stroke-dasharray:none;marker-end:url(#Arrow1Mend)"
         inkscape:transform-center-x="7.7282872" />
      <path
         inkscape:transform-center-x="8.6052846"
         style="fill:none;stroke:#000000;stroke-width:1.41732287;stroke-linecap:butt;stroke-linejoin:miter;stroke-miterlimit:4;stroke-opacity:1;stroke-dasharray:none;marker-end:url(#Arrow1Mend)"
         d="m 195.03353,897.9231 17.5649,30.42329"
         id="path4039"
         inkscape:connector-curvature="0"
         inkscape:transform-center-y="-14.775092"
         sodipodi:nodetypes="cc" />
      <path
         sodipodi:nodetypes="cc"
         inkscape:transform-center-y="-20.823305"
         inkscape:connector-curvature="0"
         id="path4041"
         d="M 127.81345,889.37004 152.3622,931.8897"
         style="fill:none;stroke:#000000;stroke-width:1.41732287;stroke-linecap:butt;stroke-linejoin:miter;stroke-miterlimit:4;stroke-opacity:1;stroke-dasharray:none;marker-end:url(#Arrow1Mend)"
         inkscape:transform-center-x="12.09721" />
      <path
         inkscape:transform-center-x="12.09721"
         style="fill:none;stroke:#000000;stroke-width:1.41732287;stroke-linecap:butt;stroke-linejoin:miter;stroke-miterlimit:4;stroke-opacity:1;stroke-dasharray:none;marker-end:url(#Arrow1Mend)"
         d="m 156.15991,907.08657 24.54875,42.51966"
         id="path4043"
         inkscape:connector-curvature="0"
         inkscape:transform-center-y="-20.823305"
         sodipodi:nodetypes="cc" />
      <path
         sodipodi:nodetypes="cc"
         inkscape:transform-center-y="-29.589483"
         inkscape:connector-curvature="0"
         id="path4045"
         d="m 96.485683,910.86338 34.637157,60.05237"
         style="fill:none;stroke:#000000;stroke-width:1.41732287;stroke-linecap:butt;stroke-linejoin:miter;stroke-miterlimit:4;stroke-opacity:1;stroke-dasharray:none;marker-end:url(#Arrow1Mend)"
         inkscape:transform-center-x="17.141665" />
      <path
         inkscape:transform-center-x="17.30476"
         style="fill:none;stroke:#000000;stroke-width:1.41732287;stroke-linecap:butt;stroke-linejoin:miter;stroke-miterlimit:4;stroke-opacity:1;stroke-dasharray:none;marker-end:url(#Arrow1Mend)"
         d="m 124.5033,917.38744 34.96342,60.60865"
         id="path4047"
         inkscape:connector-curvature="0"
         inkscape:transform-center-y="-29.867683"
         sodipodi:nodetypes="cc" />
      <path
         id="path4049"
         style="fill:none;stroke:#000000;stroke-width:0.70866144;stroke-linecap:butt;stroke-linejoin:miter;stroke-miterlimit:4;stroke-opacity:1;stroke-dasharray:4.25196852, 4.25196852;stroke-dashoffset:0"
         d="M 216.14173,914.17316 201.9685,889.37001 c -8.09899,-14.17322 -39.46569,-10.62992 -67.32283,-3.5433 -27.85714,7.08661 -52.204728,17.71653 -38.976379,42.51968 l 28.346459,53.1496"
         inkscape:connector-curvature="0"
         sodipodi:nodetypes="csssc" />
    </g>
  </g>
</svg>
