<?xml version="1.0" encoding="UTF-8" standalone="no"?>
<!-- Created with Inkscape (http://www.inkscape.org/) -->

<svg
   xmlns:ns0="http://www.iki.fi/pav/software/textext/"
   xmlns:dc="http://purl.org/dc/elements/1.1/"
   xmlns:cc="http://creativecommons.org/ns#"
   xmlns:rdf="http://www.w3.org/1999/02/22-rdf-syntax-ns#"
   xmlns:svg="http://www.w3.org/2000/svg"
   xmlns="http://www.w3.org/2000/svg"
   xmlns:xlink="http://www.w3.org/1999/xlink"
   xmlns:sodipodi="http://sodipodi.sourceforge.net/DTD/sodipodi-0.dtd"
   xmlns:inkscape="http://www.inkscape.org/namespaces/inkscape"
   width="219.81119"
   height="120.52225"
   id="svg3041"
   version="1.1"
   inkscape:version="0.48.2 r9819"
   sodipodi:docname="stormvloedkering.svg">
  <sodipodi:namedview
     id="base"
     pagecolor="#ffffff"
     bordercolor="#666666"
     borderopacity="1.0"
     inkscape:pageopacity="0.0"
     inkscape:pageshadow="2"
     inkscape:zoom="3.959798"
     inkscape:cx="103.21456"
     inkscape:cy="57.593108"
     inkscape:document-units="mm"
     inkscape:current-layer="layer2"
     showgrid="false"
     inkscape:window-width="1366"
     inkscape:window-height="706"
     inkscape:window-x="-8"
     inkscape:window-y="-8"
     inkscape:window-maximized="1"
     units="mm"
     fit-margin-left="0.5"
     fit-margin-top="0.5"
     fit-margin-bottom="0.5"
     fit-margin-right="0.5">
    <inkscape:grid
       spacingy="1mm"
       spacingx="1mm"
       units="mm"
       snapvisiblegridlinesonly="true"
       enabled="true"
       visible="true"
       empspacing="5"
       id="grid2992"
       type="xygrid" />
  </sodipodi:namedview>
  <defs
     id="defs3043">
    <marker
       style="overflow:visible"
       id="Arrow1Mend"
       refX="0"
       refY="0"
       orient="auto"
       inkscape:stockid="Arrow1Mend">
      <path
         inkscape:connector-curvature="0"
         transform="matrix(-0.4,0,0,-0.4,-4,0)"
         style="fill-rule:evenodd;stroke:#000000;stroke-width:1pt;marker-start:none"
         d="M 0,0 5,-5 -12.5,0 5,5 0,0 z"
         id="path3779" />
    </marker>
    <marker
       style="overflow:visible"
       id="Arrow1Mstart"
       refX="0"
       refY="0"
       orient="auto"
       inkscape:stockid="Arrow1Mstart">
      <path
         inkscape:connector-curvature="0"
         transform="matrix(0.4,0,0,0.4,4,0)"
         style="fill-rule:evenodd;stroke:#000000;stroke-width:1pt;marker-start:none"
         d="M 0,0 5,-5 -12.5,0 5,5 0,0 z"
         id="path3776" />
    </marker>
    <linearGradient
       id="linearGradient7587">
      <stop
         style="stop-color:#6da5d4;stop-opacity:1;"
         offset="0"
         id="stop7595" />
      <stop
         id="stop7591"
         offset="1"
         style="stop-color:#cae7f9;stop-opacity:1;" />
    </linearGradient>
    <linearGradient
       gradientTransform="matrix(1.1250001,0,0,1.249996,99.655481,614.76498)"
       y2="318.89761"
       x2="124.01575"
       y1="389.76376"
       x1="124.01575"
       spreadMethod="pad"
       gradientUnits="userSpaceOnUse"
       id="linearGradient7599"
       xlink:href="#linearGradient7587"
       inkscape:collect="always" />
    <linearGradient
       y2="265.74802"
       x2="124.01575"
       y1="347.24408"
       x1="124.01575"
       spreadMethod="pad"
       gradientTransform="matrix(1.5,0,0,1.3043478,-44.291331,595.89175)"
       gradientUnits="userSpaceOnUse"
       id="linearGradient7636"
       xlink:href="#linearGradient7587"
       inkscape:collect="always" />
    <linearGradient
       y2="318.89761"
       x2="124.01575"
       y1="389.76376"
       x1="124.01575"
       spreadMethod="pad"
       gradientTransform="matrix(1.1250001,0,0,1.249996,99.655481,614.76498)"
       gradientUnits="userSpaceOnUse"
       id="linearGradient8489"
       xlink:href="#linearGradient7587"
       inkscape:collect="always" />
    <linearGradient
       y2="265.74802"
       x2="124.01575"
       y1="347.24408"
       x1="124.01575"
       spreadMethod="pad"
       gradientTransform="matrix(1.5,0,0,1.3043478,-44.291331,595.89175)"
       gradientUnits="userSpaceOnUse"
       id="linearGradient8491"
       xlink:href="#linearGradient7587"
       inkscape:collect="always" />
    <linearGradient
       y2="318.89761"
       x2="124.01575"
       y1="389.76376"
       x1="124.01575"
       spreadMethod="pad"
       gradientTransform="matrix(0.91118446,0,0,1.249996,111.0197,614.76498)"
       gradientUnits="userSpaceOnUse"
       id="linearGradient3173"
       xlink:href="#linearGradient7587"
       inkscape:collect="always" />
    <linearGradient
       y2="265.74802"
       x2="124.01575"
       y1="347.24408"
       x1="124.01575"
       spreadMethod="pad"
       gradientTransform="matrix(0.77391778,0,0,1.3043478,76.627082,595.89175)"
       gradientUnits="userSpaceOnUse"
       id="linearGradient3175"
       xlink:href="#linearGradient7587"
       inkscape:collect="always" />
  </defs>
  <metadata
     id="metadata3046">
    <rdf:RDF>
      <cc:Work
         rdf:about="">
        <dc:format>image/svg+xml</dc:format>
        <dc:type
           rdf:resource="http://purl.org/dc/dcmitype/StillImage" />
        <dc:title />
      </cc:Work>
    </rdf:RDF>
  </metadata>
  <g
     transform="translate(-92.100146,-931.78224)"
     id="layer1"
     inkscape:groupmode="layer"
     inkscape:label="Laag 1">
    <rect
       style="fill:url(#linearGradient3173);fill-opacity:1;fill-rule:nonzero;stroke:none"
       id="rect7597"
       width="129.14424"
       height="35.433079"
       x="159.44882"
       y="1013.3857" />
    <path
       sodipodi:nodetypes="cccscc"
       inkscape:connector-curvature="0"
       id="rect7585"
       d="m 117.76279,942.51716 0,106.31244 65.38788,0 c -2.02258,-11.0864 -6.28465,-23.5136 -6.28465,-35.9426 0,-27.23197 15.01324,-54.08718 27.99476,-70.36984 z"
       style="fill:url(#linearGradient3175);fill-opacity:1;fill-rule:nonzero;stroke:none" />
    <path
       inkscape:connector-curvature="0"
       id="path7073"
       d="m 117.60037,1048.8188 171.0868,0"
       style="fill:none;stroke:#000000;stroke-width:1.77165353;stroke-linecap:butt;stroke-linejoin:miter;stroke-miterlimit:4;stroke-opacity:1;stroke-dasharray:none" />
    <path
       sodipodi:nodetypes="cc"
       style="fill:none;stroke:#5599ff;stroke-width:0.35433072;stroke-linecap:butt;stroke-linejoin:miter;stroke-miterlimit:4;stroke-opacity:1;stroke-dasharray:none"
       d="m 117.7605,942.5196 87.75131,0"
       id="path7583"
       inkscape:connector-curvature="0" />
    <path
       inkscape:connector-curvature="0"
       id="path7634"
       d="m 177.32827,1013.3857 111.26479,0"
       style="fill:none;stroke:#5599ff;stroke-width:0.35433072;stroke-linecap:butt;stroke-linejoin:miter;stroke-miterlimit:4;stroke-opacity:1;stroke-dasharray:none"
       sodipodi:nodetypes="cc" />
  </g>
  <g
     transform="translate(-92.100146,-233.75079)"
     style="display:inline"
     inkscape:label="waterkering"
     id="layer2"
     inkscape:groupmode="layer">
    <path
       sodipodi:open="true"
       sodipodi:end="3.9662926"
       sodipodi:start="2.8023308"
       transform="matrix(1.090909,0,0,1.090909,61.2026,93.092339)"
       d="M 111.85329,236.16762 C 98.90427,199.47514 109.02586,158.59641 137.59945,132.18495"
       sodipodi:ry="97.440948"
       sodipodi:rx="97.440948"
       sodipodi:cy="203.74014"
       sodipodi:cx="203.74016"
       id="path7606"
       style="fill:none;stroke:#000000;stroke-width:3.24803185;stroke-miterlimit:4;stroke-dasharray:none"
       sodipodi:type="arc" />
    <path
       transform="matrix(1.9999982,0,0,4,-269.29085,-885.82674)"
       d="m 269.29134,300.29526 c 0,0.48923 -0.7932,0.88582 -1.77166,0.88582 -0.97845,0 -1.77165,-0.39659 -1.77165,-0.88582 0,-0.48923 0.7932,-0.88583 1.77165,-0.88583 0.97846,0 1.77166,0.3966 1.77166,0.88583 z"
       sodipodi:ry="0.88582677"
       sodipodi:rx="1.7716535"
       sodipodi:cy="300.29526"
       sodipodi:cx="267.51968"
       id="path7627"
       style="fill:#000000;stroke:none"
       sodipodi:type="arc" />
    <path
       sodipodi:nodetypes="ccc"
       inkscape:connector-curvature="0"
       id="path7629"
       d="M 177.16535,329.52752 265.74803,315.35429 198.4252,251.57476"
       style="fill:none;stroke:#000000;stroke-width:1.77165353;stroke-linecap:butt;stroke-linejoin:miter;stroke-miterlimit:4;stroke-opacity:1;stroke-dasharray:none" />
    <path
       inkscape:connector-curvature="0"
       id="path7638"
       d="m 112.43388,350.78738 0,-106.29921"
       style="fill:none;stroke:#000000;stroke-width:0.70866144;stroke-linecap:butt;stroke-linejoin:miter;stroke-miterlimit:4;stroke-opacity:1;stroke-dasharray:none;marker-start:url(#Arrow1Mstart);marker-end:url(#Arrow1Mend)" />
    <path
       style="fill:none;stroke:#000000;stroke-width:0.70866144;stroke-linecap:butt;stroke-linejoin:miter;stroke-miterlimit:4;stroke-opacity:1;stroke-dasharray:none;marker-start:url(#Arrow1Mstart);marker-end:url(#Arrow1Mend)"
       d="m 292.64922,350.78737 0,-35.43306"
       id="path8010"
       inkscape:connector-curvature="0" />
    <path
       sodipodi:nodetypes="cc"
       inkscape:connector-curvature="0"
       id="path8012"
       d="m 212.59843,240.94486 53.1496,74.40945"
       style="fill:none;stroke:#000000;stroke-width:0.70866144;stroke-linecap:butt;stroke-linejoin:miter;stroke-miterlimit:4;stroke-opacity:1;stroke-dasharray:none;marker-start:url(#Arrow1Mstart);marker-end:none" />
    <g
       ns0:preamble=""
       ns0:text="3m"
       word-spacing="normal"
       letter-spacing="normal"
       font-size-adjust="none"
       font-stretch="normal"
       font-weight="normal"
       font-variant="normal"
       font-style="normal"
       stroke-miterlimit="10.433"
       xml:space="preserve"
       transform="matrix(1.25,0,0,-1.25,-185.9407,1186.4285)"
       id="content"
       style="font-style:normal;font-variant:normal;font-weight:normal;font-stretch:normal;letter-spacing:normal;word-spacing:normal;text-anchor:start;fill:none;stroke:#000000;stroke-linecap:butt;stroke-linejoin:miter;stroke-miterlimit:10.43299961;stroke-opacity:1;stroke-dasharray:none;stroke-dashoffset:0">
<path
   id="path3048"
   d="m 226.32,710.62 0.07,0.03 0.08,0.03 0.07,0.03 0.07,0.03 0.07,0.04 0.07,0.04 0.06,0.04 0.07,0.04 0.06,0.04 0.06,0.05 0.06,0.05 0.06,0.05 0.05,0.05 0.05,0.05 0.05,0.06 0.05,0.05 0.04,0.06 0.05,0.06 0.04,0.06 0.03,0.06 0.04,0.07 0.03,0.06 0.03,0.07 0.03,0.06 0.02,0.07 0.02,0.07 0.02,0.07 0.01,0.07 0.02,0.07 0,0.07 0.01,0.08 0,0.07 c 0,0.81 -0.87,1.37 -1.83,1.37 -1,0 -1.76,-0.59 -1.76,-1.35 0,-0.33 0.22,-0.52 0.51,-0.52 0.3,0 0.5,0.22 0.5,0.51 0,0.5 -0.46,0.5 -0.61,0.5 0.3,0.48 0.96,0.61 1.32,0.61 0.41,0 0.95,-0.22 0.95,-1.11 0,-0.12 -0.02,-0.7 -0.27,-1.13 -0.3,-0.48 -0.64,-0.51 -0.89,-0.52 -0.08,-0.01 -0.32,-0.03 -0.39,-0.03 -0.08,-0.01 -0.15,-0.02 -0.15,-0.12 0,-0.11 0.07,-0.11 0.24,-0.11 h 0.44 c 0.82,0 1.18,-0.67 1.18,-1.65 0,-1.35 -0.68,-1.64 -1.12,-1.64 -0.43,0 -1.17,0.17 -1.52,0.76 0.35,-0.05 0.65,0.17 0.65,0.55 0,0.35 -0.26,0.55 -0.55,0.55 -0.24,0 -0.56,-0.14 -0.56,-0.57 0,-0.91 0.92,-1.56 2.01,-1.56 1.21,0 2.12,0.9 2.12,1.91 0,0.82 -0.63,1.59 -1.66,1.8 z"
   inkscape:connector-curvature="0"
   style="fill:#000000;stroke-width:0" />
<path
   id="path3050"
   d="m 229.51,710.54 v -2.66 c 0,-0.45 -0.11,-0.45 -0.78,-0.45 v -0.3 c 0.35,0.01 0.86,0.03 1.13,0.03 0.26,0 0.77,-0.02 1.11,-0.03 v 0.3 c -0.67,0 -0.78,0 -0.78,0.45 v 1.83 c 0,1.03 0.71,1.59 1.35,1.59 0.62,0 0.73,-0.54 0.73,-1.1 v -2.32 c 0,-0.45 -0.11,-0.45 -0.77,-0.45 v -0.3 c 0.35,0.01 0.85,0.03 1.12,0.03 0.26,0 0.78,-0.02 1.12,-0.03 v 0.3 c -0.67,0 -0.78,0 -0.78,0.45 v 1.83 c 0,1.03 0.71,1.59 1.34,1.59 0.63,0 0.74,-0.54 0.74,-1.1 v -2.32 c 0,-0.45 -0.11,-0.45 -0.78,-0.45 v -0.3 c 0.35,0.01 0.86,0.03 1.13,0.03 0.26,0 0.77,-0.02 1.11,-0.03 v 0.3 c -0.51,0 -0.76,0 -0.77,0.3 v 1.9 c 0,0.85 0,1.16 -0.31,1.52 -0.14,0.17 -0.47,0.37 -1.05,0.37 -0.83,0 -1.27,-0.6 -1.44,-0.98 -0.14,0.87 -0.88,0.98 -1.32,0.98 -0.73,0 -1.2,-0.43 -1.48,-1.05 v 1.05 l -1.4,-0.11 v -0.31 c 0.7,0 0.78,-0.07 0.78,-0.56 z"
   inkscape:connector-curvature="0"
   style="fill:#000000;stroke-width:0" />
</g>    <g
       id="g3130"
       transform="matrix(1.25,0,0,-1.25,14.514677,1220.1702)"
       xml:space="preserve"
       stroke-miterlimit="10.433"
       font-style="normal"
       font-variant="normal"
       font-weight="normal"
       font-stretch="normal"
       font-size-adjust="none"
       letter-spacing="normal"
       word-spacing="normal"
       ns0:text="1m"
       ns0:preamble=""
       style="font-style:normal;font-variant:normal;font-weight:normal;font-stretch:normal;letter-spacing:normal;word-spacing:normal;text-anchor:start;fill:none;stroke:#000000;stroke-linecap:butt;stroke-linejoin:miter;stroke-miterlimit:10.43299961;stroke-opacity:1;stroke-dasharray:none;stroke-dashoffset:0">
<path
   style="fill:#000000;stroke-width:0"
   inkscape:connector-curvature="0"
   d="m 226.36,713.48 0,0.01 0,0.01 0,0.02 0,0.01 0,0 0,0.01 0,0.01 0,0.01 0,0.01 0,0.01 0,0.01 0,0.01 0,0 -0.01,0.01 0,0.01 0,0 0,0.01 0,0.01 0,0.01 0,0.01 -0.01,0.01 0,0.01 0,0.01 -0.01,0 0,0.01 -0.01,0.01 0,0 -0.01,0.01 -0.01,0 -0.01,0.01 0,0 -0.01,0 0,0 -0.01,0 0,0 -0.01,0 -0.01,0.01 0,0 -0.01,0 -0.01,0 0,0 -0.01,0 -0.01,0 -0.01,0 0,0 -0.01,0 -0.01,0 -0.01,0 -0.01,0 -0.01,0 -0.01,0 -0.01,0 c -0.62,-0.64 -1.49,-0.64 -1.81,-0.64 v -0.3 c 0.2,0 0.78,0 1.3,0.25 v -5.14 c 0,-0.36 -0.03,-0.48 -0.92,-0.48 h -0.32 v -0.3 c 0.35,0.03 1.21,0.03 1.61,0.03 0.4,0 1.26,0 1.61,-0.03 v 0.3 h -0.32 c -0.89,0 -0.92,0.11 -0.92,0.48 z"
   id="path3132" />
<path
   style="fill:#000000;stroke-width:0"
   inkscape:connector-curvature="0"
   d="m 229.51,710.54 v -2.66 c 0,-0.45 -0.11,-0.45 -0.78,-0.45 v -0.3 c 0.35,0.01 0.86,0.03 1.13,0.03 0.26,0 0.77,-0.02 1.11,-0.03 v 0.3 c -0.67,0 -0.78,0 -0.78,0.45 v 1.83 c 0,1.03 0.71,1.59 1.35,1.59 0.62,0 0.73,-0.54 0.73,-1.1 v -2.32 c 0,-0.45 -0.11,-0.45 -0.77,-0.45 v -0.3 c 0.35,0.01 0.85,0.03 1.12,0.03 0.26,0 0.78,-0.02 1.12,-0.03 v 0.3 c -0.67,0 -0.78,0 -0.78,0.45 v 1.83 c 0,1.03 0.71,1.59 1.34,1.59 0.63,0 0.74,-0.54 0.74,-1.1 v -2.32 c 0,-0.45 -0.11,-0.45 -0.78,-0.45 v -0.3 c 0.35,0.01 0.86,0.03 1.13,0.03 0.26,0 0.77,-0.02 1.11,-0.03 v 0.3 c -0.51,0 -0.76,0 -0.77,0.3 v 1.9 c 0,0.85 0,1.16 -0.31,1.52 -0.14,0.17 -0.47,0.37 -1.05,0.37 -0.83,0 -1.27,-0.6 -1.44,-0.98 -0.14,0.87 -0.88,0.98 -1.32,0.98 -0.73,0 -1.2,-0.43 -1.48,-1.05 v 1.05 l -1.4,-0.11 v -0.31 c 0.7,0 0.78,-0.07 0.78,-0.56 z"
   id="path3134" />
</g>    <g
       style="font-style:normal;font-variant:normal;font-weight:normal;font-stretch:normal;letter-spacing:normal;word-spacing:normal;text-anchor:start;fill:none;stroke:#000000;stroke-width:1;stroke-linecap:butt;stroke-linejoin:miter;stroke-miterlimit:10.43299961;stroke-opacity:1;stroke-dasharray:none;stroke-dashoffset:0"
       ns0:preamble=""
       ns0:text="R6m"
       word-spacing="normal"
       letter-spacing="normal"
       font-size-adjust="none"
       font-stretch="normal"
       font-weight="normal"
       font-variant="normal"
       font-style="normal"
       stroke-miterlimit="10.433"
       xml:space="preserve"
       transform="matrix(0.73749884,1.0092549,1.0092549,-0.73749884,-646.10985,562.89934)"
       id="g3222">
<path
   id="path3224"
   d="m 227.76,710.5 0.09,0.03 0.09,0.02 0.09,0.03 0.08,0.03 0.09,0.03 0.08,0.03 0.08,0.04 0.08,0.04 0.08,0.04 0.07,0.04 0.07,0.04 0.07,0.05 0.07,0.04 0.07,0.05 0.06,0.05 0.06,0.05 0.06,0.05 0.05,0.06 0.06,0.05 0.04,0.06 0.05,0.06 0.04,0.06 0.04,0.06 0.03,0.07 0.04,0.06 0.02,0.07 0.03,0.06 0.02,0.07 0.01,0.07 0.01,0.07 0.01,0.07 0,0.07 c 0,0.96 -1.13,1.79 -2.6,1.79 h -3.12 v -0.31 h 0.24 c 0.77,0 0.78,-0.11 0.78,-0.46 v -5.24 c 0,-0.36 -0.01,-0.47 -0.78,-0.47 h -0.24 v -0.3 c 0.36,0.03 1.07,0.03 1.45,0.03 0.39,0 1.1,0 1.45,-0.03 v 0.3 h -0.23 c -0.77,0 -0.79,0.11 -0.79,0.47 v 2.51 0.22 2.58 c 0,0.22 0,0.34 0.22,0.37 0.1,0.02 0.39,0.02 0.59,0.02 0.89,0 2.01,-0.04 2.01,-1.48 0,-0.68 -0.24,-1.49 -1.72,-1.49 h -1.1 v -0.22 h 1.14 c 0.16,0 0.58,0 0.93,-0.33 0.38,-0.36 0.38,-0.67 0.38,-1.34 0,-0.64 0,-1.04 0.41,-1.42 0.4,-0.35 0.95,-0.41 1.25,-0.41 0.78,0 0.94,0.81 0.94,1.09 0,0.06 0,0.17 -0.12,0.17 -0.11,0 -0.11,-0.09 -0.12,-0.16 -0.06,-0.71 -0.41,-0.88 -0.66,-0.88 -0.49,0 -0.57,0.5 -0.71,1.42 l -0.13,0.8 c -0.18,0.64 -0.66,0.96 -1.21,1.15 z"
   inkscape:connector-curvature="0"
   style="fill:#000000;stroke-width:0" />
<path
   id="path3226"
   d="m 232.08,710.38 v 0.24 c 0,2.52 1.23,2.87 1.74,2.87 0.24,0 0.66,-0.06 0.88,-0.4 -0.15,0 -0.55,0 -0.55,-0.44 0,-0.31 0.24,-0.46 0.46,-0.46 0.15,0 0.45,0.09 0.45,0.48 0,0.59 -0.43,1.07 -1.26,1.07 -1.27,0 -2.62,-1.28 -2.62,-3.48 0,-2.65 1.16,-3.35 2.08,-3.35 1.11,0 2.05,0.93 2.05,2.24 0,1.26 -0.88,2.22 -1.99,2.22 l -0.01,-0.23 c 0.16,0 0.62,0 0.93,-0.62 0.18,-0.36 0.18,-0.87 0.18,-1.36 0,-0.48 0,-0.97 -0.17,-1.33 -0.3,-0.6 -0.76,-0.65 -0.99,-0.65 h 0 c -0.62,0 -0.92,0.6 -0.98,0.75 -0.18,0.47 -0.18,1.26 -0.18,1.44 0,0.78 0.32,1.77 1.21,1.77 l 0.01,0.23 c -0.67,0 -1.04,-0.51 -1.24,-0.99 z"
   inkscape:connector-curvature="0"
   style="fill:#000000;stroke-width:0" />
<path
   id="path3228"
   d="m 236.84,710.54 v -2.66 c 0,-0.45 -0.11,-0.45 -0.77,-0.45 v -0.3 c 0.34,0.01 0.85,0.03 1.12,0.03 0.26,0 0.77,-0.02 1.11,-0.03 v 0.3 c -0.66,0 -0.77,0 -0.77,0.45 v 1.83 c 0,1.03 0.7,1.59 1.34,1.59 0.63,0 0.74,-0.54 0.74,-1.1 v -2.32 c 0,-0.45 -0.11,-0.45 -0.78,-0.45 v -0.3 c 0.35,0.01 0.86,0.03 1.13,0.03 0.25,0 0.77,-0.02 1.11,-0.03 v 0.3 c -0.67,0 -0.78,0 -0.78,0.45 v 1.83 c 0,1.03 0.71,1.59 1.35,1.59 0.62,0 0.73,-0.54 0.73,-1.1 v -2.32 c 0,-0.45 -0.11,-0.45 -0.77,-0.45 v -0.3 c 0.35,0.01 0.85,0.03 1.12,0.03 0.26,0 0.78,-0.02 1.12,-0.03 v 0.3 c -0.52,0 -0.77,0 -0.78,0.3 v 1.9 c 0,0.85 0,1.16 -0.31,1.52 -0.14,0.17 -0.47,0.37 -1.04,0.37 -0.84,0 -1.28,-0.6 -1.45,-0.98 -0.14,0.87 -0.87,0.98 -1.32,0.98 -0.73,0 -1.19,-0.43 -1.47,-1.05 v 1.05 l -1.4,-0.11 v -0.31 c 0.69,0 0.77,-0.07 0.77,-0.56 z"
   inkscape:connector-curvature="0"
   style="fill:#000000;stroke-width:0" />
</g>  </g>
</svg>
