<?xml version="1.0" encoding="UTF-8" standalone="no"?>
<!-- Created with Inkscape (http://www.inkscape.org/) -->

<svg
   xmlns:dc="http://purl.org/dc/elements/1.1/"
   xmlns:cc="http://creativecommons.org/ns#"
   xmlns:rdf="http://www.w3.org/1999/02/22-rdf-syntax-ns#"
   xmlns:svg="http://www.w3.org/2000/svg"
   xmlns="http://www.w3.org/2000/svg"
   xmlns:sodipodi="http://sodipodi.sourceforge.net/DTD/sodipodi-0.dtd"
   xmlns:inkscape="http://www.inkscape.org/namespaces/inkscape"
   width="354.33069"
   height="131.10236"
   id="svg3041"
   version="1.1"
   inkscape:version="0.48.2 r9819"
   sodipodi:docname="u-buis_met_hoogteverschil.svg">
  <defs
     id="defs3043">
    <marker
       style="overflow:visible"
       id="Arrow1Mstart"
       refX="0"
       refY="0"
       orient="auto"
       inkscape:stockid="Arrow1Mstart">
      <path
         transform="matrix(0.4,0,0,0.4,4,0)"
         style="fill-rule:evenodd;stroke:#000000;stroke-width:1pt;marker-start:none"
         d="M 0,0 5,-5 -12.5,0 5,5 0,0 z"
         id="path3776"
         inkscape:connector-curvature="0" />
    </marker>
    <marker
       style="overflow:visible"
       id="Arrow1Mend"
       refX="0"
       refY="0"
       orient="auto"
       inkscape:stockid="Arrow1Mend">
      <path
         transform="matrix(-0.4,0,0,-0.4,-4,0)"
         style="fill-rule:evenodd;stroke:#000000;stroke-width:1pt;marker-start:none"
         d="M 0,0 5,-5 -12.5,0 5,5 0,0 z"
         id="path3779"
         inkscape:connector-curvature="0" />
    </marker>
  </defs>
  <sodipodi:namedview
     id="base"
     pagecolor="#ffffff"
     bordercolor="#666666"
     borderopacity="1.0"
     inkscape:pageopacity="0.0"
     inkscape:pageshadow="2"
     inkscape:zoom="1.979899"
     inkscape:cx="222.57712"
     inkscape:cy="125.34515"
     inkscape:document-units="mm"
     inkscape:current-layer="layer1"
     showgrid="true"
     inkscape:window-width="1280"
     inkscape:window-height="962"
     inkscape:window-x="-8"
     inkscape:window-y="-8"
     inkscape:window-maximized="1"
     units="mm">
    <inkscape:grid
       type="xygrid"
       id="grid2992"
       empspacing="5"
       visible="true"
       enabled="true"
       snapvisiblegridlinesonly="true"
       units="mm"
       spacingx="1mm"
       spacingy="1mm" />
  </sodipodi:namedview>
  <metadata
     id="metadata3046">
    <rdf:RDF>
      <cc:Work
         rdf:about="">
        <dc:format>image/svg+xml</dc:format>
        <dc:type
           rdf:resource="http://purl.org/dc/dcmitype/StillImage" />
        <dc:title />
      </cc:Work>
    </rdf:RDF>
  </metadata>
  <g
     inkscape:label="Laag 1"
     inkscape:groupmode="layer"
     id="layer1"
     transform="translate(0,-921.25979)">
    <rect
       style="fill:#cae7f9;fill-opacity:1;fill-rule:evenodd;stroke:none"
       id="rect3011"
       width="6.4285712"
       height="46.136108"
       x="230.71428"
       y="981.42285" />
    <path
       style="fill:#cae7f9;stroke:none"
       d="m 35.433071,995.66923 c -1.582151,2.02317 -0.69905,2.93312 0,5.44517 -1.198348,0.8918 -1.242688,3.7037 0,5.1848 l 124.015749,0 c 8.05156,-1.0907 16.07631,-2.2415 17.71653,-17.71658 l 0,-46.06299 c 0.36833,-3.40984 1.79036,-6.26603 7.08662,-7.08662 l 116.92913,0 c 1.89875,-2.05107 0.92524,-3.68327 0.0446,-5.32902 1.48728,-2.2051 1.32362,-3.92867 -0.0446,-5.3009 l -116.92913,0 c -9.01188,0.92238 -16.69967,3.96883 -17.71654,17.71654 l 0,46.06299 c -0.56606,4.71101 -3.24395,6.66039 -7.08661,7.08661 z"
       id="path3009"
       inkscape:connector-curvature="0"
       sodipodi:nodetypes="ccccccccccccccc" />
    <rect
       y="981.42285"
       x="255.35713"
       height="41.785717"
       width="6.4285712"
       id="rect3013"
       style="fill:#cae7f9;fill-opacity:1;fill-rule:evenodd;stroke:none" />
    <path
       style="fill:none;stroke:#000000;stroke-width:0.70866144;stroke-linecap:butt;stroke-linejoin:miter;stroke-miterlimit:4;stroke-opacity:1;stroke-dasharray:none"
       d="m 35.433071,1006.2991 124.015749,0 c 10.62992,0 17.71653,-7.08664 17.71653,-17.71656 l 0,-46.063 c 0,-3.5433 3.54331,-7.08661 7.08662,-7.08661 l 116.92913,0"
       id="path3922"
       inkscape:connector-curvature="0"
       sodipodi:nodetypes="cccccc" />
    <path
       style="fill:none;stroke:#000000;stroke-width:0.70866138;stroke-linecap:butt;stroke-linejoin:miter;stroke-miterlimit:4;stroke-opacity:1;stroke-dasharray:none"
       d="m 35.433071,995.66915 c -1.518561,0 -1.518561,3.79641 0,5.31495 1.518561,1.5186 1.518561,5.315 0,5.315 -1.518561,0 -1.518561,-3.7964 0,-5.315"
       id="path3765"
       inkscape:connector-curvature="0"
       sodipodi:nodetypes="czzc" />
    <path
       sodipodi:nodetypes="cccccc"
       inkscape:connector-curvature="0"
       id="path4476"
       d="m 35.43307,995.66915 124.01575,0 c 3.54331,0 7.08661,-3.54331 7.08661,-7.08661 l 0,-46.063 c 0,-10.62992 7.08662,-17.71653 17.71654,-17.71653 l 116.92913,0"
       style="fill:none;stroke:#000000;stroke-width:0.70866144;stroke-linecap:butt;stroke-linejoin:miter;stroke-miterlimit:4;stroke-opacity:1;stroke-dasharray:none" />
    <path
       sodipodi:nodetypes="czzc"
       inkscape:connector-curvature="0"
       id="path4478"
       d="m 301.1811,935.43293 c 1.51856,0 1.51856,-3.79641 0,-5.31496 -1.51857,-1.51856 -1.51857,-5.31496 0,-5.31496 1.51856,0 1.51856,3.7964 0,5.31496"
       style="fill:none;stroke:#000000;stroke-width:0.70866138;stroke-linecap:butt;stroke-linejoin:miter;stroke-miterlimit:4;stroke-opacity:1;stroke-dasharray:none" />
    <path
       inkscape:connector-curvature="0"
       id="path9491"
       d="m 152.3622,999.21246 0,-67.32285"
       style="fill:none;stroke:#000000;stroke-width:1px;stroke-linecap:butt;stroke-linejoin:miter;stroke-opacity:1;marker-start:url(#Arrow1Mstart);marker-end:url(#Arrow1Mend)" />
    <text
       xml:space="preserve"
       style="font-size:13px;font-style:normal;font-variant:normal;font-weight:normal;font-stretch:normal;line-height:125%;letter-spacing:0px;word-spacing:0px;fill:#000000;fill-opacity:1;stroke:none;font-family:J;-inkscape-font-specification:J"
       x="120.47244"
       y="967.32263"
       id="text4510"
       sodipodi:linespacing="125%"><tspan
         sodipodi:role="line"
         id="tspan4512"
         x="120.47244"
         y="967.32263">0.2m</tspan></text>
    <g
       id="g4550"
       transform="translate(2.3622053e-7,77.95268)">
      <path
         style="fill:#b3b3b3;stroke:none"
         d="m 262.20472,914.17318 10e-6,38.97645 c 0,24.80313 -31.88977,24.80313 -31.88977,0 l -1e-5,-10.62999 7.08662,0 1e-5,10.62999 c 0,14.1732 17.71653,14.1732 17.71653,0 l -1e-5,-38.97645 z"
         id="path4548"
         inkscape:connector-curvature="0"
         sodipodi:nodetypes="ccccccccc" />
      <path
         sodipodi:nodetypes="ccccccccc"
         inkscape:connector-curvature="0"
         id="path3769"
         d="m 262.20473,903.54324 0,49.60639 c 0,24.80313 -31.88977,24.80313 -31.88977,0 l 0,-49.60639 7.08662,0 0,49.60639 c 0,14.1732 17.71653,14.1732 17.71653,0 l 0,-49.60639 z"
         style="fill:none;stroke:#000000;stroke-width:1px;stroke-linecap:butt;stroke-linejoin:miter;stroke-opacity:1" />
    </g>
    <path
       style="fill:none;stroke:#000000;stroke-width:1.41732287;stroke-linecap:butt;stroke-linejoin:miter;stroke-miterlimit:4;stroke-opacity:1;stroke-dasharray:none"
       d="m 106.29921,1006.2992 0,10.6299 c 5.91594,29.4762 76.25342,38.5425 81.49607,7.0866 10.62992,-63.77954 46.06299,-77.95277 46.06299,-49.60631 l 0,7.08661"
       id="path4554"
       inkscape:connector-curvature="0"
       sodipodi:nodetypes="ccscc" />
    <path
       sodipodi:nodetypes="cczcc"
       inkscape:connector-curvature="0"
       id="path4556"
       d="m 212.59843,935.43293 0,7.08661 c 0,10.62992 10.62992,10.62992 24.80314,10.62992 14.17323,0 21.25985,10.62993 21.25985,21.25985 l 0,7.08661"
       style="fill:none;stroke:#000000;stroke-width:1.41732287;stroke-linecap:butt;stroke-linejoin:miter;stroke-miterlimit:4;stroke-opacity:1;stroke-dasharray:none" />
    <path
       style="fill:none;stroke:#000000;stroke-width:3.54330707;stroke-linecap:butt;stroke-linejoin:miter;stroke-miterlimit:4;stroke-opacity:1;stroke-dasharray:none"
       d="m 106.29921,1006.2991 0,7.0866"
       id="path4558"
       inkscape:connector-curvature="0" />
    <path
       inkscape:connector-curvature="0"
       id="path4560"
       d="m 212.59843,935.43293 0,7.08661"
       style="fill:none;stroke:#000000;stroke-width:3.54330707;stroke-linecap:butt;stroke-linejoin:miter;stroke-miterlimit:4;stroke-opacity:1;stroke-dasharray:none" />
    <path
       style="fill:none;stroke:#000000;stroke-width:3.54330707;stroke-linecap:butt;stroke-linejoin:miter;stroke-miterlimit:4;stroke-opacity:1;stroke-dasharray:none"
       d="m 233.85827,974.40931 0,7.08661"
       id="path4562"
       inkscape:connector-curvature="0" />
    <path
       inkscape:connector-curvature="0"
       id="path4564"
       d="m 258.66142,974.40931 0,7.08661"
       style="fill:none;stroke:#000000;stroke-width:3.54330707;stroke-linecap:butt;stroke-linejoin:miter;stroke-miterlimit:4;stroke-opacity:1;stroke-dasharray:none" />
    <path
       inkscape:connector-curvature="0"
       id="path4566"
       d="m 106.29921,981.49596 0,14.17323"
       style="fill:none;stroke:#000000;stroke-width:3.54330707;stroke-linecap:butt;stroke-linejoin:miter;stroke-miterlimit:4;stroke-opacity:1;stroke-dasharray:none" />
    <path
       sodipodi:type="arc"
       style="fill:#ffffff;stroke:#000000;stroke-width:0.70866144;stroke-miterlimit:4;stroke-dasharray:none"
       id="path4568"
       sodipodi:cx="99.212601"
       sodipodi:cy="187.79526"
       sodipodi:rx="10.629921"
       sodipodi:ry="10.629921"
       d="m 109.84252,187.79526 c 0,5.87074 -4.75918,10.62992 -10.629919,10.62992 -5.870744,0 -10.629921,-4.75918 -10.629921,-10.62992 0,-5.87075 4.759177,-10.62992 10.629921,-10.62992 5.870739,0 10.629919,4.75917 10.629919,10.62992 z"
       transform="translate(7.0866121,786.61405)" />
    <path
       style="fill:none;stroke:#000000;stroke-width:0.70866144;stroke-linecap:butt;stroke-linejoin:miter;stroke-miterlimit:4;stroke-opacity:1;stroke-dasharray:none;marker-end:url(#Arrow1Mend)"
       d="m 106.29921,974.40931 3.54331,-7.08662"
       id="path4570"
       inkscape:connector-curvature="0" />
    <path
       style="fill:none;stroke:#000000;stroke-width:1px;stroke-linecap:butt;stroke-linejoin:miter;stroke-opacity:1;marker-start:url(#Arrow1Mstart);marker-end:url(#Arrow1Mend)"
       d="m 269.29134,1016.9292 0,-21.25986"
       id="path4756"
       inkscape:connector-curvature="0" />
    <text
       sodipodi:linespacing="125%"
       id="text4758"
       y="1009.8425"
       x="276.37796"
       style="font-size:13px;font-style:normal;font-variant:normal;font-weight:normal;font-stretch:normal;line-height:125%;letter-spacing:0px;word-spacing:0px;fill:#000000;fill-opacity:1;stroke:none;font-family:J;-inkscape-font-specification:J"
       xml:space="preserve"><tspan
         y="1009.8425"
         x="276.37796"
         id="tspan4760"
         sodipodi:role="line">54mm</tspan></text>
  </g>
</svg>
