<?xml version="1.0" encoding="UTF-8" standalone="no"?>
<!-- Created with Inkscape (http://www.inkscape.org/) -->

<svg
   xmlns:ns0="http://www.iki.fi/pav/software/textext/"
   xmlns:dc="http://purl.org/dc/elements/1.1/"
   xmlns:cc="http://creativecommons.org/ns#"
   xmlns:rdf="http://www.w3.org/1999/02/22-rdf-syntax-ns#"
   xmlns:svg="http://www.w3.org/2000/svg"
   xmlns="http://www.w3.org/2000/svg"
   xmlns:xlink="http://www.w3.org/1999/xlink"
   xmlns:sodipodi="http://sodipodi.sourceforge.net/DTD/sodipodi-0.dtd"
   xmlns:inkscape="http://www.inkscape.org/namespaces/inkscape"
   width="137.70985"
   height="137.74605"
   id="svg3041"
   version="1.1"
   inkscape:version="0.48.2 r9819"
   sodipodi:docname="wrijvingskracht.svg">
  <sodipodi:namedview
     id="base"
     pagecolor="#ffffff"
     bordercolor="#666666"
     borderopacity="1.0"
     inkscape:pageopacity="0.0"
     inkscape:pageshadow="2"
     inkscape:zoom="1.979899"
     inkscape:cx="-6.9693554"
     inkscape:cy="52.528833"
     inkscape:document-units="mm"
     inkscape:current-layer="layer1"
     showgrid="false"
     inkscape:window-width="1366"
     inkscape:window-height="706"
     inkscape:window-x="-8"
     inkscape:window-y="-8"
     inkscape:window-maximized="1"
     units="mm"
     fit-margin-left="0.5"
     fit-margin-top="0.5"
     fit-margin-bottom="0.5"
     fit-margin-right="0.5">
    <inkscape:grid
       spacingy="1mm"
       spacingx="1mm"
       units="mm"
       snapvisiblegridlinesonly="true"
       enabled="true"
       visible="true"
       empspacing="5"
       id="grid2992"
       type="xygrid" />
  </sodipodi:namedview>
  <defs
     id="defs3043">
    <marker
       style="overflow:visible"
       id="Arrow1Mstart"
       refX="0"
       refY="0"
       orient="auto"
       inkscape:stockid="Arrow1Mstart">
      <path
         inkscape:connector-curvature="0"
         transform="matrix(0.4,0,0,0.4,4,0)"
         style="fill-rule:evenodd;stroke:#000000;stroke-width:1pt;marker-start:none"
         d="M 0,0 5,-5 -12.5,0 5,5 0,0 z"
         id="path3776" />
    </marker>
    <marker
       style="overflow:visible"
       id="Arrow1Mend"
       refX="0"
       refY="0"
       orient="auto"
       inkscape:stockid="Arrow1Mend">
      <path
         inkscape:connector-curvature="0"
         transform="matrix(-0.4,0,0,-0.4,-4,0)"
         style="fill-rule:evenodd;stroke:#000000;stroke-width:1pt;marker-start:none"
         d="M 0,0 5,-5 -12.5,0 5,5 0,0 z"
         id="path3779" />
    </marker>
    <linearGradient
       y2="265.74802"
       x2="124.01575"
       y1="347.24408"
       x1="124.01575"
       spreadMethod="pad"
       gradientTransform="matrix(1.25,0,0,1.0869567,22.145676,671.37956)"
       gradientUnits="userSpaceOnUse"
       id="linearGradient8967"
       xlink:href="#linearGradient7587"
       inkscape:collect="always" />
    <linearGradient
       id="linearGradient7587">
      <stop
         id="stop7595"
         offset="0"
         style="stop-color:#6da5d4;stop-opacity:1;" />
      <stop
         style="stop-color:#cae7f9;stop-opacity:1;"
         offset="1"
         id="stop7591" />
    </linearGradient>
    <linearGradient
       inkscape:collect="always"
       xlink:href="#linearGradient7587"
       id="linearGradient4845"
       gradientUnits="userSpaceOnUse"
       gradientTransform="matrix(0.60498955,0,0,1.0869567,126.58668,671.37955)"
       spreadMethod="pad"
       x1="124.01575"
       y1="347.24408"
       x2="124.01575"
       y2="265.74802" />
  </defs>
  <metadata
     id="metadata3046">
    <rdf:RDF>
      <cc:Work
         rdf:about="">
        <dc:format>image/svg+xml</dc:format>
        <dc:type
           rdf:resource="http://purl.org/dc/dcmitype/StillImage" />
        <dc:title />
      </cc:Work>
    </rdf:RDF>
  </metadata>
  <g
     transform="translate(-155.41387,-913.73024)"
     id="layer1"
     inkscape:groupmode="layer"
     inkscape:label="Laag 1">
    <rect
       style="fill:url(#linearGradient4845);fill-opacity:1;fill-rule:nonzero;stroke:none"
       id="rect7585"
       width="85.746552"
       height="88.582687"
       x="158.74162"
       y="960.23615" />
    <path
       inkscape:connector-curvature="0"
       id="path7583"
       d="m 158.74162,960.23611 85.74656,0"
       style="fill:none;stroke:#5599ff;stroke-width:0.35433072;stroke-linecap:butt;stroke-linejoin:miter;stroke-miterlimit:4;stroke-opacity:1;stroke-dasharray:none"
       sodipodi:nodetypes="cc" />
    <path
       inkscape:connector-curvature="0"
       id="path7073"
       d="m 158.07135,1048.8188 121.8499,0"
       style="fill:none;stroke:#000000;stroke-width:1.77165365;stroke-linecap:butt;stroke-linejoin:miter;stroke-miterlimit:4;stroke-opacity:1;stroke-dasharray:none" />
    <rect
       y="946.06293"
       x="244.48819"
       height="102.75591"
       width="10.629921"
       id="rect4925"
       style="fill:none;stroke:#000000;stroke-width:0.70866138;stroke-linecap:square;stroke-linejoin:miter;stroke-miterlimit:4;stroke-opacity:1;stroke-dasharray:none;stroke-dashoffset:0" />
    <rect
       y="956.69281"
       x="256.29532"
       height="22.53796"
       width="3.5433104"
       id="rect4927"
       style="fill:#000000;stroke:#000000;stroke-width:0.70866144;stroke-linecap:square;stroke-linejoin:miter;stroke-miterlimit:4;stroke-opacity:1;stroke-dasharray:none;stroke-dashoffset:0" />
    <rect
       style="fill:#000000;stroke:#000000;stroke-width:0.70866144;stroke-linecap:square;stroke-linejoin:miter;stroke-miterlimit:4;stroke-opacity:1;stroke-dasharray:none;stroke-dashoffset:0"
       id="rect4929"
       width="3.5433104"
       height="22.53796"
       x="239.68819"
       y="956.69281" />
    <path
       inkscape:connector-curvature="0"
       id="path4931"
       d="m 249.7338,944.31956 0,-26.6031"
       style="fill:none;stroke:#000000;stroke-width:1.77165353;stroke-linecap:butt;stroke-linejoin:miter;stroke-miterlimit:4;stroke-opacity:1;stroke-dasharray:none;marker-end:url(#Arrow1Mend)" />
    <path
       inkscape:connector-curvature="0"
       id="path5625"
       d="m 272.83464,963.77945 0,81.49605"
       style="fill:none;stroke:#000000;stroke-width:1px;stroke-linecap:butt;stroke-linejoin:miter;stroke-opacity:1;marker-start:url(#Arrow1Mstart);marker-end:url(#Arrow1Mend)" />
    <g
       ns0:preamble=""
       ns0:text="5m"
       word-spacing="normal"
       letter-spacing="normal"
       font-size-adjust="none"
       font-stretch="normal"
       font-weight="normal"
       font-variant="normal"
       font-style="normal"
       stroke-miterlimit="10.433"
       xml:space="preserve"
       transform="matrix(1.25,0,0,-1.25,-4.2729331,1896.98)"
       id="content"
       style="font-style:normal;font-variant:normal;font-weight:normal;font-stretch:normal;letter-spacing:normal;word-spacing:normal;text-anchor:start;fill:none;stroke:#000000;stroke-linecap:butt;stroke-linejoin:miter;stroke-miterlimit:10.43299961;stroke-opacity:1;stroke-dasharray:none;stroke-dashoffset:0">
<path
   id="path3028"
   d="m 227.9,709.12 0,0.11 -0.01,0.11 -0.01,0.11 -0.02,0.1 -0.02,0.11 -0.02,0.1 -0.03,0.1 -0.04,0.1 -0.03,0.1 -0.04,0.09 -0.05,0.09 -0.05,0.09 -0.05,0.09 -0.05,0.08 -0.06,0.08 -0.06,0.07 -0.07,0.08 -0.07,0.06 -0.07,0.07 -0.07,0.06 -0.08,0.06 -0.08,0.05 -0.08,0.05 -0.08,0.04 -0.09,0.04 -0.09,0.04 -0.09,0.03 -0.09,0.02 -0.1,0.02 -0.09,0.02 -0.1,0 -0.1,0.01 c -0.48,0 -0.91,-0.16 -1.27,-0.51 v 1.94 c 0.2,-0.06 0.53,-0.13 0.85,-0.13 1.23,0 1.92,0.9 1.92,1.03 0,0.06 -0.03,0.11 -0.1,0.11 -0.01,0 -0.03,0 -0.08,-0.03 -0.2,-0.09 -0.68,-0.29 -1.35,-0.29 -0.4,0 -0.86,0.07 -1.32,0.28 -0.08,0.03 -0.1,0.03 -0.12,0.03 -0.1,0 -0.1,-0.08 -0.1,-0.24 v -2.94 c 0,-0.18 0,-0.26 0.14,-0.26 0.07,0 0.09,0.03 0.13,0.09 0.11,0.16 0.47,0.7 1.28,0.7 0.52,0 0.77,-0.46 0.85,-0.64 0.15,-0.36 0.17,-0.75 0.17,-1.25 0,-0.35 0,-0.94 -0.24,-1.36 -0.23,-0.39 -0.6,-0.65 -1.06,-0.65 -0.73,0 -1.29,0.53 -1.46,1.12 0.03,-0.01 0.06,-0.02 0.17,-0.02 0.32,0 0.49,0.25 0.49,0.48 0,0.24 -0.17,0.49 -0.49,0.49 -0.14,0 -0.49,-0.07 -0.49,-0.53 0,-0.85 0.69,-1.81 1.8,-1.81 1.15,0 2.17,0.95 2.17,2.21 z"
   inkscape:connector-curvature="0"
   style="fill:#000000;stroke-width:0" />
<path
   id="path3030"
   d="m 229.51,710.54 v -2.66 c 0,-0.45 -0.11,-0.45 -0.78,-0.45 v -0.3 c 0.35,0.01 0.86,0.03 1.13,0.03 0.26,0 0.77,-0.02 1.11,-0.03 v 0.3 c -0.67,0 -0.78,0 -0.78,0.45 v 1.83 c 0,1.03 0.71,1.59 1.35,1.59 0.62,0 0.73,-0.54 0.73,-1.1 v -2.32 c 0,-0.45 -0.11,-0.45 -0.77,-0.45 v -0.3 c 0.35,0.01 0.85,0.03 1.12,0.03 0.26,0 0.78,-0.02 1.12,-0.03 v 0.3 c -0.67,0 -0.78,0 -0.78,0.45 v 1.83 c 0,1.03 0.71,1.59 1.34,1.59 0.63,0 0.74,-0.54 0.74,-1.1 v -2.32 c 0,-0.45 -0.11,-0.45 -0.78,-0.45 v -0.3 c 0.35,0.01 0.86,0.03 1.13,0.03 0.26,0 0.77,-0.02 1.11,-0.03 v 0.3 c -0.51,0 -0.76,0 -0.77,0.3 v 1.9 c 0,0.85 0,1.16 -0.31,1.52 -0.14,0.17 -0.47,0.37 -1.05,0.37 -0.83,0 -1.27,-0.6 -1.44,-0.98 -0.14,0.87 -0.88,0.98 -1.32,0.98 -0.73,0 -1.2,-0.43 -1.48,-1.05 v 1.05 l -1.4,-0.11 v -0.31 c 0.7,0 0.78,-0.07 0.78,-0.56 z"
   inkscape:connector-curvature="0"
   style="fill:#000000;stroke-width:0" />
</g>  </g>
</svg>
