<?xml version="1.0" encoding="UTF-8" standalone="no"?>
<!-- Created with Inkscape (http://www.inkscape.org/) -->

<svg
   xmlns:dc="http://purl.org/dc/elements/1.1/"
   xmlns:cc="http://creativecommons.org/ns#"
   xmlns:rdf="http://www.w3.org/1999/02/22-rdf-syntax-ns#"
   xmlns:svg="http://www.w3.org/2000/svg"
   xmlns="http://www.w3.org/2000/svg"
   xmlns:sodipodi="http://sodipodi.sourceforge.net/DTD/sodipodi-0.dtd"
   xmlns:inkscape="http://www.inkscape.org/namespaces/inkscape"
   width="354.33069"
   height="177.16534"
   id="svg3009"
   version="1.1"
   inkscape:version="0.48.2 r9819"
   sodipodi:docname="Energie_cascade.svg">
  <defs
     id="defs3011">
    <marker
       inkscape:stockid="Arrow1Mstart"
       orient="auto"
       refY="0.0"
       refX="0.0"
       id="Arrow1Mstart"
       style="overflow:visible">
      <path
         id="path3772"
         d="M 0.0,0.0 L 5.0,-5.0 L -12.5,0.0 L 5.0,5.0 L 0.0,0.0 z "
         style="fill-rule:evenodd;stroke:#000000;stroke-width:1.0pt;marker-start:none"
         transform="scale(0.4) translate(10,0)" />
    </marker>
  </defs>
  <sodipodi:namedview
     id="base"
     pagecolor="#ffffff"
     bordercolor="#666666"
     borderopacity="1.0"
     inkscape:pageopacity="0.0"
     inkscape:pageshadow="2"
     inkscape:zoom="1.979899"
     inkscape:cx="155.3922"
     inkscape:cy="118.45602"
     inkscape:document-units="mm"
     inkscape:current-layer="layer1"
     showgrid="false"
     units="mm"
     inkscape:window-width="1366"
     inkscape:window-height="706"
     inkscape:window-x="-8"
     inkscape:window-y="-8"
     inkscape:window-maximized="1">
    <inkscape:grid
       type="xygrid"
       id="grid3017"
       empspacing="5"
       visible="true"
       enabled="true"
       snapvisiblegridlinesonly="true"
       units="mm"
       spacingx="1mm"
       spacingy="1mm"
       dotted="false" />
  </sodipodi:namedview>
  <metadata
     id="metadata3014">
    <rdf:RDF>
      <cc:Work
         rdf:about="">
        <dc:format>image/svg+xml</dc:format>
        <dc:type
           rdf:resource="http://purl.org/dc/dcmitype/StillImage" />
        <dc:title></dc:title>
      </cc:Work>
    </rdf:RDF>
  </metadata>
  <g
     inkscape:label="Layer 1"
     inkscape:groupmode="layer"
     id="layer1"
     transform="translate(0,-875.19684)">
    <rect
       style="fill:#cccccc;fill-opacity:1;fill-rule:evenodd;stroke:none"
       id="rect2985"
       width="283.46457"
       height="141.73228"
       x="35.433071"
       y="903.54333" />
    <path
       style="fill:none;stroke:#000000;stroke-width:1px;stroke-linecap:butt;stroke-linejoin:miter;stroke-opacity:1"
       d="m 35.433072,885.82675 0,159.44885 283.464568,0 0,-159.44885"
       id="path2983"
       inkscape:connector-curvature="0"
       sodipodi:nodetypes="cccc" />
    <path
       style="fill:#4d4d4d;stroke:#000000;stroke-width:1px;stroke-linecap:butt;stroke-linejoin:miter;stroke-opacity:1"
       d="m 88.582677,953.14959 -10.629921,-10.62993 -35.433071,0 0,28.34646 35.433071,0 10.629921,-10.62992 88.582673,0 0,-7.08661 z"
       id="path3757"
       inkscape:connector-curvature="0"
       sodipodi:nodetypes="ccccccccc" />
    <path
       sodipodi:nodetypes="ccccccccc"
       inkscape:connector-curvature="0"
       id="path3759"
       d="m 265.74802,953.14959 10.62992,-10.62993 35.43307,0 0,28.34646 -35.43307,0 -10.62992,-10.62992 -88.58267,0 0,-7.08661 z"
       style="fill:#4d4d4d;stroke:#000000;stroke-width:1px;stroke-linecap:butt;stroke-linejoin:miter;stroke-opacity:1" />
    <path
       sodipodi:type="arc"
       style="fill:none;stroke:#000000;stroke-width:2.29782534;marker-start:url(#Arrow1Mstart)"
       id="path3761"
       sodipodi:cx="180.56477"
       sodipodi:cy="113.77827"
       sodipodi:rx="109.85409"
       sodipodi:ry="25.556871"
       d="m 221.7862,137.46766 a 109.85409,25.556871 0 1 1 59.09163,-13.2717"
       transform="matrix(1.2256774,0,0,0.34661006,-44.1488,947.37431)"
       sodipodi:start="1.1861428"
       sodipodi:end="6.7030402"
       sodipodi:open="true" />
    <path
       sodipodi:open="true"
       sodipodi:end="6.7030402"
       sodipodi:start="1.1861428"
       transform="matrix(0.58501743,0,0,0.16543744,140.40599,985.75253)"
       d="m 221.7862,137.46766 a 109.85409,25.556871 0 1 1 59.09163,-13.2717"
       sodipodi:ry="25.556871"
       sodipodi:rx="109.85409"
       sodipodi:cy="113.77827"
       sodipodi:cx="180.56477"
       id="path4759"
       style="fill:none;stroke:#000000;stroke-width:3.41687226;stroke-miterlimit:4;stroke-dasharray:none;marker-start:url(#Arrow1Mstart)"
       sodipodi:type="arc" />
    <path
       sodipodi:type="arc"
       style="fill:none;stroke:#000000;stroke-width:4.73320723;stroke-miterlimit:4;stroke-dasharray:none;marker-start:url(#Arrow1Mstart)"
       id="path4761"
       sodipodi:cx="180.56477"
       sodipodi:cy="113.77827"
       sodipodi:rx="109.85409"
       sodipodi:ry="25.556871"
       d="m 221.7862,137.46766 a 109.85409,25.556871 0 1 1 59.09163,-13.2717"
       transform="matrix(0.28154692,0,0,0.07961883,229.18743,1006.3617)"
       sodipodi:start="1.1861428"
       sodipodi:end="6.7030402"
       sodipodi:open="true" />
    <path
       sodipodi:type="arc"
       style="fill:none;stroke:#000000;stroke-width:4.89173365;stroke-miterlimit:4;stroke-dasharray:none;marker-start:url(#Arrow1Mstart)"
       id="path4777"
       sodipodi:cx="180.56477"
       sodipodi:cy="113.77827"
       sodipodi:rx="109.85409"
       sodipodi:ry="25.556871"
       d="m 221.7862,137.46766 a 109.85409,25.556871 0 1 1 59.09163,-13.2717"
       transform="matrix(0.11295221,0,0,0.04645124,224.87528,1018.3448)"
       sodipodi:start="1.1861428"
       sodipodi:end="6.7030402"
       sodipodi:open="true" />
    <path
       sodipodi:type="arc"
       style="fill:none;stroke:#000000;stroke-width:4.89173365;stroke-miterlimit:4;stroke-dasharray:none;marker-start:url(#Arrow1Mstart)"
       id="path4779"
       sodipodi:cx="180.56477"
       sodipodi:cy="113.77827"
       sodipodi:rx="109.85409"
       sodipodi:ry="25.556871"
       d="m 221.7862,137.46766 a 109.85409,25.556871 0 1 1 59.09163,-13.2717"
       transform="matrix(0.11295221,0,0,0.04645124,197.61338,1018.3448)"
       sodipodi:start="1.1861428"
       sodipodi:end="6.7030402"
       sodipodi:open="true" />
    <path
       sodipodi:type="arc"
       style="fill:none;stroke:#000000;stroke-width:4.89173365;stroke-miterlimit:4;stroke-dasharray:none;marker-start:url(#Arrow1Mstart)"
       id="path4781"
       sodipodi:cx="180.56477"
       sodipodi:cy="113.77827"
       sodipodi:rx="109.85409"
       sodipodi:ry="25.556871"
       d="m 221.7862,137.46766 a 109.85409,25.556871 0 1 1 59.09163,-13.2717"
       transform="matrix(0.11295221,0,0,0.04645124,170.35147,1018.3448)"
       sodipodi:start="1.1861428"
       sodipodi:end="6.7030402"
       sodipodi:open="true" />
    <path
       sodipodi:type="arc"
       style="fill:none;stroke:#000000;stroke-width:4.89173365;stroke-miterlimit:4;stroke-dasharray:none;marker-start:url(#Arrow1Mstart)"
       id="path4783"
       sodipodi:cx="180.56477"
       sodipodi:cy="113.77827"
       sodipodi:rx="109.85409"
       sodipodi:ry="25.556871"
       d="m 221.7862,137.46766 a 109.85409,25.556871 0 1 1 59.09163,-13.2717"
       transform="matrix(0.11295221,0,0,0.04645124,143.08957,1018.3448)"
       sodipodi:start="1.1861428"
       sodipodi:end="6.7030402"
       sodipodi:open="true" />
    <path
       sodipodi:type="arc"
       style="fill:none;stroke:#000000;stroke-width:4.89173365;stroke-miterlimit:4;stroke-dasharray:none;marker-start:url(#Arrow1Mstart)"
       id="path4785"
       sodipodi:cx="180.56477"
       sodipodi:cy="113.77827"
       sodipodi:rx="109.85409"
       sodipodi:ry="25.556871"
       d="m 221.7862,137.46766 a 109.85409,25.556871 0 1 1 59.09163,-13.2717"
       transform="matrix(0.11295221,0,0,0.04645124,115.82767,1018.3448)"
       sodipodi:start="1.1861428"
       sodipodi:end="6.7030402"
       sodipodi:open="true" />
    <path
       sodipodi:type="arc"
       style="fill:none;stroke:#000000;stroke-width:4.89173365;stroke-miterlimit:4;stroke-dasharray:none;marker-start:url(#Arrow1Mstart)"
       id="path4787"
       sodipodi:cx="180.56477"
       sodipodi:cy="113.77827"
       sodipodi:rx="109.85409"
       sodipodi:ry="25.556871"
       d="m 221.7862,137.46766 a 109.85409,25.556871 0 1 1 59.09163,-13.2717"
       transform="matrix(0.11295221,0,0,0.04645124,88.565755,1018.3448)"
       sodipodi:start="1.1861428"
       sodipodi:end="6.7030402"
       sodipodi:open="true" />
    <path
       sodipodi:type="arc"
       style="fill:none;stroke:#000000;stroke-width:4.89173365;stroke-miterlimit:4;stroke-dasharray:none;marker-start:url(#Arrow1Mstart)"
       id="path4789"
       sodipodi:cx="180.56477"
       sodipodi:cy="113.77827"
       sodipodi:rx="109.85409"
       sodipodi:ry="25.556871"
       d="m 221.7862,137.46766 a 109.85409,25.556871 0 1 1 59.09163,-13.2717"
       transform="matrix(0.11295221,0,0,0.04645124,61.303854,1018.3448)"
       sodipodi:start="1.1861428"
       sodipodi:end="6.7030402"
       sodipodi:open="true" />
    <path
       sodipodi:type="arc"
       style="fill:none;stroke:#000000;stroke-width:4.89173365;stroke-miterlimit:4;stroke-dasharray:none;marker-start:url(#Arrow1Mstart)"
       id="path4791"
       sodipodi:cx="180.56477"
       sodipodi:cy="113.77827"
       sodipodi:rx="109.85409"
       sodipodi:ry="25.556871"
       d="m 221.7862,137.46766 a 109.85409,25.556871 0 1 1 59.09163,-13.2717"
       transform="matrix(0.11295221,0,0,0.04645124,34.041945,1018.3448)"
       sodipodi:start="1.1861428"
       sodipodi:end="6.7030402"
       sodipodi:open="true" />
    <path
       sodipodi:type="arc"
       style="fill:none;stroke:#000000;stroke-width:4.89173365;stroke-miterlimit:4;stroke-dasharray:none;marker-start:url(#Arrow1Mstart)"
       id="path4793"
       sodipodi:cx="180.56477"
       sodipodi:cy="113.77827"
       sodipodi:rx="109.85409"
       sodipodi:ry="25.556871"
       d="m 221.7862,137.46766 a 109.85409,25.556871 0 1 1 59.09163,-13.2717"
       transform="matrix(0.11295221,0,0,0.04645124,279.3991,1018.3448)"
       sodipodi:start="1.1861428"
       sodipodi:end="6.7030402"
       sodipodi:open="true" />
    <path
       sodipodi:open="true"
       sodipodi:end="6.7030402"
       sodipodi:start="1.1861428"
       transform="matrix(0.11295221,0,0,0.04645124,252.1372,1018.3448)"
       d="m 221.7862,137.46766 a 109.85409,25.556871 0 1 1 59.09163,-13.2717"
       sodipodi:ry="25.556871"
       sodipodi:rx="109.85409"
       sodipodi:cy="113.77827"
       sodipodi:cx="180.56477"
       id="path4763"
       style="fill:none;stroke:#000000;stroke-width:4.89173365;stroke-miterlimit:4;stroke-dasharray:none;marker-start:url(#Arrow1Mstart)"
       sodipodi:type="arc" />
    <path
       sodipodi:type="arc"
       style="fill:none;stroke:#000000;stroke-width:9.83024311;stroke-miterlimit:4;stroke-dasharray:none;marker-start:url(#Arrow1Mstart)"
       id="path4765"
       sodipodi:cx="180.56477"
       sodipodi:cy="113.77827"
       sodipodi:rx="109.85409"
       sodipodi:ry="25.556871"
       d="m 221.7862,137.46766 a 109.85409,25.556871 0 1 1 59.09163,-13.2717"
       transform="matrix(0.0455143,0,0,0.02854574,298.4043,1027.9223)"
       sodipodi:start="1.1861428"
       sodipodi:end="6.7030402"
       sodipodi:open="true" />
    <path
       sodipodi:open="true"
       sodipodi:end="6.7030402"
       sodipodi:start="1.1861428"
       transform="matrix(0.02865483,0,0,0.01560785,303.13971,1034.2745)"
       d="m 221.7862,137.46766 a 109.85409,25.556871 0 1 1 59.09163,-13.2717"
       sodipodi:ry="25.556871"
       sodipodi:rx="109.85409"
       sodipodi:cy="113.77827"
       sodipodi:cx="180.56477"
       id="path4767"
       style="fill:none;stroke:#000000;stroke-width:8.37738323;stroke-miterlimit:4;stroke-dasharray:none;marker-start:url(#Arrow1Mstart)"
       sodipodi:type="arc" />
    <path
       sodipodi:type="arc"
       style="fill:none;stroke:#000000;stroke-width:3.41687226;stroke-miterlimit:4;stroke-dasharray:none;marker-start:url(#Arrow1Mstart)"
       id="path4769"
       sodipodi:cx="180.56477"
       sodipodi:cy="113.77827"
       sodipodi:rx="109.85409"
       sodipodi:ry="25.556871"
       d="m 221.7862,137.46766 a 109.85409,25.556871 0 1 1 59.09163,-13.2717"
       transform="matrix(0.58501743,0,0,0.16543744,1.1527014,985.75253)"
       sodipodi:start="1.1861428"
       sodipodi:end="6.7030402"
       sodipodi:open="true" />
    <path
       sodipodi:open="true"
       sodipodi:end="6.7030402"
       sodipodi:start="1.1861428"
       transform="matrix(0.28154692,0,0,0.07961883,22.611309,1006.3617)"
       d="m 221.7862,137.46766 a 109.85409,25.556871 0 1 1 59.09163,-13.2717"
       sodipodi:ry="25.556871"
       sodipodi:rx="109.85409"
       sodipodi:cy="113.77827"
       sodipodi:cx="180.56477"
       id="path4771"
       style="fill:none;stroke:#000000;stroke-width:4.73320723;stroke-miterlimit:4;stroke-dasharray:none;marker-start:url(#Arrow1Mstart)"
       sodipodi:type="arc" />
    <path
       sodipodi:type="arc"
       style="fill:none;stroke:#000000;stroke-width:4.73320723;stroke-miterlimit:4;stroke-dasharray:none;marker-start:url(#Arrow1Mstart)"
       id="path4773"
       sodipodi:cx="180.56477"
       sodipodi:cy="113.77827"
       sodipodi:rx="109.85409"
       sodipodi:ry="25.556871"
       d="m 221.7862,137.46766 a 109.85409,25.556871 0 1 1 59.09163,-13.2717"
       transform="matrix(0.28154692,0,0,0.07961883,91.470014,1006.3617)"
       sodipodi:start="1.1861428"
       sodipodi:end="6.7030402"
       sodipodi:open="true" />
    <path
       sodipodi:open="true"
       sodipodi:end="6.7030402"
       sodipodi:start="1.1861428"
       transform="matrix(0.28154692,0,0,0.07961883,160.32871,1006.3617)"
       d="m 221.7862,137.46766 a 109.85409,25.556871 0 1 1 59.09163,-13.2717"
       sodipodi:ry="25.556871"
       sodipodi:rx="109.85409"
       sodipodi:cy="113.77827"
       sodipodi:cx="180.56477"
       id="path4775"
       style="fill:none;stroke:#000000;stroke-width:4.73320723;stroke-miterlimit:4;stroke-dasharray:none;marker-start:url(#Arrow1Mstart)"
       sodipodi:type="arc" />
    <path
       sodipodi:type="arc"
       style="fill:none;stroke:#000000;stroke-width:9.83024311;stroke-miterlimit:4;stroke-dasharray:none;marker-start:url(#Arrow1Mstart)"
       id="path4797"
       sodipodi:cx="180.56477"
       sodipodi:cy="113.77827"
       sodipodi:rx="109.85409"
       sodipodi:ry="25.556871"
       d="m 221.7862,137.46766 a 109.85409,25.556871 0 1 1 59.09163,-13.2717"
       transform="matrix(0.0455143,0,0,0.02854574,283.97479,1027.9223)"
       sodipodi:start="1.1861428"
       sodipodi:end="6.7030402"
       sodipodi:open="true" />
    <path
       sodipodi:type="arc"
       style="fill:none;stroke:#000000;stroke-width:9.83024311;stroke-miterlimit:4;stroke-dasharray:none;marker-start:url(#Arrow1Mstart)"
       id="path4799"
       sodipodi:cx="180.56477"
       sodipodi:cy="113.77827"
       sodipodi:rx="109.85409"
       sodipodi:ry="25.556871"
       d="m 221.7862,137.46766 a 109.85409,25.556871 0 1 1 59.09163,-13.2717"
       transform="matrix(0.0455143,0,0,0.02854574,269.54527,1027.9223)"
       sodipodi:start="1.1861428"
       sodipodi:end="6.7030402"
       sodipodi:open="true" />
    <path
       sodipodi:type="arc"
       style="fill:none;stroke:#000000;stroke-width:9.83024311;stroke-miterlimit:4;stroke-dasharray:none;marker-start:url(#Arrow1Mstart)"
       id="path4801"
       sodipodi:cx="180.56477"
       sodipodi:cy="113.77827"
       sodipodi:rx="109.85409"
       sodipodi:ry="25.556871"
       d="m 221.7862,137.46766 a 109.85409,25.556871 0 1 1 59.09163,-13.2717"
       transform="matrix(0.0455143,0,0,0.02854574,255.11577,1027.9223)"
       sodipodi:start="1.1861428"
       sodipodi:end="6.7030402"
       sodipodi:open="true" />
    <path
       sodipodi:type="arc"
       style="fill:none;stroke:#000000;stroke-width:9.83024311;stroke-miterlimit:4;stroke-dasharray:none;marker-start:url(#Arrow1Mstart)"
       id="path4803"
       sodipodi:cx="180.56477"
       sodipodi:cy="113.77827"
       sodipodi:rx="109.85409"
       sodipodi:ry="25.556871"
       d="m 221.7862,137.46766 a 109.85409,25.556871 0 1 1 59.09163,-13.2717"
       transform="matrix(0.0455143,0,0,0.02854574,240.68626,1027.9223)"
       sodipodi:start="1.1861428"
       sodipodi:end="6.7030402"
       sodipodi:open="true" />
    <path
       sodipodi:type="arc"
       style="fill:none;stroke:#000000;stroke-width:9.83024311;stroke-miterlimit:4;stroke-dasharray:none;marker-start:url(#Arrow1Mstart)"
       id="path4805"
       sodipodi:cx="180.56477"
       sodipodi:cy="113.77827"
       sodipodi:rx="109.85409"
       sodipodi:ry="25.556871"
       d="m 221.7862,137.46766 a 109.85409,25.556871 0 1 1 59.09163,-13.2717"
       transform="matrix(0.0455143,0,0,0.02854574,226.25677,1027.9223)"
       sodipodi:start="1.1861428"
       sodipodi:end="6.7030402"
       sodipodi:open="true" />
    <path
       sodipodi:type="arc"
       style="fill:none;stroke:#000000;stroke-width:9.83024311;stroke-miterlimit:4;stroke-dasharray:none;marker-start:url(#Arrow1Mstart)"
       id="path4807"
       sodipodi:cx="180.56477"
       sodipodi:cy="113.77827"
       sodipodi:rx="109.85409"
       sodipodi:ry="25.556871"
       d="m 221.7862,137.46766 a 109.85409,25.556871 0 1 1 59.09163,-13.2717"
       transform="matrix(0.0455143,0,0,0.02854574,211.82726,1027.9223)"
       sodipodi:start="1.1861428"
       sodipodi:end="6.7030402"
       sodipodi:open="true" />
    <path
       sodipodi:type="arc"
       style="fill:none;stroke:#000000;stroke-width:9.83024311;stroke-miterlimit:4;stroke-dasharray:none;marker-start:url(#Arrow1Mstart)"
       id="path4809"
       sodipodi:cx="180.56477"
       sodipodi:cy="113.77827"
       sodipodi:rx="109.85409"
       sodipodi:ry="25.556871"
       d="m 221.7862,137.46766 a 109.85409,25.556871 0 1 1 59.09163,-13.2717"
       transform="matrix(0.0455143,0,0,0.02854574,197.39775,1027.9223)"
       sodipodi:start="1.1861428"
       sodipodi:end="6.7030402"
       sodipodi:open="true" />
    <path
       sodipodi:type="arc"
       style="fill:none;stroke:#000000;stroke-width:9.83024311;stroke-miterlimit:4;stroke-dasharray:none;marker-start:url(#Arrow1Mstart)"
       id="path4811"
       sodipodi:cx="180.56477"
       sodipodi:cy="113.77827"
       sodipodi:rx="109.85409"
       sodipodi:ry="25.556871"
       d="m 221.7862,137.46766 a 109.85409,25.556871 0 1 1 59.09163,-13.2717"
       transform="matrix(0.0455143,0,0,0.02854574,182.96825,1027.9223)"
       sodipodi:start="1.1861428"
       sodipodi:end="6.7030402"
       sodipodi:open="true" />
    <path
       sodipodi:type="arc"
       style="fill:none;stroke:#000000;stroke-width:9.83024311;stroke-miterlimit:4;stroke-dasharray:none;marker-start:url(#Arrow1Mstart)"
       id="path4813"
       sodipodi:cx="180.56477"
       sodipodi:cy="113.77827"
       sodipodi:rx="109.85409"
       sodipodi:ry="25.556871"
       d="m 221.7862,137.46766 a 109.85409,25.556871 0 1 1 59.09163,-13.2717"
       transform="matrix(0.0455143,0,0,0.02854574,168.53875,1027.9223)"
       sodipodi:start="1.1861428"
       sodipodi:end="6.7030402"
       sodipodi:open="true" />
    <path
       sodipodi:type="arc"
       style="fill:none;stroke:#000000;stroke-width:9.83024311;stroke-miterlimit:4;stroke-dasharray:none;marker-start:url(#Arrow1Mstart)"
       id="path4815"
       sodipodi:cx="180.56477"
       sodipodi:cy="113.77827"
       sodipodi:rx="109.85409"
       sodipodi:ry="25.556871"
       d="m 221.7862,137.46766 a 109.85409,25.556871 0 1 1 59.09163,-13.2717"
       transform="matrix(0.0455143,0,0,0.02854574,154.10924,1027.9223)"
       sodipodi:start="1.1861428"
       sodipodi:end="6.7030402"
       sodipodi:open="true" />
    <path
       sodipodi:type="arc"
       style="fill:none;stroke:#000000;stroke-width:9.83024311;stroke-miterlimit:4;stroke-dasharray:none;marker-start:url(#Arrow1Mstart)"
       id="path4817"
       sodipodi:cx="180.56477"
       sodipodi:cy="113.77827"
       sodipodi:rx="109.85409"
       sodipodi:ry="25.556871"
       d="m 221.7862,137.46766 a 109.85409,25.556871 0 1 1 59.09163,-13.2717"
       transform="matrix(0.0455143,0,0,0.02854574,139.67974,1027.9223)"
       sodipodi:start="1.1861428"
       sodipodi:end="6.7030402"
       sodipodi:open="true" />
    <path
       sodipodi:type="arc"
       style="fill:none;stroke:#000000;stroke-width:9.83024311;stroke-miterlimit:4;stroke-dasharray:none;marker-start:url(#Arrow1Mstart)"
       id="path4819"
       sodipodi:cx="180.56477"
       sodipodi:cy="113.77827"
       sodipodi:rx="109.85409"
       sodipodi:ry="25.556871"
       d="m 221.7862,137.46766 a 109.85409,25.556871 0 1 1 59.09163,-13.2717"
       transform="matrix(0.0455143,0,0,0.02854574,125.25024,1027.9223)"
       sodipodi:start="1.1861428"
       sodipodi:end="6.7030402"
       sodipodi:open="true" />
    <path
       sodipodi:type="arc"
       style="fill:none;stroke:#000000;stroke-width:9.83024311;stroke-miterlimit:4;stroke-dasharray:none;marker-start:url(#Arrow1Mstart)"
       id="path4821"
       sodipodi:cx="180.56477"
       sodipodi:cy="113.77827"
       sodipodi:rx="109.85409"
       sodipodi:ry="25.556871"
       d="m 221.7862,137.46766 a 109.85409,25.556871 0 1 1 59.09163,-13.2717"
       transform="matrix(0.0455143,0,0,0.02854574,110.82073,1027.9223)"
       sodipodi:start="1.1861428"
       sodipodi:end="6.7030402"
       sodipodi:open="true" />
    <path
       sodipodi:type="arc"
       style="fill:none;stroke:#000000;stroke-width:9.83024311;stroke-miterlimit:4;stroke-dasharray:none;marker-start:url(#Arrow1Mstart)"
       id="path4823"
       sodipodi:cx="180.56477"
       sodipodi:cy="113.77827"
       sodipodi:rx="109.85409"
       sodipodi:ry="25.556871"
       d="m 221.7862,137.46766 a 109.85409,25.556871 0 1 1 59.09163,-13.2717"
       transform="matrix(0.0455143,0,0,0.02854574,96.391222,1027.9223)"
       sodipodi:start="1.1861428"
       sodipodi:end="6.7030402"
       sodipodi:open="true" />
    <path
       sodipodi:type="arc"
       style="fill:none;stroke:#000000;stroke-width:9.83024311;stroke-miterlimit:4;stroke-dasharray:none;marker-start:url(#Arrow1Mstart)"
       id="path4825"
       sodipodi:cx="180.56477"
       sodipodi:cy="113.77827"
       sodipodi:rx="109.85409"
       sodipodi:ry="25.556871"
       d="m 221.7862,137.46766 a 109.85409,25.556871 0 1 1 59.09163,-13.2717"
       transform="matrix(0.0455143,0,0,0.02854574,81.961717,1027.9223)"
       sodipodi:start="1.1861428"
       sodipodi:end="6.7030402"
       sodipodi:open="true" />
    <path
       sodipodi:type="arc"
       style="fill:none;stroke:#000000;stroke-width:9.83024311;stroke-miterlimit:4;stroke-dasharray:none;marker-start:url(#Arrow1Mstart)"
       id="path4827"
       sodipodi:cx="180.56477"
       sodipodi:cy="113.77827"
       sodipodi:rx="109.85409"
       sodipodi:ry="25.556871"
       d="m 221.7862,137.46766 a 109.85409,25.556871 0 1 1 59.09163,-13.2717"
       transform="matrix(0.0455143,0,0,0.02854574,67.532211,1027.9223)"
       sodipodi:start="1.1861428"
       sodipodi:end="6.7030402"
       sodipodi:open="true" />
    <path
       sodipodi:type="arc"
       style="fill:none;stroke:#000000;stroke-width:9.83024311;stroke-miterlimit:4;stroke-dasharray:none;marker-start:url(#Arrow1Mstart)"
       id="path4829"
       sodipodi:cx="180.56477"
       sodipodi:cy="113.77827"
       sodipodi:rx="109.85409"
       sodipodi:ry="25.556871"
       d="m 221.7862,137.46766 a 109.85409,25.556871 0 1 1 59.09163,-13.2717"
       transform="matrix(0.0455143,0,0,0.02854574,53.102711,1027.9223)"
       sodipodi:start="1.1861428"
       sodipodi:end="6.7030402"
       sodipodi:open="true" />
    <path
       sodipodi:open="true"
       sodipodi:end="6.7030402"
       sodipodi:start="1.1861428"
       transform="matrix(0.0455143,0,0,0.02854574,38.673205,1027.9223)"
       d="m 221.7862,137.46766 a 109.85409,25.556871 0 1 1 59.09163,-13.2717"
       sodipodi:ry="25.556871"
       sodipodi:rx="109.85409"
       sodipodi:cy="113.77827"
       sodipodi:cx="180.56477"
       id="path4795"
       style="fill:none;stroke:#000000;stroke-width:9.83024311;stroke-miterlimit:4;stroke-dasharray:none;marker-start:url(#Arrow1Mstart)"
       sodipodi:type="arc" />
    <path
       sodipodi:open="true"
       sodipodi:end="6.7030402"
       sodipodi:start="1.1861428"
       transform="matrix(0.02865483,0,0,0.01560785,296.01286,1034.2745)"
       d="m 221.7862,137.46766 a 109.85409,25.556871 0 1 1 59.09163,-13.2717"
       sodipodi:ry="25.556871"
       sodipodi:rx="109.85409"
       sodipodi:cy="113.77827"
       sodipodi:cx="180.56477"
       id="path4833"
       style="fill:none;stroke:#000000;stroke-width:8.37738323;stroke-miterlimit:4;stroke-dasharray:none;marker-start:url(#Arrow1Mstart)"
       sodipodi:type="arc" />
    <path
       sodipodi:open="true"
       sodipodi:end="6.7030402"
       sodipodi:start="1.1861428"
       transform="matrix(0.02865483,0,0,0.01560785,288.88598,1034.2745)"
       d="m 221.7862,137.46766 a 109.85409,25.556871 0 1 1 59.09163,-13.2717"
       sodipodi:ry="25.556871"
       sodipodi:rx="109.85409"
       sodipodi:cy="113.77827"
       sodipodi:cx="180.56477"
       id="path4835"
       style="fill:none;stroke:#000000;stroke-width:8.37738323;stroke-miterlimit:4;stroke-dasharray:none;marker-start:url(#Arrow1Mstart)"
       sodipodi:type="arc" />
    <path
       sodipodi:open="true"
       sodipodi:end="6.7030402"
       sodipodi:start="1.1861428"
       transform="matrix(0.02865483,0,0,0.01560785,281.75912,1034.2745)"
       d="m 221.7862,137.46766 a 109.85409,25.556871 0 1 1 59.09163,-13.2717"
       sodipodi:ry="25.556871"
       sodipodi:rx="109.85409"
       sodipodi:cy="113.77827"
       sodipodi:cx="180.56477"
       id="path4837"
       style="fill:none;stroke:#000000;stroke-width:8.37738323;stroke-miterlimit:4;stroke-dasharray:none;marker-start:url(#Arrow1Mstart)"
       sodipodi:type="arc" />
    <path
       sodipodi:open="true"
       sodipodi:end="6.7030402"
       sodipodi:start="1.1861428"
       transform="matrix(0.02865483,0,0,0.01560785,274.63225,1034.2745)"
       d="m 221.7862,137.46766 a 109.85409,25.556871 0 1 1 59.09163,-13.2717"
       sodipodi:ry="25.556871"
       sodipodi:rx="109.85409"
       sodipodi:cy="113.77827"
       sodipodi:cx="180.56477"
       id="path4839"
       style="fill:none;stroke:#000000;stroke-width:8.37738323;stroke-miterlimit:4;stroke-dasharray:none;marker-start:url(#Arrow1Mstart)"
       sodipodi:type="arc" />
    <path
       sodipodi:open="true"
       sodipodi:end="6.7030402"
       sodipodi:start="1.1861428"
       transform="matrix(0.02865483,0,0,0.01560785,267.50539,1034.2745)"
       d="m 221.7862,137.46766 a 109.85409,25.556871 0 1 1 59.09163,-13.2717"
       sodipodi:ry="25.556871"
       sodipodi:rx="109.85409"
       sodipodi:cy="113.77827"
       sodipodi:cx="180.56477"
       id="path4841"
       style="fill:none;stroke:#000000;stroke-width:8.37738323;stroke-miterlimit:4;stroke-dasharray:none;marker-start:url(#Arrow1Mstart)"
       sodipodi:type="arc" />
    <path
       sodipodi:type="arc"
       style="fill:none;stroke:#000000;stroke-width:8.37738323;stroke-miterlimit:4;stroke-dasharray:none;marker-start:url(#Arrow1Mstart)"
       id="path4831"
       sodipodi:cx="180.56477"
       sodipodi:cy="113.77827"
       sodipodi:rx="109.85409"
       sodipodi:ry="25.556871"
       d="m 221.7862,137.46766 a 109.85409,25.556871 0 1 1 59.09163,-13.2717"
       transform="matrix(0.02865483,0,0,0.01560785,260.37853,1034.2745)"
       sodipodi:start="1.1861428"
       sodipodi:end="6.7030402"
       sodipodi:open="true" />
    <path
       sodipodi:open="true"
       sodipodi:end="6.7030402"
       sodipodi:start="1.1861428"
       transform="matrix(0.02865483,0,0,0.01560785,253.25166,1034.2745)"
       d="m 221.7862,137.46766 a 109.85409,25.556871 0 1 1 59.09163,-13.2717"
       sodipodi:ry="25.556871"
       sodipodi:rx="109.85409"
       sodipodi:cy="113.77827"
       sodipodi:cx="180.56477"
       id="path4857"
       style="fill:none;stroke:#000000;stroke-width:8.37738323;stroke-miterlimit:4;stroke-dasharray:none;marker-start:url(#Arrow1Mstart)"
       sodipodi:type="arc" />
    <path
       sodipodi:open="true"
       sodipodi:end="6.7030402"
       sodipodi:start="1.1861428"
       transform="matrix(0.02865483,0,0,0.01560785,203.36361,1034.2745)"
       d="m 221.7862,137.46766 a 109.85409,25.556871 0 1 1 59.09163,-13.2717"
       sodipodi:ry="25.556871"
       sodipodi:rx="109.85409"
       sodipodi:cy="113.77827"
       sodipodi:cx="180.56477"
       id="path4871"
       style="fill:none;stroke:#000000;stroke-width:8.37738323;stroke-miterlimit:4;stroke-dasharray:none;marker-start:url(#Arrow1Mstart)"
       sodipodi:type="arc" />
    <path
       sodipodi:open="true"
       sodipodi:end="6.7030402"
       sodipodi:start="1.1861428"
       transform="matrix(0.02865483,0,0,0.01560785,153.47557,1034.2745)"
       d="m 221.7862,137.46766 a 109.85409,25.556871 0 1 1 59.09163,-13.2717"
       sodipodi:ry="25.556871"
       sodipodi:rx="109.85409"
       sodipodi:cy="113.77827"
       sodipodi:cx="180.56477"
       id="path4885"
       style="fill:none;stroke:#000000;stroke-width:8.37738323;stroke-miterlimit:4;stroke-dasharray:none;marker-start:url(#Arrow1Mstart)"
       sodipodi:type="arc" />
    <path
       sodipodi:open="true"
       sodipodi:end="6.7030402"
       sodipodi:start="1.1861428"
       transform="matrix(0.02865483,0,0,0.01560785,103.58752,1034.2745)"
       d="m 221.7862,137.46766 a 109.85409,25.556871 0 1 1 59.09163,-13.2717"
       sodipodi:ry="25.556871"
       sodipodi:rx="109.85409"
       sodipodi:cy="113.77827"
       sodipodi:cx="180.56477"
       id="path4899"
       style="fill:none;stroke:#000000;stroke-width:8.37738323;stroke-miterlimit:4;stroke-dasharray:none;marker-start:url(#Arrow1Mstart)"
       sodipodi:type="arc" />
    <path
       sodipodi:open="true"
       sodipodi:end="6.7030402"
       sodipodi:start="1.1861428"
       transform="matrix(0.02865483,0,0,0.01560785,53.699468,1034.2745)"
       d="m 221.7862,137.46766 a 109.85409,25.556871 0 1 1 59.09163,-13.2717"
       sodipodi:ry="25.556871"
       sodipodi:rx="109.85409"
       sodipodi:cy="113.77827"
       sodipodi:cx="180.56477"
       id="path4913"
       style="fill:none;stroke:#000000;stroke-width:8.37738323;stroke-miterlimit:4;stroke-dasharray:none;marker-start:url(#Arrow1Mstart)"
       sodipodi:type="arc" />
    <path
       sodipodi:open="true"
       sodipodi:end="6.7030402"
       sodipodi:start="1.1861428"
       transform="matrix(0.02865483,0,0,0.01560785,246.12479,1034.2745)"
       d="m 221.7862,137.46766 a 109.85409,25.556871 0 1 1 59.09163,-13.2717"
       sodipodi:ry="25.556871"
       sodipodi:rx="109.85409"
       sodipodi:cy="113.77827"
       sodipodi:cx="180.56477"
       id="path4859"
       style="fill:none;stroke:#000000;stroke-width:8.37738323;stroke-miterlimit:4;stroke-dasharray:none;marker-start:url(#Arrow1Mstart)"
       sodipodi:type="arc" />
    <path
       sodipodi:open="true"
       sodipodi:end="6.7030402"
       sodipodi:start="1.1861428"
       transform="matrix(0.02865483,0,0,0.01560785,196.23675,1034.2745)"
       d="m 221.7862,137.46766 a 109.85409,25.556871 0 1 1 59.09163,-13.2717"
       sodipodi:ry="25.556871"
       sodipodi:rx="109.85409"
       sodipodi:cy="113.77827"
       sodipodi:cx="180.56477"
       id="path4873"
       style="fill:none;stroke:#000000;stroke-width:8.37738323;stroke-miterlimit:4;stroke-dasharray:none;marker-start:url(#Arrow1Mstart)"
       sodipodi:type="arc" />
    <path
       sodipodi:open="true"
       sodipodi:end="6.7030402"
       sodipodi:start="1.1861428"
       transform="matrix(0.02865483,0,0,0.01560785,146.3487,1034.2745)"
       d="m 221.7862,137.46766 a 109.85409,25.556871 0 1 1 59.09163,-13.2717"
       sodipodi:ry="25.556871"
       sodipodi:rx="109.85409"
       sodipodi:cy="113.77827"
       sodipodi:cx="180.56477"
       id="path4887"
       style="fill:none;stroke:#000000;stroke-width:8.37738323;stroke-miterlimit:4;stroke-dasharray:none;marker-start:url(#Arrow1Mstart)"
       sodipodi:type="arc" />
    <path
       sodipodi:open="true"
       sodipodi:end="6.7030402"
       sodipodi:start="1.1861428"
       transform="matrix(0.02865483,0,0,0.01560785,96.460651,1034.2745)"
       d="m 221.7862,137.46766 a 109.85409,25.556871 0 1 1 59.09163,-13.2717"
       sodipodi:ry="25.556871"
       sodipodi:rx="109.85409"
       sodipodi:cy="113.77827"
       sodipodi:cx="180.56477"
       id="path4901"
       style="fill:none;stroke:#000000;stroke-width:8.37738323;stroke-miterlimit:4;stroke-dasharray:none;marker-start:url(#Arrow1Mstart)"
       sodipodi:type="arc" />
    <path
       sodipodi:open="true"
       sodipodi:end="6.7030402"
       sodipodi:start="1.1861428"
       transform="matrix(0.02865483,0,0,0.01560785,46.572604,1034.2745)"
       d="m 221.7862,137.46766 a 109.85409,25.556871 0 1 1 59.09163,-13.2717"
       sodipodi:ry="25.556871"
       sodipodi:rx="109.85409"
       sodipodi:cy="113.77827"
       sodipodi:cx="180.56477"
       id="path4915"
       style="fill:none;stroke:#000000;stroke-width:8.37738323;stroke-miterlimit:4;stroke-dasharray:none;marker-start:url(#Arrow1Mstart)"
       sodipodi:type="arc" />
    <path
       sodipodi:open="true"
       sodipodi:end="6.7030402"
       sodipodi:start="1.1861428"
       transform="matrix(0.02865483,0,0,0.01560785,238.99793,1034.2745)"
       d="m 221.7862,137.46766 a 109.85409,25.556871 0 1 1 59.09163,-13.2717"
       sodipodi:ry="25.556871"
       sodipodi:rx="109.85409"
       sodipodi:cy="113.77827"
       sodipodi:cx="180.56477"
       id="path4861"
       style="fill:none;stroke:#000000;stroke-width:8.37738323;stroke-miterlimit:4;stroke-dasharray:none;marker-start:url(#Arrow1Mstart)"
       sodipodi:type="arc" />
    <path
       sodipodi:open="true"
       sodipodi:end="6.7030402"
       sodipodi:start="1.1861428"
       transform="matrix(0.02865483,0,0,0.01560785,189.10988,1034.2745)"
       d="m 221.7862,137.46766 a 109.85409,25.556871 0 1 1 59.09163,-13.2717"
       sodipodi:ry="25.556871"
       sodipodi:rx="109.85409"
       sodipodi:cy="113.77827"
       sodipodi:cx="180.56477"
       id="path4875"
       style="fill:none;stroke:#000000;stroke-width:8.37738323;stroke-miterlimit:4;stroke-dasharray:none;marker-start:url(#Arrow1Mstart)"
       sodipodi:type="arc" />
    <path
       sodipodi:open="true"
       sodipodi:end="6.7030402"
       sodipodi:start="1.1861428"
       transform="matrix(0.02865483,0,0,0.01560785,139.22184,1034.2745)"
       d="m 221.7862,137.46766 a 109.85409,25.556871 0 1 1 59.09163,-13.2717"
       sodipodi:ry="25.556871"
       sodipodi:rx="109.85409"
       sodipodi:cy="113.77827"
       sodipodi:cx="180.56477"
       id="path4889"
       style="fill:none;stroke:#000000;stroke-width:8.37738323;stroke-miterlimit:4;stroke-dasharray:none;marker-start:url(#Arrow1Mstart)"
       sodipodi:type="arc" />
    <path
       sodipodi:open="true"
       sodipodi:end="6.7030402"
       sodipodi:start="1.1861428"
       transform="matrix(0.02865483,0,0,0.01560785,89.33379,1034.2745)"
       d="m 221.7862,137.46766 a 109.85409,25.556871 0 1 1 59.09163,-13.2717"
       sodipodi:ry="25.556871"
       sodipodi:rx="109.85409"
       sodipodi:cy="113.77827"
       sodipodi:cx="180.56477"
       id="path4903"
       style="fill:none;stroke:#000000;stroke-width:8.37738323;stroke-miterlimit:4;stroke-dasharray:none;marker-start:url(#Arrow1Mstart)"
       sodipodi:type="arc" />
    <path
       sodipodi:open="true"
       sodipodi:end="6.7030402"
       sodipodi:start="1.1861428"
       transform="matrix(0.02865483,0,0,0.01560785,39.445739,1034.2745)"
       d="m 221.7862,137.46766 a 109.85409,25.556871 0 1 1 59.09163,-13.2717"
       sodipodi:ry="25.556871"
       sodipodi:rx="109.85409"
       sodipodi:cy="113.77827"
       sodipodi:cx="180.56477"
       id="path4917"
       style="fill:none;stroke:#000000;stroke-width:8.37738323;stroke-miterlimit:4;stroke-dasharray:none;marker-start:url(#Arrow1Mstart)"
       sodipodi:type="arc" />
    <path
       sodipodi:open="true"
       sodipodi:end="6.7030402"
       sodipodi:start="1.1861428"
       transform="matrix(0.02865483,0,0,0.01560785,231.87107,1034.2745)"
       d="m 221.7862,137.46766 a 109.85409,25.556871 0 1 1 59.09163,-13.2717"
       sodipodi:ry="25.556871"
       sodipodi:rx="109.85409"
       sodipodi:cy="113.77827"
       sodipodi:cx="180.56477"
       id="path4863"
       style="fill:none;stroke:#000000;stroke-width:8.37738323;stroke-miterlimit:4;stroke-dasharray:none;marker-start:url(#Arrow1Mstart)"
       sodipodi:type="arc" />
    <path
       sodipodi:open="true"
       sodipodi:end="6.7030402"
       sodipodi:start="1.1861428"
       transform="matrix(0.02865483,0,0,0.01560785,181.98301,1034.2745)"
       d="m 221.7862,137.46766 a 109.85409,25.556871 0 1 1 59.09163,-13.2717"
       sodipodi:ry="25.556871"
       sodipodi:rx="109.85409"
       sodipodi:cy="113.77827"
       sodipodi:cx="180.56477"
       id="path4877"
       style="fill:none;stroke:#000000;stroke-width:8.37738323;stroke-miterlimit:4;stroke-dasharray:none;marker-start:url(#Arrow1Mstart)"
       sodipodi:type="arc" />
    <path
       sodipodi:open="true"
       sodipodi:end="6.7030402"
       sodipodi:start="1.1861428"
       transform="matrix(0.02865483,0,0,0.01560785,132.09498,1034.2745)"
       d="m 221.7862,137.46766 a 109.85409,25.556871 0 1 1 59.09163,-13.2717"
       sodipodi:ry="25.556871"
       sodipodi:rx="109.85409"
       sodipodi:cy="113.77827"
       sodipodi:cx="180.56477"
       id="path4891"
       style="fill:none;stroke:#000000;stroke-width:8.37738323;stroke-miterlimit:4;stroke-dasharray:none;marker-start:url(#Arrow1Mstart)"
       sodipodi:type="arc" />
    <path
       sodipodi:open="true"
       sodipodi:end="6.7030402"
       sodipodi:start="1.1861428"
       transform="matrix(0.02865483,0,0,0.01560785,82.206926,1034.2745)"
       d="m 221.7862,137.46766 a 109.85409,25.556871 0 1 1 59.09163,-13.2717"
       sodipodi:ry="25.556871"
       sodipodi:rx="109.85409"
       sodipodi:cy="113.77827"
       sodipodi:cx="180.56477"
       id="path4905"
       style="fill:none;stroke:#000000;stroke-width:8.37738323;stroke-miterlimit:4;stroke-dasharray:none;marker-start:url(#Arrow1Mstart)"
       sodipodi:type="arc" />
    <path
       sodipodi:open="true"
       sodipodi:end="6.7030402"
       sodipodi:start="1.1861428"
       transform="matrix(0.02865483,0,0,0.01560785,224.7442,1034.2745)"
       d="m 221.7862,137.46766 a 109.85409,25.556871 0 1 1 59.09163,-13.2717"
       sodipodi:ry="25.556871"
       sodipodi:rx="109.85409"
       sodipodi:cy="113.77827"
       sodipodi:cx="180.56477"
       id="path4865"
       style="fill:none;stroke:#000000;stroke-width:8.37738323;stroke-miterlimit:4;stroke-dasharray:none;marker-start:url(#Arrow1Mstart)"
       sodipodi:type="arc" />
    <path
       sodipodi:open="true"
       sodipodi:end="6.7030402"
       sodipodi:start="1.1861428"
       transform="matrix(0.02865483,0,0,0.01560785,174.85615,1034.2745)"
       d="m 221.7862,137.46766 a 109.85409,25.556871 0 1 1 59.09163,-13.2717"
       sodipodi:ry="25.556871"
       sodipodi:rx="109.85409"
       sodipodi:cy="113.77827"
       sodipodi:cx="180.56477"
       id="path4879"
       style="fill:none;stroke:#000000;stroke-width:8.37738323;stroke-miterlimit:4;stroke-dasharray:none;marker-start:url(#Arrow1Mstart)"
       sodipodi:type="arc" />
    <path
       sodipodi:open="true"
       sodipodi:end="6.7030402"
       sodipodi:start="1.1861428"
       transform="matrix(0.02865483,0,0,0.01560785,124.96811,1034.2745)"
       d="m 221.7862,137.46766 a 109.85409,25.556871 0 1 1 59.09163,-13.2717"
       sodipodi:ry="25.556871"
       sodipodi:rx="109.85409"
       sodipodi:cy="113.77827"
       sodipodi:cx="180.56477"
       id="path4893"
       style="fill:none;stroke:#000000;stroke-width:8.37738323;stroke-miterlimit:4;stroke-dasharray:none;marker-start:url(#Arrow1Mstart)"
       sodipodi:type="arc" />
    <path
       sodipodi:open="true"
       sodipodi:end="6.7030402"
       sodipodi:start="1.1861428"
       transform="matrix(0.02865483,0,0,0.01560785,75.080062,1034.2745)"
       d="m 221.7862,137.46766 a 109.85409,25.556871 0 1 1 59.09163,-13.2717"
       sodipodi:ry="25.556871"
       sodipodi:rx="109.85409"
       sodipodi:cy="113.77827"
       sodipodi:cx="180.56477"
       id="path4907"
       style="fill:none;stroke:#000000;stroke-width:8.37738323;stroke-miterlimit:4;stroke-dasharray:none;marker-start:url(#Arrow1Mstart)"
       sodipodi:type="arc" />
    <path
       sodipodi:open="true"
       sodipodi:end="6.7030402"
       sodipodi:start="1.1861428"
       transform="matrix(0.02865483,0,0,0.01560785,210.49048,1034.2745)"
       d="m 221.7862,137.46766 a 109.85409,25.556871 0 1 1 59.09163,-13.2717"
       sodipodi:ry="25.556871"
       sodipodi:rx="109.85409"
       sodipodi:cy="113.77827"
       sodipodi:cx="180.56477"
       id="path4867"
       style="fill:none;stroke:#000000;stroke-width:8.37738323;stroke-miterlimit:4;stroke-dasharray:none;marker-start:url(#Arrow1Mstart)"
       sodipodi:type="arc" />
    <path
       sodipodi:open="true"
       sodipodi:end="6.7030402"
       sodipodi:start="1.1861428"
       transform="matrix(0.02865483,0,0,0.01560785,167.72929,1034.2745)"
       d="m 221.7862,137.46766 a 109.85409,25.556871 0 1 1 59.09163,-13.2717"
       sodipodi:ry="25.556871"
       sodipodi:rx="109.85409"
       sodipodi:cy="113.77827"
       sodipodi:cx="180.56477"
       id="path4881"
       style="fill:none;stroke:#000000;stroke-width:8.37738323;stroke-miterlimit:4;stroke-dasharray:none;marker-start:url(#Arrow1Mstart)"
       sodipodi:type="arc" />
    <path
       sodipodi:open="true"
       sodipodi:end="6.7030402"
       sodipodi:start="1.1861428"
       transform="matrix(0.02865483,0,0,0.01560785,117.84125,1034.2745)"
       d="m 221.7862,137.46766 a 109.85409,25.556871 0 1 1 59.09163,-13.2717"
       sodipodi:ry="25.556871"
       sodipodi:rx="109.85409"
       sodipodi:cy="113.77827"
       sodipodi:cx="180.56477"
       id="path4895"
       style="fill:none;stroke:#000000;stroke-width:8.37738323;stroke-miterlimit:4;stroke-dasharray:none;marker-start:url(#Arrow1Mstart)"
       sodipodi:type="arc" />
    <path
       sodipodi:open="true"
       sodipodi:end="6.7030402"
       sodipodi:start="1.1861428"
       transform="matrix(0.02865483,0,0,0.01560785,60.826331,1034.2745)"
       d="m 221.7862,137.46766 a 109.85409,25.556871 0 1 1 59.09163,-13.2717"
       sodipodi:ry="25.556871"
       sodipodi:rx="109.85409"
       sodipodi:cy="113.77827"
       sodipodi:cx="180.56477"
       id="path4909"
       style="fill:none;stroke:#000000;stroke-width:8.37738323;stroke-miterlimit:4;stroke-dasharray:none;marker-start:url(#Arrow1Mstart)"
       sodipodi:type="arc" />
    <path
       sodipodi:type="arc"
       style="fill:none;stroke:#000000;stroke-width:8.37738323;stroke-miterlimit:4;stroke-dasharray:none;marker-start:url(#Arrow1Mstart)"
       id="path4869"
       sodipodi:cx="180.56477"
       sodipodi:cy="113.77827"
       sodipodi:rx="109.85409"
       sodipodi:ry="25.556871"
       d="m 221.7862,137.46766 a 109.85409,25.556871 0 1 1 59.09163,-13.2717"
       transform="matrix(0.02865483,0,0,0.01560785,217.61734,1034.2745)"
       sodipodi:start="1.1861428"
       sodipodi:end="6.7030402"
       sodipodi:open="true" />
    <path
       sodipodi:type="arc"
       style="fill:none;stroke:#000000;stroke-width:8.37738323;stroke-miterlimit:4;stroke-dasharray:none;marker-start:url(#Arrow1Mstart)"
       id="path4883"
       sodipodi:cx="180.56477"
       sodipodi:cy="113.77827"
       sodipodi:rx="109.85409"
       sodipodi:ry="25.556871"
       d="m 221.7862,137.46766 a 109.85409,25.556871 0 1 1 59.09163,-13.2717"
       transform="matrix(0.02865483,0,0,0.01560785,160.60243,1034.2745)"
       sodipodi:start="1.1861428"
       sodipodi:end="6.7030402"
       sodipodi:open="true" />
    <path
       sodipodi:type="arc"
       style="fill:none;stroke:#000000;stroke-width:8.37738323;stroke-miterlimit:4;stroke-dasharray:none;marker-start:url(#Arrow1Mstart)"
       id="path4897"
       sodipodi:cx="180.56477"
       sodipodi:cy="113.77827"
       sodipodi:rx="109.85409"
       sodipodi:ry="25.556871"
       d="m 221.7862,137.46766 a 109.85409,25.556871 0 1 1 59.09163,-13.2717"
       transform="matrix(0.02865483,0,0,0.01560785,110.71438,1034.2745)"
       sodipodi:start="1.1861428"
       sodipodi:end="6.7030402"
       sodipodi:open="true" />
    <path
       sodipodi:type="arc"
       style="fill:none;stroke:#000000;stroke-width:8.37738323;stroke-miterlimit:4;stroke-dasharray:none;marker-start:url(#Arrow1Mstart)"
       id="path4911"
       sodipodi:cx="180.56477"
       sodipodi:cy="113.77827"
       sodipodi:rx="109.85409"
       sodipodi:ry="25.556871"
       d="m 221.7862,137.46766 a 109.85409,25.556871 0 1 1 59.09163,-13.2717"
       transform="matrix(0.02865483,0,0,0.01560785,67.953195,1034.2745)"
       sodipodi:start="1.1861428"
       sodipodi:end="6.7030402"
       sodipodi:open="true" />
    <rect
       style="fill:#4d4d4d;fill-opacity:1;fill-rule:evenodd;stroke:#000000;stroke-width:1.00275588;stroke-linecap:round;stroke-linejoin:round;stroke-miterlimit:4;stroke-opacity:1;stroke-dasharray:none;stroke-dashoffset:0"
       id="rect4927"
       width="14.173229"
       height="81.496063"
       x="170.07874"
       y="889.37006" />
  </g>
</svg>
