<?xml version="1.0" encoding="UTF-8" standalone="no"?>
<!-- Created with Inkscape (http://www.inkscape.org/) -->

<svg
   xmlns:ns0="http://www.iki.fi/pav/software/textext/"
   xmlns:dc="http://purl.org/dc/elements/1.1/"
   xmlns:cc="http://creativecommons.org/ns#"
   xmlns:rdf="http://www.w3.org/1999/02/22-rdf-syntax-ns#"
   xmlns:svg="http://www.w3.org/2000/svg"
   xmlns="http://www.w3.org/2000/svg"
   xmlns:sodipodi="http://sodipodi.sourceforge.net/DTD/sodipodi-0.dtd"
   xmlns:inkscape="http://www.inkscape.org/namespaces/inkscape"
   width="159.44882"
   height="81.496063"
   id="svg5414"
   version="1.1"
   inkscape:version="0.48.2 r9819"
   sodipodi:docname="Stroomlijnen.svg">
  <sodipodi:namedview
     inkscape:document-units="mm"
     id="base"
     pagecolor="#ffffff"
     bordercolor="#666666"
     borderopacity="1.0"
     inkscape:pageopacity="0.0"
     inkscape:pageshadow="2"
     inkscape:zoom="2.8"
     inkscape:cx="50.672827"
     inkscape:cy="39.588148"
     inkscape:current-layer="layer3"
     showgrid="false"
     inkscape:window-width="1366"
     inkscape:window-height="706"
     inkscape:window-x="-8"
     inkscape:window-y="-8"
     inkscape:window-maximized="1"
     units="mm"
     objecttolerance="10"
     guidetolerance="10">
    <inkscape:grid
       type="xygrid"
       id="grid8852"
       empspacing="5"
       visible="true"
       enabled="true"
       snapvisiblegridlinesonly="false"
       units="mm"
       spacingx="1mm"
       spacingy="1mm" />
  </sodipodi:namedview>
  <defs
     id="defs3">
    <marker
       inkscape:stockid="Arrow1Lstart"
       orient="auto"
       refY="0"
       refX="0"
       id="Arrow1Lstart"
       style="overflow:visible">
      <path
         id="path5974"
         d="M 0,0 5,-5 -12.5,0 5,5 0,0 z"
         style="fill-rule:evenodd;stroke:#000000;stroke-width:1pt;marker-start:none"
         transform="matrix(0.8,0,0,0.8,10,0)"
         inkscape:connector-curvature="0" />
    </marker>
    <marker
       inkscape:stockid="Arrow1Lend"
       orient="auto"
       refY="0"
       refX="0"
       id="Arrow1Lend"
       style="overflow:visible">
      <path
         id="path5977"
         d="M 0,0 5,-5 -12.5,0 5,5 0,0 z"
         style="fill-rule:evenodd;stroke:#000000;stroke-width:1pt;marker-start:none"
         transform="matrix(-0.8,0,0,-0.8,-10,0)"
         inkscape:connector-curvature="0" />
    </marker>
    <marker
       inkscape:stockid="Arrow1Mend"
       orient="auto"
       refY="0"
       refX="0"
       id="Arrow1Mend"
       style="overflow:visible">
      <path
         id="path5983"
         d="M 0,0 5,-5 -12.5,0 5,5 0,0 z"
         style="fill-rule:evenodd;stroke:#000000;stroke-width:1pt;marker-start:none"
         transform="matrix(-0.4,0,0,-0.4,-4,0)"
         inkscape:connector-curvature="0" />
    </marker>
    <inkscape:path-effect
       effect="spiro"
       id="path-effect5941"
       is_visible="true" />
    <inkscape:path-effect
       effect="spiro"
       id="path-effect5937"
       is_visible="true" />
  </defs>
  <metadata
     id="metadata4">
    <rdf:RDF>
      <cc:Work
         rdf:about="">
        <dc:format>image/svg+xml</dc:format>
        <dc:type
           rdf:resource="http://purl.org/dc/dcmitype/StillImage" />
        <dc:title />
      </cc:Work>
    </rdf:RDF>
  </metadata>
  <g
     style="font-style:normal;font-variant:normal;font-weight:normal;font-stretch:normal;letter-spacing:normal;word-spacing:normal;text-anchor:start;fill:none;stroke:#000000;stroke-linecap:butt;stroke-linejoin:miter;stroke-miterlimit:10.43299961;stroke-opacity:1;stroke-dasharray:none;stroke-dashoffset:0"
     id="content"
     transform="matrix(4,0,0,-4,-591.42857,2031.9911)"
     xml:space="preserve"
     stroke-miterlimit="10.433"
     font-style="normal"
     font-variant="normal"
     font-weight="normal"
     font-stretch="normal"
     font-size-adjust="none"
     letter-spacing="normal"
     word-spacing="normal"
     ns0:text="$t$"
     ns0:preamble="">

</g>  <g
     inkscape:groupmode="layer"
     id="layer3"
     inkscape:label="Snelheid"
     transform="translate(0,-970.86612)"
     style="display:inline">
    <path
       inkscape:connector-curvature="0"
       id="path4494"
       d="M 37.501443,1037.2216 C 140.39886,988.37448 140.39886,988.37448 140.39886,988.37448"
       style="fill:none;stroke:#000000;stroke-width:1px;stroke-linecap:butt;stroke-linejoin:miter;stroke-opacity:1;marker-mid:none;marker-end:url(#Arrow1Mend)" />
    <path
       sodipodi:nodetypes="cc"
       style="fill:none;stroke:#000000;stroke-width:1px;stroke-linecap:butt;stroke-linejoin:miter;stroke-opacity:1;marker-mid:none;marker-end:url(#Arrow1Mend)"
       d="m 37.664473,1037.348 102.453817,0"
       id="path5240"
       inkscape:connector-curvature="0" />
    <path
       inkscape:connector-curvature="0"
       id="path5242"
       d="m 142.02487,1037.3426 0,-47.73637"
       style="fill:none;stroke:#000000;stroke-width:1px;stroke-linecap:butt;stroke-linejoin:miter;stroke-opacity:1;marker-mid:none;marker-end:url(#Arrow1Mend)"
       sodipodi:nodetypes="cc" />
    <path
       style="fill:none;stroke:#000000;stroke-width:0.99999994px;stroke-linecap:butt;stroke-linejoin:miter;stroke-opacity:1;marker-mid:none;marker-end:url(#Arrow1Mend)"
       d="M 56.50178,1028.1302 C 121.6383,997.39952 121.6383,997.39952 121.6383,997.39952"
       id="path7575"
       inkscape:connector-curvature="0" />
    <text
       xml:space="preserve"
       style="font-size:13px;font-style:normal;font-variant:normal;font-weight:normal;font-stretch:normal;line-height:125%;letter-spacing:0px;word-spacing:0px;fill:#000000;fill-opacity:1;stroke:none;font-family:Arial;-inkscape-font-specification:Arial"
       x="5.8571444"
       y="1020.0408"
       id="text3039"
       sodipodi:linespacing="125%"><tspan
         sodipodi:role="line"
         id="tspan3041"
         x="5.8571444"
         y="1020.0408">$\diff y$</tspan></text>
    <text
       xml:space="preserve"
       style="font-size:13px;font-style:normal;font-variant:normal;font-weight:normal;font-stretch:normal;line-height:125%;letter-spacing:0px;word-spacing:0px;fill:#000000;fill-opacity:1;stroke:none;font-family:Arial;-inkscape-font-specification:Arial"
       x="23.392857"
       y="1049.7194"
       id="text3043"
       sodipodi:linespacing="125%"><tspan
         sodipodi:role="line"
         id="tspan3045"
         x="23.392857"
         y="1049.7194">$\diff x$</tspan></text>
    <text
       xml:space="preserve"
       style="font-size:13px;font-style:normal;font-variant:normal;font-weight:normal;font-stretch:normal;line-height:125%;letter-spacing:0px;word-spacing:0px;fill:#000000;fill-opacity:1;stroke:none;font-family:Arial;-inkscape-font-specification:Arial"
       x="31.785713"
       y="1017.7193"
       id="text3047"
       sodipodi:linespacing="125%"><tspan
         sodipodi:role="line"
         id="tspan3049"
         x="31.785713"
         y="1017.7193">$\diff n$</tspan></text>
    <text
       xml:space="preserve"
       style="font-size:13px;font-style:normal;font-variant:normal;font-weight:normal;font-stretch:normal;line-height:125%;letter-spacing:0px;word-spacing:0px;fill:#000000;fill-opacity:1;stroke:none;font-family:Arial;-inkscape-font-specification:Arial"
       x="89.535713"
       y="997.21942"
       id="text3051"
       sodipodi:linespacing="125%"><tspan
         sodipodi:role="line"
         id="tspan3053"
         x="89.535713"
         y="997.21942">$\vt{v}_{x,\perp}$</tspan></text>
    <text
       sodipodi:linespacing="125%"
       id="text3055"
       y="982.79077"
       x="123.71429"
       style="font-size:13px;font-style:normal;font-variant:normal;font-weight:normal;font-stretch:normal;line-height:125%;letter-spacing:0px;word-spacing:0px;fill:#000000;fill-opacity:1;stroke:none;font-family:Arial;-inkscape-font-specification:Arial"
       xml:space="preserve"><tspan
         y="982.79077"
         x="123.71429"
         id="tspan3057"
         sodipodi:role="line">$\vt{v}_{y,\perp}$</tspan></text>
    <text
       sodipodi:linespacing="125%"
       id="text3059"
       y="1046.4692"
       x="114.64285"
       style="font-size:13px;font-style:normal;font-variant:normal;font-weight:normal;font-stretch:normal;line-height:125%;letter-spacing:0px;word-spacing:0px;fill:#000000;fill-opacity:1;stroke:none;font-family:Arial;-inkscape-font-specification:Arial"
       xml:space="preserve"><tspan
         y="1046.4692"
         x="114.64285"
         id="tspan3061"
         sodipodi:role="line">$\vt{v}_{x}$</tspan></text>
    <text
       xml:space="preserve"
       style="font-size:13px;font-style:normal;font-variant:normal;font-weight:normal;font-stretch:normal;line-height:125%;letter-spacing:0px;word-spacing:0px;fill:#000000;fill-opacity:1;stroke:none;font-family:Arial;-inkscape-font-specification:Arial"
       x="143.03572"
       y="1010.0408"
       id="text3063"
       sodipodi:linespacing="125%"><tspan
         sodipodi:role="line"
         id="tspan3065"
         x="143.03572"
         y="1010.0408">$\vt{v}_{y}$</tspan></text>
  </g>
  <g
     style="display:inline"
     transform="translate(0,-970.86612)"
     inkscape:label="dn"
     id="g6995"
     inkscape:groupmode="layer">
    <path
       inkscape:transform-center-y="-17.82794"
       inkscape:transform-center-x="8.4752106"
       style="fill:none;stroke:#000000;stroke-width:0.99999994px;stroke-linecap:butt;stroke-linejoin:miter;stroke-opacity:1;marker-mid:none;marker-end:url(#Arrow1Mend)"
       d="m 37.596393,1036.913 c -15.80106,-34.0202 -15.80106,-34.0202 -15.80106,-34.0202"
       id="path7019"
       inkscape:connector-curvature="0" />
    <path
       inkscape:connector-curvature="0"
       id="path7025"
       d="m 21.019993,1037.3955 0,-33.9664"
       style="fill:none;stroke:#000000;stroke-width:1px;stroke-linecap:butt;stroke-linejoin:miter;stroke-opacity:1;marker-end:url(#Arrow1Mend)" />
    <path
       style="fill:none;stroke:#000000;stroke-width:1px;stroke-linecap:butt;stroke-linejoin:miter;stroke-opacity:1;marker-end:url(#Arrow1Mend)"
       d="m 37.672673,1037.2841 -14.62516,0"
       id="path7027"
       inkscape:connector-curvature="0" />
    <path
       inkscape:connector-curvature="0"
       id="path7127"
       d="M 141.66269,1037.2456 C 121.87672,994.91927 121.87672,994.91927 121.87672,994.91927"
       style="fill:none;stroke:#000000;stroke-width:0.99999994;stroke-linecap:butt;stroke-linejoin:miter;stroke-miterlimit:4;stroke-opacity:1;stroke-dasharray:3.99999967, 3.99999967;stroke-dashoffset:0;marker-mid:none;marker-end:none"
       inkscape:transform-center-x="10.612595"
       inkscape:transform-center-y="-22.180741" />
  </g>
  <g
     style="display:none"
     transform="translate(0,-970.86612)"
     inkscape:label="ds"
     id="g6923"
     inkscape:groupmode="layer">
    <path
       inkscape:connector-curvature="0"
       id="path6945"
       d="m 37.497243,1037.2175 c 34.62037,-16.4448 34.62037,-16.4448 34.62037,-16.4448"
       style="fill:none;stroke:#000000;stroke-width:0.99999994px;stroke-linecap:butt;stroke-linejoin:miter;stroke-opacity:1;marker-mid:none;marker-end:url(#Arrow1Mend)"
       inkscape:transform-center-x="-18.132623"
       inkscape:transform-center-y="-8.8160997" />
    <path
       style="fill:none;stroke:#000000;stroke-width:1px;stroke-linecap:butt;stroke-linejoin:miter;stroke-opacity:1;marker-end:url(#Arrow1Mend)"
       d="m 37.375653,1037.288 34.70762,0"
       id="path6949"
       inkscape:connector-curvature="0" />
    <path
       inkscape:connector-curvature="0"
       id="path6951"
       d="m 73.800463,1037.3324 0,-15.4459"
       style="fill:none;stroke:#000000;stroke-width:1px;stroke-linecap:butt;stroke-linejoin:miter;stroke-opacity:1;marker-end:url(#Arrow1Mend)" />
    <g
       id="g5857"
       transform="matrix(1.25,0,0,-1.25,-53.431315,1635.3203)"
       xml:space="preserve"
       stroke-miterlimit="10.433"
       font-style="normal"
       font-variant="normal"
       font-weight="normal"
       font-stretch="normal"
       font-size-adjust="none"
       letter-spacing="normal"
       word-spacing="normal"
       ns0:text="$\\diff s$"
       ns0:preamble="D:\\Documenten\\Worksheets\\Inkscape\\incscape_preamble.tex"
       style="font-style:normal;font-variant:normal;font-weight:normal;font-stretch:normal;letter-spacing:normal;word-spacing:normal;text-anchor:start;fill:none;stroke:#000000;stroke-linecap:butt;stroke-linejoin:miter;stroke-miterlimit:10.43299961;stroke-opacity:1;stroke-dasharray:none;stroke-dashoffset:0;display:inline">
<path
   style="fill:#000000;stroke-width:0"
   inkscape:connector-curvature="0"
   d="m 93.781,493.72 v -0.65 l 1.462,0.11 v 0.3 c -0.696,0 -0.776,0.07 -0.776,0.56 v 6.03 l -1.432,-0.11 v -0.31 c 0.696,0 0.776,-0.07 0.776,-0.55 v -2.15 c -0.289,0.36 -0.717,0.62 -1.254,0.62 l 0.04,-0.22 c 0.348,0 0.766,-0.15 1.074,-0.6 0.11,-0.17 0.11,-0.19 0.11,-0.36 h 0 v -2.04 c 0,-0.18 0,-0.2 -0.11,-0.37 -0.298,-0.48 -0.746,-0.69 -1.174,-0.69 -0.448,0 -0.806,0.25 -1.045,0.63 -0.258,0.41 -0.288,0.97 -0.288,1.38 0,0.37 0.02,0.97 0.309,1.41 0.208,0.31 0.587,0.64 1.124,0.64 l -0.04,0.22 c -1.174,0 -2.219,-0.98 -2.219,-2.26 0,-1.26 0.975,-2.24 2.11,-2.24 0.636,0 1.084,0.33 1.333,0.65 z"
   id="path5859" />
<path
   style="fill:#000000;stroke-width:0"
   inkscape:connector-curvature="0"
   d="m 99.425,496.89 -0.026,0 -0.025,0 -0.025,-0.01 -0.024,0 -0.024,-0.01 -0.023,-0.01 -0.023,0 -0.022,-0.01 -0.021,-0.01 -0.021,-0.01 -0.02,-0.01 -0.019,-0.02 -0.019,-0.01 -0.018,-0.01 -0.017,-0.02 -0.016,-0.01 -0.016,-0.02 -0.014,-0.02 -0.014,-0.01 -0.013,-0.02 -0.012,-0.02 -0.011,-0.02 -0.01,-0.02 -0.009,-0.02 -0.008,-0.01 -0.007,-0.02 -0.006,-0.02 -0.005,-0.02 -0.004,-0.02 -0.003,-0.03 -0.002,-0.02 0,-0.02 c 0,-0.14 0.089,-0.28 0.308,-0.28 0.219,0 0.458,0.17 0.458,0.55 0,0.45 -0.428,0.86 -1.184,0.86 -1.314,0 -1.682,-1.02 -1.682,-1.45 0,-0.78 0.737,-0.93 1.025,-0.99 0.517,-0.1 1.035,-0.21 1.035,-0.75 0,-0.26 -0.229,-1.09 -1.423,-1.09 -0.139,0 -0.905,0 -1.134,0.52 0.378,-0.05 0.627,0.25 0.627,0.53 0,0.23 -0.16,0.35 -0.369,0.35 -0.258,0 -0.557,-0.21 -0.557,-0.66 0,-0.57 0.567,-0.96 1.423,-0.96 1.612,0 2,1.2 2,1.65 0,0.35 -0.189,0.6 -0.309,0.72 -0.268,0.28 -0.557,0.33 -0.994,0.42 -0.359,0.08 -0.757,0.15 -0.757,0.59 0,0.29 0.239,0.9 1.115,0.9 0.248,0 0.746,-0.07 0.895,-0.46 z"
   id="path5861" />
</g>    <g
       style="font-style:normal;font-variant:normal;font-weight:normal;font-stretch:normal;letter-spacing:normal;word-spacing:normal;text-anchor:start;fill:none;stroke:#000000;stroke-linecap:butt;stroke-linejoin:miter;stroke-miterlimit:10.43299961;stroke-opacity:1;stroke-dasharray:none;stroke-dashoffset:0;display:inline"
       ns0:preamble="D:\\Documenten\\Worksheets\\Inkscape\\incscape_preamble.tex"
       ns0:text="$\\diff x$"
       word-spacing="normal"
       letter-spacing="normal"
       font-size-adjust="none"
       font-stretch="normal"
       font-weight="normal"
       font-variant="normal"
       font-style="normal"
       stroke-miterlimit="10.433"
       xml:space="preserve"
       transform="matrix(1.25,0,0,-1.25,-58.734615,1664.3622)"
       id="g6521">
<path
   id="path6523"
   d="m 93.781,493.72 v -0.65 l 1.462,0.11 v 0.3 c -0.696,0 -0.776,0.07 -0.776,0.56 v 6.03 l -1.432,-0.11 v -0.31 c 0.696,0 0.776,-0.07 0.776,-0.55 v -2.15 c -0.289,0.36 -0.717,0.62 -1.254,0.62 l 0.04,-0.22 c 0.348,0 0.766,-0.15 1.074,-0.6 0.11,-0.17 0.11,-0.19 0.11,-0.36 h 0 v -2.04 c 0,-0.18 0,-0.2 -0.11,-0.37 -0.298,-0.48 -0.746,-0.69 -1.174,-0.69 -0.448,0 -0.806,0.25 -1.045,0.63 -0.258,0.41 -0.288,0.97 -0.288,1.38 0,0.37 0.02,0.97 0.309,1.41 0.208,0.31 0.587,0.64 1.124,0.64 l -0.04,0.22 c -1.174,0 -2.219,-0.98 -2.219,-2.26 0,-1.26 0.975,-2.24 2.11,-2.24 0.636,0 1.084,0.33 1.333,0.65 z"
   inkscape:connector-curvature="0"
   style="fill:#000000;stroke-width:0" />
<path
   id="path6525"
   d="m 98.858,496.18 0.006,0.02 0.007,0.03 0.009,0.03 0.009,0.04 0.011,0.04 0.011,0.04 0.014,0.04 0.014,0.05 0.016,0.04 0.018,0.05 0.019,0.05 0.02,0.05 0.023,0.05 0.024,0.05 0.025,0.05 0.028,0.05 0.029,0.05 0.031,0.04 0.034,0.05 0.035,0.05 0.037,0.04 0.04,0.04 0.042,0.04 0.044,0.03 0.046,0.03 0.049,0.03 0.025,0.01 0.026,0.02 0.026,0.01 0.027,0.01 0.028,0.01 0.028,0.01 0.029,0 0.03,0.01 0.03,0 0.031,0.01 0.032,0 0.032,0 c 0.05,0 0.287,0 0.497,-0.13 -0.28,-0.05 -0.477,-0.3 -0.477,-0.54 0,-0.16 0.109,-0.35 0.377,-0.35 0.22,0 0.54,0.18 0.54,0.58 0,0.52 -0.59,0.66 -0.927,0.66 -0.577,0 -0.925,-0.53 -1.045,-0.76 -0.248,0.66 -0.786,0.76 -1.074,0.76 -1.035,0 -1.602,-1.28 -1.602,-1.53 0,-0.1 0.099,-0.1 0.119,-0.1 0.08,0 0.11,0.02 0.13,0.11 0.338,1.05 0.995,1.3 1.333,1.3 0.189,0 0.537,-0.09 0.537,-0.67 0,-0.3 -0.169,-0.97 -0.537,-2.36 -0.159,-0.62 -0.508,-1.03 -0.945,-1.03 -0.06,0 -0.289,0 -0.498,0.12 0.249,0.05 0.468,0.26 0.468,0.54 0,0.27 -0.219,0.35 -0.368,0.35 -0.299,0 -0.547,-0.26 -0.547,-0.58 0,-0.45 0.497,-0.65 0.935,-0.65 0.656,0 1.014,0.69 1.044,0.75 0.12,-0.37 0.478,-0.75 1.075,-0.75 1.025,0 1.592,1.28 1.592,1.53 0,0.1 -0.09,0.1 -0.12,0.1 -0.09,0 -0.11,-0.04 -0.13,-0.11 -0.327,-1.07 -1.004,-1.3 -1.322,-1.3 -0.388,0 -0.547,0.31 -0.547,0.65 0,0.22 0.059,0.44 0.169,0.88 z"
   inkscape:connector-curvature="0"
   style="fill:#000000;stroke-width:0" />
</g>    <g
       id="g6615"
       transform="matrix(1.25,0,0,-1.25,-34.743495,1646.1794)"
       xml:space="preserve"
       stroke-miterlimit="10.433"
       font-style="normal"
       font-variant="normal"
       font-weight="normal"
       font-stretch="normal"
       font-size-adjust="none"
       letter-spacing="normal"
       word-spacing="normal"
       ns0:text="$\\diff y$"
       ns0:preamble="D:\\Documenten\\Worksheets\\Inkscape\\incscape_preamble.tex"
       style="font-style:normal;font-variant:normal;font-weight:normal;font-stretch:normal;letter-spacing:normal;word-spacing:normal;text-anchor:start;fill:none;stroke:#000000;stroke-linecap:butt;stroke-linejoin:miter;stroke-miterlimit:10.43299961;stroke-opacity:1;stroke-dasharray:none;stroke-dashoffset:0;display:inline">
<path
   style="fill:#000000;stroke-width:0"
   inkscape:connector-curvature="0"
   d="m 93.781,493.72 v -0.65 l 1.462,0.11 v 0.3 c -0.696,0 -0.776,0.07 -0.776,0.56 v 6.03 l -1.432,-0.11 v -0.31 c 0.696,0 0.776,-0.07 0.776,-0.55 v -2.15 c -0.289,0.36 -0.717,0.62 -1.254,0.62 l 0.04,-0.22 c 0.348,0 0.766,-0.15 1.074,-0.6 0.11,-0.17 0.11,-0.19 0.11,-0.36 h 0 v -2.04 c 0,-0.18 0,-0.2 -0.11,-0.37 -0.298,-0.48 -0.746,-0.69 -1.174,-0.69 -0.448,0 -0.806,0.25 -1.045,0.63 -0.258,0.41 -0.288,0.97 -0.288,1.38 0,0.37 0.02,0.97 0.309,1.41 0.208,0.31 0.587,0.64 1.124,0.64 l -0.04,0.22 c -1.174,0 -2.219,-0.98 -2.219,-2.26 0,-1.26 0.975,-2.24 2.11,-2.24 0.636,0 1.084,0.33 1.333,0.65 z"
   id="path6617" />
<path
   style="fill:#000000;stroke-width:0"
   inkscape:connector-curvature="0"
   d="m 100.37,496.96 0,0.01 0,0 0.01,0.01 0,0.01 0,0.01 0,0.01 0.01,0.01 0,0.01 0,0.01 0,0.01 0.01,0 0,0.01 0,0.01 0,0.01 0,0 0,0.01 0,0.01 0.01,0 0,0.01 0,0 0,0.01 0,0 0,0.01 0,0.01 0,0.01 0,0.02 0,0 0,0.01 0,0 0,0.01 c 0,0.18 -0.14,0.27 -0.29,0.27 -0.1,0 -0.257,-0.06 -0.347,-0.21 -0.019,-0.05 -0.099,-0.36 -0.139,-0.54 -0.07,-0.26 -0.139,-0.52 -0.199,-0.79 l -0.448,-1.79 c -0.039,-0.15 -0.467,-0.84 -1.124,-0.84 -0.507,0 -0.617,0.43 -0.617,0.8 0,0.46 0.169,1.07 0.508,1.95 0.159,0.4 0.199,0.51 0.199,0.71 0,0.45 -0.319,0.82 -0.816,0.82 -0.945,0 -1.313,-1.44 -1.313,-1.53 0,-0.1 0.099,-0.1 0.119,-0.1 0.099,0 0.109,0.02 0.159,0.18 0.269,0.93 0.667,1.23 1.005,1.23 0.08,0 0.249,0 0.249,-0.32 0,-0.25 -0.1,-0.51 -0.169,-0.7 -0.398,-1.05 -0.578,-1.61 -0.578,-2.08 0,-0.89 0.627,-1.18 1.214,-1.18 0.388,0 0.727,0.17 1.005,0.44 -0.129,-0.51 -0.249,-1 -0.647,-1.53 -0.258,-0.33 -0.636,-0.62 -1.094,-0.62 -0.139,0 -0.587,0.03 -0.756,0.41 0.159,0 0.288,0 0.428,0.12 0.099,0.09 0.199,0.22 0.199,0.41 0,0.31 -0.269,0.35 -0.368,0.35 -0.229,0 -0.557,-0.16 -0.557,-0.65 0,-0.49 0.437,-0.86 1.054,-0.86 1.025,0 2.05,0.9 2.328,2.03 z"
   id="path6619" />
</g>  </g>
</svg>
