<?xml version="1.0" encoding="UTF-8" standalone="no"?>
<!-- Created with Inkscape (http://www.inkscape.org/) -->

<svg
   xmlns:ns0="http://www.iki.fi/pav/software/textext/"
   xmlns:dc="http://purl.org/dc/elements/1.1/"
   xmlns:cc="http://creativecommons.org/ns#"
   xmlns:rdf="http://www.w3.org/1999/02/22-rdf-syntax-ns#"
   xmlns:svg="http://www.w3.org/2000/svg"
   xmlns="http://www.w3.org/2000/svg"
   xmlns:sodipodi="http://sodipodi.sourceforge.net/DTD/sodipodi-0.dtd"
   xmlns:inkscape="http://www.inkscape.org/namespaces/inkscape"
   width="159.44882"
   height="81.496063"
   id="svg5414"
   version="1.1"
   inkscape:version="0.48.2 r9819"
   sodipodi:docname="Stroomlijnen.svg">
  <sodipodi:namedview
     inkscape:document-units="mm"
     id="base"
     pagecolor="#ffffff"
     bordercolor="#666666"
     borderopacity="1.0"
     inkscape:pageopacity="0.0"
     inkscape:pageshadow="2"
     inkscape:zoom="2.8"
     inkscape:cx="164.48466"
     inkscape:cy="33.73907"
     inkscape:current-layer="layer3"
     showgrid="false"
     inkscape:window-width="1366"
     inkscape:window-height="706"
     inkscape:window-x="-8"
     inkscape:window-y="-8"
     inkscape:window-maximized="1"
     units="mm"
     objecttolerance="10"
     guidetolerance="10">
    <inkscape:grid
       type="xygrid"
       id="grid8852"
       empspacing="5"
       visible="true"
       enabled="true"
       snapvisiblegridlinesonly="false"
       units="mm"
       spacingx="1mm"
       spacingy="1mm" />
  </sodipodi:namedview>
  <defs
     id="defs3">
    <marker
       inkscape:stockid="Arrow1Lstart"
       orient="auto"
       refY="0"
       refX="0"
       id="Arrow1Lstart"
       style="overflow:visible">
      <path
         id="path5974"
         d="M 0,0 5,-5 -12.5,0 5,5 0,0 z"
         style="fill-rule:evenodd;stroke:#000000;stroke-width:1pt;marker-start:none"
         transform="matrix(0.8,0,0,0.8,10,0)"
         inkscape:connector-curvature="0" />
    </marker>
    <marker
       inkscape:stockid="Arrow1Lend"
       orient="auto"
       refY="0"
       refX="0"
       id="Arrow1Lend"
       style="overflow:visible">
      <path
         id="path5977"
         d="M 0,0 5,-5 -12.5,0 5,5 0,0 z"
         style="fill-rule:evenodd;stroke:#000000;stroke-width:1pt;marker-start:none"
         transform="matrix(-0.8,0,0,-0.8,-10,0)"
         inkscape:connector-curvature="0" />
    </marker>
    <marker
       inkscape:stockid="Arrow1Mend"
       orient="auto"
       refY="0"
       refX="0"
       id="Arrow1Mend"
       style="overflow:visible">
      <path
         id="path5983"
         d="M 0,0 5,-5 -12.5,0 5,5 0,0 z"
         style="fill-rule:evenodd;stroke:#000000;stroke-width:1pt;marker-start:none"
         transform="matrix(-0.4,0,0,-0.4,-4,0)"
         inkscape:connector-curvature="0" />
    </marker>
    <inkscape:path-effect
       effect="spiro"
       id="path-effect5941"
       is_visible="true" />
    <inkscape:path-effect
       effect="spiro"
       id="path-effect5937"
       is_visible="true" />
  </defs>
  <metadata
     id="metadata4">
    <rdf:RDF>
      <cc:Work
         rdf:about="">
        <dc:format>image/svg+xml</dc:format>
        <dc:type
           rdf:resource="http://purl.org/dc/dcmitype/StillImage" />
        <dc:title />
      </cc:Work>
    </rdf:RDF>
  </metadata>
  <g
     style="font-style:normal;font-variant:normal;font-weight:normal;font-stretch:normal;letter-spacing:normal;word-spacing:normal;text-anchor:start;fill:none;stroke:#000000;stroke-linecap:butt;stroke-linejoin:miter;stroke-miterlimit:10.43299961;stroke-opacity:1;stroke-dasharray:none;stroke-dashoffset:0"
     id="content"
     transform="matrix(4,0,0,-4,-591.42857,2031.9911)"
     xml:space="preserve"
     stroke-miterlimit="10.433"
     font-style="normal"
     font-variant="normal"
     font-weight="normal"
     font-stretch="normal"
     font-size-adjust="none"
     letter-spacing="normal"
     word-spacing="normal"
     ns0:text="$t$"
     ns0:preamble="">

</g>  <g
     inkscape:groupmode="layer"
     id="layer3"
     inkscape:label="Snelheid"
     transform="translate(0,-970.86612)"
     style="display:inline">
    <path
       inkscape:connector-curvature="0"
       id="path4494"
       d="M 37.501443,1037.2216 C 140.39886,988.37448 140.39886,988.37448 140.39886,988.37448"
       style="fill:none;stroke:#000000;stroke-width:1px;stroke-linecap:butt;stroke-linejoin:miter;stroke-opacity:1;marker-mid:none;marker-end:url(#Arrow1Mend)" />
    <path
       sodipodi:nodetypes="cc"
       style="fill:none;stroke:#000000;stroke-width:1px;stroke-linecap:butt;stroke-linejoin:miter;stroke-opacity:1;marker-mid:none;marker-end:url(#Arrow1Mend)"
       d="m 37.664473,1037.348 102.453817,0"
       id="path5240"
       inkscape:connector-curvature="0" />
    <path
       inkscape:connector-curvature="0"
       id="path5242"
       d="m 142.02487,1037.3426 0,-47.73637"
       style="fill:none;stroke:#000000;stroke-width:1px;stroke-linecap:butt;stroke-linejoin:miter;stroke-opacity:1;marker-mid:none;marker-end:url(#Arrow1Mend)"
       sodipodi:nodetypes="cc" />
    <path
       style="fill:none;stroke:#000000;stroke-width:0.99999994px;stroke-linecap:butt;stroke-linejoin:miter;stroke-opacity:1;marker-mid:none;marker-end:url(#Arrow1Mend)"
       d="M 56.50178,1028.1302 C 121.6383,997.39952 121.6383,997.39952 121.6383,997.39952"
       id="path7575"
       inkscape:connector-curvature="0" />
    <g
       style="font-style:normal;font-variant:normal;font-weight:normal;font-stretch:normal;letter-spacing:normal;word-spacing:normal;text-anchor:start;fill:none;stroke:#000000;stroke-linecap:butt;stroke-linejoin:miter;stroke-miterlimit:10.43299961;stroke-opacity:1;stroke-dasharray:none;stroke-dashoffset:0"
       ns0:preamble="D:\\Onderwijs\\FLUI\\Cursus\\FLUI_theorie\\tex\\commands.tex"
       ns0:text="$\\vt{v}_x$"
       word-spacing="normal"
       letter-spacing="normal"
       font-size-adjust="none"
       font-stretch="normal"
       font-weight="normal"
       font-variant="normal"
       font-style="normal"
       stroke-miterlimit="10.433"
       xml:space="preserve"
       transform="matrix(1.25,0,0,-1.25,-161.07144,1929.9998)"
       id="g3639">
<path
   style="fill:#000000;stroke-width:0"
   inkscape:connector-curvature="0"
   id="path3641"
   d="m 228.82,710.72 -0.01,0.04 0,0.04 0,0.04 0,0.04 -0.01,0.04 0,0.03 -0.01,0.04 0,0.03 -0.01,0.03 -0.01,0.03 -0.01,0.03 -0.01,0.03 -0.01,0.03 -0.01,0.02 -0.01,0.03 -0.01,0.02 -0.01,0.03 -0.01,0.02 -0.02,0.02 -0.01,0.02 -0.01,0.02 -0.02,0.02 -0.01,0.02 -0.02,0.01 -0.01,0.02 -0.02,0.02 -0.03,0.02 -0.03,0.03 -0.03,0.02 -0.03,0.02 -0.03,0.02 -0.03,0.01 -0.03,0.02 -0.03,0.01 -0.03,0.01 -0.03,0 -0.02,0.01 -0.02,0.01 -0.03,0 -0.01,0 -0.02,0 -0.01,0 -0.01,0 -0.01,0 0,0 0,0 0,0.01 c -0.4,0 -0.76,-0.42 -0.76,-0.76 0,-0.28 0.21,-0.4 0.3,-0.45 0.42,-0.25 0.5,-0.42 0.5,-0.62 0,-0.22 -0.58,-2.4 -1.74,-2.4 -0.72,0 -0.72,0.6 -0.72,0.78 0,0.57 0.28,1.3 0.6,2.09 0.08,0.2 0.11,0.29 0.11,0.45 0,0.58 -0.58,0.89 -1.13,0.89 -1.05,0 -1.55,-1.35 -1.55,-1.54 0,-0.14 0.15,-0.14 0.24,-0.14 0.12,0 0.19,0 0.23,0.12 0.32,1.08 0.84,1.21 1.02,1.21 0.07,0 0.17,0 0.17,-0.21 0,-0.23 -0.12,-0.52 -0.15,-0.6 -0.46,-1.15 -0.6,-1.6 -0.6,-2.07 0,-1.06 0.85,-1.33 1.72,-1.33 1.71,0 2.44,2.82 2.44,3.67 z" />
<path
   style="fill:#000000;stroke-width:0"
   inkscape:connector-curvature="0"
   id="path3643"
   d="m 231.18,706.37 -0.01,-0.02 0,-0.03 -0.01,-0.02 -0.01,-0.03 -0.01,-0.02 -0.01,-0.03 -0.02,-0.02 -0.01,-0.03 -0.01,-0.02 -0.02,-0.03 -0.02,-0.02 -0.01,-0.03 -0.02,-0.02 -0.02,-0.03 -0.02,-0.02 -0.02,-0.03 -0.02,-0.02 -0.02,-0.02 -0.02,-0.02 -0.03,-0.02 -0.02,-0.02 -0.03,-0.02 -0.02,-0.02 -0.03,-0.01 -0.03,-0.02 -0.03,-0.01 -0.03,-0.01 -0.03,-0.01 -0.03,0 -0.03,-0.01 -0.03,0 -0.03,0 c -0.02,0 -0.23,0 -0.38,0.09 0.29,0.09 0.31,0.34 0.31,0.39 0,0.15 -0.12,0.25 -0.28,0.25 -0.2,0 -0.4,-0.16 -0.4,-0.42 0,-0.35 0.39,-0.51 0.73,-0.51 0.32,0 0.61,0.2 0.78,0.49 0.17,-0.36 0.55,-0.49 0.83,-0.49 0.8,0 1.23,0.87 1.23,1.07 0,0.09 -0.09,0.09 -0.11,0.09 -0.1,0 -0.11,-0.04 -0.14,-0.12 -0.14,-0.48 -0.56,-0.84 -0.95,-0.84 -0.28,0 -0.43,0.18 -0.43,0.45 0,0.18 0.17,0.81 0.37,1.58 0.14,0.54 0.45,0.71 0.68,0.71 0.01,0 0.23,0 0.38,-0.09 -0.23,-0.07 -0.31,-0.26 -0.31,-0.39 0,-0.15 0.12,-0.25 0.28,-0.25 0.16,0 0.39,0.13 0.39,0.42 0,0.39 -0.45,0.51 -0.73,0.51 -0.35,0 -0.62,-0.23 -0.78,-0.5 -0.12,0.29 -0.44,0.5 -0.83,0.5 -0.78,0 -1.23,-0.86 -1.23,-1.07 0,-0.09 0.1,-0.09 0.12,-0.09 0.09,0 0.1,0.03 0.13,0.12 0.18,0.54 0.61,0.84 0.96,0.84 0.23,0 0.41,-0.12 0.41,-0.46 0,-0.13 -0.08,-0.48 -0.14,-0.72 z" />
</g>    <g
       id="g3761"
       transform="matrix(1.25,0,0,-1.25,-255.7143,1933.5713)"
       xml:space="preserve"
       stroke-miterlimit="10.433"
       font-style="normal"
       font-variant="normal"
       font-weight="normal"
       font-stretch="normal"
       font-size-adjust="none"
       letter-spacing="normal"
       word-spacing="normal"
       ns0:text="$\\diff x$"
       ns0:preamble="D:\\Onderwijs\\FLUI\\Cursus\\FLUI_theorie\\tex\\commands.tex"
       style="font-style:normal;font-variant:normal;font-weight:normal;font-stretch:normal;letter-spacing:normal;word-spacing:normal;text-anchor:start;fill:none;stroke:#000000;stroke-linecap:butt;stroke-linejoin:miter;stroke-miterlimit:10.43299961;stroke-opacity:1;stroke-dasharray:none;stroke-dashoffset:0">
<path
   style="fill:#000000;stroke-width:0"
   inkscape:connector-curvature="0"
   d="m 227.21,707.67 v -0.65 l 1.47,0.11 v 0.3 c -0.7,0 -0.78,0.07 -0.78,0.56 v 6.03 l -1.43,-0.11 v -0.31 c 0.69,0 0.77,-0.07 0.77,-0.55 v -2.15 c -0.29,0.36 -0.71,0.62 -1.25,0.62 l 0.04,-0.22 c 0.35,0 0.76,-0.15 1.07,-0.6 0.11,-0.17 0.11,-0.19 0.11,-0.37 h 0 v -2.03 c 0,-0.18 0,-0.2 -0.11,-0.37 -0.3,-0.48 -0.74,-0.7 -1.17,-0.7 -0.45,0 -0.81,0.26 -1.05,0.64 -0.25,0.41 -0.28,0.97 -0.28,1.38 0,0.37 0.02,0.96 0.3,1.41 0.21,0.31 0.59,0.64 1.13,0.64 l -0.04,0.22 c -1.17,0 -2.22,-0.98 -2.22,-2.26 0,-1.26 0.97,-2.24 2.11,-2.24 0.64,0 1.08,0.33 1.33,0.65 z"
   id="path3763" />
<path
   style="fill:#000000;stroke-width:0"
   inkscape:connector-curvature="0"
   d="m 232.29,710.13 0.01,0.02 0,0.03 0.01,0.03 0.01,0.04 0.01,0.04 0.01,0.04 0.02,0.04 0.01,0.05 0.02,0.04 0.01,0.05 0.02,0.05 0.02,0.05 0.03,0.05 0.02,0.05 0.03,0.05 0.02,0.05 0.03,0.05 0.03,0.04 0.04,0.05 0.03,0.04 0.04,0.05 0.04,0.04 0.04,0.04 0.05,0.03 0.04,0.03 0.05,0.03 0.03,0.01 0.02,0.02 0.03,0.01 0.03,0.01 0.02,0.01 0.03,0 0.03,0.01 0.03,0.01 0.03,0 0.03,0 0.03,0.01 0.03,0 c 0.05,0 0.29,0 0.5,-0.13 -0.28,-0.05 -0.48,-0.3 -0.48,-0.54 0,-0.16 0.11,-0.35 0.38,-0.35 0.22,0 0.54,0.18 0.54,0.58 0,0.52 -0.59,0.66 -0.92,0.66 -0.58,0 -0.93,-0.53 -1.05,-0.76 -0.25,0.66 -0.79,0.76 -1.07,0.76 -1.04,0 -1.61,-1.29 -1.61,-1.53 0,-0.1 0.1,-0.1 0.12,-0.1 0.08,0 0.11,0.02 0.13,0.11 0.34,1.05 1,1.3 1.34,1.3 0.19,0 0.53,-0.09 0.53,-0.67 0,-0.31 -0.17,-0.97 -0.53,-2.36 -0.16,-0.62 -0.51,-1.04 -0.95,-1.04 -0.06,0 -0.29,0 -0.5,0.13 0.25,0.05 0.47,0.26 0.47,0.54 0,0.27 -0.22,0.35 -0.37,0.35 -0.3,0 -0.54,-0.26 -0.54,-0.58 0,-0.46 0.49,-0.65 0.93,-0.65 0.66,0 1.02,0.69 1.05,0.75 0.11,-0.37 0.47,-0.75 1.07,-0.75 1.03,0 1.59,1.28 1.59,1.53 0,0.1 -0.09,0.1 -0.12,0.1 -0.09,0 -0.11,-0.05 -0.13,-0.11 -0.33,-1.07 -1,-1.31 -1.32,-1.31 -0.39,0 -0.55,0.32 -0.55,0.66 0,0.22 0.06,0.44 0.17,0.87 z"
   id="path3765" />
</g>    <g
       style="font-style:normal;font-variant:normal;font-weight:normal;font-stretch:normal;letter-spacing:normal;word-spacing:normal;text-anchor:start;fill:none;stroke:#000000;stroke-linecap:butt;stroke-linejoin:miter;stroke-miterlimit:10.43299961;stroke-opacity:1;stroke-dasharray:none;stroke-dashoffset:0"
       ns0:preamble="D:\\Onderwijs\\FLUI\\Cursus\\FLUI_theorie\\tex\\commands.tex"
       ns0:text="$\\vt{v}_{x,\\perp}$"
       word-spacing="normal"
       letter-spacing="normal"
       font-size-adjust="none"
       font-stretch="normal"
       font-weight="normal"
       font-variant="normal"
       font-style="normal"
       stroke-miterlimit="10.433"
       xml:space="preserve"
       transform="matrix(1.25,0,0,-1.25,-193.2143,1882.857)"
       id="g3884">
<path
   id="path3886"
   d="m 228.82,710.72 -0.01,0.04 0,0.04 0,0.04 0,0.04 -0.01,0.04 0,0.03 -0.01,0.04 0,0.03 -0.01,0.03 -0.01,0.03 -0.01,0.03 -0.01,0.03 -0.01,0.03 -0.01,0.02 -0.01,0.03 -0.01,0.02 -0.01,0.03 -0.01,0.02 -0.02,0.02 -0.01,0.02 -0.01,0.02 -0.02,0.02 -0.01,0.02 -0.02,0.01 -0.01,0.02 -0.02,0.02 -0.03,0.02 -0.03,0.03 -0.03,0.02 -0.03,0.02 -0.03,0.02 -0.03,0.01 -0.03,0.02 -0.03,0.01 -0.03,0.01 -0.03,0 -0.02,0.01 -0.02,0.01 -0.03,0 -0.01,0 -0.02,0 -0.01,0 -0.01,0 -0.01,0 0,0 0,0 0,0.01 c -0.4,0 -0.76,-0.42 -0.76,-0.76 0,-0.28 0.21,-0.4 0.3,-0.45 0.42,-0.25 0.5,-0.42 0.5,-0.62 0,-0.22 -0.58,-2.4 -1.74,-2.4 -0.72,0 -0.72,0.6 -0.72,0.78 0,0.57 0.28,1.3 0.6,2.09 0.08,0.2 0.11,0.29 0.11,0.45 0,0.58 -0.58,0.89 -1.13,0.89 -1.05,0 -1.55,-1.35 -1.55,-1.54 0,-0.14 0.15,-0.14 0.24,-0.14 0.12,0 0.19,0 0.23,0.12 0.32,1.08 0.84,1.21 1.02,1.21 0.07,0 0.17,0 0.17,-0.21 0,-0.23 -0.12,-0.52 -0.15,-0.6 -0.46,-1.15 -0.6,-1.6 -0.6,-2.07 0,-1.06 0.85,-1.33 1.72,-1.33 1.71,0 2.44,2.82 2.44,3.67 z"
   inkscape:connector-curvature="0"
   style="fill:#000000;stroke-width:0" />
<path
   id="path3888"
   d="m 231.18,706.37 -0.01,-0.02 0,-0.03 -0.01,-0.02 -0.01,-0.03 -0.01,-0.02 -0.01,-0.03 -0.02,-0.02 -0.01,-0.03 -0.01,-0.02 -0.02,-0.03 -0.02,-0.02 -0.01,-0.03 -0.02,-0.02 -0.02,-0.03 -0.02,-0.02 -0.02,-0.03 -0.02,-0.02 -0.02,-0.02 -0.02,-0.02 -0.03,-0.02 -0.02,-0.02 -0.03,-0.02 -0.02,-0.02 -0.03,-0.01 -0.03,-0.02 -0.03,-0.01 -0.03,-0.01 -0.03,-0.01 -0.03,0 -0.03,-0.01 -0.03,0 -0.03,0 c -0.02,0 -0.23,0 -0.38,0.09 0.29,0.09 0.31,0.34 0.31,0.39 0,0.15 -0.12,0.25 -0.28,0.25 -0.2,0 -0.4,-0.16 -0.4,-0.42 0,-0.35 0.39,-0.51 0.73,-0.51 0.32,0 0.61,0.2 0.78,0.49 0.17,-0.36 0.55,-0.49 0.83,-0.49 0.8,0 1.23,0.87 1.23,1.07 0,0.09 -0.09,0.09 -0.11,0.09 -0.1,0 -0.11,-0.04 -0.14,-0.12 -0.14,-0.48 -0.56,-0.84 -0.95,-0.84 -0.28,0 -0.43,0.18 -0.43,0.45 0,0.18 0.17,0.81 0.37,1.58 0.14,0.54 0.45,0.71 0.68,0.71 0.01,0 0.23,0 0.38,-0.09 -0.23,-0.07 -0.31,-0.26 -0.31,-0.39 0,-0.15 0.12,-0.25 0.28,-0.25 0.16,0 0.39,0.13 0.39,0.42 0,0.39 -0.45,0.51 -0.73,0.51 -0.35,0 -0.62,-0.23 -0.78,-0.5 -0.12,0.29 -0.44,0.5 -0.83,0.5 -0.78,0 -1.23,-0.86 -1.23,-1.07 0,-0.09 0.1,-0.09 0.12,-0.09 0.09,0 0.1,0.03 0.13,0.12 0.18,0.54 0.61,0.84 0.96,0.84 0.23,0 0.41,-0.12 0.41,-0.46 0,-0.13 -0.08,-0.48 -0.14,-0.72 z"
   inkscape:connector-curvature="0"
   style="fill:#000000;stroke-width:0" />
<path
   id="path3890"
   d="m 235.43,705.74 0,-0.07 0,-0.07 -0.01,-0.08 0,-0.08 -0.01,-0.03 -0.01,-0.04 0,-0.04 -0.01,-0.04 -0.01,-0.04 -0.01,-0.04 -0.02,-0.04 -0.01,-0.04 -0.02,-0.04 -0.01,-0.04 -0.02,-0.04 -0.02,-0.04 -0.02,-0.04 -0.02,-0.04 -0.03,-0.05 -0.02,-0.04 -0.03,-0.04 -0.03,-0.04 -0.04,-0.04 -0.03,-0.04 -0.04,-0.04 -0.03,-0.05 -0.05,-0.04 -0.04,-0.04 c -0.03,-0.03 -0.05,-0.05 -0.05,-0.08 0,-0.05 0.06,-0.1 0.1,-0.1 0.1,0 0.69,0.55 0.69,1.38 0,0.43 -0.17,0.76 -0.49,0.76 -0.23,0 -0.4,-0.18 -0.4,-0.4 0,-0.22 0.16,-0.4 0.41,-0.4 0.17,0 0.28,0.11 0.28,0.11 z"
   inkscape:connector-curvature="0"
   style="fill:#000000;stroke-width:0" />
<path
   id="path3892"
   d="m 239.61,710.19 0,0.01 0,0.01 0,0.01 0,0.01 0,0.02 0,0.01 0,0.01 0,0.01 -0.01,0.01 0,0.02 0,0.01 0,0.01 0,0.01 -0.01,0.01 0,0.01 -0.01,0.01 0,0.01 0,0.01 -0.01,0.01 -0.01,0.01 0,0.01 -0.01,0 -0.01,0.01 0,0 0,0 -0.01,0.01 0,0 -0.01,0 0,0 -0.01,0.01 -0.01,0 0,0 -0.01,0 0,0 -0.01,0 -0.01,0.01 0,0 -0.01,0 -0.01,0 -0.01,0 c -0.17,0 -0.17,-0.16 -0.17,-0.27 v -4.22 h -2.12 c -0.11,0 -0.28,0 -0.28,-0.17 0,-0.17 0.16,-0.17 0.28,-0.17 h 4.58 c 0.12,0 0.28,0 0.28,0.17 0,0.17 -0.16,0.17 -0.28,0.17 h -2.12 z"
   inkscape:connector-curvature="0"
   style="fill:#000000;stroke-width:0" />
</g>    <g
       id="g4020"
       transform="matrix(1.25,0,0,-1.25,-160.71429,1867.4999)"
       xml:space="preserve"
       stroke-miterlimit="10.433"
       font-style="normal"
       font-variant="normal"
       font-weight="normal"
       font-stretch="normal"
       font-size-adjust="none"
       letter-spacing="normal"
       word-spacing="normal"
       ns0:text="$\\vt{v}_{y,\\perp}$"
       ns0:preamble="D:\\Onderwijs\\FLUI\\Cursus\\FLUI_theorie\\tex\\commands.tex"
       style="font-style:normal;font-variant:normal;font-weight:normal;font-stretch:normal;letter-spacing:normal;word-spacing:normal;text-anchor:start;fill:none;stroke:#000000;stroke-linecap:butt;stroke-linejoin:miter;stroke-miterlimit:10.43299961;stroke-opacity:1;stroke-dasharray:none;stroke-dashoffset:0">
<path
   style="fill:#000000;stroke-width:0"
   inkscape:connector-curvature="0"
   d="m 228.82,710.72 -0.01,0.04 0,0.04 0,0.04 0,0.04 -0.01,0.04 0,0.03 -0.01,0.04 0,0.03 -0.01,0.03 -0.01,0.03 -0.01,0.03 -0.01,0.03 -0.01,0.03 -0.01,0.02 -0.01,0.03 -0.01,0.02 -0.01,0.03 -0.01,0.02 -0.02,0.02 -0.01,0.02 -0.01,0.02 -0.02,0.02 -0.01,0.02 -0.02,0.01 -0.01,0.02 -0.02,0.02 -0.03,0.02 -0.03,0.03 -0.03,0.02 -0.03,0.02 -0.03,0.02 -0.03,0.01 -0.03,0.02 -0.03,0.01 -0.03,0.01 -0.03,0 -0.02,0.01 -0.02,0.01 -0.03,0 -0.01,0 -0.02,0 -0.01,0 -0.01,0 -0.01,0 0,0 0,0 0,0.01 c -0.4,0 -0.76,-0.42 -0.76,-0.76 0,-0.28 0.21,-0.4 0.3,-0.45 0.42,-0.25 0.5,-0.42 0.5,-0.62 0,-0.22 -0.58,-2.4 -1.74,-2.4 -0.72,0 -0.72,0.6 -0.72,0.78 0,0.57 0.28,1.3 0.6,2.09 0.08,0.2 0.11,0.29 0.11,0.45 0,0.58 -0.58,0.89 -1.13,0.89 -1.05,0 -1.55,-1.35 -1.55,-1.54 0,-0.14 0.15,-0.14 0.24,-0.14 0.12,0 0.19,0 0.23,0.12 0.32,1.08 0.84,1.21 1.02,1.21 0.07,0 0.17,0 0.17,-0.21 0,-0.23 -0.12,-0.52 -0.15,-0.6 -0.46,-1.15 -0.6,-1.6 -0.6,-2.07 0,-1.06 0.85,-1.33 1.72,-1.33 1.71,0 2.44,2.82 2.44,3.67 z"
   id="path4022" />
<path
   style="fill:#000000;stroke-width:0"
   inkscape:connector-curvature="0"
   d="m 233.32,708.25 0,0.01 0,0 0,0.01 0,0 0.01,0 0,0.01 0,0.01 0,0 0,0.01 0,0.01 0.01,0 0,0.01 0,0 0,0.01 0,0 0,0.01 0,0 0,0.01 0,0 0,0 0,0.01 0.01,0 0,0 0,0.01 0,0.01 0,0 0,0.01 0,0 0,0.01 0,0 0,0.01 c 0,0.13 -0.11,0.22 -0.23,0.22 -0.08,0 -0.21,-0.04 -0.29,-0.17 -0.02,-0.04 -0.07,-0.26 -0.11,-0.4 l -0.15,-0.58 c -0.04,-0.17 -0.25,-1.04 -0.28,-1.12 0,0 -0.31,-0.6 -0.85,-0.6 -0.48,0 -0.48,0.45 -0.48,0.57 0,0.38 0.17,0.82 0.37,1.35 0.09,0.23 0.12,0.31 0.12,0.43 0,0.33 -0.28,0.59 -0.66,0.59 -0.7,0 -1.02,-0.95 -1.02,-1.07 0,-0.09 0.1,-0.09 0.12,-0.09 0.1,0 0.11,0.04 0.13,0.11 0.17,0.58 0.47,0.85 0.75,0.85 0.12,0 0.17,-0.07 0.17,-0.24 0,-0.16 -0.06,-0.31 -0.09,-0.4 -0.34,-0.85 -0.41,-1.11 -0.41,-1.41 0,-0.12 0,-0.45 0.27,-0.67 0.22,-0.18 0.51,-0.22 0.7,-0.22 0.28,0 0.53,0.11 0.76,0.31 -0.09,-0.38 -0.17,-0.67 -0.46,-1.02 -0.19,-0.21 -0.47,-0.44 -0.83,-0.44 -0.05,0 -0.38,0 -0.53,0.23 0.38,0.04 0.38,0.37 0.38,0.38 0,0.22 -0.2,0.26 -0.27,0.26 -0.18,0 -0.41,-0.14 -0.41,-0.46 0,-0.35 0.34,-0.61 0.83,-0.61 0.71,0 1.56,0.55 1.78,1.41 z"
   id="path4024" />
<path
   style="fill:#000000;stroke-width:0"
   inkscape:connector-curvature="0"
   d="m 235.21,705.74 0,-0.07 -0.01,-0.07 0,-0.08 -0.01,-0.08 -0.01,-0.03 0,-0.04 -0.01,-0.04 -0.01,-0.04 -0.01,-0.04 -0.01,-0.04 -0.01,-0.04 -0.02,-0.04 -0.01,-0.04 -0.02,-0.04 -0.02,-0.04 -0.02,-0.04 -0.02,-0.04 -0.02,-0.04 -0.02,-0.05 -0.03,-0.04 -0.03,-0.04 -0.03,-0.04 -0.03,-0.04 -0.04,-0.04 -0.03,-0.04 -0.04,-0.05 -0.04,-0.04 -0.05,-0.04 c -0.02,-0.03 -0.04,-0.05 -0.04,-0.08 0,-0.05 0.05,-0.1 0.09,-0.1 0.1,0 0.69,0.55 0.69,1.38 0,0.43 -0.16,0.76 -0.48,0.76 -0.23,0 -0.4,-0.18 -0.4,-0.4 0,-0.22 0.16,-0.4 0.4,-0.4 0.17,0 0.28,0.11 0.29,0.11 z"
   id="path4026" />
<path
   style="fill:#000000;stroke-width:0"
   inkscape:connector-curvature="0"
   d="m 239.38,710.19 0,0.01 0,0.01 0,0.01 0,0.01 0,0.02 0,0.01 0,0.01 0,0.01 0,0.01 0,0.02 -0.01,0.01 0,0.01 0,0.01 0,0.01 -0.01,0.01 0,0.01 -0.01,0.01 0,0.01 -0.01,0.01 0,0.01 -0.01,0.01 -0.01,0 0,0.01 -0.01,0 0,0 -0.01,0.01 0,0 -0.01,0 0,0 -0.01,0.01 0,0 -0.01,0 0,0 -0.01,0 -0.01,0 0,0.01 -0.01,0 -0.01,0 -0.01,0 0,0 c -0.18,0 -0.18,-0.16 -0.18,-0.27 v -4.22 h -2.12 c -0.11,0 -0.28,0 -0.28,-0.17 0,-0.17 0.16,-0.17 0.28,-0.17 h 4.59 c 0.11,0 0.28,0 0.28,0.17 0,0.17 -0.16,0.17 -0.28,0.17 h -2.13 z"
   id="path4028" />
</g>    <g
       style="font-style:normal;font-variant:normal;font-weight:normal;font-stretch:normal;letter-spacing:normal;word-spacing:normal;text-anchor:start;fill:none;stroke:#000000;stroke-linecap:butt;stroke-linejoin:miter;stroke-miterlimit:10.43299961;stroke-opacity:1;stroke-dasharray:none;stroke-dashoffset:0"
       ns0:preamble="D:\\Onderwijs\\FLUI\\Cursus\\FLUI_theorie\\tex\\commands.tex"
       ns0:text="$\\vt{v}_y$"
       word-spacing="normal"
       letter-spacing="normal"
       font-size-adjust="none"
       font-stretch="normal"
       font-weight="normal"
       font-variant="normal"
       font-style="normal"
       stroke-miterlimit="10.433"
       xml:space="preserve"
       transform="matrix(1.25,0,0,-1.25,-135.35715,1896.7855)"
       id="g4158">
<path
   id="path4160"
   d="m 228.82,710.72 -0.01,0.04 0,0.04 0,0.04 0,0.04 -0.01,0.04 0,0.03 -0.01,0.04 0,0.03 -0.01,0.03 -0.01,0.03 -0.01,0.03 -0.01,0.03 -0.01,0.03 -0.01,0.02 -0.01,0.03 -0.01,0.02 -0.01,0.03 -0.01,0.02 -0.02,0.02 -0.01,0.02 -0.01,0.02 -0.02,0.02 -0.01,0.02 -0.02,0.01 -0.01,0.02 -0.02,0.02 -0.03,0.02 -0.03,0.03 -0.03,0.02 -0.03,0.02 -0.03,0.02 -0.03,0.01 -0.03,0.02 -0.03,0.01 -0.03,0.01 -0.03,0 -0.02,0.01 -0.02,0.01 -0.03,0 -0.01,0 -0.02,0 -0.01,0 -0.01,0 -0.01,0 0,0 0,0 0,0.01 c -0.4,0 -0.76,-0.42 -0.76,-0.76 0,-0.28 0.21,-0.4 0.3,-0.45 0.42,-0.25 0.5,-0.42 0.5,-0.62 0,-0.22 -0.58,-2.4 -1.74,-2.4 -0.72,0 -0.72,0.6 -0.72,0.78 0,0.57 0.28,1.3 0.6,2.09 0.08,0.2 0.11,0.29 0.11,0.45 0,0.58 -0.58,0.89 -1.13,0.89 -1.05,0 -1.55,-1.35 -1.55,-1.54 0,-0.14 0.15,-0.14 0.24,-0.14 0.12,0 0.19,0 0.23,0.12 0.32,1.08 0.84,1.21 1.02,1.21 0.07,0 0.17,0 0.17,-0.21 0,-0.23 -0.12,-0.52 -0.15,-0.6 -0.46,-1.15 -0.6,-1.6 -0.6,-2.07 0,-1.06 0.85,-1.33 1.72,-1.33 1.71,0 2.44,2.82 2.44,3.67 z"
   inkscape:connector-curvature="0"
   style="fill:#000000;stroke-width:0" />
<path
   id="path4162"
   d="m 233.32,708.25 0,0.01 0,0 0,0.01 0,0 0.01,0 0,0.01 0,0.01 0,0 0,0.01 0,0.01 0.01,0 0,0.01 0,0 0,0.01 0,0 0,0.01 0,0 0,0.01 0,0 0,0 0,0.01 0.01,0 0,0 0,0.01 0,0.01 0,0 0,0.01 0,0 0,0.01 0,0 0,0.01 c 0,0.13 -0.11,0.22 -0.23,0.22 -0.08,0 -0.21,-0.04 -0.29,-0.17 -0.02,-0.04 -0.07,-0.26 -0.11,-0.4 l -0.15,-0.58 c -0.04,-0.17 -0.25,-1.04 -0.28,-1.12 0,0 -0.31,-0.6 -0.85,-0.6 -0.48,0 -0.48,0.45 -0.48,0.57 0,0.38 0.17,0.82 0.37,1.35 0.09,0.23 0.12,0.31 0.12,0.43 0,0.33 -0.28,0.59 -0.66,0.59 -0.7,0 -1.02,-0.95 -1.02,-1.07 0,-0.09 0.1,-0.09 0.12,-0.09 0.1,0 0.11,0.04 0.13,0.11 0.17,0.58 0.47,0.85 0.75,0.85 0.12,0 0.17,-0.07 0.17,-0.24 0,-0.16 -0.06,-0.31 -0.09,-0.4 -0.34,-0.85 -0.41,-1.11 -0.41,-1.41 0,-0.12 0,-0.45 0.27,-0.67 0.22,-0.18 0.51,-0.22 0.7,-0.22 0.28,0 0.53,0.11 0.76,0.31 -0.09,-0.38 -0.17,-0.67 -0.46,-1.02 -0.19,-0.21 -0.47,-0.44 -0.83,-0.44 -0.05,0 -0.38,0 -0.53,0.23 0.38,0.04 0.38,0.37 0.38,0.38 0,0.22 -0.2,0.26 -0.27,0.26 -0.18,0 -0.41,-0.14 -0.41,-0.46 0,-0.35 0.34,-0.61 0.83,-0.61 0.71,0 1.56,0.55 1.78,1.41 z"
   inkscape:connector-curvature="0"
   style="fill:#000000;stroke-width:0" />
</g>    <g
       id="g4297"
       transform="matrix(1.25,0,0,-1.25,-251.42859,1899.6427)"
       xml:space="preserve"
       stroke="black"
       stroke-linecap="butt"
       stroke-linejoin="miter"
       stroke-miterlimit="10.433"
       stroke-dasharray="none"
       stroke-dashoffset="0"
       stroke-opacity="1"
       fill="none"
       fill-rule="evenodd"
       fill-opacity="1"
       font-style="normal"
       font-variant="normal"
       font-weight="normal"
       font-stretch="normal"
       font-size-adjust="none"
       letter-spacing="normal"
       word-spacing="normal"
       text-anchor="start"
       ns0:text="$\\diff n$"
       ns0:preamble="D:\\Onderwijs\\FLUI\\Cursus\\FLUI_theorie\\tex\\commands.tex"
       style="font-style:normal;font-variant:normal;font-weight:normal;font-stretch:normal;letter-spacing:normal;word-spacing:normal;text-anchor:start;fill:none;stroke:#000000;stroke-linecap:butt;stroke-linejoin:miter;stroke-miterlimit:10.43299961;stroke-opacity:1;stroke-dasharray:none;stroke-dashoffset:0">
<path
   d="M227.21,707.67 V707.02 L228.68,707.13 V707.43 C227.98,707.43,227.9,707.5,227.9,707.99 V714.02 L226.47,713.91 V713.6 C227.16,713.6,227.24,713.53,227.24,713.05 V710.9 C226.95,711.26,226.53,711.52,225.99,711.52 L226.03,711.3 C226.38,711.3,226.79,711.15,227.1,710.7 C227.21,710.53,227.21,710.51,227.21,710.33 H227.21 V708.3 C227.21,708.12,227.21,708.1,227.1,707.93 C226.8,707.45,226.36,707.23,225.93,707.23 C225.48,707.23,225.12,707.49,224.88,707.87 C224.63,708.28,224.6,708.84,224.6,709.25 C224.6,709.62,224.62,710.21,224.9,710.66 C225.11,710.97,225.49,711.3,226.03,711.3 L225.99,711.52 C224.82,711.52,223.77,710.54,223.77,709.26 C223.77,708,224.74,707.02,225.88,707.02 C226.52,707.02,226.96,707.35,227.21,707.67 Z "
   stroke-width="0"
   fill="black"
   id="path4299" />
<path
   d="M229.84,707.71 L229.84,707.7 L229.84,707.68 L229.83,707.67 L229.83,707.65 L229.82,707.62 L229.82,707.59 L229.81,707.56 L229.8,707.52 L229.79,707.49 L229.79,707.46 L229.78,707.45 L229.78,707.43 L229.78,707.42 L229.77,707.4 L229.77,707.39 L229.77,707.38 L229.77,707.36 L229.76,707.35 L229.76,707.34 L229.76,707.33 L229.76,707.32 L229.76,707.31 L229.75,707.3 L229.75,707.3 L229.75,707.29 L229.75,707.28 C229.75,707.1,229.89,707.02,230.04,707.02 C230.16,707.02,230.34,707.09,230.41,707.29 C230.42,707.31,230.54,707.78,230.6,708.03 L230.82,708.92 C230.88,709.14,230.94,709.36,230.99,709.59 C231.03,709.76,231.11,710.05,231.12,710.09 C231.26,710.39,231.79,711.3,232.74,711.3 C233.19,711.3,233.27,710.93,233.27,710.6 C233.27,709.99,232.79,708.71,232.63,708.29 C232.54,708.06,232.53,707.94,232.53,707.83 C232.53,707.36,232.88,707.02,233.35,707.02 C234.28,707.02,234.65,708.47,234.65,708.55 C234.65,708.65,234.56,708.65,234.53,708.65 C234.43,708.65,234.43,708.61,234.38,708.47 C234.18,707.79,233.85,707.23,233.37,707.23 C233.2,707.23,233.13,707.33,233.13,707.56 C233.13,707.81,233.21,708.05,233.3,708.27 C233.49,708.79,233.91,709.89,233.91,710.45 C233.91,711.12,233.48,711.52,232.77,711.52 C231.87,711.52,231.38,710.88,231.21,710.65 C231.17,711.21,230.76,711.52,230.3,711.52 C229.84,711.52,229.65,711.13,229.55,710.95 C229.4,710.61,229.26,710.03,229.26,709.99 C229.26,709.89,229.35,709.89,229.38,709.89 C229.47,709.89,229.48,709.9,229.54,710.11 C229.71,710.82,229.91,711.3,230.27,711.3 C230.47,711.3,230.58,711.17,230.58,710.84 C230.58,710.63,230.55,710.52,230.42,710.01 Z "
   stroke-width="0"
   fill="black"
   id="path4301" />
</g>    <g
       style="font-style:normal;font-variant:normal;font-weight:normal;font-stretch:normal;letter-spacing:normal;word-spacing:normal;text-anchor:start;fill:none;stroke:#000000;stroke-linecap:butt;stroke-linejoin:miter;stroke-miterlimit:10.43299961;stroke-opacity:1;stroke-dasharray:none;stroke-dashoffset:0"
       ns0:preamble="D:\\Onderwijs\\FLUI\\Cursus\\FLUI_theorie\\tex\\commands.tex"
       ns0:text="$\\diff y$"
       word-spacing="normal"
       letter-spacing="normal"
       font-size-adjust="none"
       font-stretch="normal"
       font-weight="normal"
       font-variant="normal"
       font-style="normal"
       stroke-miterlimit="10.433"
       xml:space="preserve"
       transform="matrix(1.25,0,0,-1.25,-273.2143,1906.4285)"
       id="g4422">
<path
   id="path4424"
   d="m 227.21,707.67 v -0.65 l 1.47,0.11 v 0.3 c -0.7,0 -0.78,0.07 -0.78,0.56 v 6.03 l -1.43,-0.11 v -0.31 c 0.69,0 0.77,-0.07 0.77,-0.55 v -2.15 c -0.29,0.36 -0.71,0.62 -1.25,0.62 l 0.04,-0.22 c 0.35,0 0.76,-0.15 1.07,-0.6 0.11,-0.17 0.11,-0.19 0.11,-0.37 h 0 v -2.03 c 0,-0.18 0,-0.2 -0.11,-0.37 -0.3,-0.48 -0.74,-0.7 -1.17,-0.7 -0.45,0 -0.81,0.26 -1.05,0.64 -0.25,0.41 -0.28,0.97 -0.28,1.38 0,0.37 0.02,0.96 0.3,1.41 0.21,0.31 0.59,0.64 1.13,0.64 l -0.04,0.22 c -1.17,0 -2.22,-0.98 -2.22,-2.26 0,-1.26 0.97,-2.24 2.11,-2.24 0.64,0 1.08,0.33 1.33,0.65 z"
   inkscape:connector-curvature="0"
   style="fill:#000000;stroke-width:0" />
<path
   id="path4426"
   d="m 233.8,710.91 0,0.01 0.01,0 0,0.01 0,0 0,0.02 0.01,0.01 0,0.01 0,0.01 0,0.01 0.01,0 0,0.01 0,0.01 0,0.01 0,0.01 0,0 0,0.01 0.01,0 0,0.01 0,0.01 0,0 0,0.01 0,0 0,0.01 0,0.01 0,0.01 0,0.01 0,0.01 0,0.01 0,0 0,0.01 c 0,0.18 -0.14,0.27 -0.29,0.27 -0.1,0 -0.26,-0.06 -0.34,-0.21 -0.02,-0.05 -0.1,-0.36 -0.14,-0.54 -0.07,-0.26 -0.14,-0.52 -0.2,-0.79 l -0.45,-1.79 c -0.04,-0.15 -0.47,-0.85 -1.13,-0.85 -0.5,0 -0.61,0.44 -0.61,0.81 0,0.46 0.17,1.07 0.51,1.95 0.16,0.4 0.19,0.51 0.19,0.71 0,0.45 -0.31,0.82 -0.81,0.82 -0.95,0 -1.31,-1.44 -1.31,-1.53 0,-0.1 0.09,-0.1 0.12,-0.1 0.09,0 0.1,0.02 0.15,0.18 0.27,0.93 0.67,1.23 1.01,1.23 0.08,0 0.25,0 0.25,-0.32 0,-0.25 -0.1,-0.51 -0.17,-0.7 -0.4,-1.05 -0.58,-1.62 -0.58,-2.08 0,-0.89 0.63,-1.18 1.22,-1.18 0.38,0 0.72,0.16 1,0.44 -0.13,-0.51 -0.25,-1 -0.65,-1.53 -0.26,-0.34 -0.63,-0.62 -1.09,-0.62 -0.14,0 -0.59,0.03 -0.76,0.41 0.16,0 0.29,0 0.43,0.12 0.1,0.09 0.2,0.22 0.2,0.41 0,0.31 -0.27,0.35 -0.37,0.35 -0.23,0 -0.56,-0.16 -0.56,-0.65 0,-0.49 0.44,-0.86 1.06,-0.86 1.02,0 2.05,0.9 2.33,2.02 z"
   inkscape:connector-curvature="0"
   style="fill:#000000;stroke-width:0" />
</g>  </g>
  <g
     style="display:inline"
     transform="translate(0,-970.86612)"
     inkscape:label="dn"
     id="g6995"
     inkscape:groupmode="layer">
    <path
       inkscape:transform-center-y="-17.82794"
       inkscape:transform-center-x="8.4752106"
       style="fill:none;stroke:#000000;stroke-width:0.99999994px;stroke-linecap:butt;stroke-linejoin:miter;stroke-opacity:1;marker-mid:none;marker-end:url(#Arrow1Mend)"
       d="m 37.596393,1036.913 c -15.80106,-34.0202 -15.80106,-34.0202 -15.80106,-34.0202"
       id="path7019"
       inkscape:connector-curvature="0" />
    <path
       inkscape:connector-curvature="0"
       id="path7025"
       d="m 21.019993,1037.3955 0,-33.9664"
       style="fill:none;stroke:#000000;stroke-width:1px;stroke-linecap:butt;stroke-linejoin:miter;stroke-opacity:1;marker-end:url(#Arrow1Mend)" />
    <path
       style="fill:none;stroke:#000000;stroke-width:1px;stroke-linecap:butt;stroke-linejoin:miter;stroke-opacity:1;marker-end:url(#Arrow1Mend)"
       d="m 37.672673,1037.2841 -14.62516,0"
       id="path7027"
       inkscape:connector-curvature="0" />
    <path
       inkscape:connector-curvature="0"
       id="path7127"
       d="M 141.66269,1037.2456 C 121.87672,994.91927 121.87672,994.91927 121.87672,994.91927"
       style="fill:none;stroke:#000000;stroke-width:0.99999994;stroke-linecap:butt;stroke-linejoin:miter;stroke-miterlimit:4;stroke-opacity:1;stroke-dasharray:3.99999967, 3.99999967;stroke-dashoffset:0;marker-mid:none;marker-end:none"
       inkscape:transform-center-x="10.612595"
       inkscape:transform-center-y="-22.180741" />
  </g>
  <g
     style="display:none"
     transform="translate(0,-970.86612)"
     inkscape:label="ds"
     id="g6923"
     inkscape:groupmode="layer">
    <path
       inkscape:connector-curvature="0"
       id="path6945"
       d="m 37.497243,1037.2175 c 34.62037,-16.4448 34.62037,-16.4448 34.62037,-16.4448"
       style="fill:none;stroke:#000000;stroke-width:0.99999994px;stroke-linecap:butt;stroke-linejoin:miter;stroke-opacity:1;marker-mid:none;marker-end:url(#Arrow1Mend)"
       inkscape:transform-center-x="-18.132623"
       inkscape:transform-center-y="-8.8160997" />
    <path
       style="fill:none;stroke:#000000;stroke-width:1px;stroke-linecap:butt;stroke-linejoin:miter;stroke-opacity:1;marker-end:url(#Arrow1Mend)"
       d="m 37.375653,1037.288 34.70762,0"
       id="path6949"
       inkscape:connector-curvature="0" />
    <path
       inkscape:connector-curvature="0"
       id="path6951"
       d="m 73.800463,1037.3324 0,-15.4459"
       style="fill:none;stroke:#000000;stroke-width:1px;stroke-linecap:butt;stroke-linejoin:miter;stroke-opacity:1;marker-end:url(#Arrow1Mend)" />
    <g
       id="g5857"
       transform="matrix(1.25,0,0,-1.25,-53.431315,1635.3203)"
       xml:space="preserve"
       stroke-miterlimit="10.433"
       font-style="normal"
       font-variant="normal"
       font-weight="normal"
       font-stretch="normal"
       font-size-adjust="none"
       letter-spacing="normal"
       word-spacing="normal"
       ns0:text="$\\diff s$"
       ns0:preamble="D:\\Documenten\\Worksheets\\Inkscape\\incscape_preamble.tex"
       style="font-style:normal;font-variant:normal;font-weight:normal;font-stretch:normal;letter-spacing:normal;word-spacing:normal;text-anchor:start;fill:none;stroke:#000000;stroke-linecap:butt;stroke-linejoin:miter;stroke-miterlimit:10.43299961;stroke-opacity:1;stroke-dasharray:none;stroke-dashoffset:0;display:inline">
<path
   style="fill:#000000;stroke-width:0"
   inkscape:connector-curvature="0"
   d="m 93.781,493.72 v -0.65 l 1.462,0.11 v 0.3 c -0.696,0 -0.776,0.07 -0.776,0.56 v 6.03 l -1.432,-0.11 v -0.31 c 0.696,0 0.776,-0.07 0.776,-0.55 v -2.15 c -0.289,0.36 -0.717,0.62 -1.254,0.62 l 0.04,-0.22 c 0.348,0 0.766,-0.15 1.074,-0.6 0.11,-0.17 0.11,-0.19 0.11,-0.36 h 0 v -2.04 c 0,-0.18 0,-0.2 -0.11,-0.37 -0.298,-0.48 -0.746,-0.69 -1.174,-0.69 -0.448,0 -0.806,0.25 -1.045,0.63 -0.258,0.41 -0.288,0.97 -0.288,1.38 0,0.37 0.02,0.97 0.309,1.41 0.208,0.31 0.587,0.64 1.124,0.64 l -0.04,0.22 c -1.174,0 -2.219,-0.98 -2.219,-2.26 0,-1.26 0.975,-2.24 2.11,-2.24 0.636,0 1.084,0.33 1.333,0.65 z"
   id="path5859" />
<path
   style="fill:#000000;stroke-width:0"
   inkscape:connector-curvature="0"
   d="m 99.425,496.89 -0.026,0 -0.025,0 -0.025,-0.01 -0.024,0 -0.024,-0.01 -0.023,-0.01 -0.023,0 -0.022,-0.01 -0.021,-0.01 -0.021,-0.01 -0.02,-0.01 -0.019,-0.02 -0.019,-0.01 -0.018,-0.01 -0.017,-0.02 -0.016,-0.01 -0.016,-0.02 -0.014,-0.02 -0.014,-0.01 -0.013,-0.02 -0.012,-0.02 -0.011,-0.02 -0.01,-0.02 -0.009,-0.02 -0.008,-0.01 -0.007,-0.02 -0.006,-0.02 -0.005,-0.02 -0.004,-0.02 -0.003,-0.03 -0.002,-0.02 0,-0.02 c 0,-0.14 0.089,-0.28 0.308,-0.28 0.219,0 0.458,0.17 0.458,0.55 0,0.45 -0.428,0.86 -1.184,0.86 -1.314,0 -1.682,-1.02 -1.682,-1.45 0,-0.78 0.737,-0.93 1.025,-0.99 0.517,-0.1 1.035,-0.21 1.035,-0.75 0,-0.26 -0.229,-1.09 -1.423,-1.09 -0.139,0 -0.905,0 -1.134,0.52 0.378,-0.05 0.627,0.25 0.627,0.53 0,0.23 -0.16,0.35 -0.369,0.35 -0.258,0 -0.557,-0.21 -0.557,-0.66 0,-0.57 0.567,-0.96 1.423,-0.96 1.612,0 2,1.2 2,1.65 0,0.35 -0.189,0.6 -0.309,0.72 -0.268,0.28 -0.557,0.33 -0.994,0.42 -0.359,0.08 -0.757,0.15 -0.757,0.59 0,0.29 0.239,0.9 1.115,0.9 0.248,0 0.746,-0.07 0.895,-0.46 z"
   id="path5861" />
</g>    <g
       style="font-style:normal;font-variant:normal;font-weight:normal;font-stretch:normal;letter-spacing:normal;word-spacing:normal;text-anchor:start;fill:none;stroke:#000000;stroke-linecap:butt;stroke-linejoin:miter;stroke-miterlimit:10.43299961;stroke-opacity:1;stroke-dasharray:none;stroke-dashoffset:0;display:inline"
       ns0:preamble="D:\\Documenten\\Worksheets\\Inkscape\\incscape_preamble.tex"
       ns0:text="$\\diff x$"
       word-spacing="normal"
       letter-spacing="normal"
       font-size-adjust="none"
       font-stretch="normal"
       font-weight="normal"
       font-variant="normal"
       font-style="normal"
       stroke-miterlimit="10.433"
       xml:space="preserve"
       transform="matrix(1.25,0,0,-1.25,-58.734615,1664.3622)"
       id="g6521">
<path
   id="path6523"
   d="m 93.781,493.72 v -0.65 l 1.462,0.11 v 0.3 c -0.696,0 -0.776,0.07 -0.776,0.56 v 6.03 l -1.432,-0.11 v -0.31 c 0.696,0 0.776,-0.07 0.776,-0.55 v -2.15 c -0.289,0.36 -0.717,0.62 -1.254,0.62 l 0.04,-0.22 c 0.348,0 0.766,-0.15 1.074,-0.6 0.11,-0.17 0.11,-0.19 0.11,-0.36 h 0 v -2.04 c 0,-0.18 0,-0.2 -0.11,-0.37 -0.298,-0.48 -0.746,-0.69 -1.174,-0.69 -0.448,0 -0.806,0.25 -1.045,0.63 -0.258,0.41 -0.288,0.97 -0.288,1.38 0,0.37 0.02,0.97 0.309,1.41 0.208,0.31 0.587,0.64 1.124,0.64 l -0.04,0.22 c -1.174,0 -2.219,-0.98 -2.219,-2.26 0,-1.26 0.975,-2.24 2.11,-2.24 0.636,0 1.084,0.33 1.333,0.65 z"
   inkscape:connector-curvature="0"
   style="fill:#000000;stroke-width:0" />
<path
   id="path6525"
   d="m 98.858,496.18 0.006,0.02 0.007,0.03 0.009,0.03 0.009,0.04 0.011,0.04 0.011,0.04 0.014,0.04 0.014,0.05 0.016,0.04 0.018,0.05 0.019,0.05 0.02,0.05 0.023,0.05 0.024,0.05 0.025,0.05 0.028,0.05 0.029,0.05 0.031,0.04 0.034,0.05 0.035,0.05 0.037,0.04 0.04,0.04 0.042,0.04 0.044,0.03 0.046,0.03 0.049,0.03 0.025,0.01 0.026,0.02 0.026,0.01 0.027,0.01 0.028,0.01 0.028,0.01 0.029,0 0.03,0.01 0.03,0 0.031,0.01 0.032,0 0.032,0 c 0.05,0 0.287,0 0.497,-0.13 -0.28,-0.05 -0.477,-0.3 -0.477,-0.54 0,-0.16 0.109,-0.35 0.377,-0.35 0.22,0 0.54,0.18 0.54,0.58 0,0.52 -0.59,0.66 -0.927,0.66 -0.577,0 -0.925,-0.53 -1.045,-0.76 -0.248,0.66 -0.786,0.76 -1.074,0.76 -1.035,0 -1.602,-1.28 -1.602,-1.53 0,-0.1 0.099,-0.1 0.119,-0.1 0.08,0 0.11,0.02 0.13,0.11 0.338,1.05 0.995,1.3 1.333,1.3 0.189,0 0.537,-0.09 0.537,-0.67 0,-0.3 -0.169,-0.97 -0.537,-2.36 -0.159,-0.62 -0.508,-1.03 -0.945,-1.03 -0.06,0 -0.289,0 -0.498,0.12 0.249,0.05 0.468,0.26 0.468,0.54 0,0.27 -0.219,0.35 -0.368,0.35 -0.299,0 -0.547,-0.26 -0.547,-0.58 0,-0.45 0.497,-0.65 0.935,-0.65 0.656,0 1.014,0.69 1.044,0.75 0.12,-0.37 0.478,-0.75 1.075,-0.75 1.025,0 1.592,1.28 1.592,1.53 0,0.1 -0.09,0.1 -0.12,0.1 -0.09,0 -0.11,-0.04 -0.13,-0.11 -0.327,-1.07 -1.004,-1.3 -1.322,-1.3 -0.388,0 -0.547,0.31 -0.547,0.65 0,0.22 0.059,0.44 0.169,0.88 z"
   inkscape:connector-curvature="0"
   style="fill:#000000;stroke-width:0" />
</g>    <g
       id="g6615"
       transform="matrix(1.25,0,0,-1.25,-34.743495,1646.1794)"
       xml:space="preserve"
       stroke-miterlimit="10.433"
       font-style="normal"
       font-variant="normal"
       font-weight="normal"
       font-stretch="normal"
       font-size-adjust="none"
       letter-spacing="normal"
       word-spacing="normal"
       ns0:text="$\\diff y$"
       ns0:preamble="D:\\Documenten\\Worksheets\\Inkscape\\incscape_preamble.tex"
       style="font-style:normal;font-variant:normal;font-weight:normal;font-stretch:normal;letter-spacing:normal;word-spacing:normal;text-anchor:start;fill:none;stroke:#000000;stroke-linecap:butt;stroke-linejoin:miter;stroke-miterlimit:10.43299961;stroke-opacity:1;stroke-dasharray:none;stroke-dashoffset:0;display:inline">
<path
   style="fill:#000000;stroke-width:0"
   inkscape:connector-curvature="0"
   d="m 93.781,493.72 v -0.65 l 1.462,0.11 v 0.3 c -0.696,0 -0.776,0.07 -0.776,0.56 v 6.03 l -1.432,-0.11 v -0.31 c 0.696,0 0.776,-0.07 0.776,-0.55 v -2.15 c -0.289,0.36 -0.717,0.62 -1.254,0.62 l 0.04,-0.22 c 0.348,0 0.766,-0.15 1.074,-0.6 0.11,-0.17 0.11,-0.19 0.11,-0.36 h 0 v -2.04 c 0,-0.18 0,-0.2 -0.11,-0.37 -0.298,-0.48 -0.746,-0.69 -1.174,-0.69 -0.448,0 -0.806,0.25 -1.045,0.63 -0.258,0.41 -0.288,0.97 -0.288,1.38 0,0.37 0.02,0.97 0.309,1.41 0.208,0.31 0.587,0.64 1.124,0.64 l -0.04,0.22 c -1.174,0 -2.219,-0.98 -2.219,-2.26 0,-1.26 0.975,-2.24 2.11,-2.24 0.636,0 1.084,0.33 1.333,0.65 z"
   id="path6617" />
<path
   style="fill:#000000;stroke-width:0"
   inkscape:connector-curvature="0"
   d="m 100.37,496.96 0,0.01 0,0 0.01,0.01 0,0.01 0,0.01 0,0.01 0.01,0.01 0,0.01 0,0.01 0,0.01 0.01,0 0,0.01 0,0.01 0,0.01 0,0 0,0.01 0,0.01 0.01,0 0,0.01 0,0 0,0.01 0,0 0,0.01 0,0.01 0,0.01 0,0.02 0,0 0,0.01 0,0 0,0.01 c 0,0.18 -0.14,0.27 -0.29,0.27 -0.1,0 -0.257,-0.06 -0.347,-0.21 -0.019,-0.05 -0.099,-0.36 -0.139,-0.54 -0.07,-0.26 -0.139,-0.52 -0.199,-0.79 l -0.448,-1.79 c -0.039,-0.15 -0.467,-0.84 -1.124,-0.84 -0.507,0 -0.617,0.43 -0.617,0.8 0,0.46 0.169,1.07 0.508,1.95 0.159,0.4 0.199,0.51 0.199,0.71 0,0.45 -0.319,0.82 -0.816,0.82 -0.945,0 -1.313,-1.44 -1.313,-1.53 0,-0.1 0.099,-0.1 0.119,-0.1 0.099,0 0.109,0.02 0.159,0.18 0.269,0.93 0.667,1.23 1.005,1.23 0.08,0 0.249,0 0.249,-0.32 0,-0.25 -0.1,-0.51 -0.169,-0.7 -0.398,-1.05 -0.578,-1.61 -0.578,-2.08 0,-0.89 0.627,-1.18 1.214,-1.18 0.388,0 0.727,0.17 1.005,0.44 -0.129,-0.51 -0.249,-1 -0.647,-1.53 -0.258,-0.33 -0.636,-0.62 -1.094,-0.62 -0.139,0 -0.587,0.03 -0.756,0.41 0.159,0 0.288,0 0.428,0.12 0.099,0.09 0.199,0.22 0.199,0.41 0,0.31 -0.269,0.35 -0.368,0.35 -0.229,0 -0.557,-0.16 -0.557,-0.65 0,-0.49 0.437,-0.86 1.054,-0.86 1.025,0 2.05,0.9 2.328,2.03 z"
   id="path6619" />
</g>  </g>
</svg>
