<?xml version="1.0" encoding="UTF-8" standalone="no"?>
<!-- Created with Inkscape (http://www.inkscape.org/) -->

<svg
   xmlns:ns0="http://www.iki.fi/pav/software/textext/"
   xmlns:dc="http://purl.org/dc/elements/1.1/"
   xmlns:cc="http://creativecommons.org/ns#"
   xmlns:rdf="http://www.w3.org/1999/02/22-rdf-syntax-ns#"
   xmlns:svg="http://www.w3.org/2000/svg"
   xmlns="http://www.w3.org/2000/svg"
   xmlns:sodipodi="http://sodipodi.sourceforge.net/DTD/sodipodi-0.dtd"
   xmlns:inkscape="http://www.inkscape.org/namespaces/inkscape"
   width="283.46457"
   height="88.582672"
   id="svg3041"
   version="1.1"
   inkscape:version="0.91 r13725"
   sodipodi:docname="Parallelschakeling.svg">
  <sodipodi:namedview
     id="base"
     pagecolor="#ffffff"
     bordercolor="#666666"
     borderopacity="1.0"
     inkscape:pageopacity="0.0"
     inkscape:pageshadow="2"
     inkscape:zoom="2.1895349"
     inkscape:cx="129.84154"
     inkscape:cy="76.94676"
     inkscape:document-units="mm"
     inkscape:current-layer="layer1"
     showgrid="false"
     inkscape:window-width="1280"
     inkscape:window-height="962"
     inkscape:window-x="-8"
     inkscape:window-y="-8"
     inkscape:window-maximized="1"
     units="mm">
    <inkscape:grid
       spacingy="1mm"
       spacingx="1mm"
       units="mm"
       snapvisiblegridlinesonly="true"
       enabled="true"
       visible="true"
       empspacing="5"
       id="grid2992"
       type="xygrid" />
  </sodipodi:namedview>
  <defs
     id="defs3043">
    <clipPath
       clipPathUnits="userSpaceOnUse"
       id="clipPath9168">
      <path
         d="m 315.3,405.388 210.371,0 0,-130.207 -210.371,0 0,130.207 z"
         id="path9170" />
    </clipPath>
    <clipPath
       clipPathUnits="userSpaceOnUse"
       id="clipPath9100">
      <path
         d="m 315.3,405.388 210.371,0 0,-130.207 -210.371,0 0,130.207 z"
         id="path9102" />
    </clipPath>
    <clipPath
       clipPathUnits="userSpaceOnUse"
       id="clipPath9074">
      <path
         d="m 315.3,405.388 210.371,0 0,-130.207 -210.371,0 0,130.207 z"
         id="path9076" />
    </clipPath>
    <clipPath
       clipPathUnits="userSpaceOnUse"
       id="clipPath9054">
      <path
         d="m 315.3,405.388 210.371,0 0,-130.207 -210.371,0 0,130.207 z"
         id="path9056" />
    </clipPath>
    <clipPath
       clipPathUnits="userSpaceOnUse"
       id="clipPath9004">
      <path
         d="m 315.3,405.388 210.371,0 0,-130.207 -210.371,0 0,130.207 z"
         id="path9006" />
    </clipPath>
    <clipPath
       clipPathUnits="userSpaceOnUse"
       id="clipPath8696">
      <path
         d="m 315.3,417.92 212.22,0 0,-155.94 -212.22,0 0,155.94 z"
         clip-rule="evenodd"
         id="path8698" />
    </clipPath>
    <clipPath
       clipPathUnits="userSpaceOnUse"
       id="clipPath8198">
      <path
         d="m 315.3,708.705 210.371,0 0,-130.219 -210.371,0 0,130.219 z"
         id="path8200" />
    </clipPath>
    <clipPath
       clipPathUnits="userSpaceOnUse"
       id="clipPath8130">
      <path
         d="m 315.3,708.705 210.371,0 0,-130.219 -210.371,0 0,130.219 z"
         id="path8132" />
    </clipPath>
    <clipPath
       clipPathUnits="userSpaceOnUse"
       id="clipPath8104">
      <path
         d="m 315.3,708.705 210.371,0 0,-130.219 -210.371,0 0,130.219 z"
         id="path8106" />
    </clipPath>
    <clipPath
       clipPathUnits="userSpaceOnUse"
       id="clipPath8084">
      <path
         d="m 315.3,708.705 210.371,0 0,-130.219 -210.371,0 0,130.219 z"
         id="path8086" />
    </clipPath>
    <clipPath
       clipPathUnits="userSpaceOnUse"
       id="clipPath8034">
      <path
         d="m 315.3,708.705 210.371,0 0,-130.219 -210.371,0 0,130.219 z"
         id="path8036" />
    </clipPath>
    <clipPath
       clipPathUnits="userSpaceOnUse"
       id="clipPath7726">
      <path
         d="m 315.3,721.22 212.22,0 0,-155.94 -212.22,0 0,155.94 z"
         clip-rule="evenodd"
         id="path7728" />
    </clipPath>
    <clipPath
       clipPathUnits="userSpaceOnUse"
       id="clipPath7248">
      <path
         d="m 0,757.16 595.02,0 0,1.08 -595.02,0 0,-1.08 z"
         id="path7250" />
    </clipPath>
    <clipPath
       clipPathUnits="userSpaceOnUse"
       id="clipPath7236">
      <path
         d="m 0,41.54 595.02,0 0,1.08 -595.02,0 0,-1.08 z"
         id="path7238" />
    </clipPath>
  </defs>
  <metadata
     id="metadata3046">
    <rdf:RDF>
      <cc:Work
         rdf:about="">
        <dc:format>image/svg+xml</dc:format>
        <dc:type
           rdf:resource="http://purl.org/dc/dcmitype/StillImage" />
        <dc:title />
      </cc:Work>
    </rdf:RDF>
  </metadata>
  <g
     transform="translate(0,-963.77945)"
     id="layer1"
     inkscape:groupmode="layer"
     inkscape:label="Laag 1">
    <g
       transform="translate(-24.80315,42.519687)"
       id="g3986">
      <path
         style="fill:none;stroke:#000000;stroke-width:3.54330707;stroke-linecap:butt;stroke-linejoin:miter;stroke-miterlimit:4;stroke-opacity:1;stroke-dasharray:none"
         d="M 35.433071,301.18108 C 42.519685,294.09445 49.6063,287.00784 95.669292,287.00784"
         id="path3976"
         inkscape:connector-curvature="0"
         transform="translate(0,698.03145)"
         sodipodi:nodetypes="cc" />
      <path
         style="fill:none;stroke:#000000;stroke-width:1px;stroke-linecap:butt;stroke-linejoin:miter;stroke-opacity:1"
         d="m 95.669292,977.95267 0,14.17323"
         id="path3982"
         inkscape:connector-curvature="0" />
      <path
         inkscape:connector-curvature="0"
         id="path3984"
         d="m 30.282621,994.24066 10.022038,10.02204"
         style="fill:none;stroke:#000000;stroke-width:1px;stroke-linecap:butt;stroke-linejoin:miter;stroke-opacity:1" />
    </g>
    <g
       transform="translate(-3.9370078e-6,-35.433105)"
       id="g4535">
      <path
         style="fill:none;stroke:#000000;stroke-width:3.54330707;stroke-linecap:butt;stroke-linejoin:miter;stroke-miterlimit:4;stroke-opacity:1;stroke-dasharray:none"
         d="m 248.0315,1016.9291 c 10.62992,0 24.80315,7.0866 24.80315,24.8032"
         id="path3980"
         inkscape:connector-curvature="0"
         sodipodi:nodetypes="cc" />
      <path
         style="fill:none;stroke:#000000;stroke-width:1px;stroke-linecap:butt;stroke-linejoin:miter;stroke-opacity:1"
         d="m 248.0315,1009.8424 0,14.1733"
         id="path3991"
         inkscape:connector-curvature="0" />
      <path
         style="fill:none;stroke:#000000;stroke-width:1px;stroke-linecap:butt;stroke-linejoin:miter;stroke-opacity:1"
         d="m 265.74803,1041.7322 14.17323,0"
         id="path3993"
         inkscape:connector-curvature="0" />
    </g>
    <path
       sodipodi:nodetypes="cc"
       inkscape:connector-curvature="0"
       id="path3995"
       d="M 70.866142,1027.559 C 138.18898,1002.7558 166.53543,949.60622 248.0315,981.49598"
       style="fill:none;stroke:#000000;stroke-width:3.54330707;stroke-linecap:butt;stroke-linejoin:miter;stroke-miterlimit:4;stroke-opacity:1;stroke-dasharray:none" />
    <path
       style="fill:none;stroke:#000000;stroke-width:3.54330707;stroke-linecap:butt;stroke-linejoin:miter;stroke-miterlimit:4;stroke-opacity:1;stroke-dasharray:none"
       d="M 70.866142,1027.559 C 176.62004,1082.2502 197.45661,1013.5665 248.0315,981.49598"
       id="path4540"
       inkscape:connector-curvature="0"
       sodipodi:nodetypes="cc" />
    <path
       sodipodi:nodetypes="cc"
       inkscape:connector-curvature="0"
       id="path4542"
       d="M 70.866142,1027.559 C 191.2469,1032.2855 151.43007,993.6619 248.0315,981.49598"
       style="fill:none;stroke:#000000;stroke-width:3.54330707;stroke-linecap:butt;stroke-linejoin:miter;stroke-miterlimit:4;stroke-opacity:1;stroke-dasharray:none" />
    <g
       ns0:preamble="D:\\Onderwijs\\FLUI\\Cursusmateriaal\\Fluidummechanica\\tex\\packages.tex"
       ns0:text="A"
       word-spacing="normal"
       letter-spacing="normal"
       font-size-adjust="none"
       font-stretch="normal"
       font-weight="normal"
       font-variant="normal"
       font-style="normal"
       stroke-miterlimit="10.433"
       xml:space="preserve"
       transform="matrix(1.25,0,0,-1.25,-146.41913,1582.3267)"
       id="g4230"
       style="font-style:normal;font-variant:normal;font-weight:normal;font-stretch:normal;letter-spacing:normal;word-spacing:normal;text-anchor:start;fill:none;fill-opacity:1;fill-rule:evenodd;stroke:#000000;stroke-linecap:butt;stroke-linejoin:miter;stroke-miterlimit:10.43299961;stroke-dasharray:none;stroke-dashoffset:0;stroke-opacity:1">
<path
   id="path4232"
   d="m 227.4,484.15 0,0.01 -0.01,0.01 0,0.01 -0.01,0.01 0,0.02 -0.01,0.01 0,0.01 0,0 -0.01,0.01 0,0.01 -0.01,0.01 0,0.01 -0.01,0.01 0,0 -0.01,0.01 0,0.01 -0.01,0 0,0.01 -0.01,0 -0.01,0.01 -0.01,0 0,0.01 -0.01,0 -0.01,0.01 -0.01,0 -0.01,0 -0.01,0 -0.01,0 -0.02,0.01 -0.01,0 -0.01,0 -0.01,0 -0.01,0 c -0.16,0 -0.19,-0.06 -0.24,-0.2 l -2.06,-5.94 c -0.18,-0.51 -0.58,-0.66 -1.12,-0.67 l 0,-0.31 c 0.23,0.01 0.66,0.04 1.02,0.04 0.31,0 0.83,-0.03 1.14,-0.04 l 0,0.31 c -0.49,0 -0.74,0.25 -0.74,0.51 0,0.03 0.01,0.13 0.02,0.15 l 0.46,1.3 0.11,0.31 1.11,3.23 1.13,-3.23 -2.24,0 -0.11,-0.31 2.46,0 0.53,-1.52 c 0.01,-0.04 0.03,-0.1 0.03,-0.14 0,-0.3 -0.56,-0.3 -0.83,-0.3 l 0,-0.31 c 0.36,0.04 1.06,0.04 1.44,0.04 0.42,0 0.88,-0.01 1.3,-0.04 l 0,0.31 -0.18,0 c -0.6,0 -0.74,0.07 -0.85,0.4 z"
   inkscape:connector-curvature="0"
   style="fill:#000000;stroke-width:0" />
</g>    <g
       id="g4348"
       transform="matrix(1.25,0,0,-1.25,-131.34743,1610.6432)"
       xml:space="preserve"
       stroke-miterlimit="10.433"
       font-style="normal"
       font-variant="normal"
       font-weight="normal"
       font-stretch="normal"
       font-size-adjust="none"
       letter-spacing="normal"
       word-spacing="normal"
       ns0:text="B"
       ns0:preamble="D:\\Onderwijs\\FLUI\\Cursusmateriaal\\Fluidummechanica\\tex\\packages.tex"
       style="font-style:normal;font-variant:normal;font-weight:normal;font-stretch:normal;letter-spacing:normal;word-spacing:normal;text-anchor:start;fill:none;fill-opacity:1;fill-rule:evenodd;stroke:#000000;stroke-linecap:butt;stroke-linejoin:miter;stroke-miterlimit:10.43299961;stroke-dasharray:none;stroke-dashoffset:0;stroke-opacity:1">
<path
   d="m 228,480.78 0.09,0.02 0.09,0.02 0.08,0.03 0.09,0.02 0.08,0.03 0.08,0.03 0.08,0.04 0.08,0.03 0.07,0.04 0.07,0.04 0.07,0.04 0.07,0.04 0.06,0.05 0.06,0.05 0.06,0.05 0.06,0.05 0.05,0.05 0.05,0.05 0.05,0.06 0.05,0.05 0.04,0.06 0.04,0.06 0.03,0.06 0.03,0.06 0.03,0.07 0.03,0.06 0.02,0.07 0.01,0.06 0.02,0.07 0.01,0.06 0,0.07 0,0.07 c 0,0.86 -0.91,1.68 -2.21,1.68 l -0.07,-0.31 c 0.97,0 1.32,-0.84 1.32,-1.37 0,-0.64 -0.49,-1.47 -1.6,-1.47 l -1.44,0 0,-0.22 1.87,0 c 0.99,0 1.41,-0.92 1.41,-1.59 0,-0.7 -0.52,-1.52 -1.55,-1.52 l 0,0 -1.25,0 c -0.46,0 -0.48,0.07 -0.48,0.4 l 0,2.71 0,0.22 0,2.45 c 0,0.32 0.02,0.39 0.48,0.39 l 1.24,0 0.07,0.31 -3.65,0 0,-0.31 0.24,0 c 0.77,0 0.79,-0.11 0.79,-0.47 l 0,-5.23 c 0,-0.36 -0.02,-0.47 -0.79,-0.47 l -0.24,0 0,-0.31 3.91,0 c 1.33,0 2.22,0.89 2.22,1.82 0,0.87 -0.81,1.61 -1.92,1.73 z"
   id="path4350"
   inkscape:connector-curvature="0"
   style="fill:#000000;stroke-width:0" />
</g>    <g
       style="font-style:normal;font-variant:normal;font-weight:normal;font-stretch:normal;letter-spacing:normal;word-spacing:normal;text-anchor:start;fill:none;fill-opacity:1;fill-rule:evenodd;stroke:#000000;stroke-linecap:butt;stroke-linejoin:miter;stroke-miterlimit:10.43299961;stroke-dasharray:none;stroke-dashoffset:0;stroke-opacity:1"
       ns0:preamble="D:\\Onderwijs\\FLUI\\Cursusmateriaal\\Fluidummechanica\\tex\\packages.tex"
       ns0:text="C"
       word-spacing="normal"
       letter-spacing="normal"
       font-size-adjust="none"
       font-stretch="normal"
       font-weight="normal"
       font-variant="normal"
       font-style="normal"
       stroke-miterlimit="10.433"
       xml:space="preserve"
       transform="matrix(1.25,0,0,-1.25,-119.92949,1636.6761)"
       id="g4462">
<path
   id="path4464"
   d="m 223.99,480.63 0,-0.19 0.02,-0.19 0.02,-0.18 0.03,-0.18 0.04,-0.18 0.05,-0.18 0.06,-0.16 0.06,-0.17 0.07,-0.16 0.08,-0.16 0.09,-0.15 0.09,-0.15 0.1,-0.14 0.1,-0.13 0.11,-0.13 0.12,-0.13 0.12,-0.12 0.13,-0.11 0.13,-0.1 0.14,-0.1 0.14,-0.09 0.14,-0.09 0.15,-0.08 0.16,-0.07 0.15,-0.06 0.16,-0.06 0.16,-0.04 0.17,-0.04 0.17,-0.03 0.17,-0.03 0.17,-0.01 0.17,0 c 1.63,0 2.6,1.38 2.6,2.53 0,0.1 0,0.17 -0.13,0.17 -0.11,0 -0.11,-0.06 -0.12,-0.16 -0.08,-1.42 -1.14,-2.24 -2.23,-2.24 -0.61,0 -2.56,0.34 -2.56,3.3 0,2.97 1.94,3.31 2.55,3.31 1.09,0 1.97,-0.9 2.17,-2.35 0.02,-0.14 0.02,-0.17 0.16,-0.17 0.16,0 0.16,0.03 0.16,0.24 l 0,2.35 c 0,0.17 0,0.24 -0.11,0.24 -0.04,0 -0.08,0 -0.16,-0.12 l -0.49,-0.74 c -0.37,0.36 -0.88,0.86 -1.84,0.86 -1.86,0 -3.47,-1.58 -3.47,-3.61 z"
   inkscape:connector-curvature="0"
   style="fill:#000000;stroke-width:0" />
</g>  </g>
</svg>
