<?xml version="1.0" encoding="UTF-8" standalone="no"?>
<!-- Created with Inkscape (http://www.inkscape.org/) -->

<svg
   xmlns:ns0="http://www.iki.fi/pav/software/textext/"
   xmlns:dc="http://purl.org/dc/elements/1.1/"
   xmlns:cc="http://creativecommons.org/ns#"
   xmlns:rdf="http://www.w3.org/1999/02/22-rdf-syntax-ns#"
   xmlns:svg="http://www.w3.org/2000/svg"
   xmlns="http://www.w3.org/2000/svg"
   xmlns:sodipodi="http://sodipodi.sourceforge.net/DTD/sodipodi-0.dtd"
   xmlns:inkscape="http://www.inkscape.org/namespaces/inkscape"
   width="425.19684"
   height="283.46457"
   id="svg3041"
   version="1.1"
   inkscape:version="0.48.2 r9819"
   sodipodi:docname="Pompleidingkarakteristiek.svg">
  <sodipodi:namedview
     id="base"
     pagecolor="#ffffff"
     bordercolor="#666666"
     borderopacity="1.0"
     inkscape:pageopacity="0.0"
     inkscape:pageshadow="2"
     inkscape:zoom="1.979899"
     inkscape:cx="210.35226"
     inkscape:cy="146.20507"
     inkscape:document-units="mm"
     inkscape:current-layer="layer1"
     showgrid="false"
     inkscape:window-width="1366"
     inkscape:window-height="706"
     inkscape:window-x="-8"
     inkscape:window-y="-8"
     inkscape:window-maximized="1"
     units="mm">
    <inkscape:grid
       spacingy="1mm"
       spacingx="1mm"
       units="mm"
       snapvisiblegridlinesonly="true"
       enabled="true"
       visible="true"
       empspacing="5"
       id="grid2992"
       type="xygrid" />
  </sodipodi:namedview>
  <defs
     id="defs3043">
    <marker
       style="overflow:visible;"
       id="Arrow1Lend"
       refX="0.0"
       refY="0.0"
       orient="auto"
       inkscape:stockid="Arrow1Lend">
      <path
         transform="scale(0.8) rotate(180) translate(12.5,0)"
         style="fill-rule:evenodd;stroke:#000000;stroke-width:1.0pt;marker-start:none;"
         d="M 0.0,0.0 L 5.0,-5.0 L -12.5,0.0 L 5.0,5.0 L 0.0,0.0 z "
         id="path5159" />
    </marker>
    <marker
       style="overflow:visible"
       id="Arrow1Lstart"
       refX="0.0"
       refY="0.0"
       orient="auto"
       inkscape:stockid="Arrow1Lstart">
      <path
         transform="scale(0.8) translate(12.5,0)"
         style="fill-rule:evenodd;stroke:#000000;stroke-width:1.0pt;marker-start:none"
         d="M 0.0,0.0 L 5.0,-5.0 L -12.5,0.0 L 5.0,5.0 L 0.0,0.0 z "
         id="path5156" />
    </marker>
    <clipPath
       clipPathUnits="userSpaceOnUse"
       id="clipPath7236">
      <path
         d="m 0,41.54 595.02,0 0,1.08 -595.02,0 0,-1.08 z"
         id="path7238"
         inkscape:connector-curvature="0" />
    </clipPath>
    <clipPath
       clipPathUnits="userSpaceOnUse"
       id="clipPath7248">
      <path
         d="m 0,757.16 595.02,0 0,1.08 -595.02,0 0,-1.08 z"
         id="path7250"
         inkscape:connector-curvature="0" />
    </clipPath>
    <clipPath
       clipPathUnits="userSpaceOnUse"
       id="clipPath7726">
      <path
         d="m 315.3,721.22 212.22,0 0,-155.94 -212.22,0 0,155.94 z"
         clip-rule="evenodd"
         id="path7728"
         inkscape:connector-curvature="0" />
    </clipPath>
    <clipPath
       clipPathUnits="userSpaceOnUse"
       id="clipPath8034">
      <path
         d="m 315.3,708.705 210.371,0 0,-130.219 -210.371,0 0,130.219 z"
         id="path8036"
         inkscape:connector-curvature="0" />
    </clipPath>
    <clipPath
       clipPathUnits="userSpaceOnUse"
       id="clipPath8084">
      <path
         d="m 315.3,708.705 210.371,0 0,-130.219 -210.371,0 0,130.219 z"
         id="path8086"
         inkscape:connector-curvature="0" />
    </clipPath>
    <clipPath
       clipPathUnits="userSpaceOnUse"
       id="clipPath8104">
      <path
         d="m 315.3,708.705 210.371,0 0,-130.219 -210.371,0 0,130.219 z"
         id="path8106"
         inkscape:connector-curvature="0" />
    </clipPath>
    <clipPath
       clipPathUnits="userSpaceOnUse"
       id="clipPath8130">
      <path
         d="m 315.3,708.705 210.371,0 0,-130.219 -210.371,0 0,130.219 z"
         id="path8132"
         inkscape:connector-curvature="0" />
    </clipPath>
    <clipPath
       clipPathUnits="userSpaceOnUse"
       id="clipPath8198">
      <path
         d="m 315.3,708.705 210.371,0 0,-130.219 -210.371,0 0,130.219 z"
         id="path8200"
         inkscape:connector-curvature="0" />
    </clipPath>
    <clipPath
       clipPathUnits="userSpaceOnUse"
       id="clipPath8696">
      <path
         d="m 315.3,417.92 212.22,0 0,-155.94 -212.22,0 0,155.94 z"
         clip-rule="evenodd"
         id="path8698"
         inkscape:connector-curvature="0" />
    </clipPath>
    <clipPath
       clipPathUnits="userSpaceOnUse"
       id="clipPath9004">
      <path
         d="m 315.3,405.388 210.371,0 0,-130.207 -210.371,0 0,130.207 z"
         id="path9006"
         inkscape:connector-curvature="0" />
    </clipPath>
    <clipPath
       clipPathUnits="userSpaceOnUse"
       id="clipPath9054">
      <path
         d="m 315.3,405.388 210.371,0 0,-130.207 -210.371,0 0,130.207 z"
         id="path9056"
         inkscape:connector-curvature="0" />
    </clipPath>
    <clipPath
       clipPathUnits="userSpaceOnUse"
       id="clipPath9074">
      <path
         d="m 315.3,405.388 210.371,0 0,-130.207 -210.371,0 0,130.207 z"
         id="path9076"
         inkscape:connector-curvature="0" />
    </clipPath>
    <clipPath
       clipPathUnits="userSpaceOnUse"
       id="clipPath9100">
      <path
         d="m 315.3,405.388 210.371,0 0,-130.207 -210.371,0 0,130.207 z"
         id="path9102"
         inkscape:connector-curvature="0" />
    </clipPath>
    <clipPath
       clipPathUnits="userSpaceOnUse"
       id="clipPath9168">
      <path
         d="m 315.3,405.388 210.371,0 0,-130.207 -210.371,0 0,130.207 z"
         id="path9170"
         inkscape:connector-curvature="0" />
    </clipPath>
  </defs>
  <metadata
     id="metadata3046">
    <rdf:RDF>
      <cc:Work
         rdf:about="">
        <dc:format>image/svg+xml</dc:format>
        <dc:type
           rdf:resource="http://purl.org/dc/dcmitype/StillImage" />
        <dc:title />
      </cc:Work>
    </rdf:RDF>
  </metadata>
  <g
     transform="translate(0,-768.89761)"
     id="layer1"
     inkscape:groupmode="layer"
     inkscape:label="Laag 1">
    <path
       id="path7320"
       style="fill:none;stroke:#000000;stroke-width:0.80124998;stroke-linecap:round;stroke-linejoin:miter;stroke-miterlimit:10;stroke-opacity:1;stroke-dasharray:none"
       d="m 96.785193,982.64207 295.090947,0"
       inkscape:connector-curvature="0" />
    <path
       id="path7322"
       style="fill:none;stroke:#000000;stroke-width:0.80124998;stroke-linecap:round;stroke-linejoin:miter;stroke-miterlimit:10;stroke-opacity:1;stroke-dasharray:none"
       d="m 96.785193,992.21487 0,-9.5728"
       inkscape:connector-curvature="0" />
    <path
       id="path7324"
       style="fill:none;stroke:#000000;stroke-width:0.26750001;stroke-linecap:round;stroke-linejoin:miter;stroke-miterlimit:10;stroke-opacity:1;stroke-dasharray:none"
       d="m 96.785193,987.21907 0,-4.577 m 16.647667,4.577 0,-4.577"
       inkscape:connector-curvature="0" />
    <path
       id="path7326"
       style="fill:none;stroke:#000000;stroke-width:0.80124998;stroke-linecap:round;stroke-linejoin:miter;stroke-miterlimit:10;stroke-opacity:1;stroke-dasharray:none"
       d="m 129.66552,992.21487 0,-9.5728"
       inkscape:connector-curvature="0" />
    <path
       id="path7328"
       style="fill:none;stroke:#000000;stroke-width:0.26750001;stroke-linecap:round;stroke-linejoin:miter;stroke-miterlimit:10;stroke-opacity:1;stroke-dasharray:none"
       d="m 129.66552,982.64207 0,-196.86693 m 0,201.44393 0,-4.577 m 16.23265,4.577 0,-4.577"
       inkscape:connector-curvature="0" />
    <path
       id="path7330"
       style="fill:none;stroke:#000000;stroke-width:0.80124998;stroke-linecap:round;stroke-linejoin:miter;stroke-miterlimit:10;stroke-opacity:1;stroke-dasharray:none"
       d="m 162.54584,992.21487 0,-9.5728"
       inkscape:connector-curvature="0" />
    <path
       id="path7332"
       style="fill:none;stroke:#000000;stroke-width:0.26750001;stroke-linecap:round;stroke-linejoin:miter;stroke-miterlimit:10;stroke-opacity:1;stroke-dasharray:none"
       d="m 162.54584,982.64207 0,-196.86693 m 0,201.44393 0,-4.577 m 16.23266,4.577 0,-4.577"
       inkscape:connector-curvature="0" />
    <path
       id="path7334"
       style="fill:none;stroke:#000000;stroke-width:0.80124998;stroke-linecap:round;stroke-linejoin:miter;stroke-miterlimit:10;stroke-opacity:1;stroke-dasharray:none"
       d="m 195.0092,992.21487 0,-9.5728"
       inkscape:connector-curvature="0" />
    <path
       id="path7336"
       style="fill:none;stroke:#000000;stroke-width:0.26750001;stroke-linecap:round;stroke-linejoin:miter;stroke-miterlimit:10;stroke-opacity:1;stroke-dasharray:none"
       d="m 195.0092,982.64207 0,-196.86693 m 0,201.44393 0,-4.577 m 16.64962,4.577 0,-4.577"
       inkscape:connector-curvature="0" />
    <path
       id="path7338"
       style="fill:none;stroke:#000000;stroke-width:0.80124998;stroke-linecap:round;stroke-linejoin:miter;stroke-miterlimit:10;stroke-opacity:1;stroke-dasharray:none"
       d="m 227.88953,992.21487 0,-9.5728"
       inkscape:connector-curvature="0" />
    <path
       id="path7340"
       style="fill:none;stroke:#000000;stroke-width:0.26750001;stroke-linecap:round;stroke-linejoin:miter;stroke-miterlimit:10;stroke-opacity:1;stroke-dasharray:none"
       d="m 227.88953,982.64207 0,-196.86693 m 0,201.44393 0,-4.577 m 16.64962,4.577 0,-4.577"
       inkscape:connector-curvature="0" />
    <path
       id="path7342"
       style="fill:none;stroke:#000000;stroke-width:0.80124998;stroke-linecap:round;stroke-linejoin:miter;stroke-miterlimit:10;stroke-opacity:1;stroke-dasharray:none"
       d="m 260.76986,992.21487 0,-9.5728"
       inkscape:connector-curvature="0" />
    <path
       id="path7344"
       style="fill:none;stroke:#000000;stroke-width:0.26750001;stroke-linecap:round;stroke-linejoin:miter;stroke-miterlimit:10;stroke-opacity:1;stroke-dasharray:none"
       d="m 260.76986,982.64207 0,-196.86693 m 0,201.44393 0,-4.577 m 16.23265,4.577 0,-4.577"
       inkscape:connector-curvature="0" />
    <path
       id="path7346"
       style="fill:none;stroke:#000000;stroke-width:0.80124998;stroke-linecap:round;stroke-linejoin:miter;stroke-miterlimit:10;stroke-opacity:1;stroke-dasharray:none"
       d="m 293.65213,992.21487 0,-9.5728"
       inkscape:connector-curvature="0" />
    <path
       id="path7348"
       style="fill:none;stroke:#000000;stroke-width:0.26750001;stroke-linecap:round;stroke-linejoin:miter;stroke-miterlimit:10;stroke-opacity:1;stroke-dasharray:none"
       d="m 293.65213,982.64207 0,-196.86693 m 0,201.44393 0,-4.577 m 16.23071,4.577 0,-4.577"
       inkscape:connector-curvature="0" />
    <path
       id="path7350"
       style="fill:none;stroke:#000000;stroke-width:0.80124998;stroke-linecap:round;stroke-linejoin:miter;stroke-miterlimit:10;stroke-opacity:1;stroke-dasharray:none"
       d="m 326.11549,992.21487 0,-9.5728"
       inkscape:connector-curvature="0" />
    <path
       id="path7352"
       style="fill:none;stroke:#000000;stroke-width:0.26750001;stroke-linecap:round;stroke-linejoin:miter;stroke-miterlimit:10;stroke-opacity:1;stroke-dasharray:none"
       d="m 326.11549,982.64207 0,-196.86693 m 0,201.44393 0,-4.577 m 16.64767,4.577 0,-4.577"
       inkscape:connector-curvature="0" />
    <path
       id="path7354"
       style="fill:none;stroke:#000000;stroke-width:0.80124998;stroke-linecap:round;stroke-linejoin:miter;stroke-miterlimit:10;stroke-opacity:1;stroke-dasharray:none"
       d="m 358.99582,992.21487 0,-9.5728"
       inkscape:connector-curvature="0" />
    <path
       id="path7356"
       style="fill:none;stroke:#000000;stroke-width:0.26750001;stroke-linecap:round;stroke-linejoin:miter;stroke-miterlimit:10;stroke-opacity:1;stroke-dasharray:none"
       d="m 358.99582,982.64207 0,-196.86693 m 0,201.44393 0,-4.577 m 16.64767,4.577 0,-4.577"
       inkscape:connector-curvature="0" />
    <path
       id="path7358"
       style="fill:none;stroke:#000000;stroke-width:0.80124998;stroke-linecap:round;stroke-linejoin:miter;stroke-miterlimit:10;stroke-opacity:1;stroke-dasharray:none"
       d="m 391.87614,992.21487 0,-9.5728"
       inkscape:connector-curvature="0" />
    <path
       id="path7360"
       style="fill:none;stroke:#000000;stroke-width:0.26750001;stroke-linecap:round;stroke-linejoin:miter;stroke-miterlimit:10;stroke-opacity:1;stroke-dasharray:none"
       d="m 391.87614,982.64207 0,-196.86693 m 0,201.44393 0,-4.577"
       inkscape:connector-curvature="0" />
    <path
       id="path7362"
       style="fill:none;stroke:#000000;stroke-width:0.80124998;stroke-linecap:round;stroke-linejoin:miter;stroke-miterlimit:10;stroke-opacity:1;stroke-dasharray:none"
       d="m 96.785193,982.64207 0,-196.86693"
       inkscape:connector-curvature="0" />
    <path
       id="path7364"
       style="fill:none;stroke:#000000;stroke-width:0.80124998;stroke-linecap:round;stroke-linejoin:miter;stroke-miterlimit:10;stroke-opacity:1;stroke-dasharray:none"
       d="m 87.212389,982.64207 9.572804,0"
       inkscape:connector-curvature="0" />
    <path
       id="path7366"
       style="fill:none;stroke:#000000;stroke-width:0.26750001;stroke-linecap:round;stroke-linejoin:miter;stroke-miterlimit:10;stroke-opacity:1;stroke-dasharray:none"
       d="m 91.791283,982.64207 4.99391,0 m -4.99391,-14.15168 4.99391,0"
       inkscape:connector-curvature="0" />
    <path
       id="path7368"
       style="fill:none;stroke:#000000;stroke-width:0.80124998;stroke-linecap:round;stroke-linejoin:miter;stroke-miterlimit:10;stroke-opacity:1;stroke-dasharray:none"
       d="m 87.212389,954.3387 9.572804,0"
       inkscape:connector-curvature="0" />
    <path
       id="path7370"
       style="fill:none;stroke:#000000;stroke-width:0.26750001;stroke-linecap:round;stroke-linejoin:miter;stroke-miterlimit:10;stroke-opacity:1;stroke-dasharray:none"
       d="m 96.785193,954.3387 295.090947,0 m -300.084857,0 4.99391,0 m -4.99391,-14.14975 4.99391,0"
       inkscape:connector-curvature="0" />
    <path
       id="path7372"
       style="fill:none;stroke:#000000;stroke-width:0.80124998;stroke-linecap:round;stroke-linejoin:miter;stroke-miterlimit:10;stroke-opacity:1;stroke-dasharray:none"
       d="m 87.212389,926.45228 9.572804,0"
       inkscape:connector-curvature="0" />
    <path
       id="path7374"
       style="fill:none;stroke:#000000;stroke-width:0.26750001;stroke-linecap:round;stroke-linejoin:miter;stroke-miterlimit:10;stroke-opacity:1;stroke-dasharray:none"
       d="m 96.785193,926.45228 295.090947,0 m -300.084857,0 4.99391,0 m -4.99391,-14.14974 4.99391,0"
       inkscape:connector-curvature="0" />
    <path
       id="path7376"
       style="fill:none;stroke:#000000;stroke-width:0.80124998;stroke-linecap:round;stroke-linejoin:miter;stroke-miterlimit:10;stroke-opacity:1;stroke-dasharray:none"
       d="m 87.212389,898.15084 9.572804,0"
       inkscape:connector-curvature="0" />
    <path
       id="path7378"
       style="fill:none;stroke:#000000;stroke-width:0.26750001;stroke-linecap:round;stroke-linejoin:miter;stroke-miterlimit:10;stroke-opacity:1;stroke-dasharray:none"
       d="m 96.785193,898.15084 295.090947,0 m -300.084857,0 4.99391,0 m -4.99391,-14.15169 4.99391,0"
       inkscape:connector-curvature="0" />
    <path
       id="path7380"
       style="fill:none;stroke:#000000;stroke-width:0.80124998;stroke-linecap:round;stroke-linejoin:miter;stroke-miterlimit:10;stroke-opacity:1;stroke-dasharray:none"
       d="m 87.212389,870.26443 9.572804,0"
       inkscape:connector-curvature="0" />
    <path
       id="path7382"
       style="fill:none;stroke:#000000;stroke-width:0.26750001;stroke-linecap:round;stroke-linejoin:miter;stroke-miterlimit:10;stroke-opacity:1;stroke-dasharray:none"
       d="m 96.785193,870.26443 295.090947,0 m -300.084857,0 4.99391,0 m -4.99391,-14.14975 4.99391,0"
       inkscape:connector-curvature="0" />
    <path
       id="path7384"
       style="fill:none;stroke:#000000;stroke-width:0.80124998;stroke-linecap:round;stroke-linejoin:miter;stroke-miterlimit:10;stroke-opacity:1;stroke-dasharray:none"
       d="m 87.212389,841.96299 9.572804,0"
       inkscape:connector-curvature="0" />
    <path
       id="path7386"
       style="fill:none;stroke:#000000;stroke-width:0.26750001;stroke-linecap:round;stroke-linejoin:miter;stroke-miterlimit:10;stroke-opacity:1;stroke-dasharray:none"
       d="m 96.785193,841.96299 295.090947,0 m -300.084857,0 4.99391,0 m -4.99391,-14.15169 4.99391,0"
       inkscape:connector-curvature="0" />
    <path
       id="path7388"
       style="fill:none;stroke:#000000;stroke-width:0.80124998;stroke-linecap:round;stroke-linejoin:miter;stroke-miterlimit:10;stroke-opacity:1;stroke-dasharray:none"
       d="m 87.212389,814.07657 9.572804,0"
       inkscape:connector-curvature="0" />
    <path
       id="path7390"
       style="fill:none;stroke:#000000;stroke-width:0.26750001;stroke-linecap:round;stroke-linejoin:miter;stroke-miterlimit:10;stroke-opacity:1;stroke-dasharray:none"
       d="m 96.785193,814.07657 295.090947,0 m -300.084857,0 4.99391,0 m -4.99391,-14.15169 4.99391,0"
       inkscape:connector-curvature="0" />
    <path
       id="path7392"
       style="fill:none;stroke:#000000;stroke-width:0.80124998;stroke-linecap:round;stroke-linejoin:miter;stroke-miterlimit:10;stroke-opacity:1;stroke-dasharray:none"
       d="m 87.212389,785.77514 9.572804,0"
       inkscape:connector-curvature="0" />
    <path
       id="path7394"
       style="fill:none;stroke:#000000;stroke-width:0.26750001;stroke-linecap:round;stroke-linejoin:miter;stroke-miterlimit:10;stroke-opacity:1;stroke-dasharray:none"
       d="m 96.785193,785.77514 295.090947,0 m -300.084857,0 4.99391,0"
       inkscape:connector-curvature="0" />
    <path
       id="path7396"
       style="fill:none;stroke:#000000;stroke-width:0.80124998;stroke-linecap:round;stroke-linejoin:miter;stroke-miterlimit:10;stroke-opacity:1;stroke-dasharray:none"
       d="m 57.661992,982.64207 0,-196.86693"
       inkscape:connector-curvature="0" />
    <path
       id="path7398"
       style="fill:none;stroke:#000000;stroke-width:0.80124998;stroke-linecap:round;stroke-linejoin:miter;stroke-miterlimit:10;stroke-opacity:1;stroke-dasharray:none"
       d="m 47.672218,982.64207 9.989774,0"
       inkscape:connector-curvature="0" />
    <path
       id="path7400"
       style="fill:none;stroke:#000000;stroke-width:0.26750001;stroke-linecap:round;stroke-linejoin:miter;stroke-miterlimit:10;stroke-opacity:1;stroke-dasharray:none"
       d="m 52.666131,982.64207 4.995861,0 m -4.995861,-7.4918 4.995861,0 m -4.995861,-7.07685 4.995861,0 m -4.995861,-7.07488 4.995861,0"
       inkscape:connector-curvature="0" />
    <path
       id="path7402"
       style="fill:none;stroke:#000000;stroke-width:0.80124998;stroke-linecap:round;stroke-linejoin:miter;stroke-miterlimit:10;stroke-opacity:1;stroke-dasharray:none"
       d="m 47.672218,953.92367 9.989774,0"
       inkscape:connector-curvature="0" />
    <path
       id="path7404"
       style="fill:none;stroke:#000000;stroke-width:0.26750001;stroke-linecap:round;stroke-linejoin:miter;stroke-miterlimit:10;stroke-opacity:1;stroke-dasharray:none"
       d="m 52.666131,953.92367 4.995861,0 m -4.995861,-7.07682 4.995861,0 m -4.995861,-7.49184 4.995861,0 m -4.995861,-7.07487 4.995861,0"
       inkscape:connector-curvature="0" />
    <path
       id="path7406"
       style="fill:none;stroke:#000000;stroke-width:0.80124998;stroke-linecap:round;stroke-linejoin:miter;stroke-miterlimit:10;stroke-opacity:1;stroke-dasharray:none"
       d="m 47.672218,925.20526 9.989774,0"
       inkscape:connector-curvature="0" />
    <path
       id="path7408"
       style="fill:none;stroke:#000000;stroke-width:0.26750001;stroke-linecap:round;stroke-linejoin:miter;stroke-miterlimit:10;stroke-opacity:1;stroke-dasharray:none"
       d="m 52.666131,925.20526 4.995861,0 m -4.995861,-7.07682 4.995861,0 m -4.995861,-7.07487 4.995861,0 m -4.995861,-7.49184 4.995861,0"
       inkscape:connector-curvature="0" />
    <path
       id="path7410"
       style="fill:none;stroke:#000000;stroke-width:0.80124998;stroke-linecap:round;stroke-linejoin:miter;stroke-miterlimit:10;stroke-opacity:1;stroke-dasharray:none"
       d="m 47.672218,896.48685 9.989774,0"
       inkscape:connector-curvature="0" />
    <path
       id="path7412"
       style="fill:none;stroke:#000000;stroke-width:0.26750001;stroke-linecap:round;stroke-linejoin:miter;stroke-miterlimit:10;stroke-opacity:1;stroke-dasharray:none"
       d="m 52.666131,896.48685 4.995861,0 m -4.995861,-7.07682 4.995861,0 m -4.995861,-7.07487 4.995861,0 m -4.995861,-7.49184 4.995861,0"
       inkscape:connector-curvature="0" />
    <path
       id="path7414"
       style="fill:none;stroke:#000000;stroke-width:0.80124998;stroke-linecap:round;stroke-linejoin:miter;stroke-miterlimit:10;stroke-opacity:1;stroke-dasharray:none"
       d="m 47.672218,867.76845 9.989774,0"
       inkscape:connector-curvature="0" />
    <path
       id="path7416"
       style="fill:none;stroke:#000000;stroke-width:0.26750001;stroke-linecap:round;stroke-linejoin:miter;stroke-miterlimit:10;stroke-opacity:1;stroke-dasharray:none"
       d="m 52.666131,867.76845 4.995861,0 m -4.995861,-7.07683 4.995861,0 m -4.995861,-7.07487 4.995861,0 m -4.995861,-7.07487 4.995861,0"
       inkscape:connector-curvature="0" />
    <path
       id="path7418"
       style="fill:none;stroke:#000000;stroke-width:0.80124998;stroke-linecap:round;stroke-linejoin:miter;stroke-miterlimit:10;stroke-opacity:1;stroke-dasharray:none"
       d="m 47.672218,839.05004 9.989774,0"
       inkscape:connector-curvature="0" />
    <path
       id="path7420"
       style="fill:none;stroke:#000000;stroke-width:0.26750001;stroke-linecap:round;stroke-linejoin:miter;stroke-miterlimit:10;stroke-opacity:1;stroke-dasharray:none"
       d="m 52.666131,839.05004 4.995861,0 m -4.995861,-7.07682 4.995861,0 m -4.995861,-7.07488 4.995861,0 m -4.995861,-7.07487 4.995861,0"
       inkscape:connector-curvature="0" />
    <path
       id="path7422"
       style="fill:none;stroke:#000000;stroke-width:0.80124998;stroke-linecap:round;stroke-linejoin:miter;stroke-miterlimit:10;stroke-opacity:1;stroke-dasharray:none"
       d="m 47.672218,810.74665 9.989774,0"
       inkscape:connector-curvature="0" />
    <path
       id="path7424"
       style="fill:none;stroke:#000000;stroke-width:0.26750001;stroke-linecap:round;stroke-linejoin:miter;stroke-miterlimit:10;stroke-opacity:1;stroke-dasharray:none"
       d="m 52.666131,810.74665 4.995861,0 m -4.995861,-7.49184 4.995861,0 m -4.995861,-7.07488 4.995861,0 m -4.995861,-7.07487 4.995861,0"
       inkscape:connector-curvature="0" />
    <path
       id="path7426"
       style="fill:none;stroke:#000000;stroke-width:0.80124998;stroke-linecap:round;stroke-linejoin:miter;stroke-miterlimit:10;stroke-opacity:1;stroke-dasharray:none"
       d="m 96.785193,1021.7653 295.090947,0"
       inkscape:connector-curvature="0" />
    <path
       id="path7428"
       style="fill:none;stroke:#000000;stroke-width:0.80124998;stroke-linecap:round;stroke-linejoin:miter;stroke-miterlimit:10;stroke-opacity:1;stroke-dasharray:none"
       d="m 96.785193,1031.7531 0,-9.9878"
       inkscape:connector-curvature="0" />
    <path
       id="path7430"
       style="fill:none;stroke:#000000;stroke-width:0.26750001;stroke-linecap:round;stroke-linejoin:miter;stroke-miterlimit:10;stroke-opacity:1;stroke-dasharray:none"
       d="m 96.785193,1026.7592 0,-4.9939 m 12.068777,4.9939 0,-4.9939 m 11.65572,4.9939 0,-4.9939 m 11.65376,4.9939 0,-4.9939"
       inkscape:connector-curvature="0" />
    <path
       id="path7432"
       style="fill:none;stroke:#000000;stroke-width:0.80124998;stroke-linecap:round;stroke-linejoin:miter;stroke-miterlimit:10;stroke-opacity:1;stroke-dasharray:none"
       d="m 144.23223,1031.7531 0,-9.9878"
       inkscape:connector-curvature="0" />
    <path
       id="path7434"
       style="fill:none;stroke:#000000;stroke-width:0.26750001;stroke-linecap:round;stroke-linejoin:miter;stroke-miterlimit:10;stroke-opacity:1;stroke-dasharray:none"
       d="m 144.23223,1026.7592 0,-4.9939 m 11.65376,4.9939 0,-4.9939 m 11.65377,4.9939 0,-4.9939 m 12.07073,4.9939 0,-4.9939 m 11.65376,4.9939 0,-4.9939"
       inkscape:connector-curvature="0" />
    <path
       id="path7436"
       style="fill:none;stroke:#000000;stroke-width:0.80124998;stroke-linecap:round;stroke-linejoin:miter;stroke-miterlimit:10;stroke-opacity:1;stroke-dasharray:none"
       d="m 191.26425,1031.7531 0,-9.9878"
       inkscape:connector-curvature="0" />
    <path
       id="path7438"
       style="fill:none;stroke:#000000;stroke-width:0.26750001;stroke-linecap:round;stroke-linejoin:miter;stroke-miterlimit:10;stroke-opacity:1;stroke-dasharray:none"
       d="m 202.91801,1026.7592 0,-4.9939 m 12.07074,4.9939 0,-4.9939 m 11.65376,4.9939 0,-4.9939 m 11.65376,4.9939 0,-4.9939"
       inkscape:connector-curvature="0" />
    <path
       id="path7440"
       style="fill:none;stroke:#000000;stroke-width:0.80124998;stroke-linecap:round;stroke-linejoin:miter;stroke-miterlimit:10;stroke-opacity:1;stroke-dasharray:none"
       d="m 238.29627,1031.7531 0,-9.9878"
       inkscape:connector-curvature="0" />
    <path
       id="path7442"
       style="fill:none;stroke:#000000;stroke-width:0.26750001;stroke-linecap:round;stroke-linejoin:miter;stroke-miterlimit:10;stroke-opacity:1;stroke-dasharray:none"
       d="m 250.36506,1026.7592 0,-4.9939 m 11.65376,4.9939 0,-4.9939 m 11.65376,4.9939 0,-4.9939"
       inkscape:connector-curvature="0" />
    <path
       id="path7444"
       style="fill:none;stroke:#000000;stroke-width:0.80124998;stroke-linecap:round;stroke-linejoin:miter;stroke-miterlimit:10;stroke-opacity:1;stroke-dasharray:none"
       d="m 285.74332,1031.7531 0,-9.9878"
       inkscape:connector-curvature="0" />
    <path
       id="path7446"
       style="fill:none;stroke:#000000;stroke-width:0.26750001;stroke-linecap:round;stroke-linejoin:miter;stroke-miterlimit:10;stroke-opacity:1;stroke-dasharray:none"
       d="m 285.74332,1026.7592 0,-4.9939 m 11.65376,4.9939 0,-4.9939 m 11.65376,4.9939 0,-4.9939 m 12.07074,4.9939 0,-4.9939"
       inkscape:connector-curvature="0" />
    <path
       id="path7448"
       style="fill:none;stroke:#000000;stroke-width:0.80124998;stroke-linecap:round;stroke-linejoin:miter;stroke-miterlimit:10;stroke-opacity:1;stroke-dasharray:none"
       d="m 332.77534,1031.7531 0,-9.9878"
       inkscape:connector-curvature="0" />
    <path
       id="path7450"
       style="fill:none;stroke:#000000;stroke-width:0.26750001;stroke-linecap:round;stroke-linejoin:miter;stroke-miterlimit:10;stroke-opacity:1;stroke-dasharray:none"
       d="m 332.77534,1026.7592 0,-4.9939 m 11.65376,4.9939 0,-4.9939 m 12.06879,4.9939 0,-4.9939 m 11.65376,4.9939 0,-4.9939"
       inkscape:connector-curvature="0" />
    <path
       id="path7452"
       style="fill:none;stroke:#000000;stroke-width:0.80124998;stroke-linecap:round;stroke-linejoin:miter;stroke-miterlimit:10;stroke-opacity:1;stroke-dasharray:none"
       d="m 380.22238,1031.7531 0,-9.9878"
       inkscape:connector-curvature="0" />
    <path
       id="path7454"
       style="fill:none;stroke:#000000;stroke-width:0.26750001;stroke-linecap:round;stroke-linejoin:miter;stroke-miterlimit:10;stroke-opacity:1;stroke-dasharray:none"
       d="m 380.22238,1026.7592 0,-4.9939 m 11.65376,4.9939 0,-4.9939"
       inkscape:connector-curvature="0" />
    <path
       id="path7456"
       style="fill:none;stroke:#000000;stroke-width:0.80124998;stroke-linecap:round;stroke-linejoin:miter;stroke-miterlimit:10;stroke-opacity:1;stroke-dasharray:none"
       d="m 96.785193,982.64207 295.090947,0"
       inkscape:connector-curvature="0" />
    <path
       id="path7458"
       style="fill:none;stroke:#000000;stroke-width:0.80124998;stroke-linecap:round;stroke-linejoin:miter;stroke-miterlimit:10;stroke-opacity:1;stroke-dasharray:none"
       d="m 96.785193,785.77514 295.090947,0"
       inkscape:connector-curvature="0" />
    <path
       id="path7460"
       style="fill:none;stroke:#000000;stroke-width:0.80124998;stroke-linecap:round;stroke-linejoin:miter;stroke-miterlimit:10;stroke-opacity:1;stroke-dasharray:none"
       d="m 96.785193,982.64207 0,-196.86693"
       inkscape:connector-curvature="0" />
    <path
       id="path7462"
       style="fill:none;stroke:#000000;stroke-width:0.80124998;stroke-linecap:round;stroke-linejoin:miter;stroke-miterlimit:10;stroke-opacity:1;stroke-dasharray:none"
       d="m 391.87614,982.64207 0,-196.86693"
       inkscape:connector-curvature="0" />
    <path
       id="path7464"
       style="fill:none;stroke:#000000;stroke-width:0.53375;stroke-linecap:round;stroke-linejoin:miter;stroke-miterlimit:10;stroke-opacity:1;stroke-dasharray:none"
       d="m 96.785193,883.58413 c 5.952557,6.78844 12.201277,13.27098 18.313607,19.9776"
       inkscape:connector-curvature="0" />
    <path
       id="path7466"
       style="fill:none;stroke:#000000;stroke-width:1.33499992;stroke-linecap:round;stroke-linejoin:miter;stroke-miterlimit:10;stroke-opacity:1;stroke-dasharray:none"
       d="m 115.0988,903.56173 c 10.33465,10.60159 20.27961,21.62405 31.63136,31.21634 6.19612,5.73822 12.39028,10.7711 18.72864,16.2307 6.12012,3.96707 13.57105,9.49681 19.9776,12.48771"
       inkscape:connector-curvature="0" />
    <path
       id="path7468"
       style="fill:none;stroke:#000000;stroke-width:0.53375;stroke-linecap:round;stroke-linejoin:miter;stroke-miterlimit:10;stroke-opacity:1;stroke-dasharray:none"
       d="m 185.4364,963.49648 c 6.39096,4.48731 20.53681,9.31759 28.30338,9.98779"
       inkscape:connector-curvature="0" />
    <path
       id="path7470"
       style="fill:none;stroke:#000000;stroke-width:0.53375;stroke-linecap:round;stroke-linejoin:miter;stroke-miterlimit:10;stroke-opacity:1;stroke-dasharray:none"
       d="m 96.785193,833.63915 4.578887,1.66399 4.57694,2.08096 4.16192,2.49793 4.16192,2.08096 4.16192,2.91295 2.08291,0.832"
       inkscape:connector-curvature="0" />
    <path
       id="path7472"
       style="fill:none;stroke:#000000;stroke-width:1.33499992;stroke-linecap:round;stroke-linejoin:miter;stroke-miterlimit:10;stroke-opacity:1;stroke-dasharray:none"
       d="m 120.50969,845.70794 c 21.626,14.84924 40.47738,33.24274 59.1008,51.61091 9.37211,9.1266 18.55327,18.28438 28.30144,27.05247 11.33811,10.43013 20.31663,18.79488 33.2973,27.47139"
       inkscape:connector-curvature="0" />
    <path
       id="path7474"
       style="fill:none;stroke:#000000;stroke-width:0.53375;stroke-linecap:round;stroke-linejoin:miter;stroke-miterlimit:10;stroke-opacity:1;stroke-dasharray:none"
       d="m 241.20923,951.84271 4.16192,2.91296 12.48575,7.49184 9.15778,4.16192 0.41503,0"
       inkscape:connector-curvature="0" />
    <path
       id="path7476"
       style="fill:none;stroke:#000000;stroke-width:0.53375;stroke-linecap:round;stroke-linejoin:miter;stroke-miterlimit:10;stroke-opacity:1;stroke-dasharray:none"
       d="m 96.785193,812.82761 c 9.652687,1.45161 16.534657,1.86858 26.220477,4.57889"
       inkscape:connector-curvature="0" />
    <path
       id="path7478"
       style="fill:none;stroke:#000000;stroke-width:1.33499992;stroke-linecap:round;stroke-linejoin:miter;stroke-miterlimit:10;stroke-opacity:1;stroke-dasharray:none"
       d="m 123.00567,817.4065 c 35.36267,9.38965 66.74073,26.3822 96.97699,46.61505 15.16879,9.54552 29.7433,20.07892 44.11712,30.79937 8.21862,5.5843 15.72605,12.02981 23.7245,17.89664 7.56588,5.44206 14.70116,11.37708 22.05856,17.06465"
       inkscape:connector-curvature="0" />
    <path
       id="path7480"
       style="fill:none;stroke:#000000;stroke-width:0.53375;stroke-linecap:round;stroke-linejoin:miter;stroke-miterlimit:10;stroke-opacity:1;stroke-dasharray:none"
       d="m 309.88284,929.78221 3.74689,2.9149 4.16192,2.91295 3.74495,2.91295 4.16192,2.91296 3.74689,3.32992 3.74495,2.91296 4.16192,2.9149"
       inkscape:connector-curvature="0" />
    <path
       id="path7484"
       style="fill:#ffffff;fill-opacity:1;fill-rule:nonzero;stroke:none"
       d="m 90.125343,1008.4456 13.734917,0 0,-11.23783 -13.734917,0 0,11.23783 z"
       inkscape:connector-curvature="0" />
    <text
       style="font-size:23.381567px"
       y="1005.9491"
       x="90.125549"
       id="text7486">
      <tspan
         id="tspan7488"
         sodipodi:role="line"
         y="1005.9491"
         x="90.125549 95.6045 98.306519"
         style="font-size:9.9889946px;font-variant:normal;font-weight:normal;writing-mode:lr-tb;fill:#000000;fill-opacity:1;fill-rule:nonzero;stroke:none;font-family:Helvetica;-inkscape-font-specification:Helvetica">0.0</tspan>
    </text>
    <path
       id="path7490"
       style="fill:#ffffff;fill-opacity:1;fill-rule:nonzero;stroke:none"
       d="m 123.00567,1008.4456 13.73492,0 0,-11.23783 -13.73492,0 0,11.23783 z"
       inkscape:connector-curvature="0" />
    <text
       style="font-size:23.381567px"
       y="1005.9491"
       x="123.00607"
       id="text7492">
      <tspan
         id="tspan7494"
         sodipodi:role="line"
         y="1005.9491"
         x="123.00607 128.48502 131.18707"
         style="font-size:9.9889946px;font-variant:normal;font-weight:normal;writing-mode:lr-tb;fill:#000000;fill-opacity:1;fill-rule:nonzero;stroke:none;font-family:Helvetica;-inkscape-font-specification:Helvetica">0.5</tspan>
    </text>
    <path
       id="path7496"
       style="fill:#ffffff;fill-opacity:1;fill-rule:nonzero;stroke:none"
       d="m 155.88599,1008.4456 13.73493,0 0,-11.23783 -13.73493,0 0,11.23783 z"
       inkscape:connector-curvature="0" />
    <text
       style="font-size:23.381567px"
       y="1005.9491"
       x="155.8864"
       id="text7498">
      <tspan
         id="tspan7500"
         sodipodi:role="line"
         y="1005.9491"
         x="155.8864 161.36534 164.0674"
         style="font-size:9.9889946px;font-variant:normal;font-weight:normal;writing-mode:lr-tb;fill:#000000;fill-opacity:1;fill-rule:nonzero;stroke:none;font-family:Helvetica;-inkscape-font-specification:Helvetica">1.0</tspan>
    </text>
    <path
       id="path7502"
       style="fill:#ffffff;fill-opacity:1;fill-rule:nonzero;stroke:none"
       d="m 188.3513,1008.4456 13.73492,0 0,-11.23783 -13.73492,0 0,11.23783 z"
       inkscape:connector-curvature="0" />
    <text
       style="font-size:23.381567px"
       y="1005.9491"
       x="188.35052"
       id="text7504">
      <tspan
         id="tspan7506"
         sodipodi:role="line"
         y="1005.9491"
         x="188.35052 193.8295 196.53152"
         style="font-size:9.9889946px;font-variant:normal;font-weight:normal;writing-mode:lr-tb;fill:#000000;fill-opacity:1;fill-rule:nonzero;stroke:none;font-family:Helvetica;-inkscape-font-specification:Helvetica">1.5</tspan>
    </text>
    <path
       id="path7508"
       style="fill:#ffffff;fill-opacity:1;fill-rule:nonzero;stroke:none"
       d="m 221.23163,1008.4456 13.73492,0 0,-11.23783 -13.73492,0 0,11.23783 z"
       inkscape:connector-curvature="0" />
    <text
       style="font-size:23.381567px"
       y="1005.9491"
       x="221.23108"
       id="text7510">
      <tspan
         id="tspan7512"
         sodipodi:role="line"
         y="1005.9491"
         x="221.23108 226.71004 229.41205"
         style="font-size:9.9889946px;font-variant:normal;font-weight:normal;writing-mode:lr-tb;fill:#000000;fill-opacity:1;fill-rule:nonzero;stroke:none;font-family:Helvetica;-inkscape-font-specification:Helvetica">2.0</tspan>
    </text>
    <path
       id="path7514"
       style="fill:#ffffff;fill-opacity:1;fill-rule:nonzero;stroke:none"
       d="m 254.11195,1008.4456 13.73493,0 0,-11.23783 -13.73493,0 0,11.23783 z"
       inkscape:connector-curvature="0" />
    <text
       style="font-size:23.381567px"
       y="1005.9491"
       x="254.1114"
       id="text7516">
      <tspan
         id="tspan7518"
         sodipodi:role="line"
         y="1005.9491"
         x="254.1114 259.59036 262.29239"
         style="font-size:9.9889946px;font-variant:normal;font-weight:normal;writing-mode:lr-tb;fill:#000000;fill-opacity:1;fill-rule:nonzero;stroke:none;font-family:Helvetica;-inkscape-font-specification:Helvetica">2.5</tspan>
    </text>
    <path
       id="path7520"
       style="fill:#ffffff;fill-opacity:1;fill-rule:nonzero;stroke:none"
       d="m 286.99228,1008.4456 13.73493,0 0,-11.23783 -13.73493,0 0,11.23783 z"
       inkscape:connector-curvature="0" />
    <text
       style="font-size:23.381567px"
       y="1005.9491"
       x="286.99194"
       id="text7522">
      <tspan
         id="tspan7524"
         sodipodi:role="line"
         y="1005.9491"
         x="286.99194 292.47089 295.17291"
         style="font-size:9.9889946px;font-variant:normal;font-weight:normal;writing-mode:lr-tb;fill:#000000;fill-opacity:1;fill-rule:nonzero;stroke:none;font-family:Helvetica;-inkscape-font-specification:Helvetica">3.0</tspan>
    </text>
    <path
       id="path7526"
       style="fill:#ffffff;fill-opacity:1;fill-rule:nonzero;stroke:none"
       d="m 319.45564,1008.4456 13.73492,0 0,-11.23783 -13.73492,0 0,11.23783 z"
       inkscape:connector-curvature="0" />
    <text
       style="font-size:23.381567px"
       y="1005.9491"
       x="319.45605"
       id="text7528">
      <tspan
         id="tspan7530"
         sodipodi:role="line"
         y="1005.9491"
         x="319.45605 324.935 327.63702"
         style="font-size:9.9889946px;font-variant:normal;font-weight:normal;writing-mode:lr-tb;fill:#000000;fill-opacity:1;fill-rule:nonzero;stroke:none;font-family:Helvetica;-inkscape-font-specification:Helvetica">3.5</tspan>
    </text>
    <path
       id="path7532"
       style="fill:#ffffff;fill-opacity:1;fill-rule:nonzero;stroke:none"
       d="m 351.92094,1008.4456 39.9552,0 0,-11.23783 -39.9552,0 0,11.23783 z"
       inkscape:connector-curvature="0" />
    <path
       id="path7538"
       style="fill:#ffffff;fill-opacity:1;fill-rule:nonzero;stroke:none"
       d="m 76.807599,988.46797 5.410691,0 0,-11.2378 -5.410691,0 0,11.2378 z"
       inkscape:connector-curvature="0" />
    <text
       style="font-size:23.381567px"
       y="985.97113"
       x="76.806816"
       id="text7540">
      <tspan
         id="tspan7542"
         y="985.97113"
         x="76.806816"
         style="font-size:9.9889946px;font-variant:normal;font-weight:normal;writing-mode:lr-tb;fill:#000000;fill-opacity:1;fill-rule:nonzero;stroke:none;font-family:Helvetica;-inkscape-font-specification:Helvetica">0</tspan>
    </text>
    <path
       id="path7544"
       style="fill:#ffffff;fill-opacity:1;fill-rule:nonzero;stroke:none"
       d="m 76.807599,960.16655 5.410691,0 0,-11.23778 -5.410691,0 0,11.23778 z"
       inkscape:connector-curvature="0" />
    <text
       style="font-size:23.381567px"
       y="957.66895"
       x="76.806816"
       id="text7546">
      <tspan
         id="tspan7548"
         y="957.66895"
         x="76.806816"
         style="font-size:9.9889946px;font-variant:normal;font-weight:normal;writing-mode:lr-tb;fill:#000000;fill-opacity:1;fill-rule:nonzero;stroke:none;font-family:Helvetica;-inkscape-font-specification:Helvetica">2</tspan>
    </text>
    <path
       id="path7550"
       style="fill:#ffffff;fill-opacity:1;fill-rule:nonzero;stroke:none"
       d="m 76.807599,932.28013 5.410691,0 0,-11.23777 -5.410691,0 0,11.23777 z"
       inkscape:connector-curvature="0" />
    <text
       style="font-size:23.381567px"
       y="929.78308"
       x="76.806816"
       id="text7552">
      <tspan
         id="tspan7554"
         y="929.78308"
         x="76.806816"
         style="font-size:9.9889946px;font-variant:normal;font-weight:normal;writing-mode:lr-tb;fill:#000000;fill-opacity:1;fill-rule:nonzero;stroke:none;font-family:Helvetica;-inkscape-font-specification:Helvetica">4</tspan>
    </text>
    <path
       id="path7556"
       style="fill:#ffffff;fill-opacity:1;fill-rule:nonzero;stroke:none"
       d="m 76.807599,903.97869 5.410691,0 0,-11.23777 -5.410691,0 0,11.23777 z"
       inkscape:connector-curvature="0" />
    <text
       style="font-size:23.381567px"
       y="901.48083"
       x="76.806816"
       id="text7558">
      <tspan
         id="tspan7560"
         y="901.48083"
         x="76.806816"
         style="font-size:9.9889946px;font-variant:normal;font-weight:normal;writing-mode:lr-tb;fill:#000000;fill-opacity:1;fill-rule:nonzero;stroke:none;font-family:Helvetica;-inkscape-font-specification:Helvetica">6</tspan>
    </text>
    <path
       id="path7562"
       style="fill:#ffffff;fill-opacity:1;fill-rule:nonzero;stroke:none"
       d="m 76.807599,876.09228 5.410691,0 0,-11.23778 -5.410691,0 0,11.23778 z"
       inkscape:connector-curvature="0" />
    <text
       style="font-size:23.381567px"
       y="873.59479"
       x="76.806816"
       id="text7564">
      <tspan
         id="tspan7566"
         y="873.59479"
         x="76.806816"
         style="font-size:9.9889946px;font-variant:normal;font-weight:normal;writing-mode:lr-tb;fill:#000000;fill-opacity:1;fill-rule:nonzero;stroke:none;font-family:Helvetica;-inkscape-font-specification:Helvetica">8</tspan>
    </text>
    <path
       id="path7568"
       style="fill:#ffffff;fill-opacity:1;fill-rule:nonzero;stroke:none"
       d="m 71.396715,847.78889 10.821372,0 0,-11.23777 -10.821372,0 0,11.23777 z"
       inkscape:connector-curvature="0" />
    <text
       style="font-size:23.381567px"
       y="845.2926"
       x="71.396133"
       id="text7570">
      <tspan
         id="tspan7572"
         sodipodi:role="line"
         y="845.2926"
         x="71.396133 76.66333"
         style="font-size:9.9889946px;font-variant:normal;font-weight:normal;writing-mode:lr-tb;fill:#000000;fill-opacity:1;fill-rule:nonzero;stroke:none;font-family:Helvetica;-inkscape-font-specification:Helvetica">10</tspan>
    </text>
    <path
       id="path7574"
       style="fill:#ffffff;fill-opacity:1;fill-rule:nonzero;stroke:none"
       d="m 71.396715,819.90442 10.821372,0 0,-11.23777 -10.821372,0 0,11.23777 z"
       inkscape:connector-curvature="0" />
    <text
       style="font-size:23.381567px"
       y="817.40656"
       x="71.396133"
       id="text7576">
      <tspan
         id="tspan7578"
         sodipodi:role="line"
         y="817.40656"
         x="71.396133 76.66333"
         style="font-size:9.9889946px;font-variant:normal;font-weight:normal;writing-mode:lr-tb;fill:#000000;fill-opacity:1;fill-rule:nonzero;stroke:none;font-family:Helvetica;-inkscape-font-specification:Helvetica">12</tspan>
    </text>
    <path
       id="path7580"
       style="fill:#ffffff;fill-opacity:1;fill-rule:nonzero;stroke:none"
       d="m 68.898784,782.44521 7.075457,0 0,-11.23778 -7.075457,0 0,11.23778 z"
       inkscape:connector-curvature="0" />
    <path
       id="path7586"
       style="fill:#ffffff;fill-opacity:1;fill-rule:nonzero;stroke:none"
       d="m 65.153836,797.01192 14.151109,0 0,-11.23777 -14.151109,0 0,11.23777 z"
       inkscape:connector-curvature="0" />
    <path
       id="path7592"
       style="fill:#ffffff;fill-opacity:1;fill-rule:nonzero;stroke:none"
       d="m 37.267421,988.46797 5.41069,0 0,-11.2378 -5.41069,0 0,11.2378 z"
       inkscape:connector-curvature="0" />
    <text
       style="font-size:23.381567px"
       y="985.97113"
       x="37.267223"
       id="text7594">
      <tspan
         id="tspan7596"
         y="985.97113"
         x="37.267223"
         style="font-size:9.9889946px;font-variant:normal;font-weight:normal;writing-mode:lr-tb;fill:#000000;fill-opacity:1;fill-rule:nonzero;stroke:none;font-family:Helvetica;-inkscape-font-specification:Helvetica">0</tspan>
    </text>
    <path
       id="path7598"
       style="fill:#ffffff;fill-opacity:1;fill-rule:nonzero;stroke:none"
       d="m 31.856537,959.74957 10.821379,0 0,-11.23757 -10.821379,0 0,11.23757 z"
       inkscape:connector-curvature="0" />
    <text
       style="font-size:23.381567px"
       y="957.2525"
       x="31.856539"
       id="text7600">
      <tspan
         id="tspan7602"
         sodipodi:role="line"
         y="957.2525"
         x="31.856539 37.123737"
         style="font-size:9.9889946px;font-variant:normal;font-weight:normal;writing-mode:lr-tb;fill:#000000;fill-opacity:1;fill-rule:nonzero;stroke:none;font-family:Helvetica;-inkscape-font-specification:Helvetica">20</tspan>
    </text>
    <path
       id="path7604"
       style="fill:#ffffff;fill-opacity:1;fill-rule:nonzero;stroke:none"
       d="m 31.856537,931.03116 10.821379,0 0,-11.23757 -10.821379,0 0,11.23757 z"
       inkscape:connector-curvature="0" />
    <text
       style="font-size:23.381567px"
       y="928.53424"
       x="31.856539"
       id="text7606">
      <tspan
         id="tspan7608"
         sodipodi:role="line"
         y="928.53424"
         x="31.856539 37.123737"
         style="font-size:9.9889946px;font-variant:normal;font-weight:normal;writing-mode:lr-tb;fill:#000000;fill-opacity:1;fill-rule:nonzero;stroke:none;font-family:Helvetica;-inkscape-font-specification:Helvetica">40</tspan>
    </text>
    <path
       id="path7610"
       style="fill:#ffffff;fill-opacity:1;fill-rule:nonzero;stroke:none"
       d="m 31.856537,902.31276 10.821379,0 0,-11.23757 -10.821379,0 0,11.23757 z"
       inkscape:connector-curvature="0" />
    <text
       style="font-size:23.381567px"
       y="899.81592"
       x="31.856539"
       id="text7612">
      <tspan
         id="tspan7614"
         sodipodi:role="line"
         y="899.81592"
         x="31.856539 37.123737"
         style="font-size:9.9889946px;font-variant:normal;font-weight:normal;writing-mode:lr-tb;fill:#000000;fill-opacity:1;fill-rule:nonzero;stroke:none;font-family:Helvetica;-inkscape-font-specification:Helvetica">60</tspan>
    </text>
    <path
       id="path7616"
       style="fill:#ffffff;fill-opacity:1;fill-rule:nonzero;stroke:none"
       d="m 31.856537,874.01132 10.821379,0 0,-11.23778 -10.821379,0 0,11.23778 z"
       inkscape:connector-curvature="0" />
    <text
       style="font-size:23.381567px"
       y="871.51361"
       x="31.856539"
       id="text7618">
      <tspan
         id="tspan7620"
         sodipodi:role="line"
         y="871.51361"
         x="31.856539 37.123737"
         style="font-size:9.9889946px;font-variant:normal;font-weight:normal;writing-mode:lr-tb;fill:#000000;fill-opacity:1;fill-rule:nonzero;stroke:none;font-family:Helvetica;-inkscape-font-specification:Helvetica">80</tspan>
    </text>
    <path
       id="path7622"
       style="fill:#ffffff;fill-opacity:1;fill-rule:nonzero;stroke:none"
       d="m 26.445653,845.29291 16.232068,0 0,-11.23777 -16.232068,0 0,11.23777 z"
       inkscape:connector-curvature="0" />
    <text
       style="font-size:23.381567px"
       y="842.79547"
       x="26.445852"
       id="text7624">
      <tspan
         id="tspan7626"
         sodipodi:role="line"
         y="842.79547"
         x="26.445852 31.784967 37.124084"
         style="font-size:9.9889946px;font-variant:normal;font-weight:normal;writing-mode:lr-tb;fill:#000000;fill-opacity:1;fill-rule:nonzero;stroke:none;font-family:Helvetica;-inkscape-font-specification:Helvetica">100</tspan>
    </text>
    <path
       id="path7628"
       style="fill:#ffffff;fill-opacity:1;fill-rule:nonzero;stroke:none"
       d="m 26.445653,816.5745 16.232068,0 0,-11.23757 -16.232068,0 0,11.23757 z"
       inkscape:connector-curvature="0" />
    <text
       style="font-size:23.381567px"
       y="814.07703"
       x="26.445852"
       id="text7630">
      <tspan
         id="tspan7632"
         sodipodi:role="line"
         y="814.07703"
         x="26.445852 31.784967 37.124084"
         style="font-size:9.9889946px;font-variant:normal;font-weight:normal;writing-mode:lr-tb;fill:#000000;fill-opacity:1;fill-rule:nonzero;stroke:none;font-family:Helvetica;-inkscape-font-specification:Helvetica">120</tspan>
    </text>
    <path
       id="path7634"
       style="fill:#ffffff;fill-opacity:1;fill-rule:nonzero;stroke:none"
       d="m 30.192549,782.44521 5.826881,0 0,-11.23778 -5.826881,0 0,11.23778 z"
       inkscape:connector-curvature="0" />
    <path
       id="path7640"
       style="fill:#ffffff;fill-opacity:1;fill-rule:nonzero;stroke:none"
       d="m 21.866763,797.01192 22.890553,0 0,-11.23777 -22.890553,0 0,11.23777 z"
       inkscape:connector-curvature="0" />
    <path
       id="path7646"
       style="fill:#ffffff;fill-opacity:1;fill-rule:nonzero;stroke:none"
       d="m 90.125343,1047.5707 13.734917,0 0,-11.2376 -13.734917,0 0,11.2376 z"
       inkscape:connector-curvature="0" />
    <text
       style="font-size:23.381567px"
       y="1045.0723"
       x="90.125549"
       id="text7648">
      <tspan
         id="tspan7650"
         sodipodi:role="line"
         y="1045.0723"
         x="90.125549 95.6045 98.306519"
         style="font-size:9.9889946px;font-variant:normal;font-weight:normal;writing-mode:lr-tb;fill:#000000;fill-opacity:1;fill-rule:nonzero;stroke:none;font-family:Helvetica;-inkscape-font-specification:Helvetica">0.0</tspan>
    </text>
    <path
       id="path7652"
       style="fill:#ffffff;fill-opacity:1;fill-rule:nonzero;stroke:none"
       d="m 137.57238,1047.5707 13.73493,0 0,-11.2376 -13.73493,0 0,11.2376 z"
       inkscape:connector-curvature="0" />
    <text
       style="font-size:23.381567px"
       y="1045.0723"
       x="137.57318"
       id="text7654">
      <tspan
         id="tspan7656"
         sodipodi:role="line"
         y="1045.0723"
         x="137.57318 143.05214 145.75417"
         style="font-size:9.9889946px;font-variant:normal;font-weight:normal;writing-mode:lr-tb;fill:#000000;fill-opacity:1;fill-rule:nonzero;stroke:none;font-family:Helvetica;-inkscape-font-specification:Helvetica">0.2</tspan>
    </text>
    <path
       id="path7658"
       style="fill:#ffffff;fill-opacity:1;fill-rule:nonzero;stroke:none"
       d="m 184.6044,1047.5707 13.73493,0 0,-11.2376 -13.73493,0 0,11.2376 z"
       inkscape:connector-curvature="0" />
    <text
       style="font-size:23.381567px"
       y="1045.0723"
       x="184.60481"
       id="text7660">
      <tspan
         id="tspan7662"
         sodipodi:role="line"
         y="1045.0723"
         x="184.60481 190.08377 192.7858"
         style="font-size:9.9889946px;font-variant:normal;font-weight:normal;writing-mode:lr-tb;fill:#000000;fill-opacity:1;fill-rule:nonzero;stroke:none;font-family:Helvetica;-inkscape-font-specification:Helvetica">0.4</tspan>
    </text>
    <path
       id="path7664"
       style="fill:#ffffff;fill-opacity:1;fill-rule:nonzero;stroke:none"
       d="m 231.63642,1047.5707 13.73493,0 0,-11.2376 -13.73493,0 0,11.2376 z"
       inkscape:connector-curvature="0" />
    <text
       style="font-size:23.381567px"
       y="1045.0723"
       x="231.63626"
       id="text7666">
      <tspan
         id="tspan7668"
         sodipodi:role="line"
         y="1045.0723"
         x="231.63626 237.11522 239.81725"
         style="font-size:9.9889946px;font-variant:normal;font-weight:normal;writing-mode:lr-tb;fill:#000000;fill-opacity:1;fill-rule:nonzero;stroke:none;font-family:Helvetica;-inkscape-font-specification:Helvetica">0.6</tspan>
    </text>
    <path
       id="path7670"
       style="fill:#ffffff;fill-opacity:1;fill-rule:nonzero;stroke:none"
       d="m 279.08347,1047.5707 13.73492,0 0,-11.2376 -13.73492,0 0,11.2376 z"
       inkscape:connector-curvature="0" />
    <text
       style="font-size:23.381567px"
       y="1045.0723"
       x="279.08389"
       id="text7672">
      <tspan
         id="tspan7674"
         sodipodi:role="line"
         y="1045.0723"
         x="279.08389 284.56284 287.26486"
         style="font-size:9.9889946px;font-variant:normal;font-weight:normal;writing-mode:lr-tb;fill:#000000;fill-opacity:1;fill-rule:nonzero;stroke:none;font-family:Helvetica;-inkscape-font-specification:Helvetica">0.8</tspan>
    </text>
    <path
       id="path7676"
       style="fill:#ffffff;fill-opacity:1;fill-rule:nonzero;stroke:none"
       d="m 326.11549,1047.5707 13.73492,0 0,-11.2376 -13.73492,0 0,11.2376 z"
       inkscape:connector-curvature="0" />
    <text
       style="font-size:23.381567px"
       y="1045.0723"
       x="326.11551"
       id="text7678">
      <tspan
         id="tspan7680"
         sodipodi:role="line"
         y="1045.0723"
         x="326.11551 331.59445 334.29648"
         style="font-size:9.9889946px;font-variant:normal;font-weight:normal;writing-mode:lr-tb;fill:#000000;fill-opacity:1;fill-rule:nonzero;stroke:none;font-family:Helvetica;-inkscape-font-specification:Helvetica">1.0</tspan>
    </text>
    <path
       id="path7682"
       style="fill:#ffffff;fill-opacity:1;fill-rule:nonzero;stroke:none"
       d="m 364.82367,1047.5707 27.05442,0 0,-11.2376 -27.05442,0 0,11.2376 z"
       inkscape:connector-curvature="0" />
    <path
       id="path7688"
       style="fill:#ffffff;fill-opacity:1;fill-rule:nonzero;stroke:none"
       d="m 391.87614,785.77513 0,0"
       inkscape:connector-curvature="0" />
    <path
       id="path7690"
       style="fill:#ffffff;fill-opacity:1;fill-rule:nonzero;stroke:none"
       d="m 106.77302,892.73995 4.57831,0 0,-9.5728 -4.57831,0 0,9.5728 z"
       inkscape:connector-curvature="0" />
    <text
       style="font-size:23.381567px"
       y="891.07568"
       x="106.7738"
       id="text7692">
      <tspan
         id="tspan7694"
         y="891.07568"
         x="106.7738"
         style="font-size:8.32422733px;font-variant:normal;font-weight:normal;writing-mode:lr-tb;fill:#000000;fill-opacity:1;fill-rule:nonzero;stroke:none;font-family:Helvetica;-inkscape-font-specification:Helvetica">1</tspan>
    </text>
    <path
       id="path7696"
       style="fill:#ffffff;fill-opacity:1;fill-rule:nonzero;stroke:none"
       d="m 106.77302,835.30313 4.57831,0 0,-9.5728 -4.57831,0 0,9.5728 z"
       inkscape:connector-curvature="0" />
    <text
       style="font-size:23.381567px"
       y="833.63885"
       x="106.7738"
       id="text7698">
      <tspan
         id="tspan7700"
         y="833.63885"
         x="106.7738"
         style="font-size:8.32422733px;font-variant:normal;font-weight:normal;writing-mode:lr-tb;fill:#000000;fill-opacity:1;fill-rule:nonzero;stroke:none;font-family:Helvetica;-inkscape-font-specification:Helvetica">2</tspan>
    </text>
    <path
       id="path7702"
       style="fill:#ffffff;fill-opacity:1;fill-rule:nonzero;stroke:none"
       d="m 106.77302,812.8276 4.57831,0 0,-9.5728 -4.57831,0 0,9.5728 z"
       inkscape:connector-curvature="0" />
    <text
       style="font-size:23.381567px"
       y="811.16345"
       x="106.7738"
       id="text7704">
      <tspan
         id="tspan7706"
         y="811.16345"
         x="106.7738"
         style="font-size:8.32422733px;font-variant:normal;font-weight:normal;writing-mode:lr-tb;fill:#000000;fill-opacity:1;fill-rule:nonzero;stroke:none;font-family:Helvetica;-inkscape-font-specification:Helvetica">3</tspan>
    </text>
    <path
       sodipodi:nodetypes="cc"
       inkscape:connector-curvature="0"
       id="path15417"
       d="M 97.071663,949.27334 C 200.8072,944.10983 266.64511,826.85001 292.78595,785.70191"
       style="fill:none;stroke:#000000;stroke-width:1px;stroke-linecap:butt;stroke-linejoin:miter;stroke-opacity:1;display:inline" />
    <path
       sodipodi:nodetypes="cc"
       transform="translate(0,768.89761)"
       inkscape:connector-curvature="0"
       id="path15670"
       d="M 265.41758,88.000053 234.56197,102.24679"
       style="fill:none;stroke:#000000;stroke-width:0.53149605;stroke-linecap:butt;stroke-linejoin:miter;stroke-miterlimit:4;stroke-opacity:1;stroke-dasharray:none;marker-end:url(#Arrow1Lend)" />
    <g
       ns0:preamble="D:\\Onderwijs\\FLUI\\Cursus\\FLUI_theorie\\tex\\commands.tex"
       ns0:text="$H$"
       word-spacing="normal"
       letter-spacing="normal"
       font-size-adjust="none"
       font-stretch="normal"
       font-weight="normal"
       font-variant="normal"
       font-style="normal"
       stroke-miterlimit="10.433"
       xml:space="preserve"
       transform="matrix(1.25,0,0,-1.25,-210.12412,1663.8459)"
       id="content"
       style="font-style:normal;font-variant:normal;font-weight:normal;font-stretch:normal;letter-spacing:normal;word-spacing:normal;text-anchor:start;fill:none;stroke:#000000;stroke-linecap:butt;stroke-linejoin:miter;stroke-miterlimit:10.43299961;stroke-opacity:1;stroke-dasharray:none;stroke-dashoffset:0">
<path
   id="path3434"
   d="m 231.02,713.15 0.01,0.03 0.01,0.03 0.01,0.03 0,0.03 0.01,0.02 0.01,0.03 0.01,0.02 0.01,0.03 0.01,0.02 0.01,0.02 0.01,0.02 0.02,0.02 0.01,0.01 0.02,0.02 0.01,0.01 0.02,0.02 0.02,0.01 0.03,0.01 0.02,0.01 0.03,0.01 0.03,0.01 0.03,0.01 0.02,0 0.02,0 0.02,0.01 0.01,0 0.02,0 0.03,0.01 0.02,0 0.02,0 0.02,0 0.03,0 0.02,0.01 0.03,0 0.03,0 0.02,0 0.03,0 0.03,0 0.03,0 0.03,0 0.04,0 0.03,0 c 0.26,0 0.34,0 0.34,0.2 0,0.11 -0.11,0.11 -0.14,0.11 -0.28,0 -1,-0.03 -1.28,-0.03 -0.28,0 -0.99,0.03 -1.28,0.03 -0.08,0 -0.19,0 -0.19,-0.2 0,-0.11 0.09,-0.11 0.28,-0.11 0.02,0 0.21,0 0.38,-0.02 0.18,-0.02 0.27,-0.03 0.27,-0.16 0,-0.04 -0.01,-0.06 -0.04,-0.19 l -0.6,-2.42 h -3.03 l 0.58,2.34 c 0.09,0.35 0.12,0.45 0.84,0.45 0.26,0 0.34,0 0.34,0.2 0,0.11 -0.11,0.11 -0.14,0.11 -0.28,0 -1,-0.03 -1.28,-0.03 -0.28,0 -0.99,0.03 -1.28,0.03 -0.08,0 -0.19,0 -0.19,-0.2 0,-0.11 0.09,-0.11 0.28,-0.11 0.02,0 0.21,0 0.38,-0.02 0.18,-0.02 0.27,-0.03 0.27,-0.16 0,-0.04 -0.01,-0.07 -0.04,-0.19 l -1.34,-5.33 c -0.09,-0.39 -0.11,-0.47 -0.9,-0.47 -0.18,0 -0.27,0 -0.27,-0.2 0,-0.1 0.12,-0.1 0.14,-0.1 0.28,0 0.98,0.03 1.26,0.03 0.21,0 0.43,-0.01 0.64,-0.01 0.22,0 0.44,-0.02 0.65,-0.02 0.08,0 0.2,0 0.2,0.19 0,0.11 -0.09,0.11 -0.28,0.11 -0.37,0 -0.65,0 -0.65,0.18 0,0.06 0.02,0.11 0.03,0.17 l 0.68,2.72 h 3.03 c -0.42,-1.65 -0.65,-2.59 -0.69,-2.74 -0.09,-0.32 -0.28,-0.33 -0.9,-0.33 -0.15,0 -0.24,0 -0.24,-0.2 0,-0.1 0.12,-0.1 0.14,-0.1 0.28,0 0.99,0.03 1.26,0.03 0.21,0 0.43,-0.01 0.64,-0.01 0.22,0 0.44,-0.02 0.65,-0.02 0.08,0 0.2,0 0.2,0.19 0,0.11 -0.09,0.11 -0.28,0.11 -0.37,0 -0.65,0 -0.65,0.18 0,0.06 0.02,0.11 0.03,0.17 z"
   inkscape:connector-curvature="0"
   style="fill:#000000;stroke-width:0" />
</g>    <g
       id="g3896"
       transform="matrix(1.25,0,0,-1.25,-241.18631,1663.8459)"
       xml:space="preserve"
       stroke-miterlimit="10.433"
       font-style="normal"
       font-variant="normal"
       font-weight="normal"
       font-stretch="normal"
       font-size-adjust="none"
       letter-spacing="normal"
       word-spacing="normal"
       ns0:text="$p$"
       ns0:preamble="D:\\Onderwijs\\FLUI\\Cursus\\FLUI_theorie\\tex\\commands.tex"
       style="font-style:normal;font-variant:normal;font-weight:normal;font-stretch:normal;letter-spacing:normal;word-spacing:normal;text-anchor:start;fill:none;stroke:#000000;stroke-linecap:butt;stroke-linejoin:miter;stroke-miterlimit:10.43299961;stroke-opacity:1;stroke-dasharray:none;stroke-dashoffset:0">
<path
   style="fill:#000000;stroke-width:0"
   inkscape:connector-curvature="0"
   d="m 223.88,705.91 -0.01,-0.03 0,-0.03 -0.01,-0.03 -0.01,-0.02 0,-0.03 -0.01,-0.02 -0.01,-0.02 -0.01,-0.02 0,-0.02 -0.01,-0.02 -0.01,-0.02 -0.01,-0.01 -0.01,-0.02 -0.01,-0.01 -0.01,-0.02 -0.01,-0.01 -0.02,-0.01 -0.01,-0.01 -0.02,-0.01 -0.02,0 -0.02,-0.01 -0.02,-0.01 -0.02,0 -0.02,-0.01 -0.03,0 -0.02,-0.01 -0.02,0 -0.01,0 -0.02,0 -0.01,0 -0.02,0 -0.02,0 -0.01,0 -0.02,0 -0.02,0 -0.02,0 -0.02,0 -0.02,0 c -0.12,0 -0.23,0 -0.23,-0.19 0,-0.08 0.05,-0.12 0.13,-0.12 0.27,0 0.56,0.03 0.84,0.03 0.33,0 0.66,-0.03 0.98,-0.03 0.05,0 0.18,0 0.18,0.2 0,0.11 -0.1,0.11 -0.24,0.11 -0.49,0 -0.49,0.07 -0.49,0.15 0,0.12 0.41,1.74 0.48,1.99 0.13,-0.29 0.41,-0.63 0.92,-0.63 l -0.01,0.21 c -0.66,0 -0.79,0.83 -0.79,0.89 0,0.02 0,0.04 0.03,0.16 l 0.49,1.94 c 0.07,0.27 0.34,0.55 0.52,0.7 0.35,0.31 0.64,0.38 0.8,0.38 0.4,0 0.64,-0.35 0.64,-0.94 0,-0.58 -0.33,-1.72 -0.51,-2.1 -0.34,-0.7 -0.81,-1.03 -1.18,-1.03 l 0.01,-0.21 c 1.15,0 2.4,1.45 2.4,2.91 0,0.93 -0.57,1.59 -1.33,1.59 -0.49,0 -0.97,-0.36 -1.3,-0.75 -0.1,0.54 -0.53,0.75 -0.89,0.75 -0.46,0 -0.65,-0.39 -0.74,-0.57 -0.18,-0.34 -0.31,-0.93 -0.31,-0.96 0,-0.1 0.1,-0.1 0.12,-0.1 0.1,0 0.11,0.01 0.17,0.22 0.17,0.71 0.37,1.19 0.73,1.19 0.16,0 0.3,-0.08 0.3,-0.46 0,-0.23 -0.03,-0.34 -0.07,-0.51 z"
   id="path3898" />
</g>    <g
       style="font-style:normal;font-variant:normal;font-weight:normal;font-stretch:normal;letter-spacing:normal;word-spacing:normal;text-anchor:start;fill:none;stroke:#000000;stroke-linecap:butt;stroke-linejoin:miter;stroke-miterlimit:10.43299961;stroke-opacity:1;stroke-dasharray:none;stroke-dashoffset:0"
       ns0:preamble="D:\\Onderwijs\\FLUI\\Cursus\\FLUI_theorie\\tex\\commands.tex"
       ns0:text="[m]"
       word-spacing="normal"
       letter-spacing="normal"
       font-size-adjust="none"
       font-stretch="normal"
       font-weight="normal"
       font-variant="normal"
       font-style="normal"
       stroke-miterlimit="10.433"
       xml:space="preserve"
       transform="matrix(1.25,0,0,-1.25,-214.40983,1679.9173)"
       id="g4366">
<polygon
   id="polygon4368"
   points="225.97,704.64 225.97,705.04 225,705.04 225,714.18 225.97,714.18 225.97,714.58 224.61,714.58 224.61,704.64 "
   style="fill:#000000;stroke-width:0" />
<path
   id="path4370"
   d="m 227.29,710.54 v -2.66 c 0,-0.45 -0.11,-0.45 -0.77,-0.45 v -0.3 c 0.35,0.01 0.85,0.03 1.12,0.03 0.26,0 0.78,-0.02 1.12,-0.03 v 0.3 c -0.67,0 -0.78,0 -0.78,0.45 v 1.83 c 0,1.03 0.71,1.59 1.34,1.59 0.63,0 0.74,-0.54 0.74,-1.1 v -2.32 c 0,-0.45 -0.11,-0.45 -0.78,-0.45 v -0.3 c 0.35,0.01 0.86,0.03 1.13,0.03 0.26,0 0.77,-0.02 1.11,-0.03 v 0.3 c -0.66,0 -0.77,0 -0.77,0.45 v 1.83 c 0,1.03 0.7,1.59 1.34,1.59 0.63,0 0.74,-0.54 0.74,-1.1 v -2.32 c 0,-0.45 -0.11,-0.45 -0.78,-0.45 v -0.3 c 0.35,0.01 0.85,0.03 1.12,0.03 0.26,0 0.78,-0.02 1.12,-0.03 v 0.3 c -0.52,0 -0.77,0 -0.78,0.3 v 1.9 c 0,0.85 0,1.16 -0.31,1.52 -0.13,0.17 -0.46,0.37 -1.04,0.37 -0.84,0 -1.27,-0.6 -1.44,-0.98 -0.14,0.87 -0.88,0.98 -1.33,0.98 -0.72,0 -1.19,-0.43 -1.47,-1.05 v 1.05 l -1.4,-0.11 v -0.31 c 0.69,0 0.77,-0.07 0.77,-0.56 z"
   inkscape:connector-curvature="0"
   style="fill:#000000;stroke-width:0" />
<polygon
   id="polygon4372"
   points="236.08,714.58 234.72,714.58 234.72,714.18 235.68,714.18 235.68,705.04 234.72,705.04 234.72,704.64 236.08,704.64 "
   style="fill:#000000;stroke-width:0" />
</g>    <g
       id="g4846"
       transform="matrix(1.25,0,0,-1.25,-261.55269,1679.9173)"
       xml:space="preserve"
       stroke-miterlimit="10.433"
       font-style="normal"
       font-variant="normal"
       font-weight="normal"
       font-stretch="normal"
       font-size-adjust="none"
       letter-spacing="normal"
       word-spacing="normal"
       ns0:text="[kPa]"
       ns0:preamble="D:\\Onderwijs\\FLUI\\Cursus\\FLUI_theorie\\tex\\commands.tex"
       style="font-style:normal;font-variant:normal;font-weight:normal;font-stretch:normal;letter-spacing:normal;word-spacing:normal;text-anchor:start;fill:none;stroke:#000000;stroke-linecap:butt;stroke-linejoin:miter;stroke-miterlimit:10.43299961;stroke-opacity:1;stroke-dasharray:none;stroke-dashoffset:0">
<polygon
   style="fill:#000000;stroke-width:0"
   points="225.97,704.64 225.97,705.04 225,705.04 225,714.18 225.97,714.18 225.97,714.58 224.61,714.58 224.61,704.64 "
   id="polygon4848" />
<path
   style="fill:#000000;stroke-width:0"
   inkscape:connector-curvature="0"
   d="m 227.25,707.88 0,-0.02 0,-0.02 0,-0.04 0,-0.03 0,-0.04 -0.01,-0.03 0,-0.03 -0.01,-0.02 0,-0.03 -0.01,-0.02 -0.01,-0.02 -0.01,-0.02 -0.02,-0.02 -0.01,-0.01 -0.02,-0.02 -0.01,-0.01 -0.02,-0.01 -0.03,-0.01 -0.02,-0.01 -0.03,-0.01 -0.02,0 -0.03,-0.01 -0.04,0 -0.03,-0.01 -0.02,0 -0.02,0 -0.02,0 -0.02,0 -0.02,0 -0.02,0 -0.03,0 -0.02,-0.01 -0.02,0 -0.03,0 -0.02,0 -0.03,0 -0.03,0 -0.02,0 -0.03,0 -0.03,0 -0.03,0 -0.03,0 v -0.3 c 0.33,0.01 0.79,0.03 1.08,0.03 0.3,0 0.7,-0.01 1.1,-0.03 v 0.3 c -0.67,0 -0.78,0 -0.78,0.45 v 1.02 l 0.64,0.55 c 0.76,-1.05 1.18,-1.61 1.18,-1.79 0,-0.19 -0.17,-0.23 -0.36,-0.23 v -0.3 c 0.28,0.01 0.87,0.03 1.08,0.03 0.29,0 0.57,-0.01 0.86,-0.03 v 0.3 c -0.36,0 -0.58,0 -0.96,0.53 l -1.27,1.78 c -0.01,0.02 -0.06,0.08 -0.06,0.11 0,0.04 0.71,0.63 0.81,0.71 0.63,0.51 1.05,0.53 1.25,0.54 v 0.31 c -0.28,-0.03 -0.41,-0.03 -0.69,-0.03 -0.36,0 -0.98,0.02 -1.12,0.03 v -0.31 c 0.19,-0.01 0.29,-0.12 0.29,-0.25 0,-0.2 -0.14,-0.32 -0.22,-0.39 l -1.4,-1.21 v 4.77 l -1.43,-0.11 v -0.31 c 0.7,0 0.77,-0.07 0.77,-0.55 z"
   id="path4850" />
<path
   style="fill:#000000;stroke-width:0"
   inkscape:connector-curvature="0"
   d="m 233.72,710.26 -0.03,0.26 v 2.69 c 0,0.32 0.02,0.39 0.48,0.39 h 0.89 c 1.58,0 1.58,-1.05 1.58,-1.54 0,-0.47 0,-1.54 -1.58,-1.54 h -1.37 l 0.03,-0.26 h 1.68 c 1.19,0 2.27,0.81 2.27,1.8 0,0.98 -0.99,1.85 -2.35,1.85 h -3.51 v -0.31 h 0.23 c 0.77,0 0.79,-0.11 0.79,-0.46 v -5.24 c 0,-0.36 -0.02,-0.47 -0.79,-0.47 h -0.23 v -0.3 c 0.34,0.03 1.08,0.03 1.46,0.03 0.38,0 1.12,0 1.47,-0.03 v 0.3 h -0.24 c -0.76,0 -0.78,0.11 -0.78,0.47 z"
   id="path4852" />
<path
   style="fill:#000000;stroke-width:0"
   inkscape:connector-curvature="0"
   d="m 241.27,707.88 0.01,-0.04 0,-0.03 0.01,-0.04 0.01,-0.04 0.01,-0.04 0.01,-0.03 0.01,-0.04 0.01,-0.03 0.02,-0.04 0.02,-0.03 0.01,-0.04 0.02,-0.03 0.02,-0.03 0.02,-0.04 0.03,-0.03 0.02,-0.03 0.03,-0.02 0.02,-0.03 0.03,-0.03 0.03,-0.02 0.03,-0.02 0.03,-0.03 0.03,-0.02 0.04,-0.01 0.03,-0.02 0.04,-0.01 0.03,-0.02 0.04,-0.01 0.04,0 0.04,-0.01 0.05,0 0.04,0 c 0.21,0 0.81,0.13 0.81,0.94 v 0.56 h -0.24 v -0.56 c 0,-0.58 -0.25,-0.64 -0.36,-0.64 -0.33,0 -0.37,0.45 -0.37,0.5 v 1.99 c 0,0.41 0,0.8 -0.36,1.17 -0.39,0.39 -0.88,0.55 -1.36,0.55 -0.82,0 -1.5,-0.47 -1.5,-1.13 0,-0.29 0.2,-0.46 0.45,-0.46 0.28,0 0.46,0.19 0.46,0.45 0,0.12 -0.05,0.45 -0.51,0.46 0.27,0.35 0.76,0.46 1.08,0.46 0.49,0 1.05,-0.39 1.05,-1.27 v -0.37 -0.21 -0.99 c 0,-0.95 -0.71,-1.29 -1.16,-1.29 -0.49,0 -0.9,0.35 -0.9,0.85 0,0.55 0.42,1.37 2.06,1.43 h 0 v 0.21 c -0.5,-0.03 -1.2,-0.06 -1.83,-0.36 -0.74,-0.34 -0.99,-0.85 -0.99,-1.29 0,-0.81 0.96,-1.05 1.59,-1.05 0.66,0 1.11,0.39 1.3,0.86 z"
   id="path4854" />
<polygon
   style="fill:#000000;stroke-width:0"
   points="244.52,714.58 243.16,714.58 243.16,714.18 244.13,714.18 244.13,705.04 243.16,705.04 243.16,704.64 244.52,704.64 "
   id="polygon4856" />
</g>    <g
       style="font-style:normal;font-variant:normal;font-weight:normal;font-stretch:normal;letter-spacing:normal;word-spacing:normal;text-anchor:start;fill:none;stroke:#000000;stroke-linecap:butt;stroke-linejoin:miter;stroke-miterlimit:10.43299961;stroke-opacity:1;stroke-dasharray:none;stroke-dashoffset:0"
       ns0:preamble="D:\\Onderwijs\\FLUI\\Cursus\\FLUI_theorie\\tex\\commands.tex"
       ns0:text="$\\dot{V}$ [m$^3$/h]"
       word-spacing="normal"
       letter-spacing="normal"
       font-size-adjust="none"
       font-stretch="normal"
       font-weight="normal"
       font-variant="normal"
       font-style="normal"
       stroke-miterlimit="10.433"
       xml:space="preserve"
       transform="matrix(1.25,0,0,-1.25,83.090167,1889.9174)"
       id="g5328">
<path
   id="path5330"
   d="m 227.97,715.76 0,0.03 0,0.02 0,0.03 -0.01,0.02 -0.01,0.03 0,0.02 -0.01,0.02 -0.01,0.03 -0.01,0.02 -0.01,0.02 -0.01,0.03 -0.02,0.02 -0.01,0.02 -0.02,0.02 -0.01,0.02 -0.02,0.02 -0.02,0.01 -0.02,0.02 -0.02,0.02 -0.02,0.01 -0.02,0.02 -0.02,0.01 -0.02,0.01 -0.03,0.01 -0.02,0.01 -0.03,0.01 -0.02,0.01 -0.03,0.01 -0.02,0 -0.03,0.01 -0.03,0 -0.03,0 c -0.33,0 -0.53,-0.28 -0.53,-0.53 0,-0.27 0.23,-0.52 0.52,-0.52 0.34,0 0.54,0.27 0.54,0.52 z"
   inkscape:connector-curvature="0"
   style="fill:#000000;stroke-width:0" />
<path
   id="path5332"
   d="m 229.68,712.78 0.05,0.07 0.04,0.06 0.05,0.07 0.04,0.05 0.04,0.06 0.05,0.05 0.04,0.05 0.04,0.04 0.05,0.04 0.04,0.04 0.04,0.03 0.04,0.03 0.04,0.03 0.04,0.03 0.04,0.02 0.04,0.02 0.04,0.02 0.04,0.02 0.04,0.01 0.04,0.02 0.04,0.01 0.03,0.01 0.04,0.01 0.04,0 0.03,0.01 0.04,0 0.07,0.01 0.07,0.01 0.07,0 c 0.12,0.01 0.13,0.18 0.13,0.19 0,0.08 -0.05,0.12 -0.13,0.12 -0.25,0 -0.54,-0.03 -0.81,-0.03 -0.33,0 -0.67,0.03 -0.99,0.03 -0.06,0 -0.19,0 -0.19,-0.19 0,-0.11 0.09,-0.12 0.16,-0.12 0.27,-0.02 0.46,-0.12 0.46,-0.33 0,-0.14 -0.15,-0.36 -0.15,-0.37 l -3.05,-4.85 -0.68,5.25 c 0,0.17 0.23,0.3 0.69,0.3 0.14,0 0.25,0 0.25,0.2 0,0.09 -0.08,0.11 -0.14,0.11 -0.4,0 -0.83,-0.03 -1.24,-0.03 -0.18,0 -0.36,0.01 -0.55,0.01 -0.17,0 -0.36,0.02 -0.53,0.02 -0.07,0 -0.19,0 -0.19,-0.19 0,-0.12 0.09,-0.12 0.25,-0.12 0.55,0 0.56,-0.09 0.6,-0.34 l 0.78,-6.12 c 0.03,-0.2 0.07,-0.23 0.2,-0.23 0.16,0 0.2,0.05 0.28,0.18 z"
   inkscape:connector-curvature="0"
   style="fill:#000000;stroke-width:0" />
<polygon
   id="polygon5334"
   points="237.32,704.64 237.32,705.04 236.35,705.04 236.35,714.18 237.32,714.18 237.32,714.58 235.95,714.58 235.95,704.64 "
   style="fill:#000000;stroke-width:0" />
<path
   id="path5336"
   d="m 238.64,710.54 v -2.66 c 0,-0.45 -0.11,-0.45 -0.78,-0.45 v -0.3 c 0.35,0.01 0.86,0.03 1.13,0.03 0.26,0 0.77,-0.02 1.11,-0.03 v 0.3 c -0.66,0 -0.77,0 -0.77,0.45 v 1.83 c 0,1.03 0.7,1.59 1.34,1.59 0.63,0 0.74,-0.54 0.74,-1.1 v -2.32 c 0,-0.45 -0.11,-0.45 -0.78,-0.45 v -0.3 c 0.35,0.01 0.86,0.03 1.12,0.03 0.26,0 0.78,-0.02 1.12,-0.03 v 0.3 c -0.67,0 -0.78,0 -0.78,0.45 v 1.83 c 0,1.03 0.71,1.59 1.35,1.59 0.62,0 0.73,-0.54 0.73,-1.1 v -2.32 c 0,-0.45 -0.11,-0.45 -0.77,-0.45 v -0.3 c 0.34,0.01 0.85,0.03 1.12,0.03 0.26,0 0.78,-0.02 1.11,-0.03 v 0.3 c -0.51,0 -0.76,0 -0.77,0.3 v 1.9 c 0,0.85 0,1.16 -0.31,1.52 -0.14,0.17 -0.47,0.37 -1.04,0.37 -0.84,0 -1.28,-0.6 -1.45,-0.98 -0.14,0.87 -0.87,0.98 -1.32,0.98 -0.73,0 -1.2,-0.43 -1.47,-1.05 v 1.05 l -1.41,-0.11 v -0.31 c 0.7,0 0.78,-0.07 0.78,-0.56 z"
   inkscape:connector-curvature="0"
   style="fill:#000000;stroke-width:0" />
<path
   id="path5338"
   d="m 247.75,713.06 0.05,0 0.05,0 0.05,-0.01 0.05,0 0.04,-0.01 0.05,-0.02 0.04,-0.01 0.04,-0.02 0.05,-0.02 0.04,-0.02 0.04,-0.02 0.03,-0.03 0.04,-0.02 0.03,-0.03 0.04,-0.03 0.03,-0.04 0.03,-0.03 0.03,-0.04 0.03,-0.04 0.02,-0.05 0.02,-0.04 0.03,-0.05 0.02,-0.05 0.01,-0.05 0.02,-0.05 0.01,-0.06 0.02,-0.06 0.01,-0.06 0,-0.06 0.01,-0.06 0,-0.07 0,-0.07 c 0,-0.86 -0.5,-1.12 -0.9,-1.12 -0.28,0 -0.89,0.08 -1.19,0.49 0.33,0.01 0.41,0.24 0.41,0.39 0,0.22 -0.17,0.38 -0.39,0.38 -0.19,0 -0.39,-0.12 -0.39,-0.4 0,-0.65 0.73,-1.08 1.57,-1.08 0.97,0 1.64,0.65 1.64,1.34 0,0.54 -0.45,1.09 -1.21,1.25 0.73,0.26 0.99,0.78 0.99,1.21 0,0.55 -0.63,0.96 -1.41,0.96 -0.77,0 -1.36,-0.38 -1.36,-0.94 0,-0.23 0.15,-0.36 0.36,-0.36 0.22,0 0.36,0.16 0.36,0.35 0,0.2 -0.14,0.35 -0.36,0.36 0.25,0.31 0.73,0.39 0.98,0.39 0.32,0 0.76,-0.16 0.76,-0.76 0,-0.29 -0.1,-0.61 -0.28,-0.83 -0.23,-0.26 -0.43,-0.28 -0.77,-0.3 -0.18,-0.01 -0.19,-0.01 -0.23,-0.02 -0.01,0 -0.07,-0.01 -0.07,-0.09 0,-0.1 0.07,-0.1 0.18,-0.1 z"
   inkscape:connector-curvature="0"
   style="fill:#000000;stroke-width:0" />
<path
   id="path5340"
   d="m 254.68,714.2 0,0 0,0.01 0,0.01 0,0 0.01,0.01 0,0 0,0.01 0,0 0,0.01 0,0 0.01,0.01 0,0.01 0,0.01 0.01,0.01 0,0 0,0.01 0,0.01 0,0 0.01,0.01 0,0 0,0.01 0,0 0,0.01 0,0 0,0.01 0,0 0,0 0,0.01 0,0 0,0 0,0 0,0.01 0,0 0,0 0.01,0.01 c 0,0.11 -0.1,0.2 -0.2,0.2 -0.14,0 -0.18,-0.1 -0.21,-0.2 l -3.4,-9.36 c -0.05,-0.13 -0.05,-0.16 -0.05,-0.18 0,-0.11 0.09,-0.2 0.2,-0.2 0.14,0 0.18,0.1 0.21,0.2 z"
   inkscape:connector-curvature="0"
   style="fill:#000000;stroke-width:0" />
<path
   id="path5342"
   d="m 256.39,707.88 0,-0.02 0,-0.02 0,-0.04 0,-0.03 0,-0.04 -0.01,-0.03 0,-0.03 -0.01,-0.02 0,-0.03 -0.01,-0.02 -0.01,-0.02 -0.01,-0.02 -0.02,-0.02 -0.01,-0.01 -0.02,-0.02 -0.02,-0.01 -0.02,-0.01 -0.02,-0.01 -0.02,-0.01 -0.03,-0.01 -0.02,0 -0.04,-0.01 -0.03,0 -0.03,-0.01 -0.04,0 -0.02,0 -0.02,0 -0.02,0 -0.02,0 -0.03,0 -0.02,-0.01 -0.02,0 -0.03,0 -0.02,0 -0.03,0 -0.03,0 -0.02,0 -0.03,0 -0.03,0 -0.03,0 -0.03,0 v -0.3 c 0.34,0.01 0.85,0.03 1.12,0.03 0.26,0 0.78,-0.02 1.12,-0.03 v 0.3 c -0.67,0 -0.78,0 -0.78,0.45 v 1.83 c 0,1.03 0.71,1.59 1.34,1.59 0.63,0 0.74,-0.54 0.74,-1.1 v -2.32 c 0,-0.45 -0.11,-0.45 -0.78,-0.45 v -0.3 c 0.35,0.01 0.86,0.03 1.13,0.03 0.26,0 0.77,-0.02 1.11,-0.03 v 0.3 c -0.52,0 -0.76,0 -0.77,0.3 v 1.9 c 0,0.85 0,1.16 -0.31,1.52 -0.14,0.17 -0.47,0.37 -1.05,0.37 -0.83,0 -1.27,-0.6 -1.44,-0.98 v 3.48 l -1.43,-0.11 v -0.31 c 0.69,0 0.77,-0.07 0.77,-0.55 z"
   inkscape:connector-curvature="0"
   style="fill:#000000;stroke-width:0" />
<polygon
   id="polygon5344"
   points="262.42,714.58 261.05,714.58 261.05,714.18 262.02,714.18 262.02,705.04 261.05,705.04 261.05,704.64 262.42,704.64 "
   style="fill:#000000;stroke-width:0" />
</g>    <g
       id="g5848"
       transform="matrix(1.25,0,0,-1.25,83.090167,1929.2031)"
       xml:space="preserve"
       stroke-miterlimit="10.433"
       font-style="normal"
       font-variant="normal"
       font-weight="normal"
       font-stretch="normal"
       font-size-adjust="none"
       letter-spacing="normal"
       word-spacing="normal"
       ns0:text="$\\dot{V}$ [l/s]"
       ns0:preamble="D:\\Onderwijs\\FLUI\\Cursus\\FLUI_theorie\\tex\\commands.tex"
       style="font-style:normal;font-variant:normal;font-weight:normal;font-stretch:normal;letter-spacing:normal;word-spacing:normal;text-anchor:start;fill:none;stroke:#000000;stroke-linecap:butt;stroke-linejoin:miter;stroke-miterlimit:10.43299961;stroke-opacity:1;stroke-dasharray:none;stroke-dashoffset:0">
<path
   style="fill:#000000;stroke-width:0"
   inkscape:connector-curvature="0"
   d="m 227.97,715.76 0,0.03 0,0.02 0,0.03 -0.01,0.02 -0.01,0.03 0,0.02 -0.01,0.02 -0.01,0.03 -0.01,0.02 -0.01,0.02 -0.01,0.03 -0.02,0.02 -0.01,0.02 -0.02,0.02 -0.01,0.02 -0.02,0.02 -0.02,0.01 -0.02,0.02 -0.02,0.02 -0.02,0.01 -0.02,0.02 -0.02,0.01 -0.02,0.01 -0.03,0.01 -0.02,0.01 -0.03,0.01 -0.02,0.01 -0.03,0.01 -0.02,0 -0.03,0.01 -0.03,0 -0.03,0 c -0.33,0 -0.53,-0.28 -0.53,-0.53 0,-0.27 0.23,-0.52 0.52,-0.52 0.34,0 0.54,0.27 0.54,0.52 z"
   id="path5850" />
<path
   style="fill:#000000;stroke-width:0"
   inkscape:connector-curvature="0"
   d="m 229.68,712.78 0.05,0.07 0.04,0.06 0.05,0.07 0.04,0.05 0.04,0.06 0.05,0.05 0.04,0.05 0.04,0.04 0.05,0.04 0.04,0.04 0.04,0.03 0.04,0.03 0.04,0.03 0.04,0.03 0.04,0.02 0.04,0.02 0.04,0.02 0.04,0.02 0.04,0.01 0.04,0.02 0.04,0.01 0.03,0.01 0.04,0.01 0.04,0 0.03,0.01 0.04,0 0.07,0.01 0.07,0.01 0.07,0 c 0.12,0.01 0.13,0.18 0.13,0.19 0,0.08 -0.05,0.12 -0.13,0.12 -0.25,0 -0.54,-0.03 -0.81,-0.03 -0.33,0 -0.67,0.03 -0.99,0.03 -0.06,0 -0.19,0 -0.19,-0.19 0,-0.11 0.09,-0.12 0.16,-0.12 0.27,-0.02 0.46,-0.12 0.46,-0.33 0,-0.14 -0.15,-0.36 -0.15,-0.37 l -3.05,-4.85 -0.68,5.25 c 0,0.17 0.23,0.3 0.69,0.3 0.14,0 0.25,0 0.25,0.2 0,0.09 -0.08,0.11 -0.14,0.11 -0.4,0 -0.83,-0.03 -1.24,-0.03 -0.18,0 -0.36,0.01 -0.55,0.01 -0.17,0 -0.36,0.02 -0.53,0.02 -0.07,0 -0.19,0 -0.19,-0.19 0,-0.12 0.09,-0.12 0.25,-0.12 0.55,0 0.56,-0.09 0.6,-0.34 l 0.78,-6.12 c 0.03,-0.2 0.07,-0.23 0.2,-0.23 0.16,0 0.2,0.05 0.28,0.18 z"
   id="path5852" />
<polygon
   style="fill:#000000;stroke-width:0"
   points="237.32,704.64 237.32,705.04 236.35,705.04 236.35,714.18 237.32,714.18 237.32,714.58 235.95,714.58 235.95,704.64 "
   id="polygon5854" />
<path
   style="fill:#000000;stroke-width:0"
   inkscape:connector-curvature="0"
   d="m 239.31,714.02 -1.44,-0.11 v -0.31 c 0.7,0 0.78,-0.07 0.78,-0.55 v -5.17 c 0,-0.45 -0.11,-0.45 -0.78,-0.45 v -0.3 c 0.33,0.01 0.86,0.03 1.11,0.03 0.25,0 0.73,-0.02 1.1,-0.03 v 0.3 c -0.66,0 -0.77,0 -0.77,0.45 z"
   id="path5856" />
<path
   style="fill:#000000;stroke-width:0"
   inkscape:connector-curvature="0"
   d="m 244.67,714.2 0,0 0.01,0.01 0,0.01 0,0 0,0.01 0,0 0.01,0.01 0,0 0,0.01 0,0 0,0.01 0.01,0.01 0,0.01 0,0.01 0,0 0.01,0.01 0,0.01 0,0 0,0.01 0,0 0,0.01 0.01,0 0,0.01 0,0 0,0.01 0,0 0,0 0,0.01 0,0 0,0 0,0 0,0.01 0,0 0,0 0,0.01 c 0,0.11 -0.09,0.2 -0.2,0.2 -0.14,0 -0.18,-0.1 -0.21,-0.2 l -3.39,-9.36 c -0.05,-0.13 -0.05,-0.16 -0.05,-0.18 0,-0.11 0.09,-0.2 0.2,-0.2 0.14,0 0.18,0.1 0.21,0.2 z"
   id="path5858" />
<path
   style="fill:#000000;stroke-width:0"
   inkscape:connector-curvature="0"
   d="m 247.36,709.05 0.03,0 0.02,-0.01 0.03,0 0.03,-0.01 0.03,-0.01 0.04,-0.01 0.04,-0.01 0.04,-0.01 0.04,-0.01 0.04,-0.01 0.04,-0.02 0.05,-0.02 0.04,-0.01 0.05,-0.03 0.04,-0.02 0.04,-0.02 0.05,-0.03 0.04,-0.03 0.04,-0.03 0.04,-0.03 0.04,-0.03 0.03,-0.04 0.04,-0.04 0.03,-0.04 0.03,-0.05 0.01,-0.02 0.01,-0.03 0.01,-0.02 0.01,-0.03 0.01,-0.02 0.01,-0.03 0.01,-0.03 0.01,-0.02 0,-0.03 0.01,-0.03 0,-0.03 0.01,-0.04 0,-0.03 0,-0.03 c 0,-0.51 -0.35,-0.91 -1.13,-0.91 -0.83,0 -1.19,0.57 -1.38,1.42 -0.03,0.12 -0.04,0.16 -0.14,0.16 -0.13,0 -0.13,-0.07 -0.13,-0.24 v -1.32 c 0,-0.16 0,-0.23 0.11,-0.23 0.05,0 0.06,0.01 0.25,0.19 0.02,0.02 0.02,0.04 0.2,0.23 0.44,-0.41 0.89,-0.42 1.09,-0.42 1.15,0 1.61,0.66 1.61,1.38 0,0.52 -0.3,0.82 -0.42,0.94 -0.33,0.32 -0.72,0.4 -1.14,0.48 -0.55,0.11 -1.22,0.23 -1.22,0.81 0,0.35 0.26,0.76 1.11,0.76 1.1,0 1.15,-0.9 1.17,-1.21 0.01,-0.09 0.1,-0.09 0.12,-0.09 0.13,0 0.13,0.06 0.13,0.24 v 1.01 c 0,0.17 0,0.24 -0.11,0.24 -0.05,0 -0.07,0 -0.2,-0.12 -0.03,-0.04 -0.13,-0.13 -0.17,-0.16 -0.38,0.28 -0.79,0.28 -0.94,0.28 -1.21,0 -1.59,-0.67 -1.59,-1.23 0,-0.34 0.16,-0.62 0.43,-0.84 0.32,-0.26 0.6,-0.32 1.31,-0.46 z"
   id="path5860" />
<polygon
   style="fill:#000000;stroke-width:0"
   points="250.81,714.58 249.44,714.58 249.44,714.18 250.41,714.18 250.41,705.04 249.44,705.04 249.44,704.64 250.81,704.64 "
   id="polygon5862" />
</g>    <rect
       style="fill:#ffffff;stroke:none"
       id="rect4140"
       width="75.256363"
       height="11.490485"
       x="264.65997"
       y="844.9021" />
    <g
       style="font-style:normal;font-variant:normal;font-weight:normal;font-stretch:normal;letter-spacing:normal;word-spacing:normal;text-anchor:start;fill:none;stroke:#000000;stroke-linecap:butt;stroke-linejoin:miter;stroke-miterlimit:10.43299961;stroke-opacity:1;stroke-dasharray:none;stroke-dashoffset:0"
       ns0:preamble="D:\\Onderwijs\\FLUI\\Cursus\\FLUI_theorie\\tex\\commands.tex"
       ns0:text="werkingspunt"
       word-spacing="normal"
       letter-spacing="normal"
       font-size-adjust="none"
       font-stretch="normal"
       font-weight="normal"
       font-variant="normal"
       font-style="normal"
       stroke-miterlimit="10.433"
       xml:space="preserve"
       transform="matrix(1.25,0,0,-1.25,-13.3794,1737.8895)"
       id="g3842">
<path
   id="path3844"
   d="m 229.59,710.46 0.02,0.05 0.02,0.04 0.01,0.04 0.02,0.04 0.02,0.04 0.02,0.04 0.03,0.03 0.02,0.03 0.02,0.03 0.02,0.03 0.03,0.02 0.02,0.03 0.03,0.02 0.02,0.02 0.03,0.02 0.03,0.02 0.02,0.02 0.03,0.02 0.03,0.01 0.03,0.01 0.02,0.02 0.03,0.01 0.03,0.01 0.03,0.01 0.03,0 0.04,0.01 0.03,0 0.03,0.01 0.03,0 0.03,0.01 0.03,0 0.04,0 v 0.31 c -0.22,-0.02 -0.51,-0.03 -0.73,-0.03 -0.29,0 -0.74,0.02 -0.93,0.03 v -0.31 c 0.36,-0.01 0.58,-0.19 0.58,-0.48 0,-0.06 0,-0.08 -0.05,-0.21 l -0.9,-2.54 -0.99,2.77 c -0.04,0.12 -0.05,0.14 -0.05,0.19 0,0.27 0.39,0.27 0.59,0.27 v 0.31 c -0.29,-0.01 -0.8,-0.03 -1.04,-0.03 -0.29,0 -0.58,0.01 -0.88,0.03 v -0.31 c 0.37,0 0.53,-0.02 0.63,-0.15 0.05,-0.06 0.16,-0.36 0.22,-0.55 l -0.85,-2.4 -0.95,2.65 c -0.05,0.12 -0.05,0.14 -0.05,0.18 0,0.27 0.39,0.27 0.59,0.27 v 0.31 c -0.3,-0.01 -0.86,-0.03 -1.08,-0.03 -0.04,0 -0.57,0.01 -0.93,0.03 v -0.31 c 0.5,0 0.62,-0.03 0.74,-0.35 l 1.25,-3.52 c 0.05,-0.14 0.08,-0.21 0.21,-0.21 0.13,0 0.15,0.06 0.2,0.19 l 1,2.82 1.02,-2.83 c 0.04,-0.11 0.07,-0.18 0.2,-0.18 0.13,0 0.16,0.08 0.2,0.18 z"
   inkscape:connector-curvature="0"
   style="fill:#000000;stroke-width:0" />
<path
   id="path3846"
   d="m 231.45,709.42 0.01,0.21 c 0.06,1.48 0.9,1.73 1.24,1.73 1.02,0 1.12,-1.34 1.12,-1.73 h -2.36 l -0.01,-0.21 h 2.78 c 0.22,0 0.25,0 0.25,0.21 0,0.98 -0.54,1.95 -1.78,1.95 -1.16,0 -2.07,-1.03 -2.07,-2.27 0,-1.33 1.04,-2.29 2.19,-2.29 1.21,0 1.66,1.1 1.66,1.29 0,0.1 -0.08,0.12 -0.13,0.12 -0.09,0 -0.11,-0.06 -0.13,-0.14 -0.35,-1.03 -1.24,-1.03 -1.34,-1.03 -0.5,0 -0.9,0.3 -1.13,0.67 -0.3,0.48 -0.3,1.13 -0.3,1.49 z"
   inkscape:connector-curvature="0"
   style="fill:#000000;stroke-width:0" />
<path
   id="path3848"
   d="m 236.44,710.42 v 1.1 l -1.39,-0.11 v -0.31 c 0.7,0 0.78,-0.07 0.78,-0.56 v -2.66 c 0,-0.45 -0.11,-0.45 -0.78,-0.45 v -0.3 c 0.39,0.01 0.86,0.03 1.14,0.03 0.4,0 0.86,0 1.26,-0.03 v 0.3 h -0.21 c -0.73,0 -0.75,0.11 -0.75,0.47 v 1.53 c 0,0.98 0.41,1.87 1.17,1.87 0.07,0 0.09,0 0.11,-0.01 -0.03,-0.01 -0.23,-0.13 -0.23,-0.39 0,-0.28 0.21,-0.43 0.43,-0.43 0.18,0 0.43,0.12 0.43,0.44 0,0.32 -0.31,0.61 -0.74,0.61 -0.73,0 -1.08,-0.67 -1.22,-1.1 z"
   inkscape:connector-curvature="0"
   style="fill:#000000;stroke-width:0" />
<path
   id="path3850"
   d="m 239.73,707.88 0,-0.02 0,-0.02 0,-0.04 0,-0.03 0,-0.04 -0.01,-0.03 0,-0.03 -0.01,-0.02 -0.01,-0.03 0,-0.02 -0.01,-0.02 -0.01,-0.02 -0.02,-0.02 -0.01,-0.01 -0.02,-0.02 -0.02,-0.01 -0.02,-0.01 -0.02,-0.01 -0.02,-0.01 -0.03,-0.01 -0.03,0 -0.03,-0.01 -0.03,0 -0.03,-0.01 -0.02,0 -0.02,0 -0.02,0 -0.02,0 -0.02,0 -0.02,0 -0.03,0 -0.02,-0.01 -0.02,0 -0.03,0 -0.02,0 -0.03,0 -0.03,0 -0.03,0 -0.02,0 -0.03,0 -0.03,0 -0.03,0 v -0.3 c 0.33,0.01 0.79,0.03 1.08,0.03 0.3,0 0.7,-0.01 1.09,-0.03 v 0.3 c -0.66,0 -0.77,0 -0.77,0.45 v 1.02 l 0.64,0.55 c 0.76,-1.05 1.18,-1.61 1.18,-1.79 0,-0.19 -0.17,-0.23 -0.36,-0.23 v -0.3 c 0.28,0.01 0.87,0.03 1.08,0.03 0.28,0 0.57,-0.01 0.86,-0.03 v 0.3 c -0.37,0 -0.58,0 -0.96,0.53 l -1.27,1.78 c -0.01,0.02 -0.06,0.08 -0.06,0.11 0,0.04 0.71,0.63 0.81,0.71 0.63,0.51 1.04,0.53 1.25,0.54 v 0.31 c -0.29,-0.03 -0.41,-0.03 -0.69,-0.03 -0.36,0 -0.98,0.02 -1.12,0.03 v -0.31 c 0.19,-0.01 0.29,-0.12 0.29,-0.25 0,-0.2 -0.14,-0.32 -0.22,-0.39 l -1.4,-1.21 v 4.77 l -1.43,-0.11 v -0.31 c 0.69,0 0.77,-0.07 0.77,-0.55 z"
   inkscape:connector-curvature="0"
   style="fill:#000000;stroke-width:0" />
<path
   id="path3852"
   d="m 245.7,711.52 -1.4,-0.11 v -0.31 c 0.65,0 0.74,-0.06 0.74,-0.55 v -2.67 c 0,-0.45 -0.11,-0.45 -0.78,-0.45 v -0.3 c 0.32,0.01 0.86,0.03 1.1,0.03 0.35,0 0.69,-0.02 1.03,-0.03 v 0.3 c -0.65,0 -0.69,0.05 -0.69,0.44 z"
   inkscape:connector-curvature="0"
   style="fill:#000000;stroke-width:0" />
<path
   id="path3854"
   d="m 245.74,713.24 0,0.03 -0.01,0.03 0,0.03 0,0.03 -0.01,0.02 -0.01,0.03 -0.01,0.03 -0.01,0.02 -0.01,0.02 -0.01,0.03 -0.01,0.02 -0.02,0.02 -0.01,0.02 -0.02,0.02 -0.01,0.02 -0.02,0.02 -0.02,0.01 -0.02,0.02 -0.02,0.01 -0.02,0.02 -0.02,0.01 -0.02,0.01 -0.03,0.01 -0.02,0.01 -0.02,0.01 -0.03,0.01 -0.02,0.01 -0.03,0 -0.02,0.01 -0.03,0 -0.02,0 -0.03,0 c -0.31,0 -0.53,-0.27 -0.53,-0.53 0,-0.26 0.22,-0.52 0.53,-0.52 0.28,0 0.53,0.21 0.53,0.52 z"
   inkscape:connector-curvature="0"
   style="fill:#000000;stroke-width:0" />
<path
   id="path3856"
   d="m 247.8,710.54 v -2.66 c 0,-0.45 -0.11,-0.45 -0.78,-0.45 v -0.3 c 0.35,0.01 0.86,0.03 1.13,0.03 0.25,0 0.77,-0.02 1.11,-0.03 v 0.3 c -0.67,0 -0.78,0 -0.78,0.45 v 1.83 c 0,1.03 0.71,1.59 1.35,1.59 0.62,0 0.73,-0.54 0.73,-1.1 v -2.32 c 0,-0.45 -0.11,-0.45 -0.77,-0.45 v -0.3 c 0.35,0.01 0.85,0.03 1.12,0.03 0.26,0 0.78,-0.02 1.12,-0.03 v 0.3 c -0.52,0 -0.77,0 -0.78,0.3 v 1.9 c 0,0.85 0,1.16 -0.31,1.52 -0.14,0.17 -0.47,0.37 -1.04,0.37 -0.73,0 -1.2,-0.43 -1.47,-1.05 v 1.05 l -1.41,-0.11 v -0.31 c 0.7,0 0.78,-0.07 0.78,-0.56 z"
   inkscape:connector-curvature="0"
   style="fill:#000000;stroke-width:0" />
<path
   id="path3858"
   d="m 253.29,708.45 0,0 0,0.01 0,0 0,0.01 0,0.01 0,0.01 0,0.01 0.01,0.01 0,0.01 0,0.01 0,0.02 0,0.01 0,0.01 0.01,0.02 0,0.01 0,0.02 0.01,0.02 0,0.01 0.01,0.02 0,0.02 0.01,0.02 0.01,0.01 0.01,0.02 0,0.02 0.01,0.02 0.01,0.02 0.02,0.02 0.01,0.02 0.01,0.02 0.01,0.02 0.02,0.01 0.01,0.02 c 0.39,-0.27 0.8,-0.31 0.99,-0.31 v 0.23 c -0.87,0 -0.87,1 -0.87,1.22 0,0.27 0.01,0.59 0.16,0.84 0.08,0.12 0.31,0.4 0.71,0.4 0.86,0 0.86,-1 0.86,-1.22 0,-0.27 -0.01,-0.59 -0.16,-0.84 -0.08,-0.12 -0.3,-0.4 -0.7,-0.4 h 0 v -0.23 c 0.92,0 1.61,0.69 1.61,1.45 0,0.37 -0.16,0.74 -0.41,0.97 0.36,0.34 0.72,0.39 0.9,0.39 0.02,0 0.07,0 0.1,-0.01 -0.11,-0.04 -0.16,-0.15 -0.16,-0.27 0,-0.17 0.13,-0.29 0.29,-0.29 0.1,0 0.28,0.07 0.28,0.3 0,0.17 -0.11,0.49 -0.5,0.49 -0.2,0 -0.64,-0.06 -1.06,-0.47 -0.42,0.33 -0.83,0.36 -1.05,0.36 -0.93,0 -1.61,-0.69 -1.61,-1.45 0,-0.44 0.21,-0.82 0.46,-1.03 -0.13,-0.15 -0.31,-0.47 -0.31,-0.82 0,-0.31 0.13,-0.69 0.44,-0.89 -0.59,-0.17 -0.91,-0.59 -0.91,-0.99 0,-0.71 0.98,-1.26 2.2,-1.26 l 0.01,0.23 c -1.01,0 -1.69,0.5 -1.69,1.03 0,0.46 0.37,0.82 0.81,0.85 h 0.59 c 0.85,0 1.97,0 1.97,-0.85 0,-0.54 -0.71,-1.03 -1.68,-1.03 h 0 l -0.01,-0.23 c 1.17,0 2.2,0.51 2.2,1.28 0,0.35 -0.13,0.85 -0.64,1.13 -0.53,0.28 -1.11,0.28 -1.71,0.28 -0.25,0 -0.68,0 -0.75,0.01 -0.32,0.04 -0.53,0.35 -0.53,0.67 z"
   inkscape:connector-curvature="0"
   style="fill:#000000;stroke-width:0" />
<path
   id="path3860"
   d="m 259.29,709.05 0.02,0 0.03,-0.01 0.03,0 0.03,-0.01 0.03,-0.01 0.04,-0.01 0.03,-0.01 0.04,-0.01 0.04,-0.01 0.05,-0.01 0.04,-0.02 0.04,-0.02 0.05,-0.01 0.04,-0.03 0.04,-0.02 0.05,-0.02 0.04,-0.03 0.04,-0.03 0.04,-0.03 0.04,-0.03 0.04,-0.03 0.04,-0.04 0.03,-0.04 0.03,-0.04 0.03,-0.05 0.01,-0.02 0.02,-0.03 0.01,-0.02 0.01,-0.03 0.01,-0.02 0.01,-0.03 0.01,-0.03 0,-0.02 0.01,-0.03 0,-0.03 0.01,-0.03 0,-0.04 0,-0.03 0,-0.03 c 0,-0.51 -0.34,-0.91 -1.12,-0.91 -0.84,0 -1.19,0.57 -1.38,1.42 -0.03,0.12 -0.04,0.16 -0.14,0.16 -0.13,0 -0.13,-0.07 -0.13,-0.24 v -1.32 c 0,-0.16 0,-0.23 0.11,-0.23 0.05,0 0.06,0.01 0.25,0.19 0.02,0.02 0.02,0.04 0.2,0.23 0.43,-0.41 0.88,-0.42 1.09,-0.42 1.14,0 1.6,0.66 1.6,1.38 0,0.52 -0.3,0.82 -0.42,0.94 -0.32,0.32 -0.71,0.4 -1.13,0.48 -0.56,0.11 -1.22,0.23 -1.22,0.81 0,0.35 0.26,0.76 1.11,0.76 1.09,0 1.14,-0.9 1.16,-1.21 0.01,-0.09 0.1,-0.09 0.12,-0.09 0.13,0 0.13,0.06 0.13,0.24 v 1.01 c 0,0.17 0,0.24 -0.11,0.24 -0.05,0 -0.07,0 -0.2,-0.12 -0.03,-0.04 -0.13,-0.13 -0.16,-0.16 -0.38,0.28 -0.79,0.28 -0.94,0.28 -1.21,0 -1.59,-0.67 -1.59,-1.23 0,-0.34 0.16,-0.62 0.43,-0.84 0.32,-0.26 0.59,-0.32 1.31,-0.46 z"
   inkscape:connector-curvature="0"
   style="fill:#000000;stroke-width:0" />
<path
   id="path3862"
   d="m 262.86,710.86 v 0.66 l -1.43,-0.11 v -0.31 c 0.7,0 0.77,-0.06 0.77,-0.5 v -4.65 c 0,-0.44 -0.11,-0.44 -0.77,-0.44 v -0.31 c 0.34,0.01 0.85,0.03 1.11,0.03 0.27,0 0.78,-0.02 1.13,-0.03 v 0.31 c -0.67,0 -0.78,0 -0.78,0.44 v 1.67 0.09 l 0.14,0.13 c -0.14,0.21 -0.14,0.22 -0.14,0.42 h 0 v 2.21 c 0.29,0.51 0.78,0.8 1.28,0.8 0.73,0 1.34,-0.88 1.34,-2 0,-1.2 -0.7,-2.04 -1.44,-2.04 -0.39,0 -0.77,0.2 -1.04,0.61 l -0.14,-0.13 c 0.05,-0.16 0.47,-0.69 1.22,-0.69 1.19,0 2.22,0.97 2.22,2.25 0,1.26 -0.96,2.25 -2.08,2.25 -0.77,0 -1.19,-0.44 -1.39,-0.66 z"
   inkscape:connector-curvature="0"
   style="fill:#000000;stroke-width:0" />
<path
   id="path3864"
   d="m 270.58,707.91 v -0.89 l 1.43,0.11 v 0.3 c -0.7,0 -0.78,0.07 -0.78,0.56 v 3.53 l -1.46,-0.11 v -0.31 c 0.69,0 0.78,-0.07 0.78,-0.56 v -1.77 c 0,-0.86 -0.48,-1.54 -1.21,-1.54 -0.83,0 -0.88,0.47 -0.88,0.99 v 3.3 L 267,711.41 v -0.31 c 0.78,0 0.78,-0.03 0.78,-0.92 v -1.49 c 0,-0.77 0,-1.67 1.51,-1.67 0.56,0 1,0.27 1.29,0.89 z"
   inkscape:connector-curvature="0"
   style="fill:#000000;stroke-width:0" />
<path
   id="path3866"
   d="m 273.31,710.54 v -2.66 c 0,-0.45 -0.11,-0.45 -0.77,-0.45 v -0.3 c 0.35,0.01 0.85,0.03 1.12,0.03 0.26,0 0.78,-0.02 1.12,-0.03 v 0.3 c -0.67,0 -0.78,0 -0.78,0.45 v 1.83 c 0,1.03 0.71,1.59 1.34,1.59 0.63,0 0.74,-0.54 0.74,-1.1 v -2.32 c 0,-0.45 -0.11,-0.45 -0.78,-0.45 v -0.3 c 0.35,0.01 0.86,0.03 1.13,0.03 0.26,0 0.77,-0.02 1.11,-0.03 v 0.3 c -0.52,0 -0.76,0 -0.77,0.3 v 1.9 c 0,0.85 0,1.16 -0.31,1.52 -0.14,0.17 -0.47,0.37 -1.05,0.37 -0.72,0 -1.19,-0.43 -1.47,-1.05 v 1.05 l -1.4,-0.11 v -0.31 c 0.69,0 0.77,-0.07 0.77,-0.56 z"
   inkscape:connector-curvature="0"
   style="fill:#000000;stroke-width:0" />
<path
   id="path3868"
   d="m 279.2,711.1 h 1.42 v 0.31 h -1.42 v 1.82 h -0.25 c -0.01,-0.81 -0.31,-1.87 -1.28,-1.91 v -0.22 h 0.84 v -2.74 c 0,-1.22 0.93,-1.34 1.28,-1.34 0.71,0 0.99,0.7 0.99,1.34 v 0.56 h -0.25 v -0.54 c 0,-0.74 -0.3,-1.12 -0.67,-1.12 -0.66,0 -0.66,0.91 -0.66,1.08 z"
   inkscape:connector-curvature="0"
   style="fill:#000000;stroke-width:0" />
</g>  </g>
  <g
     transform="translate(0,-248.03148)"
     style="display:none"
     inkscape:label="leidingkarakteristiek"
     id="layer2"
     inkscape:groupmode="layer">
    <path
       id="path7482"
       style="fill:none;stroke:#000000;stroke-width:0.26750001;stroke-linecap:round;stroke-linejoin:miter;stroke-miterlimit:10;stroke-opacity:1;stroke-dasharray:none"
       d="m 97.013621,461.60123 2.495982,-1.6659 1.665937,-2.913 1.24896,-2.9129 0.832,-3.33 1.24896,-3.32988 0.832,-3.32993 c 1.43796,-7.63018 2.84086,-15.23698 4.16192,-22.89055 1.95236,-16.2307 4.47951,-32.37373 5.82785,-48.69796 1.7166,-17.0549 3.4293,-34.10591 4.57694,-51.19199 1.23338,-9.09933 1.05997,-17.25754 2.08096,-26.22243 0.72873,-9.71309 1.74777,-20.77062 2.08096,-30.38239 m -27.052469,196.86693 4.993909,-0.417 14.56672,0 19.97955,-1.6639 c 12.99041,-0.9704 25.91067,-2.5292 38.70623,-4.9959 12.85596,-2.496 25.71777,-4.9296 38.29121,-8.74082 12.83648,-3.02791 25.29106,-7.32038 37.87424,-11.23679 49.82417,-17.63165 96.88932,-42.50769 140.67909,-72.00353 M 97.013621,461.60123 c 8.756399,-1.1145 12.378589,-8.0978 16.647669,-14.56865 4.68996,-8.39204 7.52692,-15.9852 10.82177,-24.97152 5.80643,-17.32963 10.40285,-34.98661 14.1517,-52.85792 4.08982,-16.4996 7.14891,-33.25833 10.40479,-49.94693 3.14677,-18.15773 5.82981,-36.40704 9.15583,-54.52191 M 97.013621,461.60123 c 21.275279,-1.6036 32.260719,-19.15534 43.285119,-34.96322 4.22622,-8.44075 9.3312,-16.40022 13.3197,-24.97152 3.80535,-8.64533 7.60875,-17.5011 11.23679,-26.22048 7.00668,-18.23762 12.72347,-36.00176 18.72864,-54.52386 2.39661,-9.41693 5.63106,-17.86741 7.90881,-27.46944 l 6.24288,-22.89251 1.24897,-4.99391 0.41502,-0.83199 M 97.013621,461.60123 c 21.550009,-0.3682 41.061929,-12.0025 56.187849,-26.63744 l 3.32993,-3.32992 3.74494,-3.32993 2.91491,-3.74689 3.32797,-3.32798 3.32993,-3.7469 2.9149,-3.74494 2.91295,-4.16192 c 7.37104,-8.88889 13.00015,-18.15774 19.14561,-27.88642 4.79906,-8.00039 10.30932,-16.93215 14.14974,-25.38848 l 2.49793,-4.16192 2.08096,-4.16192 2.08096,-4.57889 2.49793,-4.16192 2.08096,-4.16192 2.08096,-4.57889 2.08096,-4.16192 c 4.65293,-10.38531 9.29028,-20.75503 13.73472,-31.21634 4.49316,-9.49486 8.1173,-20.9908 12.48576,-30.38239 m -153.579869,196.86693 4.993909,-0.417 4.99392,0 4.99586,-0.832 4.57694,-0.4169 4.99586,-1.249 4.57694,-0.832 4.99586,-1.2489 18.31167,-6.658 4.57889,-2.0809 4.16191,-2.49794 4.16192,-2.08096 4.57889,-2.49793 c 11.58167,-6.91705 21.16032,-14.37382 31.21634,-23.30753 10.39506,-7.82892 18.83385,-17.79337 27.88447,-27.05247 17.14064,-19.29174 33.52527,-40.31566 47.44899,-62.01571 6.99888,-11.04974 14.63881,-21.73316 20.80959,-33.2973 6.43578,-10.19826 11.60506,-19.96785 17.48162,-30.38239 M 97.013621,461.60123 c 15.305179,-0.7677 28.985349,-1.4769 44.117119,-4.5789 14.10882,-2.5739 28.6054,-7.4723 42.0381,-12.48573 29.02822,-11.4901 55.88195,-27.85914 80.74435,-46.61505 11.5992,-8.95125 22.73662,-18.60978 33.71232,-28.30339 5.7129,-6.05778 12.18569,-10.35609 17.48162,-17.06465 5.96035,-4.96663 11.66545,-11.74534 17.0627,-17.47967 10.59379,-10.9718 19.36383,-21.72342 29.13538,-33.2973 4.57889,-6.20196 11.23484,-12.77802 15.40065,-19.1456 4.94521,-5.9058 8.74276,-12.16426 13.73473,-17.89664"
       inkscape:connector-curvature="0" />
  </g>
</svg>
