<?xml version="1.0" encoding="UTF-8" standalone="no"?>
<!-- Created with Inkscape (http://www.inkscape.org/) -->

<svg
   xmlns:dc="http://purl.org/dc/elements/1.1/"
   xmlns:cc="http://creativecommons.org/ns#"
   xmlns:rdf="http://www.w3.org/1999/02/22-rdf-syntax-ns#"
   xmlns:svg="http://www.w3.org/2000/svg"
   xmlns="http://www.w3.org/2000/svg"
   xmlns:sodipodi="http://sodipodi.sourceforge.net/DTD/sodipodi-0.dtd"
   xmlns:inkscape="http://www.inkscape.org/namespaces/inkscape"
   width="177.16534"
   height="177.16534"
   id="svg3041"
   version="1.1"
   inkscape:version="0.48.2 r9819"
   sodipodi:docname="Tandradpomp.svg">
  <sodipodi:namedview
     id="base"
     pagecolor="#ffffff"
     bordercolor="#666666"
     borderopacity="1.0"
     inkscape:pageopacity="0.0"
     inkscape:pageshadow="2"
     inkscape:zoom="2.8"
     inkscape:cx="55.74291"
     inkscape:cy="113.25899"
     inkscape:document-units="mm"
     inkscape:current-layer="layer1"
     showgrid="false"
     inkscape:window-width="1280"
     inkscape:window-height="962"
     inkscape:window-x="-8"
     inkscape:window-y="-8"
     inkscape:window-maximized="1"
     units="mm">
    <inkscape:grid
       type="xygrid"
       id="grid2992"
       empspacing="5"
       visible="true"
       enabled="true"
       snapvisiblegridlinesonly="true"
       units="mm"
       spacingx="1mm"
       spacingy="1mm" />
  </sodipodi:namedview>
  <defs
     id="defs3043">
    <marker
       inkscape:stockid="Arrow1Mend"
       orient="auto"
       refY="0.0"
       refX="0.0"
       id="Arrow1Mend"
       style="overflow:visible;">
      <path
         id="path4754"
         d="M 0.0,0.0 L 5.0,-5.0 L -12.5,0.0 L 5.0,5.0 L 0.0,0.0 z "
         style="fill-rule:evenodd;stroke:#000000;stroke-width:1.0pt;marker-start:none;"
         transform="scale(0.4) rotate(180) translate(10,0)" />
    </marker>
    <marker
       inkscape:stockid="Arrow1Mstart"
       orient="auto"
       refY="0"
       refX="0"
       id="Arrow1Mstart"
       style="overflow:visible">
      <path
         id="path5162"
         d="M 0,0 5,-5 -12.5,0 5,5 0,0 z"
         style="fill-rule:evenodd;stroke:#000000;stroke-width:1pt;marker-start:none"
         transform="matrix(0.4,0,0,0.4,4,0)"
         inkscape:connector-curvature="0" />
    </marker>
    <marker
       inkscape:stockid="Arrow1Lend"
       orient="auto"
       refY="0"
       refX="0"
       id="Arrow1Lend"
       style="overflow:visible">
      <path
         id="path5159"
         d="M 0,0 5,-5 -12.5,0 5,5 0,0 z"
         style="fill-rule:evenodd;stroke:#000000;stroke-width:1pt;marker-start:none"
         transform="matrix(-0.8,0,0,-0.8,-10,0)"
         inkscape:connector-curvature="0" />
    </marker>
    <marker
       inkscape:stockid="Arrow1Lstart"
       orient="auto"
       refY="0"
       refX="0"
       id="Arrow1Lstart"
       style="overflow:visible">
      <path
         id="path5156"
         d="M 0,0 5,-5 -12.5,0 5,5 0,0 z"
         style="fill-rule:evenodd;stroke:#000000;stroke-width:1pt;marker-start:none"
         transform="matrix(0.8,0,0,0.8,10,0)"
         inkscape:connector-curvature="0" />
    </marker>
  </defs>
  <metadata
     id="metadata3046">
    <rdf:RDF>
      <cc:Work
         rdf:about="">
        <dc:format>image/svg+xml</dc:format>
        <dc:type
           rdf:resource="http://purl.org/dc/dcmitype/StillImage" />
        <dc:title />
      </cc:Work>
    </rdf:RDF>
  </metadata>
  <g
     inkscape:label="Laag 1"
     inkscape:groupmode="layer"
     id="layer1"
     transform="translate(0,-875.19677)">
    <path
       style="fill:#cccccc;fill-opacity:1;stroke:none"
       d="m 109.44451,1021.6587 c 0,-9.6116 0.0135,-4.6489 12.00663,-5.1471 11.9936,-0.4981 20.43543,-1.979 28.88173,-7.1839 9.86695,-6.0803 18.72509,-15.46783 22.66862,-26.36859 4.25633,-11.76541 3.60107,-25.74386 -0.59309,-37.5316 -3.43465,-9.6531 -10.46043,-18.5269 -19.03592,-24.13067 -8.50186,-5.55564 -19.57688,-7.69238 -29.48346,-7.67538 -9.90659,0.0171 -14.44451,2.30811 -14.44451,-7.30364 l -38.435234,0 c 0,9.61175 -5.288658,7.67414 -17.174066,7.60688 -11.885406,-0.0672 -27.725034,4.94419 -37.308465,14.17318 -9.1494847,8.8111 -14.7866036,22.38642 -14.8701275,35.09046 -0.083994,12.77606 5.5456476,26.36172 14.4891385,35.48311 10.233631,10.43725 24.528216,17.74905 40.260208,17.36845 15.731991,-0.3805 14.417765,-2.8479 14.603312,5.6188 z"
       id="path5202"
       inkscape:connector-curvature="0"
       sodipodi:nodetypes="czaaaazcczaaazcc" />
    <path
       sodipodi:nodetypes="ccaaaaaaccccaaaaaaccc"
       inkscape:connector-curvature="0"
       id="path5200"
       d="m 99.835702,1021.6587 0,-20.9188 c 0,0 7.639368,4.6428 11.940698,5.4178 9.36696,1.6874 19.77958,1.8685 28.48421,-1.9817 10.39745,-4.59905 20.16198,-13.13272 24.64492,-23.58329 4.32239,-10.0763 4.26098,-22.74914 0.10223,-32.89414 -4.19175,-10.2257 -13.21134,-19.13147 -23.34351,-23.53862 -9.86889,-4.29263 -21.73377,-3.19429 -32.2691,-0.99881 -3.45072,0.7191 -9.559513,4.52185 -9.559513,4.52185 0,0 0,4.84867 0,-21.36517 l -19.217564,0 0,24.02938 c -2.441133,-6.29242 -16.568434,-9.85143 -25.752807,-9.80048 -10.921195,0.0606 -22.625264,4.41462 -30.4917,11.99291 -8.175044,7.87559 -13.544781,19.85362 -13.642421,31.20648 -0.09671,11.24431 5.020446,23.19398 12.978366,31.13608 7.987088,7.97121 20.046215,11.81291 31.270482,12.95811 4.860087,0.4958 9.794264,-1.1137 14.393667,-2.7609 4.017005,-1.4386 11.244413,-6.11787 11.244413,-6.11787 l 0,22.69717 z"
       style="fill:#ffffff;stroke:none" />
    <path
       style="fill:none;stroke:#000000;stroke-width:0.99999988px;stroke-linecap:butt;stroke-linejoin:miter;stroke-opacity:1"
       d="m 71.009277,906.31783 9.608808,0 0,24.02938 c -2.441134,-6.29242 -16.568435,-9.85143 -25.752806,-9.80047 -10.921195,0.0606 -22.625264,4.41461 -30.4917,11.99291 -8.175045,7.87558 -13.544781,19.85361 -13.642421,31.20648 -0.09671,11.24431 5.020445,23.19398 12.978365,31.13607 7.987088,7.9712 20.046216,11.813 31.270483,12.9581 4.860086,0.4959 9.794263,-1.1137 14.393666,-2.7609 4.017005,-1.4386 11.244413,-6.11785 11.244413,-6.11785 l 0,22.69725 -9.608808,0 m 38.435233,0 -9.608806,0 0,-20.9189 c 0,0 7.639366,4.6428 11.940696,5.4177 9.36696,1.6876 19.77958,1.8686 28.48422,-1.9816 10.39744,-4.59903 20.16197,-13.1327 24.64491,-23.58327 4.32239,-10.0763 4.26098,-22.74915 0.10223,-32.89415 -4.19175,-10.2257 -13.21134,-19.13146 -23.34351,-23.53861 -9.86889,-4.29263 -21.73377,-3.19429 -32.2691,-0.99881 -3.45072,0.7191 -9.559512,4.52184 -9.559512,4.52184 0,0 0,4.84868 0,-21.36517 l 9.608822,0"
       id="path6384"
       inkscape:connector-curvature="0"
       sodipodi:nodetypes="cccaaaaaaccccccaaaaaaccc" />
    <path
       inkscape:connector-curvature="0"
       id="path5783"
       d="m 90.226894,888.90417 0,24.02938"
       style="fill:none;stroke:#000000;stroke-width:0.9992128;stroke-linecap:butt;stroke-linejoin:miter;stroke-miterlimit:4;stroke-opacity:1;stroke-dasharray:none;marker-start:url(#Arrow1Mstart);marker-end:none"
       sodipodi:nodetypes="cc" />
    <g
       id="g7186"
       transform="matrix(1.5887121,-0.54598756,0.54582064,1.589198,-408.07194,-506.28725)"
       inkscape:transform-center-x="-51.053421"
       inkscape:transform-center-y="-0.16415477">
      <path
         transform="matrix(1.2453674,0,0,1.2453674,-8.3785451,854.17141)"
         d="m 27.023406,57.350672 c 2.572095,4.161585 1.283559,9.620312 -2.878026,12.192407 -0.811434,0.501511 -1.698545,0.868667 -2.627063,1.087282"
         sodipodi:ry="8.8582678"
         sodipodi:rx="8.8582678"
         sodipodi:cy="62.007862"
         sodipodi:cx="19.48819"
         id="path6624"
         style="fill:none;stroke:#000000;stroke-width:0.47792888;marker-end:none"
         sodipodi:type="arc"
         sodipodi:start="5.7295946"
         sodipodi:end="7.6227477"
         sodipodi:open="true" />
      <path
         sodipodi:nodetypes="cc"
         inkscape:connector-curvature="0"
         id="path6998"
         d="m 25.714158,926.46853 -1.584615,-2.26315"
         style="fill:none;stroke:#000000;stroke-width:0.59472835;stroke-linecap:butt;stroke-linejoin:miter;stroke-miterlimit:4;stroke-opacity:1;stroke-dasharray:none;marker-end:url(#Arrow1Mend)" />
    </g>
    <g
       id="g3939"
       transform="matrix(1.3559097,0,0,1.3563244,-29.883221,-343.20926)"
       style="fill:#cccccc">
      <g
         inkscape:label="Gear8"
         transform="translate(61.95822,963.66082)"
         id="g3902"
         style="fill:#cccccc">
        <path
           inkscape:connector-curvature="0"
           style="fill:#cccccc;stroke:#000000;stroke-width:0.73739946"
           d="m 18.674,-4.005 4.723,-1.013 1.578,0.05 6.809,3.246 0,3.444 -6.809,3.246 -1.578,0.05 -4.723,-1.013 -2.638,6.368 4.056,2.623 1.081,1.151 2.52,7.11 -2.436,2.436 -7.11,-2.52 -1.151,-1.081 -2.623,-4.056 -6.368,2.638 1.013,4.723 -0.05,1.578 -3.246,6.809 -3.444,0 -3.246,-6.809 -0.05,-1.578 1.013,-4.723 -6.368,-2.638 -2.623,4.056 -1.151,1.081 -7.11,2.52 -2.436,-2.436 2.52,-7.11 1.081,-1.151 4.056,-2.623 -2.638,-6.368 -4.723,1.013 -1.578,-0.05 -6.809,-3.246 0,-3.444 6.809,-3.246 1.578,-0.05 4.723,1.013 2.638,-6.368 -4.056,-2.623 -1.081,-1.151 -2.52,-7.11 2.436,-2.436 7.11,2.52 1.151,1.081 2.623,4.056 6.368,-2.638 -1.013,-4.723 0.05,-1.578 3.246,-6.809 3.444,0 3.246,6.809 0.05,1.578 -1.013,4.723 6.368,2.638 2.623,-4.056 1.151,-1.081 7.11,-2.52 2.436,2.436 -2.52,7.11 -1.081,1.151 -4.056,2.623 z"
           id="path3904" />
      </g>
      <path
         transform="matrix(1.4999939,0,0,1.4999916,-28.346069,830.90618)"
         d="m 63.779528,88.582664 c 0,1.956915 -1.586392,3.543308 -3.543307,3.543308 -1.956914,0 -3.543307,-1.586393 -3.543307,-3.543308 0,-1.956914 1.586393,-3.543307 3.543307,-3.543307 1.956915,0 3.543307,1.586393 3.543307,3.543307 z"
         sodipodi:ry="3.5433071"
         sodipodi:rx="3.5433071"
         sodipodi:cy="88.582664"
         sodipodi:cx="60.236221"
         id="path3937"
         style="fill:#cccccc;stroke:#000000;stroke-width:0.34837967;stroke-linecap:butt;stroke-linejoin:round;stroke-miterlimit:4;stroke-opacity:1;stroke-dasharray:none;stroke-dashoffset:0"
         sodipodi:type="arc" />
    </g>
    <g
       id="g3944"
       transform="matrix(1.2565253,-0.50970009,0.50954426,1.2569096,-444.4801,-215.82698)">
      <g
         id="g3946"
         transform="translate(61.95822,963.66082)"
         inkscape:label="Gear8">
        <path
           id="path3948"
           d="m 18.674,-4.005 4.723,-1.013 1.578,0.05 6.809,3.246 0,3.444 -6.809,3.246 -1.578,0.05 -4.723,-1.013 -2.638,6.368 4.056,2.623 1.081,1.151 2.52,7.11 -2.436,2.436 -7.11,-2.52 -1.151,-1.081 -2.623,-4.056 -6.368,2.638 1.013,4.723 -0.05,1.578 -3.246,6.809 -3.444,0 -3.246,-6.809 -0.05,-1.578 1.013,-4.723 -6.368,-2.638 -2.623,4.056 -1.151,1.081 -7.11,2.52 -2.436,-2.436 2.52,-7.11 1.081,-1.151 4.056,-2.623 -2.638,-6.368 -4.723,1.013 -1.578,-0.05 -6.809,-3.246 0,-3.444 6.809,-3.246 1.578,-0.05 4.723,1.013 2.638,-6.368 -4.056,-2.623 -1.081,-1.151 -2.52,-7.11 2.436,-2.436 7.11,2.52 1.151,1.081 2.623,4.056 6.368,-2.638 -1.013,-4.723 0.05,-1.578 3.246,-6.809 3.444,0 3.246,6.809 0.05,1.578 -1.013,4.723 6.368,2.638 2.623,-4.056 1.151,-1.081 7.11,-2.52 2.436,2.436 -2.52,7.11 -1.081,1.151 -4.056,2.623 z"
           style="fill:#cccccc;stroke:#000000;stroke-width:0.73739946"
           inkscape:connector-curvature="0" />
      </g>
      <path
         sodipodi:type="arc"
         style="fill:none;stroke:#000000;stroke-width:0.34837967;stroke-linecap:butt;stroke-linejoin:round;stroke-miterlimit:4;stroke-opacity:1;stroke-dasharray:none;stroke-dashoffset:0"
         id="path3950"
         sodipodi:cx="60.236221"
         sodipodi:cy="88.582664"
         sodipodi:rx="3.5433071"
         sodipodi:ry="3.5433071"
         d="m 63.779528,88.582664 c 0,1.956915 -1.586392,3.543308 -3.543307,3.543308 -1.956914,0 -3.543307,-1.586393 -3.543307,-3.543308 0,-1.956914 1.586393,-3.543307 3.543307,-3.543307 1.956915,0 3.543307,1.586393 3.543307,3.543307 z"
         transform="matrix(1.4999939,0,0,1.4999916,-28.346069,830.90618)" />
    </g>
    <g
       inkscape:transform-center-y="-0.16415477"
       inkscape:transform-center-x="51.053428"
       transform="matrix(-1.5887121,-0.54598756,-0.54582064,1.589198,588.29118,-506.28725)"
       id="g5192">
      <path
         sodipodi:open="true"
         sodipodi:end="7.6227477"
         sodipodi:start="5.7295946"
         sodipodi:type="arc"
         style="fill:none;stroke:#000000;stroke-width:0.47792888;marker-end:none"
         id="path5194"
         sodipodi:cx="19.48819"
         sodipodi:cy="62.007862"
         sodipodi:rx="8.8582678"
         sodipodi:ry="8.8582678"
         d="m 27.023406,57.350672 c 2.572095,4.161585 1.283559,9.620312 -2.878026,12.192407 -0.811434,0.501511 -1.698545,0.868667 -2.627063,1.087282"
         transform="matrix(1.2453674,0,0,1.2453674,-8.3785451,854.17141)" />
      <path
         style="fill:none;stroke:#000000;stroke-width:0.59472835;stroke-linecap:butt;stroke-linejoin:miter;stroke-miterlimit:4;stroke-opacity:1;stroke-dasharray:none;marker-end:url(#Arrow1Mend)"
         d="m 25.714158,926.46853 -1.584615,-2.26315"
         id="path5196"
         inkscape:connector-curvature="0"
         sodipodi:nodetypes="cc" />
    </g>
    <path
       sodipodi:nodetypes="cc"
       style="fill:none;stroke:#000000;stroke-width:0.9992128;stroke-linecap:butt;stroke-linejoin:miter;stroke-miterlimit:4;stroke-opacity:1;stroke-dasharray:none;marker-start:url(#Arrow1Mstart);marker-end:none"
       d="m 90.226894,1014.3929 0,24.0293"
       id="path5198"
       inkscape:connector-curvature="0" />
    <g
       inkscape:transform-center-x="-24.465353"
       transform="matrix(1.3031006,2.8344675,-2.8346462,1.30314,2745.0625,-291.03445)"
       id="g5947"
       inkscape:transform-center-y="25.608149">
      <path
         sodipodi:open="true"
         sodipodi:end="6.1049168"
         sodipodi:start="5.7295946"
         sodipodi:type="arc"
         style="fill:none;stroke:#000000;stroke-width:0.25738478;marker-end:none"
         id="path5949"
         sodipodi:cx="19.48819"
         sodipodi:cy="62.007862"
         sodipodi:rx="8.8582678"
         sodipodi:ry="8.8582678"
         d="m 27.023406,57.350672 c 0.584365,0.945488 0.98557,1.992507 1.182667,3.086391"
         transform="matrix(1.2453674,0,0,1.2453674,-8.3785451,854.17141)" />
      <path
         style="fill:none;stroke:#000000;stroke-width:0.32028618;stroke-linecap:butt;stroke-linejoin:miter;stroke-miterlimit:4;stroke-opacity:1;stroke-dasharray:none;marker-end:url(#Arrow1Mend)"
         d="m 25.714158,926.46853 -0.50679,-1.11062"
         id="path5951"
         inkscape:connector-curvature="0"
         sodipodi:nodetypes="cc" />
    </g>
    <g
       inkscape:transform-center-y="-25.731632"
       id="g5953"
       transform="matrix(2.8430943,-1.2835342,1.2832395,2.8439974,-1112.3793,-1665.5935)"
       inkscape:transform-center-x="-26.94416">
      <path
         transform="matrix(1.2453674,0,0,1.2453674,-8.3785451,854.17141)"
         d="m 27.023406,57.350672 c 0.584365,0.945488 0.98557,1.992507 1.182667,3.086391"
         sodipodi:ry="8.8582678"
         sodipodi:rx="8.8582678"
         sodipodi:cy="62.007862"
         sodipodi:cx="19.48819"
         id="path5955"
         style="fill:none;stroke:#000000;stroke-width:0.25738478;marker-end:none"
         sodipodi:type="arc"
         sodipodi:start="5.7295946"
         sodipodi:end="6.1049168"
         sodipodi:open="true" />
      <path
         sodipodi:nodetypes="cc"
         inkscape:connector-curvature="0"
         id="path5957"
         d="m 25.714158,926.46853 -0.50679,-1.11062"
         style="fill:none;stroke:#000000;stroke-width:0.32028618;stroke-linecap:butt;stroke-linejoin:miter;stroke-miterlimit:4;stroke-opacity:1;stroke-dasharray:none;marker-end:url(#Arrow1Mend)" />
    </g>
    <g
       inkscape:transform-center-y="15.269957"
       id="g5959"
       transform="matrix(-2.303366,2.103773,2.1040519,2.3037536,-1870.8697,-1211.8542)"
       inkscape:transform-center-x="33.59705">
      <path
         transform="matrix(1.2453674,0,0,1.2453674,-8.3785451,854.17141)"
         d="m 27.023406,57.350672 c 0.584365,0.945488 0.98557,1.992507 1.182667,3.086391"
         sodipodi:ry="8.8582678"
         sodipodi:rx="8.8582678"
         sodipodi:cy="62.007862"
         sodipodi:cx="19.48819"
         id="path5961"
         style="fill:none;stroke:#000000;stroke-width:0.25738478;marker-end:none"
         sodipodi:type="arc"
         sodipodi:start="5.7295946"
         sodipodi:end="6.1049168"
         sodipodi:open="true" />
      <path
         sodipodi:nodetypes="cc"
         inkscape:connector-curvature="0"
         id="path5963"
         d="m 25.714158,926.46853 -0.50679,-1.11062"
         style="fill:none;stroke:#000000;stroke-width:0.32028618;stroke-linecap:butt;stroke-linejoin:miter;stroke-miterlimit:4;stroke-opacity:1;stroke-dasharray:none;marker-end:url(#Arrow1Mend)" />
    </g>
    <g
       inkscape:transform-center-x="13.98244"
       transform="matrix(-2.1566082,-2.2540105,-2.2538033,2.1574333,2185.4435,-1012.7474)"
       id="g5965"
       inkscape:transform-center-y="-33.345969">
      <path
         sodipodi:open="true"
         sodipodi:end="6.1049168"
         sodipodi:start="5.7295946"
         sodipodi:type="arc"
         style="fill:none;stroke:#000000;stroke-width:0.25738478;marker-end:none"
         id="path5967"
         sodipodi:cx="19.48819"
         sodipodi:cy="62.007862"
         sodipodi:rx="8.8582678"
         sodipodi:ry="8.8582678"
         d="m 27.023406,57.350672 c 0.584365,0.945488 0.98557,1.992507 1.182667,3.086391"
         transform="matrix(1.2453674,0,0,1.2453674,-8.3785451,854.17141)" />
      <path
         style="fill:none;stroke:#000000;stroke-width:0.32028618;stroke-linecap:butt;stroke-linejoin:miter;stroke-miterlimit:4;stroke-opacity:1;stroke-dasharray:none;marker-end:url(#Arrow1Mend)"
         d="m 25.714158,926.46853 -0.50679,-1.11062"
         id="path5969"
         inkscape:connector-curvature="0"
         sodipodi:nodetypes="cc" />
    </g>
    <g
       inkscape:transform-center-x="23.825545"
       transform="matrix(-1.0844256,-2.9251379,2.9252938,-1.0843965,-2583.9732,2016.8707)"
       id="g5971"
       inkscape:transform-center-y="-28.578681">
      <path
         transform="matrix(1.2453674,0,0,1.2453674,-8.3785451,854.17141)"
         style="fill:none;stroke:#000000;stroke-width:0.25738478;marker-end:none"
         d="m 29.321128,57.267957 c -1.165226,-0.02122 -2.13045,0.956676 -1.933353,2.05056"
         id="path5973"
         inkscape:connector-curvature="0"
         sodipodi:nodetypes="cc" />
      <path
         style="fill:none;stroke:#000000;stroke-width:0.32028618;stroke-linecap:butt;stroke-linejoin:miter;stroke-miterlimit:4;stroke-opacity:1;stroke-dasharray:none;marker-end:url(#Arrow1Mend)"
         d="m 28.754894,925.61483 0.753482,0.0994"
         id="path5975"
         inkscape:connector-curvature="0"
         sodipodi:nodetypes="cc" />
    </g>
    <g
       inkscape:transform-center-y="-23.848157"
       id="g5978"
       transform="matrix(2.9247643,-1.0845642,1.084258,2.9256674,-991.06832,-1683.8175)"
       inkscape:transform-center-x="-28.577867">
      <path
         sodipodi:nodetypes="cc"
         inkscape:connector-curvature="0"
         id="path5980"
         d="m 29.788149,57.525441 c -1.056635,-0.276211 -2.03742,0.667798 -2.400374,1.793076"
         style="fill:none;stroke:#000000;stroke-width:0.25738478;marker-end:none"
         transform="matrix(1.2453674,0,0,1.2453674,-8.3785451,854.17141)" />
      <path
         sodipodi:nodetypes="cc"
         inkscape:connector-curvature="0"
         id="path5982"
         d="m 28.640225,925.78243 0.89722,-0.005"
         style="fill:none;stroke:#000000;stroke-width:0.32028618;stroke-linecap:butt;stroke-linejoin:miter;stroke-miterlimit:4;stroke-opacity:1;stroke-dasharray:none;marker-end:url(#Arrow1Mend)" />
    </g>
  </g>
</svg>
