<?xml version="1.0" encoding="UTF-8" standalone="no"?>
<!-- Created with Inkscape (http://www.inkscape.org/) -->

<svg
   xmlns:ns0="http://www.iki.fi/pav/software/textext/"
   xmlns:dc="http://purl.org/dc/elements/1.1/"
   xmlns:cc="http://creativecommons.org/ns#"
   xmlns:rdf="http://www.w3.org/1999/02/22-rdf-syntax-ns#"
   xmlns:svg="http://www.w3.org/2000/svg"
   xmlns="http://www.w3.org/2000/svg"
   xmlns:sodipodi="http://sodipodi.sourceforge.net/DTD/sodipodi-0.dtd"
   xmlns:inkscape="http://www.inkscape.org/namespaces/inkscape"
   width="283.46457"
   height="180.70866"
   id="svg3041"
   version="1.1"
   inkscape:version="0.48.2 r9819"
   sodipodi:docname="Continuiteitsvergelijking.svg">
  <sodipodi:namedview
     id="base"
     pagecolor="#ffffff"
     bordercolor="#666666"
     borderopacity="1.0"
     inkscape:pageopacity="0.0"
     inkscape:pageshadow="2"
     inkscape:zoom="2.8"
     inkscape:cx="130.44669"
     inkscape:cy="104.5226"
     inkscape:document-units="mm"
     inkscape:current-layer="layer1"
     showgrid="true"
     inkscape:window-width="1280"
     inkscape:window-height="962"
     inkscape:window-x="-8"
     inkscape:window-y="-8"
     inkscape:window-maximized="1"
     units="mm">
    <inkscape:grid
       type="xygrid"
       id="grid2992"
       empspacing="5"
       visible="true"
       enabled="true"
       snapvisiblegridlinesonly="true"
       units="mm"
       spacingx="1mm"
       spacingy="1mm" />
  </sodipodi:namedview>
  <defs
     id="defs3043">
    <marker
       style="overflow:visible"
       id="Arrow1Mstart"
       refX="0.0"
       refY="0.0"
       orient="auto"
       inkscape:stockid="Arrow1Mstart">
      <path
         transform="scale(0.4) translate(10,0)"
         style="fill-rule:evenodd;stroke:#000000;stroke-width:1.0pt;marker-start:none"
         d="M 0.0,0.0 L 5.0,-5.0 L -12.5,0.0 L 5.0,5.0 L 0.0,0.0 z "
         id="path5742" />
    </marker>
    <inkscape:path-effect
       effect="skeletal"
       id="path-effect2997"
       is_visible="true"
       pattern="M 0,0 0,10 10,5 z"
       copytype="single_stretched"
       prop_scale="1"
       scale_y_rel="false"
       spacing="0"
       normal_offset="0"
       tang_offset="0"
       prop_units="false"
       vertical_pattern="false"
       fuse_tolerance="0" />
    <inkscape:path-effect
       effect="skeletal"
       id="path-effect2993"
       is_visible="true"
       pattern="M 0,0 0,10 10,5 z"
       copytype="single_stretched"
       prop_scale="1"
       scale_y_rel="false"
       spacing="0"
       normal_offset="0"
       tang_offset="0"
       prop_units="false"
       vertical_pattern="false"
       fuse_tolerance="0" />
    <inkscape:path-effect
       effect="spiro"
       id="path-effect2991"
       is_visible="true" />
    <marker
       inkscape:stockid="Arrow1Mend"
       orient="auto"
       refY="0"
       refX="0"
       id="Arrow1Mend"
       style="overflow:visible">
      <path
         id="path7391"
         d="M 0,0 5,-5 -12.5,0 5,5 0,0 z"
         style="fill-rule:evenodd;stroke:#000000;stroke-width:1pt;marker-start:none"
         transform="matrix(-0.4,0,0,-0.4,-4,0)"
         inkscape:connector-curvature="0" />
    </marker>
    <marker
       inkscape:stockid="Arrow1Lend"
       orient="auto"
       refY="0"
       refX="0"
       id="Arrow1Lend"
       style="overflow:visible">
      <path
         id="path5977"
         d="M 0,0 5,-5 -12.5,0 5,5 0,0 z"
         style="fill-rule:evenodd;stroke:#000000;stroke-width:1pt;marker-start:none"
         transform="matrix(-0.8,0,0,-0.8,-10,0)"
         inkscape:connector-curvature="0" />
    </marker>
    <marker
       style="overflow:visible"
       id="Arrow1Mend-1"
       refX="0"
       refY="0"
       orient="auto"
       inkscape:stockid="Arrow1Mend">
      <path
         transform="matrix(-0.4,0,0,-0.4,-4,0)"
         style="fill-rule:evenodd;stroke:#000000;stroke-width:1pt;marker-start:none"
         d="M 0,0 5,-5 -12.5,0 5,5 0,0 z"
         id="path3779"
         inkscape:connector-curvature="0" />
    </marker>
    <marker
       style="overflow:visible"
       id="Arrow1Mend-7"
       refX="0"
       refY="0"
       orient="auto"
       inkscape:stockid="Arrow1Mend">
      <path
         transform="matrix(-0.4,0,0,-0.4,-4,0)"
         style="fill-rule:evenodd;stroke:#000000;stroke-width:1pt;marker-start:none"
         d="M 0,0 5,-5 -12.5,0 5,5 0,0 z"
         id="path3779-4"
         inkscape:connector-curvature="0" />
    </marker>
  </defs>
  <metadata
     id="metadata3046">
    <rdf:RDF>
      <cc:Work
         rdf:about="">
        <dc:format>image/svg+xml</dc:format>
        <dc:type
           rdf:resource="http://purl.org/dc/dcmitype/StillImage" />
        <dc:title />
      </cc:Work>
    </rdf:RDF>
  </metadata>
  <g
     inkscape:label="Laag 1"
     inkscape:groupmode="layer"
     id="layer1"
     transform="translate(0,-871.65347)">
    <path
       style="fill:#b3b3b3;stroke:#000000;stroke-width:1;stroke-linecap:butt;stroke-linejoin:miter;stroke-miterlimit:4;stroke-opacity:1;stroke-dasharray:4, 4;stroke-dashoffset:0"
       d="m 88.582677,1016.9291 0,-106.29925 106.299213,0 0,106.29925 z"
       id="path3773"
       inkscape:connector-curvature="0"
       sodipodi:nodetypes="ccccc" />
    <path
       inkscape:connector-curvature="0"
       id="path4513"
       d="m 201.9685,963.77946 17.71654,0"
       style="fill:none;stroke:#000000;stroke-width:1.0629921;stroke-linecap:butt;stroke-linejoin:miter;stroke-miterlimit:4;stroke-opacity:1;stroke-dasharray:none;marker-start:none;marker-end:url(#Arrow1Mend);display:inline"
       sodipodi:nodetypes="cc" />
    <path
       sodipodi:nodetypes="cc"
       style="fill:none;stroke:#000000;stroke-width:1.0629921;stroke-linecap:butt;stroke-linejoin:miter;stroke-miterlimit:4;stroke-opacity:1;stroke-dasharray:none;marker-start:none;marker-end:url(#Arrow1Mend);display:inline"
       d="m 201.9685,963.77946 17.71654,0"
       id="path3837"
       inkscape:connector-curvature="0" />
    <path
       inkscape:connector-curvature="0"
       id="path4085"
       d="m 56.692913,963.77946 28.346462,0"
       style="fill:none;stroke:#000000;stroke-width:1.0629921;stroke-linecap:butt;stroke-linejoin:miter;stroke-miterlimit:4;stroke-opacity:1;stroke-dasharray:none;marker-start:none;marker-end:url(#Arrow1Mend);display:inline"
       sodipodi:nodetypes="cc" />
    <g
       id="g4412"
       transform="matrix(1.25,0,0,-1.25,-141.5936,1879.6134)"
       xml:space="preserve"
       stroke-miterlimit="10.433"
       font-style="normal"
       font-variant="normal"
       font-weight="normal"
       font-stretch="normal"
       font-size-adjust="none"
       letter-spacing="normal"
       word-spacing="normal"
       ns0:text="$\\Delta x$"
       ns0:preamble="D:\\Onderwijs\\FLUI\\Cursusmateriaal\\Fluidummechanica\\tex\\packages.tex"
       style="font-style:normal;font-variant:normal;font-weight:normal;font-stretch:normal;letter-spacing:normal;word-spacing:normal;text-anchor:start;fill:none;stroke:#000000;stroke-linecap:butt;stroke-linejoin:miter;stroke-miterlimit:10.43299961;stroke-opacity:1;stroke-dasharray:none;stroke-dashoffset:0">
<path
   style="fill:#000000;stroke-width:0"
   inkscape:connector-curvature="0"
   d="m 227.83,714.06 -0.01,0.01 0,0.01 -0.01,0.01 0,0.01 -0.01,0.01 -0.01,0.01 0,0.01 -0.01,0.01 0,0.01 -0.01,0.01 0,0.01 -0.01,0 0,0.01 -0.01,0.01 -0.01,0 0,0.01 -0.01,0 -0.01,0.01 0,0 -0.01,0.01 -0.01,0 -0.01,0 -0.01,0.01 -0.01,0 -0.01,0 -0.01,0 -0.01,0 -0.01,0.01 -0.02,0 -0.01,0 -0.01,0 -0.02,0 c -0.17,0 -0.19,-0.05 -0.26,-0.18 l -0.06,-0.82 2.68,-5.36 h -5.36 l 2.68,5.36 0.06,0.82 -3.36,-6.74 c -0.05,-0.09 -0.05,-0.11 -0.05,-0.12 0,-0.07 0.06,-0.07 0.22,-0.07 h 6.9 c 0.16,0 0.22,0 0.22,0.07 0,0.01 0,0.03 -0.05,0.12 z"
   id="path4414" />
<path
   style="fill:#000000;stroke-width:0"
   inkscape:connector-curvature="0"
   d="m 235.06,710.13 0,0.02 0.01,0.03 0.01,0.03 0.01,0.04 0.01,0.04 0.01,0.04 0.01,0.04 0.02,0.05 0.01,0.04 0.02,0.05 0.02,0.05 0.02,0.05 0.02,0.05 0.03,0.05 0.02,0.05 0.03,0.05 0.03,0.05 0.03,0.04 0.03,0.05 0.04,0.04 0.04,0.05 0.04,0.04 0.04,0.04 0.04,0.03 0.05,0.03 0.05,0.03 0.02,0.01 0.03,0.02 0.03,0.01 0.02,0.01 0.03,0.01 0.03,0 0.03,0.01 0.03,0.01 0.03,0 0.03,0 0.03,0.01 0.03,0 c 0.05,0 0.29,0 0.5,-0.13 -0.28,-0.05 -0.48,-0.3 -0.48,-0.54 0,-0.16 0.11,-0.35 0.38,-0.35 0.22,0 0.54,0.18 0.54,0.58 0,0.52 -0.59,0.66 -0.93,0.66 -0.57,0 -0.92,-0.53 -1.04,-0.76 -0.25,0.66 -0.79,0.76 -1.08,0.76 -1.03,0 -1.6,-1.29 -1.6,-1.53 0,-0.1 0.1,-0.1 0.12,-0.1 0.08,0 0.11,0.02 0.13,0.11 0.34,1.05 0.99,1.3 1.33,1.3 0.19,0 0.54,-0.09 0.54,-0.67 0,-0.31 -0.17,-0.97 -0.54,-2.36 -0.16,-0.62 -0.51,-1.04 -0.94,-1.04 -0.06,0 -0.29,0 -0.5,0.13 0.25,0.05 0.47,0.26 0.47,0.54 0,0.27 -0.22,0.35 -0.37,0.35 -0.3,0 -0.55,-0.26 -0.55,-0.58 0,-0.46 0.5,-0.65 0.94,-0.65 0.65,0 1.01,0.69 1.04,0.75 0.12,-0.37 0.48,-0.75 1.08,-0.75 1.02,0 1.59,1.28 1.59,1.53 0,0.1 -0.09,0.1 -0.12,0.1 -0.09,0 -0.11,-0.05 -0.13,-0.11 -0.33,-1.07 -1.01,-1.31 -1.32,-1.31 -0.39,0 -0.55,0.32 -0.55,0.66 0,0.22 0.06,0.44 0.17,0.87 z"
   id="path4416" />
</g>    <path
       inkscape:connector-curvature="0"
       id="path4458"
       d="m 141.73228,1038.1889 0,-17.7165"
       style="fill:none;stroke:#000000;stroke-width:1.0629921;stroke-linecap:butt;stroke-linejoin:miter;stroke-miterlimit:4;stroke-opacity:1;stroke-dasharray:none;marker-start:none;marker-end:url(#Arrow1Mend);display:inline"
       sodipodi:nodetypes="cc" />
    <path
       sodipodi:nodetypes="cc"
       style="fill:none;stroke:#000000;stroke-width:1.0629921;stroke-linecap:butt;stroke-linejoin:miter;stroke-miterlimit:4;stroke-opacity:1;stroke-dasharray:none;marker-start:none;marker-end:url(#Arrow1Mend);display:inline"
       d="m 141.73228,907.08653 0,-24.80314"
       id="path4460"
       inkscape:connector-curvature="0" />
    <g
       id="content"
       transform="matrix(1.25,0,0,-1.25,-221.62717,1835.2312)"
       xml:space="preserve"
       stroke-miterlimit="10.433"
       font-style="normal"
       font-variant="normal"
       font-weight="normal"
       font-stretch="normal"
       font-size-adjust="none"
       letter-spacing="normal"
       word-spacing="normal"
       ns0:text="$\\left.v_{x}\\right|_{x}$"
       ns0:preamble="D:\\Onderwijs\\FLUI\\Cursusmateriaal\\Fluidummechanica\\tex\\packages.tex"
       style="font-style:normal;font-variant:normal;font-weight:normal;font-stretch:normal;letter-spacing:normal;word-spacing:normal;text-anchor:start;fill:none;stroke:#000000;stroke-linecap:butt;stroke-linejoin:miter;stroke-miterlimit:10.43299961;stroke-opacity:1;stroke-dasharray:none;stroke-dashoffset:0">
<path
   style="fill:#000000;stroke-width:0"
   inkscape:connector-curvature="0"
   d="m 229.28,710.82 0,0.02 0,0.03 0,0.02 0,0.03 0,0.02 0,0.02 0,0.02 -0.01,0.02 0,0.04 -0.01,0.04 -0.01,0.04 -0.01,0.04 -0.01,0.03 -0.01,0.03 -0.01,0.03 -0.02,0.03 -0.01,0.02 -0.02,0.03 -0.01,0.02 -0.02,0.02 -0.01,0.02 -0.02,0.02 -0.02,0.01 -0.02,0.02 -0.01,0.01 -0.02,0.01 -0.02,0.01 -0.02,0.01 -0.02,0.01 -0.02,0.01 -0.01,0 -0.02,0.01 -0.02,0 -0.02,0 -0.02,0.01 -0.01,0 c -0.25,0 -0.49,-0.26 -0.49,-0.48 0,-0.13 0.05,-0.19 0.16,-0.3 0.21,-0.2 0.34,-0.46 0.34,-0.81 0,-0.42 -0.61,-2.7 -1.77,-2.7 -0.51,0 -0.74,0.35 -0.74,0.87 0,0.56 0.27,1.28 0.58,2.1 0.07,0.17 0.12,0.31 0.12,0.5 0,0.45 -0.32,0.82 -0.82,0.82 -0.94,0 -1.31,-1.44 -1.31,-1.53 0,-0.1 0.1,-0.1 0.12,-0.1 0.09,0 0.11,0.02 0.16,0.18 0.28,1 0.71,1.23 1,1.23 0.08,0 0.25,0 0.25,-0.32 0,-0.25 -0.1,-0.52 -0.17,-0.7 -0.44,-1.15 -0.57,-1.61 -0.57,-2.03 0,-1.08 0.88,-1.23 1.34,-1.23 1.67,0 2.23,3.28 2.23,3.8 z"
   id="path4623" />
<path
   style="fill:#000000;stroke-width:0"
   inkscape:connector-curvature="0"
   d="m 231.19,706.37 -0.01,-0.02 0,-0.03 -0.01,-0.02 -0.01,-0.03 -0.01,-0.02 -0.01,-0.03 -0.02,-0.02 -0.01,-0.03 -0.01,-0.02 -0.02,-0.03 -0.02,-0.02 -0.01,-0.03 -0.02,-0.02 -0.02,-0.03 -0.02,-0.02 -0.02,-0.03 -0.02,-0.02 -0.02,-0.02 -0.02,-0.02 -0.03,-0.02 -0.02,-0.02 -0.03,-0.02 -0.02,-0.02 -0.03,-0.01 -0.03,-0.02 -0.03,-0.01 -0.03,-0.01 -0.03,-0.01 -0.03,0 -0.03,-0.01 -0.03,0 -0.03,0 c -0.02,0 -0.23,0 -0.38,0.09 0.29,0.09 0.31,0.34 0.31,0.39 0,0.15 -0.12,0.25 -0.28,0.25 -0.2,0 -0.4,-0.16 -0.4,-0.42 0,-0.35 0.39,-0.51 0.73,-0.51 0.32,0 0.61,0.2 0.78,0.49 0.17,-0.36 0.55,-0.49 0.83,-0.49 0.8,0 1.23,0.87 1.23,1.07 0,0.09 -0.09,0.09 -0.11,0.09 -0.1,0 -0.11,-0.04 -0.14,-0.12 -0.14,-0.48 -0.56,-0.84 -0.95,-0.84 -0.28,0 -0.43,0.18 -0.43,0.45 0,0.18 0.17,0.81 0.37,1.58 0.14,0.54 0.45,0.71 0.68,0.71 0.01,0 0.23,0 0.37,-0.09 -0.22,-0.07 -0.3,-0.26 -0.3,-0.39 0,-0.15 0.12,-0.25 0.28,-0.25 0.16,0 0.39,0.13 0.39,0.42 0,0.39 -0.45,0.51 -0.73,0.51 -0.34,0 -0.62,-0.23 -0.78,-0.5 -0.12,0.29 -0.44,0.5 -0.83,0.5 -0.78,0 -1.23,-0.86 -1.23,-1.07 0,-0.09 0.1,-0.09 0.12,-0.09 0.09,0 0.1,0.03 0.13,0.12 0.18,0.54 0.62,0.84 0.96,0.84 0.23,0 0.41,-0.12 0.41,-0.46 0,-0.13 -0.08,-0.48 -0.14,-0.72 z"
   id="path4625" />
<path
   style="fill:#000000;stroke-width:0"
   inkscape:connector-curvature="0"
   d="m 236.05,714.22 0,0.03 0,0.03 0,0.04 0,0.01 0,0.02 0,0.01 0,0.02 0,0.02 -0.01,0.01 0,0.01 0,0.02 -0.01,0.01 0,0.01 0,0.02 -0.01,0.01 -0.01,0.01 0,0.01 -0.01,0.01 -0.01,0.01 -0.01,0.01 -0.01,0 -0.01,0.01 -0.01,0 0,0.01 -0.01,0 0,0 -0.01,0 -0.01,0.01 -0.01,0 0,0 -0.01,0 -0.01,0 -0.01,0 -0.01,0 0,0 -0.01,0.01 c -0.2,0 -0.2,-0.18 -0.2,-0.36 V 705 c 0,-0.18 0,-0.36 0.2,-0.36 0.19,0 0.19,0.18 0.19,0.36 z"
   id="path4627" />
<path
   style="fill:#000000;stroke-width:0"
   inkscape:connector-curvature="0"
   d="m 238.97,704.87 0,-0.02 -0.01,-0.02 -0.01,-0.03 -0.01,-0.02 -0.01,-0.03 -0.01,-0.02 -0.01,-0.03 -0.02,-0.02 -0.01,-0.03 -0.02,-0.02 -0.01,-0.03 -0.02,-0.02 -0.02,-0.03 -0.02,-0.02 -0.02,-0.03 -0.02,-0.02 -0.02,-0.02 -0.02,-0.03 -0.02,-0.02 -0.03,-0.02 -0.02,-0.02 -0.02,-0.01 -0.03,-0.02 -0.03,-0.02 -0.03,-0.01 -0.02,-0.01 -0.03,-0.01 -0.03,-0.01 -0.03,-0.01 -0.03,0 -0.04,-0.01 -0.03,0 c -0.02,0 -0.23,0 -0.38,0.1 0.29,0.09 0.31,0.34 0.31,0.38 0,0.15 -0.12,0.26 -0.28,0.26 -0.19,0 -0.4,-0.17 -0.4,-0.43 0,-0.34 0.39,-0.5 0.74,-0.5 0.32,0 0.6,0.2 0.78,0.49 0.16,-0.37 0.55,-0.49 0.82,-0.49 0.8,0 1.23,0.87 1.23,1.06 0,0.09 -0.09,0.09 -0.11,0.09 -0.1,0 -0.11,-0.03 -0.13,-0.12 -0.15,-0.48 -0.57,-0.84 -0.96,-0.84 -0.28,0 -0.42,0.19 -0.42,0.45 0,0.18 0.16,0.82 0.36,1.59 0.14,0.53 0.45,0.71 0.68,0.71 0.02,0 0.23,0 0.38,-0.1 -0.23,-0.06 -0.31,-0.26 -0.31,-0.38 0,-0.15 0.12,-0.26 0.28,-0.26 0.16,0 0.39,0.13 0.39,0.43 0,0.38 -0.45,0.5 -0.72,0.5 -0.35,0 -0.63,-0.23 -0.78,-0.49 -0.13,0.28 -0.45,0.49 -0.84,0.49 -0.78,0 -1.22,-0.85 -1.22,-1.06 0,-0.09 0.09,-0.09 0.11,-0.09 0.09,0 0.1,0.03 0.14,0.12 0.17,0.54 0.61,0.84 0.95,0.84 0.23,0 0.42,-0.13 0.42,-0.46 0,-0.14 -0.09,-0.49 -0.15,-0.72 z"
   id="path4629" />
</g>    <g
       id="g4863"
       transform="matrix(1.25,0,0,-1.25,-78.389075,1835.2312)"
       xml:space="preserve"
       stroke="black"
       stroke-linecap="butt"
       stroke-linejoin="miter"
       stroke-miterlimit="10.433"
       stroke-dasharray="none"
       stroke-dashoffset="0"
       stroke-opacity="1"
       fill="none"
       fill-rule="evenodd"
       fill-opacity="1"
       font-style="normal"
       font-variant="normal"
       font-weight="normal"
       font-stretch="normal"
       font-size-adjust="none"
       letter-spacing="normal"
       word-spacing="normal"
       text-anchor="start"
       ns0:text="$\\left.v_{x}\\right|_{x+\\Delta x}$"
       ns0:preamble="D:\\Onderwijs\\FLUI\\Cursusmateriaal\\Fluidummechanica\\tex\\packages.tex"
       style="font-style:normal;font-variant:normal;font-weight:normal;font-stretch:normal;letter-spacing:normal;word-spacing:normal;text-anchor:start;fill:none;stroke:#000000;stroke-linecap:butt;stroke-linejoin:miter;stroke-miterlimit:10.43299961;stroke-opacity:1;stroke-dasharray:none;stroke-dashoffset:0">
<path
   d="M229.28,710.82 L229.28,710.84 L229.28,710.87 L229.28,710.89 L229.28,710.92 L229.28,710.94 L229.28,710.96 L229.28,710.98 L229.27,711 L229.27,711.04 L229.26,711.08 L229.25,711.12 L229.24,711.16 L229.23,711.19 L229.22,711.22 L229.21,711.25 L229.19,711.28 L229.18,711.3 L229.16,711.33 L229.15,711.35 L229.13,711.37 L229.12,711.39 L229.1,711.41 L229.08,711.42 L229.06,711.44 L229.05,711.45 L229.03,711.46 L229.01,711.47 L228.99,711.48 L228.97,711.49 L228.95,711.5 L228.94,711.5 L228.92,711.51 L228.9,711.51 L228.88,711.51 L228.86,711.52 L228.85,711.52 C228.6,711.52,228.36,711.26,228.36,711.04 C228.36,710.91,228.41,710.85,228.52,710.74 C228.73,710.54,228.86,710.28,228.86,709.93 C228.86,709.51,228.25,707.23,227.09,707.23 C226.58,707.23,226.35,707.58,226.35,708.1 C226.35,708.66,226.62,709.38,226.93,710.2 C227,710.37,227.05,710.51,227.05,710.7 C227.05,711.15,226.73,711.52,226.23,711.52 C225.29,711.52,224.92,710.08,224.92,709.99 C224.92,709.89,225.02,709.89,225.04,709.89 C225.13,709.89,225.15,709.91,225.2,710.07 C225.48,711.07,225.91,711.3,226.2,711.3 C226.28,711.3,226.45,711.3,226.45,710.98 C226.45,710.73,226.35,710.46,226.28,710.28 C225.84,709.13,225.71,708.67,225.71,708.25 C225.71,707.17,226.59,707.02,227.05,707.02 C228.72,707.02,229.28,710.3,229.28,710.82 Z "
   stroke-width="0"
   fill="black"
   id="path4865" />
<path
   d="M231.19,706.37 L231.18,706.35 L231.18,706.32 L231.17,706.3 L231.16,706.27 L231.15,706.25 L231.14,706.22 L231.12,706.2 L231.11,706.17 L231.1,706.15 L231.08,706.12 L231.06,706.1 L231.05,706.07 L231.03,706.05 L231.01,706.02 L230.99,706 L230.97,705.97 L230.95,705.95 L230.93,705.93 L230.91,705.91 L230.88,705.89 L230.86,705.87 L230.83,705.85 L230.81,705.83 L230.78,705.82 L230.75,705.8 L230.72,705.79 L230.69,705.78 L230.66,705.77 L230.63,705.77 L230.6,705.76 L230.57,705.76 L230.54,705.76 C230.52,705.76,230.31,705.76,230.16,705.85 C230.45,705.94,230.47,706.19,230.47,706.24 C230.47,706.39,230.35,706.49,230.19,706.49 C229.99,706.49,229.79,706.33,229.79,706.07 C229.79,705.72,230.18,705.56,230.52,705.56 C230.84,705.56,231.13,705.76,231.3,706.05 C231.47,705.69,231.85,705.56,232.13,705.56 C232.93,705.56,233.36,706.43,233.36,706.63 C233.36,706.72,233.27,706.72,233.25,706.72 C233.15,706.72,233.14,706.68,233.11,706.6 C232.97,706.12,232.55,705.76,232.16,705.76 C231.88,705.76,231.73,705.94,231.73,706.21 C231.73,706.39,231.9,707.02,232.1,707.79 C232.24,708.33,232.55,708.5,232.78,708.5 C232.79,708.5,233.01,708.5,233.15,708.41 C232.93,708.34,232.85,708.15,232.85,708.02 C232.85,707.87,232.97,707.77,233.13,707.77 C233.29,707.77,233.52,707.9,233.52,708.19 C233.52,708.58,233.07,708.7,232.79,708.7 C232.45,708.7,232.17,708.47,232.01,708.2 C231.89,708.49,231.57,708.7,231.18,708.7 C230.4,708.7,229.95,707.84,229.95,707.63 C229.95,707.54,230.05,707.54,230.07,707.54 C230.16,707.54,230.17,707.57,230.2,707.66 C230.38,708.2,230.82,708.5,231.16,708.5 C231.39,708.5,231.57,708.38,231.57,708.04 C231.57,707.91,231.49,707.56,231.43,707.32 Z "
   stroke-width="0"
   fill="black"
   id="path4867" />
<path
   d="M236.05,714.22 L236.05,714.25 L236.05,714.28 L236.05,714.32 L236.05,714.33 L236.05,714.35 L236.05,714.36 L236.05,714.38 L236.05,714.4 L236.04,714.41 L236.04,714.42 L236.04,714.44 L236.03,714.45 L236.03,714.46 L236.03,714.48 L236.02,714.49 L236.01,714.5 L236.01,714.51 L236,714.52 L235.99,714.53 L235.98,714.54 L235.97,714.54 L235.96,714.55 L235.95,714.55 L235.95,714.56 L235.94,714.56 L235.94,714.56 L235.93,714.56 L235.92,714.57 L235.91,714.57 L235.91,714.57 L235.9,714.57 L235.89,714.57 L235.88,714.57 L235.87,714.57 L235.87,714.57 L235.86,714.58 C235.66,714.58,235.66,714.4,235.66,714.22 V705 C235.66,704.82,235.66,704.64,235.86,704.64 C236.05,704.64,236.05,704.82,236.05,705 Z "
   stroke-width="0"
   fill="black"
   id="path4869" />
<path
   d="M238.97,704.87 L238.97,704.85 L238.96,704.83 L238.95,704.8 L238.94,704.78 L238.93,704.75 L238.92,704.73 L238.91,704.7 L238.89,704.68 L238.88,704.65 L238.86,704.63 L238.85,704.6 L238.83,704.58 L238.81,704.55 L238.79,704.53 L238.77,704.5 L238.75,704.48 L238.73,704.46 L238.71,704.43 L238.69,704.41 L238.66,704.39 L238.64,704.37 L238.62,704.36 L238.59,704.34 L238.56,704.32 L238.53,704.31 L238.51,704.3 L238.48,704.29 L238.45,704.28 L238.42,704.27 L238.39,704.27 L238.35,704.26 L238.32,704.26 C238.3,704.26,238.09,704.26,237.94,704.36 C238.23,704.45,238.25,704.7,238.25,704.74 C238.25,704.89,238.13,705,237.97,705 C237.78,705,237.57,704.83,237.57,704.57 C237.57,704.23,237.96,704.07,238.31,704.07 C238.63,704.07,238.91,704.27,239.09,704.56 C239.25,704.19,239.64,704.07,239.91,704.07 C240.71,704.07,241.14,704.94,241.14,705.13 C241.14,705.22,241.05,705.22,241.03,705.22 C240.93,705.22,240.92,705.19,240.9,705.1 C240.75,704.62,240.33,704.26,239.94,704.26 C239.66,704.26,239.52,704.45,239.52,704.71 C239.52,704.89,239.68,705.53,239.88,706.3 C240.02,706.83,240.33,707.01,240.56,707.01 C240.58,707.01,240.79,707.01,240.94,706.91 C240.71,706.85,240.63,706.65,240.63,706.53 C240.63,706.38,240.75,706.27,240.91,706.27 C241.07,706.27,241.3,706.4,241.3,706.7 C241.3,707.08,240.85,707.2,240.58,707.2 C240.23,707.2,239.95,706.97,239.8,706.71 C239.67,706.99,239.35,707.2,238.96,707.2 C238.18,707.2,237.74,706.35,237.74,706.14 C237.74,706.05,237.83,706.05,237.85,706.05 C237.94,706.05,237.95,706.08,237.99,706.17 C238.16,706.71,238.6,707.01,238.94,707.01 C239.17,707.01,239.36,706.88,239.36,706.55 C239.36,706.41,239.27,706.06,239.21,705.83 Z "
   stroke-width="0"
   fill="black"
   id="path4871" />
<path
   d="M244.98,705.71 H247.11 C247.2,705.71,247.37,705.71,247.37,705.87 C247.37,706.05,247.21,706.05,247.11,706.05 H244.98 V708.18 C244.98,708.27,244.98,708.44,244.82,708.44 C244.64,708.44,244.64,708.28,244.64,708.18 V706.05 H242.5 C242.41,706.05,242.25,706.05,242.25,705.88 C242.25,705.71,242.41,705.71,242.5,705.71 H244.64 V703.57 C244.64,703.48,244.64,703.32,244.81,703.32 C244.98,703.32,244.98,703.47,244.98,703.57 Z "
   stroke-width="0"
   fill="black"
   id="path4873" />
<path
   d="M251.36,708.93 L251.36,708.95 L251.35,708.96 L251.34,708.97 L251.34,708.98 L251.33,708.99 L251.33,709 L251.32,709 L251.32,709.01 L251.31,709.02 L251.31,709.03 L251.3,709.03 L251.3,709.04 L251.29,709.05 L251.29,709.05 L251.28,709.06 L251.27,709.06 L251.27,709.07 L251.26,709.07 L251.26,709.07 L251.25,709.08 L251.24,709.08 L251.23,709.08 L251.23,709.08 L251.22,709.09 L251.21,709.09 L251.2,709.09 L251.19,709.09 L251.18,709.09 L251.17,709.09 L251.16,709.09 L251.15,709.09 L251.13,709.09 C251.05,709.09,250.98,709.07,250.92,708.96 L250.9,708.41 L252.95,704.71 H248.86 L250.9,708.41 L250.92,708.96 L248.35,704.3 C248.3,704.23,248.3,704.21,248.3,704.21 C248.3,704.14,248.35,704.14,248.47,704.14 H253.81 C253.92,704.14,253.98,704.14,253.98,704.21 C253.98,704.21,253.98,704.23,253.93,704.3 Z "
   stroke-width="0"
   fill="black"
   id="path4875" />
<path
   d="M256.15,704.87 L256.15,704.85 L256.14,704.83 L256.13,704.8 L256.12,704.78 L256.11,704.75 L256.1,704.73 L256.08,704.7 L256.07,704.68 L256.06,704.65 L256.04,704.63 L256.03,704.6 L256.01,704.58 L255.99,704.55 L255.97,704.53 L255.95,704.5 L255.93,704.48 L255.91,704.46 L255.89,704.43 L255.87,704.41 L255.84,704.39 L255.82,704.37 L255.79,704.36 L255.77,704.34 L255.74,704.32 L255.71,704.31 L255.69,704.3 L255.66,704.29 L255.63,704.28 L255.6,704.27 L255.56,704.27 L255.53,704.26 L255.5,704.26 C255.48,704.26,255.27,704.26,255.12,704.36 C255.41,704.45,255.43,704.7,255.43,704.74 C255.43,704.89,255.31,705,255.15,705 C254.96,705,254.75,704.83,254.75,704.57 C254.75,704.23,255.14,704.07,255.49,704.07 C255.8,704.07,256.09,704.27,256.27,704.56 C256.43,704.19,256.82,704.07,257.09,704.07 C257.89,704.07,258.32,704.94,258.32,705.13 C258.32,705.22,258.23,705.22,258.21,705.22 C258.11,705.22,258.1,705.19,258.08,705.1 C257.93,704.62,257.51,704.26,257.12,704.26 C256.84,704.26,256.7,704.45,256.7,704.71 C256.7,704.89,256.86,705.53,257.06,706.3 C257.2,706.83,257.51,707.01,257.74,707.01 C257.76,707.01,257.97,707.01,258.12,706.91 C257.89,706.85,257.81,706.65,257.81,706.53 C257.81,706.38,257.93,706.27,258.09,706.27 C258.25,706.27,258.48,706.4,258.48,706.7 C258.48,707.08,258.03,707.2,257.76,707.2 C257.41,707.2,257.13,706.97,256.98,706.71 C256.85,706.99,256.53,707.2,256.14,707.2 C255.36,707.2,254.91,706.35,254.91,706.14 C254.91,706.05,255.01,706.05,255.03,706.05 C255.12,706.05,255.13,706.08,255.16,706.17 C255.34,706.71,255.78,707.01,256.12,707.01 C256.35,707.01,256.54,706.88,256.54,706.55 C256.54,706.41,256.45,706.06,256.39,705.83 Z "
   stroke-width="0"
   fill="black"
   id="path4877" />
</g>    <g
       id="g5327"
       transform="matrix(1.25,0,0,-1.25,-165.99675,1916.3523)"
       xml:space="preserve"
       stroke="black"
       stroke-linecap="butt"
       stroke-linejoin="miter"
       stroke-miterlimit="10.433"
       stroke-dasharray="none"
       stroke-dashoffset="0"
       stroke-opacity="1"
       fill="none"
       fill-rule="evenodd"
       fill-opacity="1"
       font-style="normal"
       font-variant="normal"
       font-weight="normal"
       font-stretch="normal"
       font-size-adjust="none"
       letter-spacing="normal"
       word-spacing="normal"
       text-anchor="start"
       ns0:text="$\\left.v_{y}\\right|_{y}$"
       ns0:preamble="D:\\Onderwijs\\FLUI\\Cursusmateriaal\\Fluidummechanica\\tex\\packages.tex"
       style="font-style:normal;font-variant:normal;font-weight:normal;font-stretch:normal;letter-spacing:normal;word-spacing:normal;text-anchor:start;fill:none;stroke:#000000;stroke-linecap:butt;stroke-linejoin:miter;stroke-miterlimit:10.43299961;stroke-opacity:1;stroke-dasharray:none;stroke-dashoffset:0">
<path
   d="M229.28,710.82 L229.28,710.84 L229.28,710.87 L229.28,710.89 L229.28,710.92 L229.28,710.94 L229.28,710.96 L229.28,710.98 L229.27,711 L229.27,711.04 L229.26,711.08 L229.25,711.12 L229.24,711.16 L229.23,711.19 L229.22,711.22 L229.21,711.25 L229.19,711.28 L229.18,711.3 L229.16,711.33 L229.15,711.35 L229.13,711.37 L229.12,711.39 L229.1,711.41 L229.08,711.42 L229.06,711.44 L229.05,711.45 L229.03,711.46 L229.01,711.47 L228.99,711.48 L228.97,711.49 L228.95,711.5 L228.94,711.5 L228.92,711.51 L228.9,711.51 L228.88,711.51 L228.86,711.52 L228.85,711.52 C228.6,711.52,228.36,711.26,228.36,711.04 C228.36,710.91,228.41,710.85,228.52,710.74 C228.73,710.54,228.86,710.28,228.86,709.93 C228.86,709.51,228.25,707.23,227.09,707.23 C226.58,707.23,226.35,707.58,226.35,708.1 C226.35,708.66,226.62,709.38,226.93,710.2 C227,710.37,227.05,710.51,227.05,710.7 C227.05,711.15,226.73,711.52,226.23,711.52 C225.29,711.52,224.92,710.08,224.92,709.99 C224.92,709.89,225.02,709.89,225.04,709.89 C225.13,709.89,225.15,709.91,225.2,710.07 C225.48,711.07,225.91,711.3,226.2,711.3 C226.28,711.3,226.45,711.3,226.45,710.98 C226.45,710.73,226.35,710.46,226.28,710.28 C225.84,709.13,225.71,708.67,225.71,708.25 C225.71,707.17,226.59,707.02,227.05,707.02 C228.72,707.02,229.28,710.3,229.28,710.82 Z "
   stroke-width="0"
   fill="black"
   id="path5329" />
<path
   d="M233.33,708.25 L233.33,708.26 L233.33,708.26 L233.33,708.27 L233.33,708.27 L233.34,708.27 L233.34,708.28 L233.34,708.29 L233.34,708.29 L233.34,708.3 L233.34,708.31 L233.35,708.31 L233.35,708.32 L233.35,708.32 L233.35,708.33 L233.35,708.33 L233.35,708.34 L233.35,708.34 L233.35,708.35 L233.35,708.35 L233.35,708.35 L233.35,708.36 L233.36,708.36 L233.36,708.36 L233.36,708.37 L233.36,708.38 L233.36,708.38 L233.36,708.39 L233.36,708.39 L233.36,708.4 L233.36,708.4 L233.36,708.41 C233.36,708.54,233.25,708.63,233.13,708.63 C233.05,708.63,232.92,708.59,232.84,708.46 C232.82,708.42,232.76,708.2,232.73,708.06 L232.58,707.48 C232.54,707.31,232.33,706.44,232.3,706.36 C232.3,706.36,231.99,705.76,231.45,705.76 C230.98,705.76,230.98,706.21,230.98,706.33 C230.98,706.71,231.13,707.15,231.34,707.68 C231.43,707.91,231.46,707.99,231.46,708.11 C231.46,708.44,231.18,708.7,230.8,708.7 C230.1,708.7,229.78,707.75,229.78,707.63 C229.78,707.54,229.88,707.54,229.9,707.54 C230,707.54,230.01,707.58,230.03,707.65 C230.2,708.23,230.5,708.5,230.78,708.5 C230.9,708.5,230.95,708.43,230.95,708.26 C230.95,708.1,230.89,707.95,230.86,707.86 C230.52,707.01,230.45,706.75,230.45,706.45 C230.45,706.33,230.45,706,230.73,705.78 C230.94,705.6,231.23,705.56,231.42,705.56 C231.7,705.56,231.95,705.67,232.18,705.87 C232.09,705.49,232.01,705.2,231.72,704.85 C231.53,704.64,231.25,704.41,230.88,704.41 C230.84,704.41,230.51,704.41,230.36,704.64 C230.74,704.68,230.74,705.01,230.74,705.02 C230.74,705.24,230.54,705.28,230.47,705.28 C230.29,705.28,230.06,705.14,230.06,704.82 C230.06,704.47,230.4,704.21,230.89,704.21 C231.6,704.21,232.45,704.76,232.67,705.62 Z "
   stroke-width="0"
   fill="black"
   id="path5331" />
<path
   d="M235.83,714.22 L235.83,714.25 L235.83,714.28 L235.83,714.32 L235.83,714.33 L235.82,714.35 L235.82,714.36 L235.82,714.38 L235.82,714.4 L235.82,714.41 L235.81,714.42 L235.81,714.44 L235.81,714.45 L235.8,714.46 L235.8,714.48 L235.79,714.49 L235.79,714.5 L235.78,714.51 L235.77,714.52 L235.76,714.53 L235.75,714.54 L235.74,714.54 L235.73,714.55 L235.73,714.55 L235.72,714.56 L235.71,714.56 L235.71,714.56 L235.7,714.56 L235.69,714.57 L235.69,714.57 L235.68,714.57 L235.67,714.57 L235.66,714.57 L235.66,714.57 L235.65,714.57 L235.64,714.57 L235.63,714.58 C235.43,714.58,235.43,714.4,235.43,714.22 V705 C235.43,704.82,235.43,704.64,235.63,704.64 C235.83,704.64,235.83,704.82,235.83,705 Z "
   stroke-width="0"
   fill="black"
   id="path5333" />
<path
   d="M240.88,706.4 L240.89,706.4 L240.89,706.41 L240.89,706.41 L240.89,706.42 L240.89,706.42 L240.89,706.42 L240.89,706.43 L240.9,706.44 L240.9,706.45 L240.9,706.45 L240.9,706.46 L240.9,706.46 L240.9,706.47 L240.91,706.47 L240.91,706.48 L240.91,706.48 L240.91,706.49 L240.91,706.49 L240.91,706.5 L240.91,706.5 L240.91,706.5 L240.91,706.51 L240.91,706.51 L240.91,706.52 L240.91,706.52 L240.91,706.53 L240.91,706.54 L240.91,706.54 L240.91,706.54 L240.91,706.55 L240.91,706.55 C240.91,706.69,240.8,706.77,240.68,706.77 C240.61,706.77,240.47,706.74,240.4,706.61 C240.38,706.57,240.32,706.34,240.29,706.2 L240.14,705.63 C240.1,705.46,239.88,704.58,239.86,704.51 C239.85,704.51,239.55,703.9,239.01,703.9 C238.53,703.9,238.53,704.35,238.53,704.48 C238.53,704.85,238.69,705.29,238.9,705.83 C238.98,706.05,239.02,706.13,239.02,706.25 C239.02,706.59,238.73,706.84,238.36,706.84 C237.65,706.84,237.34,705.9,237.34,705.78 C237.34,705.69,237.44,705.69,237.46,705.69 C237.56,705.69,237.56,705.72,237.58,705.8 C237.76,706.38,238.06,706.65,238.34,706.65 C238.46,706.65,238.51,706.57,238.51,706.41 C238.51,706.25,238.45,706.09,238.41,706 C238.08,705.15,238.01,704.9,238.01,704.59 C238.01,704.47,238.01,704.15,238.28,703.92 C238.5,703.74,238.79,703.71,238.98,703.71 C239.26,703.71,239.51,703.81,239.74,704.02 C239.65,703.64,239.57,703.35,239.28,703 C239.09,702.78,238.81,702.55,238.44,702.55 C238.39,702.55,238.07,702.55,237.92,702.78 C238.29,702.82,238.29,703.16,238.29,703.16 C238.29,703.39,238.09,703.43,238.02,703.43 C237.85,703.43,237.62,703.29,237.62,702.97 C237.62,702.62,237.95,702.36,238.45,702.36 C239.15,702.36,240.01,702.9,240.22,703.77 Z "
   stroke-width="0"
   fill="black"
   id="path5335" />
</g>    <g
       id="g5643"
       transform="matrix(1.25,0,0,-1.25,-189.7624,1778.7883)"
       xml:space="preserve"
       stroke="black"
       stroke-linecap="butt"
       stroke-linejoin="miter"
       stroke-miterlimit="10.433"
       stroke-dasharray="none"
       stroke-dashoffset="0"
       stroke-opacity="1"
       fill="none"
       fill-rule="evenodd"
       fill-opacity="1"
       font-style="normal"
       font-variant="normal"
       font-weight="normal"
       font-stretch="normal"
       font-size-adjust="none"
       letter-spacing="normal"
       word-spacing="normal"
       text-anchor="start"
       ns0:text="$\\left.v_{y}\\right|_{y+\\Delta y}$"
       ns0:preamble="D:\\Onderwijs\\FLUI\\Cursusmateriaal\\Fluidummechanica\\tex\\packages.tex"
       style="font-style:normal;font-variant:normal;font-weight:normal;font-stretch:normal;letter-spacing:normal;word-spacing:normal;text-anchor:start;fill:none;stroke:#000000;stroke-linecap:butt;stroke-linejoin:miter;stroke-miterlimit:10.43299961;stroke-opacity:1;stroke-dasharray:none;stroke-dashoffset:0">
<path
   d="M229.28,710.82 L229.28,710.84 L229.28,710.87 L229.28,710.89 L229.28,710.92 L229.28,710.94 L229.28,710.96 L229.28,710.98 L229.27,711 L229.27,711.04 L229.26,711.08 L229.25,711.12 L229.24,711.16 L229.23,711.19 L229.22,711.22 L229.21,711.25 L229.19,711.28 L229.18,711.3 L229.16,711.33 L229.15,711.35 L229.13,711.37 L229.12,711.39 L229.1,711.41 L229.08,711.42 L229.06,711.44 L229.05,711.45 L229.03,711.46 L229.01,711.47 L228.99,711.48 L228.97,711.49 L228.95,711.5 L228.94,711.5 L228.92,711.51 L228.9,711.51 L228.88,711.51 L228.86,711.52 L228.85,711.52 C228.6,711.52,228.36,711.26,228.36,711.04 C228.36,710.91,228.41,710.85,228.52,710.74 C228.73,710.54,228.86,710.28,228.86,709.93 C228.86,709.51,228.25,707.23,227.09,707.23 C226.58,707.23,226.35,707.58,226.35,708.1 C226.35,708.66,226.62,709.38,226.93,710.2 C227,710.37,227.05,710.51,227.05,710.7 C227.05,711.15,226.73,711.52,226.23,711.52 C225.29,711.52,224.92,710.08,224.92,709.99 C224.92,709.89,225.02,709.89,225.04,709.89 C225.13,709.89,225.15,709.91,225.2,710.07 C225.48,711.07,225.91,711.3,226.2,711.3 C226.28,711.3,226.45,711.3,226.45,710.98 C226.45,710.73,226.35,710.46,226.28,710.28 C225.84,709.13,225.71,708.67,225.71,708.25 C225.71,707.17,226.59,707.02,227.05,707.02 C228.72,707.02,229.28,710.3,229.28,710.82 Z "
   stroke-width="0"
   fill="black"
   id="path5645" />
<path
   d="M233.33,708.25 L233.33,708.26 L233.33,708.26 L233.33,708.27 L233.33,708.27 L233.34,708.27 L233.34,708.28 L233.34,708.29 L233.34,708.29 L233.34,708.3 L233.34,708.31 L233.35,708.31 L233.35,708.32 L233.35,708.32 L233.35,708.33 L233.35,708.33 L233.35,708.34 L233.35,708.34 L233.35,708.35 L233.35,708.35 L233.35,708.35 L233.35,708.36 L233.36,708.36 L233.36,708.36 L233.36,708.37 L233.36,708.38 L233.36,708.38 L233.36,708.39 L233.36,708.39 L233.36,708.4 L233.36,708.4 L233.36,708.41 C233.36,708.54,233.25,708.63,233.13,708.63 C233.05,708.63,232.92,708.59,232.84,708.46 C232.82,708.42,232.76,708.2,232.73,708.06 L232.58,707.48 C232.54,707.31,232.33,706.44,232.3,706.36 C232.3,706.36,231.99,705.76,231.45,705.76 C230.98,705.76,230.98,706.21,230.98,706.33 C230.98,706.71,231.13,707.15,231.34,707.68 C231.43,707.91,231.46,707.99,231.46,708.11 C231.46,708.44,231.18,708.7,230.8,708.7 C230.1,708.7,229.78,707.75,229.78,707.63 C229.78,707.54,229.88,707.54,229.9,707.54 C230,707.54,230.01,707.58,230.03,707.65 C230.2,708.23,230.5,708.5,230.78,708.5 C230.9,708.5,230.95,708.43,230.95,708.26 C230.95,708.1,230.89,707.95,230.86,707.86 C230.52,707.01,230.45,706.75,230.45,706.45 C230.45,706.33,230.45,706,230.73,705.78 C230.94,705.6,231.23,705.56,231.42,705.56 C231.7,705.56,231.95,705.67,232.18,705.87 C232.09,705.49,232.01,705.2,231.72,704.85 C231.53,704.64,231.25,704.41,230.88,704.41 C230.84,704.41,230.51,704.41,230.36,704.64 C230.74,704.68,230.74,705.01,230.74,705.02 C230.74,705.24,230.54,705.28,230.47,705.28 C230.29,705.28,230.06,705.14,230.06,704.82 C230.06,704.47,230.4,704.21,230.89,704.21 C231.6,704.21,232.45,704.76,232.67,705.62 Z "
   stroke-width="0"
   fill="black"
   id="path5647" />
<path
   d="M235.83,714.22 L235.83,714.25 L235.83,714.28 L235.83,714.32 L235.83,714.33 L235.82,714.35 L235.82,714.36 L235.82,714.38 L235.82,714.4 L235.82,714.41 L235.81,714.42 L235.81,714.44 L235.81,714.45 L235.8,714.46 L235.8,714.48 L235.79,714.49 L235.79,714.5 L235.78,714.51 L235.77,714.52 L235.76,714.53 L235.75,714.54 L235.74,714.54 L235.73,714.55 L235.73,714.55 L235.72,714.56 L235.71,714.56 L235.71,714.56 L235.7,714.56 L235.69,714.57 L235.69,714.57 L235.68,714.57 L235.67,714.57 L235.66,714.57 L235.66,714.57 L235.65,714.57 L235.64,714.57 L235.63,714.58 C235.43,714.58,235.43,714.4,235.43,714.22 V705 C235.43,704.82,235.43,704.64,235.63,704.64 C235.83,704.64,235.83,704.82,235.83,705 Z "
   stroke-width="0"
   fill="black"
   id="path5649" />
<path
   d="M240.88,706.4 L240.89,706.4 L240.89,706.41 L240.89,706.41 L240.89,706.42 L240.89,706.42 L240.89,706.42 L240.89,706.43 L240.9,706.44 L240.9,706.45 L240.9,706.45 L240.9,706.46 L240.9,706.46 L240.9,706.47 L240.91,706.47 L240.91,706.48 L240.91,706.48 L240.91,706.49 L240.91,706.49 L240.91,706.5 L240.91,706.5 L240.91,706.5 L240.91,706.51 L240.91,706.51 L240.91,706.52 L240.91,706.52 L240.91,706.53 L240.91,706.54 L240.91,706.54 L240.91,706.54 L240.91,706.55 L240.91,706.55 C240.91,706.69,240.8,706.77,240.68,706.77 C240.61,706.77,240.47,706.74,240.4,706.61 C240.38,706.57,240.32,706.34,240.29,706.2 L240.14,705.63 C240.1,705.46,239.88,704.58,239.86,704.51 C239.85,704.51,239.55,703.9,239.01,703.9 C238.53,703.9,238.53,704.35,238.53,704.48 C238.53,704.85,238.69,705.29,238.9,705.83 C238.98,706.05,239.02,706.13,239.02,706.25 C239.02,706.59,238.73,706.84,238.36,706.84 C237.65,706.84,237.34,705.9,237.34,705.78 C237.34,705.69,237.44,705.69,237.46,705.69 C237.56,705.69,237.56,705.72,237.58,705.8 C237.76,706.38,238.06,706.65,238.34,706.65 C238.46,706.65,238.51,706.57,238.51,706.41 C238.51,706.25,238.45,706.09,238.41,706 C238.08,705.15,238.01,704.9,238.01,704.59 C238.01,704.47,238.01,704.15,238.28,703.92 C238.5,703.74,238.79,703.71,238.98,703.71 C239.26,703.71,239.51,703.81,239.74,704.02 C239.65,703.64,239.57,703.35,239.28,703 C239.09,702.78,238.81,702.55,238.44,702.55 C238.39,702.55,238.07,702.55,237.92,702.78 C238.29,702.82,238.29,703.16,238.29,703.16 C238.29,703.39,238.09,703.43,238.02,703.43 C237.85,703.43,237.62,703.29,237.62,702.97 C237.62,702.62,237.95,702.36,238.45,702.36 C239.15,702.36,240.01,702.9,240.22,703.77 Z "
   stroke-width="0"
   fill="black"
   id="path5651" />
<path
   d="M244.53,705.35 H246.66 C246.75,705.35,246.92,705.35,246.92,705.52 C246.92,705.69,246.76,705.69,246.66,705.69 H244.53 V707.82 C244.53,707.91,244.53,708.08,244.36,708.08 C244.19,708.08,244.19,707.92,244.19,707.82 V705.69 H242.05 C241.96,705.69,241.79,705.69,241.79,705.52 C241.79,705.35,241.95,705.35,242.05,705.35 H244.19 V703.21 C244.19,703.12,244.19,702.96,244.35,702.96 C244.53,702.96,244.53,703.12,244.53,703.21 Z "
   stroke-width="0"
   fill="black"
   id="path5653" />
<path
   d="M250.91,708.58 L250.9,708.59 L250.9,708.6 L250.89,708.61 L250.89,708.62 L250.88,708.63 L250.87,708.64 L250.87,708.64 L250.86,708.65 L250.86,708.66 L250.85,708.67 L250.85,708.67 L250.84,708.68 L250.84,708.69 L250.83,708.69 L250.83,708.7 L250.82,708.7 L250.81,708.71 L250.81,708.71 L250.8,708.71 L250.8,708.72 L250.79,708.72 L250.78,708.72 L250.77,708.73 L250.76,708.73 L250.76,708.73 L250.75,708.73 L250.74,708.73 L250.73,708.73 L250.72,708.73 L250.7,708.73 L250.69,708.73 L250.68,708.73 C250.6,708.73,250.53,708.71,250.46,708.6 L250.45,708.05 L252.5,704.35 H248.4 L250.45,708.05 L250.46,708.6 L247.89,703.94 C247.85,703.87,247.85,703.85,247.85,703.85 C247.85,703.78,247.9,703.78,248.01,703.78 H253.35 C253.46,703.78,253.52,703.78,253.52,703.85 C253.52,703.85,253.52,703.87,253.47,703.94 Z "
   stroke-width="0"
   fill="black"
   id="path5655" />
<path
   d="M257.84,706.4 L257.84,706.4 L257.84,706.41 L257.84,706.41 L257.84,706.42 L257.84,706.42 L257.84,706.42 L257.85,706.43 L257.85,706.44 L257.85,706.45 L257.85,706.45 L257.85,706.46 L257.85,706.46 L257.86,706.47 L257.86,706.47 L257.86,706.48 L257.86,706.48 L257.86,706.49 L257.86,706.49 L257.86,706.5 L257.86,706.5 L257.86,706.5 L257.86,706.51 L257.86,706.51 L257.86,706.52 L257.86,706.52 L257.86,706.53 L257.86,706.54 L257.86,706.54 L257.86,706.54 L257.86,706.55 L257.86,706.55 C257.86,706.69,257.75,706.77,257.64,706.77 C257.56,706.77,257.43,706.74,257.35,706.61 C257.33,706.57,257.27,706.34,257.24,706.2 L257.09,705.63 C257.05,705.46,256.83,704.58,256.81,704.51 C256.81,704.51,256.5,703.9,255.96,703.9 C255.48,703.9,255.48,704.35,255.48,704.48 C255.48,704.85,255.64,705.29,255.85,705.83 C255.94,706.05,255.97,706.13,255.97,706.25 C255.97,706.59,255.68,706.84,255.31,706.84 C254.61,706.84,254.29,705.9,254.29,705.78 C254.29,705.69,254.39,705.69,254.41,705.69 C254.51,705.69,254.51,705.72,254.54,705.8 C254.71,706.38,255.01,706.65,255.29,706.65 C255.41,706.65,255.46,706.57,255.46,706.41 C255.46,706.25,255.4,706.09,255.37,706 C255.03,705.15,254.96,704.9,254.96,704.59 C254.96,704.47,254.96,704.15,255.23,703.92 C255.45,703.74,255.74,703.71,255.93,703.71 C256.21,703.71,256.46,703.81,256.69,704.02 C256.6,703.64,256.52,703.35,256.23,703 C256.04,702.78,255.76,702.55,255.39,702.55 C255.34,702.55,255.02,702.55,254.87,702.78 C255.25,702.82,255.25,703.16,255.25,703.16 C255.25,703.39,255.04,703.43,254.98,703.43 C254.8,703.43,254.57,703.29,254.57,702.97 C254.57,702.62,254.9,702.36,255.4,702.36 C256.1,702.36,256.96,702.9,257.18,703.77 Z "
   stroke-width="0"
   fill="black"
   id="path5657" />
</g>    <path
       inkscape:connector-curvature="0"
       id="path5731"
       d="m 106.29921,914.17313 0,99.21267"
       style="fill:none;stroke:#000000;stroke-width:0.70866144;stroke-linecap:butt;stroke-linejoin:miter;stroke-miterlimit:4;stroke-opacity:1;stroke-dasharray:none;marker-start:url(#Arrow1Mstart);marker-end:url(#Arrow1Mend-7)" />
    <g
       style="font-style:normal;font-variant:normal;font-weight:normal;font-stretch:normal;letter-spacing:normal;word-spacing:normal;text-anchor:start;fill:none;stroke:#000000;stroke-linecap:butt;stroke-linejoin:miter;stroke-miterlimit:10.43299961;stroke-opacity:1;stroke-dasharray:none;stroke-dashoffset:0"
       ns0:preamble="D:\\Onderwijs\\FLUI\\Cursusmateriaal\\Fluidummechanica\\tex\\packages.tex"
       ns0:text="$\\Delta y$"
       word-spacing="normal"
       letter-spacing="normal"
       font-size-adjust="none"
       font-stretch="normal"
       font-weight="normal"
       font-variant="normal"
       font-style="normal"
       stroke-miterlimit="10.433"
       xml:space="preserve"
       transform="matrix(1.25,0,0,-1.25,-170.54006,1849.0295)"
       id="g6458">
<path
   id="path6460"
   d="m 227.83,714.06 -0.01,0.01 0,0.01 -0.01,0.01 0,0.01 -0.01,0.01 -0.01,0.01 0,0.01 -0.01,0.01 0,0.01 -0.01,0.01 0,0.01 -0.01,0 0,0.01 -0.01,0.01 -0.01,0 0,0.01 -0.01,0 -0.01,0.01 0,0 -0.01,0.01 -0.01,0 -0.01,0 -0.01,0.01 -0.01,0 -0.01,0 -0.01,0 -0.01,0 -0.01,0.01 -0.02,0 -0.01,0 -0.01,0 -0.02,0 c -0.17,0 -0.19,-0.05 -0.26,-0.18 l -0.06,-0.82 2.68,-5.36 h -5.36 l 2.68,5.36 0.06,0.82 -3.36,-6.74 c -0.05,-0.09 -0.05,-0.11 -0.05,-0.12 0,-0.07 0.06,-0.07 0.22,-0.07 h 6.9 c 0.16,0 0.22,0 0.22,0.07 0,0.01 0,0.03 -0.05,0.12 z"
   inkscape:connector-curvature="0"
   style="fill:#000000;stroke-width:0" />
<path
   id="path6462"
   d="m 236.57,710.91 0,0.01 0,0 0,0.01 0.01,0 0,0.02 0,0.01 0,0.01 0.01,0.01 0,0.01 0,0 0,0.01 0.01,0.01 0,0.01 0,0.01 0,0 0,0.01 0,0 0,0.01 0,0.01 0.01,0 0,0.01 0,0 0,0.01 0,0.01 0,0.01 0,0.01 0,0.01 0,0.01 0,0 0,0.01 c 0,0.18 -0.14,0.27 -0.29,0.27 -0.1,0 -0.26,-0.06 -0.35,-0.21 -0.02,-0.05 -0.1,-0.36 -0.14,-0.54 -0.07,-0.26 -0.14,-0.52 -0.2,-0.79 l -0.44,-1.79 c -0.04,-0.15 -0.47,-0.85 -1.13,-0.85 -0.51,0 -0.61,0.44 -0.61,0.81 0,0.46 0.16,1.07 0.5,1.95 0.16,0.4 0.2,0.51 0.2,0.71 0,0.45 -0.32,0.82 -0.81,0.82 -0.95,0 -1.32,-1.44 -1.32,-1.53 0,-0.1 0.1,-0.1 0.12,-0.1 0.1,0 0.11,0.02 0.16,0.18 0.27,0.93 0.67,1.23 1.01,1.23 0.08,0 0.24,0 0.24,-0.32 0,-0.25 -0.09,-0.51 -0.16,-0.7 -0.4,-1.05 -0.58,-1.62 -0.58,-2.08 0,-0.89 0.62,-1.18 1.21,-1.18 0.39,0 0.73,0.16 1.01,0.44 -0.13,-0.51 -0.25,-1 -0.65,-1.53 -0.26,-0.34 -0.64,-0.62 -1.09,-0.62 -0.14,0 -0.59,0.03 -0.76,0.41 0.16,0 0.29,0 0.43,0.12 0.1,0.09 0.2,0.22 0.2,0.41 0,0.31 -0.27,0.35 -0.37,0.35 -0.23,0 -0.56,-0.16 -0.56,-0.65 0,-0.49 0.44,-0.86 1.06,-0.86 1.02,0 2.05,0.9 2.32,2.02 z"
   inkscape:connector-curvature="0"
   style="fill:#000000;stroke-width:0" />
</g>    <path
       style="fill:none;stroke:#000000;stroke-width:0.70866144;stroke-linecap:butt;stroke-linejoin:miter;stroke-miterlimit:4;stroke-opacity:1;stroke-dasharray:none;marker-start:url(#Arrow1Mstart);marker-end:url(#Arrow1Mend-7)"
       d="m 92.125984,999.21253 99.212676,0"
       id="path6542"
       inkscape:connector-curvature="0" />
  </g>
</svg>
