<?xml version="1.0" encoding="UTF-8" standalone="no"?>
<!-- Created with Inkscape (http://www.inkscape.org/) -->

<svg
   xmlns:ns0="http://www.iki.fi/pav/software/textext/"
   xmlns:dc="http://purl.org/dc/elements/1.1/"
   xmlns:cc="http://creativecommons.org/ns#"
   xmlns:rdf="http://www.w3.org/1999/02/22-rdf-syntax-ns#"
   xmlns:svg="http://www.w3.org/2000/svg"
   xmlns="http://www.w3.org/2000/svg"
   xmlns:sodipodi="http://sodipodi.sourceforge.net/DTD/sodipodi-0.dtd"
   xmlns:inkscape="http://www.inkscape.org/namespaces/inkscape"
   width="318.89764"
   height="194.88188"
   id="svg5414"
   version="1.1"
   inkscape:version="0.48.2 r9819"
   sodipodi:docname="Venturi.svg">
  <sodipodi:namedview
     inkscape:document-units="mm"
     id="base"
     pagecolor="#ffffff"
     bordercolor="#666666"
     borderopacity="1.0"
     inkscape:pageopacity="0.0"
     inkscape:pageshadow="2"
     inkscape:zoom="1.979899"
     inkscape:cx="164.82918"
     inkscape:cy="125.62257"
     inkscape:current-layer="layer1"
     showgrid="true"
     inkscape:window-width="1280"
     inkscape:window-height="962"
     inkscape:window-x="-8"
     inkscape:window-y="-8"
     inkscape:window-maximized="1"
     units="mm"
     objecttolerance="10"
     guidetolerance="10">
    <inkscape:grid
       spacingy="1mm"
       spacingx="1mm"
       units="mm"
       snapvisiblegridlinesonly="false"
       enabled="true"
       visible="true"
       empspacing="5"
       id="grid8852"
       type="xygrid" />
  </sodipodi:namedview>
  <defs
     id="defs3">
    <marker
       style="overflow:visible"
       id="Arrow1Lstart"
       refX="0"
       refY="0"
       orient="auto"
       inkscape:stockid="Arrow1Lstart">
      <path
         inkscape:connector-curvature="0"
         transform="matrix(0.8,0,0,0.8,10,0)"
         style="fill-rule:evenodd;stroke:#000000;stroke-width:1pt;marker-start:none"
         d="M 0,0 5,-5 -12.5,0 5,5 0,0 z"
         id="path5974" />
    </marker>
    <marker
       style="overflow:visible"
       id="Arrow1Lend"
       refX="0"
       refY="0"
       orient="auto"
       inkscape:stockid="Arrow1Lend">
      <path
         inkscape:connector-curvature="0"
         transform="matrix(-0.8,0,0,-0.8,-10,0)"
         style="fill-rule:evenodd;stroke:#000000;stroke-width:1pt;marker-start:none"
         d="M 0,0 5,-5 -12.5,0 5,5 0,0 z"
         id="path5977" />
    </marker>
    <marker
       style="overflow:visible"
       id="Arrow1Mend"
       refX="0"
       refY="0"
       orient="auto"
       inkscape:stockid="Arrow1Mend">
      <path
         inkscape:connector-curvature="0"
         transform="matrix(-0.4,0,0,-0.4,-4,0)"
         style="fill-rule:evenodd;stroke:#000000;stroke-width:1pt;marker-start:none"
         d="M 0,0 5,-5 -12.5,0 5,5 0,0 z"
         id="path5983" />
    </marker>
    <inkscape:path-effect
       is_visible="true"
       id="path-effect5941"
       effect="spiro" />
    <inkscape:path-effect
       is_visible="true"
       id="path-effect5937"
       effect="spiro" />
    <marker
       style="overflow:visible"
       id="Arrow1Mend-4"
       refX="0"
       refY="0"
       orient="auto"
       inkscape:stockid="Arrow1Mend">
      <path
         inkscape:connector-curvature="0"
         transform="matrix(-0.4,0,0,-0.4,-4,0)"
         style="fill-rule:evenodd;stroke:#000000;stroke-width:1pt;marker-start:none"
         d="M 0,0 5,-5 -12.5,0 5,5 0,0 z"
         id="path5983-0" />
    </marker>
  </defs>
  <metadata
     id="metadata4">
    <rdf:RDF>
      <cc:Work
         rdf:about="">
        <dc:format>image/svg+xml</dc:format>
        <dc:type
           rdf:resource="http://purl.org/dc/dcmitype/StillImage" />
        <dc:title></dc:title>
      </cc:Work>
    </rdf:RDF>
  </metadata>
  <g
     transform="translate(0,-857.48028)"
     inkscape:label="Controlemassa"
     id="layer2"
     inkscape:groupmode="layer"
     style="display:inline" />
  <g
     transform="translate(0,-857.48028)"
     id="layer1"
     inkscape:groupmode="layer"
     inkscape:label="Stroomlijnen"
     style="display:inline">
    <path
       inkscape:connector-curvature="0"
       id="path4436"
       d="m 265.74803,917.71649 0,-17.71654"
       style="fill:none;stroke:#000000;stroke-width:1.77165353;stroke-linecap:butt;stroke-linejoin:miter;stroke-miterlimit:4;stroke-opacity:1;stroke-dasharray:none" />
    <path
       style="fill:#e6e6e6;stroke:none"
       d="m 301.13917,917.71649 c 8.8454,2.29663 10.20271,14.52675 10.62993,28.34645 0.38537,12.46615 -2.44977,18.44556 -10.62993,35.43307 2.25977,6.65979 11.35582,18.93259 10.62993,35.43309 -0.44894,10.205 -5.3022,25.1554 -10.62993,28.3465 -17.71653,0 -70.86614,0 -88.58267,0 -17.71654,0 -35.43307,-35.4331 -53.14961,-35.4331 -11.81102,0 -24.80315,0 -35.43307,0 -17.71654,0 -35.43307,35.4331 -53.14961,35.4331 -17.71653,0 -35.43307,0 -53.1496,0 C 8.6157679,1041.3451 6.192869,1027.6038 7.0446901,1016.9291 8.4539546,999.26869 16.06617,988.84092 17.67461,981.49601 14.53699,971.431 6.592983,960.22896 7.0446901,946.06294 7.362979,936.08106 12.717717,921.64793 17.67461,917.71649 c 14.17323,-10e-6 35.43307,0 53.1496,0 17.71654,-10e-6 35.43307,35.43306 53.14961,35.43307 11.81102,0 23.62205,0 35.43307,0 17.71654,-10e-6 35.43307,-35.43308 53.14961,-35.43307 17.71653,0 70.86614,-10e-6 88.58267,0 z"
       id="path4342"
       inkscape:connector-curvature="0"
       sodipodi:nodetypes="cscscsssccscscssssc" />
    <path
       sodipodi:nodetypes="cc"
       inkscape:connector-curvature="0"
       id="path4049"
       d="m 31.889763,981.49601 255.118107,0"
       style="fill:none;stroke:#000000;stroke-width:0.70866144;stroke-linecap:butt;stroke-linejoin:miter;stroke-miterlimit:4;stroke-opacity:1;stroke-dasharray:none;marker-start:none;marker-mid:none" />
    <path
       sodipodi:nodetypes="cc"
       inkscape:connector-curvature="0"
       id="path4051"
       d="m 53.149606,981.49601 7.086614,0"
       style="fill:none;stroke:#000000;stroke-width:0.44798741;stroke-linecap:butt;stroke-linejoin:miter;stroke-miterlimit:4;stroke-opacity:1;stroke-dasharray:none;marker-start:none;marker-end:url(#Arrow1Lend)" />
    <path
       style="fill:none;stroke:#000000;stroke-width:0.44798741;stroke-linecap:butt;stroke-linejoin:miter;stroke-miterlimit:4;stroke-opacity:1;stroke-dasharray:none;marker-start:none;marker-end:url(#Arrow1Lend)"
       d="m 262.20472,981.49601 7.08662,0"
       id="path4053"
       inkscape:connector-curvature="0"
       sodipodi:nodetypes="cc" />
    <text
       xml:space="preserve"
       style="font-size:13px;font-style:normal;font-variant:normal;font-weight:normal;font-stretch:normal;line-height:125%;letter-spacing:0px;word-spacing:0px;fill:#000000;fill-opacity:1;stroke:none;display:inline;font-family:Arial;-inkscape-font-specification:Arial"
       x="141.73228"
       y="977.9527"
       id="text4259-1"
       sodipodi:linespacing="125%"><tspan
         sodipodi:role="line"
         id="tspan4261-7"
         x="141.73228"
         y="977.9527">2</tspan></text>
    <text
       sodipodi:linespacing="125%"
       id="text4284"
       y="977.9527"
       x="248.03149"
       style="font-size:13px;font-style:normal;font-variant:normal;font-weight:normal;font-stretch:normal;line-height:125%;letter-spacing:0px;word-spacing:0px;fill:#000000;fill-opacity:1;stroke:none;display:inline;font-family:Arial;-inkscape-font-specification:Arial"
       xml:space="preserve"><tspan
         y="977.9527"
         x="248.03149"
         id="tspan4286"
         sodipodi:role="line">1</tspan></text>
    <path
       style="fill:none;stroke:#000000;stroke-width:1px;stroke-linecap:butt;stroke-linejoin:miter;stroke-opacity:1"
       d="m 301.13917,1045.2756 c 0,0 -53.1496,0 -88.58267,0 -17.71653,0 -35.43307,-35.4331 -53.14961,-35.4331 -10.62992,0 -24.80315,0 -35.43307,0 -17.71654,0 -35.43308,35.4331 -53.14961,35.4331 -35.43307,0 -53.1496,0 -53.1496,0"
       id="path4288"
       inkscape:connector-curvature="0"
       sodipodi:nodetypes="cssssc" />
    <path
       sodipodi:nodetypes="cssssc"
       inkscape:connector-curvature="0"
       id="path4292"
       d="m 301.13918,917.71648 c 0,0 -53.14961,0 -88.58268,0 -17.71653,0 -35.43307,35.43307 -53.14961,35.43307 -10.62992,0 -24.80315,0 -35.43307,0 -17.71654,0 -35.43308,-35.43307 -53.14961,-35.43307 -35.43307,0 -53.1496,0 -53.1496,0"
       style="fill:none;stroke:#000000;stroke-width:1px;stroke-linecap:butt;stroke-linejoin:miter;stroke-opacity:1" />
    <path
       style="fill:none;stroke:#000000;stroke-width:1.77165354;stroke-linecap:butt;stroke-linejoin:miter;stroke-opacity:1;stroke-miterlimit:4;stroke-dasharray:none"
       d="m 141.73228,95.669283 0,-49.606299"
       id="path4434"
       inkscape:connector-curvature="0"
       transform="translate(0,857.48028)" />
    <path
       style="fill:none;stroke:#000000;stroke-width:0.70866144;stroke-linecap:butt;stroke-linejoin:miter;stroke-miterlimit:4;stroke-opacity:1;stroke-dasharray:none;marker-start:none;marker-mid:none"
       d="m 287.00787,946.06294 c 0,0 -38.97638,0 -67.32283,0 -19.55074,0 -44.22882,21.25984 -63.77954,21.25984 -10.62992,0 -17.71653,0 -28.34645,0 -19.55072,0 -44.228796,-21.25984 -63.779526,-21.25984 -17.71653,0 -31.88976,0 -31.88976,0"
       id="path4304"
       inkscape:connector-curvature="0"
       sodipodi:nodetypes="cssssc" />
    <path
       style="fill:none;stroke:#000000;stroke-width:0.44798741;stroke-linecap:butt;stroke-linejoin:miter;stroke-miterlimit:4;stroke-opacity:1;stroke-dasharray:none;marker-start:none;marker-end:url(#Arrow1Lend)"
       d="m 53.149606,946.06294 7.086614,0"
       id="path4306"
       inkscape:connector-curvature="0"
       sodipodi:nodetypes="cc" />
    <path
       sodipodi:nodetypes="cc"
       inkscape:connector-curvature="0"
       id="path4308"
       d="m 262.20472,946.06294 7.08662,0"
       style="fill:none;stroke:#000000;stroke-width:0.44798741;stroke-linecap:butt;stroke-linejoin:miter;stroke-miterlimit:4;stroke-opacity:1;stroke-dasharray:none;marker-start:none;marker-end:url(#Arrow1Lend)" />
    <path
       sodipodi:nodetypes="cssssc"
       inkscape:connector-curvature="0"
       id="path4328"
       d="m 287.00787,1016.9291 c 0,0 -38.97638,0 -67.32283,0 -19.55074,0 -44.22882,-21.25988 -63.77954,-21.25988 -10.62992,0 -17.71653,0 -28.34645,0 -19.55072,0 -44.228797,21.25988 -63.779527,21.25988 -17.71653,0 -31.88976,0 -31.88976,0"
       style="fill:none;stroke:#000000;stroke-width:0.70866144;stroke-linecap:butt;stroke-linejoin:miter;stroke-miterlimit:4;stroke-opacity:1;stroke-dasharray:none;marker-start:none;marker-mid:none" />
    <path
       sodipodi:nodetypes="cc"
       inkscape:connector-curvature="0"
       id="path4330"
       d="m 53.149606,1016.9291 7.086614,0"
       style="fill:none;stroke:#000000;stroke-width:0.44798741;stroke-linecap:butt;stroke-linejoin:miter;stroke-miterlimit:4;stroke-opacity:1;stroke-dasharray:none;marker-start:none;marker-end:url(#Arrow1Lend)" />
    <path
       style="fill:none;stroke:#000000;stroke-width:0.44798741;stroke-linecap:butt;stroke-linejoin:miter;stroke-miterlimit:4;stroke-opacity:1;stroke-dasharray:none;marker-start:none;marker-end:url(#Arrow1Lend)"
       d="m 262.20472,1016.9291 7.08662,0"
       id="path4332"
       inkscape:connector-curvature="0"
       sodipodi:nodetypes="cc" />
    <path
       style="fill:none;stroke:#000000;stroke-width:1px;stroke-linecap:round;stroke-linejoin:miter;stroke-opacity:1"
       d="m 17.716535,917.71649 c 0,0 -10.6299204,10.62992 -10.6299204,28.34645 0,17.71654 5.9055114,23.62205 10.6299204,35.43308 4.724409,11.81102 10.629922,17.71653 10.629922,35.43308 0,17.7165 -3.543307,28.3464 -10.629922,28.3464 -7.086615,0 -10.6299204,-14.1732 -10.6299204,-28.3464 0,-14.1732 10.6299204,-35.43308 10.6299204,-35.43308"
       id="path4338"
       inkscape:connector-curvature="0"
       sodipodi:nodetypes="czzzzzc" />
    <path
       sodipodi:nodetypes="czzzzzc"
       inkscape:connector-curvature="0"
       id="path4340"
       d="m 301.1811,1045.2756 c 0,0 10.62993,-10.6299 10.62993,-28.3465 0,-17.71656 -5.90552,-23.62208 -10.62993,-35.4331 -4.7244,-11.81103 -10.62992,-17.71654 -10.62992,-35.43307 0,-17.71657 3.54331,-28.34647 10.62992,-28.34647 7.08662,0 10.62993,14.1732 10.62993,28.34647 0,14.17323 -10.62993,35.43307 -10.62993,35.43307"
       style="fill:none;stroke:#000000;stroke-width:1px;stroke-linecap:round;stroke-linejoin:miter;stroke-opacity:1" />
    <path
       sodipodi:type="arc"
       style="fill:#ffffff;fill-opacity:1;fill-rule:nonzero;stroke:#000000;stroke-width:0.8176862;stroke-miterlimit:4;stroke-dasharray:none;display:inline"
       id="path4059"
       sodipodi:cx="186.02362"
       sodipodi:cy="214.37009"
       sodipodi:rx="26.574802"
       sodipodi:ry="26.574802"
       d="m 212.59842,214.37009 a 26.574802,26.574802 0 1 1 -53.1496,0 26.574802,26.574802 0 1 1 53.1496,0 z"
       transform="matrix(0.86666678,0,0,0.86666678,-19.488209,698.26764)" />
    <path
       style="fill:none;stroke:#000000;stroke-width:1px;stroke-linecap:butt;stroke-linejoin:miter;stroke-opacity:1;marker-end:url(#Arrow1Mend);display:inline"
       d="m 141.73228,882.28343 3.54331,-17.71655"
       id="path4061"
       inkscape:connector-curvature="0"
       sodipodi:nodetypes="cc" />
    <text
       xml:space="preserve"
       style="font-size:13px;font-style:normal;font-variant:normal;font-weight:normal;font-stretch:normal;line-height:125%;letter-spacing:0px;word-spacing:0px;fill:#000000;fill-opacity:1;stroke:none;display:inline;font-family:Arial;-inkscape-font-specification:Arial"
       x="130.01575"
       y="875.19678"
       id="text4259"
       sodipodi:linespacing="125%"><tspan
         sodipodi:role="line"
         id="tspan4261"
         x="130.01575"
         y="875.19678">$p$</tspan></text>
    <path
       transform="matrix(0.86666678,0,0,0.86666678,104.52754,698.26764)"
       d="m 212.59842,214.37009 a 26.574802,26.574802 0 1 1 -53.1496,0 26.574802,26.574802 0 1 1 53.1496,0 z"
       sodipodi:ry="26.574802"
       sodipodi:rx="26.574802"
       sodipodi:cy="214.37009"
       sodipodi:cx="186.02362"
       id="path4426"
       style="fill:#ffffff;fill-opacity:1;fill-rule:nonzero;stroke:#000000;stroke-width:0.8176862;stroke-miterlimit:4;stroke-dasharray:none;display:inline"
       sodipodi:type="arc" />
    <path
       sodipodi:nodetypes="cc"
       inkscape:connector-curvature="0"
       id="path4428"
       d="M 265.74803,882.28343 279.92126,871.6535"
       style="fill:none;stroke:#000000;stroke-width:1px;stroke-linecap:butt;stroke-linejoin:miter;stroke-opacity:1;marker-end:url(#Arrow1Mend);display:inline" />
    <text
       sodipodi:linespacing="125%"
       id="text4430"
       y="875.19684"
       x="254.03149"
       style="font-size:13px;font-style:normal;font-variant:normal;font-weight:normal;font-stretch:normal;line-height:125%;letter-spacing:0px;word-spacing:0px;fill:#000000;fill-opacity:1;stroke:none;display:inline;font-family:Arial;-inkscape-font-specification:Arial"
       xml:space="preserve"><tspan
         y="875.19684"
         x="254.03149"
         id="tspan4432"
         sodipodi:role="line">$p$</tspan></text>
  </g>
  <g
     ns0:preamble=""
     ns0:text="$t$"
     word-spacing="normal"
     letter-spacing="normal"
     font-size-adjust="none"
     font-stretch="normal"
     font-weight="normal"
     font-variant="normal"
     font-style="normal"
     stroke-miterlimit="10.433"
     xml:space="preserve"
     transform="matrix(4,0,0,-4,-591.42857,2145.3768)"
     id="content"
     style="font-style:normal;font-variant:normal;font-weight:normal;font-stretch:normal;letter-spacing:normal;word-spacing:normal;text-anchor:start;fill:none;stroke:#000000;stroke-linecap:butt;stroke-linejoin:miter;stroke-miterlimit:10.43299961;stroke-opacity:1;stroke-dasharray:none;stroke-dashoffset:0">

</g>  <g
     style="display:inline"
     transform="translate(0,-857.48028)"
     inkscape:label="Tijdspanne"
     id="layer3"
     inkscape:groupmode="layer" />
  <g
     inkscape:label="Volumes"
     id="layer4"
     inkscape:groupmode="layer"
     transform="translate(0,-35.433064)" />
</svg>
