<?xml version="1.0" encoding="UTF-8" standalone="no"?>
<!-- Created with Inkscape (http://www.inkscape.org/) -->

<svg
   xmlns:dc="http://purl.org/dc/elements/1.1/"
   xmlns:cc="http://creativecommons.org/ns#"
   xmlns:rdf="http://www.w3.org/1999/02/22-rdf-syntax-ns#"
   xmlns:svg="http://www.w3.org/2000/svg"
   xmlns="http://www.w3.org/2000/svg"
   xmlns:sodipodi="http://sodipodi.sourceforge.net/DTD/sodipodi-0.dtd"
   xmlns:inkscape="http://www.inkscape.org/namespaces/inkscape"
   width="389.76376"
   height="124.01575"
   id="svg3009"
   version="1.1"
   inkscape:version="0.48.2 r9819"
   sodipodi:docname="continuum.svg">
  <defs
     id="defs3011">
    <marker
       inkscape:stockid="Arrow1Mend"
       orient="auto"
       refY="0"
       refX="0"
       id="Arrow1Mend"
       style="overflow:visible">
      <path
         id="path4326"
         d="M 0,0 5,-5 -12.5,0 5,5 0,0 z"
         style="fill-rule:evenodd;stroke:#000000;stroke-width:1pt;marker-start:none"
         transform="matrix(-0.4,0,0,-0.4,-4,0)"
         inkscape:connector-curvature="0" />
    </marker>
  </defs>
  <sodipodi:namedview
     id="base"
     pagecolor="#ffffff"
     bordercolor="#666666"
     borderopacity="1.0"
     inkscape:pageopacity="0.0"
     inkscape:pageshadow="2"
     inkscape:zoom="1.4"
     inkscape:cx="165.56144"
     inkscape:cy="142.23482"
     inkscape:document-units="mm"
     inkscape:current-layer="layer1"
     showgrid="true"
     units="mm"
     inkscape:window-width="1366"
     inkscape:window-height="706"
     inkscape:window-x="-8"
     inkscape:window-y="-8"
     inkscape:window-maximized="1">
    <inkscape:grid
       type="xygrid"
       id="grid3017"
       empspacing="5"
       visible="true"
       enabled="true"
       snapvisiblegridlinesonly="true"
       units="mm"
       spacingx="1mm"
       spacingy="1mm"
       dotted="false" />
  </sodipodi:namedview>
  <metadata
     id="metadata3014">
    <rdf:RDF>
      <cc:Work
         rdf:about="">
        <dc:format>image/svg+xml</dc:format>
        <dc:type
           rdf:resource="http://purl.org/dc/dcmitype/StillImage" />
        <dc:title></dc:title>
      </cc:Work>
    </rdf:RDF>
  </metadata>
  <g
     inkscape:label="Layer 1"
     inkscape:groupmode="layer"
     id="layer1"
     transform="translate(0,-928.34646)">
    <path
       style="fill:#e6e6e6;stroke:none"
       d="m 221.18472,943.45986 c 51.19478,-10.36173 110.86186,-15.40394 156.37949,-2.48652 2.33266,30.69389 9.1381,78.52386 -5.55583,100.70446 -47.36984,2.5149 -109.70692,12.9457 -155.87442,-8.5863 17.71653,-35.43301 -14.22414,-54.19857 5.05076,-89.63164 z"
       id="rect4305"
       inkscape:connector-curvature="0"
       sodipodi:nodetypes="ccccc" />
    <rect
       y="946.06299"
       x="230.31496"
       height="88.58268"
       width="141.73228"
       id="rect3753"
       style="fill:none;stroke:#000000;stroke-width:0.99921262;stroke-miterlimit:4;stroke-dasharray:2.9976378, 2.9976378;stroke-dashoffset:0" />
    <rect
       style="fill:none;stroke:#000000;stroke-width:0.99921262;stroke-miterlimit:4;stroke-dasharray:2.9976378, 2.9976378;stroke-dashoffset:0"
       id="rect2983"
       width="141.73228"
       height="88.58268"
       x="17.716536"
       y="946.06299" />
    <path
       sodipodi:type="arc"
       style="fill:#cccccc;stroke:none"
       id="path3755"
       sodipodi:cx="19.48819"
       sodipodi:cy="86.81102"
       sodipodi:rx="1.7716535"
       sodipodi:ry="1.7716535"
       d="m 21.259843,86.81102 c 0,0.978457 -0.793196,1.771653 -1.771653,1.771653 -0.978458,0 -1.771654,-0.793196 -1.771654,-1.771653 0,-0.978457 0.793196,-1.771654 1.771654,-1.771654 0.978457,0 1.771653,0.793197 1.771653,1.771654 z"
       transform="translate(71.4372,878.91893)" />
    <path
       transform="translate(48.203692,895.08137)"
       d="m 21.259843,86.81102 c 0,0.978457 -0.793196,1.771653 -1.771653,1.771653 -0.978458,0 -1.771654,-0.793196 -1.771654,-1.771653 0,-0.978457 0.793196,-1.771654 1.771654,-1.771654 0.978457,0 1.771653,0.793197 1.771653,1.771654 z"
       sodipodi:ry="1.7716535"
       sodipodi:rx="1.7716535"
       sodipodi:cy="86.81102"
       sodipodi:cx="19.48819"
       id="path3757"
       style="fill:#cccccc;stroke:none"
       sodipodi:type="arc" />
    <path
       transform="translate(54.264606,926.64864)"
       d="m 21.259843,86.81102 c 0,0.978457 -0.793196,1.771653 -1.771653,1.771653 -0.978458,0 -1.771654,-0.793196 -1.771654,-1.771653 0,-0.978457 0.793196,-1.771654 1.771654,-1.771654 0.978457,0 1.771653,0.793197 1.771653,1.771654 z"
       sodipodi:ry="1.7716535"
       sodipodi:rx="1.7716535"
       sodipodi:cy="86.81102"
       sodipodi:cx="19.48819"
       id="path3759"
       style="fill:#cccccc;stroke:none"
       sodipodi:type="arc" />
    <path
       sodipodi:type="arc"
       style="fill:#cccccc;stroke:none"
       id="path3761"
       sodipodi:cx="19.48819"
       sodipodi:cy="86.81102"
       sodipodi:rx="1.7716535"
       sodipodi:ry="1.7716535"
       d="m 21.259843,86.81102 c 0,0.978457 -0.793196,1.771653 -1.771653,1.771653 -0.978458,0 -1.771654,-0.793196 -1.771654,-1.771653 0,-0.978457 0.793196,-1.771654 1.771654,-1.771654 0.978457,0 1.771653,0.793197 1.771653,1.771654 z"
       transform="translate(20.677034,927.91133)" />
    <path
       transform="translate(76.740501,932.20448)"
       d="m 21.259843,86.81102 c 0,0.978457 -0.793196,1.771653 -1.771653,1.771653 -0.978458,0 -1.771654,-0.793196 -1.771654,-1.771653 0,-0.978457 0.793196,-1.771654 1.771654,-1.771654 0.978457,0 1.771653,0.793197 1.771653,1.771654 z"
       sodipodi:ry="1.7716535"
       sodipodi:rx="1.7716535"
       sodipodi:cy="86.81102"
       sodipodi:cx="19.48819"
       id="path3763"
       style="fill:#cccccc;stroke:none"
       sodipodi:type="arc" />
    <path
       sodipodi:type="arc"
       style="fill:#cccccc;stroke:none"
       id="path3765"
       sodipodi:cx="19.48819"
       sodipodi:cy="86.81102"
       sodipodi:rx="1.7716535"
       sodipodi:ry="1.7716535"
       d="m 21.259843,86.81102 c 0,0.978457 -0.793196,1.771653 -1.771653,1.771653 -0.978458,0 -1.771654,-0.793196 -1.771654,-1.771653 0,-0.978457 0.793196,-1.771654 1.771654,-1.771654 0.978457,0 1.771653,0.793197 1.771653,1.771654 z"
       transform="translate(76.487962,896.09152)" />
    <path
       transform="translate(36.081861,892.05091)"
       d="m 21.259843,86.81102 c 0,0.978457 -0.793196,1.771653 -1.771653,1.771653 -0.978458,0 -1.771654,-0.793196 -1.771654,-1.771653 0,-0.978457 0.793196,-1.771654 1.771654,-1.771654 0.978457,0 1.771653,0.793197 1.771653,1.771654 z"
       sodipodi:ry="1.7716535"
       sodipodi:rx="1.7716535"
       sodipodi:cy="86.81102"
       sodipodi:cx="19.48819"
       id="path3767"
       style="fill:#cccccc;stroke:none"
       sodipodi:type="arc" />
    <path
       sodipodi:type="arc"
       style="fill:#cccccc;stroke:none"
       id="path3769"
       sodipodi:cx="19.48819"
       sodipodi:cy="86.81102"
       sodipodi:rx="1.7716535"
       sodipodi:ry="1.7716535"
       d="m 21.259843,86.81102 c 0,0.978457 -0.793196,1.771653 -1.771653,1.771653 -0.978458,0 -1.771654,-0.793196 -1.771654,-1.771653 0,-0.978457 0.793196,-1.771654 1.771654,-1.771654 0.978457,0 1.771653,0.793197 1.771653,1.771654 z"
       transform="translate(21.939725,911.24381)" />
    <path
       transform="translate(35.324246,921.0928)"
       d="m 21.259843,86.81102 c 0,0.978457 -0.793196,1.771653 -1.771653,1.771653 -0.978458,0 -1.771654,-0.793196 -1.771654,-1.771653 0,-0.978457 0.793196,-1.771654 1.771654,-1.771654 0.978457,0 1.771653,0.793197 1.771653,1.771654 z"
       sodipodi:ry="1.7716535"
       sodipodi:rx="1.7716535"
       sodipodi:cy="86.81102"
       sodipodi:cx="19.48819"
       id="path3771"
       style="fill:#cccccc;stroke:none"
       sodipodi:type="arc" />
    <path
       sodipodi:type="arc"
       style="fill:#cccccc;stroke:none"
       id="path3773"
       sodipodi:cx="19.48819"
       sodipodi:cy="86.81102"
       sodipodi:rx="1.7716535"
       sodipodi:ry="1.7716535"
       d="m 21.259843,86.81102 c 0,0.978457 -0.793196,1.771653 -1.771653,1.771653 -0.978458,0 -1.771654,-0.793196 -1.771654,-1.771653 0,-0.978457 0.793196,-1.771654 1.771654,-1.771654 0.978457,0 1.771653,0.793197 1.771653,1.771654 z"
       transform="translate(67.39659,909.98112)" />
    <path
       transform="translate(18.656729,889.77807)"
       d="m 21.259843,86.81102 c 0,0.978457 -0.793196,1.771653 -1.771653,1.771653 -0.978458,0 -1.771654,-0.793196 -1.771654,-1.771653 0,-0.978457 0.793196,-1.771654 1.771654,-1.771654 0.978457,0 1.771653,0.793197 1.771653,1.771654 z"
       sodipodi:ry="1.7716535"
       sodipodi:rx="1.7716535"
       sodipodi:cy="86.81102"
       sodipodi:cx="19.48819"
       id="path3775"
       style="fill:#cccccc;stroke:none"
       sodipodi:type="arc" />
    <path
       transform="translate(101.74178,858.71588)"
       d="m 21.259843,86.81102 c 0,0.978457 -0.793196,1.771653 -1.771653,1.771653 -0.978458,0 -1.771654,-0.793196 -1.771654,-1.771653 0,-0.978457 0.793196,-1.771654 1.771654,-1.771654 0.978457,0 1.771653,0.793197 1.771653,1.771654 z"
       sodipodi:ry="1.7716535"
       sodipodi:rx="1.7716535"
       sodipodi:cy="86.81102"
       sodipodi:cx="19.48819"
       id="path3777"
       style="fill:#cccccc;stroke:none"
       sodipodi:type="arc" />
    <path
       sodipodi:type="arc"
       style="fill:#cccccc;stroke:none"
       id="path3779"
       sodipodi:cx="19.48819"
       sodipodi:cy="86.81102"
       sodipodi:rx="1.7716535"
       sodipodi:ry="1.7716535"
       d="m 21.259843,86.81102 c 0,0.978457 -0.793196,1.771653 -1.771653,1.771653 -0.978458,0 -1.771654,-0.793196 -1.771654,-1.771653 0,-0.978457 0.793196,-1.771654 1.771654,-1.771654 0.978457,0 1.771653,0.793197 1.771653,1.771654 z"
       transform="translate(78.508268,874.87832)" />
    <path
       sodipodi:type="arc"
       style="fill:#cccccc;stroke:none"
       id="path3781"
       sodipodi:cx="19.48819"
       sodipodi:cy="86.81102"
       sodipodi:rx="1.7716535"
       sodipodi:ry="1.7716535"
       d="m 21.259843,86.81102 c 0,0.978457 -0.793196,1.771653 -1.771653,1.771653 -0.978458,0 -1.771654,-0.793196 -1.771654,-1.771653 0,-0.978457 0.793196,-1.771654 1.771654,-1.771654 0.978457,0 1.771653,0.793197 1.771653,1.771654 z"
       transform="translate(84.569182,906.44559)" />
    <path
       transform="translate(50.981611,907.70828)"
       d="m 21.259843,86.81102 c 0,0.978457 -0.793196,1.771653 -1.771653,1.771653 -0.978458,0 -1.771654,-0.793196 -1.771654,-1.771653 0,-0.978457 0.793196,-1.771654 1.771654,-1.771654 0.978457,0 1.771653,0.793197 1.771653,1.771654 z"
       sodipodi:ry="1.7716535"
       sodipodi:rx="1.7716535"
       sodipodi:cy="86.81102"
       sodipodi:cx="19.48819"
       id="path3783"
       style="fill:#cccccc;stroke:none"
       sodipodi:type="arc" />
    <path
       sodipodi:type="arc"
       style="fill:#cccccc;stroke:none"
       id="path3785"
       sodipodi:cx="19.48819"
       sodipodi:cy="86.81102"
       sodipodi:rx="1.7716535"
       sodipodi:ry="1.7716535"
       d="m 21.259843,86.81102 c 0,0.978457 -0.793196,1.771653 -1.771653,1.771653 -0.978458,0 -1.771654,-0.793196 -1.771654,-1.771653 0,-0.978457 0.793196,-1.771654 1.771654,-1.771654 0.978457,0 1.771653,0.793197 1.771653,1.771654 z"
       transform="translate(107.04508,912.00143)" />
    <path
       transform="translate(106.79254,875.88847)"
       d="m 21.259843,86.81102 c 0,0.978457 -0.793196,1.771653 -1.771653,1.771653 -0.978458,0 -1.771654,-0.793196 -1.771654,-1.771653 0,-0.978457 0.793196,-1.771654 1.771654,-1.771654 0.978457,0 1.771653,0.793197 1.771653,1.771654 z"
       sodipodi:ry="1.7716535"
       sodipodi:rx="1.7716535"
       sodipodi:cy="86.81102"
       sodipodi:cx="19.48819"
       id="path3787"
       style="fill:#cccccc;stroke:none"
       sodipodi:type="arc" />
    <path
       sodipodi:type="arc"
       style="fill:#cccccc;stroke:none"
       id="path3789"
       sodipodi:cx="19.48819"
       sodipodi:cy="86.81102"
       sodipodi:rx="1.7716535"
       sodipodi:ry="1.7716535"
       d="m 21.259843,86.81102 c 0,0.978457 -0.793196,1.771653 -1.771653,1.771653 -0.978458,0 -1.771654,-0.793196 -1.771654,-1.771653 0,-0.978457 0.793196,-1.771654 1.771654,-1.771654 0.978457,0 1.771653,0.793197 1.771653,1.771654 z"
       transform="translate(66.386437,871.84786)" />
    <path
       transform="translate(52.244301,891.04076)"
       d="m 21.259843,86.81102 c 0,0.978457 -0.793196,1.771653 -1.771653,1.771653 -0.978458,0 -1.771654,-0.793196 -1.771654,-1.771653 0,-0.978457 0.793196,-1.771654 1.771654,-1.771654 0.978457,0 1.771653,0.793197 1.771653,1.771654 z"
       sodipodi:ry="1.7716535"
       sodipodi:rx="1.7716535"
       sodipodi:cy="86.81102"
       sodipodi:cx="19.48819"
       id="path3791"
       style="fill:#cccccc;stroke:none"
       sodipodi:type="arc" />
    <path
       sodipodi:type="arc"
       style="fill:#cccccc;stroke:none"
       id="path3793"
       sodipodi:cx="19.48819"
       sodipodi:cy="86.81102"
       sodipodi:rx="1.7716535"
       sodipodi:ry="1.7716535"
       d="m 21.259843,86.81102 c 0,0.978457 -0.793196,1.771653 -1.771653,1.771653 -0.978458,0 -1.771654,-0.793196 -1.771654,-1.771653 0,-0.978457 0.793196,-1.771654 1.771654,-1.771654 0.978457,0 1.771653,0.793197 1.771653,1.771654 z"
       transform="translate(65.628822,900.88975)" />
    <path
       transform="translate(97.701166,889.77807)"
       d="m 21.259843,86.81102 c 0,0.978457 -0.793196,1.771653 -1.771653,1.771653 -0.978458,0 -1.771654,-0.793196 -1.771654,-1.771653 0,-0.978457 0.793196,-1.771654 1.771654,-1.771654 0.978457,0 1.771653,0.793197 1.771653,1.771654 z"
       sodipodi:ry="1.7716535"
       sodipodi:rx="1.7716535"
       sodipodi:cy="86.81102"
       sodipodi:cx="19.48819"
       id="path3795"
       style="fill:#cccccc;stroke:none"
       sodipodi:type="arc" />
    <path
       sodipodi:type="arc"
       style="fill:#cccccc;stroke:none"
       id="path3797"
       sodipodi:cx="19.48819"
       sodipodi:cy="86.81102"
       sodipodi:rx="1.7716535"
       sodipodi:ry="1.7716535"
       d="m 21.259843,86.81102 c 0,0.978457 -0.793196,1.771653 -1.771653,1.771653 -0.978458,0 -1.771654,-0.793196 -1.771654,-1.771653 0,-0.978457 0.793196,-1.771654 1.771654,-1.771654 0.978457,0 1.771653,0.793197 1.771653,1.771654 z"
       transform="translate(48.961306,869.57502)" />
    <path
       sodipodi:type="arc"
       style="fill:#cccccc;stroke:none"
       id="path3799"
       sodipodi:cx="19.48819"
       sodipodi:cy="86.81102"
       sodipodi:rx="1.7716535"
       sodipodi:ry="1.7716535"
       d="m 21.259843,86.81102 c 0,0.978457 -0.793196,1.771653 -1.771653,1.771653 -0.978458,0 -1.771654,-0.793196 -1.771654,-1.771653 0,-0.978457 0.793196,-1.771654 1.771654,-1.771654 0.978457,0 1.771653,0.793197 1.771653,1.771654 z"
       transform="translate(112.09584,906.95066)" />
    <path
       transform="translate(88.862332,923.1131)"
       d="m 21.259843,86.81102 c 0,0.978457 -0.793196,1.771653 -1.771653,1.771653 -0.978458,0 -1.771654,-0.793196 -1.771654,-1.771653 0,-0.978457 0.793196,-1.771654 1.771654,-1.771654 0.978457,0 1.771653,0.793197 1.771653,1.771654 z"
       sodipodi:ry="1.7716535"
       sodipodi:rx="1.7716535"
       sodipodi:cy="86.81102"
       sodipodi:cx="19.48819"
       id="path3801"
       style="fill:#cccccc;stroke:none"
       sodipodi:type="arc" />
    <path
       transform="translate(94.923246,954.68037)"
       d="m 21.259843,86.81102 c 0,0.978457 -0.793196,1.771653 -1.771653,1.771653 -0.978458,0 -1.771654,-0.793196 -1.771654,-1.771653 0,-0.978457 0.793196,-1.771654 1.771654,-1.771654 0.978457,0 1.771653,0.793197 1.771653,1.771654 z"
       sodipodi:ry="1.7716535"
       sodipodi:rx="1.7716535"
       sodipodi:cy="86.81102"
       sodipodi:cx="19.48819"
       id="path3803"
       style="fill:#cccccc;stroke:none"
       sodipodi:type="arc" />
    <path
       sodipodi:type="arc"
       style="fill:#cccccc;stroke:none"
       id="path3805"
       sodipodi:cx="19.48819"
       sodipodi:cy="86.81102"
       sodipodi:rx="1.7716535"
       sodipodi:ry="1.7716535"
       d="m 21.259843,86.81102 c 0,0.978457 -0.793196,1.771653 -1.771653,1.771653 -0.978458,0 -1.771654,-0.793196 -1.771654,-1.771653 0,-0.978457 0.793196,-1.771654 1.771654,-1.771654 0.978457,0 1.771653,0.793197 1.771653,1.771654 z"
       transform="translate(61.335675,955.94306)" />
    <path
       transform="translate(117.39914,960.23621)"
       d="m 21.259843,86.81102 c 0,0.978457 -0.793196,1.771653 -1.771653,1.771653 -0.978458,0 -1.771654,-0.793196 -1.771654,-1.771653 0,-0.978457 0.793196,-1.771654 1.771654,-1.771654 0.978457,0 1.771653,0.793197 1.771653,1.771654 z"
       sodipodi:ry="1.7716535"
       sodipodi:rx="1.7716535"
       sodipodi:cy="86.81102"
       sodipodi:cx="19.48819"
       id="path3807"
       style="fill:#cccccc;stroke:none"
       sodipodi:type="arc" />
    <path
       sodipodi:type="arc"
       style="fill:#cccccc;stroke:none"
       id="path3809"
       sodipodi:cx="19.48819"
       sodipodi:cy="86.81102"
       sodipodi:rx="1.7716535"
       sodipodi:ry="1.7716535"
       d="m 21.259843,86.81102 c 0,0.978457 -0.793196,1.771653 -1.771653,1.771653 -0.978458,0 -1.771654,-0.793196 -1.771654,-1.771653 0,-0.978457 0.793196,-1.771654 1.771654,-1.771654 0.978457,0 1.771653,0.793197 1.771653,1.771654 z"
       transform="translate(117.1466,924.12325)" />
    <path
       transform="translate(76.740501,920.08264)"
       d="m 21.259843,86.81102 c 0,0.978457 -0.793196,1.771653 -1.771653,1.771653 -0.978458,0 -1.771654,-0.793196 -1.771654,-1.771653 0,-0.978457 0.793196,-1.771654 1.771654,-1.771654 0.978457,0 1.771653,0.793197 1.771653,1.771654 z"
       sodipodi:ry="1.7716535"
       sodipodi:rx="1.7716535"
       sodipodi:cy="86.81102"
       sodipodi:cx="19.48819"
       id="path3811"
       style="fill:#cccccc;stroke:none"
       sodipodi:type="arc" />
    <path
       sodipodi:type="arc"
       style="fill:#cccccc;stroke:none"
       id="path3813"
       sodipodi:cx="19.48819"
       sodipodi:cy="86.81102"
       sodipodi:rx="1.7716535"
       sodipodi:ry="1.7716535"
       d="m 21.259843,86.81102 c 0,0.978457 -0.793196,1.771653 -1.771653,1.771653 -0.978458,0 -1.771654,-0.793196 -1.771654,-1.771653 0,-0.978457 0.793196,-1.771654 1.771654,-1.771654 0.978457,0 1.771653,0.793197 1.771653,1.771654 z"
       transform="translate(62.598365,939.27554)" />
    <path
       transform="translate(75.982886,949.12453)"
       d="m 21.259843,86.81102 c 0,0.978457 -0.793196,1.771653 -1.771653,1.771653 -0.978458,0 -1.771654,-0.793196 -1.771654,-1.771653 0,-0.978457 0.793196,-1.771654 1.771654,-1.771654 0.978457,0 1.771653,0.793197 1.771653,1.771654 z"
       sodipodi:ry="1.7716535"
       sodipodi:rx="1.7716535"
       sodipodi:cy="86.81102"
       sodipodi:cx="19.48819"
       id="path3815"
       style="fill:#cccccc;stroke:none"
       sodipodi:type="arc" />
    <path
       sodipodi:type="arc"
       style="fill:#cccccc;stroke:none"
       id="path3817"
       sodipodi:cx="19.48819"
       sodipodi:cy="86.81102"
       sodipodi:rx="1.7716535"
       sodipodi:ry="1.7716535"
       d="m 21.259843,86.81102 c 0,0.978457 -0.793196,1.771653 -1.771653,1.771653 -0.978458,0 -1.771654,-0.793196 -1.771654,-1.771653 0,-0.978457 0.793196,-1.771654 1.771654,-1.771654 0.978457,0 1.771653,0.793197 1.771653,1.771654 z"
       transform="translate(108.05523,938.01285)" />
    <path
       transform="translate(59.31537,917.8098)"
       d="m 21.259843,86.81102 c 0,0.978457 -0.793196,1.771653 -1.771653,1.771653 -0.978458,0 -1.771654,-0.793196 -1.771654,-1.771653 0,-0.978457 0.793196,-1.771654 1.771654,-1.771654 0.978457,0 1.771653,0.793197 1.771653,1.771654 z"
       sodipodi:ry="1.7716535"
       sodipodi:rx="1.7716535"
       sodipodi:cy="86.81102"
       sodipodi:cx="19.48819"
       id="path3819"
       style="fill:#cccccc;stroke:none"
       sodipodi:type="arc" />
    <path
       transform="translate(24.212566,869.57502)"
       d="m 21.259843,86.81102 c 0,0.978457 -0.793196,1.771653 -1.771653,1.771653 -0.978458,0 -1.771654,-0.793196 -1.771654,-1.771653 0,-0.978457 0.793196,-1.771654 1.771654,-1.771654 0.978457,0 1.771653,0.793197 1.771653,1.771654 z"
       sodipodi:ry="1.7716535"
       sodipodi:rx="1.7716535"
       sodipodi:cy="86.81102"
       sodipodi:cx="19.48819"
       id="path3821"
       style="fill:#cccccc;stroke:none"
       sodipodi:type="arc" />
    <path
       sodipodi:type="arc"
       style="fill:#cccccc;stroke:none"
       id="path3823"
       sodipodi:cx="19.48819"
       sodipodi:cy="86.81102"
       sodipodi:rx="1.7716535"
       sodipodi:ry="1.7716535"
       d="m 21.259843,86.81102 c 0,0.978457 -0.793196,1.771653 -1.771653,1.771653 -0.978458,0 -1.771654,-0.793196 -1.771654,-1.771653 0,-0.978457 0.793196,-1.771654 1.771654,-1.771654 0.978457,0 1.771653,0.793197 1.771653,1.771654 z"
       transform="translate(146.44102,880.18162)" />
    <path
       sodipodi:type="arc"
       style="fill:#cccccc;stroke:none"
       id="path3825"
       sodipodi:cx="19.48819"
       sodipodi:cy="86.81102"
       sodipodi:rx="1.7716535"
       sodipodi:ry="1.7716535"
       d="m 21.259843,86.81102 c 0,0.978457 -0.793196,1.771653 -1.771653,1.771653 -0.978458,0 -1.771654,-0.793196 -1.771654,-1.771653 0,-0.978457 0.793196,-1.771654 1.771654,-1.771654 0.978457,0 1.771653,0.793197 1.771653,1.771654 z"
       transform="translate(123.71259,938.01286)" />
    <path
       transform="translate(118.91437,913.01158)"
       d="m 21.259843,86.81102 c 0,0.978457 -0.793196,1.771653 -1.771653,1.771653 -0.978458,0 -1.771654,-0.793196 -1.771654,-1.771653 0,-0.978457 0.793196,-1.771654 1.771654,-1.771654 0.978457,0 1.771653,0.793197 1.771653,1.771654 z"
       sodipodi:ry="1.7716535"
       sodipodi:rx="1.7716535"
       sodipodi:cy="86.81102"
       sodipodi:cx="19.48819"
       id="path3827"
       style="fill:#cccccc;stroke:none"
       sodipodi:type="arc" />
    <path
       sodipodi:type="arc"
       style="fill:#cccccc;stroke:none"
       id="path3829"
       sodipodi:cx="19.48819"
       sodipodi:cy="86.81102"
       sodipodi:rx="1.7716535"
       sodipodi:ry="1.7716535"
       d="m 21.259843,86.81102 c 0,0.978457 -0.793196,1.771653 -1.771653,1.771653 -0.978458,0 -1.771654,-0.793196 -1.771654,-1.771653 0,-0.978457 0.793196,-1.771654 1.771654,-1.771654 0.978457,0 1.771653,0.793197 1.771653,1.771654 z"
       transform="translate(131.28874,929.6791)" />
    <path
       transform="translate(29.263336,886.74761)"
       d="m 21.259843,86.81102 c 0,0.978457 -0.793196,1.771653 -1.771653,1.771653 -0.978458,0 -1.771654,-0.793196 -1.771654,-1.771653 0,-0.978457 0.793196,-1.771654 1.771654,-1.771654 0.978457,0 1.771653,0.793197 1.771653,1.771654 z"
       sodipodi:ry="1.7716535"
       sodipodi:rx="1.7716535"
       sodipodi:cy="86.81102"
       sodipodi:cx="19.48819"
       id="path3831"
       style="fill:#cccccc;stroke:none"
       sodipodi:type="arc" />
    <path
       sodipodi:type="arc"
       style="fill:#cccccc;stroke:none"
       id="path3833"
       sodipodi:cx="19.48819"
       sodipodi:cy="86.81102"
       sodipodi:rx="1.7716535"
       sodipodi:ry="1.7716535"
       d="m 21.259843,86.81102 c 0,0.978457 -0.793196,1.771653 -1.771653,1.771653 -0.978458,0 -1.771654,-0.793196 -1.771654,-1.771653 0,-0.978457 0.793196,-1.771654 1.771654,-1.771654 0.978457,0 1.771653,0.793197 1.771653,1.771654 z"
       transform="translate(134.31919,877.15116)" />
    <path
       transform="translate(120.17706,896.34406)"
       d="m 21.259843,86.81102 c 0,0.978457 -0.793196,1.771653 -1.771653,1.771653 -0.978458,0 -1.771654,-0.793196 -1.771654,-1.771653 0,-0.978457 0.793196,-1.771654 1.771654,-1.771654 0.978457,0 1.771653,0.793197 1.771653,1.771654 z"
       sodipodi:ry="1.7716535"
       sodipodi:rx="1.7716535"
       sodipodi:cy="86.81102"
       sodipodi:cx="19.48819"
       id="path3835"
       style="fill:#cccccc;stroke:none"
       sodipodi:type="arc" />
    <path
       sodipodi:type="arc"
       style="fill:#cccccc;stroke:none"
       id="path3837"
       sodipodi:cx="19.48819"
       sodipodi:cy="86.81102"
       sodipodi:rx="1.7716535"
       sodipodi:ry="1.7716535"
       d="m 21.259843,86.81102 c 0,0.978457 -0.793196,1.771653 -1.771653,1.771653 -0.978458,0 -1.771654,-0.793196 -1.771654,-1.771653 0,-0.978457 0.793196,-1.771654 1.771654,-1.771654 0.978457,0 1.771653,0.793197 1.771653,1.771654 z"
       transform="translate(133.56158,906.19305)" />
    <path
       transform="translate(20.171956,900.63721)"
       d="m 21.259843,86.81102 c 0,0.978457 -0.793196,1.771653 -1.771653,1.771653 -0.978458,0 -1.771654,-0.793196 -1.771654,-1.771653 0,-0.978457 0.793196,-1.771654 1.771654,-1.771654 0.978457,0 1.771653,0.793197 1.771653,1.771654 z"
       sodipodi:ry="1.7716535"
       sodipodi:rx="1.7716535"
       sodipodi:cy="86.81102"
       sodipodi:cx="19.48819"
       id="path3839"
       style="fill:#cccccc;stroke:none"
       sodipodi:type="arc" />
    <path
       sodipodi:type="arc"
       style="fill:#cccccc;stroke:none"
       id="path3841"
       sodipodi:cx="19.48819"
       sodipodi:cy="86.81102"
       sodipodi:rx="1.7716535"
       sodipodi:ry="1.7716535"
       d="m 21.259843,86.81102 c 0,0.978457 -0.793196,1.771653 -1.771653,1.771653 -0.978458,0 -1.771654,-0.793196 -1.771654,-1.771653 0,-0.978457 0.793196,-1.771654 1.771654,-1.771654 0.978457,0 1.771653,0.793197 1.771653,1.771654 z"
       transform="translate(116.89406,874.87832)" />
    <path
       transform="translate(9.0602794,927.15371)"
       d="m 21.259843,86.81102 c 0,0.978457 -0.793196,1.771653 -1.771653,1.771653 -0.978458,0 -1.771654,-0.793196 -1.771654,-1.771653 0,-0.978457 0.793196,-1.771654 1.771654,-1.771654 0.978457,0 1.771653,0.793197 1.771653,1.771654 z"
       sodipodi:ry="1.7716535"
       sodipodi:rx="1.7716535"
       sodipodi:cy="86.81102"
       sodipodi:cx="19.48819"
       id="path3843"
       style="fill:#cccccc;stroke:none"
       sodipodi:type="arc" />
    <path
       transform="translate(-0.03109208,941.04331)"
       d="m 21.259843,86.81102 c 0,0.978457 -0.793196,1.771653 -1.771653,1.771653 -0.978458,0 -1.771654,-0.793196 -1.771654,-1.771653 0,-0.978457 0.793196,-1.771654 1.771654,-1.771654 0.978457,0 1.771653,0.793197 1.771653,1.771654 z"
       sodipodi:ry="1.7716535"
       sodipodi:rx="1.7716535"
       sodipodi:cy="86.81102"
       sodipodi:cx="19.48819"
       id="path3845"
       style="fill:#cccccc;stroke:none"
       sodipodi:type="arc" />
    <path
       transform="translate(17.141499,937.50778)"
       d="m 21.259843,86.81102 c 0,0.978457 -0.793196,1.771653 -1.771653,1.771653 -0.978458,0 -1.771654,-0.793196 -1.771654,-1.771653 0,-0.978457 0.793196,-1.771654 1.771654,-1.771654 0.978457,0 1.771653,0.793197 1.771653,1.771654 z"
       sodipodi:ry="1.7716535"
       sodipodi:rx="1.7716535"
       sodipodi:cy="86.81102"
       sodipodi:cx="19.48819"
       id="path3847"
       style="fill:#cccccc;stroke:none"
       sodipodi:type="arc" />
    <path
       transform="translate(-1.7988601,931.95194)"
       d="m 21.259843,86.81102 c 0,0.978457 -0.793196,1.771653 -1.771653,1.771653 -0.978458,0 -1.771654,-0.793196 -1.771654,-1.771653 0,-0.978457 0.793196,-1.771654 1.771654,-1.771654 0.978457,0 1.771653,0.793197 1.771653,1.771654 z"
       sodipodi:ry="1.7716535"
       sodipodi:rx="1.7716535"
       sodipodi:cy="86.81102"
       sodipodi:cx="19.48819"
       id="path3849"
       style="fill:#cccccc;stroke:none"
       sodipodi:type="arc" />
    <path
       sodipodi:type="arc"
       style="fill:#cccccc;stroke:none"
       id="path3851"
       sodipodi:cx="19.48819"
       sodipodi:cy="86.81102"
       sodipodi:rx="1.7716535"
       sodipodi:ry="1.7716535"
       d="m 21.259843,86.81102 c 0,0.978457 -0.793196,1.771653 -1.771653,1.771653 -0.978458,0 -1.771654,-0.793196 -1.771654,-1.771653 0,-0.978457 0.793196,-1.771654 1.771654,-1.771654 0.978457,0 1.771653,0.793197 1.771653,1.771654 z"
       transform="translate(21.434649,954.17529)" />
    <path
       sodipodi:type="arc"
       style="fill:#cccccc;stroke:none"
       id="path3853"
       sodipodi:cx="19.48819"
       sodipodi:cy="86.81102"
       sodipodi:rx="1.7716535"
       sodipodi:ry="1.7716535"
       d="m 21.259843,86.81102 c 0,0.978457 -0.793196,1.771653 -1.771653,1.771653 -0.978458,0 -1.771654,-0.793196 -1.771654,-1.771653 0,-0.978457 0.793196,-1.771654 1.771654,-1.771654 0.978457,0 1.771653,0.793197 1.771653,1.771654 z"
       transform="translate(9.3128184,951.14483)" />
    <path
       sodipodi:type="arc"
       style="fill:#cccccc;stroke:none"
       id="path3855"
       sodipodi:cx="19.48819"
       sodipodi:cy="86.81102"
       sodipodi:rx="1.7716535"
       sodipodi:ry="1.7716535"
       d="m 21.259843,86.81102 c 0,0.978457 -0.793196,1.771653 -1.771653,1.771653 -0.978458,0 -1.771654,-0.793196 -1.771654,-1.771653 0,-0.978457 0.793196,-1.771654 1.771654,-1.771654 0.978457,0 1.771653,0.793197 1.771653,1.771654 z"
       transform="translate(-8.1123121,948.87199)" />
    <path
       transform="translate(31.283636,959.22606)"
       d="m 21.259843,86.81102 c 0,0.978457 -0.793196,1.771653 -1.771653,1.771653 -0.978458,0 -1.771654,-0.793196 -1.771654,-1.771653 0,-0.978457 0.793196,-1.771654 1.771654,-1.771654 0.978457,0 1.771653,0.793197 1.771653,1.771654 z"
       sodipodi:ry="1.7716535"
       sodipodi:rx="1.7716535"
       sodipodi:cy="86.81102"
       sodipodi:cx="19.48819"
       id="path3857"
       style="fill:#cccccc;stroke:none"
       sodipodi:type="arc" />
    <path
       transform="translate(32.546327,942.55854)"
       d="m 21.259843,86.81102 c 0,0.978457 -0.793196,1.771653 -1.771653,1.771653 -0.978458,0 -1.771654,-0.793196 -1.771654,-1.771653 0,-0.978457 0.793196,-1.771654 1.771654,-1.771654 0.978457,0 1.771653,0.793197 1.771653,1.771654 z"
       sodipodi:ry="1.7716535"
       sodipodi:rx="1.7716535"
       sodipodi:cy="86.81102"
       sodipodi:cx="19.48819"
       id="path3859"
       style="fill:#cccccc;stroke:none"
       sodipodi:type="arc" />
    <path
       sodipodi:type="arc"
       style="fill:#cccccc;stroke:none"
       id="path3861"
       sodipodi:cx="19.48819"
       sodipodi:cy="86.81102"
       sodipodi:rx="1.7716535"
       sodipodi:ry="1.7716535"
       d="m 21.259843,86.81102 c 0,0.978457 -0.793196,1.771653 -1.771653,1.771653 -0.978458,0 -1.771654,-0.793196 -1.771654,-1.771653 0,-0.978457 0.793196,-1.771654 1.771654,-1.771654 0.978457,0 1.771653,0.793197 1.771653,1.771654 z"
       transform="translate(45.930848,952.40753)" />
    <path
       sodipodi:type="arc"
       style="fill:#cccccc;stroke:none"
       id="path3863"
       sodipodi:cx="19.48819"
       sodipodi:cy="86.81102"
       sodipodi:rx="1.7716535"
       sodipodi:ry="1.7716535"
       d="m 21.259843,86.81102 c 0,0.978457 -0.793196,1.771653 -1.771653,1.771653 -0.978458,0 -1.771654,-0.793196 -1.771654,-1.771653 0,-0.978457 0.793196,-1.771654 1.771654,-1.771654 0.978457,0 1.771653,0.793197 1.771653,1.771654 z"
       transform="translate(30.778558,931.95194)" />
    <path
       sodipodi:type="arc"
       style="fill:#cccccc;stroke:none"
       id="path3865"
       sodipodi:cx="19.48819"
       sodipodi:cy="86.81102"
       sodipodi:rx="1.7716535"
       sodipodi:ry="1.7716535"
       d="m 21.259843,86.81102 c 0,0.978457 -0.793196,1.771653 -1.771653,1.771653 -0.978458,0 -1.771654,-0.793196 -1.771654,-1.771653 0,-0.978457 0.793196,-1.771654 1.771654,-1.771654 0.978457,0 1.771653,0.793197 1.771653,1.771654 z"
       transform="translate(19.666881,958.46844)" />
    <path
       sodipodi:type="arc"
       style="fill:#cccccc;stroke:none"
       id="path3867"
       sodipodi:cx="19.48819"
       sodipodi:cy="86.81102"
       sodipodi:rx="1.7716535"
       sodipodi:ry="1.7716535"
       d="m 21.259843,86.81102 c 0,0.978457 -0.793196,1.771653 -1.771653,1.771653 -0.978458,0 -1.771654,-0.793196 -1.771654,-1.771653 0,-0.978457 0.793196,-1.771654 1.771654,-1.771654 0.978457,0 1.771653,0.793197 1.771653,1.771654 z"
       transform="translate(47.446076,942.306)" />
    <path
       sodipodi:type="arc"
       style="fill:#cccccc;stroke:none"
       id="path3869"
       sodipodi:cx="19.48819"
       sodipodi:cy="86.81102"
       sodipodi:rx="1.7716535"
       sodipodi:ry="1.7716535"
       d="m 21.259843,86.81102 c 0,0.978457 -0.793196,1.771653 -1.771653,1.771653 -0.978458,0 -1.771654,-0.793196 -1.771654,-1.771653 0,-0.978457 0.793196,-1.771654 1.771654,-1.771654 0.978457,0 1.771653,0.793197 1.771653,1.771654 z"
       transform="translate(44.163081,923.36564)" />
    <path
       sodipodi:type="arc"
       style="fill:#cccccc;stroke:none"
       id="path3871"
       sodipodi:cx="19.48819"
       sodipodi:cy="86.81102"
       sodipodi:rx="1.7716535"
       sodipodi:ry="1.7716535"
       d="m 21.259843,86.81102 c 0,0.978457 -0.793196,1.771653 -1.771653,1.771653 -0.978458,0 -1.771654,-0.793196 -1.771654,-1.771653 0,-0.978457 0.793196,-1.771654 1.771654,-1.771654 0.978457,0 1.771653,0.793197 1.771653,1.771654 z"
       transform="translate(52.49684,933.46716)" />
    <path
       sodipodi:type="arc"
       style="fill:#cccccc;stroke:none"
       id="path3873"
       sodipodi:cx="19.48819"
       sodipodi:cy="86.81102"
       sodipodi:rx="1.7716535"
       sodipodi:ry="1.7716535"
       d="m 21.259843,86.81102 c 0,0.978457 -0.793196,1.771653 -1.771653,1.771653 -0.978458,0 -1.771654,-0.793196 -1.771654,-1.771653 0,-0.978457 0.793196,-1.771654 1.771654,-1.771654 0.978457,0 1.771653,0.793197 1.771653,1.771654 z"
       transform="translate(2.9993654,901.64736)" />
    <path
       sodipodi:type="arc"
       style="fill:#cccccc;stroke:none"
       id="path3875"
       sodipodi:cx="19.48819"
       sodipodi:cy="86.81102"
       sodipodi:rx="1.7716535"
       sodipodi:ry="1.7716535"
       d="m 21.259843,86.81102 c 0,0.978457 -0.793196,1.771653 -1.771653,1.771653 -0.978458,0 -1.771654,-0.793196 -1.771654,-1.771653 0,-0.978457 0.793196,-1.771654 1.771654,-1.771654 0.978457,0 1.771653,0.793197 1.771653,1.771654 z"
       transform="translate(5.7772844,914.27427)" />
    <path
       sodipodi:type="arc"
       style="fill:#cccccc;stroke:none"
       id="path3877"
       sodipodi:cx="19.48819"
       sodipodi:cy="86.81102"
       sodipodi:rx="1.7716535"
       sodipodi:ry="1.7716535"
       d="m 21.259843,86.81102 c 0,0.978457 -0.793196,1.771653 -1.771653,1.771653 -0.978458,0 -1.771654,-0.793196 -1.771654,-1.771653 0,-0.978457 0.793196,-1.771654 1.771654,-1.771654 0.978457,0 1.771653,0.793197 1.771653,1.771654 z"
       transform="translate(7.0399744,897.60675)" />
    <path
       transform="translate(94.41817,901.64736)"
       d="m 21.259843,86.81102 c 0,0.978457 -0.793196,1.771653 -1.771653,1.771653 -0.978458,0 -1.771654,-0.793196 -1.771654,-1.771653 0,-0.978457 0.793196,-1.771654 1.771654,-1.771654 0.978457,0 1.771653,0.793197 1.771653,1.771654 z"
       sodipodi:ry="1.7716535"
       sodipodi:rx="1.7716535"
       sodipodi:cy="86.81102"
       sodipodi:cx="19.48819"
       id="path3879"
       style="fill:#cccccc;stroke:none"
       sodipodi:type="arc" />
    <path
       transform="translate(101.48924,897.60675)"
       d="m 21.259843,86.81102 c 0,0.978457 -0.793196,1.771653 -1.771653,1.771653 -0.978458,0 -1.771654,-0.793196 -1.771654,-1.771653 0,-0.978457 0.793196,-1.771654 1.771654,-1.771654 0.978457,0 1.771653,0.793197 1.771653,1.771654 z"
       sodipodi:ry="1.7716535"
       sodipodi:rx="1.7716535"
       sodipodi:cy="86.81102"
       sodipodi:cx="19.48819"
       id="path3881"
       style="fill:#cccccc;stroke:none"
       sodipodi:type="arc" />
    <path
       transform="translate(89.367407,894.57629)"
       d="m 21.259843,86.81102 c 0,0.978457 -0.793196,1.771653 -1.771653,1.771653 -0.978458,0 -1.771654,-0.793196 -1.771654,-1.771653 0,-0.978457 0.793196,-1.771654 1.771654,-1.771654 0.978457,0 1.771653,0.793197 1.771653,1.771654 z"
       sodipodi:ry="1.7716535"
       sodipodi:rx="1.7716535"
       sodipodi:cy="86.81102"
       sodipodi:cx="19.48819"
       id="path3883"
       style="fill:#cccccc;stroke:none"
       sodipodi:type="arc" />
    <path
       transform="translate(71.942276,892.30345)"
       d="m 21.259843,86.81102 c 0,0.978457 -0.793196,1.771653 -1.771653,1.771653 -0.978458,0 -1.771654,-0.793196 -1.771654,-1.771653 0,-0.978457 0.793196,-1.771654 1.771654,-1.771654 0.978457,0 1.771653,0.793197 1.771653,1.771654 z"
       sodipodi:ry="1.7716535"
       sodipodi:rx="1.7716535"
       sodipodi:cy="86.81102"
       sodipodi:cx="19.48819"
       id="path3885"
       style="fill:#cccccc;stroke:none"
       sodipodi:type="arc" />
    <path
       transform="translate(-8.6173901,882.70701)"
       d="m 21.259843,86.81102 c 0,0.978457 -0.793196,1.771653 -1.771653,1.771653 -0.978458,0 -1.771654,-0.793196 -1.771654,-1.771653 0,-0.978457 0.793196,-1.771654 1.771654,-1.771654 0.978457,0 1.771653,0.793197 1.771653,1.771654 z"
       sodipodi:ry="1.7716535"
       sodipodi:rx="1.7716535"
       sodipodi:cy="86.81102"
       sodipodi:cx="19.48819"
       id="path3887"
       style="fill:#cccccc;stroke:none"
       sodipodi:type="arc" />
    <path
       transform="translate(-3.5666271,877.65624)"
       d="m 21.259843,86.81102 c 0,0.978457 -0.793196,1.771653 -1.771653,1.771653 -0.978458,0 -1.771654,-0.793196 -1.771654,-1.771653 0,-0.978457 0.793196,-1.771654 1.771654,-1.771654 0.978457,0 1.771653,0.793197 1.771653,1.771654 z"
       sodipodi:ry="1.7716535"
       sodipodi:rx="1.7716535"
       sodipodi:cy="86.81102"
       sodipodi:cx="19.48819"
       id="path3889"
       style="fill:#cccccc;stroke:none"
       sodipodi:type="arc" />
    <path
       sodipodi:type="arc"
       style="fill:#cccccc;stroke:none"
       id="path3891"
       sodipodi:cx="19.48819"
       sodipodi:cy="86.81102"
       sodipodi:rx="1.7716535"
       sodipodi:ry="1.7716535"
       d="m 21.259843,86.81102 c 0,0.978457 -0.793196,1.771653 -1.771653,1.771653 -0.978458,0 -1.771654,-0.793196 -1.771654,-1.771653 0,-0.978457 0.793196,-1.771654 1.771654,-1.771654 0.978457,0 1.771653,0.793197 1.771653,1.771654 z"
       transform="translate(3.2519063,883.71716)" />
    <path
       sodipodi:type="arc"
       style="fill:#cccccc;stroke:none"
       id="path3893"
       sodipodi:cx="19.48819"
       sodipodi:cy="86.81102"
       sodipodi:rx="1.7716535"
       sodipodi:ry="1.7716535"
       d="m 21.259843,86.81102 c 0,0.978457 -0.793196,1.771653 -1.771653,1.771653 -0.978458,0 -1.771654,-0.793196 -1.771654,-1.771653 0,-0.978457 0.793196,-1.771654 1.771654,-1.771654 0.978457,0 1.771653,0.793197 1.771653,1.771654 z"
       transform="translate(4.5145963,867.04964)" />
    <path
       sodipodi:type="arc"
       style="fill:#cccccc;stroke:none"
       id="path3895"
       sodipodi:cx="19.48819"
       sodipodi:cy="86.81102"
       sodipodi:rx="1.7716535"
       sodipodi:ry="1.7716535"
       d="m 21.259843,86.81102 c 0,0.978457 -0.793196,1.771653 -1.771653,1.771653 -0.978458,0 -1.771654,-0.793196 -1.771654,-1.771653 0,-0.978457 0.793196,-1.771654 1.771654,-1.771654 0.978457,0 1.771653,0.793197 1.771653,1.771654 z"
       transform="translate(-14.173229,868.31233)" />
    <path
       sodipodi:type="arc"
       style="fill:#cccccc;stroke:none"
       id="path3897"
       sodipodi:cx="19.48819"
       sodipodi:cy="86.81102"
       sodipodi:rx="1.7716535"
       sodipodi:ry="1.7716535"
       d="m 21.259843,86.81102 c 0,0.978457 -0.793196,1.771653 -1.771653,1.771653 -0.978458,0 -1.771654,-0.793196 -1.771654,-1.771653 0,-0.978457 0.793196,-1.771654 1.771654,-1.771654 0.978457,0 1.771653,0.793197 1.771653,1.771654 z"
       transform="translate(40.880086,884.97985)" />
    <path
       transform="translate(31.536175,862.75649)"
       d="m 21.259843,86.81102 c 0,0.978457 -0.793196,1.771653 -1.771653,1.771653 -0.978458,0 -1.771654,-0.793196 -1.771654,-1.771653 0,-0.978457 0.793196,-1.771654 1.771654,-1.771654 0.978457,0 1.771653,0.793197 1.771653,1.771654 z"
       sodipodi:ry="1.7716535"
       sodipodi:rx="1.7716535"
       sodipodi:cy="86.81102"
       sodipodi:cx="19.48819"
       id="path3899"
       style="fill:#cccccc;stroke:none"
       sodipodi:type="arc" />
    <path
       sodipodi:type="arc"
       style="fill:#cccccc;stroke:none"
       id="path3901"
       sodipodi:cx="19.48819"
       sodipodi:cy="86.81102"
       sodipodi:rx="1.7716535"
       sodipodi:ry="1.7716535"
       d="m 21.259843,86.81102 c 0,0.978457 -0.793196,1.771653 -1.771653,1.771653 -0.978458,0 -1.771654,-0.793196 -1.771654,-1.771653 0,-0.978457 0.793196,-1.771654 1.771654,-1.771654 0.978457,0 1.771653,0.793197 1.771653,1.771654 z"
       transform="translate(55.022222,868.05979)" />
    <path
       sodipodi:type="arc"
       style="fill:#cccccc;stroke:none"
       id="path3903"
       sodipodi:cx="19.48819"
       sodipodi:cy="86.81102"
       sodipodi:rx="1.7716535"
       sodipodi:ry="1.7716535"
       d="m 21.259843,86.81102 c 0,0.978457 -0.793196,1.771653 -1.771653,1.771653 -0.978458,0 -1.771654,-0.793196 -1.771654,-1.771653 0,-0.978457 0.793196,-1.771654 1.771654,-1.771654 0.978457,0 1.771653,0.793197 1.771653,1.771654 z"
       transform="translate(40.880086,872.85801)" />
    <path
       transform="translate(97.448628,857.20065)"
       d="m 21.259843,86.81102 c 0,0.978457 -0.793196,1.771653 -1.771653,1.771653 -0.978458,0 -1.771654,-0.793196 -1.771654,-1.771653 0,-0.978457 0.793196,-1.771654 1.771654,-1.771654 0.978457,0 1.771653,0.793197 1.771653,1.771654 z"
       sodipodi:ry="1.7716535"
       sodipodi:rx="1.7716535"
       sodipodi:cy="86.81102"
       sodipodi:cx="19.48819"
       id="path3905"
       style="fill:#cccccc;stroke:none"
       sodipodi:type="arc" />
    <path
       sodipodi:type="arc"
       style="fill:#cccccc;stroke:none"
       id="path3907"
       sodipodi:cx="19.48819"
       sodipodi:cy="86.81102"
       sodipodi:rx="1.7716535"
       sodipodi:ry="1.7716535"
       d="m 21.259843,86.81102 c 0,0.978457 -0.793196,1.771653 -1.771653,1.771653 -0.978458,0 -1.771654,-0.793196 -1.771654,-1.771653 0,-0.978457 0.793196,-1.771654 1.771654,-1.771654 0.978457,0 1.771653,0.793197 1.771653,1.771654 z"
       transform="translate(74.21512,873.36309)" />
    <path
       sodipodi:type="arc"
       style="fill:#cccccc;stroke:none"
       id="path3909"
       sodipodi:cx="19.48819"
       sodipodi:cy="86.81102"
       sodipodi:rx="1.7716535"
       sodipodi:ry="1.7716535"
       d="m 21.259843,86.81102 c 0,0.978457 -0.793196,1.771653 -1.771653,1.771653 -0.978458,0 -1.771654,-0.793196 -1.771654,-1.771653 0,-0.978457 0.793196,-1.771654 1.771654,-1.771654 0.978457,0 1.771653,0.793197 1.771653,1.771654 z"
       transform="translate(62.093289,870.33263)" />
    <path
       transform="translate(93.408018,888.26284)"
       d="m 21.259843,86.81102 c 0,0.978457 -0.793196,1.771653 -1.771653,1.771653 -0.978458,0 -1.771654,-0.793196 -1.771654,-1.771653 0,-0.978457 0.793196,-1.771654 1.771654,-1.771654 0.978457,0 1.771653,0.793197 1.771653,1.771654 z"
       sodipodi:ry="1.7716535"
       sodipodi:rx="1.7716535"
       sodipodi:cy="86.81102"
       sodipodi:cx="19.48819"
       id="path3911"
       style="fill:#cccccc;stroke:none"
       sodipodi:type="arc" />
    <path
       sodipodi:type="arc"
       style="fill:#cccccc;stroke:none"
       id="path3913"
       sodipodi:cx="19.48819"
       sodipodi:cy="86.81102"
       sodipodi:rx="1.7716535"
       sodipodi:ry="1.7716535"
       d="m 21.259843,86.81102 c 0,0.978457 -0.793196,1.771653 -1.771653,1.771653 -0.978458,0 -1.771654,-0.793196 -1.771654,-1.771653 0,-0.978457 0.793196,-1.771654 1.771654,-1.771654 0.978457,0 1.771653,0.793197 1.771653,1.771654 z"
       transform="translate(76.993039,885.99)" />
    <path
       transform="translate(92.397865,850.12958)"
       d="m 21.259843,86.81102 c 0,0.978457 -0.793196,1.771653 -1.771653,1.771653 -0.978458,0 -1.771654,-0.793196 -1.771654,-1.771653 0,-0.978457 0.793196,-1.771654 1.771654,-1.771654 0.978457,0 1.771653,0.793197 1.771653,1.771654 z"
       sodipodi:ry="1.7716535"
       sodipodi:rx="1.7716535"
       sodipodi:cy="86.81102"
       sodipodi:cx="19.48819"
       id="path3915"
       style="fill:#cccccc;stroke:none"
       sodipodi:type="arc" />
    <path
       sodipodi:type="arc"
       style="fill:#cccccc;stroke:none"
       id="path3917"
       sodipodi:cx="19.48819"
       sodipodi:cy="86.81102"
       sodipodi:rx="1.7716535"
       sodipodi:ry="1.7716535"
       d="m 21.259843,86.81102 c 0,0.978457 -0.793196,1.771653 -1.771653,1.771653 -0.978458,0 -1.771654,-0.793196 -1.771654,-1.771653 0,-0.978457 0.793196,-1.771654 1.771654,-1.771654 0.978457,0 1.771653,0.793197 1.771653,1.771654 z"
       transform="translate(78.255729,869.32248)" />
    <path
       transform="translate(91.64025,879.17147)"
       d="m 21.259843,86.81102 c 0,0.978457 -0.793196,1.771653 -1.771653,1.771653 -0.978458,0 -1.771654,-0.793196 -1.771654,-1.771653 0,-0.978457 0.793196,-1.771654 1.771654,-1.771654 0.978457,0 1.771653,0.793197 1.771653,1.771654 z"
       sodipodi:ry="1.7716535"
       sodipodi:rx="1.7716535"
       sodipodi:cy="86.81102"
       sodipodi:cx="19.48819"
       id="path3919"
       style="fill:#cccccc;stroke:none"
       sodipodi:type="arc" />
    <path
       transform="translate(74.972734,847.85674)"
       d="m 21.259843,86.81102 c 0,0.978457 -0.793196,1.771653 -1.771653,1.771653 -0.978458,0 -1.771654,-0.793196 -1.771654,-1.771653 0,-0.978457 0.793196,-1.771654 1.771654,-1.771654 0.978457,0 1.771653,0.793197 1.771653,1.771654 z"
       sodipodi:ry="1.7716535"
       sodipodi:rx="1.7716535"
       sodipodi:cy="86.81102"
       sodipodi:cx="19.48819"
       id="path3921"
       style="fill:#cccccc;stroke:none"
       sodipodi:type="arc" />
    <path
       sodipodi:type="arc"
       style="fill:#cccccc;stroke:none"
       id="path3923"
       sodipodi:cx="19.48819"
       sodipodi:cy="86.81102"
       sodipodi:rx="1.7716535"
       sodipodi:ry="1.7716535"
       d="m 21.259843,86.81102 c 0,0.978457 -0.793196,1.771653 -1.771653,1.771653 -0.978458,0 -1.771654,-0.793196 -1.771654,-1.771653 0,-0.978457 0.793196,-1.771654 1.771654,-1.771654 0.978457,0 1.771653,0.793197 1.771653,1.771654 z"
       transform="translate(97.953704,870.58517)" />
    <path
       transform="translate(66.891514,863.26157)"
       d="m 21.259843,86.81102 c 0,0.978457 -0.793196,1.771653 -1.771653,1.771653 -0.978458,0 -1.771654,-0.793196 -1.771654,-1.771653 0,-0.978457 0.793196,-1.771654 1.771654,-1.771654 0.978457,0 1.771653,0.793197 1.771653,1.771654 z"
       sodipodi:ry="1.7716535"
       sodipodi:rx="1.7716535"
       sodipodi:cy="86.81102"
       sodipodi:cx="19.48819"
       id="path3925"
       style="fill:#cccccc;stroke:none"
       sodipodi:type="arc" />
    <path
       transform="translate(81.03365,846.34151)"
       d="m 21.259843,86.81102 c 0,0.978457 -0.793196,1.771653 -1.771653,1.771653 -0.978458,0 -1.771654,-0.793196 -1.771654,-1.771653 0,-0.978457 0.793196,-1.771654 1.771654,-1.771654 0.978457,0 1.771653,0.793197 1.771653,1.771654 z"
       sodipodi:ry="1.7716535"
       sodipodi:rx="1.7716535"
       sodipodi:cy="86.81102"
       sodipodi:cx="19.48819"
       id="path3929"
       style="fill:#cccccc;stroke:none"
       sodipodi:type="arc" />
    <path
       transform="translate(66.891514,851.13973)"
       d="m 21.259843,86.81102 c 0,0.978457 -0.793196,1.771653 -1.771653,1.771653 -0.978458,0 -1.771654,-0.793196 -1.771654,-1.771653 0,-0.978457 0.793196,-1.771654 1.771654,-1.771654 0.978457,0 1.771653,0.793197 1.771653,1.771654 z"
       sodipodi:ry="1.7716535"
       sodipodi:rx="1.7716535"
       sodipodi:cy="86.81102"
       sodipodi:cx="19.48819"
       id="path3931"
       style="fill:#cccccc;stroke:none"
       sodipodi:type="arc" />
    <path
       transform="translate(105.52985,919.32503)"
       d="m 21.259843,86.81102 c 0,0.978457 -0.793196,1.771653 -1.771653,1.771653 -0.978458,0 -1.771654,-0.793196 -1.771654,-1.771653 0,-0.978457 0.793196,-1.771654 1.771654,-1.771654 0.978457,0 1.771653,0.793197 1.771653,1.771654 z"
       sodipodi:ry="1.7716535"
       sodipodi:rx="1.7716535"
       sodipodi:cy="86.81102"
       sodipodi:cx="19.48819"
       id="path3933"
       style="fill:#cccccc;stroke:none"
       sodipodi:type="arc" />
    <path
       sodipodi:type="arc"
       style="fill:#cccccc;stroke:none"
       id="path3935"
       sodipodi:cx="19.48819"
       sodipodi:cy="86.81102"
       sodipodi:rx="1.7716535"
       sodipodi:ry="1.7716535"
       d="m 21.259843,86.81102 c 0,0.978457 -0.793196,1.771653 -1.771653,1.771653 -0.978458,0 -1.771654,-0.793196 -1.771654,-1.771653 0,-0.978457 0.793196,-1.771654 1.771654,-1.771654 0.978457,0 1.771653,0.793197 1.771653,1.771654 z"
       transform="translate(82.29634,935.48747)" />
    <path
       sodipodi:type="arc"
       style="fill:#cccccc;stroke:none"
       id="path3937"
       sodipodi:cx="19.48819"
       sodipodi:cy="86.81102"
       sodipodi:rx="1.7716535"
       sodipodi:ry="1.7716535"
       d="m 21.259843,86.81102 c 0,0.978457 -0.793196,1.771653 -1.771653,1.771653 -0.978458,0 -1.771654,-0.793196 -1.771654,-1.771653 0,-0.978457 0.793196,-1.771654 1.771654,-1.771654 0.978457,0 1.771653,0.793197 1.771653,1.771654 z"
       transform="translate(70.174509,932.45701)" />
    <path
       transform="translate(101.48924,950.38722)"
       d="m 21.259843,86.81102 c 0,0.978457 -0.793196,1.771653 -1.771653,1.771653 -0.978458,0 -1.771654,-0.793196 -1.771654,-1.771653 0,-0.978457 0.793196,-1.771654 1.771654,-1.771654 0.978457,0 1.771653,0.793197 1.771653,1.771654 z"
       sodipodi:ry="1.7716535"
       sodipodi:rx="1.7716535"
       sodipodi:cy="86.81102"
       sodipodi:cx="19.48819"
       id="path3939"
       style="fill:#cccccc;stroke:none"
       sodipodi:type="arc" />
    <path
       sodipodi:type="arc"
       style="fill:#cccccc;stroke:none"
       id="path3941"
       sodipodi:cx="19.48819"
       sodipodi:cy="86.81102"
       sodipodi:rx="1.7716535"
       sodipodi:ry="1.7716535"
       d="m 21.259843,86.81102 c 0,0.978457 -0.793196,1.771653 -1.771653,1.771653 -0.978458,0 -1.771654,-0.793196 -1.771654,-1.771653 0,-0.978457 0.793196,-1.771654 1.771654,-1.771654 0.978457,0 1.771653,0.793197 1.771653,1.771654 z"
       transform="translate(85.074259,948.11438)" />
    <path
       sodipodi:type="arc"
       style="fill:#cccccc;stroke:none"
       id="path3943"
       sodipodi:cx="19.48819"
       sodipodi:cy="86.81102"
       sodipodi:rx="1.7716535"
       sodipodi:ry="1.7716535"
       d="m 21.259843,86.81102 c 0,0.978457 -0.793196,1.771653 -1.771653,1.771653 -0.978458,0 -1.771654,-0.793196 -1.771654,-1.771653 0,-0.978457 0.793196,-1.771654 1.771654,-1.771654 0.978457,0 1.771653,0.793197 1.771653,1.771654 z"
       transform="translate(86.336949,931.44686)" />
    <path
       transform="translate(99.72147,941.29585)"
       d="m 21.259843,86.81102 c 0,0.978457 -0.793196,1.771653 -1.771653,1.771653 -0.978458,0 -1.771654,-0.793196 -1.771654,-1.771653 0,-0.978457 0.793196,-1.771654 1.771654,-1.771654 0.978457,0 1.771653,0.793197 1.771653,1.771654 z"
       sodipodi:ry="1.7716535"
       sodipodi:rx="1.7716535"
       sodipodi:cy="86.81102"
       sodipodi:cx="19.48819"
       id="path3945"
       style="fill:#cccccc;stroke:none"
       sodipodi:type="arc" />
    <path
       sodipodi:type="arc"
       style="fill:#cccccc;stroke:none"
       id="path3947"
       sodipodi:cx="19.48819"
       sodipodi:cy="86.81102"
       sodipodi:rx="1.7716535"
       sodipodi:ry="1.7716535"
       d="m 21.259843,86.81102 c 0,0.978457 -0.793196,1.771653 -1.771653,1.771653 -0.978458,0 -1.771654,-0.793196 -1.771654,-1.771653 0,-0.978457 0.793196,-1.771654 1.771654,-1.771654 0.978457,0 1.771653,0.793197 1.771653,1.771654 z"
       transform="translate(93.408018,958.2159)" />
    <path
       sodipodi:type="arc"
       style="fill:#cccccc;stroke:none"
       id="path3949"
       sodipodi:cx="19.48819"
       sodipodi:cy="86.81102"
       sodipodi:rx="1.7716535"
       sodipodi:ry="1.7716535"
       d="m 21.259843,86.81102 c 0,0.978457 -0.793196,1.771653 -1.771653,1.771653 -0.978458,0 -1.771654,-0.793196 -1.771654,-1.771653 0,-0.978457 0.793196,-1.771654 1.771654,-1.771654 0.978457,0 1.771653,0.793197 1.771653,1.771654 z"
       transform="translate(63.355984,927.15371)" />
    <path
       sodipodi:type="arc"
       style="fill:#cccccc;stroke:none"
       id="path3951"
       sodipodi:cx="19.48819"
       sodipodi:cy="86.81102"
       sodipodi:rx="1.7716535"
       sodipodi:ry="1.7716535"
       d="m 21.259843,86.81102 c 0,0.978457 -0.793196,1.771653 -1.771653,1.771653 -0.978458,0 -1.771654,-0.793196 -1.771654,-1.771653 0,-0.978457 0.793196,-1.771654 1.771654,-1.771654 0.978457,0 1.771653,0.793197 1.771653,1.771654 z"
       transform="translate(106.03492,932.70955)" />
    <path
       transform="translate(74.972734,925.38595)"
       d="m 21.259843,86.81102 c 0,0.978457 -0.793196,1.771653 -1.771653,1.771653 -0.978458,0 -1.771654,-0.793196 -1.771654,-1.771653 0,-0.978457 0.793196,-1.771654 1.771654,-1.771654 0.978457,0 1.771653,0.793197 1.771653,1.771654 z"
       sodipodi:ry="1.7716535"
       sodipodi:rx="1.7716535"
       sodipodi:cy="86.81102"
       sodipodi:cx="19.48819"
       id="path3953"
       style="fill:#cccccc;stroke:none"
       sodipodi:type="arc" />
    <path
       sodipodi:type="arc"
       style="fill:#cccccc;stroke:none"
       id="path3955"
       sodipodi:cx="19.48819"
       sodipodi:cy="86.81102"
       sodipodi:rx="1.7716535"
       sodipodi:ry="1.7716535"
       d="m 21.259843,86.81102 c 0,0.978457 -0.793196,1.771653 -1.771653,1.771653 -0.978458,0 -1.771654,-0.793196 -1.771654,-1.771653 0,-0.978457 0.793196,-1.771654 1.771654,-1.771654 0.978457,0 1.771653,0.793197 1.771653,1.771654 z"
       transform="translate(123.46005,870.58517)" />
    <path
       transform="translate(136.59204,853.91765)"
       d="m 21.259843,86.81102 c 0,0.978457 -0.793196,1.771653 -1.771653,1.771653 -0.978458,0 -1.771654,-0.793196 -1.771654,-1.771653 0,-0.978457 0.793196,-1.771654 1.771654,-1.771654 0.978457,0 1.771653,0.793197 1.771653,1.771654 z"
       sodipodi:ry="1.7716535"
       sodipodi:rx="1.7716535"
       sodipodi:cy="86.81102"
       sodipodi:cx="19.48819"
       id="path3957"
       style="fill:#cccccc;stroke:none"
       sodipodi:type="arc" />
    <path
       sodipodi:type="arc"
       style="fill:#cccccc;stroke:none"
       id="path3959"
       sodipodi:cx="19.48819"
       sodipodi:cy="86.81102"
       sodipodi:rx="1.7716535"
       sodipodi:ry="1.7716535"
       d="m 21.259843,86.81102 c 0,0.978457 -0.793196,1.771653 -1.771653,1.771653 -0.978458,0 -1.771654,-0.793196 -1.771654,-1.771653 0,-0.978457 0.793196,-1.771654 1.771654,-1.771654 0.978457,0 1.771653,0.793197 1.771653,1.771654 z"
       transform="translate(120.17706,851.64481)" />
    <path
       sodipodi:type="arc"
       style="fill:#cccccc;stroke:none"
       id="path3961"
       sodipodi:cx="19.48819"
       sodipodi:cy="86.81102"
       sodipodi:rx="1.7716535"
       sodipodi:ry="1.7716535"
       d="m 21.259843,86.81102 c 0,0.978457 -0.793196,1.771653 -1.771653,1.771653 -0.978458,0 -1.771654,-0.793196 -1.771654,-1.771653 0,-0.978457 0.793196,-1.771654 1.771654,-1.771654 0.978457,0 1.771653,0.793197 1.771653,1.771654 z"
       transform="translate(145.93595,864.01917)" />
    <path
       sodipodi:type="arc"
       style="fill:#cccccc;stroke:none"
       id="path3963"
       sodipodi:cx="19.48819"
       sodipodi:cy="86.81102"
       sodipodi:rx="1.7716535"
       sodipodi:ry="1.7716535"
       d="m 21.259843,86.81102 c 0,0.978457 -0.793196,1.771653 -1.771653,1.771653 -0.978458,0 -1.771654,-0.793196 -1.771654,-1.771653 0,-0.978457 0.793196,-1.771654 1.771654,-1.771654 0.978457,0 1.771653,0.793197 1.771653,1.771654 z"
       transform="translate(128.51082,861.74633)" />
    <path
       transform="translate(113.35853,867.30217)"
       d="m 21.259843,86.81102 c 0,0.978457 -0.793196,1.771653 -1.771653,1.771653 -0.978458,0 -1.771654,-0.793196 -1.771654,-1.771653 0,-0.978457 0.793196,-1.771654 1.771654,-1.771654 0.978457,0 1.771653,0.793197 1.771653,1.771654 z"
       sodipodi:ry="1.7716535"
       sodipodi:rx="1.7716535"
       sodipodi:cy="86.81102"
       sodipodi:cx="19.48819"
       id="path3965"
       style="fill:#cccccc;stroke:none"
       sodipodi:type="arc" />
    <path
       transform="translate(132.55143,871.09024)"
       d="m 21.259843,86.81102 c 0,0.978457 -0.793196,1.771653 -1.771653,1.771653 -0.978458,0 -1.771654,-0.793196 -1.771654,-1.771653 0,-0.978457 0.793196,-1.771654 1.771654,-1.771654 0.978457,0 1.771653,0.793197 1.771653,1.771654 z"
       sodipodi:ry="1.7716535"
       sodipodi:rx="1.7716535"
       sodipodi:cy="86.81102"
       sodipodi:cx="19.48819"
       id="path3967"
       style="fill:#cccccc;stroke:none"
       sodipodi:type="arc" />
    <path
       sodipodi:type="arc"
       style="fill:#cccccc;stroke:none"
       id="path3969"
       sodipodi:cx="19.48819"
       sodipodi:cy="86.81102"
       sodipodi:rx="1.7716535"
       sodipodi:ry="1.7716535"
       d="m 21.259843,86.81102 c 0,0.978457 -0.793196,1.771653 -1.771653,1.771653 -0.978458,0 -1.771654,-0.793196 -1.771654,-1.771653 0,-0.978457 0.793196,-1.771654 1.771654,-1.771654 0.978457,0 1.771653,0.793197 1.771653,1.771654 z"
       transform="translate(144.16818,869.32248)" />
    <path
       transform="translate(111.8433,883.96969)"
       d="m 21.259843,86.81102 c 0,0.978457 -0.793196,1.771653 -1.771653,1.771653 -0.978458,0 -1.771654,-0.793196 -1.771654,-1.771653 0,-0.978457 0.793196,-1.771654 1.771654,-1.771654 0.978457,0 1.771653,0.793197 1.771653,1.771654 z"
       sodipodi:ry="1.7716535"
       sodipodi:rx="1.7716535"
       sodipodi:cy="86.81102"
       sodipodi:cx="19.48819"
       id="path3971"
       style="fill:#cccccc;stroke:none"
       sodipodi:type="arc" />
    <path
       transform="translate(116.89406,901.14228)"
       d="m 21.259843,86.81102 c 0,0.978457 -0.793196,1.771653 -1.771653,1.771653 -0.978458,0 -1.771654,-0.793196 -1.771654,-1.771653 0,-0.978457 0.793196,-1.771654 1.771654,-1.771654 0.978457,0 1.771653,0.793197 1.771653,1.771654 z"
       sodipodi:ry="1.7716535"
       sodipodi:rx="1.7716535"
       sodipodi:cy="86.81102"
       sodipodi:cx="19.48819"
       id="path3973"
       style="fill:#cccccc;stroke:none"
       sodipodi:type="arc" />
    <path
       transform="translate(107.80269,915.03188)"
       d="m 21.259843,86.81102 c 0,0.978457 -0.793196,1.771653 -1.771653,1.771653 -0.978458,0 -1.771654,-0.793196 -1.771654,-1.771653 0,-0.978457 0.793196,-1.771654 1.771654,-1.771654 0.978457,0 1.771653,0.793197 1.771653,1.771654 z"
       sodipodi:ry="1.7716535"
       sodipodi:rx="1.7716535"
       sodipodi:cy="86.81102"
       sodipodi:cx="19.48819"
       id="path3975"
       style="fill:#cccccc;stroke:none"
       sodipodi:type="arc" />
    <path
       transform="translate(124.97528,911.49635)"
       d="m 21.259843,86.81102 c 0,0.978457 -0.793196,1.771653 -1.771653,1.771653 -0.978458,0 -1.771654,-0.793196 -1.771654,-1.771653 0,-0.978457 0.793196,-1.771654 1.771654,-1.771654 0.978457,0 1.771653,0.793197 1.771653,1.771654 z"
       sodipodi:ry="1.7716535"
       sodipodi:rx="1.7716535"
       sodipodi:cy="86.81102"
       sodipodi:cx="19.48819"
       id="path3977"
       style="fill:#cccccc;stroke:none"
       sodipodi:type="arc" />
    <path
       transform="translate(106.03492,905.94051)"
       d="m 21.259843,86.81102 c 0,0.978457 -0.793196,1.771653 -1.771653,1.771653 -0.978458,0 -1.771654,-0.793196 -1.771654,-1.771653 0,-0.978457 0.793196,-1.771654 1.771654,-1.771654 0.978457,0 1.771653,0.793197 1.771653,1.771654 z"
       sodipodi:ry="1.7716535"
       sodipodi:rx="1.7716535"
       sodipodi:cy="86.81102"
       sodipodi:cx="19.48819"
       id="path3979"
       style="fill:#cccccc;stroke:none"
       sodipodi:type="arc" />
    <path
       sodipodi:type="arc"
       style="fill:#cccccc;stroke:none"
       id="path3981"
       sodipodi:cx="19.48819"
       sodipodi:cy="86.81102"
       sodipodi:rx="1.7716535"
       sodipodi:ry="1.7716535"
       d="m 21.259843,86.81102 c 0,0.978457 -0.793196,1.771653 -1.771653,1.771653 -0.978458,0 -1.771654,-0.793196 -1.771654,-1.771653 0,-0.978457 0.793196,-1.771654 1.771654,-1.771654 0.978457,0 1.771653,0.793197 1.771653,1.771654 z"
       transform="translate(129.77351,899.62705)" />
    <path
       sodipodi:type="arc"
       style="fill:#cccccc;stroke:none"
       id="path3983"
       sodipodi:cx="19.48819"
       sodipodi:cy="86.81102"
       sodipodi:rx="1.7716535"
       sodipodi:ry="1.7716535"
       d="m 21.259843,86.81102 c 0,0.978457 -0.793196,1.771653 -1.771653,1.771653 -0.978458,0 -1.771654,-0.793196 -1.771654,-1.771653 0,-0.978457 0.793196,-1.771654 1.771654,-1.771654 0.978457,0 1.771653,0.793197 1.771653,1.771654 z"
       transform="translate(112.34838,897.35421)" />
    <path
       transform="translate(117.39914,891.04076)"
       d="m 21.259843,86.81102 c 0,0.978457 -0.793196,1.771653 -1.771653,1.771653 -0.978458,0 -1.771654,-0.793196 -1.771654,-1.771653 0,-0.978457 0.793196,-1.771654 1.771654,-1.771654 0.978457,0 1.771653,0.793197 1.771653,1.771654 z"
       sodipodi:ry="1.7716535"
       sodipodi:rx="1.7716535"
       sodipodi:cy="86.81102"
       sodipodi:cx="19.48819"
       id="path3985"
       style="fill:#cccccc;stroke:none"
       sodipodi:type="arc" />
    <path
       sodipodi:type="arc"
       style="fill:#cccccc;stroke:none"
       id="path3987"
       sodipodi:cx="19.48819"
       sodipodi:cy="86.81102"
       sodipodi:rx="1.7716535"
       sodipodi:ry="1.7716535"
       d="m 21.259843,86.81102 c 0,0.978457 -0.793196,1.771653 -1.771653,1.771653 -0.978458,0 -1.771654,-0.793196 -1.771654,-1.771653 0,-0.978457 0.793196,-1.771654 1.771654,-1.771654 0.978457,0 1.771653,0.793197 1.771653,1.771654 z"
       transform="translate(132.04635,884.22223)" />
    <path
       sodipodi:type="arc"
       style="fill:#cccccc;stroke:none"
       id="path3989"
       sodipodi:cx="19.48819"
       sodipodi:cy="86.81102"
       sodipodi:rx="1.7716535"
       sodipodi:ry="1.7716535"
       d="m 21.259843,86.81102 c 0,0.978457 -0.793196,1.771653 -1.771653,1.771653 -0.978458,0 -1.771654,-0.793196 -1.771654,-1.771653 0,-0.978457 0.793196,-1.771654 1.771654,-1.771654 0.978457,0 1.771653,0.793197 1.771653,1.771654 z"
       transform="translate(13.858505,851.64481)" />
    <path
       sodipodi:type="arc"
       style="fill:#cccccc;stroke:none"
       id="path3991"
       sodipodi:cx="19.48819"
       sodipodi:cy="86.81102"
       sodipodi:rx="1.7716535"
       sodipodi:ry="1.7716535"
       d="m 21.259843,86.81102 c 0,0.978457 -0.793196,1.771653 -1.771653,1.771653 -0.978458,0 -1.771654,-0.793196 -1.771654,-1.771653 0,-0.978457 0.793196,-1.771654 1.771654,-1.771654 0.978457,0 1.771653,0.793197 1.771653,1.771654 z"
       transform="translate(18.909266,868.8174)" />
    <path
       sodipodi:type="arc"
       style="fill:#cccccc;stroke:none"
       id="path3993"
       sodipodi:cx="19.48819"
       sodipodi:cy="86.81102"
       sodipodi:rx="1.7716535"
       sodipodi:ry="1.7716535"
       d="m 21.259843,86.81102 c 0,0.978457 -0.793196,1.771653 -1.771653,1.771653 -0.978458,0 -1.771654,-0.793196 -1.771654,-1.771653 0,-0.978457 0.793196,-1.771654 1.771654,-1.771654 0.978457,0 1.771653,0.793197 1.771653,1.771654 z"
       transform="translate(9.8178949,882.707)" />
    <path
       sodipodi:type="arc"
       style="fill:#cccccc;stroke:none"
       id="path3995"
       sodipodi:cx="19.48819"
       sodipodi:cy="86.81102"
       sodipodi:rx="1.7716535"
       sodipodi:ry="1.7716535"
       d="m 21.259843,86.81102 c 0,0.978457 -0.793196,1.771653 -1.771653,1.771653 -0.978458,0 -1.771654,-0.793196 -1.771654,-1.771653 0,-0.978457 0.793196,-1.771654 1.771654,-1.771654 0.978457,0 1.771653,0.793197 1.771653,1.771654 z"
       transform="translate(26.990486,879.17147)" />
    <path
       sodipodi:type="arc"
       style="fill:#cccccc;stroke:none"
       id="path3997"
       sodipodi:cx="19.48819"
       sodipodi:cy="86.81102"
       sodipodi:rx="1.7716535"
       sodipodi:ry="1.7716535"
       d="m 21.259843,86.81102 c 0,0.978457 -0.793196,1.771653 -1.771653,1.771653 -0.978458,0 -1.771654,-0.793196 -1.771654,-1.771653 0,-0.978457 0.793196,-1.771654 1.771654,-1.771654 0.978457,0 1.771653,0.793197 1.771653,1.771654 z"
       transform="translate(8.0501269,873.61563)" />
    <path
       transform="translate(31.788716,867.30217)"
       d="m 21.259843,86.81102 c 0,0.978457 -0.793196,1.771653 -1.771653,1.771653 -0.978458,0 -1.771654,-0.793196 -1.771654,-1.771653 0,-0.978457 0.793196,-1.771654 1.771654,-1.771654 0.978457,0 1.771653,0.793197 1.771653,1.771654 z"
       sodipodi:ry="1.7716535"
       sodipodi:rx="1.7716535"
       sodipodi:cy="86.81102"
       sodipodi:cx="19.48819"
       id="path3999"
       style="fill:#cccccc;stroke:none"
       sodipodi:type="arc" />
    <path
       transform="translate(14.363581,865.02933)"
       d="m 21.259843,86.81102 c 0,0.978457 -0.793196,1.771653 -1.771653,1.771653 -0.978458,0 -1.771654,-0.793196 -1.771654,-1.771653 0,-0.978457 0.793196,-1.771654 1.771654,-1.771654 0.978457,0 1.771653,0.793197 1.771653,1.771654 z"
       sodipodi:ry="1.7716535"
       sodipodi:rx="1.7716535"
       sodipodi:cy="86.81102"
       sodipodi:cx="19.48819"
       id="path4001"
       style="fill:#cccccc;stroke:none"
       sodipodi:type="arc" />
    <path
       sodipodi:type="arc"
       style="fill:#cccccc;stroke:none"
       id="path4003"
       sodipodi:cx="19.48819"
       sodipodi:cy="86.81102"
       sodipodi:rx="1.7716535"
       sodipodi:ry="1.7716535"
       d="m 21.259843,86.81102 c 0,0.978457 -0.793196,1.771653 -1.771653,1.771653 -0.978458,0 -1.771654,-0.793196 -1.771654,-1.771653 0,-0.978457 0.793196,-1.771654 1.771654,-1.771654 0.978457,0 1.771653,0.793197 1.771653,1.771654 z"
       transform="translate(19.414346,858.71588)" />
    <path
       transform="translate(34.061556,851.89735)"
       d="m 21.259843,86.81102 c 0,0.978457 -0.793196,1.771653 -1.771653,1.771653 -0.978458,0 -1.771654,-0.793196 -1.771654,-1.771653 0,-0.978457 0.793196,-1.771654 1.771654,-1.771654 0.978457,0 1.771653,0.793197 1.771653,1.771654 z"
       sodipodi:ry="1.7716535"
       sodipodi:rx="1.7716535"
       sodipodi:cy="86.81102"
       sodipodi:cx="19.48819"
       id="path4005"
       style="fill:#cccccc;stroke:none"
       sodipodi:type="arc" />
    <path
       sodipodi:type="arc"
       style="fill:#cccccc;stroke:none"
       id="path4007"
       sodipodi:cx="19.48819"
       sodipodi:cy="86.81102"
       sodipodi:rx="1.7716535"
       sodipodi:ry="1.7716535"
       d="m 21.259843,86.81102 c 0,0.978457 -0.793196,1.771653 -1.771653,1.771653 -0.978458,0 -1.771654,-0.793196 -1.771654,-1.771653 0,-0.978457 0.793196,-1.771654 1.771654,-1.771654 0.978457,0 1.771653,0.793197 1.771653,1.771654 z"
       transform="translate(36.919072,911.13305)" />
    <path
       transform="translate(36.666533,875.02009)"
       d="m 21.259843,86.81102 c 0,0.978457 -0.793196,1.771653 -1.771653,1.771653 -0.978458,0 -1.771654,-0.793196 -1.771654,-1.771653 0,-0.978457 0.793196,-1.771654 1.771654,-1.771654 0.978457,0 1.771653,0.793197 1.771653,1.771654 z"
       sodipodi:ry="1.7716535"
       sodipodi:rx="1.7716535"
       sodipodi:cy="86.81102"
       sodipodi:cx="19.48819"
       id="path4009"
       style="fill:#cccccc;stroke:none"
       sodipodi:type="arc" />
    <path
       transform="translate(44.747753,885.37416)"
       d="m 21.259843,86.81102 c 0,0.978457 -0.793196,1.771653 -1.771653,1.771653 -0.978458,0 -1.771654,-0.793196 -1.771654,-1.771653 0,-0.978457 0.793196,-1.771654 1.771654,-1.771654 0.978457,0 1.771653,0.793197 1.771653,1.771654 z"
       sodipodi:ry="1.7716535"
       sodipodi:rx="1.7716535"
       sodipodi:cy="86.81102"
       sodipodi:cx="19.48819"
       id="path4011"
       style="fill:#cccccc;stroke:none"
       sodipodi:type="arc" />
    <path
       sodipodi:type="arc"
       style="fill:#cccccc;stroke:none"
       id="path4013"
       sodipodi:cx="19.48819"
       sodipodi:cy="86.81102"
       sodipodi:rx="1.7716535"
       sodipodi:ry="1.7716535"
       d="m 21.259843,86.81102 c 0,0.978457 -0.793196,1.771653 -1.771653,1.771653 -0.978458,0 -1.771654,-0.793196 -1.771654,-1.771653 0,-0.978457 0.793196,-1.771654 1.771654,-1.771654 0.978457,0 1.771653,0.793197 1.771653,1.771654 z"
       transform="translate(36.919072,899.01121)" />
    <path
       transform="translate(42.474911,914.41604)"
       d="m 21.259843,86.81102 c 0,0.978457 -0.793196,1.771653 -1.771653,1.771653 -0.978458,0 -1.771654,-0.793196 -1.771654,-1.771653 0,-0.978457 0.793196,-1.771654 1.771654,-1.771654 0.978457,0 1.771653,0.793197 1.771653,1.771654 z"
       sodipodi:ry="1.7716535"
       sodipodi:rx="1.7716535"
       sodipodi:cy="86.81102"
       sodipodi:cx="19.48819"
       id="path4015"
       style="fill:#cccccc;stroke:none"
       sodipodi:type="arc" />
    <path
       transform="translate(30.35308,911.38558)"
       d="m 21.259843,86.81102 c 0,0.978457 -0.793196,1.771653 -1.771653,1.771653 -0.978458,0 -1.771654,-0.793196 -1.771654,-1.771653 0,-0.978457 0.793196,-1.771654 1.771654,-1.771654 0.978457,0 1.771653,0.793197 1.771653,1.771654 z"
       sodipodi:ry="1.7716535"
       sodipodi:rx="1.7716535"
       sodipodi:cy="86.81102"
       sodipodi:cx="19.48819"
       id="path4017"
       style="fill:#cccccc;stroke:none"
       sodipodi:type="arc" />
    <path
       transform="translate(46.51552,910.37543)"
       d="m 21.259843,86.81102 c 0,0.978457 -0.793196,1.771653 -1.771653,1.771653 -0.978458,0 -1.771654,-0.793196 -1.771654,-1.771653 0,-0.978457 0.793196,-1.771654 1.771654,-1.771654 0.978457,0 1.771653,0.793197 1.771653,1.771654 z"
       sodipodi:ry="1.7716535"
       sodipodi:rx="1.7716535"
       sodipodi:cy="86.81102"
       sodipodi:cx="19.48819"
       id="path4019"
       style="fill:#cccccc;stroke:none"
       sodipodi:type="arc" />
    <path
       sodipodi:type="arc"
       style="fill:#cccccc;stroke:none"
       id="path4021"
       sodipodi:cx="19.48819"
       sodipodi:cy="86.81102"
       sodipodi:rx="1.7716535"
       sodipodi:ry="1.7716535"
       d="m 21.259843,86.81102 c 0,0.978457 -0.793196,1.771653 -1.771653,1.771653 -0.978458,0 -1.771654,-0.793196 -1.771654,-1.771653 0,-0.978457 0.793196,-1.771654 1.771654,-1.771654 0.978457,0 1.771653,0.793197 1.771653,1.771654 z"
       transform="translate(35.151305,904.31452)" />
    <path
       transform="translate(57.343651,885.02408)"
       d="m 21.259843,86.81102 c 0,0.978457 -0.793196,1.771653 -1.771653,1.771653 -0.978458,0 -1.771654,-0.793196 -1.771654,-1.771653 0,-0.978457 0.793196,-1.771654 1.771654,-1.771654 0.978457,0 1.771653,0.793197 1.771653,1.771654 z"
       sodipodi:ry="1.7716535"
       sodipodi:rx="1.7716535"
       sodipodi:cy="86.81102"
       sodipodi:cx="19.48819"
       id="path4023"
       style="fill:#cccccc;stroke:none"
       sodipodi:type="arc" />
    <path
       transform="translate(64.422151,886.84786)"
       d="m 21.259843,86.81102 c 0,0.978457 -0.793196,1.771653 -1.771653,1.771653 -0.978458,0 -1.771654,-0.793196 -1.771654,-1.771653 0,-0.978457 0.793196,-1.771654 1.771654,-1.771654 0.978457,0 1.771653,0.793197 1.771653,1.771654 z"
       sodipodi:ry="1.7716535"
       sodipodi:rx="1.7716535"
       sodipodi:cy="86.81102"
       sodipodi:cx="19.48819"
       id="path4025"
       style="fill:#cccccc;stroke:none"
       sodipodi:type="arc" />
    <path
       transform="translate(87.330057,869.27607)"
       d="m 21.259843,86.81102 c 0,0.978457 -0.793196,1.771653 -1.771653,1.771653 -0.978458,0 -1.771654,-0.793196 -1.771654,-1.771653 0,-0.978457 0.793196,-1.771654 1.771654,-1.771654 0.978457,0 1.771653,0.793197 1.771653,1.771654 z"
       sodipodi:ry="1.7716535"
       sodipodi:rx="1.7716535"
       sodipodi:cy="86.81102"
       sodipodi:cx="19.48819"
       id="path4027"
       style="fill:#cccccc;stroke:none"
       sodipodi:type="arc" />
  </g>
</svg>
