<?xml version="1.0" encoding="UTF-8" standalone="no"?>
<!-- Created with Inkscape (http://www.inkscape.org/) -->

<svg
   xmlns:ns0="http://www.iki.fi/pav/software/textext/"
   xmlns:dc="http://purl.org/dc/elements/1.1/"
   xmlns:cc="http://creativecommons.org/ns#"
   xmlns:rdf="http://www.w3.org/1999/02/22-rdf-syntax-ns#"
   xmlns:svg="http://www.w3.org/2000/svg"
   xmlns="http://www.w3.org/2000/svg"
   xmlns:sodipodi="http://sodipodi.sourceforge.net/DTD/sodipodi-0.dtd"
   xmlns:inkscape="http://www.inkscape.org/namespaces/inkscape"
   width="396.85037"
   height="162.99213"
   id="svg3009"
   version="1.1"
   inkscape:version="0.48.2 r9819"
   sodipodi:docname="Stationaire_stroming_vliegtuig.svg">
  <sodipodi:namedview
     id="base"
     pagecolor="#ffffff"
     bordercolor="#666666"
     borderopacity="1.0"
     inkscape:pageopacity="0.0"
     inkscape:pageshadow="2"
     inkscape:zoom="1.4"
     inkscape:cx="214.00047"
     inkscape:cy="37.709077"
     inkscape:document-units="mm"
     inkscape:current-layer="g3062"
     showgrid="false"
     units="mm"
     inkscape:window-width="1366"
     inkscape:window-height="706"
     inkscape:window-x="-8"
     inkscape:window-y="-8"
     inkscape:window-maximized="1">
    <inkscape:grid
       type="xygrid"
       id="grid3017"
       empspacing="5"
       visible="true"
       enabled="true"
       snapvisiblegridlinesonly="true"
       units="mm"
       spacingx="1mm"
       spacingy="1mm"
       dotted="false" />
  </sodipodi:namedview>
  <defs
     id="defs3011">
    <marker
       style="overflow:visible"
       id="Arrow1Mend"
       refX="0"
       refY="0"
       orient="auto"
       inkscape:stockid="Arrow1Mend">
      <path
         transform="matrix(-0.4,0,0,-0.4,-4,0)"
         style="fill-rule:evenodd;stroke:#000000;stroke-width:1pt;marker-start:none"
         d="M 0,0 5,-5 -12.5,0 5,5 0,0 z"
         id="path5215"
         inkscape:connector-curvature="0" />
    </marker>
    <marker
       style="overflow:visible"
       id="marker3094"
       refX="0"
       refY="0"
       orient="auto"
       inkscape:stockid="Arrow1Mend">
      <path
         transform="matrix(-0.4,0,0,-0.4,-4,0)"
         style="fill-rule:evenodd;stroke:#000000;stroke-width:1pt;marker-start:none"
         d="M 0,0 5,-5 -12.5,0 5,5 0,0 z"
         id="path3096"
         inkscape:connector-curvature="0" />
    </marker>
    <marker
       style="overflow:visible"
       id="Arrow1Mend-1"
       refX="0"
       refY="0"
       orient="auto"
       inkscape:stockid="Arrow1Mend">
      <path
         transform="matrix(-0.4,0,0,-0.4,-4,0)"
         style="fill-rule:evenodd;stroke:#000000;stroke-width:1pt;marker-start:none"
         d="M 0,0 5,-5 -12.5,0 5,5 0,0 z"
         id="path5215-7"
         inkscape:connector-curvature="0" />
    </marker>
    <marker
       style="overflow:visible"
       id="marker3251"
       refX="0"
       refY="0"
       orient="auto"
       inkscape:stockid="Arrow1Mend">
      <path
         transform="matrix(-0.4,0,0,-0.4,-4,0)"
         style="fill-rule:evenodd;stroke:#000000;stroke-width:1pt;marker-start:none"
         d="M 0,0 5,-5 -12.5,0 5,5 0,0 z"
         id="path3253"
         inkscape:connector-curvature="0" />
    </marker>
  </defs>
  <metadata
     id="metadata3014">
    <rdf:RDF>
      <cc:Work
         rdf:about="">
        <dc:format>image/svg+xml</dc:format>
        <dc:type
           rdf:resource="http://purl.org/dc/dcmitype/StillImage" />
        <dc:title />
      </cc:Work>
    </rdf:RDF>
  </metadata>
  <g
     inkscape:label="Layer 1"
     inkscape:groupmode="layer"
     id="layer1"
     transform="translate(0,-889.37014)">
    <rect
       style="fill:#4d4d4d;fill-opacity:0.99468085;fill-rule:nonzero;stroke:none"
       id="rect4102"
       width="386.00299"
       height="10.458668"
       x="7.0866141"
       y="1038.6456" />
    <path
       style="fill:none;stroke:#000000;stroke-width:0.70866144;stroke-linecap:butt;stroke-linejoin:miter;stroke-miterlimit:4;stroke-opacity:1;stroke-dasharray:none"
       d="m 7.0866142,1038.6456 386.0764358,0"
       id="path4104"
       inkscape:connector-curvature="0" />
    <g
       id="g3062">
      <g
         transform="matrix(0.29583709,0,0,0.29583709,17.527585,693.45348)"
         style="stroke-width:0.70866144;stroke-miterlimit:4;stroke-dasharray:none"
         id="g3030">
        <path
           style="fill:#ffffff;stroke:#000000;stroke-width:2.39544487;stroke-linecap:butt;stroke-linejoin:miter;stroke-miterlimit:4;stroke-opacity:1;stroke-dasharray:none"
           d="m 76.785714,797.71932 -21.607142,-21.78571 26.25,-0.89286 27.142858,18.39286 z"
           id="path3000"
           inkscape:connector-curvature="0"
           transform="translate(0,2.5390623e-6)" />
        <g
           style="stroke-width:0.70866144;stroke-miterlimit:4;stroke-dasharray:none"
           transform="translate(-65.357144,-69.464286)"
           id="g3024">
          <path
             sodipodi:nodetypes="cccsscc"
             transform="translate(0,2.5390623e-6)"
             inkscape:connector-curvature="0"
             id="path3026"
             d="m 283.57143,840.75504 16.78571,12.5 59.28572,-6.25 c 0,0 -2.47018,-5.32423 -6.07143,-5.53572 -11.33151,-0.66546 -17.80226,-1.80971 -30,-2.67857 -2.53643,-0.18067 -6.42858,-4.10714 -6.42858,-4.10714 z"
             style="fill:#ffffff;stroke:#000000;stroke-width:2.39544487;stroke-linecap:butt;stroke-linejoin:miter;stroke-miterlimit:4;stroke-opacity:1;stroke-dasharray:none" />
          <path
             sodipodi:nodetypes="ccccccc"
             transform="translate(0,2.5390623e-6)"
             inkscape:connector-curvature="0"
             id="path3028"
             d="m 294.64286,851.46933 0.17857,7.32142 18.03571,4.28572 54.46429,-1.78572 c 1.86566,-6.04966 3.68001,-12.09419 0.89286,-17.67857 l -54.10715,2.32143 z"
             style="fill:#ffffff;stroke:#000000;stroke-width:2.39544487;stroke-linecap:butt;stroke-linejoin:miter;stroke-miterlimit:4;stroke-opacity:1;stroke-dasharray:none" />
        </g>
        <path
           style="fill:#ffffff;stroke:#000000;stroke-width:2.39544487;stroke-linecap:butt;stroke-linejoin:miter;stroke-miterlimit:4;stroke-opacity:1;stroke-dasharray:none"
           d="m 186.87822,753.10449 65.65992,36.61803 72.98352,0.25254 -109.60155,-37.62818 z"
           id="path3004"
           inkscape:connector-curvature="0"
           transform="translate(0,2.5390623e-6)"
           sodipodi:nodetypes="ccccc" />
        <path
           style="fill:#ffffff;stroke:#000000;stroke-width:2.39544487;stroke-linecap:butt;stroke-linejoin:miter;stroke-miterlimit:4;stroke-opacity:1;stroke-dasharray:none"
           d="m 78.928572,794.50504 c -2.583327,1.9218 -2.756997,4.01501 -2.142858,6.07143 0.899376,3.01152 5.490326,4.201 8.571429,4.82142 13.320566,2.68227 22.545817,3.41259 34.285717,5.17858 22.60683,3.40067 44.87651,8.85489 67.5,12.14286 17.06903,2.48071 34.2193,4.55389 51.42857,5.71428 14.85152,1.00141 29.75774,1.13092 44.64286,1.07143 29.7769,-0.11901 59.53011,-1.72472 89.28571,-2.85714 32.389,-1.23264 64.76404,-2.80963 97.14286,-4.28572 10.11973,-0.46134 20.27404,-0.45234 30.35714,-1.42857 4.07211,-0.39426 8.1392,-0.94412 12.14286,-1.78571 4.83306,-1.01594 9.61356,-2.32807 14.28571,-3.92857 5.60518,-1.92012 11.14406,-4.10639 16.42857,-6.78572 2.85898,-1.44955 7.81895,-3.81291 8.21429,-5 0.73903,-2.21909 -0.2558,-5.01656 -1.78571,-6.78571 -0.75528,-0.87338 -5.42122,-3.4272 -8.21429,-5 -6.07785,-3.42248 -12.12792,-6.97175 -18.57143,-9.64286 -4.73011,-1.96083 -9.6055,-3.72424 -14.64286,-4.64286 -10.90753,-1.98911 -22.12846,-1.59772 -33.21428,-1.78571 -36.07332,-0.61172 -72.14521,1.31819 -108.21429,2.14286 -32.14526,0.73496 -96.42857,2.5 -96.42857,2.5 l -102.14286,4.28571 c 0,0 -6.07417,2.57052 -9.28571,3.21429 -7.48501,1.5004 -15.22942,1.12101 -22.85714,1.42857 -13.08677,0.52767 -26.20512,0.051 -39.285718,0.71428 -5.891629,0.31809 -12.909017,1.22751 -17.5,4.64286 z"
           id="path2994"
           inkscape:connector-curvature="0"
           transform="translate(0,2.5390623e-6)"
           sodipodi:nodetypes="ssssssssssssssssssssccsscs" />
        <path
           style="fill:#ffffff;stroke:#000000;stroke-width:2.39544487;stroke-linecap:butt;stroke-linejoin:miter;stroke-miterlimit:4;stroke-opacity:1;stroke-dasharray:none"
           d="m 88.75,790.3979 c 0,0 0.281175,-8.14131 -0.892857,-11.96429 C 80.70795,755.15385 66.785714,706.11218 66.785714,706.11218 l 27.142858,0 c 0,0 36.615598,46.51274 54.999998,67.67857 4.77372,5.49595 18.92857,10.89286 18.92857,10.89286 -33.11771,10.89613 -49.63341,8.45798 -79.10714,5.71429 z"
           id="path2996"
           inkscape:connector-curvature="0"
           transform="translate(0,2.5390623e-6)"
           sodipodi:nodetypes="csccscc" />
        <path
           style="fill:#ffffff;stroke:#000000;stroke-width:2.39544487;stroke-linecap:butt;stroke-linejoin:miter;stroke-miterlimit:4;stroke-opacity:1;stroke-dasharray:none"
           d="m 87.678572,797.36218 -36.607143,6.78572 21.607143,1.78571 63.928568,-5.17857 c -13.80137,-4.35573 -32.05875,-2.98229 -48.928568,-3.39286 z"
           id="path2998"
           inkscape:connector-curvature="0"
           transform="translate(0,2.5390623e-6)"
           sodipodi:nodetypes="ccccc" />
        <g
           style="stroke-width:0.70866144;stroke-miterlimit:4;stroke-dasharray:none"
           id="g3018"
           transform="translate(38.571428,-9.4642857)">
          <path
             style="fill:#ffffff;stroke:#000000;stroke-width:2.39544487;stroke-linecap:butt;stroke-linejoin:miter;stroke-miterlimit:4;stroke-opacity:1;stroke-dasharray:none"
             d="m 283.57143,840.75504 16.78571,12.5 59.28572,-6.25 c 0,0 -2.47018,-5.32423 -6.07143,-5.53572 -11.33151,-0.66546 -17.80226,-1.80971 -30,-2.67857 -2.53643,-0.18067 -6.42858,-4.10714 -6.42858,-4.10714 z"
             id="path3020"
             inkscape:connector-curvature="0"
             transform="translate(0,2.5390623e-6)"
             sodipodi:nodetypes="cccsscc" />
          <path
             style="fill:#ffffff;stroke:#000000;stroke-width:2.39544487;stroke-linecap:butt;stroke-linejoin:miter;stroke-miterlimit:4;stroke-opacity:1;stroke-dasharray:none"
             d="m 294.64286,851.46933 0.17857,7.32142 18.03571,4.28572 54.46429,-1.78572 c 1.86566,-6.04966 3.68001,-12.09419 0.89286,-17.67857 l -54.10715,2.32143 z"
             id="path3022"
             inkscape:connector-curvature="0"
             transform="translate(0,2.5390623e-6)"
             sodipodi:nodetypes="ccccccc" />
        </g>
        <g
           style="stroke-width:0.70866144;stroke-miterlimit:4;stroke-dasharray:none"
           id="g3014">
          <path
             sodipodi:nodetypes="cccsscc"
             transform="translate(0,2.5390623e-6)"
             inkscape:connector-curvature="0"
             id="path3010"
             d="m 283.57143,840.75504 16.78571,12.5 59.28572,-6.25 c 0,0 -2.47018,-5.32423 -6.07143,-5.53572 -11.33151,-0.66546 -17.80226,-1.80971 -30,-2.67857 -2.53643,-0.18067 -6.42858,-4.10714 -6.42858,-4.10714 z"
             style="fill:#ffffff;stroke:#000000;stroke-width:2.39544487;stroke-linecap:butt;stroke-linejoin:miter;stroke-miterlimit:4;stroke-opacity:1;stroke-dasharray:none" />
          <path
             sodipodi:nodetypes="ccccccc"
             transform="translate(0,2.5390623e-6)"
             inkscape:connector-curvature="0"
             id="path3012"
             d="m 294.64286,851.46933 0.17857,7.32142 18.03571,4.28572 54.46429,-1.78572 c 1.86566,-6.04966 3.68001,-12.09419 0.89286,-17.67857 l -54.10715,2.32143 z"
             style="fill:#ffffff;stroke:#000000;stroke-width:2.39544487;stroke-linecap:butt;stroke-linejoin:miter;stroke-miterlimit:4;stroke-opacity:1;stroke-dasharray:none" />
        </g>
        <path
           style="fill:#ffffff;stroke:#000000;stroke-width:2.39544487;stroke-linecap:butt;stroke-linejoin:miter;stroke-miterlimit:4;stroke-opacity:1;stroke-dasharray:none"
           d="m 225.71429,845.21933 40.35714,-0.71429 c 0,0 126.26281,-16.18052 138.21428,-26.42857 2.41972,-2.07485 4.55356,-6.30461 -24.64285,-6.42857 -31.01662,-0.13169 -90,12.85714 -90,12.85714 0,0 0.48155,8.43544 -6.42857,10 -20.64715,4.67485 -57.5,10.71429 -57.5,10.71429 z"
           id="path3002"
           inkscape:connector-curvature="0"
           transform="translate(0,2.5390623e-6)"
           sodipodi:nodetypes="ccsscsc" />
        <path
           style="fill:none;stroke:#000000;stroke-width:2.39544487;stroke-linecap:butt;stroke-linejoin:miter;stroke-miterlimit:4;stroke-opacity:1;stroke-dasharray:none"
           d="m 541.66404,792.077 -17.01606,0.0446 -7.00794,-7.00793 10.91911,-0.31567"
           id="path3006"
           inkscape:connector-curvature="0"
           sodipodi:nodetypes="cccc" />
      </g>
      <g
         id="g3225"
         transform="translate(0.49242397,-4.4283232)">
        <path
           style="fill:none;stroke:#000000;stroke-width:0.70866144;stroke-linecap:round;stroke-linejoin:miter;stroke-miterlimit:4;stroke-opacity:1;stroke-dasharray:none;marker-end:url(#Arrow1Mend)"
           d="m 125.63291,931.53695 0,-24.80318"
           id="path3227"
           inkscape:connector-curvature="0" />
        <path
           inkscape:connector-curvature="0"
           id="path3229"
           d="m 125.63291,931.53695 24.80315,0"
           style="fill:none;stroke:#000000;stroke-width:0.70866144;stroke-linecap:round;stroke-linejoin:miter;stroke-miterlimit:4;stroke-opacity:1;stroke-dasharray:none;marker-end:url(#Arrow1Mend)" />
        <g
           id="content"
           transform="matrix(1.25,0,0,-1.25,-129.4447,1813.064)"
           xml:space="preserve"
           stroke="black"
           stroke-linecap="butt"
           stroke-linejoin="miter"
           stroke-miterlimit="10.433"
           stroke-dasharray="none"
           stroke-dashoffset="0"
           stroke-opacity="1"
           fill="none"
           fill-rule="evenodd"
           fill-opacity="1"
           font-style="normal"
           font-variant="normal"
           font-weight="normal"
           font-stretch="normal"
           font-size-adjust="none"
           letter-spacing="normal"
           word-spacing="normal"
           text-anchor="start"
           ns0:text="$x\'$"
           ns0:preamble="D:\\Onderwijs\\FLUI\\Cursus\\FLUI_theorie\\tex\\commands.tex"
           style="font-style:normal;font-variant:normal;font-weight:normal;font-stretch:normal;letter-spacing:normal;word-spacing:normal;text-anchor:start;fill:none;stroke:#000000;stroke-linecap:butt;stroke-linejoin:miter;stroke-miterlimit:10.43299961;stroke-opacity:1;stroke-dasharray:none;stroke-dashoffset:0">
<path
   d="M226.76,710.13 L226.76,710.15 L226.77,710.18 L226.78,710.21 L226.79,710.25 L226.8,710.29 L226.81,710.33 L226.82,710.37 L226.84,710.42 L226.85,710.46 L226.87,710.51 L226.89,710.56 L226.91,710.61 L226.93,710.66 L226.96,710.71 L226.98,710.76 L227.01,710.81 L227.04,710.86 L227.07,710.9 L227.1,710.95 L227.14,710.99 L227.18,711.04 L227.22,711.08 L227.26,711.12 L227.3,711.15 L227.35,711.18 L227.4,711.21 L227.42,711.22 L227.45,711.24 L227.47,711.25 L227.5,711.26 L227.53,711.27 L227.56,711.27 L227.59,711.28 L227.61,711.29 L227.65,711.29 L227.68,711.29 L227.71,711.3 L227.74,711.3 C227.79,711.3,228.03,711.3,228.24,711.17 C227.96,711.12,227.76,710.87,227.76,710.63 C227.76,710.47,227.87,710.28,228.14,710.28 C228.36,710.28,228.68,710.46,228.68,710.86 C228.68,711.38,228.09,711.52,227.75,711.52 C227.17,711.52,226.82,710.99,226.71,710.76 C226.46,711.42,225.92,711.52,225.63,711.52 C224.6,711.52,224.03,710.23,224.03,709.99 C224.03,709.89,224.13,709.89,224.15,709.89 C224.23,709.89,224.26,709.91,224.28,710 C224.62,711.05,225.27,711.3,225.61,711.3 C225.8,711.3,226.15,711.21,226.15,710.63 C226.15,710.32,225.98,709.66,225.61,708.27 C225.45,707.65,225.1,707.23,224.67,707.23 C224.61,707.23,224.38,707.23,224.17,707.36 C224.42,707.41,224.64,707.62,224.64,707.9 C224.64,708.17,224.42,708.25,224.27,708.25 C223.97,708.25,223.72,707.99,223.72,707.67 C223.72,707.21,224.22,707.02,224.66,707.02 C225.31,707.02,225.67,707.71,225.7,707.77 C225.82,707.4,226.18,707.02,226.77,707.02 C227.8,707.02,228.37,708.3,228.37,708.55 C228.37,708.65,228.28,708.65,228.25,708.65 C228.16,708.65,228.14,708.6,228.12,708.54 C227.79,707.47,227.11,707.23,226.79,707.23 C226.41,707.23,226.25,707.55,226.25,707.89 C226.25,708.11,226.31,708.33,226.42,708.76 Z "
   stroke-width="0"
   fill="black"
   id="path3329" />
<path
   d="M231.15,714.02 L231.15,714.03 L231.16,714.04 L231.16,714.05 L231.16,714.06 L231.17,714.07 L231.17,714.08 L231.18,714.09 L231.18,714.1 L231.18,714.11 L231.18,714.12 L231.19,714.12 L231.19,714.13 L231.19,714.14 L231.19,714.15 L231.2,714.15 L231.2,714.16 L231.2,714.17 L231.2,714.17 L231.2,714.18 L231.2,714.18 L231.2,714.19 L231.2,714.2 L231.21,714.2 L231.21,714.21 L231.21,714.22 L231.21,714.23 L231.21,714.24 L231.21,714.24 C231.21,714.46,231.01,714.63,230.8,714.63 C230.53,714.63,230.45,714.41,230.41,714.3 L229.49,711.29 C229.49,711.28,229.46,711.18,229.46,711.18 C229.46,711.09,229.68,711.03,229.73,711.03 C229.78,711.03,229.79,711.04,229.84,711.14 Z "
   stroke-width="0"
   fill="black"
   id="path3331" />
</g>        <g
           style="font-style:normal;font-variant:normal;font-weight:normal;font-stretch:normal;letter-spacing:normal;word-spacing:normal;text-anchor:start;fill:none;stroke:#000000;stroke-linecap:butt;stroke-linejoin:miter;stroke-miterlimit:10.43299961;stroke-opacity:1;stroke-dasharray:none;stroke-dashoffset:0"
           ns0:preamble="D:\\Onderwijs\\FLUI\\Cursus\\FLUI_theorie\\tex\\commands.tex"
           ns0:text="$y\'$"
           text-anchor="start"
           word-spacing="normal"
           letter-spacing="normal"
           font-size-adjust="none"
           font-stretch="normal"
           font-weight="normal"
           font-variant="normal"
           font-style="normal"
           fill-opacity="1"
           fill-rule="evenodd"
           fill="none"
           stroke-opacity="1"
           stroke-dashoffset="0"
           stroke-dasharray="none"
           stroke-miterlimit="10.433"
           stroke-linejoin="miter"
           stroke-linecap="butt"
           stroke="black"
           xml:space="preserve"
           transform="matrix(1.25,0,0,-1.25,-150.87327,1791.9926)"
           id="g3428">
<path
   id="path3430"
   fill="black"
   stroke-width="0"
   d="M228.27,710.91 L228.27,710.92 L228.27,710.92 L228.27,710.93 L228.27,710.93 L228.28,710.95 L228.28,710.96 L228.28,710.97 L228.29,710.98 L228.29,710.99 L228.29,710.99 L228.29,711 L228.29,711.01 L228.3,711.02 L228.3,711.03 L228.3,711.03 L228.3,711.04 L228.3,711.04 L228.3,711.05 L228.3,711.06 L228.3,711.06 L228.3,711.07 L228.3,711.07 L228.31,711.08 L228.31,711.09 L228.31,711.1 L228.31,711.11 L228.31,711.12 L228.31,711.13 L228.31,711.13 L228.31,711.14 C228.31,711.32,228.17,711.41,228.02,711.41 C227.92,711.41,227.76,711.35,227.67,711.2 C227.65,711.15,227.57,710.84,227.53,710.66 C227.46,710.4,227.39,710.14,227.33,709.87 L226.88,708.08 C226.85,707.93,226.42,707.23,225.76,707.23 C225.25,707.23,225.14,707.67,225.14,708.04 C225.14,708.5,225.31,709.11,225.65,709.99 C225.81,710.39,225.85,710.5,225.85,710.7 C225.85,711.15,225.53,711.52,225.03,711.52 C224.09,711.52,223.72,710.08,223.72,709.99 C223.72,709.89,223.82,709.89,223.84,709.89 C223.94,709.89,223.95,709.91,224,710.07 C224.27,711,224.67,711.3,225,711.3 C225.08,711.3,225.25,711.3,225.25,710.98 C225.25,710.73,225.15,710.47,225.08,710.28 C224.69,709.23,224.51,708.66,224.51,708.2 C224.51,707.31,225.13,707.02,225.72,707.02 C226.11,707.02,226.45,707.18,226.73,707.46 C226.6,706.95,226.48,706.46,226.08,705.93 C225.82,705.59,225.44,705.31,224.98,705.31 C224.85,705.31,224.4,705.34,224.23,705.72 C224.39,705.72,224.52,705.72,224.66,705.84 C224.76,705.93,224.85,706.06,224.85,706.25 C224.85,706.56,224.59,706.6,224.49,706.6 C224.26,706.6,223.93,706.44,223.93,705.95 C223.93,705.46,224.37,705.09,224.98,705.09 C226.01,705.09,227.03,705.99,227.31,707.11 Z " />
<path
   id="path3432"
   fill="black"
   stroke-width="0"
   d="M230.69,714.02 L230.7,714.03 L230.7,714.04 L230.71,714.05 L230.71,714.06 L230.72,714.07 L230.72,714.08 L230.72,714.09 L230.73,714.1 L230.73,714.11 L230.73,714.12 L230.74,714.12 L230.74,714.13 L230.74,714.14 L230.74,714.15 L230.74,714.15 L230.75,714.16 L230.75,714.17 L230.75,714.17 L230.75,714.18 L230.75,714.18 L230.75,714.19 L230.75,714.2 L230.75,714.2 L230.75,714.21 L230.75,714.22 L230.76,714.23 L230.76,714.24 L230.76,714.24 C230.76,714.46,230.56,714.63,230.35,714.63 C230.08,714.63,230,714.41,229.96,714.3 L229.04,711.29 C229.04,711.28,229.01,711.18,229.01,711.18 C229.01,711.09,229.22,711.03,229.28,711.03 C229.33,711.03,229.34,711.04,229.38,711.14 Z " />
</g>      </g>
    </g>
    <g
       transform="translate(186.6947,105.52865)"
       id="g3016">
      <path
         inkscape:connector-curvature="0"
         id="path3018"
         d="m 125.63291,931.53695 0,-24.80318"
         style="fill:none;stroke:#000000;stroke-width:0.70866144;stroke-linecap:round;stroke-linejoin:miter;stroke-miterlimit:4;stroke-opacity:1;stroke-dasharray:none;marker-end:url(#Arrow1Mend)" />
      <path
         style="fill:none;stroke:#000000;stroke-width:0.70866144;stroke-linecap:round;stroke-linejoin:miter;stroke-miterlimit:4;stroke-opacity:1;stroke-dasharray:none;marker-end:url(#Arrow1Mend)"
         d="m 125.63291,931.53695 24.80315,0"
         id="path3021"
         inkscape:connector-curvature="0" />
      <g
         style="font-style:normal;font-variant:normal;font-weight:normal;font-stretch:normal;letter-spacing:normal;word-spacing:normal;text-anchor:start;fill:none;stroke:#000000;stroke-linecap:butt;stroke-linejoin:miter;stroke-miterlimit:10.43299961;stroke-opacity:1;stroke-dasharray:none;stroke-dashoffset:0"
         id="g3336"
         transform="matrix(1.25,0,0,-1.25,-129.4447,1813.064)"
         xml:space="preserve"
         stroke-miterlimit="10.433"
         font-style="normal"
         font-variant="normal"
         font-weight="normal"
         font-stretch="normal"
         font-size-adjust="none"
         letter-spacing="normal"
         word-spacing="normal"
         ns0:text="$x$"
         ns0:preamble="D:\\Onderwijs\\FLUI\\Cursus\\FLUI_theorie\\tex\\commands.tex">
<path
   style="fill:#000000;stroke-width:0"
   inkscape:connector-curvature="0"
   d="m 226.76,710.13 0,0.02 0.01,0.03 0.01,0.03 0.01,0.04 0.01,0.04 0.01,0.04 0.01,0.04 0.02,0.05 0.01,0.04 0.02,0.05 0.02,0.05 0.02,0.05 0.02,0.05 0.03,0.05 0.02,0.05 0.03,0.05 0.03,0.05 0.03,0.04 0.03,0.05 0.04,0.04 0.04,0.05 0.04,0.04 0.04,0.04 0.04,0.03 0.05,0.03 0.05,0.03 0.02,0.01 0.03,0.02 0.02,0.01 0.03,0.01 0.03,0.01 0.03,0 0.03,0.01 0.02,0.01 0.04,0 0.03,0 0.03,0.01 0.03,0 c 0.05,0 0.29,0 0.5,-0.13 -0.28,-0.05 -0.48,-0.3 -0.48,-0.54 0,-0.16 0.11,-0.35 0.38,-0.35 0.22,0 0.54,0.18 0.54,0.58 0,0.52 -0.59,0.66 -0.93,0.66 -0.58,0 -0.93,-0.53 -1.04,-0.76 -0.25,0.66 -0.79,0.76 -1.08,0.76 -1.03,0 -1.6,-1.29 -1.6,-1.53 0,-0.1 0.1,-0.1 0.12,-0.1 0.08,0 0.11,0.02 0.13,0.11 0.34,1.05 0.99,1.3 1.33,1.3 0.19,0 0.54,-0.09 0.54,-0.67 0,-0.31 -0.17,-0.97 -0.54,-2.36 -0.16,-0.62 -0.51,-1.04 -0.94,-1.04 -0.06,0 -0.29,0 -0.5,0.13 0.25,0.05 0.47,0.26 0.47,0.54 0,0.27 -0.22,0.35 -0.37,0.35 -0.3,0 -0.55,-0.26 -0.55,-0.58 0,-0.46 0.5,-0.65 0.94,-0.65 0.65,0 1.01,0.69 1.04,0.75 0.12,-0.37 0.48,-0.75 1.07,-0.75 1.03,0 1.6,1.28 1.6,1.53 0,0.1 -0.09,0.1 -0.12,0.1 -0.09,0 -0.11,-0.05 -0.13,-0.11 -0.33,-1.07 -1.01,-1.31 -1.33,-1.31 -0.38,0 -0.54,0.32 -0.54,0.66 0,0.22 0.06,0.44 0.17,0.87 z"
   id="path3066" />
</g>      <g
         style="font-style:normal;font-variant:normal;font-weight:normal;font-stretch:normal;letter-spacing:normal;word-spacing:normal;text-anchor:start;fill:none;stroke:#000000;stroke-linecap:butt;stroke-linejoin:miter;stroke-miterlimit:10.43299961;stroke-opacity:1;stroke-dasharray:none;stroke-dashoffset:0"
         ns0:preamble="D:\\Onderwijs\\FLUI\\Cursus\\FLUI_theorie\\tex\\commands.tex"
         ns0:text="$y$"
         text-anchor="start"
         word-spacing="normal"
         letter-spacing="normal"
         font-size-adjust="none"
         font-stretch="normal"
         font-weight="normal"
         font-variant="normal"
         font-style="normal"
         fill-opacity="1"
         fill-rule="evenodd"
         fill="none"
         stroke-opacity="1"
         stroke-dashoffset="0"
         stroke-dasharray="none"
         stroke-miterlimit="10.433"
         stroke-linejoin="miter"
         stroke-linecap="butt"
         stroke="black"
         xml:space="preserve"
         transform="matrix(1.25,0,0,-1.25,-150.87327,1791.9926)"
         id="g3179">
<path
   id="path3181"
   fill="black"
   stroke-width="0"
   d="M228.27,710.91 L228.27,710.92 L228.27,710.92 L228.27,710.93 L228.27,710.93 L228.28,710.95 L228.28,710.96 L228.28,710.97 L228.29,710.98 L228.29,710.99 L228.29,710.99 L228.29,711 L228.29,711.01 L228.3,711.02 L228.3,711.03 L228.3,711.03 L228.3,711.04 L228.3,711.04 L228.3,711.05 L228.3,711.06 L228.3,711.06 L228.3,711.07 L228.3,711.07 L228.31,711.08 L228.31,711.09 L228.31,711.1 L228.31,711.11 L228.31,711.12 L228.31,711.13 L228.31,711.13 L228.31,711.14 C228.31,711.32,228.17,711.41,228.02,711.41 C227.92,711.41,227.76,711.35,227.67,711.2 C227.65,711.15,227.57,710.84,227.53,710.66 C227.46,710.4,227.39,710.14,227.33,709.87 L226.88,708.08 C226.85,707.93,226.42,707.23,225.76,707.23 C225.25,707.23,225.14,707.67,225.14,708.04 C225.14,708.5,225.31,709.11,225.65,709.99 C225.81,710.39,225.85,710.5,225.85,710.7 C225.85,711.15,225.53,711.52,225.03,711.52 C224.09,711.52,223.72,710.08,223.72,709.99 C223.72,709.89,223.82,709.89,223.84,709.89 C223.94,709.89,223.95,709.91,224,710.07 C224.27,711,224.67,711.3,225,711.3 C225.08,711.3,225.25,711.3,225.25,710.98 C225.25,710.73,225.15,710.47,225.08,710.28 C224.69,709.23,224.51,708.66,224.51,708.2 C224.51,707.31,225.13,707.02,225.72,707.02 C226.11,707.02,226.45,707.18,226.73,707.46 C226.6,706.95,226.48,706.46,226.08,705.93 C225.82,705.59,225.44,705.31,224.98,705.31 C224.85,705.31,224.4,705.34,224.23,705.72 C224.39,705.72,224.52,705.72,224.66,705.84 C224.76,705.93,224.85,706.06,224.85,706.25 C224.85,706.56,224.59,706.6,224.49,706.6 C224.26,706.6,223.93,706.44,223.93,705.95 C223.93,705.46,224.37,705.09,224.98,705.09 C226.01,705.09,227.03,705.99,227.31,707.11 Z " />
</g>    </g>
  </g>
</svg>
