<?xml version="1.0" encoding="UTF-8" standalone="no"?>
<!-- Created with Inkscape (http://www.inkscape.org/) -->

<svg
   xmlns:ns0="http://www.iki.fi/pav/software/textext/"
   xmlns:dc="http://purl.org/dc/elements/1.1/"
   xmlns:cc="http://creativecommons.org/ns#"
   xmlns:rdf="http://www.w3.org/1999/02/22-rdf-syntax-ns#"
   xmlns:svg="http://www.w3.org/2000/svg"
   xmlns="http://www.w3.org/2000/svg"
   xmlns:sodipodi="http://sodipodi.sourceforge.net/DTD/sodipodi-0.dtd"
   xmlns:inkscape="http://www.inkscape.org/namespaces/inkscape"
   width="354.33069"
   height="74.409447"
   id="svg3041"
   version="1.1"
   inkscape:version="0.48.2 r9819"
   sodipodi:docname="Viscositeit_platen.svg">
  <sodipodi:namedview
     id="base"
     pagecolor="#ffffff"
     bordercolor="#666666"
     borderopacity="1.0"
     inkscape:pageopacity="0.0"
     inkscape:pageshadow="2"
     inkscape:zoom="1.979899"
     inkscape:cx="209.38358"
     inkscape:cy="74.990222"
     inkscape:document-units="mm"
     inkscape:current-layer="layer1"
     showgrid="false"
     inkscape:window-width="1366"
     inkscape:window-height="706"
     inkscape:window-x="-8"
     inkscape:window-y="-8"
     inkscape:window-maximized="1"
     units="mm">
    <inkscape:grid
       spacingy="1mm"
       spacingx="1mm"
       units="mm"
       snapvisiblegridlinesonly="true"
       enabled="true"
       visible="true"
       empspacing="5"
       id="grid2992"
       type="xygrid" />
  </sodipodi:namedview>
  <defs
     id="defs3043">
    <marker
       style="overflow:visible"
       id="Arrow1Mend"
       refX="0"
       refY="0"
       orient="auto"
       inkscape:stockid="Arrow1Mend">
      <path
         transform="matrix(-0.4,0,0,-0.4,-4,0)"
         style="fill-rule:evenodd;stroke:#000000;stroke-width:1pt;marker-start:none"
         d="M 0,0 5,-5 -12.5,0 5,5 0,0 z"
         id="path5215"
         inkscape:connector-curvature="0" />
    </marker>
    <clipPath
       id="clipPath5117"
       clipPathUnits="userSpaceOnUse">
      <path
         sodipodi:nodetypes="csssccssscc"
         inkscape:connector-curvature="0"
         id="path5119"
         d="m 70.866142,981.496 c 0,0 -3.543307,11.69407 -3.543307,17.71653 0,6.02247 3.543307,11.69407 3.543307,17.71657 0,10.6299 -3.686577,11.6957 -3.543307,17.7165 0.115849,4.8684 3.543307,14.1732 3.543307,14.1732 l 209.055118,0 c 0,0 -3.42746,-9.3048 -3.54331,-14.1732 -0.14327,-6.0208 3.54331,-11.6941 3.54331,-17.7165 0,-10.63 -3.54331,-11.6941 -3.54331,-17.71657 0,-6.02246 3.54331,-17.71653 3.54331,-17.71653 z"
         style="fill:none;stroke:#000000;stroke-width:1px;stroke-linecap:butt;stroke-linejoin:miter;stroke-opacity:1" />
    </clipPath>
    <clipPath
       id="clipPath5121"
       clipPathUnits="userSpaceOnUse">
      <path
         sodipodi:nodetypes="csssccssscc"
         inkscape:connector-curvature="0"
         id="path5123"
         d="m 70.866142,981.496 c 0,0 -3.543307,11.69407 -3.543307,17.71653 0,6.02247 3.543307,11.69407 3.543307,17.71657 0,10.6299 -3.686577,11.6957 -3.543307,17.7165 0.115849,4.8684 3.543307,14.1732 3.543307,14.1732 l 209.055118,0 c 0,0 -3.42746,-9.3048 -3.54331,-14.1732 -0.14327,-6.0208 3.54331,-11.6941 3.54331,-17.7165 0,-10.63 -3.54331,-11.6941 -3.54331,-17.71657 0,-6.02246 3.54331,-17.71653 3.54331,-17.71653 z"
         style="fill:none;stroke:#000000;stroke-width:1px;stroke-linecap:butt;stroke-linejoin:miter;stroke-opacity:1" />
    </clipPath>
    <clipPath
       id="clipPath5125"
       clipPathUnits="userSpaceOnUse">
      <path
         sodipodi:nodetypes="csssccssscc"
         inkscape:connector-curvature="0"
         id="path5127"
         d="m 70.866142,981.496 c 0,0 -3.543307,11.69407 -3.543307,17.71653 0,6.02247 3.543307,11.69407 3.543307,17.71657 0,10.6299 -3.686577,11.6957 -3.543307,17.7165 0.115849,4.8684 3.543307,14.1732 3.543307,14.1732 l 209.055118,0 c 0,0 -3.42746,-9.3048 -3.54331,-14.1732 -0.14327,-6.0208 3.54331,-11.6941 3.54331,-17.7165 0,-10.63 -3.54331,-11.6941 -3.54331,-17.71657 0,-6.02246 3.54331,-17.71653 3.54331,-17.71653 z"
         style="fill:none;stroke:#000000;stroke-width:1px;stroke-linecap:butt;stroke-linejoin:miter;stroke-opacity:1" />
    </clipPath>
    <clipPath
       id="clipPath5129"
       clipPathUnits="userSpaceOnUse">
      <path
         sodipodi:nodetypes="csssccssscc"
         inkscape:connector-curvature="0"
         id="path5131"
         d="m 70.866142,981.496 c 0,0 -3.543307,11.69407 -3.543307,17.71653 0,6.02247 3.543307,11.69407 3.543307,17.71657 0,10.6299 -3.686577,11.6957 -3.543307,17.7165 0.115849,4.8684 3.543307,14.1732 3.543307,14.1732 l 209.055118,0 c 0,0 -3.42746,-9.3048 -3.54331,-14.1732 -0.14327,-6.0208 3.54331,-11.6941 3.54331,-17.7165 0,-10.63 -3.54331,-11.6941 -3.54331,-17.71657 0,-6.02246 3.54331,-17.71653 3.54331,-17.71653 z"
         style="fill:none;stroke:#000000;stroke-width:1px;stroke-linecap:butt;stroke-linejoin:miter;stroke-opacity:1" />
    </clipPath>
  </defs>
  <metadata
     id="metadata3046">
    <rdf:RDF>
      <cc:Work
         rdf:about="">
        <dc:format>image/svg+xml</dc:format>
        <dc:type
           rdf:resource="http://purl.org/dc/dcmitype/StillImage" />
        <dc:title></dc:title>
      </cc:Work>
    </rdf:RDF>
  </metadata>
  <g
     transform="translate(0,-977.95269)"
     id="layer1"
     inkscape:groupmode="layer"
     inkscape:label="Laag 1">
    <path
       clip-path="url(#clipPath5129)"
       style="opacity:0.98000003999999996;fill:#cccccc;fill-opacity:1;fill-rule:nonzero;stroke:none;stroke-width:1;stroke-miterlimit:4;stroke-dasharray:none"
       d="m 54.062992,988.40794 230.314958,0 c 2.54256,26.53066 0.55094,35.61196 0,50.23766 l -230.314958,0 c -2.907315,-18.5861 -2.47282,-35.057 0,-50.23766 z"
       id="rect5683"
       inkscape:connector-curvature="0"
       sodipodi:nodetypes="ccccc" />
    <path
       inkscape:connector-curvature="0"
       id="path5201"
       d="m 281.69321,987.32318 28.34646,0"
       style="fill:none;stroke:#000000;stroke-width:1.41732287;stroke-linecap:butt;stroke-linejoin:miter;stroke-miterlimit:4;stroke-opacity:1;stroke-dasharray:none;marker-end:url(#Arrow1Mend)" />
    <rect
       transform="matrix(1,0,0,1.3725888,0,-386.78878)"
       clip-path="url(#clipPath5125)"
       style="opacity:0.98000003999999996;fill:#4d4d4d;fill-opacity:1;fill-rule:nonzero;stroke:none"
       id="rect2993"
       width="248.03149"
       height="6.5892563"
       x="49.6063"
       y="1038.189" />
    <path
       clip-path="url(#clipPath5121)"
       inkscape:connector-curvature="0"
       id="path4523"
       d="m 297.63779,1038.1888 -248.031503,0"
       style="fill:none;stroke:#000000;stroke-width:0.70866142;stroke-linecap:butt;stroke-linejoin:miter;stroke-opacity:1;stroke-miterlimit:4;stroke-dasharray:none" />
    <rect
       clip-path="url(#clipPath5117)"
       y="985.03925"
       x="46.062981"
       height="3.5432506"
       width="251.40047"
       id="rect4479"
       style="opacity:0.98000003999999996;fill:#4d4d4d;fill-opacity:1;fill-rule:nonzero;stroke:#000000;stroke-width:0.70866141999999999;stroke-linecap:round;stroke-linejoin:round;stroke-miterlimit:4;stroke-opacity:1;stroke-dasharray:none;stroke-dashoffset:0" />
    <path
       sodipodi:nodetypes="csssc"
       transform="translate(0,977.95269)"
       inkscape:connector-curvature="0"
       id="path5133"
       d="m 69.705428,69.549176 c 0,0 -2.266744,-7.987833 -2.382593,-12.856265 -0.14327,-6.020759 3.543307,-7.086614 3.543307,-17.716535 0,-6.022464 -3.543307,-11.694072 -3.543307,-17.716536 0,-6.022464 3.141521,-14.5022493 3.141521,-14.5022493"
       style="fill:none;stroke:#000000;stroke-width:0.70866142;stroke-linecap:butt;stroke-linejoin:miter;stroke-opacity:1;stroke-miterlimit:4;stroke-dasharray:none" />
    <path
       sodipodi:nodetypes="csssc"
       transform="translate(0,977.95269)"
       inkscape:connector-curvature="0"
       id="path5135"
       d="m 278.64894,69.504533 c 0,0 -2.15514,-7.94319 -2.27099,-12.811622 -0.14327,-6.02076 3.54331,-11.694071 3.54331,-17.716535 0,-6.022464 -3.54331,-11.694072 -3.54331,-17.716536 0,-6.022464 2.95483,-14.4075475 2.95483,-14.4075475"
       style="fill:none;stroke:#000000;stroke-width:0.70866144;stroke-linecap:butt;stroke-linejoin:miter;stroke-miterlimit:4;stroke-opacity:1;stroke-dasharray:none" />
    <g
       ns0:preamble="D:\\Onderwijs\\FLUI\\Cursus\\FLUI_theorie\\tex\\commands.tex"
       ns0:text="$F$"
       word-spacing="normal"
       letter-spacing="normal"
       font-size-adjust="none"
       font-stretch="normal"
       font-weight="normal"
       font-variant="normal"
       font-style="normal"
       stroke-miterlimit="10.433"
       xml:space="preserve"
       transform="matrix(1.25,0,0,-1.25,26.964284,1884.1072)"
       id="content"
       style="font-style:normal;font-variant:normal;font-weight:normal;font-stretch:normal;letter-spacing:normal;word-spacing:normal;text-anchor:start;fill:none;stroke:#000000;stroke-linecap:butt;stroke-linejoin:miter;stroke-miterlimit:10.43299961;stroke-opacity:1;stroke-dasharray:none;stroke-dashoffset:0">
<path
   id="path3028"
   d="m 226.45,710.35 h 0.96 c 0.75,0 0.83,-0.15 0.83,-0.44 0,-0.07 0,-0.19 -0.07,-0.49 -0.02,-0.05 -0.03,-0.09 -0.03,-0.11 0,-0.08 0.06,-0.12 0.12,-0.12 0.1,0 0.1,0.03 0.15,0.21 l 0.54,2.15 c 0.03,0.11 0.03,0.13 0.03,0.16 0,0.02 -0.02,0.11 -0.12,0.11 -0.1,0 -0.1,-0.05 -0.15,-0.21 -0.2,-0.77 -0.43,-0.95 -1.28,-0.95 h -0.9 l 0.63,2.52 c 0.09,0.35 0.1,0.39 0.54,0.39 h 1.31 c 1.23,0 1.46,-0.33 1.46,-1.09 0,-0.23 0,-0.27 -0.03,-0.54 -0.02,-0.13 -0.02,-0.15 -0.02,-0.18 0,-0.05 0.03,-0.11 0.12,-0.11 0.11,0 0.11,0.06 0.14,0.24 l 0.19,1.72 c 0.03,0.27 -0.02,0.27 -0.27,0.27 h -4.87 c -0.2,0 -0.3,0 -0.3,-0.2 0,-0.11 0.09,-0.11 0.28,-0.11 0.37,0 0.65,0 0.65,-0.18 0,-0.04 0,-0.06 -0.05,-0.23 l -1.32,-5.26 c -0.09,-0.39 -0.11,-0.47 -0.9,-0.47 -0.17,0 -0.28,0 -0.28,-0.19 0,-0.11 0.12,-0.11 0.15,-0.11 0.29,0 1.02,0.03 1.31,0.03 0.33,0 1.16,-0.03 1.49,-0.03 0.09,0 0.2,0 0.2,0.18 0,0.08 -0.06,0.1 -0.06,0.11 -0.03,0.01 -0.05,0.01 -0.27,0.01 -0.22,0 -0.27,0 -0.52,0.02 -0.29,0.03 -0.32,0.07 -0.32,0.2 0,0.02 0,0.08 0.04,0.23 z"
   inkscape:connector-curvature="0"
   style="fill:#000000;stroke-width:0" />
</g>  </g>
</svg>
