<?xml version="1.0" encoding="UTF-8" standalone="no"?>
<!-- Created with Inkscape (http://www.inkscape.org/) -->

<svg
   xmlns:ns0="http://www.iki.fi/pav/software/textext/"
   xmlns:dc="http://purl.org/dc/elements/1.1/"
   xmlns:cc="http://creativecommons.org/ns#"
   xmlns:rdf="http://www.w3.org/1999/02/22-rdf-syntax-ns#"
   xmlns:svg="http://www.w3.org/2000/svg"
   xmlns="http://www.w3.org/2000/svg"
   xmlns:sodipodi="http://sodipodi.sourceforge.net/DTD/sodipodi-0.dtd"
   xmlns:inkscape="http://www.inkscape.org/namespaces/inkscape"
   width="230.31496"
   height="177.16534"
   id="svg3041"
   version="1.1"
   inkscape:version="0.48.2 r9819"
   sodipodi:docname="Spanning.svg">
  <sodipodi:namedview
     id="base"
     pagecolor="#ffffff"
     bordercolor="#666666"
     borderopacity="1.0"
     inkscape:pageopacity="0.0"
     inkscape:pageshadow="2"
     inkscape:zoom="2.8"
     inkscape:cx="137.16682"
     inkscape:cy="135.46896"
     inkscape:document-units="mm"
     inkscape:current-layer="layer1"
     showgrid="false"
     inkscape:window-width="1366"
     inkscape:window-height="706"
     inkscape:window-x="-8"
     inkscape:window-y="-8"
     inkscape:window-maximized="1"
     units="mm">
    <inkscape:grid
       type="xygrid"
       id="grid2992"
       empspacing="5"
       visible="true"
       enabled="true"
       snapvisiblegridlinesonly="true"
       units="mm"
       spacingx="1mm"
       spacingy="1mm" />
  </sodipodi:namedview>
  <defs
     id="defs3043">
    <marker
       inkscape:stockid="Arrow1Mend"
       orient="auto"
       refY="0"
       refX="0"
       id="Arrow1Mend"
       style="overflow:visible">
      <path
         id="path3773"
         d="M 0,0 5,-5 -12.5,0 5,5 0,0 z"
         style="fill-rule:evenodd;stroke:#000000;stroke-width:1pt;marker-start:none"
         transform="matrix(-0.4,0,0,-0.4,-4,0)"
         inkscape:connector-curvature="0" />
    </marker>
    <marker
       inkscape:stockid="Arrow1Lend"
       orient="auto"
       refY="0"
       refX="0"
       id="Arrow1Lend"
       style="overflow:visible">
      <path
         id="path3767"
         d="M 0,0 5,-5 -12.5,0 5,5 0,0 z"
         style="fill-rule:evenodd;stroke:#000000;stroke-width:1pt;marker-start:none"
         transform="matrix(-0.8,0,0,-0.8,-10,0)"
         inkscape:connector-curvature="0" />
    </marker>
  </defs>
  <metadata
     id="metadata3046">
    <rdf:RDF>
      <cc:Work
         rdf:about="">
        <dc:format>image/svg+xml</dc:format>
        <dc:type
           rdf:resource="http://purl.org/dc/dcmitype/StillImage" />
        <dc:title />
      </cc:Work>
    </rdf:RDF>
  </metadata>
  <g
     inkscape:label="Laag 1"
     inkscape:groupmode="layer"
     id="layer1"
     transform="translate(0,-875.19677)">
    <path
       style="fill:#cccccc;stroke:#000000;stroke-width:0.70866144;stroke-linecap:butt;stroke-linejoin:miter;stroke-miterlimit:4;stroke-opacity:1;stroke-dasharray:none"
       d="m 19.510941,934.23959 c 52.128311,-25.30225 125.747659,-10.4662 169.417039,25.30224 20.99829,17.19917 39.28492,52.52687 26.06416,75.90697 -17.23776,30.4836 -55.92838,5.9351 -91.22456,0 -30.865628,-5.1901 -74.215868,0.2341 -91.224558,-25.3024 -14.347301,-21.54074 -36.66615,-64.43521 -13.032081,-75.90681 z"
       id="path2989"
       inkscape:connector-curvature="0"
       sodipodi:nodetypes="ssssss" />
    <path
       style="fill:none;stroke:#000000;stroke-width:1.41732287;stroke-linecap:butt;stroke-linejoin:miter;stroke-miterlimit:4;stroke-opacity:1;stroke-dasharray:none;marker-end:url(#Arrow1Mend)"
       d="m 116.684,925.62359 73.60854,15.61598"
       id="path2991"
       inkscape:connector-curvature="0"
       inkscape:transform-center-x="-22.437875"
       inkscape:transform-center-y="4.95576"
       sodipodi:nodetypes="cc" />
    <path
       inkscape:transform-center-y="-22.437873"
       inkscape:transform-center-x="-4.9557611"
       inkscape:connector-curvature="0"
       id="path4391"
       d="m 116.67239,925.06352 9.00884,-43.78711"
       style="fill:none;stroke:#000000;stroke-width:1.41732287;stroke-linecap:butt;stroke-linejoin:miter;stroke-miterlimit:4;stroke-opacity:1;stroke-dasharray:none;marker-end:url(#Arrow1Mend)" />
    <g
       style="font-style:normal;font-variant:normal;font-weight:normal;font-stretch:normal;letter-spacing:normal;word-spacing:normal;text-anchor:start;fill:none;stroke:#000000;stroke-linecap:butt;stroke-linejoin:miter;stroke-miterlimit:10.43299961;stroke-opacity:1;stroke-dasharray:none;stroke-dashoffset:0"
       id="content"
       transform="matrix(1.25,0,0,-1.25,-150,1767.5)"
       xml:space="preserve"
       stroke-miterlimit="10.433"
       font-style="normal"
       font-variant="normal"
       font-weight="normal"
       font-stretch="normal"
       font-size-adjust="none"
       letter-spacing="normal"
       word-spacing="normal"
       ns0:text="$\\sigma$"
       ns0:preamble="D:\\Onderwijs\\FLUI\\Cursus\\FLUI_theorie\\tex\\commands.tex">
<path
   style="fill:#000000;stroke-width:0"
   inkscape:connector-curvature="0"
   d="m 228.59,710.83 0.01,0 0.01,0 0.02,0 0.01,0 0.02,0 0.02,0 0.02,0 0.02,0.01 0.02,0 0.02,0 0.02,0 0.02,0.01 0.02,0 0.02,0.01 0.02,0 0.02,0.01 0.02,0.01 0.02,0.01 0.02,0.01 0.01,0.01 0.02,0.02 0.02,0.01 0,0.01 0.01,0.01 0.01,0 0.01,0.01 0,0.01 0.01,0.01 0,0.01 0.01,0.01 0,0.01 0.01,0.01 0,0.01 0.01,0.02 0,0.01 0,0.01 0.01,0.01 0,0.02 0,0.01 0,0.02 0,0.01 0,0.02 c 0,0.24 -0.21,0.24 -0.39,0.24 h -2.26 c -1.51,0 -2.61,-1.64 -2.61,-2.82 0,-0.88 0.59,-1.57 1.49,-1.57 l 0.01,0.21 c -0.49,0 -0.88,0.36 -0.88,1.08 0,0.29 0.12,1.11 0.47,1.7 0.41,0.68 1.01,0.82 1.35,0.82 0.83,0 0.91,-0.66 0.91,-0.96 0,-0.47 -0.2,-1.28 -0.53,-1.79 -0.39,-0.59 -0.93,-0.85 -1.32,-0.85 h 0 l -0.01,-0.21 c 1.18,0 2.5,1.2 2.5,2.73 0,0.17 0,0.64 -0.31,1.08 z"
   id="path3012" />
</g>    <g
       style="font-style:normal;font-variant:normal;font-weight:normal;font-stretch:normal;letter-spacing:normal;word-spacing:normal;text-anchor:start;fill:none;stroke:#000000;stroke-linecap:butt;stroke-linejoin:miter;stroke-miterlimit:10.43299961;stroke-opacity:1;stroke-dasharray:none;stroke-dashoffset:0"
       ns0:preamble="D:\\Onderwijs\\FLUI\\Cursus\\FLUI_theorie\\tex\\commands.tex"
       ns0:text="$\\tau$"
       word-spacing="normal"
       letter-spacing="normal"
       font-size-adjust="none"
       font-stretch="normal"
       font-weight="normal"
       font-variant="normal"
       font-style="normal"
       stroke-miterlimit="10.433"
       xml:space="preserve"
       transform="matrix(1.25,0,0,-1.25,-90.357143,1820.3571)"
       id="g3052">
<path
   id="path3054"
   d="m 226.36,710.83 h 1.67 c 0.13,0 0.49,0 0.49,0.34 0,0.24 -0.21,0.24 -0.4,0.24 h -2.79 c -0.2,0 -0.59,0 -1.02,-0.47 -0.33,-0.36 -0.61,-0.84 -0.61,-0.89 0,-0.01 0,-0.1 0.12,-0.1 0.08,0 0.1,0.04 0.16,0.12 0.49,0.76 1.05,0.76 1.26,0.76 h 0.83 l -0.98,-3.19 c -0.04,-0.12 -0.1,-0.33 -0.1,-0.37 0,-0.11 0.07,-0.26 0.29,-0.26 0.33,0 0.38,0.27 0.41,0.42 z"
   inkscape:connector-curvature="0"
   style="fill:#000000;stroke-width:0" />
</g>  </g>
</svg>
