<?xml version="1.0" encoding="UTF-8" standalone="no"?>
<!-- Created with Inkscape (http://www.inkscape.org/) -->

<svg
   xmlns:dc="http://purl.org/dc/elements/1.1/"
   xmlns:cc="http://creativecommons.org/ns#"
   xmlns:rdf="http://www.w3.org/1999/02/22-rdf-syntax-ns#"
   xmlns:svg="http://www.w3.org/2000/svg"
   xmlns="http://www.w3.org/2000/svg"
   xmlns:sodipodi="http://sodipodi.sourceforge.net/DTD/sodipodi-0.dtd"
   xmlns:inkscape="http://www.inkscape.org/namespaces/inkscape"
   width="396.85037"
   height="162.99213"
   id="svg3009"
   version="1.1"
   inkscape:version="0.48.2 r9819"
   sodipodi:docname="Stationaire_stroming_vliegtuig.svg">
  <sodipodi:namedview
     id="base"
     pagecolor="#ffffff"
     bordercolor="#666666"
     borderopacity="1.0"
     inkscape:pageopacity="0.0"
     inkscape:pageshadow="2"
     inkscape:zoom="1.979899"
     inkscape:cx="316.21395"
     inkscape:cy="96.815703"
     inkscape:document-units="mm"
     inkscape:current-layer="layer1"
     showgrid="false"
     units="mm"
     inkscape:window-width="1366"
     inkscape:window-height="706"
     inkscape:window-x="-8"
     inkscape:window-y="-8"
     inkscape:window-maximized="1">
    <inkscape:grid
       type="xygrid"
       id="grid3017"
       empspacing="5"
       visible="true"
       enabled="true"
       snapvisiblegridlinesonly="true"
       units="mm"
       spacingx="1mm"
       spacingy="1mm"
       dotted="false" />
  </sodipodi:namedview>
  <defs
     id="defs3011">
    <marker
       style="overflow:visible"
       id="Arrow1Mend"
       refX="0"
       refY="0"
       orient="auto"
       inkscape:stockid="Arrow1Mend">
      <path
         transform="matrix(-0.4,0,0,-0.4,-4,0)"
         style="fill-rule:evenodd;stroke:#000000;stroke-width:1pt;marker-start:none"
         d="M 0,0 5,-5 -12.5,0 5,5 0,0 z"
         id="path5215"
         inkscape:connector-curvature="0" />
    </marker>
    <marker
       style="overflow:visible"
       id="marker3094"
       refX="0"
       refY="0"
       orient="auto"
       inkscape:stockid="Arrow1Mend">
      <path
         transform="matrix(-0.4,0,0,-0.4,-4,0)"
         style="fill-rule:evenodd;stroke:#000000;stroke-width:1pt;marker-start:none"
         d="M 0,0 5,-5 -12.5,0 5,5 0,0 z"
         id="path3096"
         inkscape:connector-curvature="0" />
    </marker>
  </defs>
  <metadata
     id="metadata3014">
    <rdf:RDF>
      <cc:Work
         rdf:about="">
        <dc:format>image/svg+xml</dc:format>
        <dc:type
           rdf:resource="http://purl.org/dc/dcmitype/StillImage" />
        <dc:title></dc:title>
      </cc:Work>
    </rdf:RDF>
  </metadata>
  <g
     inkscape:label="Layer 1"
     inkscape:groupmode="layer"
     id="layer1"
     transform="translate(0,-889.37014)">
    <rect
       style="fill:#4d4d4d;fill-opacity:0.99468085;fill-rule:nonzero;stroke:none"
       id="rect4102"
       width="386.00299"
       height="10.458668"
       x="7.0866141"
       y="1038.6456" />
    <path
       style="fill:none;stroke:#000000;stroke-width:0.70866144;stroke-linecap:butt;stroke-linejoin:miter;stroke-miterlimit:4;stroke-opacity:1;stroke-dasharray:none"
       d="m 7.0866142,1038.6456 386.0764358,0"
       id="path4104"
       inkscape:connector-curvature="0" />
    <g
       id="g3062">
      <g
         transform="matrix(0.29583709,0,0,0.29583709,17.527585,693.45348)"
         style="stroke-width:0.70866144;stroke-miterlimit:4;stroke-dasharray:none"
         id="g3030">
        <path
           style="fill:#ffffff;stroke:#000000;stroke-width:2.39544487;stroke-linecap:butt;stroke-linejoin:miter;stroke-miterlimit:4;stroke-opacity:1;stroke-dasharray:none"
           d="m 76.785714,797.71932 -21.607142,-21.78571 26.25,-0.89286 27.142858,18.39286 z"
           id="path3000"
           inkscape:connector-curvature="0"
           transform="translate(0,2.5390623e-6)" />
        <g
           style="stroke-width:0.70866144;stroke-miterlimit:4;stroke-dasharray:none"
           transform="translate(-65.357144,-69.464286)"
           id="g3024">
          <path
             sodipodi:nodetypes="cccsscc"
             transform="translate(0,2.5390623e-6)"
             inkscape:connector-curvature="0"
             id="path3026"
             d="m 283.57143,840.75504 16.78571,12.5 59.28572,-6.25 c 0,0 -2.47018,-5.32423 -6.07143,-5.53572 -11.33151,-0.66546 -17.80226,-1.80971 -30,-2.67857 -2.53643,-0.18067 -6.42858,-4.10714 -6.42858,-4.10714 z"
             style="fill:#ffffff;stroke:#000000;stroke-width:2.39544487;stroke-linecap:butt;stroke-linejoin:miter;stroke-miterlimit:4;stroke-opacity:1;stroke-dasharray:none" />
          <path
             sodipodi:nodetypes="ccccccc"
             transform="translate(0,2.5390623e-6)"
             inkscape:connector-curvature="0"
             id="path3028"
             d="m 294.64286,851.46933 0.17857,7.32142 18.03571,4.28572 54.46429,-1.78572 c 1.86566,-6.04966 3.68001,-12.09419 0.89286,-17.67857 l -54.10715,2.32143 z"
             style="fill:#ffffff;stroke:#000000;stroke-width:2.39544487;stroke-linecap:butt;stroke-linejoin:miter;stroke-miterlimit:4;stroke-opacity:1;stroke-dasharray:none" />
        </g>
        <path
           style="fill:#ffffff;stroke:#000000;stroke-width:2.39544487;stroke-linecap:butt;stroke-linejoin:miter;stroke-miterlimit:4;stroke-opacity:1;stroke-dasharray:none"
           d="m 186.87822,753.10449 65.65992,36.61803 72.98352,0.25254 -109.60155,-37.62818 z"
           id="path3004"
           inkscape:connector-curvature="0"
           transform="translate(0,2.5390623e-6)"
           sodipodi:nodetypes="ccccc" />
        <path
           style="fill:#ffffff;stroke:#000000;stroke-width:2.39544487;stroke-linecap:butt;stroke-linejoin:miter;stroke-miterlimit:4;stroke-opacity:1;stroke-dasharray:none"
           d="m 78.928572,794.50504 c -2.583327,1.9218 -2.756997,4.01501 -2.142858,6.07143 0.899376,3.01152 5.490326,4.201 8.571429,4.82142 13.320566,2.68227 22.545817,3.41259 34.285717,5.17858 22.60683,3.40067 44.87651,8.85489 67.5,12.14286 17.06903,2.48071 34.2193,4.55389 51.42857,5.71428 14.85152,1.00141 29.75774,1.13092 44.64286,1.07143 29.7769,-0.11901 59.53011,-1.72472 89.28571,-2.85714 32.389,-1.23264 64.76404,-2.80963 97.14286,-4.28572 10.11973,-0.46134 20.27404,-0.45234 30.35714,-1.42857 4.07211,-0.39426 8.1392,-0.94412 12.14286,-1.78571 4.83306,-1.01594 9.61356,-2.32807 14.28571,-3.92857 5.60518,-1.92012 11.14406,-4.10639 16.42857,-6.78572 2.85898,-1.44955 7.81895,-3.81291 8.21429,-5 0.73903,-2.21909 -0.2558,-5.01656 -1.78571,-6.78571 -0.75528,-0.87338 -5.42122,-3.4272 -8.21429,-5 -6.07785,-3.42248 -12.12792,-6.97175 -18.57143,-9.64286 -4.73011,-1.96083 -9.6055,-3.72424 -14.64286,-4.64286 -10.90753,-1.98911 -22.12846,-1.59772 -33.21428,-1.78571 -36.07332,-0.61172 -72.14521,1.31819 -108.21429,2.14286 -32.14526,0.73496 -96.42857,2.5 -96.42857,2.5 l -102.14286,4.28571 c 0,0 -6.07417,2.57052 -9.28571,3.21429 -7.48501,1.5004 -15.22942,1.12101 -22.85714,1.42857 -13.08677,0.52767 -26.20512,0.051 -39.285718,0.71428 -5.891629,0.31809 -12.909017,1.22751 -17.5,4.64286 z"
           id="path2994"
           inkscape:connector-curvature="0"
           transform="translate(0,2.5390623e-6)"
           sodipodi:nodetypes="ssssssssssssssssssssccsscs" />
        <path
           style="fill:#ffffff;stroke:#000000;stroke-width:2.39544487;stroke-linecap:butt;stroke-linejoin:miter;stroke-miterlimit:4;stroke-opacity:1;stroke-dasharray:none"
           d="m 88.75,790.3979 c 0,0 0.281175,-8.14131 -0.892857,-11.96429 C 80.70795,755.15385 66.785714,706.11218 66.785714,706.11218 l 27.142858,0 c 0,0 36.615598,46.51274 54.999998,67.67857 4.77372,5.49595 18.92857,10.89286 18.92857,10.89286 -33.11771,10.89613 -49.63341,8.45798 -79.10714,5.71429 z"
           id="path2996"
           inkscape:connector-curvature="0"
           transform="translate(0,2.5390623e-6)"
           sodipodi:nodetypes="csccscc" />
        <path
           style="fill:#ffffff;stroke:#000000;stroke-width:2.39544487;stroke-linecap:butt;stroke-linejoin:miter;stroke-miterlimit:4;stroke-opacity:1;stroke-dasharray:none"
           d="m 87.678572,797.36218 -36.607143,6.78572 21.607143,1.78571 63.928568,-5.17857 c -13.80137,-4.35573 -32.05875,-2.98229 -48.928568,-3.39286 z"
           id="path2998"
           inkscape:connector-curvature="0"
           transform="translate(0,2.5390623e-6)"
           sodipodi:nodetypes="ccccc" />
        <g
           style="stroke-width:0.70866144;stroke-miterlimit:4;stroke-dasharray:none"
           id="g3018"
           transform="translate(38.571428,-9.4642857)">
          <path
             style="fill:#ffffff;stroke:#000000;stroke-width:2.39544487;stroke-linecap:butt;stroke-linejoin:miter;stroke-miterlimit:4;stroke-opacity:1;stroke-dasharray:none"
             d="m 283.57143,840.75504 16.78571,12.5 59.28572,-6.25 c 0,0 -2.47018,-5.32423 -6.07143,-5.53572 -11.33151,-0.66546 -17.80226,-1.80971 -30,-2.67857 -2.53643,-0.18067 -6.42858,-4.10714 -6.42858,-4.10714 z"
             id="path3020"
             inkscape:connector-curvature="0"
             transform="translate(0,2.5390623e-6)"
             sodipodi:nodetypes="cccsscc" />
          <path
             style="fill:#ffffff;stroke:#000000;stroke-width:2.39544487;stroke-linecap:butt;stroke-linejoin:miter;stroke-miterlimit:4;stroke-opacity:1;stroke-dasharray:none"
             d="m 294.64286,851.46933 0.17857,7.32142 18.03571,4.28572 54.46429,-1.78572 c 1.86566,-6.04966 3.68001,-12.09419 0.89286,-17.67857 l -54.10715,2.32143 z"
             id="path3022"
             inkscape:connector-curvature="0"
             transform="translate(0,2.5390623e-6)"
             sodipodi:nodetypes="ccccccc" />
        </g>
        <g
           style="stroke-width:0.70866144;stroke-miterlimit:4;stroke-dasharray:none"
           id="g3014">
          <path
             sodipodi:nodetypes="cccsscc"
             transform="translate(0,2.5390623e-6)"
             inkscape:connector-curvature="0"
             id="path3010"
             d="m 283.57143,840.75504 16.78571,12.5 59.28572,-6.25 c 0,0 -2.47018,-5.32423 -6.07143,-5.53572 -11.33151,-0.66546 -17.80226,-1.80971 -30,-2.67857 -2.53643,-0.18067 -6.42858,-4.10714 -6.42858,-4.10714 z"
             style="fill:#ffffff;stroke:#000000;stroke-width:2.39544487;stroke-linecap:butt;stroke-linejoin:miter;stroke-miterlimit:4;stroke-opacity:1;stroke-dasharray:none" />
          <path
             sodipodi:nodetypes="ccccccc"
             transform="translate(0,2.5390623e-6)"
             inkscape:connector-curvature="0"
             id="path3012"
             d="m 294.64286,851.46933 0.17857,7.32142 18.03571,4.28572 54.46429,-1.78572 c 1.86566,-6.04966 3.68001,-12.09419 0.89286,-17.67857 l -54.10715,2.32143 z"
             style="fill:#ffffff;stroke:#000000;stroke-width:2.39544487;stroke-linecap:butt;stroke-linejoin:miter;stroke-miterlimit:4;stroke-opacity:1;stroke-dasharray:none" />
        </g>
        <path
           style="fill:#ffffff;stroke:#000000;stroke-width:2.39544487;stroke-linecap:butt;stroke-linejoin:miter;stroke-miterlimit:4;stroke-opacity:1;stroke-dasharray:none"
           d="m 225.71429,845.21933 40.35714,-0.71429 c 0,0 126.26281,-16.18052 138.21428,-26.42857 2.41972,-2.07485 4.55356,-6.30461 -24.64285,-6.42857 -31.01662,-0.13169 -90,12.85714 -90,12.85714 0,0 0.48155,8.43544 -6.42857,10 -20.64715,4.67485 -57.5,10.71429 -57.5,10.71429 z"
           id="path3002"
           inkscape:connector-curvature="0"
           transform="translate(0,2.5390623e-6)"
           sodipodi:nodetypes="ccsscsc" />
        <path
           style="fill:none;stroke:#000000;stroke-width:2.39544487;stroke-linecap:butt;stroke-linejoin:miter;stroke-miterlimit:4;stroke-opacity:1;stroke-dasharray:none"
           d="m 541.66404,792.077 -17.01606,0.0446 -7.00794,-7.00793 10.91911,-0.31567"
           id="path3006"
           inkscape:connector-curvature="0"
           sodipodi:nodetypes="cccc" />
      </g>
      <g
         id="g3083">
        <path
           inkscape:connector-curvature="0"
           id="path3129"
           d="m 125.63291,931.53695 0,-24.80318"
           style="fill:none;stroke:#000000;stroke-width:0.70866144;stroke-linecap:round;stroke-linejoin:miter;stroke-miterlimit:4;stroke-opacity:1;stroke-dasharray:none;marker-end:url(#Arrow1Mend)" />
        <path
           style="fill:none;stroke:#000000;stroke-width:0.70866144;stroke-linecap:round;stroke-linejoin:miter;stroke-miterlimit:4;stroke-opacity:1;stroke-dasharray:none;marker-end:url(#Arrow1Mend)"
           d="m 125.63291,931.53695 24.80315,0"
           id="path3131"
           inkscape:connector-curvature="0" />
        <text
           xml:space="preserve"
           style="font-size:13px;font-style:normal;font-variant:normal;font-weight:normal;font-stretch:normal;line-height:125%;letter-spacing:0px;word-spacing:0px;fill:#000000;fill-opacity:1;stroke:none;font-family:Arial;-inkscape-font-specification:Arial"
           x="150.89285"
           y="930.2193"
           id="text3024"
           sodipodi:linespacing="125%"><tspan
             sodipodi:role="line"
             id="tspan3026"
             x="150.89285"
             y="930.2193">$x'$</tspan></text>
        <text
           xml:space="preserve"
           style="font-size:13px;font-style:normal;font-variant:normal;font-weight:normal;font-stretch:normal;line-height:125%;letter-spacing:0px;word-spacing:0px;fill:#000000;fill-opacity:1;stroke:none;font-family:Arial;-inkscape-font-specification:Arial"
           x="127.9774"
           y="907.30951"
           id="text3024-1"
           sodipodi:linespacing="125%"><tspan
             sodipodi:role="line"
             id="tspan3026-7"
             x="127.9774"
             y="907.30951">$y'$</tspan></text>
      </g>
    </g>
    <g
       transform="translate(186.6947,105.52865)"
       id="g3016">
      <path
         inkscape:connector-curvature="0"
         id="path3018"
         d="m 125.63291,931.53695 0,-24.80318"
         style="fill:none;stroke:#000000;stroke-width:0.70866144;stroke-linecap:round;stroke-linejoin:miter;stroke-miterlimit:4;stroke-opacity:1;stroke-dasharray:none;marker-end:url(#Arrow1Mend)" />
      <path
         style="fill:none;stroke:#000000;stroke-width:0.70866144;stroke-linecap:round;stroke-linejoin:miter;stroke-miterlimit:4;stroke-opacity:1;stroke-dasharray:none;marker-end:url(#Arrow1Mend)"
         d="m 125.63291,931.53695 24.80315,0"
         id="path3021"
         inkscape:connector-curvature="0" />
      <text
         xml:space="preserve"
         style="font-size:13px;font-style:normal;font-variant:normal;font-weight:normal;font-stretch:normal;line-height:125%;letter-spacing:0px;word-spacing:0px;fill:#000000;fill-opacity:1;stroke:none;font-family:Arial;-inkscape-font-specification:Arial"
         x="150.89285"
         y="930.2193"
         id="text3023"
         sodipodi:linespacing="125%"><tspan
           sodipodi:role="line"
           id="tspan3025"
           x="150.89285"
           y="930.2193">$x$</tspan></text>
      <text
         xml:space="preserve"
         style="font-size:13px;font-style:normal;font-variant:normal;font-weight:normal;font-stretch:normal;line-height:125%;letter-spacing:0px;word-spacing:0px;fill:#000000;fill-opacity:1;stroke:none;font-family:Arial;-inkscape-font-specification:Arial"
         x="127.9774"
         y="907.30951"
         id="text3027"
         sodipodi:linespacing="125%"><tspan
           sodipodi:role="line"
           id="tspan3029"
           x="127.9774"
           y="907.30951">$y$</tspan></text>
    </g>
  </g>
</svg>
