<?xml version="1.0" encoding="UTF-8" standalone="no"?>
<!-- Created with Inkscape (http://www.inkscape.org/) -->

<svg
   xmlns:ns0="http://www.iki.fi/pav/software/textext/"
   xmlns:dc="http://purl.org/dc/elements/1.1/"
   xmlns:cc="http://creativecommons.org/ns#"
   xmlns:rdf="http://www.w3.org/1999/02/22-rdf-syntax-ns#"
   xmlns:svg="http://www.w3.org/2000/svg"
   xmlns="http://www.w3.org/2000/svg"
   xmlns:xlink="http://www.w3.org/1999/xlink"
   xmlns:sodipodi="http://sodipodi.sourceforge.net/DTD/sodipodi-0.dtd"
   xmlns:inkscape="http://www.inkscape.org/namespaces/inkscape"
   width="282.68112"
   height="200.93929"
   id="svg3041"
   version="1.1"
   inkscape:version="0.48.2 r9819"
   sodipodi:docname="grondwarmtewisselaar.svg">
  <sodipodi:namedview
     id="base"
     pagecolor="#ffffff"
     bordercolor="#666666"
     borderopacity="1.0"
     inkscape:pageopacity="0.0"
     inkscape:pageshadow="2"
     inkscape:zoom="1.979899"
     inkscape:cx="136.57225"
     inkscape:cy="135.02719"
     inkscape:document-units="mm"
     inkscape:current-layer="layer1"
     showgrid="false"
     inkscape:window-width="1280"
     inkscape:window-height="962"
     inkscape:window-x="-8"
     inkscape:window-y="-8"
     inkscape:window-maximized="1"
     units="mm"
     fit-margin-left="0.5"
     fit-margin-top="0.5"
     fit-margin-bottom="0.5"
     fit-margin-right="0.5">
    <inkscape:grid
       type="xygrid"
       id="grid2992"
       empspacing="5"
       visible="true"
       enabled="true"
       snapvisiblegridlinesonly="true"
       units="mm"
       spacingx="1mm"
       spacingy="1mm" />
  </sodipodi:namedview>
  <defs
     id="defs3043">
    <marker
       inkscape:stockid="Arrow1Mend"
       orient="auto"
       refY="0"
       refX="0"
       id="Arrow1Mend"
       style="overflow:visible">
      <path
         id="path4019"
         d="M 0,0 5,-5 -12.5,0 5,5 0,0 z"
         style="fill-rule:evenodd;stroke:#000000;stroke-width:1pt;marker-start:none"
         transform="matrix(-0.4,0,0,-0.4,-4,0)"
         inkscape:connector-curvature="0" />
    </marker>
    <marker
       inkscape:stockid="Arrow1Mstart"
       orient="auto"
       refY="0"
       refX="0"
       id="Arrow1Mstart"
       style="overflow:visible">
      <path
         id="path4016"
         d="M 0,0 5,-5 -12.5,0 5,5 0,0 z"
         style="fill-rule:evenodd;stroke:#000000;stroke-width:1pt;marker-start:none"
         transform="matrix(0.4,0,0,0.4,4,0)"
         inkscape:connector-curvature="0" />
    </marker>
    <linearGradient
       id="linearGradient3965">
      <stop
         style="stop-color:#aa0000;stop-opacity:1;"
         offset="0"
         id="stop3967" />
      <stop
         style="stop-color:#0000ad;stop-opacity:1;"
         offset="1"
         id="stop3969" />
    </linearGradient>
    <linearGradient
       inkscape:collect="always"
       xlink:href="#linearGradient3965"
       id="linearGradient3991"
       gradientUnits="userSpaceOnUse"
       x1="301.18109"
       y1="804.33063"
       x2="301.18109"
       y2="1087.7952" />
    <linearGradient
       inkscape:collect="always"
       xlink:href="#linearGradient3965"
       id="linearGradient3993"
       gradientUnits="userSpaceOnUse"
       gradientTransform="translate(-6.2047244e-6,-1.472072e-6)"
       x1="336.61417"
       y1="1087.7952"
       x2="336.61417"
       y2="804.33063" />
    <linearGradient
       inkscape:collect="always"
       xlink:href="#linearGradient3965"
       id="linearGradient3997"
       gradientUnits="userSpaceOnUse"
       x1="301.18109"
       y1="804.33063"
       x2="301.18109"
       y2="1087.7952" />
    <linearGradient
       inkscape:collect="always"
       xlink:href="#linearGradient3965"
       id="linearGradient3999"
       gradientUnits="userSpaceOnUse"
       gradientTransform="translate(-6.2047244e-6,-1.472072e-6)"
       x1="336.61417"
       y1="1087.7952"
       x2="336.61417"
       y2="804.33063" />
    <linearGradient
       inkscape:collect="always"
       xlink:href="#linearGradient3965"
       id="linearGradient3171"
       gradientUnits="userSpaceOnUse"
       x1="301.18109"
       y1="804.33063"
       x2="301.18109"
       y2="1087.7952" />
    <linearGradient
       inkscape:collect="always"
       xlink:href="#linearGradient3965"
       id="linearGradient3173"
       gradientUnits="userSpaceOnUse"
       gradientTransform="translate(-6.2047244e-6,-1.472072e-6)"
       x1="336.61417"
       y1="1087.7952"
       x2="336.61417"
       y2="804.33063" />
    <linearGradient
       inkscape:collect="always"
       xlink:href="#linearGradient3965"
       id="linearGradient3175"
       gradientUnits="userSpaceOnUse"
       x1="301.18109"
       y1="804.33063"
       x2="301.18109"
       y2="1087.7952" />
    <linearGradient
       inkscape:collect="always"
       xlink:href="#linearGradient3965"
       id="linearGradient3177"
       gradientUnits="userSpaceOnUse"
       gradientTransform="translate(-6.2047244e-6,-1.472072e-6)"
       x1="336.61417"
       y1="1087.7952"
       x2="336.61417"
       y2="804.33063" />
  </defs>
  <metadata
     id="metadata3046">
    <rdf:RDF>
      <cc:Work
         rdf:about="">
        <dc:format>image/svg+xml</dc:format>
        <dc:type
           rdf:resource="http://purl.org/dc/dcmitype/StillImage" />
        <dc:title />
      </cc:Work>
    </rdf:RDF>
  </metadata>
  <g
     inkscape:label="Laag 1"
     inkscape:groupmode="layer"
     id="layer1"
     transform="translate(-4.3267674,-851.42285)">
    <path
       inkscape:connector-curvature="0"
       id="path3071"
       d="m 35.433069,871.65347 248.031501,0"
       style="fill:#0000ad;fill-opacity:1;stroke:#0000ad;stroke-width:3.5433073;stroke-linecap:butt;stroke-linejoin:miter;stroke-miterlimit:4;stroke-opacity:1;stroke-dasharray:none;display:inline"
       sodipodi:nodetypes="cc" />
    <g
       id="g3981"
       transform="translate(-35.433073,102.7559)">
      <path
         inkscape:connector-curvature="0"
         id="path3193"
         d="m 308.26772,946.06293 c -7.08662,0 -10.62992,-3.54331 -10.62992,-17.71654 0,-33.01735 0,-141.73228 0,-141.73228"
         style="fill:none;stroke:url(#linearGradient3171);stroke-width:3.54330707;stroke-linecap:round;stroke-linejoin:miter;stroke-miterlimit:4;stroke-opacity:1;stroke-dasharray:none;display:inline"
         sodipodi:nodetypes="csc" />
      <path
         sodipodi:nodetypes="csc"
         style="fill:none;stroke:url(#linearGradient3173);stroke-width:3.54330707;stroke-linecap:round;stroke-linejoin:miter;stroke-miterlimit:4;stroke-opacity:1;stroke-dasharray:none;display:inline"
         d="m 318.89764,768.89757 c 0,0 0,124.01575 0,159.44882 0,14.69749 -3.54331,17.71654 -10.62992,17.71654"
         id="path3977"
         inkscape:connector-curvature="0" />
    </g>
    <g
       id="g3985"
       transform="translate(-177.16536,102.7559)">
      <path
         sodipodi:nodetypes="csc"
         style="fill:none;stroke:url(#linearGradient3175);stroke-width:3.54330707;stroke-linecap:round;stroke-linejoin:miter;stroke-miterlimit:4;stroke-opacity:1;stroke-dasharray:none;display:inline"
         d="m 308.26772,946.06293 c -7.08662,0 -10.62992,-3.54331 -10.62992,-17.71654 0,-33.01735 0,-141.73228 0,-141.73228"
         id="path3987"
         inkscape:connector-curvature="0" />
      <path
         inkscape:connector-curvature="0"
         id="path3989"
         d="m 318.89764,768.89757 c 0,0 0,3.1106 0,15.29072 m 0,4.89058 c 0,16.60925 0,130.40925 0,139.26752 0,14.69749 -3.54331,17.71654 -10.62992,17.71654"
         style="fill:none;stroke:url(#linearGradient3177);stroke-width:3.54330707;stroke-linecap:butt;stroke-linejoin:miter;stroke-miterlimit:4;stroke-opacity:1;stroke-dasharray:none;display:inline"
         sodipodi:nodetypes="cccsc" />
    </g>
    <path
       sodipodi:nodetypes="cc"
       style="fill:#0000ad;fill-opacity:1;stroke:#aa0000;stroke-width:3.5433073;stroke-linecap:butt;stroke-linejoin:miter;stroke-miterlimit:4;stroke-opacity:1;stroke-dasharray:none;display:inline"
       d="m 35.433068,889.37001 226.771662,0"
       id="path3995"
       inkscape:connector-curvature="0" />
    <path
       style="fill:none;stroke:#000000;stroke-width:0.70866144;stroke-linecap:butt;stroke-linejoin:miter;stroke-miterlimit:4;stroke-opacity:1;stroke-dasharray:none;marker-start:url(#Arrow1Mstart);marker-end:url(#Arrow1Mend)"
       d="m 145.27559,864.56686 138.18898,0"
       id="path4005"
       inkscape:connector-curvature="0" />
    <path
       inkscape:connector-curvature="0"
       id="path4637"
       d="m 255.11811,892.9133 0,155.9055"
       style="fill:none;stroke:#000000;stroke-width:0.70866144;stroke-linecap:butt;stroke-linejoin:miter;stroke-miterlimit:4;stroke-opacity:1;stroke-dasharray:none;marker-start:url(#Arrow1Mstart);marker-end:url(#Arrow1Mend)" />
    <path
       style="fill:none;stroke:#000000;stroke-width:1.0629921;stroke-linecap:butt;stroke-linejoin:miter;stroke-miterlimit:4;stroke-opacity:1;stroke-dasharray:none;marker-end:url(#Arrow1Mend)"
       d="m 6.629917,871.6535 24.803149,0"
       id="path4643"
       inkscape:connector-curvature="0" />
    <g
       id="content"
       transform="matrix(1.25,0,0,-1.25,-76.001224,1458.3133)"
       xml:space="preserve"
       stroke="black"
       stroke-linecap="butt"
       stroke-linejoin="miter"
       stroke-miterlimit="10.433"
       stroke-dasharray="none"
       stroke-dashoffset="0"
       stroke-opacity="1"
       fill="none"
       fill-rule="evenodd"
       fill-opacity="1"
       font-style="normal"
       font-variant="normal"
       font-weight="normal"
       font-stretch="normal"
       font-size-adjust="none"
       letter-spacing="normal"
       word-spacing="normal"
       text-anchor="start"
       ns0:text="60 m"
       ns0:preamble="D:\\Onderwijs\\FLUI\\Cursusmateriaal\\Fluidummechanica\\tex\\packages.tex"
       style="font-style:normal;font-variant:normal;font-weight:normal;font-stretch:normal;letter-spacing:normal;word-spacing:normal;text-anchor:start;fill:none;stroke:#000000;stroke-linecap:butt;stroke-linejoin:miter;stroke-miterlimit:10.43299961;stroke-opacity:1;stroke-dasharray:none;stroke-dashoffset:0">
<path
   d="M224.74,480.49 V480.73 C224.74,483.24,225.98,483.6,226.49,483.6 C226.73,483.6,227.14,483.54,227.36,483.2 C227.21,483.2,226.82,483.2,226.82,482.76 C226.82,482.45,227.05,482.3,227.27,482.3 C227.43,482.3,227.73,482.39,227.73,482.78 C227.73,483.37,227.29,483.85,226.47,483.85 C225.19,483.85,223.85,482.57,223.85,480.37 C223.85,477.72,225,477.02,225.93,477.02 C227.03,477.02,227.98,477.95,227.98,479.26 C227.98,480.52,227.09,481.48,225.99,481.48 L225.98,481.25 C226.14,481.25,226.6,481.25,226.9,480.63 C227.08,480.27,227.08,479.76,227.08,479.27 C227.08,478.8,227.08,478.3,226.91,477.94 C226.62,477.34,226.16,477.3,225.93,477.3 H225.93 C225.3,477.3,225,477.89,224.94,478.04 C224.76,478.51,224.76,479.3,224.76,479.48 C224.76,480.26,225.08,481.25,225.98,481.25 L225.99,481.48 C225.31,481.48,224.94,480.97,224.74,480.49 Z "
   stroke-width="0"
   fill="black"
   id="path3383" />
<path
   d="M232.99,480.41 L232.99,480.56 L232.99,480.71 L232.98,480.86 L232.98,481.01 L232.97,481.16 L232.96,481.3 L232.94,481.45 L232.92,481.6 L232.9,481.74 L232.87,481.89 L232.84,482.03 L232.8,482.18 L232.76,482.32 L232.71,482.46 L232.65,482.6 L232.62,482.67 L232.59,482.74 C232.13,483.69,231.32,483.85,230.9,483.85 C230.3,483.85,229.58,483.59,229.17,482.67 C228.85,481.98,228.8,481.21,228.8,480.41 C228.8,479.67,228.84,478.77,229.25,478.02 C229.68,477.21,230.4,477.02,230.89,477.02 V477.23 C230.5,477.23,229.92,477.48,229.74,478.44 C229.63,479.03,229.63,479.95,229.63,480.53 C229.63,481.17,229.63,481.82,229.71,482.36 C229.9,483.54,230.64,483.63,230.89,483.63 C231.22,483.63,231.88,483.45,232.07,482.47 C232.16,481.91,232.16,481.16,232.16,480.53 C232.16,479.79,232.16,479.11,232.05,478.48 C231.9,477.53,231.34,477.23,230.89,477.23 H230.89 V477.02 C231.43,477.02,232.18,477.23,232.62,478.17 C232.94,478.85,232.99,479.63,232.99,480.41 Z "
   stroke-width="0"
   fill="black"
   id="path3385" />
<path
   d="M237.81,480.65 V477.99 C237.81,477.54,237.7,477.54,237.03,477.54 V477.23 C237.38,477.24,237.89,477.27,238.15,477.27 C238.41,477.27,238.93,477.24,239.27,477.23 V477.54 C238.6,477.54,238.49,477.54,238.49,477.99 V479.82 C238.49,480.85,239.2,481.41,239.84,481.41 C240.46,481.41,240.57,480.87,240.57,480.3 V477.99 C240.57,477.54,240.46,477.54,239.8,477.54 V477.23 C240.15,477.24,240.65,477.27,240.92,477.27 C241.18,477.27,241.7,477.24,242.04,477.23 V477.54 C241.37,477.54,241.26,477.54,241.26,477.99 V479.82 C241.26,480.85,241.96,481.41,242.6,481.41 C243.23,481.41,243.34,480.87,243.34,480.3 V477.99 C243.34,477.54,243.23,477.54,242.56,477.54 V477.23 C242.91,477.24,243.42,477.27,243.69,477.27 C243.95,477.27,244.46,477.24,244.8,477.23 V477.54 C244.28,477.54,244.04,477.54,244.02,477.84 V479.74 C244.02,480.59,244.02,480.9,243.72,481.26 C243.58,481.43,243.25,481.63,242.67,481.63 C241.84,481.63,241.4,481.03,241.23,480.65 C241.09,481.52,240.35,481.63,239.91,481.63 C239.18,481.63,238.71,481.2,238.43,480.58 V481.63 L237.03,481.52 V481.21 C237.73,481.21,237.81,481.14,237.81,480.65 Z "
   stroke-width="0"
   fill="black"
   id="path3387" />
</g>    <g
       style="font-style:normal;font-variant:normal;font-weight:normal;font-stretch:normal;letter-spacing:normal;word-spacing:normal;text-anchor:start;fill:none;stroke:#000000;stroke-linecap:butt;stroke-linejoin:miter;stroke-miterlimit:10.43299961;stroke-opacity:1;stroke-dasharray:none;stroke-dashoffset:0"
       ns0:preamble="D:\\Onderwijs\\FLUI\\Cursusmateriaal\\Fluidummechanica\\tex\\packages.tex"
       ns0:text="80 m"
       text-anchor="start"
       word-spacing="normal"
       letter-spacing="normal"
       font-size-adjust="none"
       font-stretch="normal"
       font-weight="normal"
       font-variant="normal"
       font-style="normal"
       fill-opacity="1"
       fill-rule="evenodd"
       fill="none"
       stroke-opacity="1"
       stroke-dashoffset="0"
       stroke-dasharray="none"
       stroke-miterlimit="10.433"
       stroke-linejoin="miter"
       stroke-linecap="butt"
       stroke="black"
       xml:space="preserve"
       transform="matrix(0,-1.25,-1.25,0,849.55674,1262.06)"
       id="g3463">
<path
   id="path3465"
   fill="black"
   stroke-width="0"
   d="M226.51,480.83 L226.57,480.87 L226.64,480.9 L226.7,480.94 L226.76,480.98 L226.82,481.01 L226.88,481.05 L226.94,481.09 L227,481.13 L227.05,481.18 L227.1,481.22 L227.15,481.26 L227.2,481.31 L227.25,481.35 L227.29,481.4 L227.34,481.45 L227.38,481.49 L227.42,481.54 L227.45,481.59 L227.49,481.64 L227.52,481.69 L227.55,481.74 L227.58,481.8 L227.6,481.85 L227.62,481.91 L227.64,481.96 L227.66,482.02 L227.68,482.07 L227.69,482.13 L227.7,482.19 L227.7,482.25 L227.71,482.31 L227.71,482.37 C227.71,483.29,226.82,483.85,225.92,483.85 L225.91,483.6 C226.64,483.6,227.27,483.09,227.27,482.37 C227.27,481.8,226.88,481.33,226.29,480.98 L225.05,481.77 C224.6,482.07,224.56,482.41,224.56,482.58 C224.56,483.18,225.2,483.6,225.91,483.6 L225.92,483.85 C224.92,483.85,224.12,483.12,224.12,482.19 C224.12,482.01,224.14,481.57,224.56,481.1 C224.67,480.98,225.03,480.73,225.28,480.56 L225.51,480.41 L226.74,479.64 C227.01,479.45,227.48,479.15,227.48,478.55 C227.48,477.81,226.74,477.3,225.92,477.3 C225.06,477.3,224.35,477.91,224.35,478.73 C224.35,479.31,224.67,479.95,225.51,480.41 H225.51 L225.28,480.56 C224.71,480.27,223.85,479.72,223.85,478.73 C223.85,477.68,224.87,477.02,225.91,477.02 C227.03,477.02,227.98,477.84,227.98,478.9 C227.98,479.26,227.87,479.71,227.49,480.13 C227.3,480.33,227.14,480.43,226.51,480.83 Z " />
<path
   id="path3467"
   fill="black"
   stroke-width="0"
   d="M232.99,480.41 L232.99,480.56 L232.99,480.71 L232.98,480.86 L232.98,481.01 L232.97,481.16 L232.96,481.3 L232.94,481.45 L232.92,481.6 L232.9,481.74 L232.87,481.89 L232.84,482.03 L232.8,482.18 L232.76,482.32 L232.71,482.46 L232.65,482.6 L232.62,482.67 L232.59,482.74 C232.13,483.69,231.32,483.85,230.9,483.85 C230.3,483.85,229.58,483.59,229.17,482.67 C228.85,481.98,228.8,481.21,228.8,480.41 C228.8,479.67,228.84,478.77,229.25,478.02 C229.68,477.21,230.4,477.02,230.89,477.02 V477.23 C230.5,477.23,229.92,477.48,229.74,478.44 C229.63,479.03,229.63,479.95,229.63,480.53 C229.63,481.17,229.63,481.82,229.71,482.36 C229.9,483.54,230.64,483.63,230.89,483.63 C231.22,483.63,231.88,483.45,232.07,482.47 C232.16,481.91,232.16,481.16,232.16,480.53 C232.16,479.79,232.16,479.11,232.05,478.48 C231.9,477.53,231.34,477.23,230.89,477.23 H230.89 V477.02 C231.43,477.02,232.18,477.23,232.62,478.17 C232.94,478.85,232.99,479.63,232.99,480.41 Z " />
<path
   id="path3469"
   fill="black"
   stroke-width="0"
   d="M237.81,480.65 V477.99 C237.81,477.54,237.7,477.54,237.03,477.54 V477.23 C237.38,477.24,237.89,477.27,238.15,477.27 C238.41,477.27,238.93,477.24,239.27,477.23 V477.54 C238.6,477.54,238.49,477.54,238.49,477.99 V479.82 C238.49,480.85,239.2,481.41,239.84,481.41 C240.46,481.41,240.57,480.87,240.57,480.3 V477.99 C240.57,477.54,240.46,477.54,239.8,477.54 V477.23 C240.15,477.24,240.65,477.27,240.92,477.27 C241.18,477.27,241.7,477.24,242.04,477.23 V477.54 C241.37,477.54,241.26,477.54,241.26,477.99 V479.82 C241.26,480.85,241.96,481.41,242.6,481.41 C243.23,481.41,243.34,480.87,243.34,480.3 V477.99 C243.34,477.54,243.23,477.54,242.56,477.54 V477.23 C242.91,477.24,243.42,477.27,243.69,477.27 C243.95,477.27,244.46,477.24,244.8,477.23 V477.54 C244.28,477.54,244.04,477.54,244.02,477.84 V479.74 C244.02,480.59,244.02,480.9,243.72,481.26 C243.58,481.43,243.25,481.63,242.67,481.63 C241.84,481.63,241.4,481.03,241.23,480.65 C241.09,481.52,240.35,481.63,239.91,481.63 C239.18,481.63,238.71,481.2,238.43,480.58 V481.63 L237.03,481.52 V481.21 C237.73,481.21,237.81,481.14,237.81,480.65 Z " />
</g>  </g>
</svg>
