<?xml version="1.0" encoding="UTF-8" standalone="no"?>
<!-- Created with Inkscape (http://www.inkscape.org/) -->

<svg
   xmlns:ns0="http://www.iki.fi/pav/software/textext/"
   xmlns:dc="http://purl.org/dc/elements/1.1/"
   xmlns:cc="http://creativecommons.org/ns#"
   xmlns:rdf="http://www.w3.org/1999/02/22-rdf-syntax-ns#"
   xmlns:svg="http://www.w3.org/2000/svg"
   xmlns="http://www.w3.org/2000/svg"
   xmlns:sodipodi="http://sodipodi.sourceforge.net/DTD/sodipodi-0.dtd"
   xmlns:inkscape="http://www.inkscape.org/namespaces/inkscape"
   sodipodi:docname="Specifieke_energie_diagram_bodemstijging.svg"
   inkscape:version="0.48.2 r9819"
   version="1.1"
   id="svg3041"
   height="223.22835"
   width="333.07086">
  <sodipodi:namedview
     id="base"
     pagecolor="#ffffff"
     bordercolor="#666666"
     borderopacity="1.0"
     inkscape:pageopacity="0.0"
     inkscape:pageshadow="2"
     inkscape:zoom="1.4"
     inkscape:cx="142.69976"
     inkscape:cy="134.0526"
     inkscape:document-units="mm"
     inkscape:current-layer="layer1"
     showgrid="false"
     inkscape:window-width="1366"
     inkscape:window-height="706"
     inkscape:window-x="-8"
     inkscape:window-y="-8"
     inkscape:window-maximized="1"
     units="mm">
    <inkscape:grid
       spacingy="1mm"
       spacingx="1mm"
       units="mm"
       snapvisiblegridlinesonly="true"
       enabled="true"
       visible="true"
       empspacing="5"
       id="grid2992"
       type="xygrid" />
  </sodipodi:namedview>
  <defs
     id="defs3043">
    <marker
       style="overflow:visible"
       id="Arrow2Mend"
       refX="0"
       refY="0"
       orient="auto"
       inkscape:stockid="Arrow2Mend">
      <path
         inkscape:connector-curvature="0"
         transform="scale(-0.6,-0.6)"
         d="M 8.7185878,4.0337352 -2.2072895,0.01601326 8.7185884,-4.0017078 c -1.7454984,2.3720609 -1.7354408,5.6174519 -6e-7,8.035443 z"
         style="font-size:12px;fill-rule:evenodd;stroke-width:0.625;stroke-linejoin:round"
         id="path5635" />
    </marker>
    <marker
       style="overflow:visible"
       id="Arrow1Mstart"
       refX="0"
       refY="0"
       orient="auto"
       inkscape:stockid="Arrow1Mstart">
      <path
         inkscape:connector-curvature="0"
         transform="matrix(0.4,0,0,0.4,4,0)"
         style="fill-rule:evenodd;stroke:#000000;stroke-width:1pt;marker-start:none"
         d="M 0,0 5,-5 -12.5,0 5,5 0,0 z"
         id="path6290" />
    </marker>
    <marker
       style="overflow:visible"
       id="Arrow1Mend"
       refX="0"
       refY="0"
       orient="auto"
       inkscape:stockid="Arrow1Mend">
      <path
         inkscape:connector-curvature="0"
         transform="matrix(-0.4,0,0,-0.4,-4,0)"
         style="fill-rule:evenodd;stroke:#000000;stroke-width:1pt;marker-start:none"
         d="M 0,0 5,-5 -12.5,0 5,5 0,0 z"
         id="path3773" />
    </marker>
  </defs>
  <metadata
     id="metadata3046">
    <rdf:RDF>
      <cc:Work
         rdf:about="">
        <dc:format>image/svg+xml</dc:format>
        <dc:type
           rdf:resource="http://purl.org/dc/dcmitype/StillImage" />
        <dc:title />
      </cc:Work>
    </rdf:RDF>
  </metadata>
  <g
     transform="translate(0,-829.13387)"
     id="layer1"
     inkscape:groupmode="layer"
     inkscape:label="Laag 1">
    <path
       inkscape:connector-curvature="0"
       id="path4915"
       d="m 17.716535,1027.559 0,-195.15437"
       style="fill:none;stroke:#000000;stroke-width:1.0629921;stroke-linecap:butt;stroke-linejoin:miter;stroke-miterlimit:4;stroke-opacity:1;stroke-dasharray:none;marker-mid:none;marker-end:url(#Arrow2Mend)" />
    <path
       style="fill:none;stroke:#000000;stroke-width:1.0629921;stroke-linecap:butt;stroke-linejoin:miter;stroke-miterlimit:4;stroke-opacity:1;stroke-dasharray:none;marker-mid:none;marker-end:url(#Arrow2Mend)"
       d="m 17.716534,1027.559 305.386076,0"
       id="path6049"
       inkscape:connector-curvature="0" />
    <g
       style="font-style:normal;font-variant:normal;font-weight:normal;font-stretch:normal;letter-spacing:normal;word-spacing:normal;text-anchor:start;fill:none;stroke:#000000;stroke-linecap:butt;stroke-linejoin:miter;stroke-miterlimit:10.43299961;stroke-opacity:1;stroke-dasharray:none;stroke-dashoffset:0"
       id="content"
       transform="matrix(1.25,0,0,-1.25,-86.138189,1753.8786)"
       xml:space="preserve"
       stroke-miterlimit="10.433"
       font-style="normal"
       font-variant="normal"
       font-weight="normal"
       font-stretch="normal"
       font-size-adjust="none"
       letter-spacing="normal"
       word-spacing="normal"
       ns0:text="$y_{sub}$"
       ns0:preamble="D:\\Onderwijs\\FLUI\\Cursus\\FLUI_theorie\\tex\\commands.tex">
<path
   style="fill:#000000;stroke-width:0"
   inkscape:connector-curvature="0"
   d="m 228.27,710.91 0,0.01 0,0 0,0.01 0,0 0.01,0.02 0,0.01 0,0.01 0.01,0.01 0,0.01 0,0 0,0.01 0,0.01 0.01,0.01 0,0.01 0,0 0,0.01 0,0 0,0.01 0,0.01 0,0 0,0.01 0,0 0.01,0.01 0,0.01 0,0.01 0,0.01 0,0.01 0,0.01 0,0 0,0.01 c 0,0.18 -0.14,0.27 -0.29,0.27 -0.1,0 -0.26,-0.06 -0.35,-0.21 -0.02,-0.05 -0.1,-0.36 -0.14,-0.54 -0.07,-0.26 -0.14,-0.52 -0.2,-0.79 l -0.45,-1.79 c -0.03,-0.15 -0.46,-0.85 -1.12,-0.85 -0.51,0 -0.62,0.44 -0.62,0.81 0,0.46 0.17,1.07 0.51,1.95 0.16,0.4 0.2,0.51 0.2,0.71 0,0.45 -0.32,0.82 -0.82,0.82 -0.94,0 -1.31,-1.44 -1.31,-1.53 0,-0.1 0.1,-0.1 0.12,-0.1 0.1,0 0.11,0.02 0.16,0.18 0.27,0.93 0.67,1.23 1,1.23 0.08,0 0.25,0 0.25,-0.32 0,-0.25 -0.1,-0.51 -0.17,-0.7 -0.39,-1.05 -0.57,-1.62 -0.57,-2.08 0,-0.89 0.62,-1.18 1.21,-1.18 0.39,0 0.73,0.16 1.01,0.44 -0.13,-0.51 -0.25,-1 -0.65,-1.53 -0.26,-0.34 -0.64,-0.62 -1.1,-0.62 -0.13,0 -0.58,0.03 -0.75,0.41 0.16,0 0.29,0 0.43,0.12 0.1,0.09 0.19,0.22 0.19,0.41 0,0.31 -0.26,0.35 -0.36,0.35 -0.23,0 -0.56,-0.16 -0.56,-0.65 0,-0.49 0.44,-0.86 1.05,-0.86 1.03,0 2.05,0.9 2.33,2.02 z"
   id="path3056" />
<path
   style="fill:#000000;stroke-width:0"
   inkscape:connector-curvature="0"
   d="m 231.32,708.25 -0.02,-0.01 -0.01,0 -0.02,-0.01 -0.02,0 -0.01,-0.01 -0.02,-0.01 -0.01,-0.01 -0.01,0 -0.02,-0.01 -0.01,-0.01 -0.01,-0.01 -0.01,-0.01 -0.01,-0.01 -0.02,-0.01 -0.01,-0.01 -0.01,-0.01 0,-0.01 -0.01,-0.01 -0.01,-0.02 -0.01,-0.01 -0.01,-0.01 0,-0.01 -0.01,-0.01 0,-0.02 -0.01,-0.01 0,-0.01 -0.01,-0.02 0,-0.01 0,-0.01 0,-0.01 0,-0.02 0,-0.01 c 0,-0.16 0.13,-0.22 0.23,-0.22 0.07,0 0.33,0.04 0.33,0.39 0,0.45 -0.5,0.61 -0.93,0.61 -1.08,0 -1.28,-0.8 -1.28,-1.02 0,-0.26 0.15,-0.42 0.25,-0.51 0.18,-0.13 0.3,-0.16 0.78,-0.25 0.15,-0.02 0.6,-0.11 0.6,-0.45 0,-0.12 -0.08,-0.39 -0.37,-0.56 -0.27,-0.15 -0.62,-0.15 -0.7,-0.15 -0.28,0 -0.68,0.06 -0.84,0.29 0.23,0.03 0.39,0.2 0.39,0.4 0,0.17 -0.13,0.25 -0.28,0.25 -0.2,0 -0.4,-0.16 -0.4,-0.46 0,-0.42 0.45,-0.68 1.12,-0.68 1.28,0 1.52,0.88 1.52,1.15 0,0.64 -0.7,0.76 -0.96,0.81 -0.06,0.02 -0.24,0.04 -0.28,0.06 -0.26,0.05 -0.38,0.19 -0.38,0.35 0,0.16 0.12,0.34 0.28,0.44 0.18,0.12 0.43,0.13 0.55,0.13 0.14,0 0.5,-0.02 0.66,-0.25 z"
   id="path3058" />
<path
   style="fill:#000000;stroke-width:0"
   inkscape:connector-curvature="0"
   d="m 235.02,706.76 0,-0.02 0,-0.01 -0.01,-0.01 0,-0.02 -0.01,-0.02 0,-0.01 -0.01,-0.03 -0.01,-0.04 0,-0.03 -0.01,-0.04 -0.01,-0.01 0,-0.02 0,-0.01 -0.01,-0.02 0,-0.01 -0.01,-0.02 0,-0.01 0,-0.01 -0.01,-0.01 0,-0.02 0,-0.01 -0.01,0 0,-0.01 0,-0.01 0,0 0,0 0,-0.01 0,0 -0.01,0 0,0 0,0 0,0 c -0.13,-0.22 -0.41,-0.59 -0.84,-0.59 -0.48,0 -0.48,0.45 -0.48,0.57 0,0.41 0.19,0.91 0.39,1.41 0.05,0.14 0.1,0.25 0.1,0.36 0,0.36 -0.31,0.6 -0.67,0.6 -0.69,0 -1.01,-0.96 -1.01,-1.07 0,-0.09 0.1,-0.09 0.12,-0.09 0.1,0 0.11,0.04 0.13,0.11 0.17,0.57 0.47,0.85 0.74,0.85 0.12,0 0.18,-0.07 0.18,-0.24 0,-0.16 -0.06,-0.31 -0.13,-0.47 -0.37,-0.96 -0.37,-1.16 -0.37,-1.34 0,-0.12 0,-0.44 0.25,-0.67 0.21,-0.16 0.48,-0.22 0.72,-0.22 0.44,0 0.68,0.24 0.91,0.46 0.15,-0.44 0.62,-0.46 0.7,-0.46 0.24,0 0.42,0.14 0.55,0.37 0.15,0.27 0.25,0.67 0.25,0.7 0,0.09 -0.1,0.09 -0.12,0.09 -0.09,0 -0.1,-0.03 -0.15,-0.22 -0.08,-0.33 -0.22,-0.74 -0.51,-0.74 -0.18,0 -0.23,0.16 -0.23,0.34 0,0.12 0.06,0.37 0.11,0.55 0.04,0.18 0.11,0.47 0.15,0.62 l 0.16,0.62 c 0.04,0.18 0.12,0.48 0.12,0.52 0,0.13 -0.11,0.22 -0.23,0.22 -0.26,0 -0.31,-0.2 -0.37,-0.43 z"
   id="path3060" />
<path
   style="fill:#000000;stroke-width:0"
   inkscape:connector-curvature="0"
   d="m 238.63,710.25 0,0 0,0 0,0 0,0 0,0 0,0 0,0.01 0,0 0,0 0,0 0,0.01 0,0 0,0 0.01,0.01 0,0 0,0.01 0,0 0,0.01 0,0.01 0,0 0,0.01 0.01,0 0,0 0,0.01 0,0 0,0.01 0,0 0,0 0,0.01 0,0 0,0 0,0 0,0 0,0 0,0.01 0,0 0,0 0,0 0,0 0,0 0,0 c 0,0.03 -0.02,0.1 -0.11,0.1 -0.14,0 -0.72,-0.06 -0.89,-0.07 -0.05,-0.01 -0.15,-0.02 -0.15,-0.16 0,-0.1 0.1,-0.1 0.18,-0.1 0.33,0 0.33,-0.05 0.33,-0.1 0,-0.05 -0.07,-0.33 -0.11,-0.49 l -0.16,-0.64 c -0.06,-0.24 -0.44,-1.76 -0.46,-1.85 -0.03,-0.17 -0.03,-0.26 -0.03,-0.34 0,-0.7 0.44,-1.15 1.02,-1.15 l 0.01,0.2 c -0.34,0 -0.54,0.29 -0.54,0.71 0,0.25 0.06,0.49 0.26,1.27 0.04,0.14 0.04,0.15 0.17,0.3 0.27,0.31 0.58,0.46 0.83,0.46 0.27,0 0.51,-0.2 0.51,-0.67 0,-0.29 -0.15,-1 -0.36,-1.4 -0.17,-0.34 -0.52,-0.67 -0.87,-0.67 h 0 l -0.01,-0.2 c 0.87,0 1.8,0.95 1.8,1.98 0,0.81 -0.57,1.16 -1.05,1.16 -0.36,0 -0.67,-0.2 -0.87,-0.38 z"
   id="path3062" />
</g>    <g
       style="font-style:normal;font-variant:normal;font-weight:normal;font-stretch:normal;letter-spacing:normal;word-spacing:normal;text-anchor:start;fill:none;stroke:#000000;stroke-linecap:butt;stroke-linejoin:miter;stroke-miterlimit:10.43299961;stroke-opacity:1;stroke-dasharray:none;stroke-dashoffset:0"
       ns0:preamble="D:\\Onderwijs\\FLUI\\Cursus\\FLUI_theorie\\tex\\commands.tex"
       ns0:text="$y\'_{sub}$"
       word-spacing="normal"
       letter-spacing="normal"
       font-size-adjust="none"
       font-stretch="normal"
       font-weight="normal"
       font-variant="normal"
       font-style="normal"
       stroke-miterlimit="10.433"
       xml:space="preserve"
       transform="matrix(1.25,0,0,-1.25,-128.34537,1799.1165)"
       id="g3180">
<path
   id="path3182"
   d="m 228.27,710.91 0,0.01 0,0 0,0.01 0,0 0.01,0.02 0,0.01 0,0.01 0.01,0.01 0,0.01 0,0 0,0.01 0,0.01 0.01,0.01 0,0.01 0,0 0,0.01 0,0 0,0.01 0,0.01 0,0 0,0.01 0,0 0.01,0.01 0,0.01 0,0.01 0,0.01 0,0.01 0,0.01 0,0 0,0.01 c 0,0.18 -0.14,0.27 -0.29,0.27 -0.1,0 -0.26,-0.06 -0.35,-0.21 -0.02,-0.05 -0.1,-0.36 -0.14,-0.54 -0.07,-0.26 -0.14,-0.52 -0.2,-0.79 l -0.45,-1.79 c -0.03,-0.15 -0.46,-0.85 -1.12,-0.85 -0.51,0 -0.62,0.44 -0.62,0.81 0,0.46 0.17,1.07 0.51,1.95 0.16,0.4 0.2,0.51 0.2,0.71 0,0.45 -0.32,0.82 -0.82,0.82 -0.94,0 -1.31,-1.44 -1.31,-1.53 0,-0.1 0.1,-0.1 0.12,-0.1 0.1,0 0.11,0.02 0.16,0.18 0.27,0.93 0.67,1.23 1,1.23 0.08,0 0.25,0 0.25,-0.32 0,-0.25 -0.1,-0.51 -0.17,-0.7 -0.39,-1.05 -0.57,-1.62 -0.57,-2.08 0,-0.89 0.62,-1.18 1.21,-1.18 0.39,0 0.73,0.16 1.01,0.44 -0.13,-0.51 -0.25,-1 -0.65,-1.53 -0.26,-0.34 -0.64,-0.62 -1.1,-0.62 -0.13,0 -0.58,0.03 -0.75,0.41 0.16,0 0.29,0 0.43,0.12 0.1,0.09 0.19,0.22 0.19,0.41 0,0.31 -0.26,0.35 -0.36,0.35 -0.23,0 -0.56,-0.16 -0.56,-0.65 0,-0.49 0.44,-0.86 1.05,-0.86 1.03,0 2.05,0.9 2.33,2.02 z"
   inkscape:connector-curvature="0"
   style="fill:#000000;stroke-width:0" />
<path
   id="path3184"
   d="m 230.69,714.02 0.01,0.01 0,0.01 0.01,0.01 0,0.01 0.01,0.01 0,0.01 0,0.01 0.01,0.01 0,0.01 0,0.01 0.01,0 0,0.01 0,0.01 0,0.01 0,0 0.01,0.01 0,0.01 0,0 0,0.01 0,0 0,0.01 0,0.01 0,0 0,0.01 0,0.01 0.01,0.01 0,0.01 0,0 c 0,0.22 -0.2,0.39 -0.41,0.39 -0.27,0 -0.35,-0.22 -0.39,-0.33 l -0.92,-3.01 c 0,-0.01 -0.03,-0.11 -0.03,-0.11 0,-0.09 0.21,-0.15 0.27,-0.15 0.05,0 0.06,0.01 0.1,0.11 z"
   inkscape:connector-curvature="0"
   style="fill:#000000;stroke-width:0" />
<path
   id="path3186"
   d="m 231.32,706.92 -0.02,-0.01 -0.01,0 -0.02,-0.01 -0.02,0 -0.01,-0.01 -0.02,0 -0.01,-0.01 -0.01,-0.01 -0.02,-0.01 -0.01,-0.01 -0.01,-0.01 -0.01,-0.01 -0.01,-0.01 -0.02,-0.01 -0.01,-0.01 -0.01,-0.01 0,-0.01 -0.01,-0.01 -0.01,-0.01 -0.01,-0.01 -0.01,-0.02 0,-0.01 -0.01,-0.01 0,-0.01 -0.01,-0.02 0,-0.01 -0.01,-0.01 0,-0.02 0,-0.01 0,-0.01 0,-0.01 0,-0.02 c 0,-0.16 0.14,-0.22 0.23,-0.22 0.07,0 0.33,0.04 0.33,0.4 0,0.45 -0.5,0.6 -0.93,0.6 -1.08,0 -1.28,-0.8 -1.28,-1.02 0,-0.25 0.15,-0.42 0.25,-0.5 0.18,-0.14 0.3,-0.17 0.78,-0.25 0.15,-0.03 0.6,-0.11 0.6,-0.46 0,-0.12 -0.08,-0.38 -0.37,-0.56 -0.27,-0.15 -0.62,-0.15 -0.7,-0.15 -0.28,0 -0.68,0.06 -0.84,0.29 0.23,0.03 0.39,0.2 0.39,0.4 0,0.17 -0.13,0.26 -0.28,0.26 -0.2,0 -0.4,-0.16 -0.4,-0.47 0,-0.42 0.45,-0.68 1.12,-0.68 1.28,0 1.52,0.88 1.52,1.15 0,0.64 -0.7,0.77 -0.96,0.82 -0.06,0.01 -0.24,0.04 -0.28,0.05 -0.26,0.05 -0.38,0.2 -0.38,0.35 0,0.16 0.12,0.35 0.28,0.44 0.18,0.12 0.43,0.14 0.55,0.14 0.14,0 0.51,-0.02 0.66,-0.26 z"
   inkscape:connector-curvature="0"
   style="fill:#000000;stroke-width:0" />
<path
   id="path3188"
   d="m 235.02,705.43 0,-0.01 0,-0.02 -0.01,-0.01 0,-0.02 -0.01,-0.01 0,-0.02 -0.01,-0.03 -0.01,-0.03 0,-0.04 -0.01,-0.03 -0.01,-0.02 0,-0.01 0,-0.02 -0.01,-0.02 0,-0.01 -0.01,-0.01 0,-0.02 0,-0.01 -0.01,-0.01 0,-0.01 0,-0.01 -0.01,-0.01 0,-0.01 0,-0.01 0,0 0,0 0,0 0,-0.01 -0.01,0 0,0 0,0 0,0 c -0.13,-0.22 -0.41,-0.59 -0.84,-0.59 -0.48,0 -0.48,0.45 -0.48,0.58 0,0.41 0.19,0.9 0.39,1.41 0.05,0.14 0.1,0.24 0.1,0.35 0,0.36 -0.31,0.6 -0.67,0.6 -0.69,0 -1.01,-0.95 -1.01,-1.06 0,-0.09 0.1,-0.09 0.12,-0.09 0.1,0 0.11,0.03 0.13,0.11 0.17,0.57 0.47,0.85 0.74,0.85 0.12,0 0.18,-0.08 0.18,-0.25 0,-0.16 -0.06,-0.3 -0.13,-0.46 -0.37,-0.96 -0.37,-1.17 -0.37,-1.35 0,-0.12 0,-0.44 0.25,-0.66 0.21,-0.17 0.48,-0.23 0.72,-0.23 0.44,0 0.68,0.24 0.91,0.46 0.15,-0.44 0.62,-0.46 0.7,-0.46 0.24,0 0.42,0.14 0.55,0.37 0.15,0.27 0.25,0.68 0.25,0.7 0,0.09 -0.1,0.09 -0.12,0.09 -0.09,0 -0.1,-0.03 -0.15,-0.22 -0.08,-0.32 -0.22,-0.74 -0.51,-0.74 -0.18,0 -0.23,0.16 -0.23,0.34 0,0.12 0.06,0.37 0.11,0.55 0.04,0.19 0.11,0.47 0.15,0.63 l 0.16,0.61 c 0.04,0.18 0.12,0.48 0.12,0.52 0,0.14 -0.11,0.22 -0.23,0.22 -0.26,0 -0.31,-0.2 -0.37,-0.42 z"
   inkscape:connector-curvature="0"
   style="fill:#000000;stroke-width:0" />
<path
   id="path3190"
   d="m 238.63,708.92 0,0 0,0 0,0 0,0 0,0.01 0,0 0,0 0,0 0,0 0,0.01 0,0 0,0 0,0.01 0.01,0 0,0.01 0,0 0,0.01 0,0 0,0.01 0,0.01 0.01,0 0,0.01 0,0 0,0.01 0,0 0,0 0,0.01 0,0 0,0 0,0 0,0.01 0,0 0,0 0,0 0,0 0,0 0,0 0,0 0,0 0,0 c 0,0.04 -0.02,0.1 -0.11,0.1 -0.14,0 -0.72,-0.06 -0.89,-0.07 -0.05,-0.01 -0.15,-0.01 -0.15,-0.16 0,-0.1 0.1,-0.1 0.18,-0.1 0.33,0 0.33,-0.05 0.33,-0.1 0,-0.05 -0.07,-0.33 -0.11,-0.49 l -0.16,-0.64 c -0.06,-0.23 -0.44,-1.76 -0.46,-1.85 -0.03,-0.16 -0.03,-0.25 -0.03,-0.34 0,-0.7 0.44,-1.15 1.02,-1.15 l 0.01,0.2 c -0.34,0 -0.54,0.3 -0.54,0.71 0,0.26 0.06,0.49 0.26,1.28 0.04,0.13 0.04,0.14 0.17,0.3 0.27,0.3 0.58,0.46 0.83,0.46 0.27,0 0.51,-0.21 0.51,-0.68 0,-0.28 -0.15,-0.99 -0.36,-1.4 -0.17,-0.34 -0.52,-0.67 -0.87,-0.67 h 0 l -0.01,-0.2 c 0.87,0 1.8,0.95 1.8,1.98 0,0.81 -0.57,1.16 -1.05,1.16 -0.36,0 -0.67,-0.2 -0.87,-0.38 z"
   inkscape:connector-curvature="0"
   style="fill:#000000;stroke-width:0" />
</g>    <g
       id="g3318"
       transform="matrix(1.25,0,0,-1.25,-91.043996,1904.76)"
       xml:space="preserve"
       stroke-miterlimit="10.433"
       font-style="normal"
       font-variant="normal"
       font-weight="normal"
       font-stretch="normal"
       font-size-adjust="none"
       letter-spacing="normal"
       word-spacing="normal"
       ns0:text="$\\Delta E = \\Delta z$"
       ns0:preamble="D:\\Onderwijs\\FLUI\\Cursus\\FLUI_theorie\\tex\\commands.tex"
       style="font-style:normal;font-variant:normal;font-weight:normal;font-stretch:normal;letter-spacing:normal;word-spacing:normal;text-anchor:start;fill:none;stroke:#000000;stroke-linecap:butt;stroke-linejoin:miter;stroke-miterlimit:10.43299961;stroke-opacity:1;stroke-dasharray:none;stroke-dashoffset:0">
<path
   style="fill:#000000;stroke-width:0"
   inkscape:connector-curvature="0"
   d="m 227.83,714.06 -0.01,0.01 0,0.01 -0.01,0.01 0,0.01 -0.01,0.01 -0.01,0.01 0,0.01 -0.01,0.01 0,0.01 -0.01,0.01 0,0.01 -0.01,0 0,0.01 -0.01,0.01 -0.01,0 0,0.01 -0.01,0 -0.01,0.01 0,0 -0.01,0.01 -0.01,0 -0.01,0 -0.01,0.01 -0.01,0 -0.01,0 -0.01,0 -0.01,0 -0.01,0.01 -0.02,0 -0.01,0 -0.01,0 -0.02,0 c -0.17,0 -0.19,-0.05 -0.26,-0.18 l -0.06,-0.82 2.68,-5.36 h -5.36 l 2.68,5.36 0.06,0.82 -3.36,-6.74 c -0.05,-0.09 -0.05,-0.11 -0.05,-0.12 0,-0.07 0.06,-0.07 0.22,-0.07 h 6.9 c 0.16,0 0.22,0 0.22,0.07 0,0.01 0,0.03 -0.05,0.12 z"
   id="path3320" />
<path
   style="fill:#000000;stroke-width:0"
   inkscape:connector-curvature="0"
   d="m 238.78,709.44 0,0 0,0.01 0.01,0.01 0,0.01 0,0.01 0.01,0.01 0,0.01 0.01,0.01 0,0.01 0,0.01 0,0 0.01,0 0,0.01 0,0 0,0.01 0,0 0,0.01 0,0 0.01,0 0,0.01 0,0 0,0 0,0 0,0.01 0,0 c 0,0.01 0,0.11 -0.12,0.11 -0.09,0 -0.11,-0.06 -0.13,-0.12 -0.65,-1.47 -1.02,-2.14 -2.72,-2.14 h -1.45 c -0.14,0 -0.16,0 -0.22,0.01 -0.1,0.01 -0.13,0.02 -0.13,0.1 0,0.03 0,0.05 0.05,0.23 l 0.68,2.71 h 0.98 c 0.85,0 0.85,-0.21 0.85,-0.45 0,-0.07 0,-0.19 -0.07,-0.49 -0.02,-0.05 -0.03,-0.08 -0.03,-0.11 0,-0.05 0.04,-0.11 0.13,-0.11 0.08,0 0.11,0.05 0.15,0.2 l 0.57,2.32 c 0,0.06 -0.05,0.11 -0.12,0.11 -0.09,0 -0.11,-0.06 -0.14,-0.18 -0.21,-0.75 -0.39,-0.98 -1.31,-0.98 h -0.93 l 0.59,2.39 c 0.09,0.35 0.1,0.39 0.54,0.39 h 1.4 c 1.22,0 1.52,-0.29 1.52,-1.1 0,-0.24 0,-0.26 -0.04,-0.53 0,-0.06 -0.01,-0.13 -0.01,-0.18 0,-0.05 0.03,-0.11 0.12,-0.11 0.11,0 0.12,0.06 0.14,0.24 l 0.19,1.72 c 0.03,0.27 -0.02,0.27 -0.26,0.27 h -5.03 c -0.2,0 -0.3,0 -0.3,-0.2 0,-0.11 0.09,-0.11 0.28,-0.11 0.37,0 0.65,0 0.65,-0.18 0,-0.04 0,-0.06 -0.05,-0.23 l -1.31,-5.26 c -0.1,-0.39 -0.12,-0.47 -0.91,-0.47 -0.17,0 -0.28,0 -0.28,-0.19 0,-0.11 0.09,-0.11 0.28,-0.11 h 5.16 c 0.23,0 0.24,0.01 0.31,0.16 z"
   id="path3322" />
<path
   style="fill:#000000;stroke-width:0"
   inkscape:connector-curvature="0"
   d="m 249.26,710.37 0.03,0 0.03,0 0.03,0 0.02,0.01 0.01,0 0.02,0 0.01,0 0.01,0 0.02,0 0.01,0.01 0.01,0 0.02,0 0.01,0.01 0.01,0 0.01,0.01 0.01,0 0.02,0.01 0.01,0.01 0,0.01 0.01,0.01 0.01,0.01 0,0 0.01,0.01 0,0 0,0.01 0.01,0.01 0,0 0,0.01 0,0.01 0.01,0 0,0.01 0,0.01 0,0.01 0,0.01 0,0 0,0.01 0,0.01 c 0,0.2 -0.19,0.2 -0.33,0.2 h -5.95 c -0.14,0 -0.33,0 -0.33,-0.2 0,-0.2 0.19,-0.2 0.33,-0.2 z"
   id="path3324" />
<path
   style="fill:#000000;stroke-width:0"
   inkscape:connector-curvature="0"
   d="m 249.27,708.45 0.02,0 0.01,0 0.03,0 0.03,0 0.01,0 0.01,0 0.02,0 0.01,0 0.02,0 0.01,0.01 0.01,0 0.02,0 0.01,0.01 0.01,0 0.01,0.01 0.01,0 0.02,0.01 0.01,0 0.01,0.01 0,0.01 0.01,0.01 0.01,0 0,0.01 0,0.01 0.01,0 0,0.01 0,0 0.01,0.01 0,0.01 0,0 0,0.01 0.01,0.01 0,0 0,0.01 0,0.01 0,0.01 0,0.01 0,0.01 0,0.01 c 0,0.19 -0.19,0.19 -0.34,0.19 h -5.94 c -0.14,0 -0.33,0 -0.33,-0.19 0,-0.2 0.19,-0.2 0.33,-0.2 z"
   id="path3326" />
<path
   style="fill:#000000;stroke-width:0"
   inkscape:connector-curvature="0"
   d="m 257.35,714.06 -0.01,0.01 -0.01,0.01 0,0.01 -0.01,0.01 0,0.01 -0.01,0.01 0,0.01 -0.01,0.01 -0.01,0.01 0,0.01 -0.01,0.01 0,0 -0.01,0.01 0,0.01 -0.01,0 -0.01,0.01 0,0 -0.01,0.01 -0.01,0 0,0.01 -0.01,0 -0.01,0 -0.01,0.01 -0.01,0 -0.01,0 -0.01,0 -0.01,0 -0.02,0.01 -0.01,0 -0.01,0 -0.02,0 -0.01,0 c -0.17,0 -0.19,-0.05 -0.26,-0.18 l -0.06,-0.82 2.68,-5.36 h -5.37 l 2.69,5.36 0.06,0.82 -3.36,-6.74 c -0.05,-0.09 -0.05,-0.11 -0.05,-0.12 0,-0.07 0.06,-0.07 0.21,-0.07 h 6.91 c 0.16,0 0.22,0 0.22,0.07 0,0.01 0,0.03 -0.05,0.12 z"
   id="path3328" />
<path
   style="fill:#000000;stroke-width:0"
   inkscape:connector-curvature="0"
   d="m 262.57,707.95 0.05,0.05 0.05,0.05 0.05,0.05 0.04,0.05 0.05,0.05 0.04,0.04 0.04,0.04 0.04,0.05 0.04,0.04 0.04,0.04 0.04,0.03 0.04,0.04 0.03,0.04 0.04,0.03 0.07,0.07 0.07,0.06 0.07,0.06 0.06,0.06 0.07,0.06 0.12,0.11 0.07,0.05 0.07,0.06 c 0,0.01 0.61,0.54 0.97,0.9 0.95,0.92 1.16,1.4 1.16,1.44 0,0.1 -0.08,0.1 -0.1,0.1 -0.07,0 -0.1,-0.02 -0.15,-0.11 -0.3,-0.48 -0.51,-0.64 -0.75,-0.64 -0.24,0 -0.36,0.15 -0.51,0.32 -0.19,0.23 -0.36,0.43 -0.68,0.43 -0.75,0 -1.21,-0.93 -1.21,-1.14 0,-0.05 0.03,-0.11 0.12,-0.11 0.09,0 0.11,0.05 0.13,0.11 0.19,0.46 0.77,0.47 0.85,0.47 0.21,0 0.39,-0.07 0.62,-0.15 0.4,-0.15 0.51,-0.15 0.77,-0.15 -0.36,-0.42 -1.19,-1.14 -1.38,-1.3 l -0.9,-0.83 c -0.68,-0.67 -1.02,-1.24 -1.02,-1.31 0,-0.09 0.1,-0.09 0.12,-0.09 0.08,0 0.1,0.02 0.15,0.13 0.23,0.34 0.53,0.61 0.85,0.61 0.23,0 0.33,-0.09 0.58,-0.38 0.17,-0.21 0.35,-0.36 0.64,-0.36 0.98,0 1.56,1.26 1.56,1.53 0,0.04 -0.04,0.1 -0.12,0.1 -0.09,0 -0.11,-0.06 -0.14,-0.13 -0.23,-0.65 -0.87,-0.84 -1.2,-0.84 -0.2,0 -0.37,0.06 -0.58,0.13 -0.34,0.13 -0.49,0.17 -0.7,0.17 -0.02,0 -0.18,0 -0.27,-0.03 z"
   id="path3330" />
</g>    <path
       inkscape:connector-curvature="0"
       id="path6061"
       d="m 186.78843,1027.559 0,-181.21476"
       style="fill:none;stroke:#000000;stroke-width:0.70866144;stroke-linecap:butt;stroke-linejoin:miter;stroke-miterlimit:4;stroke-opacity:1;stroke-dasharray:1.41732283, 1.41732283;stroke-dashoffset:0" />
    <g
       transform="matrix(0.78681313,0,0,0.78681313,3.7769327,213.4863)"
       id="g6090">
      <path
         style="fill:none;stroke:#000000;stroke-width:1.35100961;stroke-linecap:butt;stroke-linejoin:miter;stroke-miterlimit:4;stroke-opacity:1;stroke-dasharray:10.8080771, 5.40403854;stroke-dashoffset:0"
         d="M 17.716534,1034.6456 301.18109,751.18106"
         id="path6059"
         inkscape:connector-curvature="0"
         sodipodi:nodetypes="cc" />
      <path
         style="fill:none;stroke:#000000;stroke-width:1.80134618;stroke-linecap:butt;stroke-linejoin:miter;stroke-miterlimit:4;stroke-opacity:1;stroke-dasharray:none"
         d="m 380,492.92461 c 0,0 -32.04139,-1.68249 -70.71429,-5.71429 -29.2038,-3.04461 -58.50788,-6.3633 -87.14285,-12.85714 -16.52534,-3.74762 -33.97724,-6.38947 -48.57143,-15 -7.6865,-4.53501 -15.7928,-10.35875 -19.28572,-18.57143 -3.16832,-7.44947 -1.85991,-16.40704 0,-24.28572 2.56872,-10.88125 9.1453,-20.47516 15,-30 10.24889,-16.67363 22.57118,-32.02418 35,-47.14285 31.25499,-38.01923 99.28572,-109.28572 99.28572,-109.28572"
         id="path6063"
         inkscape:connector-curvature="0"
         transform="translate(0,520.86614)"
         sodipodi:nodetypes="csssssssc" />
    </g>
    <path
       transform="matrix(0.64631079,0,0,0.64631079,43.626899,646.78858)"
       d="m 223.24372,337.29422 a 1.767767,1.767767 0 1 1 -3.53553,0 1.767767,1.767767 0 1 1 3.53553,0 z"
       sodipodi:ry="1.767767"
       sodipodi:rx="1.767767"
       sodipodi:cy="337.29422"
       sodipodi:cx="221.47595"
       id="path6095"
       style="opacity:0.98000004;fill:#000000;fill-opacity:1;fill-rule:evenodd;stroke:none"
       sodipodi:type="arc" />
    <path
       sodipodi:type="arc"
       style="opacity:0.98000004;fill:#000000;fill-opacity:1;fill-rule:evenodd;stroke:none"
       id="path6097"
       sodipodi:cx="221.47595"
       sodipodi:cy="337.29422"
       sodipodi:rx="1.767767"
       sodipodi:ry="1.767767"
       d="m 223.24372,337.29422 a 1.767767,1.767767 0 1 1 -3.53553,0 1.767767,1.767767 0 1 1 3.53553,0 z"
       transform="matrix(0.64631079,0,0,0.64631079,43.626899,780.45676)" />
    <path
       style="fill:none;stroke:#000000;stroke-width:0.70866144;stroke-linecap:butt;stroke-linejoin:miter;stroke-miterlimit:4;stroke-opacity:1;stroke-dasharray:1.41732283, 1.41732283;stroke-dashoffset:0"
       d="m 18.008375,998.50173 168.026715,0"
       id="path6107"
       inkscape:connector-curvature="0" />
    <path
       inkscape:connector-curvature="0"
       id="path6109"
       d="m 18.008374,864.60301 168.237076,0"
       style="fill:none;stroke:#000000;stroke-width:0.70866144;stroke-linecap:butt;stroke-linejoin:miter;stroke-miterlimit:4;stroke-opacity:1;stroke-dasharray:1.41732279, 1.41732279;stroke-dashoffset:0" />
    <path
       style="fill:none;stroke:#000000;stroke-width:0.70866144;stroke-linecap:butt;stroke-linejoin:miter;stroke-miterlimit:4;stroke-opacity:1;stroke-dasharray:1.41732283, 1.41732283;stroke-dashoffset:0"
       d="m 146.99817,1027.559 0,-181.21476"
       id="path6575"
       inkscape:connector-curvature="0" />
    <path
       style="fill:none;stroke:#000000;stroke-width:0.70866138;stroke-linecap:butt;stroke-linejoin:miter;stroke-miterlimit:4;stroke-opacity:1;stroke-dasharray:none;marker-start:url(#Arrow1Mstart);marker-end:url(#Arrow1Mend)"
       d="m 185.1821,1015.3628 -36.92483,0"
       id="path3167"
       inkscape:connector-curvature="0"
       sodipodi:nodetypes="cc" />
    <path
       sodipodi:type="arc"
       style="opacity:0.98000004;fill:#000000;fill-opacity:1;fill-rule:evenodd;stroke:none"
       id="path6613"
       sodipodi:cx="221.47595"
       sodipodi:cy="337.29422"
       sodipodi:rx="1.767767"
       sodipodi:ry="1.767767"
       d="m 223.24372,337.29422 a 1.767767,1.767767 0 1 1 -3.53553,0 1.767767,1.767767 0 1 1 3.53553,0 z"
       transform="matrix(0.64631079,0,0,0.64631079,3.8647361,694.69988)" />
    <path
       transform="matrix(0.64631079,0,0,0.64631079,3.8615606,770.27276)"
       d="m 223.24372,337.29422 a 1.767767,1.767767 0 1 1 -3.53553,0 1.767767,1.767767 0 1 1 3.53553,0 z"
       sodipodi:ry="1.767767"
       sodipodi:rx="1.767767"
       sodipodi:cy="337.29422"
       sodipodi:cx="221.47595"
       id="path6615"
       style="opacity:0.98000004;fill:#000000;fill-opacity:1;fill-rule:evenodd;stroke:none"
       sodipodi:type="arc" />
    <path
       style="fill:none;stroke:#000000;stroke-width:0.70866144;stroke-linecap:butt;stroke-linejoin:miter;stroke-miterlimit:4;stroke-opacity:1;stroke-dasharray:1.41732283, 1.41732283;stroke-dashoffset:0"
       d="m 18.008375,912.58456 127.565745,0"
       id="path6617"
       inkscape:connector-curvature="0" />
    <path
       inkscape:connector-curvature="0"
       id="path6619"
       d="m 18.008375,988.17482 127.565745,0"
       style="fill:none;stroke:#000000;stroke-width:0.70866144;stroke-linecap:butt;stroke-linejoin:miter;stroke-miterlimit:4;stroke-opacity:1;stroke-dasharray:1.41732283, 1.41732283;stroke-dashoffset:0" />
    <g
       id="g3515"
       transform="matrix(1.25,0,0,-1.25,-128.80787,1868.5769)"
       xml:space="preserve"
       stroke-miterlimit="10.433"
       font-style="normal"
       font-variant="normal"
       font-weight="normal"
       font-stretch="normal"
       font-size-adjust="none"
       letter-spacing="normal"
       word-spacing="normal"
       ns0:text="$y\'_{sup}$"
       ns0:preamble="D:\\Onderwijs\\FLUI\\Cursus\\FLUI_theorie\\tex\\commands.tex"
       style="font-style:normal;font-variant:normal;font-weight:normal;font-stretch:normal;letter-spacing:normal;word-spacing:normal;text-anchor:start;fill:none;stroke:#000000;stroke-linecap:butt;stroke-linejoin:miter;stroke-miterlimit:10.43299961;stroke-opacity:1;stroke-dasharray:none;stroke-dashoffset:0">
<path
   style="fill:#000000;stroke-width:0"
   inkscape:connector-curvature="0"
   d="m 228.27,710.91 0,0.01 0,0 0,0.01 0,0 0.01,0.02 0,0.01 0,0.01 0.01,0.01 0,0.01 0,0 0,0.01 0,0.01 0.01,0.01 0,0.01 0,0 0,0.01 0,0 0,0.01 0,0.01 0,0 0,0.01 0,0 0.01,0.01 0,0.01 0,0.01 0,0.01 0,0.01 0,0.01 0,0 0,0.01 c 0,0.18 -0.14,0.27 -0.29,0.27 -0.1,0 -0.26,-0.06 -0.35,-0.21 -0.02,-0.05 -0.1,-0.36 -0.14,-0.54 -0.07,-0.26 -0.14,-0.52 -0.2,-0.79 l -0.45,-1.79 c -0.03,-0.15 -0.46,-0.85 -1.12,-0.85 -0.51,0 -0.62,0.44 -0.62,0.81 0,0.46 0.17,1.07 0.51,1.95 0.16,0.4 0.2,0.51 0.2,0.71 0,0.45 -0.32,0.82 -0.82,0.82 -0.94,0 -1.31,-1.44 -1.31,-1.53 0,-0.1 0.1,-0.1 0.12,-0.1 0.1,0 0.11,0.02 0.16,0.18 0.27,0.93 0.67,1.23 1,1.23 0.08,0 0.25,0 0.25,-0.32 0,-0.25 -0.1,-0.51 -0.17,-0.7 -0.39,-1.05 -0.57,-1.62 -0.57,-2.08 0,-0.89 0.62,-1.18 1.21,-1.18 0.39,0 0.73,0.16 1.01,0.44 -0.13,-0.51 -0.25,-1 -0.65,-1.53 -0.26,-0.34 -0.64,-0.62 -1.1,-0.62 -0.13,0 -0.58,0.03 -0.75,0.41 0.16,0 0.29,0 0.43,0.12 0.1,0.09 0.19,0.22 0.19,0.41 0,0.31 -0.26,0.35 -0.36,0.35 -0.23,0 -0.56,-0.16 -0.56,-0.65 0,-0.49 0.44,-0.86 1.05,-0.86 1.03,0 2.05,0.9 2.33,2.02 z"
   id="path3517" />
<path
   style="fill:#000000;stroke-width:0"
   inkscape:connector-curvature="0"
   d="m 230.69,714.02 0.01,0.01 0,0.01 0.01,0.01 0,0.01 0.01,0.01 0,0.01 0,0.01 0.01,0.01 0,0.01 0,0.01 0.01,0 0,0.01 0,0.01 0,0.01 0,0 0.01,0.01 0,0.01 0,0 0,0.01 0,0 0,0.01 0,0.01 0,0 0,0.01 0,0.01 0.01,0.01 0,0.01 0,0 c 0,0.22 -0.2,0.39 -0.41,0.39 -0.27,0 -0.35,-0.22 -0.39,-0.33 l -0.92,-3.01 c 0,-0.01 -0.03,-0.11 -0.03,-0.11 0,-0.09 0.21,-0.15 0.27,-0.15 0.05,0 0.06,0.01 0.1,0.11 z"
   id="path3519" />
<path
   style="fill:#000000;stroke-width:0"
   inkscape:connector-curvature="0"
   d="m 231.32,707.28 -0.02,-0.01 -0.01,0 -0.02,-0.01 -0.02,0 -0.01,-0.01 -0.02,-0.01 -0.01,0 -0.01,-0.01 -0.02,-0.01 -0.01,-0.01 -0.01,-0.01 -0.01,-0.01 -0.01,-0.01 -0.02,-0.01 -0.01,-0.01 -0.01,-0.01 0,-0.01 -0.01,-0.01 -0.01,-0.01 -0.01,-0.02 -0.01,-0.01 0,-0.01 -0.01,-0.01 0,-0.02 -0.01,-0.01 0,-0.01 -0.01,-0.01 0,-0.02 0,-0.01 0,-0.01 0,-0.02 0,-0.01 c 0,-0.16 0.14,-0.22 0.23,-0.22 0.07,0 0.33,0.04 0.33,0.39 0,0.46 -0.5,0.61 -0.93,0.61 -1.08,0 -1.28,-0.8 -1.28,-1.02 0,-0.25 0.15,-0.42 0.25,-0.5 0.18,-0.14 0.3,-0.17 0.78,-0.25 0.15,-0.03 0.6,-0.12 0.6,-0.46 0,-0.12 -0.08,-0.39 -0.37,-0.56 -0.27,-0.15 -0.62,-0.15 -0.7,-0.15 -0.28,0 -0.68,0.06 -0.84,0.29 0.23,0.03 0.39,0.2 0.39,0.4 0,0.17 -0.13,0.25 -0.28,0.25 -0.2,0 -0.4,-0.16 -0.4,-0.46 0,-0.42 0.45,-0.68 1.12,-0.68 1.28,0 1.52,0.88 1.52,1.15 0,0.64 -0.7,0.77 -0.96,0.81 -0.06,0.02 -0.24,0.04 -0.28,0.06 -0.26,0.05 -0.38,0.19 -0.38,0.35 0,0.16 0.12,0.34 0.28,0.44 0.18,0.12 0.43,0.13 0.55,0.13 0.14,0 0.51,-0.02 0.66,-0.25 z"
   id="path3521" />
<path
   style="fill:#000000;stroke-width:0"
   inkscape:connector-curvature="0"
   d="m 235.02,705.79 0,-0.01 0,-0.02 -0.01,-0.01 0,-0.02 -0.01,-0.01 0,-0.02 -0.01,-0.03 -0.01,-0.04 0,-0.03 -0.01,-0.03 -0.01,-0.02 0,-0.02 0,-0.01 -0.01,-0.02 0,-0.01 -0.01,-0.02 0,-0.01 0,-0.01 -0.01,-0.01 0,-0.01 0,-0.01 -0.01,-0.01 0,-0.01 0,-0.01 0,0 0,0 0,-0.01 0,0 -0.01,0 0,0 0,0 0,0 c -0.13,-0.22 -0.41,-0.59 -0.84,-0.59 -0.48,0 -0.48,0.45 -0.48,0.57 0,0.42 0.19,0.91 0.39,1.42 0.05,0.13 0.1,0.24 0.1,0.35 0,0.36 -0.31,0.6 -0.67,0.6 -0.69,0 -1.01,-0.95 -1.01,-1.07 0,-0.09 0.1,-0.09 0.12,-0.09 0.1,0 0.11,0.04 0.13,0.11 0.17,0.58 0.47,0.85 0.74,0.85 0.12,0 0.18,-0.07 0.18,-0.24 0,-0.16 -0.06,-0.31 -0.13,-0.46 -0.37,-0.97 -0.37,-1.17 -0.37,-1.35 0,-0.12 0,-0.44 0.25,-0.66 0.21,-0.17 0.48,-0.23 0.72,-0.23 0.44,0 0.68,0.24 0.91,0.46 0.15,-0.44 0.62,-0.46 0.7,-0.46 0.24,0 0.42,0.14 0.55,0.37 0.15,0.27 0.25,0.68 0.25,0.7 0,0.09 -0.1,0.09 -0.12,0.09 -0.09,0 -0.1,-0.03 -0.15,-0.22 -0.08,-0.33 -0.22,-0.74 -0.51,-0.74 -0.18,0 -0.23,0.16 -0.23,0.34 0,0.12 0.06,0.37 0.11,0.55 0.04,0.18 0.11,0.47 0.15,0.62 l 0.16,0.62 c 0.04,0.18 0.12,0.48 0.12,0.52 0,0.14 -0.11,0.22 -0.23,0.22 -0.26,0 -0.31,-0.2 -0.37,-0.43 z"
   id="path3523" />
<path
   style="fill:#000000;stroke-width:0"
   inkscape:connector-curvature="0"
   d="m 237.31,703.81 0,-0.01 -0.01,-0.02 0,-0.02 -0.01,-0.01 0,-0.02 -0.01,-0.01 0,-0.01 0,-0.02 -0.01,-0.01 0,-0.01 -0.01,-0.01 -0.01,-0.01 0,-0.01 -0.01,-0.01 -0.01,-0.01 0,0 -0.01,-0.01 -0.01,-0.01 -0.01,0 -0.01,-0.01 -0.02,0 -0.01,-0.01 -0.01,0 -0.02,-0.01 -0.01,0 -0.01,0 -0.01,0 -0.01,0 -0.01,0 -0.01,0 -0.01,0 -0.01,0 -0.01,-0.01 -0.01,0 -0.01,0 -0.01,0 -0.02,0 -0.01,0 -0.01,0 c -0.09,0 -0.19,0 -0.19,-0.14 0,-0.08 0.06,-0.11 0.1,-0.11 0.18,0 0.41,0.03 0.6,0.03 0.23,0 0.5,-0.03 0.73,-0.03 0.06,0 0.14,0.02 0.14,0.16 0,0.09 -0.1,0.09 -0.18,0.09 -0.16,0 -0.35,0 -0.35,0.09 0,0.03 0.05,0.21 0.08,0.32 0.09,0.37 0.18,0.74 0.26,1.03 0.08,-0.14 0.3,-0.41 0.72,-0.41 v 0.2 c -0.5,0 -0.62,0.53 -0.62,0.6 0,0.03 0.01,0.08 0.02,0.11 l 0.35,1.39 c 0.4,0.54 0.75,0.64 0.97,0.64 0.27,0 0.51,-0.2 0.51,-0.67 0,-0.29 -0.15,-1 -0.36,-1.4 -0.18,-0.34 -0.52,-0.67 -0.87,-0.67 v -0.2 c 0.85,0 1.79,0.94 1.79,1.98 0,0.81 -0.57,1.16 -1.05,1.16 -0.43,0 -0.8,-0.29 -0.99,-0.49 -0.12,0.4 -0.5,0.49 -0.71,0.49 -0.28,0 -0.44,-0.18 -0.55,-0.37 -0.14,-0.24 -0.25,-0.65 -0.25,-0.7 0,-0.09 0.09,-0.09 0.11,-0.09 0.1,0 0.11,0.02 0.16,0.21 0.1,0.41 0.23,0.75 0.51,0.75 0.18,0 0.23,-0.15 0.23,-0.34 0,-0.07 -0.02,-0.16 -0.03,-0.21 z"
   id="path3525" />
</g>    <g
       style="font-style:normal;font-variant:normal;font-weight:normal;font-stretch:normal;letter-spacing:normal;word-spacing:normal;text-anchor:start;fill:none;stroke:#000000;stroke-linecap:butt;stroke-linejoin:miter;stroke-miterlimit:10.43299961;stroke-opacity:1;stroke-dasharray:none;stroke-dashoffset:0"
       ns0:preamble="D:\\Onderwijs\\FLUI\\Cursus\\FLUI_theorie\\tex\\commands.tex"
       ns0:text="$y_{sup}$"
       word-spacing="normal"
       letter-spacing="normal"
       font-size-adjust="none"
       font-stretch="normal"
       font-weight="normal"
       font-variant="normal"
       font-style="normal"
       stroke-miterlimit="10.433"
       xml:space="preserve"
       transform="matrix(1.25,0,0,-1.25,-86.043996,1879.3193)"
       id="g3665">
<path
   id="path3667"
   d="m 228.27,710.91 0,0.01 0,0 0,0.01 0,0 0.01,0.02 0,0.01 0,0.01 0.01,0.01 0,0.01 0,0 0,0.01 0,0.01 0.01,0.01 0,0.01 0,0 0,0.01 0,0 0,0.01 0,0.01 0,0 0,0.01 0,0 0.01,0.01 0,0.01 0,0.01 0,0.01 0,0.01 0,0.01 0,0 0,0.01 c 0,0.18 -0.14,0.27 -0.29,0.27 -0.1,0 -0.26,-0.06 -0.35,-0.21 -0.02,-0.05 -0.1,-0.36 -0.14,-0.54 -0.07,-0.26 -0.14,-0.52 -0.2,-0.79 l -0.45,-1.79 c -0.03,-0.15 -0.46,-0.85 -1.12,-0.85 -0.51,0 -0.62,0.44 -0.62,0.81 0,0.46 0.17,1.07 0.51,1.95 0.16,0.4 0.2,0.51 0.2,0.71 0,0.45 -0.32,0.82 -0.82,0.82 -0.94,0 -1.31,-1.44 -1.31,-1.53 0,-0.1 0.1,-0.1 0.12,-0.1 0.1,0 0.11,0.02 0.16,0.18 0.27,0.93 0.67,1.23 1,1.23 0.08,0 0.25,0 0.25,-0.32 0,-0.25 -0.1,-0.51 -0.17,-0.7 -0.39,-1.05 -0.57,-1.62 -0.57,-2.08 0,-0.89 0.62,-1.18 1.21,-1.18 0.39,0 0.73,0.16 1.01,0.44 -0.13,-0.51 -0.25,-1 -0.65,-1.53 -0.26,-0.34 -0.64,-0.62 -1.1,-0.62 -0.13,0 -0.58,0.03 -0.75,0.41 0.16,0 0.29,0 0.43,0.12 0.1,0.09 0.19,0.22 0.19,0.41 0,0.31 -0.26,0.35 -0.36,0.35 -0.23,0 -0.56,-0.16 -0.56,-0.65 0,-0.49 0.44,-0.86 1.05,-0.86 1.03,0 2.05,0.9 2.33,2.02 z"
   inkscape:connector-curvature="0"
   style="fill:#000000;stroke-width:0" />
<path
   id="path3669"
   d="m 231.32,708.25 -0.02,-0.01 -0.01,0 -0.02,-0.01 -0.02,0 -0.01,-0.01 -0.02,-0.01 -0.01,-0.01 -0.01,0 -0.02,-0.01 -0.01,-0.01 -0.01,-0.01 -0.01,-0.01 -0.01,-0.01 -0.02,-0.01 -0.01,-0.01 -0.01,-0.01 0,-0.01 -0.01,-0.01 -0.01,-0.02 -0.01,-0.01 -0.01,-0.01 0,-0.01 -0.01,-0.01 0,-0.02 -0.01,-0.01 0,-0.01 -0.01,-0.02 0,-0.01 0,-0.01 0,-0.01 0,-0.02 0,-0.01 c 0,-0.16 0.13,-0.22 0.23,-0.22 0.07,0 0.33,0.04 0.33,0.39 0,0.45 -0.5,0.61 -0.93,0.61 -1.08,0 -1.28,-0.8 -1.28,-1.02 0,-0.26 0.15,-0.42 0.25,-0.51 0.18,-0.13 0.3,-0.16 0.78,-0.25 0.15,-0.02 0.6,-0.11 0.6,-0.45 0,-0.12 -0.08,-0.39 -0.37,-0.56 -0.27,-0.15 -0.62,-0.15 -0.7,-0.15 -0.28,0 -0.68,0.06 -0.84,0.29 0.23,0.03 0.39,0.2 0.39,0.4 0,0.17 -0.13,0.25 -0.28,0.25 -0.2,0 -0.4,-0.16 -0.4,-0.46 0,-0.42 0.45,-0.68 1.12,-0.68 1.28,0 1.52,0.88 1.52,1.15 0,0.64 -0.7,0.76 -0.96,0.81 -0.06,0.02 -0.24,0.04 -0.28,0.06 -0.26,0.05 -0.38,0.19 -0.38,0.35 0,0.16 0.12,0.34 0.28,0.44 0.18,0.12 0.43,0.13 0.55,0.13 0.14,0 0.5,-0.02 0.66,-0.25 z"
   inkscape:connector-curvature="0"
   style="fill:#000000;stroke-width:0" />
<path
   id="path3671"
   d="m 235.02,706.76 0,-0.02 0,-0.01 -0.01,-0.01 0,-0.02 -0.01,-0.02 0,-0.01 -0.01,-0.03 -0.01,-0.04 0,-0.03 -0.01,-0.04 -0.01,-0.01 0,-0.02 0,-0.01 -0.01,-0.02 0,-0.01 -0.01,-0.02 0,-0.01 0,-0.01 -0.01,-0.01 0,-0.02 0,-0.01 -0.01,0 0,-0.01 0,-0.01 0,0 0,0 0,-0.01 0,0 -0.01,0 0,0 0,0 0,0 c -0.13,-0.22 -0.41,-0.59 -0.84,-0.59 -0.48,0 -0.48,0.45 -0.48,0.57 0,0.41 0.19,0.91 0.39,1.41 0.05,0.14 0.1,0.25 0.1,0.36 0,0.36 -0.31,0.6 -0.67,0.6 -0.69,0 -1.01,-0.96 -1.01,-1.07 0,-0.09 0.1,-0.09 0.12,-0.09 0.1,0 0.11,0.04 0.13,0.11 0.17,0.57 0.47,0.85 0.74,0.85 0.12,0 0.18,-0.07 0.18,-0.24 0,-0.16 -0.06,-0.31 -0.13,-0.47 -0.37,-0.96 -0.37,-1.16 -0.37,-1.34 0,-0.12 0,-0.44 0.25,-0.67 0.21,-0.16 0.48,-0.22 0.72,-0.22 0.44,0 0.68,0.24 0.91,0.46 0.15,-0.44 0.62,-0.46 0.7,-0.46 0.24,0 0.42,0.14 0.55,0.37 0.15,0.27 0.25,0.67 0.25,0.7 0,0.09 -0.1,0.09 -0.12,0.09 -0.09,0 -0.1,-0.03 -0.15,-0.22 -0.08,-0.33 -0.22,-0.74 -0.51,-0.74 -0.18,0 -0.23,0.16 -0.23,0.34 0,0.12 0.06,0.37 0.11,0.55 0.04,0.18 0.11,0.47 0.15,0.62 l 0.16,0.62 c 0.04,0.18 0.12,0.48 0.12,0.52 0,0.13 -0.11,0.22 -0.23,0.22 -0.26,0 -0.31,-0.2 -0.37,-0.43 z"
   inkscape:connector-curvature="0"
   style="fill:#000000;stroke-width:0" />
<path
   id="path3673"
   d="m 237.31,704.78 0,-0.01 -0.01,-0.02 0,-0.02 -0.01,-0.01 0,-0.02 -0.01,-0.01 0,-0.02 0,-0.01 -0.01,-0.01 0,-0.01 -0.01,-0.01 -0.01,-0.01 0,-0.01 -0.01,-0.01 -0.01,-0.01 0,-0.01 -0.01,0 -0.01,-0.01 -0.01,0 -0.01,-0.01 -0.02,0 -0.01,-0.01 -0.01,0 -0.02,-0.01 -0.01,0 -0.01,0 -0.01,0 -0.01,0 -0.01,0 -0.01,0 -0.01,-0.01 -0.01,0 -0.01,0 -0.01,0 -0.01,0 -0.01,0 -0.02,0 -0.01,0 -0.01,0 c -0.09,0 -0.19,0 -0.19,-0.14 0,-0.08 0.06,-0.11 0.1,-0.11 0.18,0 0.41,0.03 0.6,0.03 0.23,0 0.5,-0.03 0.73,-0.03 0.06,0 0.14,0.02 0.14,0.15 0,0.1 -0.1,0.1 -0.18,0.1 -0.16,0 -0.35,0 -0.35,0.09 0,0.03 0.05,0.21 0.08,0.32 0.09,0.36 0.18,0.74 0.26,1.03 0.08,-0.14 0.3,-0.41 0.72,-0.41 v 0.2 c -0.5,0 -0.62,0.53 -0.62,0.6 0,0.03 0.01,0.08 0.02,0.11 l 0.35,1.39 c 0.4,0.54 0.75,0.64 0.97,0.64 0.27,0 0.51,-0.2 0.51,-0.67 0,-0.29 -0.15,-1 -0.36,-1.4 -0.18,-0.34 -0.52,-0.67 -0.87,-0.67 v -0.2 c 0.85,0 1.79,0.94 1.79,1.98 0,0.81 -0.57,1.16 -1.05,1.16 -0.43,0 -0.8,-0.29 -0.99,-0.49 -0.12,0.4 -0.5,0.49 -0.71,0.49 -0.28,0 -0.44,-0.18 -0.55,-0.37 -0.14,-0.24 -0.25,-0.66 -0.25,-0.7 0,-0.09 0.09,-0.09 0.11,-0.09 0.1,0 0.11,0.02 0.16,0.21 0.1,0.41 0.23,0.75 0.51,0.75 0.18,0 0.23,-0.15 0.23,-0.34 0,-0.07 -0.02,-0.17 -0.03,-0.21 z"
   inkscape:connector-curvature="0"
   style="fill:#000000;stroke-width:0" />
</g>    <g
       id="g3819"
       transform="matrix(1.25,0,0,-1.25,1.1585212,1887.2556)"
       xml:space="preserve"
       stroke-miterlimit="10.433"
       font-style="normal"
       font-variant="normal"
       font-weight="normal"
       font-stretch="normal"
       font-size-adjust="none"
       letter-spacing="normal"
       word-spacing="normal"
       ns0:text="$q$"
       ns0:preamble="D:\\Onderwijs\\FLUI\\Cursus\\FLUI_theorie\\tex\\commands.tex"
       style="font-style:normal;font-variant:normal;font-weight:normal;font-stretch:normal;letter-spacing:normal;word-spacing:normal;text-anchor:start;fill:none;stroke:#000000;stroke-linecap:butt;stroke-linejoin:miter;stroke-miterlimit:10.43299961;stroke-opacity:1;stroke-dasharray:none;stroke-dashoffset:0">
<path
   style="fill:#000000;stroke-width:0"
   inkscape:connector-curvature="0"
   d="m 227.93,711.41 0,0 0,0 0,0.01 0,0 0,0.01 0,0 -0.01,0 0,0.01 0,0 0,0.01 0,0 0,0.01 -0.01,0 0,0 0,0.01 0,0 -0.01,0 0,0.01 0,0 -0.01,0 0,0.01 -0.01,0 0,0 -0.01,0.01 0,0 -0.01,0 0,0 -0.01,0 0,0 -0.01,0.01 0,0 -0.01,0 c -0.11,0 -0.51,-0.4 -0.68,-0.69 -0.22,0.54 -0.6,0.7 -0.92,0.7 v -0.22 c 0.64,0 0.78,-0.81 0.78,-0.88 0,-0.06 -0.54,-2.23 -0.57,-2.27 -0.15,-0.28 -0.71,-0.92 -1.27,-0.92 h 0 c -0.59,0 -0.63,0.77 -0.63,0.94 0,0.48 0.28,1.56 0.45,1.98 0.31,0.73 0.83,1.15 1.24,1.15 v 0.22 c -1.18,0 -2.4,-1.47 -2.4,-2.92 0,-0.97 0.59,-1.58 1.31,-1.58 0.43,0 0.82,0.23 1.18,0.59 -0.09,-0.35 -0.42,-1.69 -0.45,-1.78 -0.08,-0.28 -0.16,-0.31 -0.72,-0.32 -0.13,0 -0.23,0 -0.23,-0.2 0,-0.01 0,-0.11 0.13,-0.11 0.32,0 0.67,0.03 1,0.03 0.34,0 0.69,-0.03 1.02,-0.03 0.05,0 0.18,0 0.18,0.2 0,0.11 -0.1,0.11 -0.26,0.11 -0.47,0 -0.47,0.07 -0.47,0.15 0,0.07 0.02,0.13 0.04,0.22 z"
   id="path3821" />
</g>    <g
       style="font-style:normal;font-variant:normal;font-weight:normal;font-stretch:normal;letter-spacing:normal;word-spacing:normal;text-anchor:start;fill:none;stroke:#000000;stroke-linecap:butt;stroke-linejoin:miter;stroke-miterlimit:10.43299961;stroke-opacity:1;stroke-dasharray:none;stroke-dashoffset:0"
       ns0:preamble="D:\\Onderwijs\\FLUI\\Cursus\\FLUI_theorie\\tex\\commands.tex"
       ns0:text="$E\'$"
       word-spacing="normal"
       letter-spacing="normal"
       font-size-adjust="none"
       font-stretch="normal"
       font-weight="normal"
       font-variant="normal"
       font-style="normal"
       stroke-miterlimit="10.433"
       xml:space="preserve"
       transform="matrix(1.25,0,0,-1.25,-140.12441,1924.6312)"
       id="g3961">
<path
   id="path3963"
   d="m 230.48,709.44 0,0 0,0.01 0,0.01 0.01,0.01 0,0.01 0.01,0.01 0,0.01 0,0.01 0.01,0.01 0,0.01 0,0 0,0 0.01,0.01 0,0 0,0.01 0,0 0,0.01 0,0 0,0 0,0.01 0,0 0.01,0 0,0 0,0.01 0,0 c 0,0.01 0,0.11 -0.12,0.11 -0.09,0 -0.11,-0.06 -0.13,-0.12 -0.65,-1.47 -1.02,-2.14 -2.72,-2.14 h -1.45 c -0.14,0 -0.16,0 -0.22,0.01 -0.1,0.01 -0.13,0.02 -0.13,0.1 0,0.03 0,0.05 0.05,0.23 l 0.68,2.71 h 0.98 c 0.85,0 0.85,-0.21 0.85,-0.45 0,-0.07 0,-0.19 -0.07,-0.49 -0.02,-0.05 -0.03,-0.08 -0.03,-0.11 0,-0.05 0.04,-0.11 0.13,-0.11 0.08,0 0.11,0.05 0.15,0.2 l 0.56,2.32 c 0,0.06 -0.05,0.11 -0.12,0.11 -0.09,0 -0.11,-0.06 -0.14,-0.18 -0.2,-0.75 -0.38,-0.98 -1.3,-0.98 h -0.93 l 0.59,2.39 c 0.09,0.35 0.1,0.39 0.54,0.39 h 1.4 c 1.22,0 1.52,-0.29 1.52,-1.1 0,-0.24 0,-0.26 -0.04,-0.53 0,-0.06 -0.01,-0.13 -0.01,-0.18 0,-0.05 0.03,-0.11 0.11,-0.11 0.11,0 0.12,0.06 0.14,0.24 l 0.2,1.72 c 0.03,0.27 -0.02,0.27 -0.26,0.27 h -5.03 c -0.2,0 -0.3,0 -0.3,-0.2 0,-0.11 0.09,-0.11 0.28,-0.11 0.37,0 0.65,0 0.65,-0.18 0,-0.04 0,-0.06 -0.05,-0.23 l -1.32,-5.26 c -0.09,-0.39 -0.11,-0.47 -0.9,-0.47 -0.17,0 -0.28,0 -0.28,-0.19 0,-0.11 0.09,-0.11 0.28,-0.11 h 5.16 c 0.23,0 0.24,0.01 0.31,0.16 z"
   inkscape:connector-curvature="0"
   style="fill:#000000;stroke-width:0" />
<path
   id="path3965"
   d="m 233.38,714.02 0.01,0.01 0,0.01 0.01,0.01 0,0.01 0,0.01 0.01,0.01 0,0.01 0,0.01 0.01,0.01 0,0.01 0,0 0,0.01 0.01,0.01 0,0.01 0,0 0,0.01 0,0.01 0.01,0 0,0.01 0,0 0,0.01 0,0.01 0,0 0,0.01 0,0.01 0,0.01 0,0.01 0,0 c 0,0.22 -0.19,0.39 -0.41,0.39 -0.26,0 -0.35,-0.22 -0.38,-0.33 l -0.92,-3.01 c -0.01,-0.01 -0.03,-0.11 -0.03,-0.11 0,-0.09 0.21,-0.15 0.27,-0.15 0.05,0 0.05,0.01 0.1,0.11 z"
   inkscape:connector-curvature="0"
   style="fill:#000000;stroke-width:0" />
</g>    <path
       id="path4113"
       d="m 189.23947,1037.8312 0,0 0,-0.013 0,-0.013 0.0125,-0.013 0,-0.013 0.0125,-0.012 0,-0.013 0,-0.013 0.0125,-0.013 0,-0.013 0,0 0,0 0.0125,-0.012 0,0 0,-0.013 0,0 0,-0.013 0,0 0,0 0,-0.013 0,0 0.0125,0 0,0 0,-0.013 0,0 c 0,-0.012 0,-0.1375 -0.15,-0.1375 -0.1125,0 -0.1375,0.075 -0.1625,0.15 -0.8125,1.8375 -1.275,2.675 -3.4,2.675 h -1.8125 c -0.175,0 -0.2,0 -0.275,-0.012 -0.125,-0.013 -0.1625,-0.025 -0.1625,-0.125 0,-0.038 0,-0.062 0.0625,-0.2875 l 0.85,-3.3875 h 1.225 c 1.0625,0 1.0625,0.2625 1.0625,0.5625 0,0.088 0,0.2375 -0.0875,0.6125 -0.025,0.062 -0.0375,0.1 -0.0375,0.1375 0,0.062 0.05,0.1375 0.1625,0.1375 0.1,0 0.1375,-0.062 0.1875,-0.25 l 0.7,-2.9 c 0,-0.075 -0.0625,-0.1375 -0.15,-0.1375 -0.1125,0 -0.1375,0.075 -0.175,0.225 -0.25,0.9375 -0.475,1.225 -1.625,1.225 h -1.1625 l 0.7375,-2.9875 c 0.1125,-0.4375 0.125,-0.4875 0.675,-0.4875 h 1.75 c 1.525,0 1.9,0.3625 1.9,1.375 0,0.3 0,0.325 -0.05,0.6625 0,0.075 -0.0125,0.1625 -0.0125,0.225 0,0.062 0.0375,0.1375 0.1375,0.1375 0.1375,0 0.15,-0.075 0.175,-0.3 l 0.25,-2.15 c 0.0375,-0.3375 -0.025,-0.3375 -0.325,-0.3375 h -6.2875 c -0.25,0 -0.375,0 -0.375,0.25 0,0.1375 0.1125,0.1375 0.35,0.1375 0.4625,0 0.8125,0 0.8125,0.225 0,0.05 0,0.075 -0.0625,0.2875 l -1.65,6.575 c -0.1125,0.4875 -0.1375,0.5875 -1.125,0.5875 -0.2125,0 -0.35,0 -0.35,0.2375 0,0.1375 0.1125,0.1375 0.35,0.1375 h 6.45 c 0.2875,0 0.3,-0.012 0.3875,-0.2 z"
       inkscape:connector-curvature="0"
       style="font-style:normal;font-variant:normal;font-weight:normal;font-stretch:normal;letter-spacing:normal;word-spacing:normal;text-anchor:start;fill:#000000;fill-opacity:1;fill-rule:evenodd;stroke:#000000;stroke-width:0;stroke-linecap:butt;stroke-linejoin:miter;stroke-miterlimit:10.43299961;stroke-opacity:1;stroke-dasharray:none;stroke-dashoffset:0" />
    <g
       id="g4450"
       transform="matrix(1.25,0,0,-1.25,-273.53329,1725.5172)"
       xml:space="preserve"
       stroke-miterlimit="10.433"
       font-style="normal"
       font-variant="normal"
       font-weight="normal"
       font-stretch="normal"
       font-size-adjust="none"
       letter-spacing="normal"
       word-spacing="normal"
       ns0:text="$y$"
       ns0:preamble="D:\\Onderwijs\\FLUI\\Cursus\\FLUI_theorie\\tex\\commands.tex"
       style="font-style:normal;font-variant:normal;font-weight:normal;font-stretch:normal;letter-spacing:normal;word-spacing:normal;text-anchor:start;fill:none;stroke:#000000;stroke-linecap:butt;stroke-linejoin:miter;stroke-miterlimit:10.43299961;stroke-opacity:1;stroke-dasharray:none;stroke-dashoffset:0">
<path
   style="fill:#000000;stroke-width:0"
   inkscape:connector-curvature="0"
   d="m 228.27,710.91 0,0.01 0,0 0,0.01 0,0 0.01,0.02 0,0.01 0,0.01 0.01,0.01 0,0.01 0,0 0,0.01 0,0.01 0.01,0.01 0,0.01 0,0 0,0.01 0,0 0,0.01 0,0.01 0,0 0,0.01 0,0 0.01,0.01 0,0.01 0,0.01 0,0.01 0,0.01 0,0.01 0,0 0,0.01 c 0,0.18 -0.14,0.27 -0.29,0.27 -0.1,0 -0.26,-0.06 -0.35,-0.21 -0.02,-0.05 -0.1,-0.36 -0.14,-0.54 -0.07,-0.26 -0.14,-0.52 -0.2,-0.79 l -0.45,-1.79 c -0.03,-0.15 -0.46,-0.85 -1.12,-0.85 -0.51,0 -0.62,0.44 -0.62,0.81 0,0.46 0.17,1.07 0.51,1.95 0.16,0.4 0.2,0.51 0.2,0.71 0,0.45 -0.32,0.82 -0.82,0.82 -0.94,0 -1.31,-1.44 -1.31,-1.53 0,-0.1 0.1,-0.1 0.12,-0.1 0.1,0 0.11,0.02 0.16,0.18 0.27,0.93 0.67,1.23 1,1.23 0.08,0 0.25,0 0.25,-0.32 0,-0.25 -0.1,-0.51 -0.17,-0.7 -0.39,-1.05 -0.57,-1.62 -0.57,-2.08 0,-0.89 0.62,-1.18 1.21,-1.18 0.39,0 0.73,0.16 1.01,0.44 -0.13,-0.51 -0.25,-1 -0.65,-1.53 -0.26,-0.34 -0.64,-0.62 -1.1,-0.62 -0.13,0 -0.58,0.03 -0.75,0.41 0.16,0 0.29,0 0.43,0.12 0.1,0.09 0.19,0.22 0.19,0.41 0,0.31 -0.26,0.35 -0.36,0.35 -0.23,0 -0.56,-0.16 -0.56,-0.65 0,-0.49 0.44,-0.86 1.05,-0.86 1.03,0 2.05,0.9 2.33,2.02 z"
   id="path4452" />
</g>    <g
       style="font-style:normal;font-variant:normal;font-weight:normal;font-stretch:normal;letter-spacing:normal;word-spacing:normal;text-anchor:start;fill:none;stroke:#000000;stroke-linecap:butt;stroke-linejoin:miter;stroke-miterlimit:10.43299961;stroke-opacity:1;stroke-dasharray:none;stroke-dashoffset:0"
       ns0:preamble="D:\\Onderwijs\\FLUI\\Cursus\\FLUI_theorie\\tex\\commands.tex"
       ns0:text="$E = y + \\frac{q^2}{2gy^2}$"
       word-spacing="normal"
       letter-spacing="normal"
       font-size-adjust="none"
       font-stretch="normal"
       font-weight="normal"
       font-variant="normal"
       font-style="normal"
       stroke-miterlimit="10.433"
       xml:space="preserve"
       transform="matrix(1.25,0,0,-1.25,-22.311772,1927.6587)"
       id="g3082">
<path
   style="fill:#000000;stroke-width:0"
   inkscape:connector-curvature="0"
   id="path3084"
   d="m 230.48,708.74 0,0.01 0,0 0,0.01 0.01,0.01 0,0.01 0.01,0.01 0,0.01 0,0.01 0.01,0.01 0,0.01 0,0 0,0.01 0.01,0 0,0.01 0,0 0,0 0,0.01 0,0 0,0 0,0.01 0,0 0.01,0 0,0.01 0,0 0,0 c 0,0.01 0,0.11 -0.12,0.11 -0.09,0 -0.11,-0.06 -0.13,-0.12 -0.65,-1.47 -1.02,-2.14 -2.72,-2.14 h -1.45 c -0.14,0 -0.16,0 -0.22,0.01 -0.1,0.02 -0.13,0.03 -0.13,0.1 0,0.03 0,0.05 0.05,0.23 l 0.68,2.71 h 0.98 c 0.85,0 0.85,-0.2 0.85,-0.45 0,-0.07 0,-0.19 -0.07,-0.49 -0.02,-0.05 -0.03,-0.08 -0.03,-0.11 0,-0.05 0.04,-0.11 0.13,-0.11 0.08,0 0.11,0.05 0.15,0.2 l 0.56,2.33 c 0,0.06 -0.05,0.11 -0.12,0.11 -0.09,0 -0.11,-0.06 -0.14,-0.18 -0.2,-0.76 -0.38,-0.99 -1.3,-0.99 h -0.93 l 0.59,2.4 c 0.09,0.34 0.1,0.38 0.54,0.38 h 1.4 c 1.22,0 1.52,-0.28 1.52,-1.1 0,-0.24 0,-0.26 -0.04,-0.53 0,-0.06 -0.01,-0.12 -0.01,-0.17 0,-0.05 0.03,-0.12 0.11,-0.12 0.11,0 0.12,0.06 0.14,0.25 l 0.2,1.71 c 0.03,0.27 -0.02,0.27 -0.26,0.27 h -5.03 c -0.2,0 -0.3,0 -0.3,-0.2 0,-0.11 0.09,-0.11 0.28,-0.11 0.37,0 0.65,0 0.65,-0.17 0,-0.04 0,-0.06 -0.05,-0.24 l -1.32,-5.26 c -0.09,-0.39 -0.11,-0.47 -0.9,-0.47 -0.17,0 -0.28,0 -0.28,-0.18 0,-0.12 0.09,-0.12 0.28,-0.12 h 5.16 c 0.23,0 0.24,0.01 0.31,0.17 z" />
<path
   style="fill:#000000;stroke-width:0"
   inkscape:connector-curvature="0"
   id="path3086"
   d="m 240.96,709.67 0.03,0.01 0.03,0 0.03,0 0.01,0 0.02,0 0.01,0 0.02,0 0.01,0 0.02,0.01 0.01,0 0.01,0 0.02,0.01 0.01,0 0.01,0 0.01,0.01 0.01,0.01 0.01,0 0.01,0.01 0.01,0.01 0.01,0.01 0.01,0.01 0,0 0.01,0.01 0,0.01 0,0 0.01,0.01 0,0 0,0.01 0,0.01 0,0.01 0.01,0 0,0.01 0,0.01 0,0.01 0,0.01 0,0 0,0.01 c 0,0.2 -0.19,0.2 -0.33,0.2 h -5.96 c -0.14,0 -0.33,0 -0.33,-0.2 0,-0.2 0.19,-0.2 0.34,-0.2 z" />
<path
   style="fill:#000000;stroke-width:0"
   inkscape:connector-curvature="0"
   id="path3088"
   d="m 240.97,707.75 0.02,0 0.01,0 0.03,0 0.02,0 0.02,0 0.01,0 0.02,0 0.01,0 0.01,0.01 0.02,0 0.01,0 0.01,0 0.02,0.01 0.01,0 0.01,0.01 0.01,0 0.01,0.01 0.01,0.01 0.01,0 0.01,0.01 0.01,0.01 0.01,0.01 0,0 0,0.01 0.01,0 0,0.01 0,0 0.01,0.01 0,0.01 0,0 0,0.01 0,0.01 0.01,0.01 0,0 0,0.01 0,0.01 0,0.01 0,0.01 0,0.01 c 0,0.2 -0.19,0.2 -0.34,0.2 h -5.94 c -0.15,0 -0.34,0 -0.34,-0.2 0,-0.2 0.19,-0.2 0.33,-0.2 z" />
<path
   style="fill:#000000;stroke-width:0"
   inkscape:connector-curvature="0"
   id="path3090"
   d="m 249.48,710.21 0,0.01 0,0 0,0.01 0.01,0.01 0,0.01 0,0.01 0,0.01 0.01,0.01 0,0.01 0,0.01 0,0 0.01,0.01 0,0.01 0,0.01 0,0 0,0.01 0,0.01 0,0 0,0.01 0.01,0 0,0.01 0,0 0,0.01 0,0.01 0,0.02 0,0.01 0,0 0,0.01 0,0 0,0.01 c 0,0.18 -0.14,0.27 -0.29,0.27 -0.1,0 -0.26,-0.06 -0.35,-0.21 -0.02,-0.05 -0.1,-0.36 -0.14,-0.54 -0.07,-0.25 -0.14,-0.52 -0.2,-0.79 l -0.44,-1.79 c -0.04,-0.15 -0.47,-0.84 -1.13,-0.84 -0.51,0 -0.62,0.43 -0.62,0.8 0,0.46 0.17,1.07 0.51,1.95 0.16,0.41 0.2,0.51 0.2,0.71 0,0.45 -0.32,0.82 -0.81,0.82 -0.95,0 -1.32,-1.44 -1.32,-1.53 0,-0.1 0.1,-0.1 0.12,-0.1 0.1,0 0.11,0.02 0.16,0.18 0.27,0.93 0.67,1.23 1.01,1.23 0.08,0 0.24,0 0.24,-0.32 0,-0.25 -0.09,-0.5 -0.16,-0.69 -0.4,-1.06 -0.58,-1.62 -0.58,-2.09 0,-0.88 0.63,-1.18 1.21,-1.18 0.39,0 0.73,0.17 1.01,0.45 -0.13,-0.52 -0.25,-1.01 -0.65,-1.54 -0.26,-0.33 -0.64,-0.62 -1.09,-0.62 -0.14,0 -0.59,0.03 -0.76,0.42 0.16,0 0.29,0 0.43,0.12 0.1,0.08 0.2,0.21 0.2,0.4 0,0.31 -0.27,0.35 -0.37,0.35 -0.23,0 -0.56,-0.16 -0.56,-0.64 0,-0.5 0.44,-0.87 1.06,-0.87 1.02,0 2.05,0.9 2.32,2.03 z" />
<path
   style="fill:#000000;stroke-width:0"
   inkscape:connector-curvature="0"
   id="path3092"
   d="m 256.17,708.71 h 2.78 c 0.13,0 0.32,0 0.32,0.2 0,0.2 -0.19,0.2 -0.32,0.2 h -2.78 v 2.78 c 0,0.14 0,0.33 -0.2,0.33 -0.2,0 -0.2,-0.19 -0.2,-0.33 v -2.78 h -2.78 c -0.14,0 -0.33,0 -0.33,-0.2 0,-0.2 0.19,-0.2 0.33,-0.2 h 2.78 v -2.78 c 0,-0.14 0,-0.33 0.2,-0.33 0.2,0 0.2,0.19 0.2,0.33 z" />
<path
   style="fill:#000000;stroke-width:0"
   inkscape:connector-curvature="0"
   id="path3094"
   d="m 271.05,713.74 0,0 0,0.01 0.01,0 0,0.01 0,0.01 0,0 0,0.01 0,0.01 0,0 0,0.01 0,0.01 0,0 0.01,0.01 0,0.01 0,0 0,0.01 c 0,0.04 -0.03,0.1 -0.09,0.1 -0.07,0 -0.37,-0.24 -0.51,-0.46 -0.07,0.14 -0.3,0.46 -0.74,0.46 v -0.2 c 0.49,0 0.62,-0.53 0.62,-0.6 0,-0.04 -0.02,-0.08 -0.02,-0.11 L 270,711.75 c -0.04,-0.12 -0.04,-0.14 -0.12,-0.25 -0.28,-0.32 -0.6,-0.5 -0.88,-0.5 -0.25,0 -0.5,0.18 -0.5,0.67 0,0.37 0.2,1.13 0.36,1.41 0.32,0.56 0.67,0.66 0.87,0.66 v 0.2 c -0.89,0 -1.8,-0.98 -1.8,-1.98 0,-0.68 0.46,-1.16 1.05,-1.16 0.4,0 0.73,0.25 0.88,0.38 -0.01,-0.02 -0.22,-0.89 -0.25,-1.01 -0.1,-0.38 -0.1,-0.39 -0.54,-0.4 -0.08,0 -0.18,0 -0.18,-0.15 0,-0.04 0.04,-0.1 0.11,-0.1 0.23,0 0.48,0.03 0.72,0.03 0.24,0 0.53,-0.03 0.75,-0.03 0.06,0 0.14,0.02 0.14,0.15 0,0.1 -0.1,0.1 -0.19,0.1 -0.15,0 -0.34,0 -0.34,0.09 0,0.02 0,0.03 0.04,0.15 z" />
<path
   style="fill:#000000;stroke-width:0"
   inkscape:connector-curvature="0"
   id="path3096"
   d="m 274.34,714.84 h -0.21 c -0.02,-0.1 -0.07,-0.41 -0.15,-0.45 -0.03,-0.04 -0.45,-0.04 -0.53,-0.04 h -0.97 c 0.33,0.25 0.69,0.53 0.99,0.73 0.45,0.3 0.87,0.59 0.87,1.12 0,0.63 -0.6,0.99 -1.32,0.99 -0.67,0 -1.16,-0.39 -1.16,-0.88 0,-0.26 0.22,-0.3 0.29,-0.3 0.13,0 0.29,0.09 0.29,0.29 0,0.18 -0.13,0.28 -0.28,0.29 0.14,0.23 0.43,0.38 0.76,0.38 0.48,0 0.89,-0.29 0.89,-0.78 0,-0.41 -0.29,-0.73 -0.68,-1.05 l -1.21,-1.03 c -0.05,-0.05 -0.05,-0.05 -0.06,-0.08 v -0.15 h 2.31 z" />
<line
   style="stroke-width:0.398"
   id="line3098"
   y2="708.91998"
   x2="279.54999"
   y1="708.91998"
   x1="263.26001" />
<path
   style="fill:#000000;stroke-width:0"
   inkscape:connector-curvature="0"
   id="path3100"
   d="m 266.77,704.26 h -0.23 c -0.02,-0.16 -0.09,-0.57 -0.18,-0.64 -0.06,-0.04 -0.59,-0.04 -0.69,-0.04 h -1.28 c 0.73,0.65 0.97,0.84 1.39,1.17 0.51,0.41 0.99,0.84 0.99,1.5 0,0.84 -0.73,1.36 -1.63,1.36 -0.86,0 -1.44,-0.61 -1.44,-1.25 0,-0.35 0.3,-0.39 0.37,-0.39 0.16,0 0.36,0.12 0.36,0.37 0,0.13 -0.04,0.37 -0.41,0.37 0.22,0.5 0.69,0.65 1.02,0.65 0.7,0 1.06,-0.54 1.06,-1.11 0,-0.6 -0.43,-1.08 -0.65,-1.33 l -1.68,-1.66 c -0.07,-0.06 -0.07,-0.07 -0.07,-0.27 h 2.87 z" />
<path
   style="fill:#000000;stroke-width:0"
   inkscape:connector-curvature="0"
   id="path3102"
   d="m 270.93,705.56 0.01,0.01 0,0.01 0,0 0,0.01 0.01,0.01 0,0.01 0,0.01 0,0 0,0.01 0,0.01 0,0 0.01,0.01 0,0 0,0.01 0,0 0,0.01 0,0 0,0 0,0.01 0,0 0,0 0,0.01 0,0 0,0 0,0 0,0.01 0,0 0,0 0,0 0,0 0,0 0,0 c 0,0.16 -0.12,0.23 -0.23,0.23 -0.16,0 -0.3,-0.14 -0.33,-0.27 -0.11,0.19 -0.35,0.4 -0.71,0.4 v -0.2 c 0.48,0 0.62,-0.52 0.62,-0.59 0,-0.01 0,-0.03 -0.02,-0.1 l -0.32,-1.25 c -0.02,-0.11 -0.02,-0.12 -0.14,-0.26 -0.25,-0.29 -0.58,-0.47 -0.85,-0.47 -0.35,0 -0.52,0.29 -0.52,0.66 0,0.3 0.19,1.08 0.37,1.39 0.29,0.48 0.62,0.62 0.86,0.62 v 0.2 c -0.87,0 -1.79,-0.93 -1.79,-1.93 0,-0.72 0.49,-1.14 1.06,-1.14 0.32,0 0.63,0.16 0.87,0.38 l -0.15,-0.63 c -0.08,-0.29 -0.13,-0.48 -0.39,-0.72 -0.31,-0.25 -0.61,-0.25 -0.78,-0.25 -0.32,0 -0.41,0.02 -0.54,0.05 0.18,0.08 0.23,0.25 0.23,0.34 0,0.17 -0.13,0.26 -0.28,0.26 -0.19,0 -0.39,-0.16 -0.39,-0.42 0,-0.42 0.6,-0.43 0.99,-0.43 1.09,0 1.56,0.56 1.65,0.96 z" />
<path
   style="fill:#000000;stroke-width:0"
   inkscape:connector-curvature="0"
   id="path3104"
   d="m 275.24,705.61 0,0.01 0,0 0,0.01 0,0 0.01,0 0,0.01 0,0.01 0,0 0,0.01 0,0.01 0.01,0 0,0.01 0,0 0,0.01 0,0 0,0.01 0,0 0,0.01 0,0 0,0 0,0.01 0.01,0 0,0 0,0.01 0,0.01 0,0 0,0.01 0,0 0,0.01 0,0 0,0.01 c 0,0.14 -0.12,0.22 -0.23,0.22 -0.08,0 -0.21,-0.04 -0.29,-0.17 -0.02,-0.04 -0.08,-0.26 -0.11,-0.4 l -0.15,-0.58 c -0.04,-0.17 -0.25,-1.04 -0.28,-1.12 0,0 -0.31,-0.6 -0.85,-0.6 -0.47,0 -0.47,0.45 -0.47,0.57 0,0.38 0.16,0.82 0.36,1.35 0.09,0.23 0.12,0.31 0.12,0.43 0,0.33 -0.28,0.59 -0.66,0.59 -0.7,0 -1.02,-0.95 -1.02,-1.07 0,-0.09 0.1,-0.09 0.12,-0.09 0.1,0 0.11,0.04 0.13,0.12 0.17,0.57 0.47,0.84 0.75,0.84 0.12,0 0.17,-0.07 0.17,-0.24 0,-0.16 -0.06,-0.31 -0.09,-0.4 -0.34,-0.85 -0.41,-1.11 -0.41,-1.42 0,-0.11 0,-0.44 0.27,-0.66 0.22,-0.18 0.51,-0.22 0.7,-0.22 0.28,0 0.53,0.11 0.76,0.31 -0.09,-0.38 -0.17,-0.67 -0.46,-1.02 -0.19,-0.21 -0.47,-0.44 -0.84,-0.44 -0.05,0 -0.37,0 -0.52,0.23 0.38,0.04 0.38,0.37 0.38,0.38 0,0.22 -0.2,0.26 -0.27,0.26 -0.18,0 -0.41,-0.14 -0.41,-0.46 0,-0.35 0.34,-0.61 0.83,-0.61 0.71,0 1.56,0.54 1.78,1.41 z" />
<path
   style="fill:#000000;stroke-width:0"
   inkscape:connector-curvature="0"
   id="path3106"
   d="m 278.59,705.94 h -0.21 c -0.02,-0.09 -0.07,-0.4 -0.15,-0.45 -0.04,-0.03 -0.45,-0.03 -0.53,-0.03 h -0.97 c 0.32,0.24 0.69,0.52 0.99,0.72 0.45,0.31 0.87,0.6 0.87,1.12 0,0.64 -0.61,0.99 -1.32,0.99 -0.67,0 -1.16,-0.38 -1.16,-0.87 0,-0.26 0.22,-0.31 0.29,-0.31 0.13,0 0.29,0.09 0.29,0.3 0,0.18 -0.13,0.28 -0.28,0.29 0.14,0.22 0.43,0.37 0.76,0.37 0.48,0 0.88,-0.29 0.88,-0.77 0,-0.42 -0.28,-0.74 -0.67,-1.06 l -1.21,-1.03 c -0.05,-0.04 -0.06,-0.04 -0.06,-0.08 v -0.15 h 2.31 z" />
</g>  </g>
</svg>
