<?xml version="1.0" encoding="UTF-8" standalone="no"?>
<!-- Created with Inkscape (http://www.inkscape.org/) -->

<svg
   xmlns:ns0="http://www.iki.fi/pav/software/textext/"
   xmlns:dc="http://purl.org/dc/elements/1.1/"
   xmlns:cc="http://creativecommons.org/ns#"
   xmlns:rdf="http://www.w3.org/1999/02/22-rdf-syntax-ns#"
   xmlns:svg="http://www.w3.org/2000/svg"
   xmlns="http://www.w3.org/2000/svg"
   xmlns:xlink="http://www.w3.org/1999/xlink"
   xmlns:sodipodi="http://sodipodi.sourceforge.net/DTD/sodipodi-0.dtd"
   xmlns:inkscape="http://www.inkscape.org/namespaces/inkscape"
   sodipodi:docname="diffusiebocht.svg"
   inkscape:version="0.48.2 r9819"
   version="1.1"
   id="svg3041"
   height="157.2933"
   width="137.1808">
  <sodipodi:namedview
     id="base"
     pagecolor="#ffffff"
     bordercolor="#666666"
     borderopacity="1.0"
     inkscape:pageopacity="0.0"
     inkscape:pageshadow="2"
     inkscape:zoom="2.8284273"
     inkscape:cx="0.99626627"
     inkscape:cy="89.350261"
     inkscape:document-units="mm"
     inkscape:current-layer="layer1"
     showgrid="false"
     inkscape:window-width="1280"
     inkscape:window-height="962"
     inkscape:window-x="-8"
     inkscape:window-y="-8"
     inkscape:window-maximized="1"
     units="mm"
     fit-margin-left="0.5"
     fit-margin-top="0.5"
     fit-margin-bottom="0.5"
     fit-margin-right="0.5">
    <inkscape:grid
       type="xygrid"
       id="grid2992"
       empspacing="5"
       visible="true"
       enabled="true"
       snapvisiblegridlinesonly="true"
       units="mm"
       spacingx="1mm"
       spacingy="1mm" />
  </sodipodi:namedview>
  <defs
     id="defs3043">
    <marker
       inkscape:stockid="Arrow1Mend"
       orient="auto"
       refY="0"
       refX="0"
       id="Arrow1Mend"
       style="overflow:visible">
      <path
         inkscape:connector-curvature="0"
         id="path3779"
         d="M 0,0 5,-5 -12.5,0 5,5 0,0 z"
         style="fill-rule:evenodd;stroke:#000000;stroke-width:1pt;marker-start:none"
         transform="matrix(-0.4,0,0,-0.4,-4,0)" />
    </marker>
    <marker
       inkscape:stockid="Arrow1Mstart"
       orient="auto"
       refY="0"
       refX="0"
       id="Arrow1Mstart"
       style="overflow:visible">
      <path
         inkscape:connector-curvature="0"
         id="path3776"
         d="M 0,0 5,-5 -12.5,0 5,5 0,0 z"
         style="fill-rule:evenodd;stroke:#000000;stroke-width:1pt;marker-start:none"
         transform="matrix(0.4,0,0,0.4,4,0)" />
    </marker>
    <linearGradient
       id="linearGradient7587">
      <stop
         id="stop7595"
         offset="0"
         style="stop-color:#6da5d4;stop-opacity:1;" />
      <stop
         style="stop-color:#cae7f9;stop-opacity:1;"
         offset="1"
         id="stop7591" />
    </linearGradient>
    <linearGradient
       inkscape:collect="always"
       xlink:href="#linearGradient7587"
       id="linearGradient7599"
       gradientUnits="userSpaceOnUse"
       spreadMethod="pad"
       x1="134.1395"
       y1="422.83499"
       x2="134.1395"
       y2="318.89761"
       gradientTransform="matrix(0.87500004,0,0,1.8749936,148.37597,383.565)" />
    <linearGradient
       inkscape:collect="always"
       xlink:href="#linearGradient7587"
       id="linearGradient8515"
       gradientUnits="userSpaceOnUse"
       gradientTransform="matrix(1.125,0,0,2.6086951,-24.360232,128.79166)"
       spreadMethod="pad"
       x1="124.01575"
       y1="347.24408"
       x2="124.01575"
       y2="265.74802" />
    <marker
       inkscape:stockid="Arrow1Mstart"
       orient="auto"
       refY="0"
       refX="0"
       id="Arrow1Mstart-1"
       style="overflow:visible">
      <path
         id="path3776-7"
         d="M 0,0 5,-5 -12.5,0 5,5 0,0 z"
         style="fill-rule:evenodd;stroke:#000000;stroke-width:1pt;marker-start:none"
         transform="matrix(0.4,0,0,0.4,4,0)"
         inkscape:connector-curvature="0" />
    </marker>
    <linearGradient
       inkscape:collect="always"
       xlink:href="#linearGradient7587"
       id="linearGradient5567"
       gradientUnits="userSpaceOnUse"
       gradientTransform="matrix(1.125,0,0,1.0869568,-47.569759,368.79759)"
       spreadMethod="pad"
       x1="124.01575"
       y1="347.24408"
       x2="124.01575"
       y2="265.74802" />
    <linearGradient
       inkscape:collect="always"
       xlink:href="#linearGradient7587"
       id="linearGradient5575"
       x1="251.34547"
       y1="947.73126"
       x2="252.05412"
       y2="947.73126"
       gradientUnits="userSpaceOnUse"
       gradientTransform="translate(-23.334524,-215.66757)" />
    <linearGradient
       inkscape:collect="always"
       xlink:href="#linearGradient7587"
       id="linearGradient5583"
       x1="248.36319"
       y1="1029.371"
       x2="248.1998"
       y2="926.37097"
       gradientUnits="userSpaceOnUse"
       gradientTransform="translate(-23.334524,-215.66757)" />
    <linearGradient
       inkscape:collect="always"
       xlink:href="#linearGradient7587"
       id="linearGradient5591"
       x1="318.97934"
       y1="1025.7628"
       x2="319.31595"
       y2="909.01282"
       gradientUnits="userSpaceOnUse"
       gradientTransform="translate(143.54267,-194.45437)" />
    <marker
       style="overflow:visible"
       id="Arrow1Lend"
       refX="0"
       refY="0"
       orient="auto"
       inkscape:stockid="Arrow1Lend">
      <path
         inkscape:connector-curvature="0"
         transform="matrix(-0.8,0,0,-0.8,-10,0)"
         style="fill-rule:evenodd;stroke:#000000;stroke-width:1pt;marker-start:none"
         d="M 0,0 5,-5 -12.5,0 5,5 0,0 z"
         id="path3773" />
    </marker>
  </defs>
  <metadata
     id="metadata3046">
    <rdf:RDF>
      <cc:Work
         rdf:about="">
        <dc:format>image/svg+xml</dc:format>
        <dc:type
           rdf:resource="http://purl.org/dc/dcmitype/StillImage" />
        <dc:title />
      </cc:Work>
    </rdf:RDF>
  </metadata>
  <g
     inkscape:label="Laag 1"
     inkscape:groupmode="layer"
     id="layer1"
     transform="translate(-18.365846,-894.52835)">
    <path
       sodipodi:nodetypes="cssccsscc"
       style="fill:#6fa5d3;fill-opacity:1;stroke:none"
       d="m 41.128791,910.22962 c 0,0 17.716531,0 35.433067,0 88.582682,0 88.582682,127.55898 4e-6,127.55898 -17.716536,0 -35.433071,0 -35.433071,0 l 0,-35.433 c 0,0 17.716535,0 35.433071,0 53.149608,0 53.149608,-70.8661 0,-70.8661 -17.716536,0 -35.433071,0 -35.433071,0 z"
       id="path5597"
       inkscape:connector-curvature="0" />
    <path
       sodipodi:nodetypes="cc"
       inkscape:connector-curvature="0"
       id="path6349"
       d="m 51.758709,920.85954 -28.346452,0"
       style="fill:none;stroke:#000000;stroke-width:0.7086615;stroke-linecap:butt;stroke-linejoin:miter;stroke-miterlimit:4;stroke-opacity:1;stroke-dasharray:none;marker-start:url(#Arrow1Mstart);marker-end:none" />
    <path
       inkscape:connector-curvature="0"
       id="path3036"
       d="m 41.128791,910.22962 c 0,0 17.716535,0 35.433065,0 88.582684,0 88.582684,127.55898 4e-6,127.55898 -17.71653,0 -35.433069,0 -35.433069,0 m 0,-35.433 c 0,0 17.716539,0 35.433069,0 53.14961,0 53.14961,-70.86613 0,-70.86613 -17.71653,0 -35.433069,0 -35.433069,0"
       style="fill:none;stroke:#000000;stroke-width:1.0629921;stroke-linecap:round;stroke-miterlimit:4;stroke-dasharray:none"
       sodipodi:nodetypes="cssccssc" />
    <path
       style="fill:none;stroke:#000000;stroke-width:0.70866144;stroke-linecap:butt;stroke-linejoin:miter;stroke-miterlimit:4;stroke-opacity:1;stroke-dasharray:none;marker-start:url(#Arrow1Mstart);marker-end:none"
       d="m 30.498875,1020.2784 17.71653,0"
       id="path3830"
       inkscape:connector-curvature="0"
       sodipodi:nodetypes="cc" />
    <g
       style="font-style:normal;font-variant:normal;font-weight:normal;font-stretch:normal;letter-spacing:normal;word-spacing:normal;text-anchor:start;fill:none;stroke:#000000;stroke-linecap:butt;stroke-linejoin:miter;stroke-miterlimit:10.43299961;stroke-opacity:1;stroke-dasharray:none;stroke-dashoffset:0"
       ns0:preamble="D:\\Onderwijs\\FLUI\\Cursusmateriaal\\Fluidummechanica\\tex\\packages.tex"
       ns0:text="$A_\\mathrm{in} = 0.2\\unit{m^2}$"
       text-anchor="start"
       word-spacing="normal"
       letter-spacing="normal"
       font-size-adjust="none"
       font-stretch="normal"
       font-weight="normal"
       font-variant="normal"
       font-style="normal"
       fill-opacity="1"
       fill-rule="evenodd"
       fill="none"
       stroke-opacity="1"
       stroke-dashoffset="0"
       stroke-dasharray="none"
       stroke-miterlimit="10.433"
       stroke-linejoin="miter"
       stroke-linecap="butt"
       stroke="black"
       xml:space="preserve"
       transform="matrix(1.25,0,0,-1.25,-196,1504.1218)"
       id="content">
<path
   id="path3081"
   fill="black"
   stroke-width="0"
   d="M225.21,478.38 L225.18,478.32 L225.14,478.26 L225.1,478.2 L225.06,478.15 L225.03,478.1 L224.99,478.06 L224.95,478.01 L224.92,477.97 L224.88,477.93 L224.84,477.89 L224.8,477.86 L224.77,477.83 L224.73,477.8 L224.69,477.77 L224.65,477.75 L224.62,477.72 L224.58,477.7 L224.54,477.68 L224.5,477.66 L224.46,477.64 L224.43,477.63 L224.39,477.62 L224.35,477.6 L224.31,477.59 L224.27,477.58 L224.23,477.57 L224.19,477.57 L224.15,477.56 L224.07,477.55 L223.99,477.54 C223.87,477.53,223.78,477.53,223.78,477.34 C223.78,477.29,223.83,477.23,223.91,477.23 C224.18,477.23,224.49,477.27,224.76,477.27 C225.09,477.27,225.44,477.23,225.76,477.23 C225.82,477.23,225.95,477.23,225.95,477.42 C225.95,477.53,225.86,477.54,225.79,477.54 C225.56,477.56,225.32,477.64,225.32,477.89 C225.32,478.01,225.38,478.12,225.46,478.26 L226.22,479.53 H228.71 L228.68,479.84 H226.41 L228.37,483.12 L228.68,479.84 L228.71,479.53 C228.74,479.32,228.87,477.97,228.87,477.87 C228.87,477.57,228.36,477.54,228.16,477.54 C228.02,477.54,227.92,477.54,227.92,477.34 C227.92,477.23,228.04,477.23,228.06,477.23 C228.47,477.23,228.89,477.27,229.3,477.27 C229.55,477.27,230.18,477.23,230.43,477.23 C230.49,477.23,230.6,477.23,230.6,477.43 C230.6,477.54,230.51,477.54,230.38,477.54 C229.76,477.54,229.76,477.61,229.73,477.9 L229.12,484.11 C229.1,484.31,229.1,484.35,228.93,484.35 C228.77,484.35,228.74,484.28,228.68,484.18 Z " />
<path
   id="path3083"
   fill="black"
   stroke-width="0"
   d="M232.37,480.03 L232.37,480.05 L232.37,480.07 L232.37,480.09 L232.37,480.11 L232.36,480.12 L232.36,480.14 L232.35,480.16 L232.34,480.18 L232.34,480.2 L232.33,480.21 L232.32,480.23 L232.31,480.25 L232.3,480.26 L232.29,480.28 L232.27,480.29 L232.26,480.31 L232.25,480.32 L232.23,480.33 L232.22,480.34 L232.2,480.36 L232.19,480.37 L232.17,480.38 L232.15,480.39 L232.13,480.39 L232.11,480.4 L232.09,480.41 L232.08,480.41 L232.06,480.42 L232.03,480.42 L232.01,480.43 L231.99,480.43 L231.97,480.43 C231.76,480.43,231.57,480.26,231.57,480.03 C231.57,479.78,231.77,479.63,231.97,479.63 C232.19,479.63,232.37,479.8,232.37,480.03 Z " />
<path
   id="path3085"
   fill="black"
   stroke-width="0"
   d="M231.32,478.73 V478.48 C231.75,478.48,231.82,478.44,231.82,478.1 V476.29 C231.82,475.99,231.75,475.99,231.29,475.99 V475.74 C231.31,475.74,231.79,475.77,232.07,475.77 C232.32,475.77,232.57,475.76,232.81,475.74 V475.99 C232.41,475.99,232.34,475.99,232.34,476.28 V478.81 Z " />
<path
   id="path3087"
   fill="black"
   stroke-width="0"
   d="M236.75,477.85 L236.75,477.9 L236.74,477.96 L236.74,478.01 L236.73,478.06 L236.72,478.11 L236.71,478.16 L236.7,478.21 L236.69,478.25 L236.67,478.3 L236.65,478.34 L236.63,478.38 L236.61,478.42 L236.59,478.45 L236.56,478.49 L236.53,478.52 L236.5,478.55 L236.47,478.58 L236.44,478.61 L236.4,478.64 L236.36,478.66 L236.32,478.69 L236.27,478.71 L236.23,478.73 L236.18,478.74 L236.13,478.76 L236.07,478.77 L236.02,478.78 L235.96,478.79 L235.9,478.8 L235.84,478.8 L235.77,478.81 L235.7,478.81 C235.13,478.81,234.76,478.49,234.57,478.13 H234.56 V478.81 L233.54,478.73 V478.48 C234,478.48,234.06,478.43,234.06,478.09 V476.29 C234.06,475.99,233.99,475.99,233.54,475.99 V475.74 C233.55,475.74,234.04,475.77,234.33,475.77 C234.59,475.77,235.07,475.75,235.13,475.74 V475.99 C234.68,475.99,234.61,475.99,234.61,476.29 V477.54 C234.61,478.27,235.19,478.61,235.65,478.61 C236.13,478.61,236.2,478.23,236.2,477.88 V476.29 C236.2,475.99,236.13,475.99,235.67,475.99 V475.74 C235.69,475.74,236.18,475.77,236.47,475.77 C236.73,475.77,237.21,475.75,237.27,475.74 V475.99 C236.82,475.99,236.75,475.99,236.75,476.29 Z " />
<path
   id="path3089"
   fill="black"
   stroke-width="0"
   d="M247.66,480.48 L247.69,480.48 L247.72,480.48 L247.75,480.48 L247.76,480.49 L247.78,480.49 L247.79,480.49 L247.8,480.49 L247.82,480.49 L247.83,480.49 L247.85,480.5 L247.86,480.5 L247.87,480.5 L247.88,480.51 L247.9,480.51 L247.91,480.52 L247.92,480.52 L247.93,480.53 L247.94,480.54 L247.95,480.55 L247.96,480.56 L247.97,480.57 L247.97,480.57 L247.97,480.58 L247.98,480.58 L247.98,480.59 L247.98,480.6 L247.99,480.6 L247.99,480.61 L247.99,480.62 L247.99,480.62 L247.99,480.63 L247.99,480.64 L248,480.65 L248,480.66 L248,480.66 L248,480.67 L248,480.68 C248,480.88,247.81,480.88,247.67,480.88 H241.71 C241.57,480.88,241.38,480.88,241.38,480.68 C241.38,480.48,241.57,480.48,241.72,480.48 Z " />
<path
   id="path3091"
   fill="black"
   stroke-width="0"
   d="M247.67,478.56 L247.68,478.56 L247.7,478.56 L247.72,478.56 L247.75,478.56 L247.77,478.56 L247.78,478.56 L247.79,478.56 L247.81,478.56 L247.82,478.56 L247.83,478.57 L247.85,478.57 L247.86,478.57 L247.87,478.58 L247.89,478.58 L247.9,478.59 L247.91,478.59 L247.92,478.6 L247.93,478.6 L247.94,478.61 L247.95,478.62 L247.96,478.63 L247.96,478.63 L247.97,478.64 L247.97,478.65 L247.97,478.65 L247.98,478.66 L247.98,478.66 L247.98,478.67 L247.99,478.68 L247.99,478.68 L247.99,478.69 L247.99,478.7 L247.99,478.7 L247.99,478.71 L248,478.72 L248,478.73 L248,478.74 L248,478.75 L248,478.76 C248,478.95,247.81,478.95,247.66,478.95 H241.72 C241.57,478.95,241.38,478.95,241.38,478.76 C241.38,478.56,241.57,478.56,241.71,478.56 Z " />
<path
   id="path3093"
   fill="black"
   stroke-width="0"
   d="M255.92,480.41 L255.92,480.56 L255.92,480.71 L255.91,480.86 L255.91,481.01 L255.9,481.16 L255.89,481.3 L255.87,481.45 L255.85,481.6 L255.83,481.74 L255.8,481.89 L255.77,482.03 L255.73,482.18 L255.69,482.32 L255.64,482.46 L255.58,482.6 L255.55,482.67 L255.52,482.74 C255.07,483.69,254.25,483.85,253.83,483.85 C253.23,483.85,252.51,483.59,252.1,482.67 C251.78,481.98,251.73,481.21,251.73,480.41 C251.73,479.67,251.77,478.77,252.18,478.02 C252.61,477.21,253.33,477.02,253.82,477.02 V477.23 C253.43,477.23,252.85,477.48,252.67,478.44 C252.56,479.03,252.56,479.95,252.56,480.53 C252.56,481.17,252.56,481.82,252.64,482.36 C252.83,483.54,253.57,483.63,253.82,483.63 C254.15,483.63,254.81,483.45,254.99,482.47 C255.09,481.91,255.09,481.16,255.09,480.53 C255.09,479.79,255.09,479.11,254.99,478.48 C254.84,477.53,254.27,477.23,253.82,477.23 H253.82 V477.02 C254.36,477.02,255.11,477.23,255.55,478.17 C255.87,478.85,255.92,479.63,255.92,480.41 Z " />
<path
   id="path3095"
   fill="black"
   stroke-width="0"
   d="M258.23,477.76 L258.23,477.79 L258.23,477.82 L258.23,477.84 L258.22,477.87 L258.22,477.89 L258.21,477.92 L258.2,477.94 L258.19,477.97 L258.18,477.99 L258.17,478.01 L258.16,478.03 L258.14,478.05 L258.13,478.08 L258.11,478.1 L258.1,478.11 L258.08,478.13 L258.06,478.15 L258.04,478.17 L258.02,478.18 L258,478.2 L257.98,478.21 L257.96,478.22 L257.93,478.24 L257.91,478.25 L257.89,478.26 L257.86,478.26 L257.84,478.27 L257.81,478.28 L257.79,478.28 L257.76,478.29 L257.73,478.29 L257.71,478.29 C257.42,478.29,257.18,478.05,257.18,477.76 C257.18,477.47,257.42,477.23,257.71,477.23 C257.99,477.23,258.23,477.47,258.23,477.76 Z " />
<path
   id="path3097"
   fill="black"
   stroke-width="0"
   d="M260.35,478 L261.41,479.02 C262.96,480.39,263.56,480.93,263.56,481.92 C263.56,483.06,262.66,483.85,261.45,483.85 C260.32,483.85,259.59,482.94,259.59,482.05 C259.59,481.5,260.08,481.5,260.11,481.5 C260.28,481.5,260.63,481.62,260.63,482.02 C260.63,482.28,260.45,482.54,260.11,482.54 C260.02,482.54,260.01,482.54,259.98,482.53 C260.2,483.17,260.74,483.54,261.32,483.54 C262.22,483.54,262.65,482.74,262.65,481.92 C262.65,481.13,262.15,480.34,261.61,479.73 L259.7,477.6 C259.59,477.49,259.59,477.47,259.59,477.23 H263.28 L263.56,478.96 H263.31 C263.26,478.67,263.19,478.23,263.09,478.08 C263.02,478,262.36,478,262.14,478 Z " />
<path
   id="path3099"
   fill="black"
   stroke-width="0"
   d="M268.48,480.65 V477.99 C268.48,477.54,268.37,477.54,267.71,477.54 V477.23 C268.05,477.24,268.56,477.27,268.83,477.27 C269.09,477.27,269.61,477.24,269.95,477.23 V477.54 C269.28,477.54,269.17,477.54,269.17,477.99 V479.82 C269.17,480.85,269.88,481.41,270.51,481.41 C271.14,481.41,271.25,480.87,271.25,480.3 V477.99 C271.25,477.54,271.14,477.54,270.47,477.54 V477.23 C270.82,477.24,271.33,477.27,271.6,477.27 C271.86,477.27,272.37,477.24,272.71,477.23 V477.54 C272.05,477.54,271.94,477.54,271.94,477.99 V479.82 C271.94,480.85,272.64,481.41,273.28,481.41 C273.91,481.41,274.02,480.87,274.02,480.3 V477.99 C274.02,477.54,273.91,477.54,273.24,477.54 V477.23 C273.59,477.24,274.1,477.27,274.36,477.27 C274.62,477.27,275.14,477.24,275.48,477.23 V477.54 C274.96,477.54,274.71,477.54,274.7,477.84 V479.74 C274.7,480.59,274.7,480.9,274.39,481.26 C274.25,481.43,273.92,481.63,273.35,481.63 C272.51,481.63,272.08,481.03,271.91,480.65 C271.77,481.52,271.03,481.63,270.58,481.63 C269.86,481.63,269.39,481.2,269.11,480.58 V481.63 L267.71,481.52 V481.21 C268.4,481.21,268.48,481.14,268.48,480.65 Z " />
<path
   id="path3101"
   fill="black"
   stroke-width="0"
   d="M279.21,482.12 H278.97 C278.95,481.96,278.88,481.55,278.79,481.48 C278.74,481.44,278.2,481.44,278.1,481.44 H276.82 C277.55,482.09,277.8,482.28,278.21,482.61 C278.73,483.02,279.21,483.45,279.21,484.11 C279.21,484.95,278.47,485.47,277.58,485.47 C276.72,485.47,276.13,484.86,276.13,484.22 C276.13,483.87,276.43,483.83,276.5,483.83 C276.67,483.83,276.87,483.95,276.87,484.2 C276.87,484.33,276.82,484.57,276.46,484.57 C276.68,485.07,277.15,485.22,277.48,485.22 C278.17,485.22,278.54,484.68,278.54,484.11 C278.54,483.51,278.1,483.03,277.88,482.78 L276.2,481.12 C276.13,481.06,276.13,481.05,276.13,480.85 H279 Z " />
</g>    <g
       id="g3204"
       transform="matrix(1.25,0,0,-1.25,-198.76777,1645)"
       xml:space="preserve"
       stroke-miterlimit="10.433"
       font-style="normal"
       font-variant="normal"
       font-weight="normal"
       font-stretch="normal"
       font-size-adjust="none"
       letter-spacing="normal"
       word-spacing="normal"
       ns0:text="$A_\\mathrm{uit} = 0.4\\unit{m^2}$"
       ns0:preamble="D:\\Onderwijs\\FLUI\\Cursusmateriaal\\Fluidummechanica\\tex\\packages.tex"
       style="font-style:normal;font-variant:normal;font-weight:normal;font-stretch:normal;letter-spacing:normal;word-spacing:normal;text-anchor:start;fill:none;stroke:#000000;stroke-linecap:butt;stroke-linejoin:miter;stroke-miterlimit:10.43299961;stroke-opacity:1;stroke-dasharray:none;stroke-dashoffset:0">
<path
   d="m 225.21,478.38 -0.03,-0.06 -0.04,-0.06 -0.04,-0.06 -0.04,-0.05 -0.03,-0.05 -0.04,-0.04 -0.04,-0.05 -0.03,-0.04 -0.04,-0.04 -0.04,-0.04 -0.04,-0.03 -0.03,-0.03 -0.04,-0.03 -0.04,-0.03 -0.04,-0.02 -0.03,-0.03 -0.04,-0.02 -0.04,-0.02 -0.04,-0.02 -0.04,-0.02 -0.03,-0.01 -0.04,-0.01 -0.04,-0.02 -0.04,-0.01 -0.04,-0.01 -0.04,-0.01 -0.04,0 -0.04,-0.01 -0.08,-0.01 -0.08,-0.01 c -0.12,-0.01 -0.21,-0.01 -0.21,-0.2 0,-0.05 0.05,-0.11 0.13,-0.11 0.27,0 0.58,0.04 0.85,0.04 0.33,0 0.68,-0.04 1,-0.04 0.06,0 0.19,0 0.19,0.19 0,0.11 -0.09,0.12 -0.16,0.12 -0.23,0.02 -0.47,0.1 -0.47,0.35 0,0.12 0.06,0.23 0.14,0.37 l 0.76,1.27 h 2.49 l -0.03,0.31 h -2.27 l 1.96,3.28 0.31,-3.28 0.03,-0.31 c 0.03,-0.21 0.16,-1.56 0.16,-1.66 0,-0.3 -0.51,-0.33 -0.71,-0.33 -0.14,0 -0.24,0 -0.24,-0.2 0,-0.11 0.12,-0.11 0.14,-0.11 0.41,0 0.83,0.04 1.24,0.04 0.25,0 0.88,-0.04 1.13,-0.04 0.06,0 0.17,0 0.17,0.2 0,0.11 -0.09,0.11 -0.22,0.11 -0.62,0 -0.62,0.07 -0.65,0.36 l -0.61,6.21 c -0.02,0.2 -0.02,0.24 -0.19,0.24 -0.16,0 -0.19,-0.07 -0.25,-0.17 z"
   id="path3206"
   inkscape:connector-curvature="0"
   style="fill:#000000;stroke-width:0" />
<path
   d="m 233.42,478.73 v -0.25 c 0.46,0 0.52,-0.05 0.52,-0.39 v -1.19 c 0,-0.61 -0.4,-1.03 -0.93,-1.03 -0.63,0 -0.66,0.3 -0.66,0.65 v 2.29 l -1.07,-0.08 v -0.25 c 0.52,0 0.52,-0.02 0.52,-0.64 v -1.04 c 0,-0.48 0,-1.13 1.16,-1.13 0.16,0 0.67,0 1,0.59 h 0.01 v -0.59 l 1.04,0.07 v 0.25 c -0.46,0 -0.52,0.05 -0.52,0.39 v 2.43 z"
   id="path3208"
   inkscape:connector-curvature="0"
   style="fill:#000000;stroke-width:0" />
<path
   d="m 236.77,480.03 0,0.02 0,0.02 0,0.02 0,0.02 -0.01,0.01 0,0.02 -0.01,0.02 -0.01,0.02 0,0.02 -0.01,0.01 -0.01,0.02 -0.01,0.02 -0.01,0.01 -0.01,0.02 -0.02,0.01 -0.01,0.02 -0.01,0.01 -0.02,0.01 -0.01,0.01 -0.02,0.02 -0.01,0.01 -0.02,0.01 -0.02,0.01 -0.02,0 -0.02,0.01 -0.01,0.01 -0.02,0 -0.02,0.01 -0.03,0 -0.02,0.01 -0.02,0 -0.02,0 c -0.21,0 -0.4,-0.17 -0.4,-0.4 0,-0.25 0.21,-0.4 0.4,-0.4 0.22,0 0.4,0.17 0.4,0.4 z"
   id="path3210"
   inkscape:connector-curvature="0"
   style="fill:#000000;stroke-width:0" />
<path
   d="m 235.71,478.73 v -0.25 c 0.44,0 0.51,-0.04 0.51,-0.38 v -1.81 c 0,-0.3 -0.07,-0.3 -0.53,-0.3 v -0.25 c 0.02,0 0.51,0.03 0.78,0.03 0.25,0 0.5,-0.01 0.74,-0.03 v 0.25 c -0.4,0 -0.47,0 -0.47,0.29 v 2.53 z"
   id="path3212"
   inkscape:connector-curvature="0"
   style="fill:#000000;stroke-width:0" />
<path
   d="m 238.96,478.49 h 1.09 v 0.25 h -1.09 v 1.28 h -0.24 c 0,-0.63 -0.29,-1.32 -0.96,-1.34 v -0.19 h 0.65 v -1.88 c 0,-0.78 0.58,-0.94 0.97,-0.94 0.47,0 0.79,0.4 0.79,0.95 V 477 h -0.24 v -0.38 c 0,-0.47 -0.22,-0.73 -0.49,-0.73 -0.48,0 -0.48,0.59 -0.48,0.71 z"
   id="path3214"
   inkscape:connector-curvature="0"
   style="fill:#000000;stroke-width:0" />
<path
   d="m 250.77,480.48 0.03,0 0.03,0 0.03,0 0.02,0.01 0.01,0 0.01,0 0.02,0 0.01,0 0.02,0 0.01,0.01 0.01,0 0.02,0 0.01,0.01 0.01,0 0.01,0.01 0.01,0 0.01,0.01 0.01,0.01 0.01,0.01 0.01,0.01 0.01,0.01 0,0 0.01,0.01 0,0 0,0.01 0.01,0.01 0,0 0,0.01 0,0.01 0.01,0 0,0.01 0,0.01 0,0.01 0,0.01 0,0 0,0.01 0,0.01 c 0,0.2 -0.19,0.2 -0.33,0.2 h -5.96 c -0.14,0 -0.32,0 -0.32,-0.2 0,-0.2 0.18,-0.2 0.33,-0.2 z"
   id="path3216"
   inkscape:connector-curvature="0"
   style="fill:#000000;stroke-width:0" />
<path
   d="m 250.78,478.56 0.02,0 0.01,0 0.03,0 0.03,0 0.01,0 0.01,0 0.02,0 0.01,0 0.02,0 0.01,0.01 0.01,0 0.02,0 0.01,0.01 0.01,0 0.01,0.01 0.01,0 0.01,0.01 0.01,0 0.01,0.01 0.01,0.01 0.01,0.01 0.01,0 0,0.01 0,0.01 0.01,0 0,0.01 0,0 0.01,0.01 0,0.01 0,0 0,0.01 0.01,0.01 0,0 0,0.01 0,0.01 0,0.01 0,0.01 0,0.01 0,0.01 c 0,0.19 -0.19,0.19 -0.34,0.19 h -5.94 c -0.15,0 -0.33,0 -0.33,-0.19 0,-0.2 0.18,-0.2 0.32,-0.2 z"
   id="path3218"
   inkscape:connector-curvature="0"
   style="fill:#000000;stroke-width:0" />
<path
   d="m 259.03,480.41 0,0.15 0,0.15 0,0.15 -0.01,0.15 -0.01,0.15 -0.01,0.14 -0.02,0.15 -0.01,0.15 -0.03,0.14 -0.03,0.15 -0.03,0.14 -0.04,0.15 -0.04,0.14 -0.05,0.14 -0.05,0.14 -0.03,0.07 -0.03,0.07 c -0.46,0.95 -1.28,1.11 -1.69,1.11 -0.6,0 -1.33,-0.26 -1.74,-1.18 -0.31,-0.69 -0.36,-1.46 -0.36,-2.26 0,-0.74 0.03,-1.64 0.44,-2.39 0.43,-0.81 1.16,-1 1.64,-1 v 0.21 c -0.38,0 -0.97,0.25 -1.15,1.21 -0.11,0.59 -0.11,1.51 -0.11,2.09 0,0.64 0,1.29 0.08,1.83 0.19,1.18 0.94,1.27 1.18,1.27 0.33,0 0.99,-0.18 1.18,-1.16 0.1,-0.56 0.1,-1.31 0.1,-1.94 0,-0.74 0,-1.42 -0.11,-2.05 -0.15,-0.95 -0.72,-1.25 -1.17,-1.25 h 0 v -0.21 c 0.54,0 1.3,0.21 1.74,1.15 0.31,0.68 0.36,1.46 0.36,2.24 z"
   id="path3220"
   inkscape:connector-curvature="0"
   style="fill:#000000;stroke-width:0" />
<path
   d="m 261.35,477.76 0,0.03 -0.01,0.03 0,0.02 0,0.03 -0.01,0.02 -0.01,0.03 -0.01,0.02 -0.01,0.03 -0.01,0.02 -0.01,0.02 -0.01,0.02 -0.01,0.02 -0.02,0.03 -0.02,0.02 -0.01,0.01 -0.02,0.02 -0.02,0.02 -0.02,0.02 -0.02,0.01 -0.02,0.02 -0.02,0.01 -0.02,0.01 -0.02,0.02 -0.03,0.01 -0.02,0.01 -0.03,0 -0.02,0.01 -0.03,0.01 -0.02,0 -0.03,0.01 -0.02,0 -0.03,0 c -0.29,0 -0.53,-0.24 -0.53,-0.53 0,-0.29 0.24,-0.53 0.53,-0.53 0.29,0 0.53,0.24 0.53,0.53 z"
   id="path3222"
   inkscape:connector-curvature="0"
   style="fill:#000000;stroke-width:0" />
<path
   d="m 265.13,478.87 v -0.86 c 0,-0.36 -0.02,-0.47 -0.76,-0.47 h -0.21 v -0.31 c 0.41,0.04 0.93,0.04 1.35,0.04 0.41,0 0.94,0 1.35,-0.04 v 0.31 h -0.21 c -0.74,0 -0.76,0.11 -0.76,0.47 v 0.86 h 1 v 0.31 h -1 v 4.52 c 0,0.2 0,0.26 -0.16,0.26 -0.09,0 -0.11,0 -0.19,-0.12 l -3.06,-4.66 h 0.28 l 2.43,3.71 v -3.71 h -2.43 -0.28 v -0.31 z"
   id="path3224"
   inkscape:connector-curvature="0"
   style="fill:#000000;stroke-width:0" />
<path
   d="m 271.6,480.65 v -2.66 c 0,-0.45 -0.11,-0.45 -0.78,-0.45 v -0.31 c 0.35,0.01 0.86,0.04 1.12,0.04 0.26,0 0.78,-0.03 1.12,-0.04 v 0.31 c -0.67,0 -0.78,0 -0.78,0.45 v 1.83 c 0,1.03 0.71,1.59 1.35,1.59 0.62,0 0.73,-0.54 0.73,-1.11 v -2.31 c 0,-0.45 -0.11,-0.45 -0.77,-0.45 v -0.31 c 0.34,0.01 0.85,0.04 1.12,0.04 0.26,0 0.78,-0.03 1.12,-0.04 v 0.31 c -0.67,0 -0.78,0 -0.78,0.45 v 1.83 c 0,1.03 0.71,1.59 1.34,1.59 0.63,0 0.74,-0.54 0.74,-1.11 v -2.31 c 0,-0.45 -0.11,-0.45 -0.78,-0.45 v -0.31 c 0.35,0.01 0.86,0.04 1.13,0.04 0.25,0 0.77,-0.03 1.11,-0.04 v 0.31 c -0.52,0 -0.77,0 -0.78,0.3 v 1.9 c 0,0.85 0,1.16 -0.3,1.52 -0.14,0.17 -0.47,0.37 -1.05,0.37 -0.83,0 -1.27,-0.6 -1.44,-0.98 -0.14,0.87 -0.88,0.98 -1.32,0.98 -0.73,0 -1.2,-0.43 -1.48,-1.05 v 1.05 l -1.4,-0.11 v -0.31 c 0.7,0 0.78,-0.07 0.78,-0.56 z"
   id="path3226"
   inkscape:connector-curvature="0"
   style="fill:#000000;stroke-width:0" />
<path
   d="m 282.33,482.12 h -0.24 c -0.02,-0.16 -0.09,-0.57 -0.18,-0.64 -0.06,-0.04 -0.59,-0.04 -0.69,-0.04 h -1.28 c 0.73,0.65 0.97,0.84 1.39,1.17 0.51,0.41 1,0.84 1,1.5 0,0.84 -0.74,1.36 -1.63,1.36 -0.87,0 -1.45,-0.61 -1.45,-1.25 0,-0.35 0.3,-0.39 0.37,-0.39 0.16,0 0.36,0.12 0.36,0.37 0,0.13 -0.04,0.37 -0.41,0.37 0.22,0.5 0.69,0.65 1.02,0.65 0.7,0 1.06,-0.54 1.06,-1.11 0,-0.6 -0.43,-1.08 -0.66,-1.33 l -1.67,-1.66 c -0.07,-0.06 -0.07,-0.07 -0.07,-0.27 h 2.87 z"
   id="path3228"
   inkscape:connector-curvature="0"
   style="fill:#000000;stroke-width:0" />
</g>    <g
       style="font-style:normal;font-variant:normal;font-weight:normal;font-stretch:normal;letter-spacing:normal;word-spacing:normal;text-anchor:start;fill:none;stroke:#000000;stroke-linecap:butt;stroke-linejoin:miter;stroke-miterlimit:10.43299961;stroke-opacity:1;stroke-dasharray:none;stroke-dashoffset:0"
       ns0:preamble="D:\\Onderwijs\\FLUI\\Cursusmateriaal\\Fluidummechanica\\tex\\packages.tex"
       ns0:text="4\\unit{m/s}"
       word-spacing="normal"
       letter-spacing="normal"
       font-size-adjust="none"
       font-stretch="normal"
       font-weight="normal"
       font-variant="normal"
       font-style="normal"
       stroke-miterlimit="10.433"
       xml:space="preserve"
       transform="matrix(1.25,0,0,-1.25,-259.5,1540.354)"
       id="g3339">
<path
   id="path3341"
   d="m 226.36,478.87 v -0.86 c 0,-0.36 -0.02,-0.47 -0.76,-0.47 h -0.21 v -0.31 c 0.41,0.04 0.93,0.04 1.35,0.04 0.41,0 0.94,0 1.35,-0.04 v 0.31 h -0.21 c -0.74,0 -0.76,0.11 -0.76,0.47 v 0.86 h 1 v 0.31 h -1 v 4.52 c 0,0.2 0,0.26 -0.16,0.26 -0.09,0 -0.11,0 -0.2,-0.12 l -3.05,-4.66 h 0.28 l 2.43,3.71 v -3.71 h -2.43 -0.28 v -0.31 z"
   inkscape:connector-curvature="0"
   style="fill:#000000;stroke-width:0" />
<path
   id="path3343"
   d="m 232.82,480.65 v -2.66 c 0,-0.45 -0.1,-0.45 -0.77,-0.45 v -0.31 c 0.35,0.01 0.85,0.04 1.12,0.04 0.26,0 0.78,-0.03 1.12,-0.04 v 0.31 c -0.67,0 -0.78,0 -0.78,0.45 v 1.83 c 0,1.03 0.71,1.59 1.34,1.59 0.63,0 0.74,-0.54 0.74,-1.11 v -2.31 c 0,-0.45 -0.11,-0.45 -0.77,-0.45 v -0.31 c 0.34,0.01 0.85,0.04 1.12,0.04 0.26,0 0.77,-0.03 1.11,-0.04 v 0.31 c -0.66,0 -0.77,0 -0.77,0.45 v 1.83 c 0,1.03 0.7,1.59 1.34,1.59 0.63,0 0.74,-0.54 0.74,-1.11 v -2.31 c 0,-0.45 -0.11,-0.45 -0.78,-0.45 v -0.31 c 0.35,0.01 0.86,0.04 1.13,0.04 0.25,0 0.77,-0.03 1.11,-0.04 v 0.31 c -0.52,0 -0.77,0 -0.78,0.3 v 1.9 c 0,0.85 0,1.16 -0.3,1.52 -0.14,0.17 -0.47,0.37 -1.05,0.37 -0.84,0 -1.27,-0.6 -1.44,-0.98 -0.14,0.87 -0.88,0.98 -1.32,0.98 -0.73,0 -1.2,-0.43 -1.48,-1.05 v 1.05 l -1.4,-0.11 v -0.31 c 0.7,0 0.77,-0.07 0.77,-0.56 z"
   inkscape:connector-curvature="0"
   style="fill:#000000;stroke-width:0" />
<path
   id="path3345"
   d="m 244.4,484.31 0.01,0 0,0.01 0,0.01 0,0 0.01,0.01 0,0 0,0.01 0,0.01 0.01,0.01 0,0.01 0,0.01 0.01,0.01 0,0 0,0.01 0,0.01 0,0.01 0.01,0 0,0.01 0,0 0,0.01 0,0 0,0.01 0,0 0,0 0,0.01 0,0 0,0 0,0.01 0,0 0,0 0,0 0,0 0,0 0.01,0.01 0,0 c 0,0.11 -0.09,0.19 -0.2,0.19 -0.07,0 -0.14,-0.02 -0.17,-0.08 l -3.46,-9.47 c -0.05,-0.13 -0.05,-0.17 -0.05,-0.18 0,-0.11 0.09,-0.2 0.2,-0.2 0.13,0 0.16,0.07 0.22,0.24 z"
   inkscape:connector-curvature="0"
   style="fill:#000000;stroke-width:0" />
<path
   id="path3347"
   d="m 247.09,479.16 0.02,0 0.02,-0.01 0.03,0 0.03,-0.01 0.04,-0.01 0.03,-0.01 0.04,-0.01 0.04,-0.01 0.04,-0.01 0.04,-0.01 0.05,-0.02 0.04,-0.02 0.04,-0.01 0.05,-0.03 0.04,-0.02 0.05,-0.02 0.04,-0.03 0.04,-0.03 0.04,-0.03 0.04,-0.03 0.04,-0.03 0.04,-0.04 0.03,-0.04 0.03,-0.04 0.03,-0.05 0.01,-0.02 0.02,-0.03 0.01,-0.02 0.01,-0.03 0.01,-0.02 0.01,-0.03 0,-0.03 0.01,-0.02 0.01,-0.03 0,-0.03 0.01,-0.03 0,-0.04 0,-0.03 0,-0.03 c 0,-0.51 -0.35,-0.91 -1.12,-0.91 -0.84,0 -1.2,0.57 -1.38,1.42 -0.03,0.12 -0.05,0.16 -0.14,0.16 -0.13,0 -0.13,-0.07 -0.13,-0.25 v -1.31 c 0,-0.16 0,-0.23 0.11,-0.23 0.05,0 0.05,0.01 0.24,0.19 0.02,0.02 0.02,0.04 0.2,0.23 0.44,-0.41 0.89,-0.42 1.1,-0.42 1.14,0 1.6,0.66 1.6,1.38 0,0.52 -0.3,0.82 -0.42,0.94 -0.33,0.32 -0.72,0.4 -1.13,0.48 -0.56,0.11 -1.23,0.24 -1.23,0.81 0,0.35 0.26,0.76 1.12,0.76 1.09,0 1.14,-0.9 1.16,-1.2 0.01,-0.1 0.1,-0.1 0.12,-0.1 0.13,0 0.13,0.06 0.13,0.24 v 1.01 c 0,0.17 0,0.23 -0.11,0.23 -0.05,0 -0.07,0 -0.2,-0.11 -0.03,-0.04 -0.13,-0.13 -0.17,-0.16 -0.38,0.27 -0.78,0.27 -0.93,0.27 -1.22,0 -1.59,-0.66 -1.59,-1.22 0,-0.34 0.16,-0.62 0.42,-0.84 0.32,-0.26 0.6,-0.32 1.32,-0.46 z"
   inkscape:connector-curvature="0"
   style="fill:#000000;stroke-width:0" />
</g>  </g>
  <g
     transform="translate(-18.365846,-196.49689)"
     inkscape:groupmode="layer"
     id="layer2"
     inkscape:label="waterkering"
     style="display:inline" />
</svg>
