<?xml version="1.0" encoding="UTF-8" standalone="no"?>
<!-- Created with Inkscape (http://www.inkscape.org/) -->

<svg
   xmlns:dc="http://purl.org/dc/elements/1.1/"
   xmlns:cc="http://creativecommons.org/ns#"
   xmlns:rdf="http://www.w3.org/1999/02/22-rdf-syntax-ns#"
   xmlns:svg="http://www.w3.org/2000/svg"
   xmlns="http://www.w3.org/2000/svg"
   xmlns:xlink="http://www.w3.org/1999/xlink"
   xmlns:sodipodi="http://sodipodi.sourceforge.net/DTD/sodipodi-0.dtd"
   xmlns:inkscape="http://www.inkscape.org/namespaces/inkscape"
   width="261.93637"
   height="109.8489"
   id="svg3009"
   version="1.1"
   inkscape:version="0.48.2 r9819"
   sodipodi:docname="hydraulische_sprong.svg">
  <sodipodi:namedview
     id="base"
     pagecolor="#ffffff"
     bordercolor="#666666"
     borderopacity="1.0"
     inkscape:pageopacity="0.0"
     inkscape:pageshadow="2"
     inkscape:zoom="2"
     inkscape:cx="198.93095"
     inkscape:cy="20.900073"
     inkscape:document-units="mm"
     inkscape:current-layer="layer1"
     showgrid="false"
     units="mm"
     inkscape:window-width="1366"
     inkscape:window-height="706"
     inkscape:window-x="-8"
     inkscape:window-y="-8"
     inkscape:window-maximized="1"
     fit-margin-left="0.5"
     fit-margin-bottom="0.5"
     fit-margin-top="0.5"
     fit-margin-right="0.5"
     showguides="true"
     inkscape:guide-bbox="true">
    <inkscape:grid
       type="xygrid"
       id="grid3017"
       empspacing="5"
       visible="true"
       enabled="true"
       snapvisiblegridlinesonly="true"
       units="mm"
       spacingx="1mm"
       spacingy="1mm"
       dotted="false" />
  </sodipodi:namedview>
  <defs
     id="defs3011">
    <marker
       inkscape:stockid="Arrow1Mend"
       orient="auto"
       refY="0"
       refX="0"
       id="Arrow1Mend"
       style="overflow:visible">
      <path
         id="path3912"
         d="M 0,0 5,-5 -12.5,0 5,5 0,0 z"
         style="fill-rule:evenodd;stroke:#000000;stroke-width:1pt;marker-start:none"
         transform="matrix(-0.4,0,0,-0.4,-4,0)"
         inkscape:connector-curvature="0" />
    </marker>
    <linearGradient
       inkscape:collect="always"
       xlink:href="#linearGradient7587"
       id="linearGradient3304"
       gradientUnits="userSpaceOnUse"
       gradientTransform="matrix(1.125,0,0,1.0869568,-15.521397,656.40388)"
       spreadMethod="pad"
       x1="124.01575"
       y1="347.24408"
       x2="124.01575"
       y2="265.74802" />
    <linearGradient
       id="linearGradient7587">
      <stop
         style="stop-color:#6da5d4;stop-opacity:1;"
         offset="0"
         id="stop7595" />
      <stop
         id="stop7591"
         offset="1"
         style="stop-color:#cae7f9;stop-opacity:1;" />
    </linearGradient>
    <marker
       inkscape:stockid="Arrow1Mstart"
       orient="auto"
       refY="0"
       refX="0"
       id="Arrow1Mstart"
       style="overflow:visible">
      <path
         inkscape:connector-curvature="0"
         id="path3776"
         d="M 0,0 5,-5 -12.5,0 5,5 0,0 z"
         style="fill-rule:evenodd;stroke:#000000;stroke-width:1pt;marker-start:none"
         transform="matrix(0.4,0,0,0.4,4,0)" />
    </marker>
    <marker
       inkscape:stockid="Arrow1Mend"
       orient="auto"
       refY="0"
       refX="0"
       id="Arrow1Mend-1"
       style="overflow:visible">
      <path
         inkscape:connector-curvature="0"
         id="path3779"
         d="M 0,0 5,-5 -12.5,0 5,5 0,0 z"
         style="fill-rule:evenodd;stroke:#000000;stroke-width:1pt;marker-start:none"
         transform="matrix(-0.4,0,0,-0.4,-4,0)" />
    </marker>
    <linearGradient
       inkscape:collect="always"
       xlink:href="#linearGradient7587-7"
       id="linearGradient3308"
       gradientUnits="userSpaceOnUse"
       gradientTransform="matrix(1.125,0,0,1.0869568,-15.521397,656.40388)"
       spreadMethod="pad"
       x1="124.01575"
       y1="347.24408"
       x2="124.01575"
       y2="265.74802" />
    <linearGradient
       id="linearGradient7587-7">
      <stop
         style="stop-color:#6da5d4;stop-opacity:1;"
         offset="0"
         id="stop7595-4" />
      <stop
         id="stop7591-0"
         offset="1"
         style="stop-color:#cae7f9;stop-opacity:1;" />
    </linearGradient>
    <linearGradient
       inkscape:collect="always"
       xlink:href="#linearGradient7587-7"
       id="linearGradient6440"
       gradientUnits="userSpaceOnUse"
       gradientTransform="matrix(1.7757431,0,0,1.2289687,-25.796078,579.34445)"
       spreadMethod="pad"
       x1="124.01575"
       y1="347.24408"
       x2="124.01575"
       y2="265.74802" />
    <linearGradient
       id="linearGradient7587-7-4">
      <stop
         style="stop-color:#6da5d4;stop-opacity:1;"
         offset="0"
         id="stop7595-4-8" />
      <stop
         id="stop7591-0-8"
         offset="1"
         style="stop-color:#cae7f9;stop-opacity:1;" />
    </linearGradient>
  </defs>
  <metadata
     id="metadata3014">
    <rdf:RDF>
      <cc:Work
         rdf:about="">
        <dc:format>image/svg+xml</dc:format>
        <dc:type
           rdf:resource="http://purl.org/dc/dcmitype/StillImage" />
        <dc:title></dc:title>
      </cc:Work>
    </rdf:RDF>
  </metadata>
  <g
     inkscape:label="Layer 1"
     inkscape:groupmode="layer"
     id="layer1"
     transform="translate(-62.747034,-903.33361)">
    <rect
       y="905.94037"
       x="68.583969"
       height="100.15611"
       width="251.68011"
       id="rect7585"
       style="fill:url(#linearGradient6440);fill-opacity:1;fill-rule:nonzero;stroke:none" />
    <path
       inkscape:connector-curvature="0"
       id="path6744"
       d="m 68.497723,905.86737 c 47.164337,12.87049 64.240547,84.08067 118.188127,88.17856 1.60252,0.12136 23.03864,0.18417 24.70798,0.18417 2.96504,-5.23861 2.44869,-10.8649 13.82084,-15.16729 2.06528,-9.24117 7.9877,-11.7172 14.00148,-14.03297 0.12882,-6.63031 10.25094,-16.11329 10.25094,-16.11329 0,0 2.77902,-9.67703 8.67,-9.67703 l 61.93731,0 0.75684,0 0,-34.13426 -253.162056,0 0,0.75854 z"
       style="fill:#ffffff;stroke:none"
       sodipodi:nodetypes="csccccccccccc" />
    <path
       sodipodi:nodetypes="csccccsc"
       style="fill:none;stroke:#5599ff;stroke-width:0.35433072;stroke-linecap:butt;stroke-linejoin:miter;stroke-miterlimit:4;stroke-opacity:1;stroke-dasharray:none"
       d="m 68.497725,905.8674 c 47.122425,12.85905 64.210165,83.95415 118.044385,88.16748 1.64845,0.12895 23.40003,0.19525 25.1193,0.19525 2.96503,-5.23861 2.44869,-10.8649 13.82084,-15.16729 2.06528,-9.24117 7.9877,-11.7172 14.00149,-14.03297 0.12745,-6.56033 10.20561,-15.97362 10.20561,-15.97362 0,0 3.47867,-9.8167 8.14769,-9.8167 l 62.23737,0"
       id="path7583"
       inkscape:connector-curvature="0" />
    <path
       style="fill:none;stroke:#000000;stroke-width:0.99999994px;stroke-linecap:butt;stroke-linejoin:miter;stroke-opacity:1;marker-end:url(#Arrow1Mend-1)"
       d="m 297.76633,972.42478 13.97036,0"
       id="path6444"
       inkscape:connector-curvature="0" />
    <path
       inkscape:connector-curvature="0"
       id="path6632"
       d="m 167.98888,998.57261 38.41504,0"
       style="fill:none;stroke:#000000;stroke-width:1px;stroke-linecap:butt;stroke-linejoin:miter;stroke-opacity:1;marker-end:url(#Arrow1Mend-1)" />
    <path
       style="fill:#ffffff;stroke:none"
       d="m 66.687412,928.58106 0,79.91884 97.935148,0 c -27.30739,0.7781 -68.953662,-65.70147 -97.935148,-79.91884 z"
       id="path6746"
       inkscape:connector-curvature="0"
       sodipodi:nodetypes="cccc" />
    <g
       id="g6740"
       transform="matrix(1.3977052,0,0,1.5170779,-10.762477,-590.11126)">
      <path
         inkscape:connector-curvature="0"
         id="path6083"
         d="m 55.761862,1000.9843 c 34.088914,17.1926 42.521835,52.9264 79.673938,52.9264 35.83797,0 101.39292,0 101.39292,0"
         style="fill:none;stroke:#cccccc;stroke-width:3.64996171;stroke-linecap:butt;stroke-linejoin:miter;stroke-miterlimit:4;stroke-opacity:1;stroke-dasharray:none"
         sodipodi:nodetypes="csc" />
      <path
         sodipodi:nodetypes="ccc"
         style="fill:none;stroke:#000000;stroke-width:0.68673354px;stroke-linecap:butt;stroke-linejoin:miter;stroke-opacity:1"
         d="m 56.745309,999.34472 c 29.164912,12.96358 43.546021,52.72048 76.506371,52.72048 l 103.57993,0"
         id="path4769"
         inkscape:connector-curvature="0" />
    </g>
    <path
       style="fill:none;stroke:#5599ff;stroke-width:0.35433072;stroke-linecap:butt;stroke-linejoin:miter;stroke-miterlimit:4;stroke-opacity:1;stroke-dasharray:none"
       d="m 219.22342,993.63791 c 5.5893,0.85116 15.85051,-2.55117 14.32921,-8.68195 -0.78728,-3.17145 -6.99452,-3.77007 -6.26482,2.50988"
       id="path6748"
       inkscape:connector-curvature="0"
       sodipodi:nodetypes="csc" />
    <path
       sodipodi:nodetypes="csc"
       inkscape:connector-curvature="0"
       id="path6750"
       d="m 237.52532,980.88179 c 3.74087,0.37111 10.43824,-2.24981 9.21761,-6.27437 -0.63163,-2.08188 -4.77421,-2.26346 -4.07412,1.88792"
       style="fill:none;stroke:#5599ff;stroke-width:0.35433072;stroke-linecap:butt;stroke-linejoin:miter;stroke-miterlimit:4;stroke-opacity:1;stroke-dasharray:none" />
    <path
       style="fill:none;stroke:#5599ff;stroke-width:0.35433072;stroke-linecap:butt;stroke-linejoin:miter;stroke-miterlimit:4;stroke-opacity:1;stroke-dasharray:none"
       d="m 250.1677,958.28087 c 4.22351,0.78136 12.09908,-1.54439 11.09423,-6.2248 -0.52005,-2.42118 -5.21901,-3.02641 -4.81893,1.74762"
       id="path6752"
       inkscape:connector-curvature="0"
       sodipodi:nodetypes="csc" />
    <path
       sodipodi:nodetypes="csc"
       inkscape:connector-curvature="0"
       id="path6754"
       d="m 248.78195,969.57235 c 4.07092,2.55828 13.2356,3.39551 14.13675,-1.88638 0.46592,-2.73243 -4.17315,-5.30409 -5.7427,-0.17486"
       style="fill:none;stroke:#5599ff;stroke-width:0.35433072;stroke-linecap:butt;stroke-linejoin:miter;stroke-miterlimit:4;stroke-opacity:1;stroke-dasharray:none" />
    <path
       sodipodi:nodetypes="csc"
       inkscape:connector-curvature="0"
       id="path6756"
       d="m 230.41689,980.46159 c 2.82102,-1.06392 6.71623,-5.31117 4.42302,-7.74728 -1.18642,-1.26011 -4.2297,0.0816 -2.26628,2.793"
       style="fill:none;stroke:#5599ff;stroke-width:0.35433072;stroke-linecap:butt;stroke-linejoin:miter;stroke-miterlimit:4;stroke-opacity:1;stroke-dasharray:none" />
    <path
       style="fill:none;stroke:#5599ff;stroke-width:0.35433075;stroke-linecap:butt;stroke-linejoin:miter;stroke-miterlimit:4;stroke-opacity:1;stroke-dasharray:none"
       d="m 239.73788,968.05806 c 2.69548,0.49554 7.72173,-0.97945 7.08043,-3.94774 -0.3319,-1.5355 -3.33082,-1.91934 -3.07548,1.10833"
       id="path6758"
       inkscape:connector-curvature="0"
       sodipodi:nodetypes="csc" />
    <path
       sodipodi:nodetypes="csc"
       inkscape:connector-curvature="0"
       id="path6760"
       d="m 253.88002,948.25907 c 2.69548,0.49554 7.72173,-0.97945 7.08043,-3.94774 -0.3319,-1.5355 -3.33082,-1.91934 -3.07548,1.10833"
       style="fill:none;stroke:#5599ff;stroke-width:0.35433075;stroke-linecap:butt;stroke-linejoin:miter;stroke-miterlimit:4;stroke-opacity:1;stroke-dasharray:none" />
  </g>
</svg>
