<?xml version="1.0" encoding="UTF-8" standalone="no"?>
<!-- Created with Inkscape (http://www.inkscape.org/) -->

<svg
   xmlns:dc="http://purl.org/dc/elements/1.1/"
   xmlns:cc="http://creativecommons.org/ns#"
   xmlns:rdf="http://www.w3.org/1999/02/22-rdf-syntax-ns#"
   xmlns:svg="http://www.w3.org/2000/svg"
   xmlns="http://www.w3.org/2000/svg"
   xmlns:sodipodi="http://sodipodi.sourceforge.net/DTD/sodipodi-0.dtd"
   xmlns:inkscape="http://www.inkscape.org/namespaces/inkscape"
   width="531.49603"
   height="124.01575"
   id="svg3041"
   version="1.1"
   inkscape:version="0.48.2 r9819"
   sodipodi:docname="Invloed_ruwheid.svg">
  <defs
     id="defs3043">
    <marker
       inkscape:stockid="Arrow1Lstart"
       orient="auto"
       refY="0"
       refX="0"
       id="Arrow1Lstart"
       style="overflow:visible">
      <path
         id="path4913"
         d="M 0,0 5,-5 -12.5,0 5,5 0,0 z"
         style="fill-rule:evenodd;stroke:#000000;stroke-width:1pt;marker-start:none"
         transform="matrix(0.8,0,0,0.8,10,0)"
         inkscape:connector-curvature="0" />
    </marker>
    <marker
       inkscape:stockid="Arrow1Mend"
       orient="auto"
       refY="0"
       refX="0"
       id="Arrow1Mend"
       style="overflow:visible">
      <path
         id="path4922"
         d="M 0,0 5,-5 -12.5,0 5,5 0,0 z"
         style="fill-rule:evenodd;stroke:#000000;stroke-width:1pt;marker-start:none"
         transform="matrix(-0.4,0,0,-0.4,-4,0)"
         inkscape:connector-curvature="0" />
    </marker>
    <marker
       inkscape:stockid="Arrow1Lend"
       orient="auto"
       refY="0"
       refX="0"
       id="Arrow1Lend"
       style="overflow:visible">
      <path
         id="path4916"
         d="M 0,0 5,-5 -12.5,0 5,5 0,0 z"
         style="fill-rule:evenodd;stroke:#000000;stroke-width:1pt;marker-start:none"
         transform="matrix(-0.8,0,0,-0.8,-10,0)"
         inkscape:connector-curvature="0" />
    </marker>
  </defs>
  <sodipodi:namedview
     id="base"
     pagecolor="#ffffff"
     bordercolor="#666666"
     borderopacity="1.0"
     inkscape:pageopacity="0.0"
     inkscape:pageshadow="2"
     inkscape:zoom="1.4"
     inkscape:cx="273.40031"
     inkscape:cy="139.01005"
     inkscape:document-units="mm"
     inkscape:current-layer="layer1"
     showgrid="false"
     inkscape:window-width="1366"
     inkscape:window-height="706"
     inkscape:window-x="-8"
     inkscape:window-y="-8"
     inkscape:window-maximized="1"
     units="mm">
    <inkscape:grid
       type="xygrid"
       id="grid2992"
       empspacing="5"
       visible="true"
       enabled="true"
       snapvisiblegridlinesonly="true"
       units="mm"
       spacingx="1mm"
       spacingy="1mm" />
  </sodipodi:namedview>
  <metadata
     id="metadata3046">
    <rdf:RDF>
      <cc:Work
         rdf:about="">
        <dc:format>image/svg+xml</dc:format>
        <dc:type
           rdf:resource="http://purl.org/dc/dcmitype/StillImage" />
        <dc:title></dc:title>
      </cc:Work>
    </rdf:RDF>
  </metadata>
  <g
     inkscape:label="Laag 1"
     inkscape:groupmode="layer"
     id="layer1"
     transform="translate(0,-928.34643)">
    <g
       id="g5934"
       transform="translate(0,25)">
      <g
         id="g4890">
        <path
           sodipodi:nodetypes="cssssssscccc"
           inkscape:connector-curvature="0"
           id="path4374"
           d="m 3.6132658,999.71765 c 0,0 16.8536112,-35.43307 31.8837602,-35.43307 15.030148,0 17.047687,38.10862 31.883758,35.43307 11.728949,-2.11523 4.669265,-31.25725 15.941884,-35.43307 11.272604,-4.17583 18.214282,32.36374 31.883752,17.71653 12.09698,-12.96225 32.7955,26.06819 47.82565,17.71654 15.03014,-8.35166 2.91124,-49.14919 17.30532,-39.51255 16.90049,11.31465 12.50286,31.24227 27.33893,33.91784 11.72894,2.11523 22.96882,-26.30283 22.96882,-26.30283 l 0,50.70199 -227.0318742,0 z"
           style="fill:#b3b3b3;stroke:none" />
        <path
           style="fill:none;stroke:#000000;stroke-width:0.70866144;stroke-linecap:butt;stroke-linejoin:miter;stroke-miterlimit:4;stroke-opacity:1;stroke-dasharray:none"
           d="m 3.6132658,999.71765 c 0,0 16.8536112,-35.43307 31.8837602,-35.43307 15.030148,0 17.047687,38.10862 31.883758,35.43307 11.728949,-2.11523 4.669265,-31.25725 15.941884,-35.43307 11.272604,-4.17583 18.214282,32.36374 31.883752,17.71653 12.09698,-12.96225 32.7955,26.06819 47.82565,17.71654 15.03014,-8.35166 2.91124,-49.14919 17.30532,-39.51255 16.90049,11.31465 12.50286,31.24227 27.33893,33.91784 11.72894,2.11523 22.7941,-26.30283 22.7941,-26.30283"
           id="path4368"
           inkscape:connector-curvature="0"
           sodipodi:nodetypes="csssssssc" />
        <path
           style="fill:#b3b3b3;stroke:none"
           d="m 299.04668,996.54977 c 0,0 16.34853,-11.69449 31.37868,-11.69449 15.03015,0 17.55277,14.37004 32.38884,11.69449 11.72895,-2.11523 10.2251,-3.98313 21.49772,-8.15895 11.27261,-4.17583 11.50589,4.15579 30.8736,-0.97129 14.62236,-3.87088 23.19905,13.44127 38.2292,5.08963 15.03014,-8.35166 7.45692,-8.74309 24.88146,-8.7029 20.33828,0.0469 9.97748,4.47323 24.81355,7.1488 11.72894,2.11523 21.95867,-6.09978 21.95867,-6.09978 l 0,33.63522 -226.02172,0 z"
           id="path4884"
           inkscape:connector-curvature="0"
           sodipodi:nodetypes="cssssssscccc" />
        <path
           sodipodi:nodetypes="csssssssc"
           inkscape:connector-curvature="0"
           id="path4372"
           d="m 299.04668,996.54977 c 0,0 16.34853,-11.69449 31.37868,-11.69449 15.03015,0 17.55277,14.37004 32.38884,11.69449 11.72895,-2.11523 10.2251,-3.98313 21.49772,-8.15895 11.27261,-4.17583 11.50589,4.15579 30.8736,-0.97129 14.62236,-3.87088 23.19905,13.44127 38.2292,5.08963 15.03014,-8.35166 7.45692,-8.74309 24.88146,-8.7029 20.33828,0.0469 9.97748,4.47323 24.81355,7.1488 11.72894,2.11523 22.28902,-6.09978 22.28902,-6.09978"
           style="fill:none;stroke:#000000;stroke-width:0.70866144;stroke-linecap:butt;stroke-linejoin:miter;stroke-miterlimit:4;stroke-opacity:1;stroke-dasharray:none" />
        <path
           style="fill:none;stroke:#000000;stroke-width:0.35433072;stroke-linecap:butt;stroke-linejoin:miter;stroke-miterlimit:4;stroke-opacity:1;stroke-dasharray:2.12598425, 2.12598425;stroke-dashoffset:0"
           d="m 3.5355339,927.25566 227.0317861,0"
           id="path4886"
           inkscape:connector-curvature="0" />
        <path
           inkscape:connector-curvature="0"
           id="path4888"
           d="m 300.89471,927.25566 227.03178,0"
           style="fill:none;stroke:#000000;stroke-width:0.35433072;stroke-linecap:butt;stroke-linejoin:miter;stroke-miterlimit:4;stroke-opacity:1;stroke-dasharray:2.12598425, 2.12598425;stroke-dashoffset:0" />
      </g>
      <path
         sodipodi:nodetypes="cc"
         inkscape:connector-curvature="0"
         id="path4898"
         d="M 8.2142857,917.71932 C 87.29676,919.90133 158.48645,920.42822 227.14286,915.9336"
         style="fill:none;stroke:#000000;stroke-width:0.70866144;stroke-linecap:butt;stroke-linejoin:miter;stroke-miterlimit:4;stroke-opacity:1;stroke-dasharray:none" />
      <path
         sodipodi:nodetypes="cssssc"
         transform="translate(0,520.86614)"
         inkscape:connector-curvature="0"
         id="path4900"
         d="m 9.6428571,422.56746 c 4.7426069,-5.3127 19.7394659,-10.97316 36.4285719,-1.42857 24.812403,14.19033 34.423156,-2.85834 62.500001,2.5 13.79741,2.63317 21.47598,19.50817 54.99091,0.36774 11.6272,-6.64032 21.10689,-12.94966 32.83209,-7.12839 17.00618,8.44314 31.10557,2.83208 31.10557,2.83208"
         style="fill:none;stroke:#000000;stroke-width:0.70866144;stroke-linecap:butt;stroke-linejoin:miter;stroke-miterlimit:4;stroke-opacity:1;stroke-dasharray:none" />
      <path
         sodipodi:nodetypes="cssssc"
         transform="translate(0,520.86614)"
         inkscape:connector-curvature="0"
         id="path4904"
         d="m 11.111678,442.85515 c 0,0 17.819123,-9.32014 27.274119,-8.33376 9.181163,0.95781 15.01268,13.39679 24.243661,13.38452 6.933433,-0.009 11.298717,-9.27527 18.182746,-10.10153 11.354822,-1.36288 21.824816,11.10484 33.082496,9.09138 25.7706,-4.60913 39.55855,25.51971 47.98224,10.85913"
         style="fill:none;stroke:#000000;stroke-width:0.70866144;stroke-linecap:butt;stroke-linejoin:miter;stroke-miterlimit:4;stroke-opacity:1;stroke-dasharray:none" />
      <path
         sodipodi:nodetypes="csc"
         transform="translate(0,520.86614)"
         inkscape:connector-curvature="0"
         id="path4906"
         d="m 178.29193,429.9757 c 17.6865,-2.21081 17.92045,18.21221 31.06218,19.44543 7.3587,0.69055 17.93021,-12.87944 17.93021,-12.87944"
         style="fill:none;stroke:#000000;stroke-width:0.70866144;stroke-linecap:butt;stroke-linejoin:miter;stroke-miterlimit:4;stroke-opacity:1;stroke-dasharray:none" />
      <path
         sodipodi:nodetypes="cc"
         inkscape:connector-curvature="0"
         id="path4908"
         d="m 60,947.18361 6.69643,0.625"
         style="fill:none;stroke:#000000;stroke-width:0.70866144;stroke-linecap:butt;stroke-linejoin:miter;stroke-miterlimit:4;stroke-opacity:1;stroke-dasharray:none;marker-end:url(#Arrow1Lend)" />
      <path
         style="fill:none;stroke:#000000;stroke-width:0.70866144;stroke-linecap:butt;stroke-linejoin:miter;stroke-miterlimit:4;stroke-opacity:1;stroke-dasharray:none;marker-end:url(#Arrow1Lend)"
         d="m 56.228896,918.83852 6.428577,0.0893"
         id="path5906"
         inkscape:connector-curvature="0"
         sodipodi:nodetypes="cc" />
      <path
         sodipodi:nodetypes="cc"
         inkscape:connector-curvature="0"
         id="path5908"
         d="m 168.7289,918.57067 4.82143,-0.0893"
         style="fill:none;stroke:#000000;stroke-width:0.70866144;stroke-linecap:butt;stroke-linejoin:miter;stroke-miterlimit:4;stroke-opacity:1;stroke-dasharray:none;marker-end:url(#Arrow1Lend)" />
      <path
         style="fill:none;stroke:#000000;stroke-width:0.70866144;stroke-linecap:butt;stroke-linejoin:miter;stroke-miterlimit:4;stroke-opacity:1;stroke-dasharray:none;marker-end:url(#Arrow1Lend)"
         d="m 70.514608,964.90996 4.196435,-3.30358"
         id="path5910"
         inkscape:connector-curvature="0"
         sodipodi:nodetypes="cc" />
      <path
         sodipodi:nodetypes="cc"
         inkscape:connector-curvature="0"
         id="path5912"
         d="m 190.32072,954.28682 4.0078,3.56616"
         style="fill:none;stroke:#000000;stroke-width:0.70866144;stroke-linecap:butt;stroke-linejoin:miter;stroke-miterlimit:4;stroke-opacity:1;stroke-dasharray:none;marker-end:url(#Arrow1Lend)" />
      <path
         style="fill:none;stroke:#000000;stroke-width:0.70866144;stroke-linecap:butt;stroke-linejoin:miter;stroke-miterlimit:4;stroke-opacity:1;stroke-dasharray:none;marker-end:url(#Arrow1Lend)"
         d="m 155.51012,948.88634 5.90184,-2.99982"
         id="path5914"
         inkscape:connector-curvature="0"
         sodipodi:nodetypes="cc" />
      <path
         style="fill:none;stroke:#000000;stroke-width:0.70866144;stroke-linecap:butt;stroke-linejoin:miter;stroke-miterlimit:4;stroke-opacity:1;stroke-dasharray:none"
         d="m 302.16868,917.71932 c 79.08247,2.18201 150.27216,2.7089 218.92857,-1.78572"
         id="path5916"
         inkscape:connector-curvature="0"
         sodipodi:nodetypes="cc" />
      <path
         style="fill:none;stroke:#000000;stroke-width:0.70866144;stroke-linecap:butt;stroke-linejoin:miter;stroke-miterlimit:4;stroke-opacity:1;stroke-dasharray:none"
         d="m 302.83964,969.17326 c 5.65049,-2.43586 24.41574,-6.25569 37.18618,-3.95395 28.24176,5.09028 33.69078,3.03286 62.5,2.5 15.53018,-0.28725 29.07002,9.60291 54.99091,0.36774 12.61877,-4.49585 24.91372,-5.4981 34.8524,-3.84539 18.72956,3.11453 29.08526,-0.45092 29.08526,-0.45092"
         id="path5918"
         inkscape:connector-curvature="0"
         sodipodi:nodetypes="cssssc" />
      <path
         style="fill:none;stroke:#000000;stroke-width:0.70866144;stroke-linecap:butt;stroke-linejoin:miter;stroke-miterlimit:4;stroke-opacity:1;stroke-dasharray:none;marker-end:url(#Arrow1Lend)"
         d="m 355.46962,967.4937 4.80239,0.625"
         id="path5920"
         inkscape:connector-curvature="0"
         sodipodi:nodetypes="cc" />
      <path
         sodipodi:nodetypes="cc"
         inkscape:connector-curvature="0"
         id="path5922"
         d="m 350.18329,918.83852 6.42857,0.0893"
         style="fill:none;stroke:#000000;stroke-width:0.70866144;stroke-linecap:butt;stroke-linejoin:miter;stroke-miterlimit:4;stroke-opacity:1;stroke-dasharray:none;marker-end:url(#Arrow1Lend)" />
      <path
         style="fill:none;stroke:#000000;stroke-width:0.70866144;stroke-linecap:butt;stroke-linejoin:miter;stroke-miterlimit:4;stroke-opacity:1;stroke-dasharray:none;marker-end:url(#Arrow1Lend)"
         d="m 462.68329,918.57067 4.82143,-0.0893"
         id="path5924"
         inkscape:connector-curvature="0"
         sodipodi:nodetypes="cc" />
      <path
         sodipodi:nodetypes="cc"
         inkscape:connector-curvature="0"
         id="path5926"
         d="m 450.09586,970.14345 5.08109,-1.23205"
         style="fill:none;stroke:#000000;stroke-width:0.70866144;stroke-linecap:butt;stroke-linejoin:miter;stroke-miterlimit:4;stroke-opacity:1;stroke-dasharray:none;marker-end:url(#Arrow1Lend)" />
      <path
         sodipodi:nodetypes="cssssc"
         inkscape:connector-curvature="0"
         id="path5928"
         d="m 302.83964,945.60184 c 7.30007,-0.38208 25.35174,-0.8704 37.18618,-1.27538 28.68004,-0.98143 33.77362,2.06864 62.5,-0.17857 15.74016,-1.23132 30.52653,2.37382 54.99091,0.36774 13.57152,-1.11287 26.50332,-1.23474 35.38811,-1.34539 18.94619,-0.23595 27.65669,0.37219 27.65669,0.62051"
         style="fill:none;stroke:#000000;stroke-width:0.70866144;stroke-linecap:butt;stroke-linejoin:miter;stroke-miterlimit:4;stroke-opacity:1;stroke-dasharray:none" />
      <path
         sodipodi:nodetypes="cc"
         inkscape:connector-curvature="0"
         id="path5930"
         d="m 351.80782,944.11168 6.00194,0.11993"
         style="fill:none;stroke:#000000;stroke-width:0.70866144;stroke-linecap:butt;stroke-linejoin:miter;stroke-miterlimit:4;stroke-opacity:1;stroke-dasharray:none;marker-end:url(#Arrow1Lend)" />
      <path
         style="fill:none;stroke:#000000;stroke-width:0.70866144;stroke-linecap:butt;stroke-linejoin:miter;stroke-miterlimit:4;stroke-opacity:1;stroke-dasharray:none;marker-end:url(#Arrow1Lend)"
         d="m 450.41153,944.80426 4.51288,-0.22189"
         id="path5932"
         inkscape:connector-curvature="0"
         sodipodi:nodetypes="cc" />
    </g>
    <path
       style="fill:none;stroke:#000000;stroke-width:0.35433072;stroke-linecap:butt;stroke-linejoin:miter;stroke-miterlimit:4;stroke-opacity:1;stroke-dasharray:none;marker-start:url(#Arrow1Lstart);marker-end:url(#Arrow1Lend)"
       d="m 247.2208,952.00503 0,69.28567"
       id="path5962"
       inkscape:connector-curvature="0" />
    <text
       xml:space="preserve"
       style="font-size:13px;font-style:normal;font-variant:normal;font-weight:normal;font-stretch:normal;line-height:125%;letter-spacing:0px;word-spacing:0px;fill:#000000;fill-opacity:1;stroke:none;font-family:Arial;-inkscape-font-specification:Arial"
       x="247.73993"
       y="989.22632"
       id="text6338"
       sodipodi:linespacing="125%"><tspan
         sodipodi:role="line"
         id="tspan6340"
         x="247.73993"
         y="989.22632">$\delta_{laminair}$</tspan></text>
  </g>
</svg>
