<?xml version="1.0" encoding="UTF-8" standalone="no"?>
<!-- Created with Inkscape (http://www.inkscape.org/) -->

<svg
   xmlns:ns0="http://www.iki.fi/pav/software/textext/"
   xmlns:dc="http://purl.org/dc/elements/1.1/"
   xmlns:cc="http://creativecommons.org/ns#"
   xmlns:rdf="http://www.w3.org/1999/02/22-rdf-syntax-ns#"
   xmlns:svg="http://www.w3.org/2000/svg"
   xmlns="http://www.w3.org/2000/svg"
   xmlns:sodipodi="http://sodipodi.sourceforge.net/DTD/sodipodi-0.dtd"
   xmlns:inkscape="http://www.inkscape.org/namespaces/inkscape"
   width="531.49603"
   height="124.01575"
   id="svg3041"
   version="1.1"
   inkscape:version="0.48.2 r9819"
   sodipodi:docname="Invloed_ruwheid.svg">
  <sodipodi:namedview
     id="base"
     pagecolor="#ffffff"
     bordercolor="#666666"
     borderopacity="1.0"
     inkscape:pageopacity="0.0"
     inkscape:pageshadow="2"
     inkscape:zoom="1.979899"
     inkscape:cx="311.32821"
     inkscape:cy="97.081617"
     inkscape:document-units="mm"
     inkscape:current-layer="layer1"
     showgrid="false"
     inkscape:window-width="1366"
     inkscape:window-height="706"
     inkscape:window-x="-8"
     inkscape:window-y="-8"
     inkscape:window-maximized="1"
     units="mm">
    <inkscape:grid
       spacingy="1mm"
       spacingx="1mm"
       units="mm"
       snapvisiblegridlinesonly="true"
       enabled="true"
       visible="true"
       empspacing="5"
       id="grid2992"
       type="xygrid" />
  </sodipodi:namedview>
  <defs
     id="defs3043">
    <marker
       style="overflow:visible"
       id="Arrow1Lstart"
       refX="0"
       refY="0"
       orient="auto"
       inkscape:stockid="Arrow1Lstart">
      <path
         inkscape:connector-curvature="0"
         transform="matrix(0.8,0,0,0.8,10,0)"
         style="fill-rule:evenodd;stroke:#000000;stroke-width:1pt;marker-start:none"
         d="M 0,0 5,-5 -12.5,0 5,5 0,0 z"
         id="path4913" />
    </marker>
    <marker
       style="overflow:visible"
       id="Arrow1Mend"
       refX="0"
       refY="0"
       orient="auto"
       inkscape:stockid="Arrow1Mend">
      <path
         inkscape:connector-curvature="0"
         transform="matrix(-0.4,0,0,-0.4,-4,0)"
         style="fill-rule:evenodd;stroke:#000000;stroke-width:1pt;marker-start:none"
         d="M 0,0 5,-5 -12.5,0 5,5 0,0 z"
         id="path4922" />
    </marker>
    <marker
       style="overflow:visible"
       id="Arrow1Lend"
       refX="0"
       refY="0"
       orient="auto"
       inkscape:stockid="Arrow1Lend">
      <path
         inkscape:connector-curvature="0"
         transform="matrix(-0.8,0,0,-0.8,-10,0)"
         style="fill-rule:evenodd;stroke:#000000;stroke-width:1pt;marker-start:none"
         d="M 0,0 5,-5 -12.5,0 5,5 0,0 z"
         id="path4916" />
    </marker>
  </defs>
  <metadata
     id="metadata3046">
    <rdf:RDF>
      <cc:Work
         rdf:about="">
        <dc:format>image/svg+xml</dc:format>
        <dc:type
           rdf:resource="http://purl.org/dc/dcmitype/StillImage" />
        <dc:title />
      </cc:Work>
    </rdf:RDF>
  </metadata>
  <g
     transform="translate(0,-928.34643)"
     id="layer1"
     inkscape:groupmode="layer"
     inkscape:label="Laag 1">
    <g
       transform="translate(0,25)"
       id="g5934">
      <g
         id="g4890">
        <path
           style="fill:#b3b3b3;stroke:none"
           d="m 3.6132658,999.71765 c 0,0 16.8536112,-35.43307 31.8837602,-35.43307 15.030148,0 17.047687,38.10862 31.883758,35.43307 11.728949,-2.11523 4.669265,-31.25725 15.941884,-35.43307 11.272604,-4.17583 18.214282,32.36374 31.883752,17.71653 12.09698,-12.96225 32.7955,26.06819 47.82565,17.71654 15.03014,-8.35166 2.91124,-49.14919 17.30532,-39.51255 16.90049,11.31465 12.50286,31.24227 27.33893,33.91784 11.72894,2.11523 22.96882,-26.30283 22.96882,-26.30283 l 0,50.70199 -227.0318742,0 z"
           id="path4374"
           inkscape:connector-curvature="0"
           sodipodi:nodetypes="cssssssscccc" />
        <path
           sodipodi:nodetypes="csssssssc"
           inkscape:connector-curvature="0"
           id="path4368"
           d="m 3.6132658,999.71765 c 0,0 16.8536112,-35.43307 31.8837602,-35.43307 15.030148,0 17.047687,38.10862 31.883758,35.43307 11.728949,-2.11523 4.669265,-31.25725 15.941884,-35.43307 11.272604,-4.17583 18.214282,32.36374 31.883752,17.71653 12.09698,-12.96225 32.7955,26.06819 47.82565,17.71654 15.03014,-8.35166 2.91124,-49.14919 17.30532,-39.51255 16.90049,11.31465 12.50286,31.24227 27.33893,33.91784 11.72894,2.11523 22.7941,-26.30283 22.7941,-26.30283"
           style="fill:none;stroke:#000000;stroke-width:0.70866144;stroke-linecap:butt;stroke-linejoin:miter;stroke-miterlimit:4;stroke-opacity:1;stroke-dasharray:none" />
        <path
           sodipodi:nodetypes="cssssssscccc"
           inkscape:connector-curvature="0"
           id="path4884"
           d="m 299.04668,996.54977 c 0,0 16.34853,-11.69449 31.37868,-11.69449 15.03015,0 17.55277,14.37004 32.38884,11.69449 11.72895,-2.11523 10.2251,-3.98313 21.49772,-8.15895 11.27261,-4.17583 11.50589,4.15579 30.8736,-0.97129 14.62236,-3.87088 23.19905,13.44127 38.2292,5.08963 15.03014,-8.35166 7.45692,-8.74309 24.88146,-8.7029 20.33828,0.0469 9.97748,4.47323 24.81355,7.1488 11.72894,2.11523 21.95867,-6.09978 21.95867,-6.09978 l 0,33.63522 -226.02172,0 z"
           style="fill:#b3b3b3;stroke:none" />
        <path
           style="fill:none;stroke:#000000;stroke-width:0.70866144;stroke-linecap:butt;stroke-linejoin:miter;stroke-miterlimit:4;stroke-opacity:1;stroke-dasharray:none"
           d="m 299.04668,996.54977 c 0,0 16.34853,-11.69449 31.37868,-11.69449 15.03015,0 17.55277,14.37004 32.38884,11.69449 11.72895,-2.11523 10.2251,-3.98313 21.49772,-8.15895 11.27261,-4.17583 11.50589,4.15579 30.8736,-0.97129 14.62236,-3.87088 23.19905,13.44127 38.2292,5.08963 15.03014,-8.35166 7.45692,-8.74309 24.88146,-8.7029 20.33828,0.0469 9.97748,4.47323 24.81355,7.1488 11.72894,2.11523 22.28902,-6.09978 22.28902,-6.09978"
           id="path4372"
           inkscape:connector-curvature="0"
           sodipodi:nodetypes="csssssssc" />
        <path
           inkscape:connector-curvature="0"
           id="path4886"
           d="m 3.5355339,927.25566 227.0317861,0"
           style="fill:none;stroke:#000000;stroke-width:0.35433072;stroke-linecap:butt;stroke-linejoin:miter;stroke-miterlimit:4;stroke-opacity:1;stroke-dasharray:2.12598425, 2.12598425;stroke-dashoffset:0" />
        <path
           style="fill:none;stroke:#000000;stroke-width:0.35433072;stroke-linecap:butt;stroke-linejoin:miter;stroke-miterlimit:4;stroke-opacity:1;stroke-dasharray:2.12598425, 2.12598425;stroke-dashoffset:0"
           d="m 300.89471,927.25566 227.03178,0"
           id="path4888"
           inkscape:connector-curvature="0" />
      </g>
      <path
         style="fill:none;stroke:#000000;stroke-width:0.70866144;stroke-linecap:butt;stroke-linejoin:miter;stroke-miterlimit:4;stroke-opacity:1;stroke-dasharray:none"
         d="M 8.2142857,917.71932 C 87.29676,919.90133 158.48645,920.42822 227.14286,915.9336"
         id="path4898"
         inkscape:connector-curvature="0"
         sodipodi:nodetypes="cc" />
      <path
         style="fill:none;stroke:#000000;stroke-width:0.70866144;stroke-linecap:butt;stroke-linejoin:miter;stroke-miterlimit:4;stroke-opacity:1;stroke-dasharray:none"
         d="m 9.6428571,422.56746 c 4.7426069,-5.3127 19.7394659,-10.97316 36.4285719,-1.42857 24.812403,14.19033 34.423156,-2.85834 62.500001,2.5 13.79741,2.63317 21.47598,19.50817 54.99091,0.36774 11.6272,-6.64032 21.10689,-12.94966 32.83209,-7.12839 17.00618,8.44314 31.10557,2.83208 31.10557,2.83208"
         id="path4900"
         inkscape:connector-curvature="0"
         transform="translate(0,520.86614)"
         sodipodi:nodetypes="cssssc" />
      <path
         style="fill:none;stroke:#000000;stroke-width:0.70866144;stroke-linecap:butt;stroke-linejoin:miter;stroke-miterlimit:4;stroke-opacity:1;stroke-dasharray:none"
         d="m 11.111678,442.85515 c 0,0 17.819123,-9.32014 27.274119,-8.33376 9.181163,0.95781 15.01268,13.39679 24.243661,13.38452 6.933433,-0.009 11.298717,-9.27527 18.182746,-10.10153 11.354822,-1.36288 21.824816,11.10484 33.082496,9.09138 25.7706,-4.60913 39.55855,25.51971 47.98224,10.85913"
         id="path4904"
         inkscape:connector-curvature="0"
         transform="translate(0,520.86614)"
         sodipodi:nodetypes="cssssc" />
      <path
         style="fill:none;stroke:#000000;stroke-width:0.70866144;stroke-linecap:butt;stroke-linejoin:miter;stroke-miterlimit:4;stroke-opacity:1;stroke-dasharray:none"
         d="m 178.29193,429.9757 c 17.6865,-2.21081 17.92045,18.21221 31.06218,19.44543 7.3587,0.69055 17.93021,-12.87944 17.93021,-12.87944"
         id="path4906"
         inkscape:connector-curvature="0"
         transform="translate(0,520.86614)"
         sodipodi:nodetypes="csc" />
      <path
         style="fill:none;stroke:#000000;stroke-width:0.70866144;stroke-linecap:butt;stroke-linejoin:miter;stroke-miterlimit:4;stroke-opacity:1;stroke-dasharray:none;marker-end:url(#Arrow1Lend)"
         d="m 60,947.18361 6.69643,0.625"
         id="path4908"
         inkscape:connector-curvature="0"
         sodipodi:nodetypes="cc" />
      <path
         sodipodi:nodetypes="cc"
         inkscape:connector-curvature="0"
         id="path5906"
         d="m 56.228896,918.83852 6.428577,0.0893"
         style="fill:none;stroke:#000000;stroke-width:0.70866144;stroke-linecap:butt;stroke-linejoin:miter;stroke-miterlimit:4;stroke-opacity:1;stroke-dasharray:none;marker-end:url(#Arrow1Lend)" />
      <path
         style="fill:none;stroke:#000000;stroke-width:0.70866144;stroke-linecap:butt;stroke-linejoin:miter;stroke-miterlimit:4;stroke-opacity:1;stroke-dasharray:none;marker-end:url(#Arrow1Lend)"
         d="m 168.7289,918.57067 4.82143,-0.0893"
         id="path5908"
         inkscape:connector-curvature="0"
         sodipodi:nodetypes="cc" />
      <path
         sodipodi:nodetypes="cc"
         inkscape:connector-curvature="0"
         id="path5910"
         d="m 70.514608,964.90996 4.196435,-3.30358"
         style="fill:none;stroke:#000000;stroke-width:0.70866144;stroke-linecap:butt;stroke-linejoin:miter;stroke-miterlimit:4;stroke-opacity:1;stroke-dasharray:none;marker-end:url(#Arrow1Lend)" />
      <path
         style="fill:none;stroke:#000000;stroke-width:0.70866144;stroke-linecap:butt;stroke-linejoin:miter;stroke-miterlimit:4;stroke-opacity:1;stroke-dasharray:none;marker-end:url(#Arrow1Lend)"
         d="m 190.32072,954.28682 4.0078,3.56616"
         id="path5912"
         inkscape:connector-curvature="0"
         sodipodi:nodetypes="cc" />
      <path
         sodipodi:nodetypes="cc"
         inkscape:connector-curvature="0"
         id="path5914"
         d="m 155.51012,948.88634 5.90184,-2.99982"
         style="fill:none;stroke:#000000;stroke-width:0.70866144;stroke-linecap:butt;stroke-linejoin:miter;stroke-miterlimit:4;stroke-opacity:1;stroke-dasharray:none;marker-end:url(#Arrow1Lend)" />
      <path
         sodipodi:nodetypes="cc"
         inkscape:connector-curvature="0"
         id="path5916"
         d="m 302.16868,917.71932 c 79.08247,2.18201 150.27216,2.7089 218.92857,-1.78572"
         style="fill:none;stroke:#000000;stroke-width:0.70866144;stroke-linecap:butt;stroke-linejoin:miter;stroke-miterlimit:4;stroke-opacity:1;stroke-dasharray:none" />
      <path
         sodipodi:nodetypes="cssssc"
         inkscape:connector-curvature="0"
         id="path5918"
         d="m 302.83964,969.17326 c 5.65049,-2.43586 24.41574,-6.25569 37.18618,-3.95395 28.24176,5.09028 33.69078,3.03286 62.5,2.5 15.53018,-0.28725 29.07002,9.60291 54.99091,0.36774 12.61877,-4.49585 24.91372,-5.4981 34.8524,-3.84539 18.72956,3.11453 29.08526,-0.45092 29.08526,-0.45092"
         style="fill:none;stroke:#000000;stroke-width:0.70866144;stroke-linecap:butt;stroke-linejoin:miter;stroke-miterlimit:4;stroke-opacity:1;stroke-dasharray:none" />
      <path
         sodipodi:nodetypes="cc"
         inkscape:connector-curvature="0"
         id="path5920"
         d="m 355.46962,967.4937 4.80239,0.625"
         style="fill:none;stroke:#000000;stroke-width:0.70866144;stroke-linecap:butt;stroke-linejoin:miter;stroke-miterlimit:4;stroke-opacity:1;stroke-dasharray:none;marker-end:url(#Arrow1Lend)" />
      <path
         style="fill:none;stroke:#000000;stroke-width:0.70866144;stroke-linecap:butt;stroke-linejoin:miter;stroke-miterlimit:4;stroke-opacity:1;stroke-dasharray:none;marker-end:url(#Arrow1Lend)"
         d="m 350.18329,918.83852 6.42857,0.0893"
         id="path5922"
         inkscape:connector-curvature="0"
         sodipodi:nodetypes="cc" />
      <path
         sodipodi:nodetypes="cc"
         inkscape:connector-curvature="0"
         id="path5924"
         d="m 462.68329,918.57067 4.82143,-0.0893"
         style="fill:none;stroke:#000000;stroke-width:0.70866144;stroke-linecap:butt;stroke-linejoin:miter;stroke-miterlimit:4;stroke-opacity:1;stroke-dasharray:none;marker-end:url(#Arrow1Lend)" />
      <path
         style="fill:none;stroke:#000000;stroke-width:0.70866144;stroke-linecap:butt;stroke-linejoin:miter;stroke-miterlimit:4;stroke-opacity:1;stroke-dasharray:none;marker-end:url(#Arrow1Lend)"
         d="m 450.09586,970.14345 5.08109,-1.23205"
         id="path5926"
         inkscape:connector-curvature="0"
         sodipodi:nodetypes="cc" />
      <path
         style="fill:none;stroke:#000000;stroke-width:0.70866144;stroke-linecap:butt;stroke-linejoin:miter;stroke-miterlimit:4;stroke-opacity:1;stroke-dasharray:none"
         d="m 302.83964,945.60184 c 7.30007,-0.38208 25.35174,-0.8704 37.18618,-1.27538 28.68004,-0.98143 33.77362,2.06864 62.5,-0.17857 15.74016,-1.23132 30.52653,2.37382 54.99091,0.36774 13.57152,-1.11287 26.50332,-1.23474 35.38811,-1.34539 18.94619,-0.23595 27.65669,0.37219 27.65669,0.62051"
         id="path5928"
         inkscape:connector-curvature="0"
         sodipodi:nodetypes="cssssc" />
      <path
         style="fill:none;stroke:#000000;stroke-width:0.70866144;stroke-linecap:butt;stroke-linejoin:miter;stroke-miterlimit:4;stroke-opacity:1;stroke-dasharray:none;marker-end:url(#Arrow1Lend)"
         d="m 351.80782,944.11168 6.00194,0.11993"
         id="path5930"
         inkscape:connector-curvature="0"
         sodipodi:nodetypes="cc" />
      <path
         sodipodi:nodetypes="cc"
         inkscape:connector-curvature="0"
         id="path5932"
         d="m 450.41153,944.80426 4.51288,-0.22189"
         style="fill:none;stroke:#000000;stroke-width:0.70866144;stroke-linecap:butt;stroke-linejoin:miter;stroke-miterlimit:4;stroke-opacity:1;stroke-dasharray:none;marker-end:url(#Arrow1Lend)" />
    </g>
    <path
       inkscape:connector-curvature="0"
       id="path5962"
       d="m 247.2208,952.00503 0,69.28567"
       style="fill:none;stroke:#000000;stroke-width:0.35433072;stroke-linecap:butt;stroke-linejoin:miter;stroke-miterlimit:4;stroke-opacity:1;stroke-dasharray:none;marker-start:url(#Arrow1Lstart);marker-end:url(#Arrow1Lend)" />
    <g
       ns0:preamble="D:\\Onderwijs\\FLUI\\Cursus\\FLUI_theorie\\tex\\commands.tex"
       ns0:text="$\\delta_{\\text{laminair}}$"
       word-spacing="normal"
       letter-spacing="normal"
       font-size-adjust="none"
       font-stretch="normal"
       font-weight="normal"
       font-variant="normal"
       font-style="normal"
       stroke-miterlimit="10.433"
       xml:space="preserve"
       transform="matrix(1.25,0,0,-1.25,-29.285714,1875)"
       id="content"
       style="font-style:normal;font-variant:normal;font-weight:normal;font-stretch:normal;letter-spacing:normal;word-spacing:normal;text-anchor:start;fill:none;stroke:#000000;stroke-linecap:butt;stroke-linejoin:miter;stroke-miterlimit:10.43299961;stroke-opacity:1;stroke-dasharray:none;stroke-dashoffset:0">
<path
   id="path3062"
   d="m 226.06,711.47 -0.12,-0.03 -0.11,-0.04 -0.11,-0.04 -0.11,-0.05 -0.11,-0.05 -0.11,-0.06 -0.1,-0.06 -0.1,-0.07 -0.1,-0.07 -0.09,-0.07 -0.1,-0.08 -0.09,-0.08 -0.08,-0.09 -0.09,-0.08 -0.08,-0.1 -0.07,-0.09 -0.07,-0.1 -0.07,-0.1 -0.07,-0.1 -0.06,-0.1 -0.06,-0.11 -0.05,-0.11 -0.05,-0.1 -0.04,-0.11 -0.04,-0.11 -0.03,-0.12 -0.03,-0.11 -0.03,-0.11 -0.02,-0.12 -0.01,-0.11 -0.01,-0.11 0,-0.12 c 0,-0.95 0.64,-1.66 1.57,-1.66 v 0.21 c -0.54,0 -0.95,0.42 -0.95,1.18 0,0.62 0.37,2.49 1.71,2.85 h 0 c 0.25,-0.46 0.55,-1 0.55,-1.71 0,-0.66 -0.38,-2.32 -1.31,-2.32 v -0.21 c 1.17,0 1.99,1.56 1.99,2.93 0,0.9 -0.4,1.4 -0.73,1.84 -0.36,0.45 -0.95,1.2 -0.95,1.63 0,0.22 0.2,0.46 0.55,0.46 0.3,0 0.49,-0.13 0.7,-0.27 0.2,-0.12 0.4,-0.25 0.55,-0.25 0.25,0 0.4,0.24 0.4,0.4 0,0.22 -0.16,0.25 -0.52,0.33 -0.52,0.11 -0.65,0.11 -0.81,0.11 -0.78,0 -1.14,-0.43 -1.14,-1.03 0,-0.53 0.29,-1.09 0.6,-1.69 z"
   inkscape:connector-curvature="0"
   style="fill:#000000;stroke-width:0" />
<path
   id="path3064"
   d="m 229.29,710.46 -1.04,-0.08 v -0.25 c 0.47,0 0.52,-0.05 0.52,-0.39 v -3.56 c 0,-0.3 -0.07,-0.3 -0.52,-0.3 v -0.25 c 0.01,0 0.5,0.03 0.78,0.03 0.26,0 0.52,-0.01 0.79,-0.03 v 0.25 c -0.46,0 -0.53,0 -0.53,0.3 z"
   inkscape:connector-curvature="0"
   style="fill:#000000;stroke-width:0" />
<path
   id="path3066"
   d="m 233.22,707.49 0,0.07 0,0.07 0,0.06 0,0.06 -0.01,0.03 0,0.03 0,0.03 -0.01,0.03 0,0.03 -0.01,0.03 0,0.02 -0.01,0.03 -0.01,0.03 -0.01,0.02 -0.01,0.03 -0.01,0.03 -0.01,0.02 -0.01,0.03 -0.02,0.02 -0.01,0.03 -0.02,0.02 -0.02,0.03 -0.02,0.02 -0.02,0.03 -0.03,0.02 -0.02,0.03 -0.03,0.02 -0.03,0.03 c -0.28,0.23 -0.62,0.34 -1.03,0.34 -0.66,0 -1.13,-0.25 -1.13,-0.67 0,-0.22 0.16,-0.34 0.34,-0.34 0.18,0 0.32,0.14 0.32,0.32 0,0.12 -0.05,0.27 -0.24,0.32 0.25,0.18 0.66,0.18 0.7,0.18 0.39,0 0.81,-0.26 0.81,-0.84 v -0.22 -0.18 -0.69 c 0,-0.67 -0.58,-0.85 -0.9,-0.85 -0.35,0 -0.69,0.23 -0.69,0.57 0,0.39 0.34,0.92 1.59,0.97 v 0.18 c -0.38,-0.01 -0.84,-0.03 -1.35,-0.22 -0.63,-0.23 -0.82,-0.61 -0.82,-0.93 0,-0.6 0.72,-0.77 1.22,-0.77 0.55,0 0.88,0.31 1.03,0.59 0.03,-0.29 0.21,-0.55 0.53,-0.55 0.02,0 0.69,0 0.69,0.66 v 0.38 h -0.23 v -0.38 c 0,-0.07 0,-0.4 -0.26,-0.4 -0.26,0 -0.26,0.33 -0.26,0.42 z"
   inkscape:connector-curvature="0"
   style="fill:#000000;stroke-width:0" />
<path
   id="path3068"
   d="m 239.81,707.74 0,0.05 0,0.06 -0.01,0.05 0,0.05 -0.01,0.05 -0.01,0.05 -0.01,0.05 -0.02,0.04 -0.01,0.05 -0.02,0.04 -0.02,0.04 -0.02,0.04 -0.03,0.03 -0.02,0.04 -0.03,0.03 -0.03,0.03 -0.03,0.03 -0.04,0.03 -0.04,0.03 -0.03,0.02 -0.05,0.03 -0.04,0.02 -0.05,0.02 -0.05,0.01 -0.05,0.02 -0.05,0.01 -0.06,0.01 -0.05,0.01 -0.07,0.01 -0.06,0 -0.06,0.01 -0.07,0 c -0.55,0 -0.93,-0.3 -1.12,-0.65 -0.14,0.49 -0.51,0.65 -1.02,0.65 -0.57,0 -0.94,-0.31 -1.14,-0.68 h 0 v 0.68 l -1.03,-0.08 v -0.25 c 0.47,0 0.53,-0.05 0.53,-0.39 v -1.8 c 0,-0.3 -0.07,-0.3 -0.53,-0.3 v -0.25 c 0.02,0 0.5,0.03 0.8,0.03 0.25,0 0.73,-0.02 0.8,-0.03 v 0.25 c -0.46,0 -0.52,0 -0.52,0.3 v 1.25 c 0,0.73 0.57,1.07 1.03,1.07 0.49,0 0.55,-0.38 0.55,-0.73 v -1.59 c 0,-0.3 -0.07,-0.3 -0.52,-0.3 v -0.25 c 0.02,0 0.5,0.03 0.8,0.03 0.25,0 0.73,-0.02 0.8,-0.03 v 0.25 c -0.46,0 -0.53,0 -0.53,0.3 v 1.25 c 0,0.73 0.58,1.07 1.04,1.07 0.49,0 0.55,-0.38 0.55,-0.73 v -1.59 c 0,-0.3 -0.07,-0.3 -0.52,-0.3 v -0.25 c 0.01,0 0.5,0.03 0.79,0.03 0.26,0 0.74,-0.02 0.8,-0.03 v 0.25 c -0.45,0 -0.52,0 -0.52,0.3 z"
   inkscape:connector-curvature="0"
   style="fill:#000000;stroke-width:0" />
<path
   id="path3070"
   d="m 242.1,709.92 0,0.02 0,0.02 0,0.02 -0.01,0.02 0,0.01 -0.01,0.02 0,0.02 -0.01,0.02 -0.01,0.02 0,0.01 -0.01,0.02 -0.01,0.02 -0.02,0.01 -0.01,0.02 -0.01,0.01 -0.01,0.02 -0.02,0.01 -0.01,0.01 -0.02,0.01 -0.01,0.02 -0.02,0.01 -0.01,0.01 -0.02,0.01 -0.02,0 -0.02,0.01 -0.02,0.01 -0.02,0 -0.02,0.01 -0.02,0 -0.02,0.01 -0.02,0 -0.02,0 c -0.21,0 -0.4,-0.17 -0.4,-0.4 0,-0.25 0.2,-0.4 0.4,-0.4 0.22,0 0.4,0.17 0.4,0.4 z"
   inkscape:connector-curvature="0"
   style="fill:#000000;stroke-width:0" />
<path
   id="path3072"
   d="m 241.04,708.62 v -0.25 c 0.44,0 0.5,-0.04 0.5,-0.38 v -1.81 c 0,-0.3 -0.07,-0.3 -0.52,-0.3 v -0.25 c 0.02,0 0.5,0.03 0.78,0.03 0.25,0 0.5,-0.01 0.74,-0.03 v 0.25 c -0.4,0 -0.47,0 -0.47,0.29 v 2.53 z"
   inkscape:connector-curvature="0"
   style="fill:#000000;stroke-width:0" />
<path
   id="path3074"
   d="m 246.47,707.74 0,0.05 0,0.06 0,0.05 -0.01,0.05 -0.01,0.05 -0.01,0.05 -0.01,0.05 -0.01,0.04 -0.02,0.05 -0.02,0.04 -0.02,0.04 -0.02,0.04 -0.02,0.03 -0.03,0.04 -0.03,0.03 -0.03,0.03 -0.03,0.03 -0.04,0.03 -0.03,0.03 -0.04,0.02 -0.04,0.03 -0.05,0.02 -0.04,0.02 -0.05,0.01 -0.05,0.02 -0.06,0.01 -0.05,0.01 -0.06,0.01 -0.06,0.01 -0.07,0 -0.06,0.01 -0.07,0 c -0.57,0 -0.94,-0.31 -1.14,-0.68 h 0 v 0.68 l -1.03,-0.08 v -0.25 c 0.47,0 0.53,-0.05 0.53,-0.39 v -1.8 c 0,-0.3 -0.07,-0.3 -0.53,-0.3 v -0.25 c 0.02,0 0.5,0.03 0.8,0.03 0.26,0 0.73,-0.02 0.8,-0.03 v 0.25 c -0.46,0 -0.52,0 -0.52,0.3 v 1.25 c 0,0.73 0.57,1.07 1.03,1.07 0.49,0 0.55,-0.38 0.55,-0.73 v -1.59 c 0,-0.3 -0.07,-0.3 -0.52,-0.3 v -0.25 c 0.01,0 0.5,0.03 0.8,0.03 0.25,0 0.73,-0.02 0.8,-0.03 v 0.25 c -0.46,0 -0.53,0 -0.53,0.3 z"
   inkscape:connector-curvature="0"
   style="fill:#000000;stroke-width:0" />
<path
   id="path3076"
   d="m 250.39,707.49 0,0.07 0,0.07 0,0.06 0,0.06 0,0.03 -0.01,0.03 0,0.03 0,0.03 -0.01,0.03 0,0.03 -0.01,0.02 -0.01,0.03 0,0.03 -0.01,0.02 -0.01,0.03 -0.01,0.03 -0.02,0.02 -0.01,0.03 -0.02,0.02 -0.01,0.03 -0.02,0.02 -0.02,0.03 -0.02,0.02 -0.02,0.03 -0.02,0.02 -0.03,0.03 -0.03,0.02 -0.03,0.03 c -0.28,0.23 -0.62,0.34 -1.03,0.34 -0.66,0 -1.13,-0.25 -1.13,-0.67 0,-0.22 0.16,-0.34 0.34,-0.34 0.19,0 0.33,0.14 0.33,0.32 0,0.12 -0.06,0.27 -0.25,0.32 0.25,0.18 0.66,0.18 0.7,0.18 0.39,0 0.81,-0.26 0.81,-0.84 v -0.22 -0.18 -0.69 c 0,-0.67 -0.58,-0.85 -0.89,-0.85 -0.36,0 -0.69,0.23 -0.69,0.57 0,0.39 0.33,0.92 1.58,0.97 v 0.18 c -0.38,-0.01 -0.84,-0.03 -1.35,-0.22 -0.62,-0.23 -0.82,-0.61 -0.82,-0.93 0,-0.6 0.73,-0.77 1.22,-0.77 0.56,0 0.88,0.31 1.03,0.59 0.03,-0.29 0.22,-0.55 0.54,-0.55 0.01,0 0.69,0 0.69,0.66 v 0.38 h -0.24 v -0.38 c 0,-0.07 0,-0.4 -0.26,-0.4 -0.26,0 -0.26,0.33 -0.26,0.42 z"
   inkscape:connector-curvature="0"
   style="fill:#000000;stroke-width:0" />
<path
   id="path3078"
   d="m 252.73,709.92 0,0.02 0,0.02 -0.01,0.02 0,0.02 0,0.01 -0.01,0.02 0,0.02 -0.01,0.02 -0.01,0.02 -0.01,0.01 -0.01,0.02 -0.01,0.02 -0.01,0.01 -0.01,0.02 -0.01,0.01 -0.01,0.02 -0.02,0.01 -0.01,0.01 -0.02,0.01 -0.01,0.02 -0.02,0.01 -0.02,0.01 -0.01,0.01 -0.02,0 -0.02,0.01 -0.02,0.01 -0.02,0 -0.02,0.01 -0.02,0 -0.02,0.01 -0.02,0 -0.03,0 c -0.2,0 -0.39,-0.17 -0.39,-0.4 0,-0.25 0.2,-0.4 0.39,-0.4 0.23,0 0.41,0.17 0.41,0.4 z"
   inkscape:connector-curvature="0"
   style="fill:#000000;stroke-width:0" />
<path
   id="path3080"
   d="m 251.67,708.62 v -0.25 c 0.44,0 0.5,-0.04 0.5,-0.38 v -1.81 c 0,-0.3 -0.07,-0.3 -0.52,-0.3 v -0.25 c 0.01,0 0.5,0.03 0.78,0.03 0.24,0 0.49,-0.01 0.74,-0.03 v 0.25 c -0.41,0 -0.48,0 -0.48,0.29 v 2.53 z"
   inkscape:connector-curvature="0"
   style="fill:#000000;stroke-width:0" />
<path
   id="path3082"
   d="m 254.9,707.22 0,0.05 0,0.06 0.01,0.05 0,0.06 0.01,0.06 0.01,0.05 0.01,0.06 0.01,0.05 0.02,0.06 0.01,0.05 0.02,0.06 0.02,0.05 0.02,0.05 0.03,0.05 0.02,0.05 0.03,0.05 0.03,0.04 0.03,0.05 0.03,0.04 0.04,0.04 0.03,0.04 0.04,0.03 0.05,0.03 0.04,0.03 0.04,0.03 0.05,0.02 0.05,0.02 0.05,0.02 0.06,0.02 0.05,0 0.06,0.01 0.06,0 c -0.06,-0.05 -0.12,-0.14 -0.12,-0.25 0,-0.23 0.19,-0.32 0.32,-0.32 0.17,0 0.32,0.11 0.32,0.32 0,0.24 -0.22,0.45 -0.55,0.45 -0.35,0 -0.73,-0.22 -0.94,-0.75 h -0.01 v 0.75 l -0.99,-0.08 v -0.25 c 0.46,0 0.52,-0.05 0.52,-0.39 v -1.8 c 0,-0.3 -0.07,-0.3 -0.52,-0.3 v -0.25 c 0.03,0 0.5,0.03 0.79,0.03 0.3,0 0.61,-0.01 0.9,-0.03 v 0.25 h -0.13 c -0.52,0 -0.52,0.08 -0.52,0.31 z"
   inkscape:connector-curvature="0"
   style="fill:#000000;stroke-width:0" />
</g>  </g>
</svg>
