<?xml version="1.0" encoding="UTF-8" standalone="no"?>
<!-- Created with Inkscape (http://www.inkscape.org/) -->

<svg
   xmlns:dc="http://purl.org/dc/elements/1.1/"
   xmlns:cc="http://creativecommons.org/ns#"
   xmlns:rdf="http://www.w3.org/1999/02/22-rdf-syntax-ns#"
   xmlns:svg="http://www.w3.org/2000/svg"
   xmlns="http://www.w3.org/2000/svg"
   xmlns:xlink="http://www.w3.org/1999/xlink"
   xmlns:sodipodi="http://sodipodi.sourceforge.net/DTD/sodipodi-0.dtd"
   xmlns:inkscape="http://www.inkscape.org/namespaces/inkscape"
   sodipodi:docname="hevel.svg"
   inkscape:version="0.48.2 r9819"
   version="1.1"
   id="svg3041"
   height="131.10236"
   width="354.33069">
  <sodipodi:namedview
     id="base"
     pagecolor="#ffffff"
     bordercolor="#666666"
     borderopacity="1.0"
     inkscape:pageopacity="0.0"
     inkscape:pageshadow="2"
     inkscape:zoom="2.0000001"
     inkscape:cx="121.41861"
     inkscape:cy="134.5702"
     inkscape:document-units="mm"
     inkscape:current-layer="layer1"
     showgrid="false"
     inkscape:window-width="1280"
     inkscape:window-height="962"
     inkscape:window-x="-8"
     inkscape:window-y="-8"
     inkscape:window-maximized="1"
     units="mm">
    <inkscape:grid
       type="xygrid"
       id="grid2992"
       empspacing="5"
       visible="true"
       enabled="true"
       snapvisiblegridlinesonly="true"
       units="mm"
       spacingx="1mm"
       spacingy="1mm" />
  </sodipodi:namedview>
  <defs
     id="defs3043">
    <marker
       inkscape:stockid="Arrow1Mend"
       orient="auto"
       refY="0"
       refX="0"
       id="Arrow1Mend"
       style="overflow:visible">
      <path
         inkscape:connector-curvature="0"
         id="path3779"
         d="M 0,0 5,-5 -12.5,0 5,5 0,0 z"
         style="fill-rule:evenodd;stroke:#000000;stroke-width:1pt;marker-start:none"
         transform="matrix(-0.4,0,0,-0.4,-4,0)" />
    </marker>
    <marker
       inkscape:stockid="Arrow1Mstart"
       orient="auto"
       refY="0"
       refX="0"
       id="Arrow1Mstart"
       style="overflow:visible">
      <path
         inkscape:connector-curvature="0"
         id="path3776"
         d="M 0,0 5,-5 -12.5,0 5,5 0,0 z"
         style="fill-rule:evenodd;stroke:#000000;stroke-width:1pt;marker-start:none"
         transform="matrix(0.4,0,0,0.4,4,0)" />
    </marker>
    <linearGradient
       id="linearGradient7587">
      <stop
         id="stop7595"
         offset="0"
         style="stop-color:#6da5d4;stop-opacity:1;" />
      <stop
         style="stop-color:#cae7f9;stop-opacity:1;"
         offset="1"
         id="stop7591" />
    </linearGradient>
    <linearGradient
       inkscape:collect="always"
       xlink:href="#linearGradient7587"
       id="linearGradient7599"
       gradientUnits="userSpaceOnUse"
       spreadMethod="pad"
       x1="134.1395"
       y1="422.83499"
       x2="134.1395"
       y2="318.89761"
       gradientTransform="matrix(0.87500004,0,0,1.8749936,148.37597,383.565)" />
    <linearGradient
       inkscape:collect="always"
       xlink:href="#linearGradient7587"
       id="linearGradient8515"
       gradientUnits="userSpaceOnUse"
       gradientTransform="matrix(1.125,0,0,2.6086951,-24.360232,128.79166)"
       spreadMethod="pad"
       x1="124.01575"
       y1="347.24408"
       x2="124.01575"
       y2="265.74802" />
    <linearGradient
       y2="265.74802"
       x2="124.01575"
       y1="347.24408"
       x1="124.01575"
       spreadMethod="pad"
       gradientTransform="matrix(1.125,0,0,1.0869568,-15.521397,669.40388)"
       gradientUnits="userSpaceOnUse"
       id="linearGradient8967"
       xlink:href="#linearGradient7587"
       inkscape:collect="always" />
    <marker
       inkscape:stockid="Arrow1Mstart"
       orient="auto"
       refY="0"
       refX="0"
       id="Arrow1Mstart-1"
       style="overflow:visible">
      <path
         id="path3776-7"
         d="M 0,0 5,-5 -12.5,0 5,5 0,0 z"
         style="fill-rule:evenodd;stroke:#000000;stroke-width:1pt;marker-start:none"
         transform="matrix(0.4,0,0,0.4,4,0)"
         inkscape:connector-curvature="0" />
    </marker>
    <linearGradient
       inkscape:collect="always"
       xlink:href="#linearGradient7587"
       id="linearGradient8488"
       gradientUnits="userSpaceOnUse"
       gradientTransform="matrix(1.125,0,0,1.0869568,-15.521397,656.40388)"
       spreadMethod="pad"
       x1="124.01575"
       y1="347.24408"
       x2="124.01575"
       y2="265.74802" />
  </defs>
  <metadata
     id="metadata3046">
    <rdf:RDF>
      <cc:Work
         rdf:about="">
        <dc:format>image/svg+xml</dc:format>
        <dc:type
           rdf:resource="http://purl.org/dc/dcmitype/StillImage" />
        <dc:title />
      </cc:Work>
    </rdf:RDF>
  </metadata>
  <g
     inkscape:label="Laag 1"
     inkscape:groupmode="layer"
     id="layer1"
     transform="translate(0,-921.25978)">
    <rect
       style="fill:url(#linearGradient8488);fill-opacity:1;fill-rule:nonzero;stroke:none"
       id="rect7585"
       width="159.44882"
       height="88.582703"
       x="44.271908"
       y="945.2605" />
    <path
       inkscape:connector-curvature="0"
       id="path7583"
       d="m 44.271906,945.26052 159.448824,0"
       style="fill:none;stroke:#5599ff;stroke-width:0.35433072;stroke-linecap:butt;stroke-linejoin:miter;stroke-miterlimit:4;stroke-opacity:1;stroke-dasharray:none"
       sodipodi:nodetypes="cc" />
    <path
       style="fill:none;stroke:#000000;stroke-width:0.70866144;stroke-linecap:butt;stroke-linejoin:miter;stroke-miterlimit:4;stroke-opacity:1;stroke-dasharray:none;marker-start:url(#Arrow1Mstart);marker-end:url(#Arrow1Mend)"
       d="m 292.3034,945.26052 0,-17.71654"
       id="path8523"
       inkscape:connector-curvature="0" />
    <path
       inkscape:connector-curvature="0"
       id="path8895"
       d="m 292.3034,1033.8432 0,-88.5827"
       style="fill:none;stroke:#000000;stroke-width:0.70866144;stroke-linecap:butt;stroke-linejoin:miter;stroke-miterlimit:4;stroke-opacity:1;stroke-dasharray:none;marker-start:url(#Arrow1Mstart);marker-end:url(#Arrow1Mend)" />
    <path
       inkscape:connector-curvature="0"
       id="path4370"
       d="m 168.28765,1016.1267 0,-74.40949 c 0,-14.17323 3.5433,-17.71654 17.71653,-17.71654 17.71654,0 17.71654,0 35.43308,0 14.17323,0 17.71653,3.54331 17.71653,17.71654 0,0 2e-5,35.43307 1e-5,70.86619 0,17.7165 0,17.7165 17.71653,17.7165 11.81102,0 17.71654,0 17.71654,0 l 0,7.0866 c 0,0 -5.90552,0 -17.71654,0 -21.25984,0 -24.80315,-3.5433 -24.80315,-24.8031 0,-35.43312 -1e-5,-35.43312 0,-70.86619 0,-10.62992 -1e-5,-10.62992 -10.62993,-10.62992 -12.99213,0 -22.44094,0 -35.43307,0 -10.62992,0 -10.62992,0 -10.62992,10.62992 0,23.62205 1e-5,74.40949 1e-5,74.40949 z"
       style="fill:#6fa5d3;fill-opacity:1;stroke:none"
       sodipodi:nodetypes="ccsccssccsssssscc" />
    <path
       sodipodi:nodetypes="cccc"
       style="fill:none;stroke:#000000;stroke-width:1.77165341;stroke-linecap:butt;stroke-linejoin:miter;stroke-miterlimit:4;stroke-opacity:1;stroke-dasharray:none"
       d="m 44.271906,938.1739 0,95.6693 159.448824,0 0,-95.6693"
       id="path7073"
       inkscape:connector-curvature="0" />
    <path
       sodipodi:nodetypes="ccsccssccssssssc"
       style="fill:none;stroke:#000000;stroke-width:1.0629921;stroke-linecap:round;stroke-linejoin:miter;stroke-miterlimit:4;stroke-opacity:1;stroke-dasharray:none"
       d="m 168.28765,1016.1267 0,-74.40949 c 0,-14.17323 3.5433,-17.71654 17.71653,-17.71654 17.71654,0 17.71653,0 35.43307,0 14.17323,0 17.71654,3.54331 17.71654,17.71654 0,0 2e-5,35.43307 1e-5,70.86619 0,17.7165 0,17.7165 17.71653,17.7165 11.81102,0 17.71654,0 17.71654,0 m 0,7.0866 c 0,0 -5.90552,0 -17.71654,0 -21.25984,0 -24.80315,-3.5433 -24.80315,-24.8031 0,-35.43312 -1e-5,-35.43312 0,-70.86619 0,-10.62992 -1e-5,-10.62992 -10.62993,-10.62992 -12.99213,0 -22.44094,0 -35.43307,0 -10.62992,0 -10.62992,0 -10.62992,10.62992 0,23.62205 1e-5,74.40949 1e-5,74.40949"
       id="path4815"
       inkscape:connector-curvature="0" />
    <path
       sodipodi:nodetypes="cc"
       inkscape:connector-curvature="0"
       id="path6349"
       d="m 281.67348,1033.8432 -17.71653,0"
       style="fill:none;stroke:#000000;stroke-width:0.70866144;stroke-linecap:butt;stroke-linejoin:miter;stroke-miterlimit:4;stroke-opacity:1;stroke-dasharray:none;marker-start:url(#Arrow1Mstart);marker-end:none" />
    <path
       inkscape:connector-curvature="0"
       id="path4990"
       d="m 285.21676,945.26051 -38.97637,0"
       style="fill:none;stroke:#000000;stroke-width:0.70866138;stroke-linecap:butt;stroke-linejoin:miter;stroke-miterlimit:4;stroke-opacity:1;stroke-dasharray:none" />
    <path
       style="fill:none;stroke:#000000;stroke-width:0.70866138;stroke-linecap:butt;stroke-linejoin:miter;stroke-miterlimit:4;stroke-opacity:1;stroke-dasharray:none"
       d="m 285.21678,927.54398 -38.97637,0"
       id="path4992"
       inkscape:connector-curvature="0" />
    <text
       xml:space="preserve"
       style="font-size:13px;font-style:normal;font-variant:normal;font-weight:normal;font-stretch:normal;line-height:125%;letter-spacing:0px;word-spacing:0px;fill:#000000;fill-opacity:1;stroke:none;font-family:J;-inkscape-font-specification:J"
       x="295.37497"
       y="941.36212"
       id="text3023"
       sodipodi:linespacing="125%"><tspan
         sodipodi:role="line"
         id="tspan3025"
         x="295.37497"
         y="941.36212">0.3m</tspan></text>
    <text
       xml:space="preserve"
       style="font-size:13px;font-style:normal;font-variant:normal;font-weight:normal;font-stretch:normal;line-height:125%;letter-spacing:0px;word-spacing:0px;fill:#000000;fill-opacity:1;stroke:none;font-family:J;-inkscape-font-specification:J"
       x="293.875"
       y="991.48712"
       id="text3027"
       sodipodi:linespacing="125%"><tspan
         sodipodi:role="line"
         id="tspan3029"
         x="293.875"
         y="991.48712">1.5m</tspan></text>
    <text
       xml:space="preserve"
       style="font-size:13px;font-style:normal;font-variant:normal;font-weight:normal;font-stretch:normal;line-height:125%;letter-spacing:0px;word-spacing:0px;fill:#000000;fill-opacity:1;stroke:none;font-family:J;-inkscape-font-specification:J"
       x="235.25"
       y="1048.6122"
       id="text3031"
       sodipodi:linespacing="125%"><tspan
         sodipodi:role="line"
         id="tspan3033"
         x="235.25"
         y="1048.6122">\O 24 mm</tspan></text>
  </g>
  <g
     transform="translate(0,-223.22833)"
     inkscape:groupmode="layer"
     id="layer2"
     inkscape:label="waterkering"
     style="display:inline" />
</svg>
