<?xml version="1.0" encoding="UTF-8" standalone="no"?>
<!-- Created with Inkscape (http://www.inkscape.org/) -->

<svg
   xmlns:ns0="http://www.iki.fi/pav/software/textext/"
   xmlns:dc="http://purl.org/dc/elements/1.1/"
   xmlns:cc="http://creativecommons.org/ns#"
   xmlns:rdf="http://www.w3.org/1999/02/22-rdf-syntax-ns#"
   xmlns:svg="http://www.w3.org/2000/svg"
   xmlns="http://www.w3.org/2000/svg"
   xmlns:xlink="http://www.w3.org/1999/xlink"
   xmlns:sodipodi="http://sodipodi.sourceforge.net/DTD/sodipodi-0.dtd"
   xmlns:inkscape="http://www.inkscape.org/namespaces/inkscape"
   width="488.97638"
   height="340.15747"
   id="svg3041"
   version="1.1"
   inkscape:version="0.48.2 r9819"
   sodipodi:docname="pompopvoerhoogte.svg">
  <sodipodi:namedview
     id="base"
     pagecolor="#ffffff"
     bordercolor="#666666"
     borderopacity="1.0"
     inkscape:pageopacity="0.0"
     inkscape:pageshadow="2"
     inkscape:zoom="1.979899"
     inkscape:cx="218.74218"
     inkscape:cy="177.03306"
     inkscape:document-units="mm"
     inkscape:current-layer="layer2"
     showgrid="false"
     inkscape:window-width="1280"
     inkscape:window-height="962"
     inkscape:window-x="-8"
     inkscape:window-y="-8"
     inkscape:window-maximized="1"
     units="mm"
     showguides="true"
     inkscape:guide-bbox="true">
    <inkscape:grid
       type="xygrid"
       id="grid2992"
       empspacing="5"
       visible="true"
       enabled="true"
       snapvisiblegridlinesonly="true"
       units="mm"
       spacingx="1mm"
       spacingy="1mm" />
  </sodipodi:namedview>
  <defs
     id="defs3043">
    <linearGradient
       inkscape:collect="always"
       xlink:href="#linearGradient7587"
       id="linearGradient5567"
       gradientUnits="userSpaceOnUse"
       gradientTransform="matrix(1.125,0,0,1.0869568,-24.235235,584.46516)"
       spreadMethod="pad"
       x1="124.01575"
       y1="347.24408"
       x2="124.01575"
       y2="265.74802" />
    <linearGradient
       id="linearGradient7587">
      <stop
         id="stop7595"
         offset="0"
         style="stop-color:#6da5d4;stop-opacity:1;" />
      <stop
         style="stop-color:#cae7f9;stop-opacity:1;"
         offset="1"
         id="stop7591" />
    </linearGradient>
    <linearGradient
       y2="265.74802"
       x2="124.01575"
       y1="347.24408"
       x1="124.01575"
       spreadMethod="pad"
       gradientTransform="matrix(1.125,0,0,1.0869568,-42.07677,657.20632)"
       gradientUnits="userSpaceOnUse"
       id="linearGradient3520"
       xlink:href="#linearGradient7587"
       inkscape:collect="always" />
    <marker
       inkscape:stockid="Arrow1Mstart"
       orient="auto"
       refY="0"
       refX="0"
       id="Arrow1Mstart"
       style="overflow:visible">
      <path
         inkscape:connector-curvature="0"
         id="path3776"
         d="M 0,0 5,-5 -12.5,0 5,5 0,0 z"
         style="fill-rule:evenodd;stroke:#000000;stroke-width:1pt;marker-start:none"
         transform="matrix(0.4,0,0,0.4,4,0)" />
    </marker>
    <marker
       inkscape:stockid="Arrow1Mend"
       orient="auto"
       refY="0"
       refX="0"
       id="Arrow1Mend"
       style="overflow:visible">
      <path
         inkscape:connector-curvature="0"
         id="path3779"
         d="M 0,0 5,-5 -12.5,0 5,5 0,0 z"
         style="fill-rule:evenodd;stroke:#000000;stroke-width:1pt;marker-start:none"
         transform="matrix(-0.4,0,0,-0.4,-4,0)" />
    </marker>
    <linearGradient
       inkscape:collect="always"
       xlink:href="#linearGradient7587"
       id="linearGradient4951"
       gradientUnits="userSpaceOnUse"
       gradientTransform="matrix(1.125,0,0,1.0869568,-573.57283,409.17486)"
       spreadMethod="pad"
       x1="124.01575"
       y1="347.24408"
       x2="124.01575"
       y2="265.74802" />
    <marker
       inkscape:stockid="Arrow1Mstart"
       orient="auto"
       refY="0"
       refX="0"
       id="Arrow1Mstart-1"
       style="overflow:visible">
      <path
         id="path3762"
         d="M 0,0 5,-5 -12.5,0 5,5 0,0 z"
         style="fill-rule:evenodd;stroke:#000000;stroke-width:1pt;marker-start:none"
         transform="matrix(0.4,0,0,0.4,4,0)"
         inkscape:connector-curvature="0" />
    </marker>
    <marker
       inkscape:stockid="Arrow1Mend"
       orient="auto"
       refY="0"
       refX="0"
       id="Arrow1Mend-7"
       style="overflow:visible">
      <path
         id="path3765"
         d="M 0,0 5,-5 -12.5,0 5,5 0,0 z"
         style="fill-rule:evenodd;stroke:#000000;stroke-width:1pt;marker-start:none"
         transform="matrix(-0.4,0,0,-0.4,-4,0)"
         inkscape:connector-curvature="0" />
    </marker>
    <marker
       inkscape:stockid="Arrow1Mstart"
       orient="auto"
       refY="0"
       refX="0"
       id="Arrow1Mstart-4"
       style="overflow:visible">
      <path
         inkscape:connector-curvature="0"
         id="path3776-0"
         d="M 0,0 5,-5 -12.5,0 5,5 0,0 z"
         style="fill-rule:evenodd;stroke:#000000;stroke-width:1pt;marker-start:none"
         transform="matrix(0.4,0,0,0.4,4,0)" />
    </marker>
    <marker
       inkscape:stockid="Arrow1Mend"
       orient="auto"
       refY="0"
       refX="0"
       id="Arrow1Mend-9"
       style="overflow:visible">
      <path
         inkscape:connector-curvature="0"
         id="path3779-4"
         d="M 0,0 5,-5 -12.5,0 5,5 0,0 z"
         style="fill-rule:evenodd;stroke:#000000;stroke-width:1pt;marker-start:none"
         transform="matrix(-0.4,0,0,-0.4,-4,0)" />
    </marker>
  </defs>
  <metadata
     id="metadata3046">
    <rdf:RDF>
      <cc:Work
         rdf:about="">
        <dc:format>image/svg+xml</dc:format>
        <dc:type
           rdf:resource="http://purl.org/dc/dcmitype/StillImage" />
        <dc:title />
      </cc:Work>
    </rdf:RDF>
  </metadata>
  <g
     inkscape:label="Laag 1"
     inkscape:groupmode="layer"
     id="layer1"
     transform="translate(0,-712.20465)"
     style="display:inline">
    <path
       inkscape:connector-curvature="0"
       id="path4370"
       d="m 414.33071,783.07083 10e-6,212.59843 c 0,14.17324 -3.5433,17.71654 -17.71655,17.71654 -17.7165,0 -17.71652,0 -35.43306,0 -10.62992,0 -7.08662,3.5433 -17.71654,3.5433 l -179.79558,0 0,-14.1732 c 0,0 144.36251,0 179.79558,0 10.62992,0 7.08662,3.5433 17.71654,3.5433 12.99213,0 22.44096,0 35.43306,0 10.62995,0 10.62995,0 10.62995,-10.62994 0,-10.6299 0.044,-212.64264 0.044,-212.64264 z"
       style="fill:#87b7de;fill-opacity:1;stroke:none"
       sodipodi:nodetypes="ccsccccsssscc" />
    <path
       sodipodi:nodetypes="csssscccsccc"
       style="fill:none;stroke:#000000;stroke-width:0.99921262;stroke-linecap:round;stroke-miterlimit:4;stroke-dasharray:none"
       d="m 165.15265,1002.7559 c 0,0 142.87885,0 178.31192,0 10.62992,0 7.08662,3.5433 17.71654,3.5433 12.99213,0 22.44096,0 35.43306,0 10.62995,0 10.62995,0 10.62995,-10.62993 0,-10.6299 0.044,-212.64264 0.044,-212.64264 m 7.04259,0.0442 10e-6,212.59843 c 0,14.17324 -3.5433,17.71654 -17.71655,17.71654 -17.7165,0 -17.71652,0 -35.43306,0 -10.62992,0 -7.08662,3.5433 -17.71654,3.5433 l -178.31192,0"
       id="path4362"
       inkscape:connector-curvature="0" />
    <g
       id="g4364"
       transform="translate(-12,0)">
      <path
         sodipodi:nodetypes="cc"
         style="fill:none;stroke:#5599ff;stroke-width:0.35433072;stroke-linecap:butt;stroke-linejoin:miter;stroke-miterlimit:4;stroke-opacity:1;stroke-dasharray:none"
         d="m 17.716528,946.06296 159.448832,0"
         id="path7583"
         inkscape:connector-curvature="0" />
      <rect
         y="946.06293"
         x="17.716536"
         height="88.582703"
         width="159.44882"
         id="rect7585"
         style="fill:url(#linearGradient3520);fill-opacity:1;fill-rule:nonzero;stroke:none" />
      <path
         inkscape:connector-curvature="0"
         id="path7073"
         d="m 17.716528,938.97634 0,95.66926 c 53.14961,0 106.299222,0 159.448832,0 l -1e-5,-17.7165 m 0,-14.1732 c 0,-21.00811 1e-5,-63.77956 1e-5,-63.77956"
         style="fill:none;stroke:#000000;stroke-width:1.77165341;stroke-linecap:round;stroke-linejoin:miter;stroke-miterlimit:4;stroke-opacity:1;stroke-dasharray:none"
         sodipodi:nodetypes="cccccc" />
    </g>
    <g
       id="g4355"
       transform="matrix(1,0,0,0.74074098,-64.01575,203.93681)">
      <rect
         transform="scale(-1,1)"
         style="fill:url(#linearGradient4951);fill-opacity:1;fill-rule:nonzero;stroke:none"
         id="rect3543"
         width="159.44882"
         height="88.582703"
         x="-513.77948"
         y="698.03143" />
      <path
         inkscape:connector-curvature="0"
         id="path3545"
         d="m 513.77953,698.0315 -159.44883,0"
         style="fill:none;stroke:#5599ff;stroke-width:0.411695;stroke-linecap:butt;stroke-linejoin:miter;stroke-miterlimit:4;stroke-opacity:1;stroke-dasharray:none"
         sodipodi:nodetypes="cc" />
      <path
         sodipodi:nodetypes="cccccc"
         style="fill:none;stroke:#000000;stroke-width:2.05847502;stroke-linecap:round;stroke-linejoin:miter;stroke-miterlimit:4;stroke-opacity:1;stroke-dasharray:none"
         d="m 513.77953,690.94488 0,95.66926 c -41.43841,0 6.00534,0 -35.43307,0 m -7.08661,0 c -7.54453,0 -109.38462,0 -116.92915,0 0,-31.88975 0,-63.77951 0,-95.66926"
         id="path3547"
         inkscape:connector-curvature="0" />
    </g>
    <path
       sodipodi:type="arc"
       style="fill:#789ec0;fill-opacity:1;stroke:#000000;stroke-width:0.99921262;stroke-linecap:round;stroke-linejoin:miter;stroke-miterlimit:4;stroke-dasharray:none;stroke-dashoffset:0"
       id="path4369"
       sodipodi:cx="322.44095"
       sodipodi:cy="485.43304"
       sodipodi:rx="14.173228"
       sodipodi:ry="14.173228"
       d="m 336.61418,485.43304 c 0,7.82766 -6.34557,14.17323 -14.17323,14.17323 -7.82766,0 -14.17323,-6.34557 -14.17323,-14.17323 0,-7.82765 6.34557,-14.17322 14.17323,-14.17322 7.82766,0 14.17323,6.34557 14.17323,14.17322 z"
       transform="translate(59.999996,524.40944)" />
    <path
       style="fill:none;stroke:#000000;stroke-width:0.99999994px;stroke-linecap:round;stroke-linejoin:round;stroke-opacity:1"
       d="m 375.35432,999.2126 0,21.2598 17.71654,-10.6299 z"
       id="path4371"
       inkscape:connector-curvature="0" />
  </g>
  <g
     transform="translate(0,-712.20465)"
     id="g4863"
     inkscape:groupmode="layer"
     inkscape:label="annotations"
     style="display:inline">
    <path
       style="fill:none;stroke:#000000;stroke-width:0.70866132;stroke-linecap:butt;stroke-linejoin:miter;stroke-miterlimit:4;stroke-opacity:1;stroke-dasharray:none"
       d="m 481.65354,1009.8425 -53.1496,0"
       id="path4889"
       inkscape:connector-curvature="0" />
    <path
       inkscape:connector-curvature="0"
       id="path4891"
       d="m 481.65355,786.61414 -24.80314,0"
       style="fill:none;stroke:#000000;stroke-width:0.70866132;stroke-linecap:butt;stroke-linejoin:miter;stroke-miterlimit:4;stroke-opacity:1;stroke-dasharray:none" />
    <path
       style="fill:none;stroke:#000000;stroke-width:0.70866144;stroke-linecap:butt;stroke-linejoin:miter;stroke-miterlimit:4;stroke-opacity:1;stroke-dasharray:none;marker-start:url(#Arrow1Mstart);marker-end:url(#Arrow1Mend)"
       d="m 485.19685,1009.8425 0,-223.22833"
       id="path4893"
       inkscape:connector-curvature="0" />
    <path
       style="fill:none;stroke:#000000;stroke-width:0.70866132;stroke-linecap:butt;stroke-linejoin:miter;stroke-miterlimit:4;stroke-opacity:1;stroke-dasharray:none"
       d="m 481.65354,720.408 -24.80314,0"
       id="path4909"
       inkscape:connector-curvature="0" />
    <path
       inkscape:connector-curvature="0"
       id="path4911"
       d="m 485.19685,786.61414 0,-65.08841"
       style="fill:none;stroke:#000000;stroke-width:0.70866144;stroke-linecap:butt;stroke-linejoin:miter;stroke-miterlimit:4;stroke-opacity:1;stroke-dasharray:none;marker-start:url(#Arrow1Mstart);marker-end:url(#Arrow1Mend)" />
    <path
       style="fill:none;stroke:#000000;stroke-width:0.70866132;stroke-linecap:butt;stroke-linejoin:miter;stroke-miterlimit:4;stroke-opacity:1;stroke-dasharray:none"
       d="m 199.05511,1009.8425 -24.80314,0"
       id="path4913"
       inkscape:connector-curvature="0" />
    <path
       inkscape:connector-curvature="0"
       id="path4921"
       d="m 199.05511,946.06296 -24.80314,0"
       style="fill:none;stroke:#000000;stroke-width:0.70866132;stroke-linecap:butt;stroke-linejoin:miter;stroke-miterlimit:4;stroke-opacity:1;stroke-dasharray:none" />
    <path
       style="fill:none;stroke:#000000;stroke-width:0.70866144;stroke-linecap:butt;stroke-linejoin:miter;stroke-miterlimit:4;stroke-opacity:1;stroke-dasharray:none;marker-start:url(#Arrow1Mstart);marker-end:url(#Arrow1Mend)"
       d="m 202.59841,1009.8425 0,-63.77954"
       id="path4923"
       inkscape:connector-curvature="0" />
    <path
       style="fill:none;stroke:#000000;stroke-width:0.70866132;stroke-linecap:butt;stroke-linejoin:miter;stroke-miterlimit:4;stroke-opacity:1;stroke-dasharray:none"
       d="m 165.37777,1045.2152 0,-8.3386"
       id="path4925"
       inkscape:connector-curvature="0" />
    <path
       inkscape:connector-curvature="0"
       id="path4927"
       d="m 351.94105,1045.2152 0,-24.8031"
       style="fill:none;stroke:#000000;stroke-width:0.70866132;stroke-linecap:butt;stroke-linejoin:miter;stroke-miterlimit:4;stroke-opacity:1;stroke-dasharray:none" />
    <path
       style="fill:none;stroke:#000000;stroke-width:0.70866144;stroke-linecap:butt;stroke-linejoin:miter;stroke-miterlimit:4;stroke-opacity:1;stroke-dasharray:none;marker-start:url(#Arrow1Mstart);marker-end:url(#Arrow1Mend)"
       d="m 165.37777,1048.7585 185.26169,0"
       id="path4929"
       inkscape:connector-curvature="0" />
    <g
       id="g4931"
       transform="matrix(1.5625,0,0,-1.5625,230.36965,1814.6972)"
       xml:space="preserve"
       stroke-miterlimit="10.433"
       font-style="normal"
       font-variant="normal"
       font-weight="normal"
       font-stretch="normal"
       font-size-adjust="none"
       letter-spacing="normal"
       word-spacing="normal"
       ns0:text="1m"
       ns0:preamble="D:\\Documenten\\Worksheets\\Inkscape\\incscape_preamble.tex"
       style="font-style:normal;font-variant:normal;font-weight:normal;font-stretch:normal;letter-spacing:normal;word-spacing:normal;text-anchor:start;fill:none;stroke:#000000;stroke-linecap:butt;stroke-linejoin:miter;stroke-miterlimit:10.43299961;stroke-opacity:1;stroke-dasharray:none;stroke-dashoffset:0">
<path
   style="fill:#000000;stroke-width:0"
   inkscape:connector-curvature="0"
   d="m 92.925,499.53 0,0.01 0,0.02 0,0.01 0,0.01 0,0.01 0,0.01 0,0 0,0.01 -10e-4,0.01 0,0.01 0,0.01 0,0.01 -0.001,0 0,0.01 -0.001,0.01 0,0 -10e-4,0.01 -0.001,0.01 -0.002,0.01 -0.002,0.01 -0.003,0.01 -0.003,0.01 -0.004,0.01 -0.004,0.01 -0.005,0 -0.006,0.01 -0.007,0 -0.007,0.01 -0.008,0 -0.009,0.01 -0.004,0 -0.005,0 -0.005,0 -0.006,0 -0.006,0 -0.005,0.01 -0.007,0 -0.006,0 -0.007,0 -0.007,0 -0.007,0 -0.007,0 -0.008,0 -0.008,0 -0.009,0 -0.008,0 -0.009,0 -0.009,0 -0.01,0 -0.01,0 -0.01,0 -0.011,0 c -0.617,-0.63 -1.492,-0.63 -1.811,-0.63 v -0.31 c 0.2,0 0.786,0 1.304,0.26 v -5.15 c 0,-0.36 -0.03,-0.48 -0.926,-0.48 h -0.318 v -0.3 c 0.348,0.03 1.214,0.03 1.612,0.03 0.398,0 1.264,0 1.612,-0.03 v 0.3 H 93.85 c -0.895,0 -0.925,0.11 -0.925,0.48 z"
   id="path4933" />
<path
   style="fill:#000000;stroke-width:0"
   inkscape:connector-curvature="0"
   d="m 96.076,496.59 v -2.66 c 0,-0.45 -0.11,-0.45 -0.776,-0.45 v -0.3 c 0.348,0.01 0.855,0.03 1.124,0.03 0.259,0 0.776,-0.02 1.114,-0.03 v 0.3 c -0.666,0 -0.776,0 -0.776,0.45 v 1.83 c 0,1.03 0.707,1.59 1.343,1.59 0.627,0 0.737,-0.54 0.737,-1.1 v -2.32 c 0,-0.45 -0.11,-0.45 -0.776,-0.45 v -0.3 c 0.348,0.01 0.855,0.03 1.124,0.03 0.259,0 0.776,-0.02 1.11,-0.03 v 0.3 c -0.663,0 -0.772,0 -0.772,0.45 v 1.83 c 0,1.03 0.702,1.59 1.342,1.59 0.63,0 0.74,-0.54 0.74,-1.1 v -2.32 c 0,-0.45 -0.11,-0.45 -0.78,-0.45 v -0.3 c 0.35,0.01 0.86,0.03 1.13,0.03 0.25,0 0.77,-0.02 1.11,-0.03 v 0.3 c -0.52,0 -0.77,0 -0.78,0.3 v 1.9 c 0,0.85 0,1.16 -0.3,1.52 -0.14,0.17 -0.47,0.37 -1.05,0.37 -0.83,0 -1.273,-0.6 -1.442,-0.98 -0.139,0.87 -0.875,0.98 -1.323,0.98 -0.726,0 -1.194,-0.43 -1.473,-1.05 v 1.05 L 95.3,497.46 v -0.31 c 0.696,0 0.776,-0.07 0.776,-0.56 z"
   id="path4935" />
</g>    <path
       style="fill:none;stroke:#000000;stroke-width:0.70866132;stroke-linecap:butt;stroke-linejoin:miter;stroke-miterlimit:4;stroke-opacity:1;stroke-dasharray:none"
       d="m 411.2874,1045.2152 0,-24.8031"
       id="path4937"
       inkscape:connector-curvature="0" />
    <path
       inkscape:connector-curvature="0"
       id="path4939"
       d="m 353.23492,1048.7585 56.93488,0"
       style="fill:none;stroke:#000000;stroke-width:0.70866144;stroke-linecap:butt;stroke-linejoin:miter;stroke-miterlimit:4;stroke-opacity:1;stroke-dasharray:none;marker-start:url(#Arrow1Mstart);marker-end:url(#Arrow1Mend)" />
  </g>
  <g
     inkscape:groupmode="layer"
     id="layer2"
     inkscape:label="Karakteristiek"
     transform="translate(0,-191.33852)">
    <g
       id="g7823"
       transform="translate(-52,16)">
      <path
         inkscape:connector-curvature="0"
         id="path6067"
         d="m 70.866144,265.748 127.559056,0"
         style="fill:none;stroke:#000000;stroke-width:0.70866144;stroke-linecap:butt;stroke-linejoin:miter;stroke-miterlimit:4;stroke-opacity:1;stroke-dasharray:2.12598427, 2.12598427;stroke-dashoffset:0" />
      <path
         sodipodi:nodetypes="cc"
         style="fill:none;stroke:#000000;stroke-width:0.70866144;stroke-linecap:butt;stroke-linejoin:miter;stroke-miterlimit:4;stroke-opacity:1;stroke-dasharray:2.12598426, 2.12598426;stroke-dashoffset:0"
         d="m 198.4252,265.748 0,106.29921"
         id="path6069"
         inkscape:connector-curvature="0" />
      <path
         inkscape:connector-curvature="0"
         id="path6071"
         d="m 251.5748,329.52753 0,42.51968"
         style="fill:none;stroke:#000000;stroke-width:0.70866144;stroke-linecap:butt;stroke-linejoin:miter;stroke-miterlimit:4;stroke-opacity:1;stroke-dasharray:2.12598425, 2.12598425;stroke-dashoffset:0"
         sodipodi:nodetypes="cc" />
      <path
         style="fill:none;stroke:#000000;stroke-width:0.70866144;stroke-linecap:butt;stroke-linejoin:miter;stroke-miterlimit:4;stroke-opacity:1;stroke-dasharray:2.12598424, 2.12598424;stroke-dashoffset:0"
         d="m 70.866139,329.52753 180.708661,0"
         id="path6073"
         inkscape:connector-curvature="0" />
      <path
         style="fill:none;stroke:#000000;stroke-width:0.70866144;stroke-linecap:butt;stroke-linejoin:miter;stroke-miterlimit:4;stroke-opacity:1;stroke-dasharray:2.12598428, 2.12598428;stroke-dashoffset:0"
         d="m 70.866144,238.97896 66.361816,0"
         id="path7579"
         inkscape:connector-curvature="0" />
      <path
         sodipodi:nodetypes="csc"
         inkscape:connector-curvature="0"
         id="path6065"
         d="m 70.866142,230.31493 c 63.779528,3.54331 95.436838,12.82079 127.559058,35.43307 35.85338,25.23882 67.32283,85.03937 74.40945,106.29921"
         style="fill:none;stroke:#800000;stroke-width:1.77165353;stroke-linecap:butt;stroke-linejoin:miter;stroke-miterlimit:4;stroke-opacity:1;stroke-dasharray:none" />
      <path
         sodipodi:nodetypes="ccc"
         inkscape:connector-curvature="0"
         id="path2983"
         d="m 70.866142,212.59839 0,159.44882 230.314958,0"
         style="fill:none;stroke:#000000;stroke-width:1.06299222;stroke-linecap:butt;stroke-linejoin:miter;stroke-miterlimit:4;stroke-opacity:1;stroke-dasharray:none;marker-start:url(#Arrow1Mstart);marker-end:url(#Arrow1Mend);display:inline" />
      <path
         inkscape:connector-curvature="0"
         id="path7342"
         d="m 138.18898,240.94484 0,131.10236"
         style="fill:none;stroke:#000000;stroke-width:0.70866144;stroke-linecap:butt;stroke-linejoin:miter;stroke-miterlimit:4;stroke-opacity:1;stroke-dasharray:2.12598424, 2.12598424;stroke-dashoffset:0"
         sodipodi:nodetypes="cc" />
      <text
         xml:space="preserve"
         style="font-size:13px;font-style:normal;font-variant:normal;font-weight:normal;font-stretch:normal;line-height:125%;letter-spacing:0px;word-spacing:0px;fill:#000000;fill-opacity:1;stroke:none;font-family:J;-inkscape-font-specification:J"
         x="131.35239"
         y="383.21283"
         id="text3109"
         sodipodi:linespacing="125%"><tspan
           sodipodi:role="line"
           id="tspan3111"
           x="131.35239"
           y="383.21283">80</tspan></text>
      <text
         xml:space="preserve"
         style="font-size:13px;font-style:normal;font-variant:normal;font-weight:normal;font-stretch:normal;line-height:125%;letter-spacing:0px;word-spacing:0px;fill:#000000;fill-opacity:1;stroke:none;font-family:J;-inkscape-font-specification:J"
         x="186.4057"
         y="382.70776"
         id="text3113"
         sodipodi:linespacing="125%"><tspan
           sodipodi:role="line"
           id="tspan3115"
           x="186.4057"
           y="382.70776">120</tspan></text>
      <text
         xml:space="preserve"
         style="font-size:13px;font-style:normal;font-variant:normal;font-weight:normal;font-stretch:normal;line-height:125%;letter-spacing:0px;word-spacing:0px;fill:#000000;fill-opacity:1;stroke:none;font-family:J;-inkscape-font-specification:J"
         x="239.9438"
         y="382.70776"
         id="text3117"
         sodipodi:linespacing="125%"><tspan
           sodipodi:role="line"
           id="tspan3119"
           x="239.9438"
           y="382.70776">170</tspan></text>
      <text
         xml:space="preserve"
         style="font-size:13px;font-style:normal;font-variant:normal;font-weight:normal;font-stretch:normal;line-height:125%;letter-spacing:0px;word-spacing:0px;fill:#000000;fill-opacity:1;stroke:none;font-family:J;-inkscape-font-specification:J"
         x="266.71286"
         y="382.70776"
         id="text3121"
         sodipodi:linespacing="125%"><tspan
           sodipodi:role="line"
           id="tspan3123"
           x="266.71286"
           y="382.70776">190</tspan></text>
      <text
         xml:space="preserve"
         style="font-size:13px;font-style:normal;font-variant:normal;font-weight:normal;font-stretch:normal;line-height:125%;letter-spacing:0px;word-spacing:0px;fill:#000000;fill-opacity:1;stroke:none;font-family:J;-inkscape-font-specification:J"
         x="54.525379"
         y="333.16345"
         id="text3164"
         sodipodi:linespacing="125%"><tspan
           sodipodi:role="line"
           id="tspan3166"
           x="54.525379"
           y="333.16345">12</tspan></text>
      <text
         xml:space="preserve"
         style="font-size:13px;font-style:normal;font-variant:normal;font-weight:normal;font-stretch:normal;line-height:125%;letter-spacing:0px;word-spacing:0px;fill:#000000;fill-opacity:1;stroke:none;font-family:J;-inkscape-font-specification:J"
         x="54.525383"
         y="271.03906"
         id="text3168"
         sodipodi:linespacing="125%"><tspan
           sodipodi:role="line"
           id="tspan3170"
           x="54.525383"
           y="271.03906">30</tspan></text>
      <text
         xml:space="preserve"
         style="font-size:13px;font-style:normal;font-variant:normal;font-weight:normal;font-stretch:normal;line-height:125%;letter-spacing:0px;word-spacing:0px;fill:#000000;fill-opacity:1;stroke:none;font-family:J;-inkscape-font-specification:J"
         x="55.03046"
         y="246.29033"
         id="text3172"
         sodipodi:linespacing="125%"><tspan
           sodipodi:role="line"
           id="tspan3174"
           x="55.03046"
           y="246.29033">37</tspan></text>
      <text
         xml:space="preserve"
         style="font-size:13px;font-style:normal;font-variant:normal;font-weight:normal;font-stretch:normal;line-height:125%;letter-spacing:0px;word-spacing:0px;fill:#000000;fill-opacity:1;stroke:none;font-family:J;-inkscape-font-specification:J"
         x="55.535534"
         y="231.13805"
         id="text3176"
         sodipodi:linespacing="125%"><tspan
           sodipodi:role="line"
           id="tspan3178"
           x="55.535534"
           y="231.13805">40</tspan></text>
      <text
         xml:space="preserve"
         style="font-size:13px;font-style:normal;font-variant:normal;font-weight:normal;font-stretch:normal;line-height:125%;letter-spacing:0px;word-spacing:0px;fill:#000000;fill-opacity:1;stroke:none;font-family:J;-inkscape-font-specification:J"
         x="292.41632"
         y="385.18631"
         id="text3180"
         sodipodi:linespacing="125%"><tspan
           sodipodi:role="line"
           id="tspan3182"
           x="292.41632"
           y="385.18631">$\dot{V}$ (m$^3$/h)</tspan></text>
      <text
         xml:space="preserve"
         style="font-size:13px;font-style:normal;font-variant:normal;font-weight:normal;font-stretch:normal;line-height:125%;letter-spacing:0px;word-spacing:0px;fill:#000000;fill-opacity:1;stroke:none;font-family:J;-inkscape-font-specification:J"
         x="-219.09438"
         y="64.555672"
         id="text3184"
         sodipodi:linespacing="125%"
         transform="matrix(0,-1,1,0,0,0)"><tspan
           sodipodi:role="line"
           id="tspan3186"
           x="-219.09438"
           y="64.555672">$H$ (m)</tspan></text>
    </g>
    <text
       xml:space="preserve"
       style="font-size:13px;font-style:normal;font-variant:normal;font-weight:normal;font-stretch:normal;line-height:125%;letter-spacing:0px;word-spacing:0px;fill:#000000;fill-opacity:1;stroke:none;font-family:J;-inkscape-font-specification:J"
       x="-465.56119"
       y="198.11609"
       id="text3188"
       sodipodi:linespacing="125%"
       transform="matrix(0,-1,1,0,0,0)"><tspan
         sodipodi:role="line"
         id="tspan3190"
         x="-465.56119"
         y="198.11609">1m</tspan></text>
    <text
       sodipodi:linespacing="125%"
       id="text3213"
       y="524.55115"
       x="247.76228"
       style="font-size:13px;font-style:normal;font-variant:normal;font-weight:normal;font-stretch:normal;line-height:125%;letter-spacing:0px;word-spacing:0px;fill:#000000;fill-opacity:1;stroke:none;font-family:J;-inkscape-font-specification:J"
       xml:space="preserve"><tspan
         y="524.55115"
         x="247.76228"
         id="tspan3215"
         sodipodi:role="line">20m</tspan></text>
    <text
       transform="matrix(0,-1,1,0,0,0)"
       sodipodi:linespacing="125%"
       id="text3217"
       y="480.9588"
       x="-241.30733"
       style="font-size:13px;font-style:normal;font-variant:normal;font-weight:normal;font-stretch:normal;line-height:125%;letter-spacing:0px;word-spacing:0px;fill:#000000;fill-opacity:1;stroke:none;font-family:J;-inkscape-font-specification:J"
       xml:space="preserve"><tspan
         y="480.9588"
         x="-241.30733"
         id="tspan3219"
         sodipodi:role="line">1m</tspan></text>
    <text
       xml:space="preserve"
       style="font-size:13px;font-style:normal;font-variant:normal;font-weight:normal;font-stretch:normal;line-height:125%;letter-spacing:0px;word-spacing:0px;fill:#000000;fill-opacity:1;stroke:none;font-family:J;-inkscape-font-specification:J"
       x="-396.36575"
       y="480.9588"
       id="text3221"
       sodipodi:linespacing="125%"
       transform="matrix(0,-1,1,0,0,0)"><tspan
         sodipodi:role="line"
         id="tspan3223"
         x="-396.36575"
         y="480.9588">15m</tspan></text>
    <text
       xml:space="preserve"
       style="font-size:13px;font-style:normal;font-variant:normal;font-weight:normal;font-stretch:normal;line-height:125%;letter-spacing:0px;word-spacing:0px;fill:#000000;fill-opacity:1;stroke:none;font-family:J;-inkscape-font-specification:J"
       x="249.50769"
       y="479.47314"
       id="text3225"
       sodipodi:linespacing="125%"><tspan
         sodipodi:role="line"
         id="tspan3227"
         x="249.50769"
         y="479.47314">\O200mm</tspan></text>
    <text
       sodipodi:linespacing="125%"
       id="text3229"
       y="404.01355"
       x="-404.45374"
       style="font-size:13px;font-style:normal;font-variant:normal;font-weight:normal;font-stretch:normal;line-height:125%;letter-spacing:0px;word-spacing:0px;fill:#000000;fill-opacity:1;stroke:none;font-family:J;-inkscape-font-specification:J"
       xml:space="preserve"
       transform="matrix(0,-1,1,0,0,0)"><tspan
         y="404.01355"
         x="-404.45374"
         id="tspan3231"
         sodipodi:role="line">\O120mm</tspan></text>
  </g>
</svg>
