<?xml version="1.0" encoding="UTF-8" standalone="no"?>
<!-- Created with Inkscape (http://www.inkscape.org/) -->

<svg
   xmlns:ns0="http://www.iki.fi/pav/software/textext/"
   xmlns:dc="http://purl.org/dc/elements/1.1/"
   xmlns:cc="http://creativecommons.org/ns#"
   xmlns:rdf="http://www.w3.org/1999/02/22-rdf-syntax-ns#"
   xmlns:svg="http://www.w3.org/2000/svg"
   xmlns="http://www.w3.org/2000/svg"
   xmlns:xlink="http://www.w3.org/1999/xlink"
   xmlns:sodipodi="http://sodipodi.sourceforge.net/DTD/sodipodi-0.dtd"
   xmlns:inkscape="http://www.inkscape.org/namespaces/inkscape"
   width="531.49603"
   height="205.51181"
   id="svg3041"
   version="1.1"
   inkscape:version="0.48.2 r9819"
   sodipodi:docname="hydrostatische_paradox.svg">
  <sodipodi:namedview
     id="base"
     pagecolor="#ffffff"
     bordercolor="#666666"
     borderopacity="1.0"
     inkscape:pageopacity="0.0"
     inkscape:pageshadow="2"
     inkscape:zoom="1.4"
     inkscape:cx="269.9863"
     inkscape:cy="50.024486"
     inkscape:document-units="mm"
     inkscape:current-layer="layer1"
     showgrid="false"
     inkscape:window-width="1366"
     inkscape:window-height="706"
     inkscape:window-x="-8"
     inkscape:window-y="-8"
     inkscape:window-maximized="1"
     units="mm"
     inkscape:snap-bbox="false">
    <inkscape:grid
       spacingy="1mm"
       spacingx="1mm"
       units="mm"
       snapvisiblegridlinesonly="true"
       enabled="true"
       visible="true"
       empspacing="5"
       id="grid2992"
       type="xygrid" />
  </sodipodi:namedview>
  <defs
     id="defs3043">
    <linearGradient
       id="linearGradient8364">
      <stop
         id="stop8366"
         offset="0"
         style="stop-color:#cccccc;stop-opacity:1;" />
      <stop
         id="stop8368"
         offset="1"
         style="stop-color:#cccccc;stop-opacity:0.58823532;" />
    </linearGradient>
    <linearGradient
       id="linearGradient8356">
      <stop
         id="stop8358"
         offset="0"
         style="stop-color:#000000;stop-opacity:1;" />
      <stop
         id="stop8360"
         offset="1"
         style="stop-color:#000000;stop-opacity:0;" />
    </linearGradient>
    <linearGradient
       gradientTransform="translate(4.3307087e-7,836.22042)"
       gradientUnits="userSpaceOnUse"
       y2="17.716532"
       x2="70.866142"
       y1="212.59842"
       x1="70.866142"
       id="linearGradient8370"
       xlink:href="#linearGradient8364"
       inkscape:collect="always" />
    <linearGradient
       gradientTransform="translate(88.582673,836.22042)"
       y2="17.716532"
       x2="70.866142"
       y1="212.59842"
       x1="70.866142"
       gradientUnits="userSpaceOnUse"
       id="linearGradient8374"
       xlink:href="#linearGradient8364"
       inkscape:collect="always" />
    <linearGradient
       y2="17.716532"
       x2="70.866142"
       y1="212.59842"
       x1="70.866142"
       gradientTransform="translate(194.88189,836.22042)"
       gradientUnits="userSpaceOnUse"
       id="linearGradient8378"
       xlink:href="#linearGradient8364"
       inkscape:collect="always" />
    <linearGradient
       gradientTransform="translate(283.46457,836.22042)"
       y2="17.716532"
       x2="70.866142"
       y1="212.59842"
       x1="70.866142"
       gradientUnits="userSpaceOnUse"
       id="linearGradient8382"
       xlink:href="#linearGradient8364"
       inkscape:collect="always" />
    <linearGradient
       gradientTransform="translate(407.48032,836.22042)"
       y2="17.716532"
       x2="70.866142"
       y1="212.59842"
       x1="70.866142"
       gradientUnits="userSpaceOnUse"
       id="linearGradient8386"
       xlink:href="#linearGradient8364"
       inkscape:collect="always" />
    <marker
       style="overflow:visible"
       id="Arrow1Mend"
       refX="0"
       refY="0"
       orient="auto"
       inkscape:stockid="Arrow1Mend">
      <path
         inkscape:connector-curvature="0"
         transform="matrix(-0.4,0,0,-0.4,-4,0)"
         style="fill-rule:evenodd;stroke:#000000;stroke-width:1pt;marker-start:none"
         d="M 0,0 5,-5 -12.5,0 5,5 0,0 z"
         id="path3773" />
    </marker>
  </defs>
  <metadata
     id="metadata3046">
    <rdf:RDF>
      <cc:Work
         rdf:about="">
        <dc:format>image/svg+xml</dc:format>
        <dc:type
           rdf:resource="http://purl.org/dc/dcmitype/StillImage" />
        <dc:title />
      </cc:Work>
    </rdf:RDF>
  </metadata>
  <g
     transform="translate(0,-846.85037)"
     id="layer1"
     inkscape:groupmode="layer"
     inkscape:label="Laag 1">
    <path
       inkscape:connector-curvature="0"
       id="path8354"
       d="m 53.149606,1013.3858 0,-159.44885 35.433071,0 0,159.44885 z"
       style="fill:url(#linearGradient8370);fill-opacity:1;stroke:none" />
    <path
       sodipodi:nodetypes="ccccc"
       style="fill:url(#linearGradient8374);fill-opacity:1;stroke:none"
       d="m 141.73228,1013.3858 14.17323,-159.44882 7.08662,0 14.17322,159.44882 z"
       id="path8372"
       inkscape:connector-curvature="0" />
    <path
       inkscape:connector-curvature="0"
       id="path8376"
       d="m 248.0315,1013.3858 -17.71654,-159.44885 70.86614,0 -17.71653,159.44885 z"
       style="fill:url(#linearGradient8378);fill-opacity:1;stroke:none"
       sodipodi:nodetypes="ccccc" />
    <path
       sodipodi:nodetypes="ccccc"
       style="fill:url(#linearGradient8382);fill-opacity:1;stroke:none"
       d="m 336.61417,1013.3858 c -17.71653,-53.14964 17.71654,-106.29924 0,-159.44885 l 35.43307,0 c 17.71654,53.14961 -17.71653,106.29921 0,159.44885 z"
       id="path8380"
       inkscape:connector-curvature="0" />
    <path
       sodipodi:nodetypes="cccccccccc"
       style="fill:url(#linearGradient8386);fill-opacity:1;stroke:none"
       d="m 460.62992,1031.1023 0,-177.16535 35.43307,0 0,159.44885 0,35.433 -88.58268,0 0,-35.433 35.43308,0 0,17.7165 z"
       id="path8384"
       inkscape:connector-curvature="0" />
    <path
       inkscape:connector-curvature="0"
       id="path8388"
       d="m 53.149606,853.93695 0,159.44885"
       style="fill:none;stroke:#000000;stroke-width:0.70866144;stroke-linecap:butt;stroke-linejoin:miter;stroke-miterlimit:4;stroke-opacity:1;stroke-dasharray:none" />
    <path
       style="fill:none;stroke:#000000;stroke-width:0.70866144;stroke-linecap:butt;stroke-linejoin:miter;stroke-miterlimit:4;stroke-opacity:1;stroke-dasharray:none"
       d="m 88.582677,853.93695 0,159.44885"
       id="path8390"
       inkscape:connector-curvature="0" />
    <path
       sodipodi:nodetypes="cc"
       inkscape:connector-curvature="0"
       id="path8392"
       d="M 155.90551,853.93698 141.73228,1013.3858"
       style="fill:none;stroke:#000000;stroke-width:0.70866144;stroke-linecap:butt;stroke-linejoin:miter;stroke-miterlimit:4;stroke-opacity:1;stroke-dasharray:none" />
    <path
       style="fill:none;stroke:#000000;stroke-width:0.70866144;stroke-linecap:butt;stroke-linejoin:miter;stroke-miterlimit:4;stroke-opacity:1;stroke-dasharray:none"
       d="m 162.99213,853.93698 14.17322,159.44882"
       id="path8394"
       inkscape:connector-curvature="0"
       sodipodi:nodetypes="cc" />
    <path
       sodipodi:nodetypes="cc"
       inkscape:connector-curvature="0"
       id="path8396"
       d="M 230.31496,853.93695 248.0315,1013.3858"
       style="fill:none;stroke:#000000;stroke-width:0.70866144;stroke-linecap:butt;stroke-linejoin:miter;stroke-miterlimit:4;stroke-opacity:1;stroke-dasharray:none" />
    <path
       style="fill:none;stroke:#000000;stroke-width:0.70866144;stroke-linecap:butt;stroke-linejoin:miter;stroke-miterlimit:4;stroke-opacity:1;stroke-dasharray:none"
       d="M 301.1811,853.93695 283.46457,1013.3858"
       id="path8398"
       inkscape:connector-curvature="0"
       sodipodi:nodetypes="cc" />
    <path
       sodipodi:nodetypes="cc"
       inkscape:connector-curvature="0"
       id="path8400"
       d="m 336.61417,853.93695 c 17.71654,53.14961 -17.71653,106.29921 0,159.44885"
       style="fill:none;stroke:#000000;stroke-width:0.70866144;stroke-linecap:butt;stroke-linejoin:miter;stroke-miterlimit:4;stroke-opacity:1;stroke-dasharray:none" />
    <path
       style="fill:none;stroke:#000000;stroke-width:0.70866144;stroke-linecap:butt;stroke-linejoin:miter;stroke-miterlimit:4;stroke-opacity:1;stroke-dasharray:none"
       d="m 372.04724,853.93695 c 17.71654,53.14961 -17.71653,106.29921 0,159.44885"
       id="path8404"
       inkscape:connector-curvature="0"
       sodipodi:nodetypes="cc" />
    <path
       inkscape:connector-curvature="0"
       id="path7842"
       d="m 17.716535,853.93695 496.062995,0"
       style="fill:none;stroke:#000000;stroke-width:0.70866144;stroke-linecap:butt;stroke-linejoin:miter;stroke-miterlimit:4;stroke-opacity:1;stroke-dasharray:4.25196862, 4.25196862;stroke-dashoffset:0" />
    <path
       style="fill:none;stroke:#000000;stroke-width:0.70866144;stroke-linecap:butt;stroke-linejoin:miter;stroke-miterlimit:4;stroke-opacity:1;stroke-dasharray:4.25196862, 4.25196862;stroke-dashoffset:0"
       d="m 17.716535,1013.3858 496.062995,0"
       id="path8352"
       inkscape:connector-curvature="0" />
    <path
       inkscape:connector-curvature="0"
       id="path8406"
       d="m 496.06299,853.93695 0,194.88185 -88.58268,0 0,-35.433"
       style="fill:none;stroke:#000000;stroke-width:0.70866144;stroke-linecap:butt;stroke-linejoin:miter;stroke-miterlimit:4;stroke-opacity:1;stroke-dasharray:none" />
    <path
       inkscape:connector-curvature="0"
       id="path8408"
       d="m 442.91339,1013.3858 0,17.7165 17.71653,0 0,-177.16535"
       style="fill:none;stroke:#000000;stroke-width:0.70866144;stroke-linecap:butt;stroke-linejoin:miter;stroke-miterlimit:4;stroke-opacity:1;stroke-dasharray:none" />
    <g
       transform="translate(-49.606299,34.017451)"
       id="g6251">
      <path
         sodipodi:nodetypes="cc"
         style="fill:none;stroke:#000000;stroke-width:0.70866144;stroke-linecap:butt;stroke-linejoin:miter;stroke-miterlimit:4;stroke-opacity:1;stroke-dasharray:none"
         d="m 102.75591,819.9195 35.43307,0"
         id="path6205"
         inkscape:connector-curvature="0" />
      <path
         sodipodi:nodetypes="cc"
         style="fill:none;stroke:#000000;stroke-width:0.35433072;stroke-linecap:butt;stroke-linejoin:miter;stroke-miterlimit:4;stroke-opacity:1;stroke-dasharray:none"
         d="m 116.92913,823.46281 21.25985,0"
         id="path6207"
         inkscape:connector-curvature="0" />
      <path
         sodipodi:nodetypes="cc"
         inkscape:connector-curvature="0"
         id="path6209"
         d="m 124.01575,827.00612 14.17323,0"
         style="fill:none;stroke:#000000;stroke-width:0.35433072;stroke-linecap:butt;stroke-linejoin:miter;stroke-miterlimit:4;stroke-opacity:1;stroke-dasharray:none" />
      <path
         sodipodi:nodetypes="cc"
         style="fill:none;stroke:#000000;stroke-width:0.35433072;stroke-linecap:butt;stroke-linejoin:miter;stroke-miterlimit:4;stroke-opacity:1;stroke-dasharray:none"
         d="m 131.10236,830.54942 7.08662,0"
         id="path6211"
         inkscape:connector-curvature="0" />
    </g>
    <g
       id="g8440"
       transform="translate(38.976376,34.017448)">
      <path
         inkscape:connector-curvature="0"
         id="path8442"
         d="m 116.92914,819.91954 7.08661,0"
         style="fill:none;stroke:#000000;stroke-width:0.70866144;stroke-linecap:butt;stroke-linejoin:miter;stroke-miterlimit:4;stroke-opacity:1;stroke-dasharray:none"
         sodipodi:nodetypes="cc" />
      <path
         inkscape:connector-curvature="0"
         id="path8444"
         d="m 120.47244,823.46284 3.54331,0"
         style="fill:none;stroke:#000000;stroke-width:0.35433072;stroke-linecap:butt;stroke-linejoin:miter;stroke-miterlimit:4;stroke-opacity:1;stroke-dasharray:none"
         sodipodi:nodetypes="cc" />
      <path
         style="fill:none;stroke:#000000;stroke-width:0.35433072;stroke-linecap:butt;stroke-linejoin:miter;stroke-miterlimit:4;stroke-opacity:1;stroke-dasharray:none"
         d="m 122.1161,827.00615 c 0.85232,0 2.45531,0 2.43536,0"
         id="path8446"
         inkscape:connector-curvature="0"
         sodipodi:nodetypes="cc" />
      <path
         inkscape:connector-curvature="0"
         id="path8448"
         d="m 123.64525,830.54946 1.21871,0"
         style="fill:none;stroke:#000000;stroke-width:0.35433072;stroke-linecap:butt;stroke-linejoin:miter;stroke-miterlimit:4;stroke-opacity:1;stroke-dasharray:none"
         sodipodi:nodetypes="cc" />
      <path
         transform="translate(-38.976376,812.83292)"
         inkscape:connector-curvature="0"
         id="path3046"
         d="m 53.149606,166.53543 35.433071,0"
         style="fill:none;stroke:#000000;stroke-width:0.70866142;stroke-linecap:butt;stroke-linejoin:miter;stroke-opacity:1;stroke-miterlimit:4;stroke-dasharray:none" />
      <path
         style="fill:none;stroke:#000000;stroke-width:0.70866144;stroke-linecap:butt;stroke-linejoin:miter;stroke-miterlimit:4;stroke-opacity:1;stroke-dasharray:none"
         d="m 102.75591,979.36835 35.43307,0"
         id="path3816"
         inkscape:connector-curvature="0" />
      <path
         inkscape:connector-curvature="0"
         id="path3818"
         d="m 209.05512,979.36835 35.43307,0"
         style="fill:none;stroke:#000000;stroke-width:0.70866144;stroke-linecap:butt;stroke-linejoin:miter;stroke-miterlimit:4;stroke-opacity:1;stroke-dasharray:none" />
      <path
         style="fill:none;stroke:#000000;stroke-width:0.70866144;stroke-linecap:butt;stroke-linejoin:miter;stroke-miterlimit:4;stroke-opacity:1;stroke-dasharray:none"
         d="m 297.6378,979.36835 35.43307,0"
         id="path3820"
         inkscape:connector-curvature="0" />
      <path
         inkscape:connector-curvature="0"
         id="path3822"
         d="m 368.50394,979.36835 35.43307,0"
         style="fill:none;stroke:#000000;stroke-width:0.70866144;stroke-linecap:butt;stroke-linejoin:miter;stroke-miterlimit:4;stroke-opacity:1;stroke-dasharray:none" />
      <path
         sodipodi:nodetypes="cc"
         inkscape:transform-center-y="-38.205419"
         inkscape:connector-curvature="0"
         id="path3210"
         d="m 31.889766,1014.8014 0,-31.88978"
         style="fill:none;stroke:#000000;stroke-width:1.41732287;stroke-linecap:butt;stroke-linejoin:miter;stroke-miterlimit:4;stroke-opacity:1;stroke-dasharray:none;marker-end:url(#Arrow1Mend)"
         inkscape:transform-center-x="14.83053" />
      <path
         inkscape:transform-center-x="14.83053"
         style="fill:none;stroke:#000000;stroke-width:1.41732287;stroke-linecap:butt;stroke-linejoin:miter;stroke-miterlimit:4;stroke-opacity:1;stroke-dasharray:none;marker-end:url(#Arrow1Mend)"
         d="m 120.47244,1014.8014 0,-31.88975"
         id="path3849"
         inkscape:connector-curvature="0"
         inkscape:transform-center-y="-38.205419"
         sodipodi:nodetypes="cc" />
      <path
         sodipodi:nodetypes="cc"
         inkscape:transform-center-y="-38.205419"
         inkscape:connector-curvature="0"
         id="path3851"
         d="m 226.77166,1014.8014 0,-31.8897"
         style="fill:none;stroke:#000000;stroke-width:1.41732287;stroke-linecap:butt;stroke-linejoin:miter;stroke-miterlimit:4;stroke-opacity:1;stroke-dasharray:none;marker-end:url(#Arrow1Mend)"
         inkscape:transform-center-x="14.83053" />
      <path
         inkscape:transform-center-x="14.83053"
         style="fill:none;stroke:#000000;stroke-width:1.41732287;stroke-linecap:butt;stroke-linejoin:miter;stroke-miterlimit:4;stroke-opacity:1;stroke-dasharray:none;marker-end:url(#Arrow1Mend)"
         d="m 315.35433,1014.8014 0,-31.88967"
         id="path3853"
         inkscape:connector-curvature="0"
         inkscape:transform-center-y="-38.205419"
         sodipodi:nodetypes="cc" />
      <path
         sodipodi:nodetypes="cc"
         inkscape:transform-center-y="38.205428"
         inkscape:connector-curvature="0"
         id="path3855"
         d="m 386.22047,943.93528 0,31.8897"
         style="fill:none;stroke:#000000;stroke-width:1.41732287;stroke-linecap:butt;stroke-linejoin:miter;stroke-miterlimit:4;stroke-opacity:1;stroke-dasharray:none;marker-end:url(#Arrow1Mend)"
         inkscape:transform-center-x="-14.83053" />
    </g>
    <g
       transform="translate(162.99212,34.017451)"
       id="g8450">
      <path
         sodipodi:nodetypes="cc"
         style="fill:none;stroke:#000000;stroke-width:0.70866144;stroke-linecap:butt;stroke-linejoin:miter;stroke-miterlimit:4;stroke-opacity:1;stroke-dasharray:none"
         d="m 67.32284,819.9195 70.86614,0"
         id="path8452"
         inkscape:connector-curvature="0" />
      <path
         sodipodi:nodetypes="cc"
         style="fill:none;stroke:#000000;stroke-width:0.35433072;stroke-linecap:butt;stroke-linejoin:miter;stroke-miterlimit:4;stroke-opacity:1;stroke-dasharray:none"
         d="m 109.52686,823.46281 28.34646,0"
         id="path8454"
         inkscape:connector-curvature="0" />
      <path
         sodipodi:nodetypes="cc"
         inkscape:connector-curvature="0"
         id="path8456"
         d="m 119.6517,827.00612 17.71653,0"
         style="fill:none;stroke:#000000;stroke-width:0.35433075;stroke-linecap:butt;stroke-linejoin:miter;stroke-miterlimit:4;stroke-opacity:1;stroke-dasharray:none" />
      <path
         sodipodi:nodetypes="cc"
         style="fill:none;stroke:#000000;stroke-width:0.35433072;stroke-linecap:butt;stroke-linejoin:miter;stroke-miterlimit:4;stroke-opacity:1;stroke-dasharray:none"
         d="m 126.04383,830.54942 10.62991,0"
         id="path8458"
         inkscape:connector-curvature="0" />
    </g>
    <g
       id="g8460"
       transform="translate(233.85827,34.017455)">
      <path
         inkscape:connector-curvature="0"
         id="path8462"
         d="m 102.75591,819.9195 35.43307,0"
         style="fill:none;stroke:#000000;stroke-width:0.70866144;stroke-linecap:butt;stroke-linejoin:miter;stroke-miterlimit:4;stroke-opacity:1;stroke-dasharray:none"
         sodipodi:nodetypes="cc" />
      <path
         inkscape:connector-curvature="0"
         id="path8464"
         d="m 117.81301,823.46281 21.25985,0"
         style="fill:none;stroke:#000000;stroke-width:0.35433072;stroke-linecap:butt;stroke-linejoin:miter;stroke-miterlimit:4;stroke-opacity:1;stroke-dasharray:none"
         sodipodi:nodetypes="cc" />
      <path
         style="fill:none;stroke:#000000;stroke-width:0.35433072;stroke-linecap:butt;stroke-linejoin:miter;stroke-miterlimit:4;stroke-opacity:1;stroke-dasharray:none"
         d="m 125.94135,827.00612 14.17323,0"
         id="path8466"
         inkscape:connector-curvature="0"
         sodipodi:nodetypes="cc" />
      <path
         inkscape:connector-curvature="0"
         id="path8468"
         d="m 133.75401,830.54942 7.08662,0"
         style="fill:none;stroke:#000000;stroke-width:0.35433072;stroke-linecap:butt;stroke-linejoin:miter;stroke-miterlimit:4;stroke-opacity:1;stroke-dasharray:none"
         sodipodi:nodetypes="cc" />
    </g>
    <g
       transform="translate(357.87401,34.017451)"
       id="g8470">
      <path
         sodipodi:nodetypes="cc"
         style="fill:none;stroke:#000000;stroke-width:0.70866144;stroke-linecap:butt;stroke-linejoin:miter;stroke-miterlimit:4;stroke-opacity:1;stroke-dasharray:none"
         d="m 102.75591,819.9195 35.43307,0"
         id="path8472"
         inkscape:connector-curvature="0" />
      <path
         sodipodi:nodetypes="cc"
         style="fill:none;stroke:#000000;stroke-width:0.35433072;stroke-linecap:butt;stroke-linejoin:miter;stroke-miterlimit:4;stroke-opacity:1;stroke-dasharray:none"
         d="m 116.92913,823.46281 21.25985,0"
         id="path8474"
         inkscape:connector-curvature="0" />
      <path
         sodipodi:nodetypes="cc"
         inkscape:connector-curvature="0"
         id="path8476"
         d="m 124.01575,827.00612 14.17323,0"
         style="fill:none;stroke:#000000;stroke-width:0.35433072;stroke-linecap:butt;stroke-linejoin:miter;stroke-miterlimit:4;stroke-opacity:1;stroke-dasharray:none" />
      <path
         sodipodi:nodetypes="cc"
         style="fill:none;stroke:#000000;stroke-width:0.35433072;stroke-linecap:butt;stroke-linejoin:miter;stroke-miterlimit:4;stroke-opacity:1;stroke-dasharray:none"
         d="m 131.10236,830.54942 7.08662,0"
         id="path8478"
         inkscape:connector-curvature="0" />
    </g>
    <g
       ns0:preamble="D:\\Onderwijs\\FLUI\\Cursus\\FLUI_theorie\\tex\\commands.tex"
       ns0:text="$\\vt{F}$"
       word-spacing="normal"
       letter-spacing="normal"
       font-size-adjust="none"
       font-stretch="normal"
       font-weight="normal"
       font-variant="normal"
       font-style="normal"
       stroke-miterlimit="10.433"
       xml:space="preserve"
       transform="matrix(1.25,0,0,-1.25,-204.03806,1928.9648)"
       id="content"
       style="font-style:normal;font-variant:normal;font-weight:normal;font-stretch:normal;letter-spacing:normal;word-spacing:normal;text-anchor:start;fill:none;stroke:#000000;stroke-linecap:butt;stroke-linejoin:miter;stroke-miterlimit:10.43299961;stroke-opacity:1;stroke-dasharray:none;stroke-dashoffset:0">
<path
   id="path3140"
   d="m 227.07,710.27 h 0.65 c 0.6,0 0.77,-0.1 0.77,-0.42 0,-0.11 -0.03,-0.3 -0.06,-0.42 -0.02,-0.07 -0.03,-0.12 -0.03,-0.14 0,-0.15 0.13,-0.18 0.23,-0.18 0.19,0 0.19,0.06 0.24,0.24 l 0.56,2.22 c 0.04,0.13 0.04,0.14 0.04,0.15 0,0.18 -0.2,0.18 -0.24,0.18 -0.19,0 -0.21,-0.07 -0.26,-0.25 -0.2,-0.76 -0.5,-0.91 -1.22,-0.91 h -0.56 l 0.66,2.65 c 0.13,0.02 0.24,0.02 0.34,0.02 h 1.18 c 1.14,0 1.48,-0.28 1.48,-1.16 0,-0.24 -0.04,-0.54 -0.04,-0.58 0,-0.18 0.19,-0.18 0.24,-0.18 0.21,0 0.22,0.1 0.24,0.27 l 0.18,1.78 0.01,0.16 c 0,0.18 -0.17,0.18 -0.33,0.18 h -5.35 c -0.21,0 -0.22,-0.01 -0.27,-0.05 -0.07,-0.05 -0.09,-0.23 -0.09,-0.24 0,-0.18 0.14,-0.18 0.41,-0.18 0.21,0 0.4,-0.01 0.61,-0.02 l -1.41,-5.6 c -0.04,-0.16 -0.05,-0.17 -0.23,-0.19 -0.16,-0.01 -0.36,-0.01 -0.52,-0.01 -0.26,0 -0.28,0 -0.32,-0.02 -0.12,-0.07 -0.12,-0.23 -0.12,-0.27 0,-0.01 0,-0.17 0.22,-0.17 0.25,0 0.51,0.02 0.76,0.02 0.26,0 0.53,0.01 0.8,0.01 0.3,0 0.6,-0.01 0.9,-0.01 0.28,0 0.57,-0.02 0.85,-0.02 0.12,0 0.3,0 0.3,0.28 0,0.18 -0.17,0.18 -0.33,0.18 h -0.33 c -0.37,0 -0.52,0.02 -0.62,0.04 z"
   inkscape:connector-curvature="0"
   style="fill:#000000;stroke-width:0" />
</g>    <g
       ns0:preamble="D:\\Onderwijs\\FLUI\\Cursus\\FLUI_theorie\\tex\\commands.tex"
       ns0:text="$\\vt{F}$"
       word-spacing="normal"
       letter-spacing="normal"
       font-size-adjust="none"
       font-stretch="normal"
       font-weight="normal"
       font-variant="normal"
       font-style="normal"
       stroke-miterlimit="10.433"
       xml:space="preserve"
       transform="matrix(1.25,0,0,-1.25,-115.64971,1928.9648)"
       id="g3227"
       style="font-style:normal;font-variant:normal;font-weight:normal;font-stretch:normal;letter-spacing:normal;word-spacing:normal;text-anchor:start;fill:none;stroke:#000000;stroke-linecap:butt;stroke-linejoin:miter;stroke-miterlimit:10.43299961;stroke-opacity:1;stroke-dasharray:none;stroke-dashoffset:0">
<path
   id="path3229"
   d="m 227.07,710.27 h 0.65 c 0.6,0 0.77,-0.1 0.77,-0.42 0,-0.11 -0.03,-0.3 -0.06,-0.42 -0.02,-0.07 -0.03,-0.12 -0.03,-0.14 0,-0.15 0.13,-0.18 0.23,-0.18 0.19,0 0.19,0.06 0.24,0.24 l 0.56,2.22 c 0.04,0.13 0.04,0.14 0.04,0.15 0,0.18 -0.2,0.18 -0.24,0.18 -0.19,0 -0.21,-0.07 -0.26,-0.25 -0.2,-0.76 -0.5,-0.91 -1.22,-0.91 h -0.56 l 0.66,2.65 c 0.13,0.02 0.24,0.02 0.34,0.02 h 1.18 c 1.14,0 1.48,-0.28 1.48,-1.16 0,-0.24 -0.04,-0.54 -0.04,-0.58 0,-0.18 0.19,-0.18 0.24,-0.18 0.21,0 0.22,0.1 0.24,0.27 l 0.18,1.78 0.01,0.16 c 0,0.18 -0.17,0.18 -0.33,0.18 h -5.35 c -0.21,0 -0.22,-0.01 -0.27,-0.05 -0.07,-0.05 -0.09,-0.23 -0.09,-0.24 0,-0.18 0.14,-0.18 0.41,-0.18 0.21,0 0.4,-0.01 0.61,-0.02 l -1.41,-5.6 c -0.04,-0.16 -0.05,-0.17 -0.23,-0.19 -0.16,-0.01 -0.36,-0.01 -0.52,-0.01 -0.26,0 -0.28,0 -0.32,-0.02 -0.12,-0.07 -0.12,-0.23 -0.12,-0.27 0,-0.01 0,-0.17 0.22,-0.17 0.25,0 0.51,0.02 0.76,0.02 0.26,0 0.53,0.01 0.8,0.01 0.3,0 0.6,-0.01 0.9,-0.01 0.28,0 0.57,-0.02 0.85,-0.02 0.12,0 0.3,0 0.3,0.28 0,0.18 -0.17,0.18 -0.33,0.18 h -0.33 c -0.37,0 -0.52,0.02 -0.62,0.04 z"
   inkscape:connector-curvature="0"
   style="fill:#000000;stroke-width:0" />
</g>    <g
       ns0:preamble="D:\\Onderwijs\\FLUI\\Cursus\\FLUI_theorie\\tex\\commands.tex"
       ns0:text="$\\vt{F}$"
       word-spacing="normal"
       letter-spacing="normal"
       font-size-adjust="none"
       font-stretch="normal"
       font-weight="normal"
       font-variant="normal"
       font-style="normal"
       stroke-miterlimit="10.433"
       xml:space="preserve"
       transform="matrix(1.25,0,0,-1.25,-10.088771,1928.9648)"
       id="g3231"
       style="font-style:normal;font-variant:normal;font-weight:normal;font-stretch:normal;letter-spacing:normal;word-spacing:normal;text-anchor:start;fill:none;stroke:#000000;stroke-linecap:butt;stroke-linejoin:miter;stroke-miterlimit:10.43299961;stroke-opacity:1;stroke-dasharray:none;stroke-dashoffset:0">
<path
   id="path3233"
   d="m 227.07,710.27 h 0.65 c 0.6,0 0.77,-0.1 0.77,-0.42 0,-0.11 -0.03,-0.3 -0.06,-0.42 -0.02,-0.07 -0.03,-0.12 -0.03,-0.14 0,-0.15 0.13,-0.18 0.23,-0.18 0.19,0 0.19,0.06 0.24,0.24 l 0.56,2.22 c 0.04,0.13 0.04,0.14 0.04,0.15 0,0.18 -0.2,0.18 -0.24,0.18 -0.19,0 -0.21,-0.07 -0.26,-0.25 -0.2,-0.76 -0.5,-0.91 -1.22,-0.91 h -0.56 l 0.66,2.65 c 0.13,0.02 0.24,0.02 0.34,0.02 h 1.18 c 1.14,0 1.48,-0.28 1.48,-1.16 0,-0.24 -0.04,-0.54 -0.04,-0.58 0,-0.18 0.19,-0.18 0.24,-0.18 0.21,0 0.22,0.1 0.24,0.27 l 0.18,1.78 0.01,0.16 c 0,0.18 -0.17,0.18 -0.33,0.18 h -5.35 c -0.21,0 -0.22,-0.01 -0.27,-0.05 -0.07,-0.05 -0.09,-0.23 -0.09,-0.24 0,-0.18 0.14,-0.18 0.41,-0.18 0.21,0 0.4,-0.01 0.61,-0.02 l -1.41,-5.6 c -0.04,-0.16 -0.05,-0.17 -0.23,-0.19 -0.16,-0.01 -0.36,-0.01 -0.52,-0.01 -0.26,0 -0.28,0 -0.32,-0.02 -0.12,-0.07 -0.12,-0.23 -0.12,-0.27 0,-0.01 0,-0.17 0.22,-0.17 0.25,0 0.51,0.02 0.76,0.02 0.26,0 0.53,0.01 0.8,0.01 0.3,0 0.6,-0.01 0.9,-0.01 0.28,0 0.57,-0.02 0.85,-0.02 0.12,0 0.3,0 0.3,0.28 0,0.18 -0.17,0.18 -0.33,0.18 h -0.33 c -0.37,0 -0.52,0.02 -0.62,0.04 z"
   inkscape:connector-curvature="0"
   style="fill:#000000;stroke-width:0" />
</g>    <g
       ns0:preamble="D:\\Onderwijs\\FLUI\\Cursus\\FLUI_theorie\\tex\\commands.tex"
       ns0:text="$\\vt{F}$"
       word-spacing="normal"
       letter-spacing="normal"
       font-size-adjust="none"
       font-stretch="normal"
       font-weight="normal"
       font-variant="normal"
       font-style="normal"
       stroke-miterlimit="10.433"
       xml:space="preserve"
       transform="matrix(1.25,0,0,-1.25,80.319881,1928.9648)"
       id="g3235"
       style="font-style:normal;font-variant:normal;font-weight:normal;font-stretch:normal;letter-spacing:normal;word-spacing:normal;text-anchor:start;fill:none;stroke:#000000;stroke-linecap:butt;stroke-linejoin:miter;stroke-miterlimit:10.43299961;stroke-opacity:1;stroke-dasharray:none;stroke-dashoffset:0">
<path
   id="path3237"
   d="m 227.07,710.27 h 0.65 c 0.6,0 0.77,-0.1 0.77,-0.42 0,-0.11 -0.03,-0.3 -0.06,-0.42 -0.02,-0.07 -0.03,-0.12 -0.03,-0.14 0,-0.15 0.13,-0.18 0.23,-0.18 0.19,0 0.19,0.06 0.24,0.24 l 0.56,2.22 c 0.04,0.13 0.04,0.14 0.04,0.15 0,0.18 -0.2,0.18 -0.24,0.18 -0.19,0 -0.21,-0.07 -0.26,-0.25 -0.2,-0.76 -0.5,-0.91 -1.22,-0.91 h -0.56 l 0.66,2.65 c 0.13,0.02 0.24,0.02 0.34,0.02 h 1.18 c 1.14,0 1.48,-0.28 1.48,-1.16 0,-0.24 -0.04,-0.54 -0.04,-0.58 0,-0.18 0.19,-0.18 0.24,-0.18 0.21,0 0.22,0.1 0.24,0.27 l 0.18,1.78 0.01,0.16 c 0,0.18 -0.17,0.18 -0.33,0.18 h -5.35 c -0.21,0 -0.22,-0.01 -0.27,-0.05 -0.07,-0.05 -0.09,-0.23 -0.09,-0.24 0,-0.18 0.14,-0.18 0.41,-0.18 0.21,0 0.4,-0.01 0.61,-0.02 l -1.41,-5.6 c -0.04,-0.16 -0.05,-0.17 -0.23,-0.19 -0.16,-0.01 -0.36,-0.01 -0.52,-0.01 -0.26,0 -0.28,0 -0.32,-0.02 -0.12,-0.07 -0.12,-0.23 -0.12,-0.27 0,-0.01 0,-0.17 0.22,-0.17 0.25,0 0.51,0.02 0.76,0.02 0.26,0 0.53,0.01 0.8,0.01 0.3,0 0.6,-0.01 0.9,-0.01 0.28,0 0.57,-0.02 0.85,-0.02 0.12,0 0.3,0 0.3,0.28 0,0.18 -0.17,0.18 -0.33,0.18 h -0.33 c -0.37,0 -0.52,0.02 -0.62,0.04 z"
   inkscape:connector-curvature="0"
   style="fill:#000000;stroke-width:0" />
</g>    <g
       style="font-style:normal;font-variant:normal;font-weight:normal;font-stretch:normal;letter-spacing:normal;word-spacing:normal;text-anchor:start;fill:none;stroke:#000000;stroke-linecap:butt;stroke-linejoin:miter;stroke-miterlimit:10.43299961;stroke-opacity:1;stroke-dasharray:none;stroke-dashoffset:0"
       id="g3223"
       transform="matrix(1.25,0,0,-1.25,151.53564,1868.3556)"
       xml:space="preserve"
       stroke-miterlimit="10.433"
       font-style="normal"
       font-variant="normal"
       font-weight="normal"
       font-stretch="normal"
       font-size-adjust="none"
       letter-spacing="normal"
       word-spacing="normal"
       ns0:text="$\\vt{F}$"
       ns0:preamble="D:\\Onderwijs\\FLUI\\Cursus\\FLUI_theorie\\tex\\commands.tex">
<path
   style="fill:#000000;stroke-width:0"
   inkscape:connector-curvature="0"
   d="m 227.07,710.27 h 0.65 c 0.6,0 0.77,-0.1 0.77,-0.42 0,-0.11 -0.03,-0.3 -0.06,-0.42 -0.02,-0.07 -0.03,-0.12 -0.03,-0.14 0,-0.15 0.13,-0.18 0.23,-0.18 0.19,0 0.19,0.06 0.24,0.24 l 0.56,2.22 c 0.04,0.13 0.04,0.14 0.04,0.15 0,0.18 -0.2,0.18 -0.24,0.18 -0.19,0 -0.21,-0.07 -0.26,-0.25 -0.2,-0.76 -0.5,-0.91 -1.22,-0.91 h -0.56 l 0.66,2.65 c 0.13,0.02 0.24,0.02 0.34,0.02 h 1.18 c 1.14,0 1.48,-0.28 1.48,-1.16 0,-0.24 -0.04,-0.54 -0.04,-0.58 0,-0.18 0.19,-0.18 0.24,-0.18 0.21,0 0.22,0.1 0.24,0.27 l 0.18,1.78 0.01,0.16 c 0,0.18 -0.17,0.18 -0.33,0.18 h -5.35 c -0.21,0 -0.22,-0.01 -0.27,-0.05 -0.07,-0.05 -0.09,-0.23 -0.09,-0.24 0,-0.18 0.14,-0.18 0.41,-0.18 0.21,0 0.4,-0.01 0.61,-0.02 l -1.41,-5.6 c -0.04,-0.16 -0.05,-0.17 -0.23,-0.19 -0.16,-0.01 -0.36,-0.01 -0.52,-0.01 -0.26,0 -0.28,0 -0.32,-0.02 -0.12,-0.07 -0.12,-0.23 -0.12,-0.27 0,-0.01 0,-0.17 0.22,-0.17 0.25,0 0.51,0.02 0.76,0.02 0.26,0 0.53,0.01 0.8,0.01 0.3,0 0.6,-0.01 0.9,-0.01 0.28,0 0.57,-0.02 0.85,-0.02 0.12,0 0.3,0 0.3,0.28 0,0.18 -0.17,0.18 -0.33,0.18 h -0.33 c -0.37,0 -0.52,0.02 -0.62,0.04 z"
   id="path3225" />
</g>  </g>
</svg>
