<?xml version="1.0" encoding="UTF-8" standalone="no"?>
<!-- Created with Inkscape (http://www.inkscape.org/) -->

<svg
   xmlns:ns0="http://www.iki.fi/pav/software/textext/"
   xmlns:dc="http://purl.org/dc/elements/1.1/"
   xmlns:cc="http://creativecommons.org/ns#"
   xmlns:rdf="http://www.w3.org/1999/02/22-rdf-syntax-ns#"
   xmlns:svg="http://www.w3.org/2000/svg"
   xmlns="http://www.w3.org/2000/svg"
   xmlns:xlink="http://www.w3.org/1999/xlink"
   xmlns:sodipodi="http://sodipodi.sourceforge.net/DTD/sodipodi-0.dtd"
   xmlns:inkscape="http://www.inkscape.org/namespaces/inkscape"
   width="265.74802"
   height="201.96851"
   id="svg3041"
   version="1.1"
   inkscape:version="0.48.2 r9819"
   sodipodi:docname="oppervlak_in_stilstaande_vloeistof.svg">
  <sodipodi:namedview
     id="base"
     pagecolor="#ffffff"
     bordercolor="#666666"
     borderopacity="1.0"
     inkscape:pageopacity="0.0"
     inkscape:pageshadow="2"
     inkscape:zoom="1.979899"
     inkscape:cx="112.81702"
     inkscape:cy="77.830248"
     inkscape:document-units="mm"
     inkscape:current-layer="layer1"
     showgrid="false"
     inkscape:window-width="1366"
     inkscape:window-height="706"
     inkscape:window-x="-8"
     inkscape:window-y="-8"
     inkscape:window-maximized="1"
     units="mm"
     inkscape:snap-bbox="true"
     inkscape:object-paths="true">
    <inkscape:grid
       spacingy="1mm"
       spacingx="1mm"
       units="mm"
       snapvisiblegridlinesonly="true"
       enabled="true"
       visible="true"
       empspacing="5"
       id="grid2992"
       type="xygrid" />
  </sodipodi:namedview>
  <defs
     id="defs3043">
    <marker
       style="overflow:visible"
       id="Arrow1Mstart"
       refX="0.0"
       refY="0.0"
       orient="auto"
       inkscape:stockid="Arrow1Mstart">
      <path
         transform="scale(0.4) translate(10,0)"
         style="fill-rule:evenodd;stroke:#000000;stroke-width:1.0pt;marker-start:none"
         d="M 0.0,0.0 L 5.0,-5.0 L -12.5,0.0 L 5.0,5.0 L 0.0,0.0 z "
         id="path6290" />
    </marker>
    <linearGradient
       id="linearGradient6221">
      <stop
         id="stop6223"
         offset="0"
         style="stop-color:#cccccc;stop-opacity:1;" />
      <stop
         id="stop6225"
         offset="1"
         style="stop-color:#cccccc;stop-opacity:0.58823532;" />
    </linearGradient>
    <marker
       style="overflow:visible"
       id="Arrow1Mend"
       refX="0"
       refY="0"
       orient="auto"
       inkscape:stockid="Arrow1Mend">
      <path
         inkscape:connector-curvature="0"
         transform="matrix(-0.4,0,0,-0.4,-4,0)"
         style="fill-rule:evenodd;stroke:#000000;stroke-width:1pt;marker-start:none"
         d="M 0,0 5,-5 -12.5,0 5,5 0,0 z"
         id="path3773" />
    </marker>
    <linearGradient
       gradientTransform="matrix(1,0,0,0.94119673,-8.4925434,738.29914)"
       gradientUnits="userSpaceOnUse"
       y2="124.01572"
       x2="141.73228"
       y1="354.33069"
       x1="141.73228"
       id="linearGradient6227"
       xlink:href="#linearGradient6221"
       inkscape:collect="always" />
  </defs>
  <metadata
     id="metadata3046">
    <rdf:RDF>
      <cc:Work
         rdf:about="">
        <dc:format>image/svg+xml</dc:format>
        <dc:type
           rdf:resource="http://purl.org/dc/dcmitype/StillImage" />
        <dc:title />
      </cc:Work>
    </rdf:RDF>
  </metadata>
  <g
     transform="translate(0,-850.39364)"
     id="layer1"
     inkscape:groupmode="layer"
     inkscape:label="Laag 1">
    <path
       sodipodi:nodetypes="ccscscsc"
       inkscape:connector-curvature="0"
       id="path6203"
       d="m 9.2239915,855.02235 248.0314985,0 c 0,0 4.42084,52.01564 -0.62992,91.39875 -3.53846,27.59098 3.54331,99.2126 3.54331,99.2126 0,0 -103.14035,5.7841 -144.2188,1.4261 -40.328437,-4.2784 -105.833008,-3.3276 -105.833008,-3.3276 0,0 -5.5497075,-55.60114 -0.8930805,-88.66138 6.1871855,-43.92661 0,-100.04847 0,-100.04847 z"
       style="fill:url(#linearGradient6227);fill-opacity:1;stroke:none" />
    <path
       style="fill:none;stroke:#000000;stroke-width:1.41732287;stroke-linecap:butt;stroke-linejoin:miter;stroke-miterlimit:4;stroke-opacity:1;stroke-dasharray:none;marker-end:url(#Arrow1Mend)"
       d="m 125.52321,914.53134 0,35.12979"
       id="path5096"
       inkscape:connector-curvature="0"
       inkscape:transform-center-x="7.1652493"
       inkscape:transform-center-y="15.84006"
       sodipodi:nodetypes="cc" />
    <g
       transform="translate(1.5074565,30.832305)"
       id="g6251">
      <path
         style="fill:none;stroke:#000000;stroke-width:0.70866144;stroke-linecap:butt;stroke-linejoin:miter;stroke-miterlimit:4;stroke-opacity:1;stroke-dasharray:none"
         d="m 7.716535,824.19004 248.031485,0"
         id="path6205"
         inkscape:connector-curvature="0" />
      <path
         style="fill:none;stroke:#000000;stroke-width:0.35433072;stroke-linecap:butt;stroke-linejoin:miter;stroke-miterlimit:4;stroke-opacity:1;stroke-dasharray:none"
         d="m 202.59843,827.73334 53.1496,0"
         id="path6207"
         inkscape:connector-curvature="0" />
      <path
         inkscape:connector-curvature="0"
         id="path6209"
         d="m 220.31496,831.27665 35.43307,0"
         style="fill:none;stroke:#000000;stroke-width:0.35433072;stroke-linecap:butt;stroke-linejoin:miter;stroke-miterlimit:4;stroke-opacity:1;stroke-dasharray:none" />
      <path
         style="fill:none;stroke:#000000;stroke-width:0.35433072;stroke-linecap:butt;stroke-linejoin:miter;stroke-miterlimit:4;stroke-opacity:1;stroke-dasharray:none"
         d="m 238.03149,834.81996 17.71654,0"
         id="path6211"
         inkscape:connector-curvature="0" />
    </g>
    <path
       inkscape:connector-curvature="0"
       id="path6267"
       d="m 90.090134,1003.114 70.866146,0"
       style="fill:none;stroke:#000000;stroke-width:1.77165354;stroke-linecap:butt;stroke-linejoin:miter;stroke-miterlimit:4;stroke-opacity:1;stroke-dasharray:none" />
    <path
       inkscape:connector-curvature="0"
       id="path6269"
       d="m 90.090134,1003.114 0,-148.09165"
       style="fill:none;stroke:#000000;stroke-width:0.70866144;stroke-linecap:butt;stroke-linejoin:miter;stroke-miterlimit:4;stroke-opacity:1;stroke-dasharray:4.25196849, 4.25196849;stroke-dashoffset:0" />
    <path
       style="fill:none;stroke:#000000;stroke-width:0.70866144;stroke-linecap:butt;stroke-linejoin:miter;stroke-miterlimit:4;stroke-opacity:1;stroke-dasharray:4.25196849, 4.25196849;stroke-dashoffset:0"
       d="m 160.95628,1003.114 0,-148.09165"
       id="path6271"
       inkscape:connector-curvature="0" />
    <path
       sodipodi:nodetypes="cc"
       inkscape:transform-center-y="-15.840047"
       inkscape:transform-center-x="-7.1652497"
       inkscape:connector-curvature="0"
       id="path6273"
       d="m 125.52321,1041.7871 0,-35.1298"
       style="fill:none;stroke:#000000;stroke-width:1.41732287;stroke-linecap:butt;stroke-linejoin:miter;stroke-miterlimit:4;stroke-opacity:1;stroke-dasharray:none;marker-end:url(#Arrow1Mend)" />
    <path
       inkscape:connector-curvature="0"
       id="path6279"
       d="m 74.751288,856.84667 0,145.01443"
       style="fill:none;stroke:#000000;stroke-width:0.70866144;stroke-linecap:butt;stroke-linejoin:miter;stroke-miterlimit:4;stroke-opacity:1;stroke-dasharray:none;marker-start:url(#Arrow1Mstart);marker-end:url(#Arrow1Mend)" />
    <g
       ns0:preamble="D:\\Onderwijs\\FLUI\\Cursus\\FLUI_theorie\\tex\\commands.tex"
       ns0:text="$h$"
       word-spacing="normal"
       letter-spacing="normal"
       font-size-adjust="none"
       font-stretch="normal"
       font-weight="normal"
       font-variant="normal"
       font-style="normal"
       stroke-miterlimit="10.433"
       xml:space="preserve"
       transform="matrix(1.25,0,0,-1.25,-214.35417,1824.6665)"
       id="content"
       style="font-style:normal;font-variant:normal;font-weight:normal;font-stretch:normal;letter-spacing:normal;word-spacing:normal;text-anchor:start;fill:none;stroke:#000000;stroke-linecap:butt;stroke-linejoin:miter;stroke-miterlimit:10.43299961;stroke-opacity:1;stroke-dasharray:none;stroke-dashoffset:0">
<path
   id="path3042"
   d="m 226.29,713.91 0,0 0,0 0,0 0,0 0,0.01 0,0 0,0 0,0.01 -0.01,0 0,0.01 0,0 0,0 0,0.01 0,0 0,0.01 -0.01,0 0,0.01 0,0 -0.01,0.01 0,0 0,0.01 -0.01,0 0,0 0,0 0,0.01 -0.01,0 0,0 0,0 -0.01,0 0,0.01 0,0 -0.01,0 0,0 -0.01,0 0,0 0,0 -0.01,0 0,0.01 -0.01,0 0,0 -0.01,0 0,0 -0.01,0 -0.01,0 0,0 c -0.23,0 -0.96,-0.08 -1.22,-0.1 -0.07,-0.01 -0.18,-0.02 -0.18,-0.2 0,-0.12 0.09,-0.12 0.23,-0.12 0.48,0 0.5,-0.07 0.5,-0.17 l -0.03,-0.2 -1.44,-5.72 c -0.04,-0.14 -0.04,-0.16 -0.04,-0.22 0,-0.22 0.2,-0.27 0.29,-0.27 0.16,0 0.32,0.12 0.37,0.25 l 0.18,0.76 0.22,0.89 c 0.06,0.22 0.12,0.44 0.17,0.67 0.02,0.06 0.1,0.39 0.11,0.45 0.03,0.09 0.34,0.64 0.68,0.91 0.22,0.16 0.53,0.35 0.95,0.35 0.43,0 0.54,-0.34 0.54,-0.7 0,-0.53 -0.38,-1.62 -0.62,-2.22 -0.08,-0.23 -0.13,-0.35 -0.13,-0.55 0,-0.47 0.35,-0.81 0.82,-0.81 0.94,0 1.3,1.45 1.3,1.53 0,0.1 -0.09,0.1 -0.12,0.1 -0.09,0 -0.09,-0.04 -0.14,-0.18 -0.15,-0.53 -0.47,-1.24 -1.02,-1.24 -0.17,0 -0.24,0.1 -0.24,0.33 0,0.25 0.09,0.49 0.18,0.71 0.16,0.42 0.61,1.61 0.61,2.18 0,0.65 -0.4,1.07 -1.15,1.07 -0.62,0 -1.1,-0.31 -1.47,-0.77 z"
   inkscape:connector-curvature="0"
   style="fill:#000000;stroke-width:0" />
</g>    <g
       id="g3112"
       transform="matrix(1.25,0,0,-1.25,-147.93664,1821.636)"
       xml:space="preserve"
       stroke-miterlimit="10.433"
       font-style="normal"
       font-variant="normal"
       font-weight="normal"
       font-stretch="normal"
       font-size-adjust="none"
       letter-spacing="normal"
       word-spacing="normal"
       ns0:text="$\\vt{G}$"
       ns0:preamble="D:\\Onderwijs\\FLUI\\Cursus\\FLUI_theorie\\tex\\commands.tex"
       style="font-style:normal;font-variant:normal;font-weight:normal;font-stretch:normal;letter-spacing:normal;word-spacing:normal;text-anchor:start;fill:none;stroke:#000000;stroke-linecap:butt;stroke-linejoin:miter;stroke-miterlimit:10.43299961;stroke-opacity:1;stroke-dasharray:none;stroke-dashoffset:0">
<path
   style="fill:#000000;stroke-width:0"
   inkscape:connector-curvature="0"
   d="m 230.74,709.21 0.01,0.01 0,0 0,0.01 0,0.01 0,0 0.01,0.01 0,0.01 0,0 0,0.01 0,0 0,0.01 0,0 0.01,0.01 0,0 0,0 0,0.01 0,0.01 0.01,0 0,0.01 0,0.01 0,0 0.01,0.01 0,0 0,0.01 0.01,0 0,0.01 0,0 0.01,0 0,0 0,0.01 0.01,0 0,0 0.01,0 0,0 0.01,0 0,0.01 0.01,0 0,0 0.01,0 0,0 c 0.12,0.02 0.26,0.02 0.38,0.02 0.25,0 0.41,0 0.41,0.29 0,0.05 -0.03,0.18 -0.21,0.18 -0.22,0 -0.45,-0.02 -0.68,-0.02 -0.21,0 -0.44,-0.01 -0.66,-0.01 -0.4,0 -1.37,0.03 -1.77,0.03 -0.12,0 -0.31,0 -0.31,-0.29 0,-0.18 0.18,-0.18 0.34,-0.18 h 0.37 c 0.1,0 0.65,0 0.65,-0.06 0,-0.01 0,-0.03 -0.07,-0.27 -0.01,-0.07 -0.17,-0.7 -0.18,-0.71 -0.17,-0.68 -0.96,-0.94 -1.59,-0.94 -0.58,0 -1.17,0.12 -1.64,0.5 -0.53,0.44 -0.53,1.12 -0.53,1.34 0,0.46 0.21,2.24 1.18,3.32 0.57,0.64 1.53,1.06 2.54,1.06 1.26,0 1.72,-0.96 1.72,-1.78 0,-0.11 -0.03,-0.26 -0.03,-0.35 0,-0.15 0.13,-0.15 0.27,-0.15 0.22,0 0.23,0.01 0.28,0.22 l 0.57,2.23 c 0.01,0.05 0.03,0.1 0.03,0.16 0,0.14 -0.14,0.14 -0.25,0.14 l -0.92,-0.72 c -0.2,0.2 -0.72,0.72 -1.83,0.72 -3.18,0 -4.95,-2.44 -4.95,-4.47 0,-1.82 1.4,-2.68 3.25,-2.68 1.05,0 1.74,0.34 2.06,0.68 0.25,-0.26 0.76,-0.51 0.83,-0.51 0.1,0 0.12,0.07 0.16,0.22 z"
   id="path3114" />
</g>    <g
       style="font-style:normal;font-variant:normal;font-weight:normal;font-stretch:normal;letter-spacing:normal;word-spacing:normal;text-anchor:start;fill:none;stroke:#000000;stroke-linecap:butt;stroke-linejoin:miter;stroke-miterlimit:10.43299961;stroke-opacity:1;stroke-dasharray:none;stroke-dashoffset:0"
       ns0:preamble="D:\\Onderwijs\\FLUI\\Cursus\\FLUI_theorie\\tex\\commands.tex"
       ns0:text="$\\vt{R}$"
       word-spacing="normal"
       letter-spacing="normal"
       font-size-adjust="none"
       font-stretch="normal"
       font-weight="normal"
       font-variant="normal"
       font-style="normal"
       stroke-miterlimit="10.433"
       xml:space="preserve"
       transform="matrix(1.25,0,0,-1.25,-148.44157,1919.7471)"
       id="g3184">
<path
   id="path3186"
   d="m 229.73,710.49 0.08,0.03 0.08,0.02 0.08,0.02 0.08,0.03 0.14,0.05 0.14,0.05 0.13,0.06 0.13,0.05 0.11,0.06 0.11,0.06 0.1,0.07 0.1,0.06 0.08,0.06 0.09,0.07 0.07,0.06 0.07,0.07 0.07,0.07 0.06,0.06 0.05,0.07 0.05,0.07 0.04,0.07 0.04,0.06 0.04,0.07 0.03,0.06 0.03,0.07 0.02,0.06 0.02,0.06 0.02,0.06 0.01,0.06 0.01,0.06 0.01,0.06 0,0.05 0.01,0.05 0,0.05 c 0,0.99 -1.07,1.52 -2.56,1.52 h -3.45 c -0.2,0 -0.37,0 -0.37,-0.29 0,-0.18 0.13,-0.18 0.42,-0.18 0.21,0 0.4,-0.01 0.61,-0.02 l -1.43,-5.66 c -0.04,-0.16 -0.05,-0.17 -0.23,-0.19 -0.16,-0.01 -0.36,-0.01 -0.52,-0.01 -0.26,0 -0.28,0 -0.32,-0.02 -0.12,-0.07 -0.12,-0.23 -0.12,-0.27 0,-0.02 0.01,-0.17 0.22,-0.17 0.25,0 0.51,0.02 0.76,0.02 0.23,0 0.48,0.01 0.72,0.01 0.34,0 1.18,-0.03 1.52,-0.03 0.08,0 0.16,0 0.21,0.06 0.05,0.05 0.07,0.21 0.07,0.22 0,0.18 -0.14,0.18 -0.41,0.18 -0.21,0 -0.39,0.01 -0.6,0.02 l 0.68,2.74 h 1.21 l 0.04,0.36 h -1.16 l 0.65,2.58 c 0.04,0.14 0.05,0.15 0.06,0.16 0.06,0.02 0.5,0.02 0.75,0.02 0.9,0 1.84,0 1.84,-0.82 0,-0.01 -0.04,-0.98 -0.56,-1.49 -0.14,-0.14 -0.59,-0.45 -1.58,-0.45 l -0.04,-0.36 c 0.29,0 0.98,-0.07 0.98,-0.81 0,-0.14 -0.09,-0.5 -0.16,-0.75 -0.1,-0.41 -0.14,-0.56 -0.14,-0.72 0,-1.03 1.34,-1.11 1.85,-1.11 1.06,0 1.43,0.99 1.43,1.15 0,0.18 -0.18,0.18 -0.24,0.18 -0.17,0 -0.2,-0.05 -0.24,-0.2 -0.13,-0.4 -0.49,-0.78 -0.87,-0.78 -0.26,0 -0.45,0.11 -0.45,0.61 0,0.15 0.01,0.31 0.14,1.1 0.02,0.12 0.05,0.31 0.05,0.4 0,0.39 -0.21,0.83 -0.86,1.07 z"
   inkscape:connector-curvature="0"
   style="fill:#000000;stroke-width:0" />
</g>  </g>
</svg>
