<?xml version="1.0" encoding="UTF-8" standalone="no"?>
<!-- Created with Inkscape (http://www.inkscape.org/) -->

<svg
   xmlns:ns0="http://www.iki.fi/pav/software/textext/"
   xmlns:dc="http://purl.org/dc/elements/1.1/"
   xmlns:cc="http://creativecommons.org/ns#"
   xmlns:rdf="http://www.w3.org/1999/02/22-rdf-syntax-ns#"
   xmlns:svg="http://www.w3.org/2000/svg"
   xmlns="http://www.w3.org/2000/svg"
   xmlns:xlink="http://www.w3.org/1999/xlink"
   xmlns:sodipodi="http://sodipodi.sourceforge.net/DTD/sodipodi-0.dtd"
   xmlns:inkscape="http://www.inkscape.org/namespaces/inkscape"
   width="370.78842"
   height="210.39799"
   id="svg3041"
   version="1.1"
   inkscape:version="0.48.2 r9819"
   sodipodi:docname="opwaartse_kracht.svg">
  <sodipodi:namedview
     id="base"
     pagecolor="#ffffff"
     bordercolor="#666666"
     borderopacity="1.0"
     inkscape:pageopacity="0.0"
     inkscape:pageshadow="2"
     inkscape:zoom="1.979899"
     inkscape:cx="137.88253"
     inkscape:cy="100.76702"
     inkscape:document-units="mm"
     inkscape:current-layer="layer1"
     showgrid="false"
     inkscape:window-width="1366"
     inkscape:window-height="706"
     inkscape:window-x="-8"
     inkscape:window-y="-8"
     inkscape:window-maximized="1"
     units="mm"
     fit-margin-left="1"
     fit-margin-bottom="1"
     fit-margin-top="1"
     fit-margin-right="1">
    <inkscape:grid
       spacingy="1mm"
       spacingx="1mm"
       units="mm"
       snapvisiblegridlinesonly="true"
       enabled="true"
       visible="true"
       empspacing="5"
       id="grid2992"
       type="xygrid" />
  </sodipodi:namedview>
  <defs
     id="defs3043">
    <marker
       style="overflow:visible"
       id="marker4085"
       refX="0"
       refY="0"
       orient="auto"
       inkscape:stockid="Arrow1Mend">
      <path
         inkscape:connector-curvature="0"
         transform="matrix(-0.4,0,0,-0.4,-4,0)"
         style="fill-rule:evenodd;stroke:#000000;stroke-width:1pt;marker-start:none"
         d="M 0,0 5,-5 -12.5,0 5,5 0,0 z"
         id="path4087" />
    </marker>
    <marker
       style="overflow:visible"
       id="marker3173"
       refX="0"
       refY="0"
       orient="auto"
       inkscape:stockid="Arrow1Mend">
      <path
         inkscape:connector-curvature="0"
         transform="matrix(-0.4,0,0,-0.4,-4,0)"
         style="fill-rule:evenodd;stroke:#000000;stroke-width:1pt;marker-start:none"
         d="M 0,0 5,-5 -12.5,0 5,5 0,0 z"
         id="path3175" />
    </marker>
    <marker
       style="overflow:visible"
       id="marker3177"
       refX="0"
       refY="0"
       orient="auto"
       inkscape:stockid="Arrow1Mend">
      <path
         inkscape:connector-curvature="0"
         transform="matrix(-0.4,0,0,-0.4,-4,0)"
         style="fill-rule:evenodd;stroke:#000000;stroke-width:1pt;marker-start:none"
         d="M 0,0 5,-5 -12.5,0 5,5 0,0 z"
         id="path3179" />
    </marker>
    <marker
       style="overflow:visible"
       id="marker3181"
       refX="0"
       refY="0"
       orient="auto"
       inkscape:stockid="Arrow1Mend">
      <path
         inkscape:connector-curvature="0"
         transform="matrix(-0.4,0,0,-0.4,-4,0)"
         style="fill-rule:evenodd;stroke:#000000;stroke-width:1pt;marker-start:none"
         d="M 0,0 5,-5 -12.5,0 5,5 0,0 z"
         id="path3183" />
    </marker>
    <marker
       style="overflow:visible"
       id="marker3185"
       refX="0"
       refY="0"
       orient="auto"
       inkscape:stockid="Arrow1Mend">
      <path
         inkscape:connector-curvature="0"
         transform="matrix(-0.4,0,0,-0.4,-4,0)"
         style="fill-rule:evenodd;stroke:#000000;stroke-width:1pt;marker-start:none"
         d="M 0,0 5,-5 -12.5,0 5,5 0,0 z"
         id="path3187" />
    </marker>
    <linearGradient
       inkscape:collect="always"
       xlink:href="#linearGradient6221"
       id="linearGradient3075"
       gradientUnits="userSpaceOnUse"
       gradientTransform="matrix(1.0741566,0,0,0.82567053,-10.599511,798.51268)"
       x1="141.73228"
       y1="307.86569"
       x2="141.73228"
       y2="124.01572" />
    <linearGradient
       id="linearGradient6221">
      <stop
         id="stop6223"
         offset="0"
         style="stop-color:#cccccc;stop-opacity:1;" />
      <stop
         id="stop6225"
         offset="1"
         style="stop-color:#cccccc;stop-opacity:0.58823532;" />
    </linearGradient>
    <linearGradient
       inkscape:collect="always"
       xlink:href="#linearGradient6221"
       id="linearGradient3208"
       gradientUnits="userSpaceOnUse"
       gradientTransform="matrix(1.4465624,0,0,0.7012052,-17.702324,834.57821)"
       x1="141.73228"
       y1="291.73776"
       x2="141.73228"
       y2="124.01572" />
    <marker
       style="overflow:visible"
       id="Arrow1Mend"
       refX="0"
       refY="0"
       orient="auto"
       inkscape:stockid="Arrow1Mend">
      <path
         inkscape:connector-curvature="0"
         transform="matrix(-0.4,0,0,-0.4,-4,0)"
         style="fill-rule:evenodd;stroke:#000000;stroke-width:1pt;marker-start:none"
         d="M 0,0 5,-5 -12.5,0 5,5 0,0 z"
         id="path3773" />
    </marker>
  </defs>
  <metadata
     id="metadata3046">
    <rdf:RDF>
      <cc:Work
         rdf:about="">
        <dc:format>image/svg+xml</dc:format>
        <dc:type
           rdf:resource="http://purl.org/dc/dcmitype/StillImage" />
        <dc:title />
      </cc:Work>
    </rdf:RDF>
  </metadata>
  <g
     transform="translate(-3.6880541,-120.34698)"
     style="display:none"
     inkscape:label="foto"
     id="layer2"
     inkscape:groupmode="layer" />
  <g
     transform="translate(-3.6880541,-818.37844)"
     id="layer1"
     inkscape:groupmode="layer"
     inkscape:label="Laag 1">
    <path
       sodipodi:nodetypes="ccscscsc"
       inkscape:connector-curvature="0"
       id="path6203"
       d="m 7.9257444,921.53869 357.8818056,0 c 0,0 5.94587,30.17362 -1.36036,59.51462 -5.1186,20.55569 6.48598,41.90629 6.48598,41.90629 0,0 -149.19895,4.3092 -208.62149,1.0624 -58.3376,-3.1875 -153.0940366,-2.4791 -153.0940366,-2.4791 0,0 -5.307261,-13.7044 1.4288446,-38.33481 8.950142,-32.72597 -2.7207436,-61.6694 -2.7207436,-61.6694 z"
       style="fill:url(#linearGradient3208);fill-opacity:1;stroke:none" />
    <g
       transform="translate(110.12907,97.348659)"
       id="g6251">
      <path
         sodipodi:nodetypes="cc"
         style="fill:none;stroke:#000000;stroke-width:0.70866144;stroke-linecap:butt;stroke-linejoin:miter;stroke-miterlimit:4;stroke-opacity:1;stroke-dasharray:none"
         d="m -102.25968,824.19004 358.0077,0"
         id="path6205"
         inkscape:connector-curvature="0" />
      <path
         style="fill:none;stroke:#000000;stroke-width:0.35433072;stroke-linecap:butt;stroke-linejoin:miter;stroke-miterlimit:4;stroke-opacity:1;stroke-dasharray:none"
         d="m 202.59843,827.73334 53.1496,0"
         id="path6207"
         inkscape:connector-curvature="0" />
      <path
         inkscape:connector-curvature="0"
         id="path6209"
         d="m 220.31496,831.27665 35.43307,0"
         style="fill:none;stroke:#000000;stroke-width:0.35433072;stroke-linecap:butt;stroke-linejoin:miter;stroke-miterlimit:4;stroke-opacity:1;stroke-dasharray:none" />
      <path
         style="fill:none;stroke:#000000;stroke-width:0.35433072;stroke-linecap:butt;stroke-linejoin:miter;stroke-miterlimit:4;stroke-opacity:1;stroke-dasharray:none"
         d="m 238.03149,834.81996 17.71654,0"
         id="path6211"
         inkscape:connector-curvature="0" />
    </g>
    <g
       transform="translate(-9.7907906,10.341914)"
       id="g3331">
      <path
         style="fill:#b3b3b3;stroke:#000000;stroke-width:1px;stroke-linecap:butt;stroke-linejoin:miter;stroke-opacity:1"
         d="m 109.86363,872.75086 c 0,0 2.16459,47.67852 6.49976,71.51522 1.59874,8.79054 30.33826,17.33416 58.51693,17.33416 10.83794,0 19.51838,2.15957 19.51838,2.15957 0,0 8.66132,-2.15957 19.49927,-2.15957 28.17865,0 56.9373,-8.54362 58.53603,-17.33416 4.33518,-23.83666 6.49977,-71.51522 6.49977,-71.51522 l -84.53507,0 -84.53507,0 z"
         id="path3135"
         inkscape:connector-curvature="0" />
      <rect
         style="fill:#b3b3b3;fill-opacity:1;fill-rule:nonzero;stroke:#000000;stroke-width:1"
         id="rect3140"
         width="160.40158"
         height="60.67524"
         x="114.19475"
         y="812.07983" />
    </g>
    <path
       style="fill:none;stroke:#000000;stroke-width:1.41732287;stroke-linecap:butt;stroke-linejoin:miter;stroke-miterlimit:4;stroke-opacity:1;stroke-dasharray:none;marker-end:url(#Arrow1Mend)"
       d="m 184.66131,848.41065 0,70.8761"
       id="path5096"
       inkscape:connector-curvature="0"
       inkscape:transform-center-x="9.6599849"
       inkscape:transform-center-y="31.417234"
       sodipodi:nodetypes="cc" />
    <g
       transform="translate(-9.7907906,46.341914)"
       id="g4169">
      <path
         inkscape:transform-center-y="0.38962232"
         sodipodi:nodetypes="cc"
         inkscape:transform-center-x="8.7470286"
         inkscape:connector-curvature="0"
         id="path4145"
         d="m 101.34518,888.97427 10.91779,-0.88573"
         style="fill:none;stroke:#000000;stroke-width:0.53149605;stroke-linecap:butt;stroke-linejoin:miter;stroke-miterlimit:4;stroke-opacity:1;stroke-dasharray:none;marker-end:url(#Arrow1Mend)" />
      <path
         inkscape:transform-center-y="0.46775825"
         sodipodi:nodetypes="cc"
         inkscape:transform-center-x="9.5164006"
         inkscape:connector-curvature="0"
         id="path4147"
         d="M 97.011643,899.50846 113.36233,898.1261"
         style="fill:none;stroke:#000000;stroke-width:0.53149605;stroke-linecap:butt;stroke-linejoin:miter;stroke-miterlimit:4;stroke-opacity:1;stroke-dasharray:none;marker-end:url(#Arrow1Mend)" />
      <path
         inkscape:transform-center-y="0.62635289"
         sodipodi:nodetypes="cc"
         inkscape:transform-center-x="11.088568"
         inkscape:connector-curvature="0"
         id="path4151"
         d="m 94.167963,909.22832 20.760167,-1.75669"
         style="fill:none;stroke:#000000;stroke-width:0.53149605;stroke-linecap:butt;stroke-linejoin:miter;stroke-miterlimit:4;stroke-opacity:1;stroke-dasharray:none;marker-end:url(#Arrow1Mend)" />
      <path
         style="fill:none;stroke:#000000;stroke-width:0.53149605;stroke-linecap:butt;stroke-linejoin:miter;stroke-miterlimit:4;stroke-opacity:1;stroke-dasharray:none;marker-end:url(#Arrow1Mend)"
         d="m 105.51097,879.43218 5.96507,-0.49051"
         id="path4139"
         inkscape:connector-curvature="0"
         inkscape:transform-center-x="8.0445641"
         sodipodi:nodetypes="cc"
         inkscape:transform-center-y="0.31793805" />
      <path
         style="fill:none;stroke:#000000;stroke-width:0.53149605;stroke-linecap:butt;stroke-linejoin:miter;stroke-miterlimit:4;stroke-opacity:1;stroke-dasharray:none;marker-end:url(#Arrow1Mend)"
         d="m 101.67412,929.7557 16.51371,-16.1429"
         id="path4153"
         inkscape:connector-curvature="0"
         inkscape:transform-center-x="8.8546086"
         sodipodi:nodetypes="cc"
         inkscape:transform-center-y="8.6572969" />
      <path
         inkscape:transform-center-y="11.565251"
         sodipodi:nodetypes="cc"
         inkscape:transform-center-x="6.0272281"
         inkscape:connector-curvature="0"
         id="path4155"
         d="m 114.26466,939.63965 11.18872,-21.58376"
         style="fill:none;stroke:#000000;stroke-width:0.53149605;stroke-linecap:butt;stroke-linejoin:miter;stroke-miterlimit:4;stroke-opacity:1;stroke-dasharray:none;marker-end:url(#Arrow1Mend)" />
      <path
         style="fill:none;stroke:#000000;stroke-width:0.53149605;stroke-linecap:butt;stroke-linejoin:miter;stroke-miterlimit:4;stroke-opacity:1;stroke-dasharray:none;marker-end:url(#Arrow1Mend)"
         d="m 127.00238,944.38547 7.55931,-23.10634"
         id="path4157"
         inkscape:connector-curvature="0"
         inkscape:transform-center-x="4.0936461"
         sodipodi:nodetypes="cc"
         inkscape:transform-center-y="12.376408" />
      <path
         inkscape:transform-center-y="12.631307"
         sodipodi:nodetypes="cc"
         inkscape:transform-center-x="3.1451004"
         inkscape:connector-curvature="0"
         id="path4159"
         d="m 138.92215,947.53649 5.89935,-23.58482"
         style="fill:none;stroke:#000000;stroke-width:0.53149605;stroke-linecap:butt;stroke-linejoin:miter;stroke-miterlimit:4;stroke-opacity:1;stroke-dasharray:none;marker-end:url(#Arrow1Mend)" />
      <path
         style="fill:none;stroke:#000000;stroke-width:0.53149605;stroke-linecap:butt;stroke-linejoin:miter;stroke-miterlimit:4;stroke-opacity:1;stroke-dasharray:none;marker-end:url(#Arrow1Mend)"
         d="m 151.06414,949.72599 3.55994,-24.04939"
         id="path4161"
         inkscape:connector-curvature="0"
         inkscape:transform-center-x="1.7095967"
         sodipodi:nodetypes="cc"
         inkscape:transform-center-y="12.878814" />
      <path
         inkscape:transform-center-y="12.974462"
         sodipodi:nodetypes="cc"
         inkscape:transform-center-x="0.75608079"
         inkscape:connector-curvature="0"
         id="path4163"
         d="m 162.87315,951.01281 2.00136,-24.22893"
         style="fill:none;stroke:#000000;stroke-width:0.53149605;stroke-linecap:butt;stroke-linejoin:miter;stroke-miterlimit:4;stroke-opacity:1;stroke-dasharray:none;marker-end:url(#Arrow1Mend)" />
      <path
         style="fill:none;stroke:#000000;stroke-width:0.53149605;stroke-linecap:butt;stroke-linejoin:miter;stroke-miterlimit:4;stroke-opacity:1;stroke-dasharray:none;marker-end:url(#Arrow1Mend)"
         d="m 175.31365,951.38841 -0.0404,-24.3114"
         id="path4165"
         inkscape:connector-curvature="0"
         inkscape:transform-center-x="-0.0070545054"
         sodipodi:nodetypes="cc"
         inkscape:transform-center-y="13.018395" />
      <path
         inkscape:transform-center-y="12.797242"
         sodipodi:nodetypes="cc"
         inkscape:transform-center-x="2.2696507"
         inkscape:connector-curvature="0"
         id="path4167"
         d="m 183.95188,951.91751 4.47366,-23.8963"
         style="fill:none;stroke:#000000;stroke-width:0.53149605;stroke-linecap:butt;stroke-linejoin:miter;stroke-miterlimit:4;stroke-opacity:1;stroke-dasharray:none;marker-end:url(#Arrow1Mend)" />
    </g>
    <path
       sodipodi:nodetypes="cc"
       inkscape:transform-center-y="-31.038425"
       inkscape:connector-curvature="0"
       id="path4237"
       d="m 184.66131,1016.6346 0,-70.8761"
       style="fill:none;stroke:#000000;stroke-width:1.41732287;stroke-linecap:butt;stroke-linejoin:miter;stroke-miterlimit:4;stroke-opacity:1;stroke-dasharray:none;marker-end:url(#Arrow1Mend)" />
    <g
       ns0:preamble="D:\\Onderwijs\\FLUI\\Cursus\\FLUI_theorie\\tex\\commands.tex"
       ns0:text="$\\vt{F_{\\text{opwaarts}}}$"
       word-spacing="normal"
       letter-spacing="normal"
       font-size-adjust="none"
       font-stretch="normal"
       font-weight="normal"
       font-variant="normal"
       font-style="normal"
       stroke-miterlimit="10.433"
       xml:space="preserve"
       transform="matrix(1.25,0,0,-1.25,-87.787469,1834.6416)"
       id="content"
       style="font-style:normal;font-variant:normal;font-weight:normal;font-stretch:normal;letter-spacing:normal;word-spacing:normal;text-anchor:start;fill:none;stroke:#000000;stroke-linecap:butt;stroke-linejoin:miter;stroke-miterlimit:10.43299961;stroke-opacity:1;stroke-dasharray:none;stroke-dashoffset:0">
<path
   id="path3112"
   d="m 227.07,710.27 h 0.65 c 0.6,0 0.77,-0.1 0.77,-0.42 0,-0.11 -0.03,-0.3 -0.06,-0.42 -0.02,-0.07 -0.03,-0.12 -0.03,-0.14 0,-0.15 0.13,-0.18 0.23,-0.18 0.19,0 0.19,0.06 0.24,0.24 l 0.56,2.22 c 0.04,0.13 0.04,0.14 0.04,0.15 0,0.18 -0.2,0.18 -0.24,0.18 -0.19,0 -0.21,-0.07 -0.26,-0.25 -0.2,-0.76 -0.5,-0.91 -1.22,-0.91 h -0.56 l 0.66,2.65 c 0.13,0.02 0.24,0.02 0.34,0.02 h 1.18 c 1.14,0 1.48,-0.28 1.48,-1.16 0,-0.24 -0.04,-0.54 -0.04,-0.58 0,-0.18 0.19,-0.18 0.24,-0.18 0.21,0 0.22,0.1 0.24,0.27 l 0.18,1.78 0.01,0.16 c 0,0.18 -0.17,0.18 -0.33,0.18 h -5.35 c -0.21,0 -0.22,-0.01 -0.27,-0.05 -0.07,-0.05 -0.09,-0.23 -0.09,-0.24 0,-0.18 0.14,-0.18 0.41,-0.18 0.21,0 0.4,-0.01 0.61,-0.02 l -1.41,-5.6 c -0.04,-0.16 -0.05,-0.17 -0.23,-0.19 -0.16,-0.01 -0.36,-0.01 -0.52,-0.01 -0.26,0 -0.28,0 -0.32,-0.02 -0.12,-0.07 -0.12,-0.23 -0.12,-0.27 0,-0.01 0,-0.17 0.22,-0.17 0.25,0 0.51,0.02 0.76,0.02 0.26,0 0.53,0.01 0.8,0.01 0.3,0 0.6,-0.01 0.9,-0.01 0.28,0 0.57,-0.02 0.85,-0.02 0.12,0 0.3,0 0.3,0.28 0,0.18 -0.17,0.18 -0.33,0.18 h -0.33 c -0.37,0 -0.52,0.02 -0.62,0.04 z"
   inkscape:connector-curvature="0"
   style="fill:#000000;stroke-width:0" />
<path
   id="path3114"
   d="m 233.98,707.11 0,0.08 -0.01,0.08 -0.01,0.08 -0.01,0.08 -0.02,0.08 -0.03,0.07 -0.02,0.08 -0.03,0.07 -0.04,0.07 -0.03,0.07 -0.04,0.07 -0.05,0.07 -0.04,0.06 -0.05,0.06 -0.06,0.06 -0.05,0.06 -0.06,0.05 -0.06,0.05 -0.07,0.05 -0.06,0.05 -0.07,0.04 -0.08,0.04 -0.07,0.04 -0.08,0.03 -0.07,0.03 -0.08,0.03 -0.08,0.02 -0.09,0.02 -0.08,0.01 -0.09,0.01 -0.09,0.01 -0.09,0 v -0.19 c 0.41,0 0.71,-0.2 0.86,-0.41 0.19,-0.27 0.22,-0.62 0.22,-0.96 0,-0.33 -0.03,-0.7 -0.23,-0.98 -0.19,-0.27 -0.51,-0.41 -0.85,-0.41 h 0 c -0.26,0 -0.63,0.09 -0.86,0.43 -0.19,0.28 -0.21,0.64 -0.21,0.96 0,0.3 0.01,0.71 0.25,1.01 0.18,0.21 0.47,0.36 0.82,0.36 v 0.19 c -0.96,0 -1.7,-0.75 -1.7,-1.62 0,-0.86 0.76,-1.55 1.7,-1.55 0.94,0 1.71,0.69 1.71,1.55 z"
   inkscape:connector-curvature="0"
   style="fill:#000000;stroke-width:0" />
<path
   id="path3116"
   d="m 236.2,704.53 -0.02,0 -0.02,0 -0.02,0 -0.02,0 -0.02,0 -0.01,0 -0.02,0 -0.02,0 -0.02,0 -0.01,0 -0.02,0 -0.01,0 -0.02,0 -0.01,0.01 -0.02,0 -0.01,0 -0.01,0 -0.02,0 -0.02,0 -0.02,0 -0.02,0.01 -0.02,0 -0.02,0.01 -0.01,0 -0.02,0.01 -0.01,0.01 -0.01,0.01 -0.01,0 -0.01,0.01 -0.01,0.02 -0.01,0.01 -0.01,0.01 0,0.02 -0.01,0.01 0,0.02 0,0.02 -0.01,0.02 0,0.02 0,0.03 0,0.02 0,0.03 v 1.14 c 0.03,-0.04 0.36,-0.41 0.95,-0.41 l -0.04,0.2 c -0.62,0 -0.89,0.53 -0.91,0.57 v 1.62 c 0.21,0.34 0.61,0.52 0.98,0.52 0.59,0 1.04,-0.61 1.04,-1.34 0,-0.79 -0.52,-1.37 -1.11,-1.37 l 0.04,-0.2 c 0.92,0 1.7,0.69 1.7,1.57 0,0.86 -0.71,1.57 -1.59,1.57 -0.4,0 -0.8,-0.15 -1.09,-0.43 v 0.43 l -1.04,-0.08 v -0.25 c 0.49,0 0.52,-0.03 0.52,-0.33 v -3.21 c 0,-0.3 -0.07,-0.3 -0.52,-0.3 v -0.25 c 0.01,0 0.5,0.03 0.79,0.03 0.26,0 0.74,-0.02 0.8,-0.03 z"
   inkscape:connector-curvature="0"
   style="fill:#000000;stroke-width:0" />
<path
   id="path3118"
   d="m 243.33,707.95 0.01,0.03 0.01,0.04 0.02,0.02 0.01,0.03 0.02,0.03 0.01,0.02 0.02,0.02 0.02,0.03 0.01,0.02 0.02,0.01 0.02,0.02 0.02,0.02 0.01,0.01 0.02,0.02 0.02,0.01 0.02,0.01 0.02,0.01 0.02,0.01 0.02,0.01 0.02,0.01 0.02,0.01 0.02,0.01 0.02,0 0.02,0.01 0.02,0 0.02,0.01 0.02,0 0.02,0 0.04,0.01 0.04,0 v 0.25 c -0.19,-0.02 -0.3,-0.03 -0.5,-0.03 -0.21,0 -0.47,0.01 -0.68,0.03 v -0.25 c 0.24,-0.01 0.36,-0.14 0.36,-0.31 0,-0.05 0,-0.07 -0.04,-0.16 l -0.68,-1.74 -0.75,1.9 c -0.01,0.04 -0.03,0.09 -0.03,0.13 0,0.16 0.18,0.18 0.37,0.18 v 0.25 c -0.25,-0.02 -0.5,-0.03 -0.75,-0.03 -0.2,0 -0.41,0.01 -0.61,0.03 v -0.25 c 0.16,0 0.3,0 0.39,-0.06 0.1,-0.07 0.16,-0.3 0.16,-0.3 0,-0.02 -0.01,-0.06 -0.02,-0.09 l -0.66,-1.65 -0.7,1.79 c -0.04,0.1 -0.04,0.11 -0.04,0.13 0,0.18 0.25,0.18 0.37,0.18 v 0.25 c -0.01,0 -0.51,-0.03 -0.79,-0.03 -0.21,0 -0.43,0.01 -0.65,0.03 v -0.25 c 0.27,0 0.43,0 0.5,-0.2 l 0.97,-2.46 c 0.04,-0.1 0.06,-0.16 0.19,-0.16 0.12,0 0.14,0.06 0.18,0.15 l 0.79,1.99 0.77,-1.97 c 0.04,-0.11 0.07,-0.17 0.19,-0.17 0.13,0 0.15,0.05 0.19,0.16 z"
   inkscape:connector-curvature="0"
   style="fill:#000000;stroke-width:0" />
<path
   id="path3120"
   d="m 247.03,707.49 0,0.07 0,0.07 0,0.06 -0.01,0.06 0,0.03 0,0.03 0,0.03 -0.01,0.03 0,0.03 -0.01,0.03 0,0.02 -0.01,0.03 -0.01,0.03 -0.01,0.02 -0.01,0.03 -0.01,0.03 -0.01,0.02 -0.02,0.03 -0.01,0.02 -0.02,0.03 -0.01,0.02 -0.02,0.03 -0.02,0.02 -0.03,0.03 -0.02,0.02 -0.03,0.03 -0.02,0.02 -0.03,0.03 c -0.29,0.23 -0.62,0.34 -1.03,0.34 -0.67,0 -1.13,-0.25 -1.13,-0.67 0,-0.22 0.15,-0.34 0.33,-0.34 0.19,0 0.33,0.14 0.33,0.32 0,0.12 -0.06,0.27 -0.24,0.32 0.25,0.18 0.65,0.18 0.69,0.18 0.39,0 0.82,-0.26 0.82,-0.84 v -0.22 -0.18 -0.69 c 0,-0.67 -0.59,-0.85 -0.9,-0.85 -0.36,0 -0.69,0.23 -0.69,0.57 0,0.39 0.33,0.92 1.59,0.97 v 0.18 c -0.38,-0.01 -0.85,-0.03 -1.35,-0.22 -0.63,-0.23 -0.83,-0.61 -0.83,-0.93 0,-0.6 0.73,-0.77 1.22,-0.77 0.56,0 0.89,0.31 1.03,0.59 0.03,-0.29 0.22,-0.55 0.54,-0.55 0.01,0 0.69,0 0.69,0.66 v 0.38 h -0.24 v -0.38 c 0,-0.07 0,-0.4 -0.25,-0.4 -0.26,0 -0.26,0.33 -0.26,0.42 z"
   inkscape:connector-curvature="0"
   style="fill:#000000;stroke-width:0" />
<path
   id="path3122"
   d="m 251,707.49 0,0.07 0,0.07 0,0.06 -0.01,0.06 0,0.03 0,0.03 0,0.03 -0.01,0.03 0,0.03 -0.01,0.03 0,0.02 -0.01,0.03 -0.01,0.03 -0.01,0.02 -0.01,0.03 -0.01,0.03 -0.01,0.02 -0.01,0.03 -0.02,0.02 -0.02,0.03 -0.01,0.02 -0.02,0.03 -0.02,0.02 -0.03,0.03 -0.02,0.02 -0.02,0.03 -0.03,0.02 -0.03,0.03 c -0.29,0.23 -0.62,0.34 -1.03,0.34 -0.66,0 -1.13,-0.25 -1.13,-0.67 0,-0.22 0.15,-0.34 0.33,-0.34 0.19,0 0.33,0.14 0.33,0.32 0,0.12 -0.05,0.27 -0.24,0.32 0.25,0.18 0.65,0.18 0.69,0.18 0.39,0 0.82,-0.26 0.82,-0.84 v -0.22 -0.18 -0.69 c 0,-0.67 -0.59,-0.85 -0.9,-0.85 -0.35,0 -0.69,0.23 -0.69,0.57 0,0.39 0.34,0.92 1.59,0.97 v 0.18 c -0.38,-0.01 -0.84,-0.03 -1.35,-0.22 -0.63,-0.23 -0.82,-0.61 -0.82,-0.93 0,-0.6 0.72,-0.77 1.21,-0.77 0.56,0 0.89,0.31 1.04,0.59 0.02,-0.29 0.21,-0.55 0.53,-0.55 0.02,0 0.69,0 0.69,0.66 v 0.38 h -0.24 v -0.38 c 0,-0.07 0,-0.4 -0.25,-0.4 -0.26,0 -0.26,0.33 -0.26,0.42 z"
   inkscape:connector-curvature="0"
   style="fill:#000000;stroke-width:0" />
<path
   id="path3124"
   d="m 253.25,707.22 0,0.05 0,0.06 0.01,0.05 0,0.06 0.01,0.06 0.01,0.05 0.01,0.06 0.01,0.05 0.02,0.06 0.01,0.05 0.02,0.06 0.02,0.05 0.02,0.05 0.03,0.05 0.02,0.05 0.03,0.05 0.03,0.04 0.03,0.05 0.03,0.04 0.04,0.04 0.04,0.04 0.03,0.03 0.05,0.03 0.04,0.03 0.04,0.03 0.05,0.02 0.05,0.02 0.05,0.02 0.06,0.02 0.05,0 0.06,0.01 0.06,0 c -0.06,-0.05 -0.11,-0.14 -0.11,-0.25 0,-0.23 0.18,-0.32 0.31,-0.32 0.17,0 0.32,0.11 0.32,0.32 0,0.24 -0.22,0.45 -0.55,0.45 -0.35,0 -0.73,-0.22 -0.94,-0.75 h -0.01 v 0.75 l -0.99,-0.08 v -0.25 c 0.46,0 0.52,-0.05 0.52,-0.39 v -1.8 c 0,-0.3 -0.07,-0.3 -0.52,-0.3 v -0.25 c 0.03,0 0.5,0.03 0.79,0.03 0.3,0 0.61,-0.01 0.91,-0.03 v 0.25 h -0.14 c -0.52,0 -0.52,0.08 -0.52,0.31 z"
   inkscape:connector-curvature="0"
   style="fill:#000000;stroke-width:0" />
<path
   id="path3126"
   d="m 256.38,708.38 h 1.08 v 0.25 h -1.08 v 1.28 h -0.24 c -0.01,-0.63 -0.29,-1.32 -0.96,-1.34 v -0.19 h 0.65 v -1.88 c 0,-0.78 0.58,-0.94 0.97,-0.94 0.47,0 0.79,0.4 0.79,0.95 v 0.38 h -0.24 v -0.38 c 0,-0.47 -0.22,-0.73 -0.49,-0.73 -0.48,0 -0.48,0.59 -0.48,0.71 z"
   inkscape:connector-curvature="0"
   style="fill:#000000;stroke-width:0" />
<path
   id="path3128"
   d="m 260.73,708.55 0,0.01 0,0.01 0,0.01 0,0.01 0,0.01 0,0.01 0,0.01 0,0.01 0,0.01 0,0.01 0,0 0,0.01 -0.01,0.01 0,0 0,0.01 0,0.01 0,0 -0.01,0.01 0,0 0,0.01 -0.01,0 0,0 -0.01,0.01 0,0 -0.01,0 0,0.01 -0.01,0 0,0 0,0 -0.01,0 0,0 -0.01,0 0,0 0,0 -0.01,0 0,0 -0.01,0 c -0.03,0 -0.05,0 -0.14,-0.08 -0.01,-0.01 -0.08,-0.07 -0.12,-0.11 -0.21,0.15 -0.48,0.19 -0.73,0.19 -1,0 -1.24,-0.52 -1.24,-0.87 0,-0.22 0.1,-0.4 0.27,-0.54 0.26,-0.23 0.53,-0.28 0.96,-0.35 0.35,-0.06 0.91,-0.16 0.91,-0.62 0,-0.27 -0.18,-0.59 -0.85,-0.59 -0.67,0 -0.92,0.43 -1.04,0.91 -0.02,0.09 -0.03,0.11 -0.13,0.11 -0.12,0 -0.12,-0.04 -0.12,-0.18 v -0.86 c 0,-0.12 0,-0.18 0.1,-0.18 0.07,0 0.2,0.15 0.34,0.3 0.3,-0.28 0.68,-0.3 0.85,-0.3 0.9,0 1.24,0.49 1.24,0.98 0,0.27 -0.12,0.48 -0.3,0.64 -0.27,0.24 -0.59,0.3 -0.83,0.34 -0.56,0.1 -1.01,0.18 -1.01,0.55 0,0.22 0.19,0.5 0.85,0.5 0.81,0 0.84,-0.57 0.85,-0.77 0.01,-0.08 0.09,-0.08 0.12,-0.08 0.12,0 0.12,0.05 0.12,0.19 z"
   inkscape:connector-curvature="0"
   style="fill:#000000;stroke-width:0" />
</g>    <g
       id="g3300"
       transform="matrix(1.25,0,0,-1.25,-86.358898,1797.4987)"
       xml:space="preserve"
       stroke-miterlimit="10.433"
       font-style="normal"
       font-variant="normal"
       font-weight="normal"
       font-stretch="normal"
       font-size-adjust="none"
       letter-spacing="normal"
       word-spacing="normal"
       ns0:text="$\\vt{G}$"
       ns0:preamble="D:\\Onderwijs\\FLUI\\Cursus\\FLUI_theorie\\tex\\commands.tex"
       style="font-style:normal;font-variant:normal;font-weight:normal;font-stretch:normal;letter-spacing:normal;word-spacing:normal;text-anchor:start;fill:none;stroke:#000000;stroke-linecap:butt;stroke-linejoin:miter;stroke-miterlimit:10.43299961;stroke-opacity:1;stroke-dasharray:none;stroke-dashoffset:0">
<path
   style="fill:#000000;stroke-width:0"
   inkscape:connector-curvature="0"
   d="m 230.74,709.21 0.01,0.01 0,0 0,0.01 0,0.01 0,0 0.01,0.01 0,0.01 0,0 0,0.01 0,0 0,0.01 0,0 0.01,0.01 0,0 0,0 0,0.01 0,0.01 0.01,0 0,0.01 0,0.01 0,0 0.01,0.01 0,0 0,0.01 0.01,0 0,0.01 0,0 0.01,0 0,0 0,0.01 0.01,0 0,0 0.01,0 0,0 0.01,0 0,0.01 0.01,0 0,0 0.01,0 0,0 c 0.12,0.02 0.26,0.02 0.38,0.02 0.25,0 0.41,0 0.41,0.29 0,0.05 -0.03,0.18 -0.21,0.18 -0.22,0 -0.45,-0.02 -0.68,-0.02 -0.21,0 -0.44,-0.01 -0.66,-0.01 -0.4,0 -1.37,0.03 -1.77,0.03 -0.12,0 -0.31,0 -0.31,-0.29 0,-0.18 0.18,-0.18 0.34,-0.18 h 0.37 c 0.1,0 0.65,0 0.65,-0.06 0,-0.01 0,-0.03 -0.07,-0.27 -0.01,-0.07 -0.17,-0.7 -0.18,-0.71 -0.17,-0.68 -0.96,-0.94 -1.59,-0.94 -0.58,0 -1.17,0.12 -1.64,0.5 -0.53,0.44 -0.53,1.12 -0.53,1.34 0,0.46 0.21,2.24 1.18,3.32 0.57,0.64 1.53,1.06 2.54,1.06 1.26,0 1.72,-0.96 1.72,-1.78 0,-0.11 -0.03,-0.26 -0.03,-0.35 0,-0.15 0.13,-0.15 0.27,-0.15 0.22,0 0.23,0.01 0.28,0.22 l 0.57,2.23 c 0.01,0.05 0.03,0.1 0.03,0.16 0,0.14 -0.14,0.14 -0.25,0.14 l -0.92,-0.72 c -0.2,0.2 -0.72,0.72 -1.83,0.72 -3.18,0 -4.95,-2.44 -4.95,-4.47 0,-1.82 1.4,-2.68 3.25,-2.68 1.05,0 1.74,0.34 2.06,0.68 0.25,-0.26 0.76,-0.51 0.83,-0.51 0.1,0 0.12,0.07 0.16,0.22 z"
   id="path3302" />
</g>    <g
       style="font-style:normal;font-variant:normal;font-weight:normal;font-stretch:normal;letter-spacing:normal;word-spacing:normal;text-anchor:start;fill:none;stroke:#000000;stroke-linecap:butt;stroke-linejoin:miter;stroke-miterlimit:10.43299961;stroke-opacity:1;stroke-dasharray:none;stroke-dashoffset:0"
       ns0:preamble="D:\\Onderwijs\\FLUI\\Cursus\\FLUI_theorie\\tex\\commands.tex"
       ns0:text="$p$"
       word-spacing="normal"
       letter-spacing="normal"
       font-size-adjust="none"
       font-stretch="normal"
       font-weight="normal"
       font-variant="normal"
       font-style="normal"
       stroke-miterlimit="10.433"
       xml:space="preserve"
       transform="matrix(1.25,0,0,-1.25,-183.14461,1876.7845)"
       id="g3458">
<path
   id="path3460"
   d="m 223.88,705.91 -0.01,-0.03 0,-0.03 -0.01,-0.03 -0.01,-0.02 0,-0.03 -0.01,-0.02 -0.01,-0.02 -0.01,-0.02 0,-0.02 -0.01,-0.02 -0.01,-0.02 -0.01,-0.01 -0.01,-0.02 -0.01,-0.01 -0.01,-0.02 -0.01,-0.01 -0.02,-0.01 -0.01,-0.01 -0.02,-0.01 -0.02,0 -0.02,-0.01 -0.02,-0.01 -0.02,0 -0.02,-0.01 -0.03,0 -0.02,-0.01 -0.02,0 -0.01,0 -0.02,0 -0.01,0 -0.02,0 -0.02,0 -0.01,0 -0.02,0 -0.02,0 -0.02,0 -0.02,0 -0.02,0 c -0.12,0 -0.23,0 -0.23,-0.19 0,-0.08 0.05,-0.12 0.13,-0.12 0.27,0 0.56,0.03 0.84,0.03 0.33,0 0.66,-0.03 0.98,-0.03 0.05,0 0.18,0 0.18,0.2 0,0.11 -0.1,0.11 -0.24,0.11 -0.49,0 -0.49,0.07 -0.49,0.15 0,0.12 0.41,1.74 0.48,1.99 0.13,-0.29 0.41,-0.63 0.92,-0.63 l -0.01,0.21 c -0.66,0 -0.79,0.83 -0.79,0.89 0,0.02 0,0.04 0.03,0.16 l 0.49,1.94 c 0.07,0.27 0.34,0.55 0.52,0.7 0.35,0.31 0.64,0.38 0.8,0.38 0.4,0 0.64,-0.35 0.64,-0.94 0,-0.58 -0.33,-1.72 -0.51,-2.1 -0.34,-0.7 -0.81,-1.03 -1.18,-1.03 l 0.01,-0.21 c 1.15,0 2.4,1.45 2.4,2.91 0,0.93 -0.57,1.59 -1.33,1.59 -0.49,0 -0.97,-0.36 -1.3,-0.75 -0.1,0.54 -0.53,0.75 -0.89,0.75 -0.46,0 -0.65,-0.39 -0.74,-0.57 -0.18,-0.34 -0.31,-0.93 -0.31,-0.96 0,-0.1 0.1,-0.1 0.12,-0.1 0.1,0 0.11,0.01 0.17,0.22 0.17,0.71 0.37,1.19 0.73,1.19 0.16,0 0.3,-0.08 0.3,-0.46 0,-0.23 -0.03,-0.34 -0.07,-0.51 z"
   inkscape:connector-curvature="0"
   style="fill:#000000;stroke-width:0" />
</g>    <g
       id="g3537"
       transform="matrix(-1,0,0,1,379.19929,46.341914)">
      <path
         style="fill:none;stroke:#000000;stroke-width:0.53149605;stroke-linecap:butt;stroke-linejoin:miter;stroke-miterlimit:4;stroke-opacity:1;stroke-dasharray:none;marker-end:url(#Arrow1Mend)"
         d="m 101.34518,888.97427 10.91779,-0.88573"
         id="path3539"
         inkscape:connector-curvature="0"
         inkscape:transform-center-x="8.7470286"
         sodipodi:nodetypes="cc"
         inkscape:transform-center-y="0.38962232" />
      <path
         style="fill:none;stroke:#000000;stroke-width:0.53149605;stroke-linecap:butt;stroke-linejoin:miter;stroke-miterlimit:4;stroke-opacity:1;stroke-dasharray:none;marker-end:url(#Arrow1Mend)"
         d="M 97.011643,899.50846 113.36233,898.1261"
         id="path3541"
         inkscape:connector-curvature="0"
         inkscape:transform-center-x="9.5164006"
         sodipodi:nodetypes="cc"
         inkscape:transform-center-y="0.46775825" />
      <path
         style="fill:none;stroke:#000000;stroke-width:0.53149605;stroke-linecap:butt;stroke-linejoin:miter;stroke-miterlimit:4;stroke-opacity:1;stroke-dasharray:none;marker-end:url(#Arrow1Mend)"
         d="m 94.167963,909.22832 20.760167,-1.75669"
         id="path3543"
         inkscape:connector-curvature="0"
         inkscape:transform-center-x="11.088568"
         sodipodi:nodetypes="cc"
         inkscape:transform-center-y="0.62635289" />
      <path
         inkscape:transform-center-y="0.31793805"
         sodipodi:nodetypes="cc"
         inkscape:transform-center-x="8.0445641"
         inkscape:connector-curvature="0"
         id="path3545"
         d="m 105.51097,879.43218 5.96507,-0.49051"
         style="fill:none;stroke:#000000;stroke-width:0.53149605;stroke-linecap:butt;stroke-linejoin:miter;stroke-miterlimit:4;stroke-opacity:1;stroke-dasharray:none;marker-end:url(#Arrow1Mend)" />
      <path
         inkscape:transform-center-y="8.6572969"
         sodipodi:nodetypes="cc"
         inkscape:transform-center-x="8.8546086"
         inkscape:connector-curvature="0"
         id="path3547"
         d="m 101.67412,929.7557 16.51371,-16.1429"
         style="fill:none;stroke:#000000;stroke-width:0.53149605;stroke-linecap:butt;stroke-linejoin:miter;stroke-miterlimit:4;stroke-opacity:1;stroke-dasharray:none;marker-end:url(#Arrow1Mend)" />
      <path
         style="fill:none;stroke:#000000;stroke-width:0.53149605;stroke-linecap:butt;stroke-linejoin:miter;stroke-miterlimit:4;stroke-opacity:1;stroke-dasharray:none;marker-end:url(#Arrow1Mend)"
         d="m 114.26466,939.63965 11.18872,-21.58376"
         id="path3549"
         inkscape:connector-curvature="0"
         inkscape:transform-center-x="6.0272281"
         sodipodi:nodetypes="cc"
         inkscape:transform-center-y="11.565251" />
      <path
         inkscape:transform-center-y="12.376408"
         sodipodi:nodetypes="cc"
         inkscape:transform-center-x="4.0936461"
         inkscape:connector-curvature="0"
         id="path3551"
         d="m 127.00238,944.38547 7.55931,-23.10634"
         style="fill:none;stroke:#000000;stroke-width:0.53149605;stroke-linecap:butt;stroke-linejoin:miter;stroke-miterlimit:4;stroke-opacity:1;stroke-dasharray:none;marker-end:url(#Arrow1Mend)" />
      <path
         style="fill:none;stroke:#000000;stroke-width:0.53149605;stroke-linecap:butt;stroke-linejoin:miter;stroke-miterlimit:4;stroke-opacity:1;stroke-dasharray:none;marker-end:url(#Arrow1Mend)"
         d="m 138.92215,947.53649 5.89935,-23.58482"
         id="path3553"
         inkscape:connector-curvature="0"
         inkscape:transform-center-x="3.1451004"
         sodipodi:nodetypes="cc"
         inkscape:transform-center-y="12.631307" />
      <path
         inkscape:transform-center-y="12.878814"
         sodipodi:nodetypes="cc"
         inkscape:transform-center-x="1.7095967"
         inkscape:connector-curvature="0"
         id="path3555"
         d="m 151.06414,949.72599 3.55994,-24.04939"
         style="fill:none;stroke:#000000;stroke-width:0.53149605;stroke-linecap:butt;stroke-linejoin:miter;stroke-miterlimit:4;stroke-opacity:1;stroke-dasharray:none;marker-end:url(#Arrow1Mend)" />
      <path
         style="fill:none;stroke:#000000;stroke-width:0.53149605;stroke-linecap:butt;stroke-linejoin:miter;stroke-miterlimit:4;stroke-opacity:1;stroke-dasharray:none;marker-end:url(#Arrow1Mend)"
         d="m 162.87315,951.01281 2.00136,-24.22893"
         id="path3557"
         inkscape:connector-curvature="0"
         inkscape:transform-center-x="0.75608079"
         sodipodi:nodetypes="cc"
         inkscape:transform-center-y="12.974462" />
      <path
         inkscape:transform-center-y="13.018395"
         sodipodi:nodetypes="cc"
         inkscape:transform-center-x="-0.0070545054"
         inkscape:connector-curvature="0"
         id="path3559"
         d="m 175.31365,951.38841 -0.0404,-24.3114"
         style="fill:none;stroke:#000000;stroke-width:0.53149605;stroke-linecap:butt;stroke-linejoin:miter;stroke-miterlimit:4;stroke-opacity:1;stroke-dasharray:none;marker-end:url(#Arrow1Mend)" />
      <path
         style="fill:none;stroke:#000000;stroke-width:0.53149605;stroke-linecap:butt;stroke-linejoin:miter;stroke-miterlimit:4;stroke-opacity:1;stroke-dasharray:none;marker-end:url(#Arrow1Mend)"
         d="m 183.95188,951.91751 4.47366,-23.8963"
         id="path3561"
         inkscape:connector-curvature="0"
         inkscape:transform-center-x="2.2696507"
         sodipodi:nodetypes="cc"
         inkscape:transform-center-y="12.797242" />
    </g>
  </g>
</svg>
