<?xml version="1.0" encoding="UTF-8" standalone="no"?>
<!-- Created with Inkscape (http://www.inkscape.org/) -->

<svg
   xmlns:ns0="http://www.iki.fi/pav/software/textext/"
   xmlns:dc="http://purl.org/dc/elements/1.1/"
   xmlns:cc="http://creativecommons.org/ns#"
   xmlns:rdf="http://www.w3.org/1999/02/22-rdf-syntax-ns#"
   xmlns:svg="http://www.w3.org/2000/svg"
   xmlns="http://www.w3.org/2000/svg"
   xmlns:sodipodi="http://sodipodi.sourceforge.net/DTD/sodipodi-0.dtd"
   xmlns:inkscape="http://www.inkscape.org/namespaces/inkscape"
   width="283.46457"
   height="212.59842"
   id="svg3041"
   version="1.1"
   inkscape:version="0.91 r13725"
   sodipodi:docname="Dimensieanalyse_voorbeeld_propellor.svg">
  <sodipodi:namedview
     id="base"
     pagecolor="#ffffff"
     bordercolor="#666666"
     borderopacity="1.0"
     inkscape:pageopacity="0.0"
     inkscape:pageshadow="2"
     inkscape:zoom="1.3532747"
     inkscape:cx="-7.5200976"
     inkscape:cy="178.26325"
     inkscape:document-units="mm"
     inkscape:current-layer="layer5"
     showgrid="false"
     inkscape:window-width="1280"
     inkscape:window-height="962"
     inkscape:window-x="-8"
     inkscape:window-y="-8"
     inkscape:window-maximized="1"
     units="mm">
    <inkscape:grid
       spacingy="1mm"
       spacingx="1mm"
       units="mm"
       snapvisiblegridlinesonly="true"
       enabled="true"
       visible="true"
       empspacing="5"
       id="grid2992"
       type="xygrid" />
  </sodipodi:namedview>
  <defs
     id="defs3043">
    <marker
       inkscape:stockid="Arrow1Mstart"
       orient="auto"
       refY="0.0"
       refX="0.0"
       id="marker4453"
       style="overflow:visible"
       inkscape:isstock="true">
      <path
         id="path4203"
         d="M 0.0,0.0 L 5.0,-5.0 L -12.5,0.0 L 5.0,5.0 L 0.0,0.0 z "
         style="fill-rule:evenodd;stroke:#000000;stroke-width:1pt;stroke-opacity:1;fill:#000000;fill-opacity:1"
         transform="scale(0.4) translate(10,0)" />
    </marker>
    <marker
       style="overflow:visible"
       id="Arrow2Mstart"
       refX="0.0"
       refY="0.0"
       orient="auto"
       inkscape:stockid="Arrow2Mstart">
      <path
         transform="scale(0.6) translate(0,0)"
         d="M 8.7185878,4.0337352 L -2.2072895,0.016013256 L 8.7185884,-4.0017078 C 6.9730900,-1.6296469 6.9831476,1.6157441 8.7185878,4.0337352 z "
         style="font-size:12.0;fill-rule:evenodd;stroke-width:0.62500000;stroke-linejoin:round"
         id="path4795" />
    </marker>
    <marker
       inkscape:stockid="Arrow1Mend"
       orient="auto"
       refY="0.0"
       refX="0.0"
       id="Arrow1Mend"
       style="overflow:visible;">
      <path
         id="path4780"
         d="M 0.0,0.0 L 5.0,-5.0 L -12.5,0.0 L 5.0,5.0 L 0.0,0.0 z "
         style="fill-rule:evenodd;stroke:#000000;stroke-width:1.0pt;marker-start:none;"
         transform="scale(0.4) rotate(180) translate(10,0)" />
    </marker>
    <marker
       style="overflow:visible"
       id="Arrow1Mstart"
       refX="0.0"
       refY="0.0"
       orient="auto"
       inkscape:stockid="Arrow1Mstart">
      <path
         transform="scale(0.4) translate(10,0)"
         style="fill-rule:evenodd;stroke:#000000;stroke-width:1.0pt;marker-start:none"
         d="M 0.0,0.0 L 5.0,-5.0 L -12.5,0.0 L 5.0,5.0 L 0.0,0.0 z "
         id="path4777" />
    </marker>
  </defs>
  <metadata
     id="metadata3046">
    <rdf:RDF>
      <cc:Work
         rdf:about="">
        <dc:format>image/svg+xml</dc:format>
        <dc:type
           rdf:resource="http://purl.org/dc/dcmitype/StillImage" />
        <dc:title></dc:title>
      </cc:Work>
    </rdf:RDF>
  </metadata>
  <g
     transform="translate(0,-141.73227)"
     style="display:inline"
     inkscape:label="ship"
     id="layer4"
     inkscape:groupmode="layer">
    <path
       sodipodi:nodetypes="cssssssc"
       inkscape:connector-curvature="0"
       id="path9101"
       d="m 272.52038,350.55149 c 0,0 -33.02252,1.93631 -48.9924,-1.51523 -7.48744,-1.61825 -14.79422,-4.65825 -21.2132,-8.83883 -11.67531,-7.60393 -21.38392,-18.08634 -30.30458,-28.78935 -11.13672,-13.36184 -17.8764,-29.94425 -28.53681,-43.6891 -10.62628,-13.70083 -22.4646,-26.51539 -35.1028,-38.38579 C 97.02475,218.67663 83.99283,209.96774 72.0051,200.03876 54.805274,185.79281 31.00225,171.52053 14.931483,148.0159"
       style="fill:none;stroke:#000000;stroke-width:1px;stroke-linecap:butt;stroke-linejoin:miter;stroke-opacity:1" />
  </g>
  <g
     transform="translate(0,-141.73227)"
     style="display:inline"
     inkscape:label="propellor"
     id="layer3"
     inkscape:groupmode="layer">
    <g
       transform="matrix(0.9906447,-0.1364664,0.1364664,0.9906447,-56.94844,48.886793)"
       id="g9088">
      <g
         style="fill:#cccccc;fill-opacity:1"
         id="g9104">
        <path
           style="fill:#cccccc;fill-opacity:1;stroke:none;stroke-width:0.35433072;stroke-linecap:butt;stroke-linejoin:miter;stroke-miterlimit:4;stroke-dasharray:none;stroke-opacity:1"
           d="m 165.03368,239.17329 c 0,0 -2.11746,0.86282 -2.77792,1.4521 -3.74543,3.34179 -5.79914,10.57984 -7.38674,15.3417 -1.64897,4.94592 -2.69449,17.7444 -2.69449,17.7444 0.082,1.55415 0.47371,5.72459 1.03976,8.65491 1.22844,6.35933 3.07051,12.65868 5.71428,18.57143 2.07093,4.6316 5.48097,8.55305 7.85714,13.03572 0.7983,1.506 2.28418,2.94422 2.14286,4.64285 -0.13141,1.57949 -1.52332,2.84347 -2.67857,3.92857 -1.61465,1.5166 -3.52821,3.03478 -5.71429,3.39286 -2.52313,0.41329 -5.2453,-0.40161 -7.5,-1.60714 -2.56136,-1.36949 -4.75579,-3.58076 -6.25,-6.07143 -3.31453,-5.52491 -4.45541,-12.19196 -5.35714,-18.57143 -1.08301,-7.66193 -1.15868,-15.56343 0,-23.21428 0.93314,-6.16158 3.41232,-11.99823 5.53572,-17.85715 1.05465,-2.91002 3.95462,-8.06583 3.95462,-8.06583 0,0 -0.30457,-4.01033 -0.66915,-5.98406 -0.8552,-4.62988 -3.14054,-9.74489 -3.14054,-9.74489"
           id="path4191"
           inkscape:connector-curvature="0"
           sodipodi:nodetypes="csscssssssssssscsc" />
        <path
           sodipodi:nodetypes="csssssssssssssc"
           inkscape:connector-curvature="0"
           id="path9072"
           d="m 146.60714,234.68783 c 0.29963,-1.19851 3.1307,6.21111 3.75,10.71429 1.29685,9.42994 1.35014,14.64565 1.60715,21.96428 0.17608,5.01424 0.29839,10.07374 1.25,15 1.22843,6.35933 3.07051,12.65868 5.71428,18.57143 2.07093,4.6316 5.48097,8.55305 7.85714,13.03572 0.7983,1.506 2.28418,2.94422 2.14286,4.64285 -0.13141,1.57949 -1.52332,2.84347 -2.67857,3.92857 -1.61465,1.5166 -3.52821,3.03478 -5.71429,3.39286 -2.52313,0.41329 -5.2453,-0.40161 -7.5,-1.60714 -2.56136,-1.36949 -4.75579,-3.58076 -6.25,-6.07143 -3.31453,-5.52491 -4.45541,-12.19196 -5.35714,-18.57143 -1.08301,-7.66193 -1.15868,-15.56343 0,-23.21428 0.93314,-6.16158 3.41232,-11.99823 5.53572,-17.85715 1.05465,-2.91002 4.13963,-8.44516 4.13963,-8.44516"
           style="fill:none;fill-opacity:1;stroke:#000000;stroke-width:1px;stroke-linecap:butt;stroke-linejoin:miter;stroke-opacity:1" />
        <path
           sodipodi:nodetypes="cssc"
           inkscape:connector-curvature="0"
           id="path9074"
           d="m 152.21737,273.64475 c 0,0 1.00268,-12.73174 2.65165,-17.67766 1.5876,-4.76186 3.64131,-11.99991 7.38674,-15.3417 0.66046,-0.58928 2.77792,-1.4521 2.77792,-1.4521"
           style="fill:none;fill-opacity:1;stroke:#000000;stroke-width:1px;stroke-linecap:butt;stroke-linejoin:miter;stroke-opacity:1" />
      </g>
      <path
         style="fill:#cccccc;fill-opacity:1;stroke:#000000;stroke-width:1px;stroke-linecap:butt;stroke-linejoin:miter;stroke-opacity:1"
         d="m 138.03571,230.40212 c 0,0 -11.68704,9.39315 -16.60714,15 -4.00764,4.56703 -7.2966,9.751 -10.35714,15 -2.19916,3.77167 -3.8911,7.81862 -5.71429,11.78571 -1.2468,2.71291 -1.98014,5.68799 -3.57143,8.21429 -0.62971,0.99972 -1.15631,2.87472 -2.321424,2.67857 -0.948291,-0.15965 -0.923966,-1.72831 -1.071429,-2.67857 -1.006704,-6.48727 -0.163625,-13.27395 1.428572,-19.64286 1.673941,-6.69587 4.976471,-12.93148 8.392861,-18.92857 3.50729,-6.15666 7.81307,-11.85514 12.32142,-17.32143 1.09832,-1.3317 4.10807,-4.09724 4.10807,-4.09724"
         id="path9070"
         inkscape:connector-curvature="0"
         sodipodi:nodetypes="csssssssssc" />
      <path
         style="fill:#cccccc;fill-opacity:1;stroke:#000000;stroke-width:1px;stroke-linecap:butt;stroke-linejoin:miter;stroke-opacity:1"
         d="m 135.86552,203.81796 c 0,0 0.61366,-6.10803 -0.50508,-8.83884 -1.74118,-4.25015 -4.83958,-8.61688 -9.09137,-10.35406 -5.23556,-2.13912 -10.90386,-0.58474 -14.52095,0.25253 -3.70582,0.85782 -6.50834,2.39154 -6.69226,0.63135 -0.11645,-1.11447 1.06175,-5.47909 3.03046,-7.95495 5.33497,-6.70929 12.25085,-12.71007 20.20305,-15.9099 9.57348,-3.8522 20.64039,-4.78456 30.80966,-3.03046 5.9164,1.02052 13.63706,10.62157 13.63706,12.87945 l 2.58851,30.24144"
         id="path9062"
         inkscape:connector-curvature="0"
         sodipodi:nodetypes="csssssssc" />
      <path
         style="fill:#cccccc;fill-opacity:1;stroke:#000000;stroke-width:1px;stroke-linecap:butt;stroke-linejoin:miter;stroke-opacity:1"
         d="m 129.9562,205.79671 c 0,0 4.45374,-1.62671 11.65094,-3.16245 7.7902,-1.66228 15.92218,-3.00257 39.0625,-3.39286 7.72331,14.30229 6.49397,26.19045 3.24656,43.12006 -16.11632,-1.44128 -28.65132,-4.62171 -36.77334,-7.49506 -6.73839,-2.38386 -19.97769,-10.08928 -19.97769,-10.08928"
         id="path9066"
         inkscape:connector-curvature="0"
         sodipodi:nodetypes="csccsc" />
      <path
         style="fill:#cccccc;fill-opacity:1;stroke:#000000;stroke-width:1px;stroke-linecap:butt;stroke-linejoin:miter;stroke-opacity:1"
         d="m 131.16071,205.4914 c -3.71328,0.43059 -6.51038,5.20056 -6.78571,8.92857 -0.26243,3.55333 0.25377,10.61079 4.68432,11.07144 3.84346,0.3996 7.05793,-5.74369 7.32144,-8.8393 0.41182,-4.83812 -0.12817,-11.5868 -5.22005,-11.16071 z"
         id="path9064"
         inkscape:connector-curvature="0"
         sodipodi:nodetypes="csssc" />
      <path
         style="fill:#cccccc;stroke:#000000;stroke-width:1px;stroke-linecap:butt;stroke-linejoin:miter;stroke-opacity:1"
         d="m 159.28571,218.6164 c 6.10804,3.20813 12.97429,5.09949 19.82143,5.89286 7.10745,0.82353 14.58756,0.84633 21.42857,-1.25 4.89969,-1.50144 9.44734,-4.38274 13.21429,-7.85714 4.98973,-4.60222 9.22197,-12.932 11.5016,-16.76499 2.35145,-3.95372 2.41199,-4.33937 4.53919,-4.19998 3.24241,0.21247 3.32377,4.60492 4.13778,7.75068 2.98246,11.52573 2.74235,24.05031 0.35714,35.71429 -2.0185,9.87074 -5.4797,20.12157 -12.14285,27.67857 -4.67863,5.30627 -11.14902,10.53511 -18.21429,10.89286 -6.16997,0.31242 -12.26672,-3.64468 -16.78571,-7.85715 -4.83377,-4.5059 -6.28718,-11.62864 -9.64286,-17.32143 -2.45747,-4.16901 -4.57898,-8.60493 -7.67857,-12.32142 -2.83381,-3.39781 -7.90612,-4.9402 -9.82143,-8.92858 -1.65234,-3.44078 -2.09393,-6.19481 -0.71429,-11.42857 z"
         id="path9060"
         inkscape:connector-curvature="0"
         sodipodi:nodetypes="csssssssssssssc" />
      <path
         style="fill:#cccccc;fill-opacity:1;stroke:#000000;stroke-width:1px;stroke-linecap:butt;stroke-linejoin:miter;stroke-opacity:1"
         d="m 155,203.6164 c 4.61383,-11.2696 16.18979,-23.78899 19.28571,-37.5 3.23485,-14.3263 -4.87835,-33.39787 -7.14285,-40.71428 -0.91314,-2.95028 5.12651,-4.22535 8.21428,-4.28572 9.74333,-0.19048 19.38403,5.76626 26.42857,12.5 8.27663,7.91148 13.85048,19.12498 16.07143,30.35715 2.15762,10.91188 1.2282,23.01679 -3.21428,33.21428 -2.79555,6.41706 -8.01003,10.92256 -14.05484,14.4516 -5.4491,3.18126 -12.12653,4.12298 -18.38203,5.23273 -1.89007,0.3353 -2.71848,0.25485 -5.01981,0.96683 C 169.49333,214.93964 159.63251,208.45905 155,203.6164 Z"
         id="path9058"
         inkscape:connector-curvature="0"
         sodipodi:nodetypes="csssssssscc" />
    </g>
  </g>
  <g
     inkscape:label="annotation"
     id="layer5"
     inkscape:groupmode="layer">
    <path
       style="display:inline;fill:none;stroke:#000000;stroke-width:0.99921262;stroke-linecap:butt;stroke-linejoin:miter;stroke-miterlimit:4;stroke-dasharray:none;stroke-opacity:1;marker-start:url(#Arrow1Mstart)"
       d="m 95.116364,116.0615 c 2.069456,5.99933 5.683826,11.2593 11.649776,11.05028 8.82798,-0.30929 13.76788,-14.72996 13.87122,-21.96954 0.15174,-10.631601 -3.84492,-25.763854 -15.24723,-23.226216 -4.05645,1.037591 -7.295027,4.326861 -9.482089,8.398903"
       id="path9064-4"
       inkscape:connector-curvature="0"
       sodipodi:nodetypes="csscc" />
    <g
       ns0:preamble="D:\\Onderwijs\\FLUI\\Cursusmateriaal\\Fluidummechanica\\tex\\packages.tex"
       ns0:text="$N$"
       word-spacing="normal"
       letter-spacing="normal"
       font-size-adjust="none"
       font-stretch="normal"
       font-weight="normal"
       font-variant="normal"
       font-style="normal"
       stroke-miterlimit="10.433"
       xml:space="preserve"
       transform="matrix(1.25,0,0,-1.25,-173.92159,1022.7515)"
       id="content"
       style="font-style:normal;font-variant:normal;font-weight:normal;font-stretch:normal;letter-spacing:normal;word-spacing:normal;text-anchor:start;fill:none;stroke:#000000;stroke-linecap:butt;stroke-linejoin:miter;stroke-miterlimit:10.43299961;stroke-dasharray:none;stroke-dashoffset:0;stroke-opacity:1">
<path
   id="path10029"
   d="m 230.95,712.87 0.02,0.07 0.01,0.04 0.02,0.03 0.01,0.04 0.01,0.03 0.02,0.03 0.01,0.04 0.02,0.03 0.02,0.03 0.02,0.03 0.02,0.03 0.02,0.02 0.02,0.03 0.03,0.03 0.03,0.02 0.03,0.03 0.03,0.02 0.04,0.02 0.03,0.02 0.04,0.02 0.05,0.02 0.04,0.01 0.05,0.02 0.05,0.01 0.05,0.02 0.06,0.01 0.06,0.01 0.06,0.01 0.07,0 0.07,0.01 0.03,0 0.04,0 c 0.05,0 0.17,0.01 0.17,0.2 0,0.01 0,0.11 -0.13,0.11 -0.33,0 -0.68,-0.03 -1.01,-0.03 -0.33,0 -0.68,0.03 -1.01,0.03 -0.06,0 -0.18,0 -0.18,-0.2 0,-0.11 0.1,-0.11 0.18,-0.11 0.57,-0.01 0.68,-0.22 0.68,-0.44 0,-0.02 -0.02,-0.17 -0.03,-0.2 l -1.12,-4.42 -2.2,5.18 c -0.08,0.18 -0.09,0.19 -0.32,0.19 l -1.33,0 c -0.2,0 -0.29,0 -0.29,-0.2 0,-0.11 0.09,-0.11 0.28,-0.11 0.05,0 0.68,0 0.68,-0.09 l -1.34,-5.33 c -0.1,-0.4 -0.27,-0.72 -1.07,-0.75 -0.06,0 -0.17,-0.01 -0.17,-0.2 0,-0.07 0.05,-0.1 0.13,-0.1 0.32,0 0.67,0.03 0.99,0.03 0.34,0 0.7,-0.03 1.03,-0.03 0.05,0 0.18,0 0.18,0.19 0,0.1 -0.09,0.11 -0.2,0.11 -0.58,0.02 -0.66,0.24 -0.66,0.44 0,0.07 0.01,0.12 0.04,0.23 l 1.32,5.24 c 0.03,-0.06 0.03,-0.08 0.09,-0.18 l 2.47,-5.85 c 0.07,-0.16 0.1,-0.18 0.19,-0.18 0.11,0 0.11,0.03 0.16,0.2 z"
   inkscape:connector-curvature="0"
   style="fill:#000000;stroke-width:0" />
</g>    <path
       sodipodi:nodetypes="cc"
       inkscape:connector-curvature="0"
       id="path10253"
       d="m 257.14286,149.91392 -40,1.97022"
       style="fill:none;stroke:#000000;stroke-width:1px;stroke-linecap:butt;stroke-linejoin:miter;stroke-opacity:1;marker-end:url(#Arrow1Mend)" />
    <path
       sodipodi:nodetypes="cc"
       inkscape:connector-curvature="0"
       id="path10255"
       d="m 257.14286,131.46154 -40,1.97022"
       style="fill:none;stroke:#000000;stroke-width:1px;stroke-linecap:butt;stroke-linejoin:miter;stroke-opacity:1;marker-end:url(#Arrow1Mend)" />
    <path
       sodipodi:nodetypes="cc"
       inkscape:connector-curvature="0"
       id="path10257"
       d="m 257.14286,113.00916 -40,1.97023"
       style="fill:none;stroke:#000000;stroke-width:1px;stroke-linecap:butt;stroke-linejoin:miter;stroke-opacity:1;marker-end:url(#Arrow1Mend)" />
    <path
       sodipodi:nodetypes="cc"
       inkscape:connector-curvature="0"
       id="path10259"
       d="m 257.14286,94.556785 -40,1.970222"
       style="fill:none;stroke:#000000;stroke-width:1px;stroke-linecap:butt;stroke-linejoin:miter;stroke-opacity:1;marker-end:url(#Arrow1Mend)" />
    <path
       sodipodi:nodetypes="cc"
       inkscape:connector-curvature="0"
       id="path10261"
       d="m 257.14286,76.104402 -40,1.970222"
       style="fill:none;stroke:#000000;stroke-width:1px;stroke-linecap:butt;stroke-linejoin:miter;stroke-opacity:1;marker-end:url(#Arrow1Mend)" />
    <path
       sodipodi:nodetypes="cc"
       inkscape:connector-curvature="0"
       id="path10263"
       d="m 257.14286,39.199637 -40,1.970222"
       style="fill:none;stroke:#000000;stroke-width:1px;stroke-linecap:butt;stroke-linejoin:miter;stroke-opacity:1;marker-end:url(#Arrow1Mend)" />
    <path
       style="fill:none;stroke:#000000;stroke-width:1px;stroke-linecap:butt;stroke-linejoin:miter;stroke-opacity:1;marker-end:url(#Arrow1Mend)"
       d="m 257.14286,57.652016 -40,1.970222"
       id="path10053"
       inkscape:connector-curvature="0"
       sodipodi:nodetypes="cc" />
    <g
       id="g10302"
       transform="matrix(1.25,0,0,-1.25,-38.965569,1048.8181)"
       xml:space="preserve"
       stroke-miterlimit="10.433"
       font-style="normal"
       font-variant="normal"
       font-weight="normal"
       font-stretch="normal"
       font-size-adjust="none"
       letter-spacing="normal"
       word-spacing="normal"
       ns0:text="$v$"
       ns0:preamble="D:\\Onderwijs\\FLUI\\Cursusmateriaal\\Fluidummechanica\\tex\\packages.tex"
       style="font-style:normal;font-variant:normal;font-weight:normal;font-stretch:normal;letter-spacing:normal;word-spacing:normal;text-anchor:start;fill:none;stroke:#000000;stroke-linecap:butt;stroke-linejoin:miter;stroke-miterlimit:10.43299961;stroke-dasharray:none;stroke-dashoffset:0;stroke-opacity:1">
<path
   style="fill:#000000;stroke-width:0"
   inkscape:connector-curvature="0"
   d="m 228.09,710.82 0,0.02 0,0.03 0,0.02 0,0.03 -0.01,0.02 0,0.02 0,0.02 0,0.02 -0.01,0.04 -0.01,0.04 -0.01,0.04 -0.01,0.04 -0.01,0.03 -0.01,0.03 -0.01,0.03 -0.01,0.03 -0.02,0.02 -0.01,0.03 -0.02,0.02 -0.01,0.02 -0.02,0.02 -0.02,0.02 -0.01,0.01 -0.02,0.02 -0.02,0.01 -0.02,0.01 -0.02,0.01 -0.02,0.01 -0.01,0.01 -0.02,0.01 -0.02,0 -0.02,0.01 -0.02,0 -0.01,0 -0.02,0.01 -0.02,0 c -0.25,0 -0.49,-0.26 -0.49,-0.48 0,-0.13 0.05,-0.19 0.16,-0.3 0.21,-0.2 0.34,-0.46 0.34,-0.81 0,-0.42 -0.61,-2.7 -1.77,-2.7 -0.51,0 -0.74,0.35 -0.74,0.87 0,0.56 0.27,1.28 0.58,2.1 0.07,0.17 0.12,0.31 0.12,0.5 0,0.45 -0.32,0.82 -0.82,0.82 -0.93,0 -1.31,-1.44 -1.31,-1.53 0,-0.1 0.1,-0.1 0.12,-0.1 0.1,0 0.11,0.02 0.16,0.18 0.29,1 0.71,1.23 1,1.23 0.08,0 0.25,0 0.25,-0.32 0,-0.25 -0.1,-0.52 -0.17,-0.7 -0.43,-1.15 -0.56,-1.61 -0.56,-2.03 0,-1.08 0.87,-1.23 1.33,-1.23 1.67,0 2.24,3.28 2.24,3.8 z"
   id="path10304" />
</g>    <path
       style="fill:none;stroke:#000000;stroke-width:0.99999988px;stroke-linecap:butt;stroke-linejoin:miter;stroke-opacity:1;marker-start:url(#marker4453);marker-end:url(#Arrow1Mend)"
       d="m 55.820478,206.65843 0,-201.9789431"
       id="path10339"
       inkscape:connector-curvature="0"
       sodipodi:nodetypes="cc" />
    <g
       style="font-style:normal;font-variant:normal;font-weight:normal;font-stretch:normal;letter-spacing:normal;word-spacing:normal;text-anchor:start;fill:none;stroke:#000000;stroke-linecap:butt;stroke-linejoin:miter;stroke-miterlimit:10.43299961;stroke-opacity:1;stroke-dasharray:none;stroke-dashoffset:0"
       ns0:preamble="D:\\Onderwijs\\FLUI\\Cursusmateriaal\\Fluidummechanica\\tex\\packages.tex"
       ns0:text="$D$"
       word-spacing="normal"
       letter-spacing="normal"
       font-size-adjust="none"
       font-stretch="normal"
       font-weight="normal"
       font-variant="normal"
       font-style="normal"
       stroke-miterlimit="10.433"
       xml:space="preserve"
       transform="matrix(1.25,0,0,-1.25,-239.30314,992.81251)"
       id="g10571">
<path
   id="path10573"
   d="m 225.01,707.9 -0.01,-0.04 0,-0.03 -0.01,-0.03 -0.01,-0.03 -0.01,-0.03 -0.01,-0.03 -0.01,-0.02 -0.01,-0.03 -0.01,-0.02 -0.01,-0.02 -0.01,-0.02 -0.02,-0.02 -0.01,-0.02 -0.02,-0.01 -0.02,-0.02 -0.02,-0.01 -0.02,-0.01 -0.03,-0.01 -0.03,-0.01 -0.03,-0.01 -0.03,-0.01 -0.02,0 -0.01,-0.01 -0.02,0 -0.02,0 -0.02,-0.01 -0.02,0 -0.02,0 -0.03,0 -0.02,-0.01 -0.02,0 -0.03,0 -0.03,0 -0.02,0 -0.03,0 -0.03,0 -0.03,0 -0.03,-0.01 -0.03,0 -0.04,0 -0.03,0 -0.03,0 -0.04,0 c -0.17,0 -0.28,0 -0.28,-0.19 0,-0.11 0.09,-0.11 0.28,-0.11 h 3.29 l -0.18,0.3 h -1.12 c -0.14,0 -0.16,0 -0.22,0.01 -0.1,0.01 -0.13,0.02 -0.13,0.1 0,0.03 0,0.05 0.05,0.23 l 1.36,5.45 c 0.09,0.35 0.11,0.38 0.54,0.38 h 1.06 c 0.98,0 1.81,-0.52 1.81,-1.84 0,-0.48 -0.2,-2.11 -1.05,-3.21 -0.29,-0.36 -1.07,-1.12 -2.3,-1.12 l 0.18,-0.3 c 2.07,0 4.03,2.09 4.03,4.27 0,1.4 -0.84,2.51 -2.34,2.51 h -3.34 c -0.19,0 -0.3,0 -0.3,-0.19 0,-0.12 0.09,-0.12 0.29,-0.12 0.13,0 0.31,-0.01 0.43,-0.02 0.16,-0.02 0.22,-0.05 0.22,-0.16 0,-0.04 -0.01,-0.07 -0.04,-0.19 z"
   inkscape:connector-curvature="0"
   style="fill:#000000;stroke-width:0" />
</g>    <path
       style="fill:none;stroke:#000000;stroke-width:0.35433072;stroke-linecap:butt;stroke-linejoin:miter;stroke-miterlimit:4;stroke-dasharray:none;stroke-opacity:1"
       d="m 51.012704,2.1545478 78.791896,0"
       id="path10613"
       inkscape:connector-curvature="0"
       sodipodi:nodetypes="cc" />
    <path
       inkscape:connector-curvature="0"
       id="path10615"
       d="m 51.012704,209.06289 78.791896,0"
       style="fill:none;stroke:#000000;stroke-width:0.35433072;stroke-linecap:butt;stroke-linejoin:miter;stroke-miterlimit:4;stroke-dasharray:none;stroke-opacity:1"
       sodipodi:nodetypes="cc" />
  </g>
</svg>
